<?xml version="1.0" encoding="UTF-8" standalone="no"?>
<svg
   xmlns:dc="http://purl.org/dc/elements/1.1/"
   xmlns:cc="http://creativecommons.org/ns#"
   xmlns:rdf="http://www.w3.org/1999/02/22-rdf-syntax-ns#"
   xmlns:svg="http://www.w3.org/2000/svg"
   xmlns="http://www.w3.org/2000/svg"
   xmlns:xlink="http://www.w3.org/1999/xlink"
   xmlns:sodipodi="http://sodipodi.sourceforge.net/DTD/sodipodi-0.dtd"
   xmlns:inkscape="http://www.inkscape.org/namespaces/inkscape"
   version="1.1"
   width="64"
   height="64"
   color-interpolation="linearRGB"
   id="svg2"
   sodipodi:version="0.32"
   inkscape:version="0.46"
   sodipodi:docname="folder-"
   inkscape:output_extension="org.inkscape.output.svg.inkscape">
  <metadata
     id="metadata43">
    <rdf:RDF>
      <cc:Work
         rdf:about="">
        <dc:format>image/svg+xml</dc:format>
        <dc:type
           rdf:resource="http://purl.org/dc/dcmitype/StillImage" />
      </cc:Work>
    </rdf:RDF>
  </metadata>
  <defs
     id="defs41">
    <inkscape:perspective
       sodipodi:type="inkscape:persp3d"
       inkscape:vp_x="0 : 32 : 1"
       inkscape:vp_y="0 : 1000 : 0"
       inkscape:vp_z="64 : 32 : 1"
       inkscape:persp3d-origin="32 : 21.333333 : 1"
       id="perspective45" />
    <inkscape:perspective
       id="perspective2483"
       inkscape:persp3d-origin="32 : 21.333333 : 1"
       inkscape:vp_z="64 : 32 : 1"
       inkscape:vp_y="0 : 1000 : 0"
       inkscape:vp_x="0 : 32 : 1"
       sodipodi:type="inkscape:persp3d" />
    <linearGradient
       inkscape:collect="always"
       xlink:href="#linearGradient2489"
       id="linearGradient2522"
       gradientUnits="userSpaceOnUse"
       x1="102.6"
       y1="8.5"
       x2="102.74"
       y2="47.07" />
    <linearGradient
       inkscape:collect="always"
       xlink:href="#gradient1"
       id="linearGradient2524"
       gradientUnits="userSpaceOnUse"
       x1="103.24"
       y1="12.68"
       x2="103.39"
       y2="55.34" />
    <linearGradient
       inkscape:collect="always"
       xlink:href="#gradient2"
       id="linearGradient2526"
       gradientUnits="userSpaceOnUse"
       x1="78.34"
       y1="-26.66"
       x2="101.46"
       y2="12.94" />
    <linearGradient
       inkscape:collect="always"
       xlink:href="#linearGradient2504"
       id="linearGradient2528"
       gradientUnits="userSpaceOnUse"
       x1="88.519997"
       y1="9.5900002"
       x2="97.540001"
       y2="51.290001" />
  </defs>
  <sodipodi:namedview
     inkscape:window-height="667"
     inkscape:window-width="674"
     inkscape:pageshadow="2"
     inkscape:pageopacity="0.0"
     guidetolerance="10.0"
     gridtolerance="10.0"
     objecttolerance="10.0"
     borderopacity="1.0"
     bordercolor="#666666"
     pagecolor="#ffffff"
     id="base"
     showgrid="false"
     inkscape:zoom="7.28125"
     inkscape:cx="16.772805"
     inkscape:cy="32"
     inkscape:window-x="316"
     inkscape:window-y="169"
     inkscape:current-layer="svg2" />
  <g
     id="g4">
    <path
       style="fill:#010101; fill-opacity:0.396"
       d="M42 61H48L52 57H56L62 51L48 47L42 61z"
       id="path6" />
    <path
       style="fill:none; stroke:#000000; stroke-width:4"
       d="M3 15L13 41L42 59L60 12L48 10L44 12L26 8L24 13L16 11L15.91 19.2L3 15z"
       id="path8" />
    <linearGradient
       id="gradient0"
       gradientUnits="userSpaceOnUse"
       x1="102.6"
       y1="8.5"
       x2="102.74"
       y2="47.07">
      <stop
         offset="0"
         stop-color="#face79"
         id="stop11" />
      <stop
         offset="1"
         stop-color="#bc4105"
         id="stop13" />
    </linearGradient>
    <path
       style="fill:url(#gradient0)"
       d="M26 8L14 41L42 58L60 12L48 10L44 12L26 8z"
       id="path15" />
    <linearGradient
       id="gradient1"
       gradientUnits="userSpaceOnUse"
       x1="103.24"
       y1="12.68"
       x2="103.39"
       y2="55.34">
      <stop
         offset="0"
         stop-color="#ffffff"
         id="stop18" />
      <stop
         offset="1"
         stop-color="#8e8e8e"
         id="stop20" />
    </linearGradient>
    <path
       style="fill:url(#gradient1)"
       d="M16 11V41L42 57L49 22L16 11z"
       id="path22" />
    <linearGradient
       id="gradient2"
       gradientUnits="userSpaceOnUse"
       x1="78.34"
       y1="-26.66"
       x2="101.46"
       y2="12.94">
      <stop
         offset="0"
         stop-color="#9a9a9a"
         id="stop25" />
      <stop
         offset="1"
         stop-color="#505050"
         id="stop27" />
    </linearGradient>
    <path
       style="fill:url(#gradient2)"
       d="M16 11L49 22L42 57L52 20.37L16 11z"
       id="path29" />
    <linearGradient
       id="gradient3"
       gradientUnits="userSpaceOnUse"
       x1="88.52"
       y1="9.59"
       x2="97.54"
       y2="51.29">
      <stop
         offset="0"
         stop-color="#ffe2ac"
         id="stop32" />
      <stop
         offset="1"
         stop-color="#f49806"
         id="stop34" />
    </linearGradient>
    <path
       style="fill:url(#gradient3)"
       d="M3 15L13 41L42 59L38 30L3 15z"
       id="path36" />
    <path
       style="fill:#a03d03"
       d="M3 15L38 30L42 59L40.5 28L3 15z"
       id="path38" />
  </g>
  <g
     id="g2420"
     transform="matrix(0.6051502,0,0,0.6051502,0.5493567,28.828327)">
    <path
       id="path2422"
       d="M 38,58 L 43,58 L 64,36 L 56,32 L 38,32 L 38,58 z"
       style="fill:#010000;fill-opacity:0.44309998" />
    <path
       id="path2424"
       d="M 2,30 L 21,14 L 58,28 L 58,36 L 38,56 L 2,38 L 2,30 z"
       style="fill:none;stroke:#010000;stroke-width:4" />
    <linearGradient
       y2="42.900002"
       x2="50.490002"
       y1="14.68"
       x1="35.389999"
       gradientUnits="userSpaceOnUse"
       id="linearGradient2489">
      <stop
         id="stop2427"
         stop-color="#686868"
         offset="0" />
      <stop
         id="stop2429"
         stop-color="#393939"
         offset="1" />
    </linearGradient>
    <path
       id="path2431"
       d="M 38,56 L 2,38 L 2,30 L 38,46 L 38,56 z"
       style="fill:url(#linearGradient2522);fill-opacity:1.0" />
    <linearGradient
       y2="59.240002"
       x2="30.43"
       y1="66.300003"
       x1="39.810001"
       gradientUnits="userSpaceOnUse"
       id="linearGradient2494">
      <stop
         id="stop2434"
         stop-color="#505050"
         offset="0" />
      <stop
         id="stop2436"
         stop-color="#222222"
         offset="1" />
    </linearGradient>
    <path
       id="path2438"
       d="M 38,46 L 38,56 L 58,36 L 58,28 L 38,46 z"
       style="fill:url(#linearGradient2524)" />
    <linearGradient
       y2="34.25"
       x2="61.23"
       y1="4.6599998"
       x1="49.049999"
       gradientUnits="userSpaceOnUse"
       id="linearGradient2499">
      <stop
         id="stop2441"
         stop-color="#aeaeae"
         offset="0" />
      <stop
         id="stop2443"
         stop-color="#7c7c7c"
         offset="1" />
    </linearGradient>
    <path
       id="path2445"
       d="M 4.23,28.11 L 21,14 L 58,28 L 40.37,43.86 L 4.23,28.11 z"
       style="fill:url(#linearGradient2526)" />
    <linearGradient
       y2="26.73"
       x2="57.119999"
       y1="5.0799999"
       x1="33.549999"
       gradientUnits="userSpaceOnUse"
       id="linearGradient2504">
      <stop
         id="stop2448"
         stop-color="#8e8e8e"
         offset="0" />
      <stop
         id="stop2450"
         stop-color="#5a5a5a"
         offset="1" />
    </linearGradient>
    <path
       id="path2452"
       d="M 2,30 L 4.23,28.11 L 40.37,43.86 L 38,46 L 2,30 z"
       style="fill:url(#linearGradient2528);fill-opacity:1.0" />
    <path
       id="path2454"
       d="M 39,36 C 37,35 18,27 16,26 C 14,25 14,23 16,21 C 18,19 21,18 23,19 C 25,20 45,27 47,28 C 49,29 51,31 48,34 C 45,37 41,37 39,36 z"
       style="fill:none;stroke:#010000;stroke-width:2" />
    <linearGradient
       y2="6.1500001"
       x2="49.009998"
       y1="4.52"
       x1="17.540001"
       gradientUnits="userSpaceOnUse"
       id="gradient4">
      <stop
         id="stop2457"
         stop-color="#3c3b3b"
         offset="0" />
      <stop
         id="stop2459"
         stop-color="#737373"
         offset="0.2681" />
      <stop
         id="stop2461"
         stop-color="#3a3a3a"
         offset="1" />
    </linearGradient>
    <path
       id="path2463"
       d="M 39,36 C 37,35 18,27 16,26 C 14,25 14,23 16,21 C 18,19 21,18 23,19 C 25,20 45,27 47,28 C 49,29 51,31 48,34 C 45,37 41,37 39,36 z"
       style="fill:url(#gradient4)" />
    <path
       id="path2465"
       d="M 23,22 C 21.34,22 20,22.89 20,24 C 20,25.1 21.34,26 23,26 C 24.65,26 26,25.1 26,24 C 26,22.89 24.65,22 23,22 z"
       style="fill:#828282" />
    <path
       id="path2467"
       transform="translate(17,7.375)"
       d="M 23,22 C 21.34,22 20,22.89 20,24 C 20,25.1 21.34,26 23,26 C 24.65,26 26,25.1 26,24 C 26,22.89 24.65,22 23,22 z"
       style="fill:#7c7c7c" />
    <linearGradient
       y2="24.25"
       x2="63.900002"
       y1="1.0599999"
       x1="41.84"
       gradientUnits="userSpaceOnUse"
       id="gradient5">
      <stop
         id="stop2470"
         stop-color="#ffffff"
         offset="0" />
      <stop
         id="stop2472"
         stop-color="#e8e8e8"
         offset="1" />
    </linearGradient>
    <path
       id="path2474"
       d="M 34.62,33.37 L 21,28 L 28.12,21.87 L 42,26.87 L 34.62,33.37 z"
       style="fill:url(#gradient5)" />
    <path
       id="path2476"
       d="M 4,28 L 41,44 L 42.5,42.5 L 42.5,45.5 L 39,56"
       style="fill:none;stroke:#090909;stroke-width:1" />
  </g>
</svg>
