<?xml version="1.0" encoding="UTF-8" standalone="yes"?>
<svg version="1.1" width="64" height="64" color-interpolation="linearRGB"
     xmlns:svg="http://www.w3.org/2000/svg" xmlns="http://www.w3.org/2000/svg">
 <g>
  <path style="fill:#010101; fill-opacity:0.396"
        d="M42 61H48L52 57H56L62 51L48 47L42 61z"
  />
  <path style="fill:none; stroke:#000000; stroke-width:4"
        d="M3 15L13 41L42 59L60 12L48 10L44 12L26 8L24 13L16 11L15.9 19.2L3 15z"
  />
  <linearGradient id="gradient0" gradientUnits="userSpaceOnUse" x1="102.59" y1="8.5" x2="102.73" y2="47.06">
   <stop offset="0" stop-color="#face79"/>
   <stop offset="1" stop-color="#bc4105"/>
  </linearGradient>
  <path style="fill:url(#gradient0)"
        d="M26 8L14 41L42 58L60 12L48 10L44 12L26 8z"
  />
  <linearGradient id="gradient1" gradientUnits="userSpaceOnUse" x1="103.23" y1="12.68" x2="103.38" y2="55.34">
   <stop offset="0" stop-color="#ffffff"/>
   <stop offset="1" stop-color="#8e8e8e"/>
  </linearGradient>
  <path style="fill:url(#gradient1)"
        d="M16 11V41L42 57L49 22L16 11z"
  />
  <linearGradient id="gradient2" gradientUnits="userSpaceOnUse" x1="78.33" y1="-26.65" x2="101.45" y2="12.93">
   <stop offset="0" stop-color="#9a9a9a"/>
   <stop offset="1" stop-color="#505050"/>
  </linearGradient>
  <path style="fill:url(#gradient2)"
        d="M16 11L49 22L42 57L52 20.37L16 11z"
  />
  <linearGradient id="gradient3" gradientUnits="userSpaceOnUse" x1="88.51" y1="9.59" x2="97.54" y2="51.29">
   <stop offset="0" stop-color="#ffe2ac"/>
   <stop offset="1" stop-color="#f49806"/>
  </linearGradient>
  <path style="fill:url(#gradient3)"
        d="M3 15L13 41L42 59L38 30L3 15z"
  />
  <path style="fill:#a03d03"
        d="M3 15L38 30L42 59L40.5 28L3 15z"
  />
  <path style="fill:none; stroke:#000000; stroke-width:4; stroke-linecap:round; stroke-linejoin:round"
        d="M40 36C40 38.2 35.74 40 30.5 40C25.25 40 21 38.2 21 36C21 33.79 16.71 32 11.5 32C6.25 32 2 33.79 2 36V6C2 3.78 6.25 2 11.5 2C16.71 2 21 3.78 21 6C21 8.19 25.25 10 30.5 10C35.74 10 40 8.19 40 6V36z"
        transform="matrix(0.7954,0,0,0.7727,1,28.9999)"
  />
  <path style="fill:none; stroke:#000000; stroke-opacity:0.4; stroke-width:4; stroke-linecap:round; stroke-linejoin:round"
        d="M42 38C42 40.2 37.74 42 32.5 42C27.25 42 23 40.2 23 38C23 35.79 18.71 34 13.5 34C8.25 34 4 35.79 4 38V8C4 5.78 8.25 4 13.5 4C18.71 4 23 5.78 23 8C23 10.19 27.25 12 32.5 12C37.74 12 42 10.19 42 8V38z"
        transform="matrix(0.7954,0,0,0.7727,1,28.9999)"
  />
  <linearGradient id="gradient4" gradientUnits="userSpaceOnUse" x1="128" y1="1.99" x2="128" y2="40">
   <stop offset="0" stop-color="#ffffff"/>
   <stop offset="1" stop-color="#e5e5e5"/>
  </linearGradient>
  <path style="fill:url(#gradient4)"
        d="M40 34C40 36.2 35.74 38 30.5 38C25.25 38 21 36.2 21 34C21 31.79 16.71 30 11.5 30C6.25 30 2 31.79 2 34V8C2 5.78 6.25 4 11.5 4C16.71 4 21 5.78 21 8C21 10.19 25.25 12 30.5 12C35.74 12 40 10.19 40 8V34z"
        transform="matrix(0.7954,0,0,0.7727,1,28.9999)"
  />
  <linearGradient id="gradient5" gradientUnits="userSpaceOnUse" x1="128" y1="1.99" x2="128" y2="40">
   <stop offset="0" stop-color="#808080"/>
   <stop offset="1" stop-color="#282828"/>
  </linearGradient>
  <path style="fill:url(#gradient5)"
        d="M40 36C40 38.2 35.74 40 30.5 40C25.25 40 21 38.2 21 36C21 33.79 16.71 32 11.5 32C6.25 32 2 33.79 2 36V34C2 31.79 6.25 30 11.5 30C16.71 30 21 31.79 21 34C21 36.2 25.25 38 30.5 38C35.74 38 40 36.2 40 34V36z
           M40 8C40 10.19 35.74 12 30.5 12C25.25 12 21 10.19 21 8C21 5.78 16.71 4 11.5 4C6.25 4 2 5.78 2 8V6C2 3.78 6.25 2 11.5 2C16.71 2 21 3.78 21 6C21 8.19 25.25 10 30.5 10C35.74 10 40 8.19 40 6V8z
           M40 30C40 32.2 35.74 34 30.5 34C25.25 34 21 32.2 21 30C21 27.79 16.71 26 11.5 26C6.25 26 2 27.79 2 30V12C2 9.78 6.25 8 11.5 8C16.71 8 21 9.78 21 12C21 14.19 25.25 16 30.5 16C35.74 16 40 14.19 40 12V30z
           M8 4V31H6V4
           M20 6V32H18V4
           M14 4V30H12V4
           M26 12V38H24V10
           M32 12V38H30V12
           M38 10V36L36 38V10"
        transform="matrix(0.7954,0,0,0.7727,1,28.9999)"
  />
  <linearGradient id="gradient6" gradientUnits="userSpaceOnUse" x1="128" y1="12" x2="128" y2="30">
   <stop offset="0" stop-color="#ffff80"/>
   <stop offset="1" stop-color="#ffd400"/>
  </linearGradient>
  <path style="fill:url(#gradient6)"
        d="M20 24.2C18.44 22.89 15.21 22 11.5 22C8.43 22 5.71 22.6 3.99 23.54L4 13.52C5.73 12.6 8.44 12 11.5 12C15.21 12 18.44 12.89 20 14.21V24.2z
           M21.98 18C23.54 19.3 26.78 20.2 30.48 20.2C33.54 20.2 36.25 19.61 38 18.65L37.97 28.67C36.24 29.61 33.52 30.2 30.48 30.2C26.78 30.2 23.54 29.3 21.98 27.98V18z"
        transform="matrix(0.7954,0,0,0.7727,1,28.9999)"
  />
 </g>
</svg>
