<?xml version="1.0" encoding="UTF-8" standalone="yes"?>
<svg version="1.1" width="64" height="64" color-interpolation="linearRGB"
     xmlns:svg="http://www.w3.org/2000/svg" xmlns="http://www.w3.org/2000/svg">
 <g>
  <path style="fill:#010101; fill-opacity:0.396"
        d="M42 61H48L52 57H56L62 51L48 47L42 61z"
  />
  <path style="fill:none; stroke:#000000; stroke-width:4"
        d="M3 15L13 41L42 59L60 12L48 10L44 12L26 8L24 13L16 11L15.89 19.2L3 15z"
  />
  <linearGradient id="gradient0" gradientUnits="userSpaceOnUse" x1="102.58" y1="8.5" x2="102.73" y2="47.06">
   <stop offset="0" stop-color="#face79"/>
   <stop offset="1" stop-color="#bc4105"/>
  </linearGradient>
  <path style="fill:url(#gradient0)"
        d="M26 8L14 41L42 58L60 12L48 10L44 12L26 8z"
  />
  <linearGradient id="gradient1" gradientUnits="userSpaceOnUse" x1="103.23" y1="12.68" x2="103.37" y2="55.34">
   <stop offset="0" stop-color="#ffffff"/>
   <stop offset="1" stop-color="#8e8e8e"/>
  </linearGradient>
  <path style="fill:url(#gradient1)"
        d="M16 11V41L42 57L49 22L16 11z"
  />
  <linearGradient id="gradient2" gradientUnits="userSpaceOnUse" x1="78.33" y1="-26.64" x2="101.44" y2="12.93">
   <stop offset="0" stop-color="#9a9a9a"/>
   <stop offset="1" stop-color="#505050"/>
  </linearGradient>
  <path style="fill:url(#gradient2)"
        d="M16 11L49 22L42 57L52 20.37L16 11z"
  />
  <linearGradient id="gradient3" gradientUnits="userSpaceOnUse" x1="88.51" y1="9.59" x2="97.54" y2="51.29">
   <stop offset="0" stop-color="#ffe2ac"/>
   <stop offset="1" stop-color="#f49806"/>
  </linearGradient>
  <path style="fill:url(#gradient3)"
        d="M3 15L13 41L42 59L38 30L3 15z"
  />
  <path style="fill:#a03d03"
        d="M3 15L38 30L42 59L40.5 28L3 15z"
  />
  <path style="fill:none; stroke:#000000; stroke-opacity:0.4; stroke-width:2.9148; stroke-linejoin:round"
        d="M6.25 38.95C3.25 41.77 3.25 47.43 6.25 50.26L18.24 61.57V38.95C15.25 36.12 9.25 36.12 6.25 38.95z
           M18.24 38.95V61.57L30.24 50.26C33.24 47.43 33.24 41.77 30.24 38.95C27.24 36.12 21.24 36.12 18.24 38.95z"
  />
  <path style="fill:none; stroke:#000000; stroke-width:4; stroke-linecap:round; stroke-linejoin:round"
        d="M4.75 37.53C1.75 40.36 1.75 46.01 4.75 48.84L16.74 60.15V37.53C13.75 34.7 7.75 34.7 4.75 37.53z
           M16.74 37.53V60.15L28.74 48.84C31.74 46.01 31.74 40.36 28.74 37.53C25.74 34.7 19.74 34.7 16.74 37.53z"
  />
  <linearGradient id="gradient4" gradientUnits="userSpaceOnUse" x1="96.98" y1="35.4" x2="96.98" y2="62.27">
   <stop offset="0" stop-color="#ffabab"/>
   <stop offset="1" stop-color="#d90000"/>
  </linearGradient>
  <path style="fill:url(#gradient4)"
        d="M4.75 37.53C1.75 40.36 1.75 46.01 4.75 48.84L16.74 60.15V37.53C13.75 34.7 7.75 34.7 4.75 37.53z
           M16.74 37.53V60.15L28.74 48.84C31.74 46.01 31.74 40.36 28.74 37.53C25.74 34.7 19.74 34.7 16.74 37.53z"
  />
 </g>
</svg>
