<?xml version="1.0" encoding="UTF-8" standalone="yes"?>
<svg version="1.1" width="64" height="64" color-interpolation="linearRGB"
     xmlns:svg="http://www.w3.org/2000/svg" xmlns="http://www.w3.org/2000/svg">
 <g>
  <path style="fill:#010101; fill-opacity:0.396"
        d="M42 61H48L52 57H56L62 51L48 47L42 61z"
  />
  <path style="fill:none; stroke:#000000; stroke-width:4"
        d="M3 15L13 41L42 59L60 12L48 10L44 12L26 8L24 13L16 11L15.89 19.2L3 15z"
  />
  <linearGradient id="gradient0" gradientUnits="userSpaceOnUse" x1="102.58" y1="8.5" x2="102.73" y2="47.06">
   <stop offset="0" stop-color="#face79"/>
   <stop offset="1" stop-color="#bc4105"/>
  </linearGradient>
  <path style="fill:url(#gradient0)"
        d="M26 8L14 41L42 58L60 12L48 10L44 12L26 8z"
  />
  <linearGradient id="gradient1" gradientUnits="userSpaceOnUse" x1="103.23" y1="12.68" x2="103.37" y2="55.34">
   <stop offset="0" stop-color="#ffffff"/>
   <stop offset="1" stop-color="#8e8e8e"/>
  </linearGradient>
  <path style="fill:url(#gradient1)"
        d="M16 11V41L42 57L49 22L16 11z"
  />
  <linearGradient id="gradient2" gradientUnits="userSpaceOnUse" x1="78.33" y1="-26.64" x2="101.44" y2="12.93">
   <stop offset="0" stop-color="#9a9a9a"/>
   <stop offset="1" stop-color="#505050"/>
  </linearGradient>
  <path style="fill:url(#gradient2)"
        d="M16 11L49 22L42 57L52 20.37L16 11z"
  />
  <linearGradient id="gradient3" gradientUnits="userSpaceOnUse" x1="88.51" y1="9.59" x2="97.54" y2="51.29">
   <stop offset="0" stop-color="#ffe2ac"/>
   <stop offset="1" stop-color="#f49806"/>
  </linearGradient>
  <path style="fill:url(#gradient3)"
        d="M3 15L13 41L42 59L38 30L3 15z"
  />
  <path style="fill:#a03d03"
        d="M3 15L38 30L42 59L40.5 28L3 15z"
  />
  <path style="fill:none; stroke:#000000; stroke-opacity:0.4; stroke-width:2.8619; stroke-linecap:round; stroke-linejoin:round"
        d="M3.83 51.35L17.91 36.81H27.77V46.98L13.69 61.52L3.83 51.35z"
  />
  <path style="fill:none; stroke:#000000; stroke-width:4; stroke-linecap:round; stroke-linejoin:round"
        d="M2.42 49.89L16.5 35.36H26.36V45.53L12.28 60.07L2.42 49.89z"
  />
  <linearGradient id="gradient4" gradientUnits="userSpaceOnUse" x1="91.13" y1="33.89" x2="91.13" y2="58.61">
   <stop offset="0" stop-color="#ffff80"/>
   <stop offset="1" stop-color="#ffd400"/>
  </linearGradient>
  <path style="fill:url(#gradient4)"
        d="M2.42 49.89L16.5 35.36H26.36V45.53L12.28 60.07L2.42 49.89z"
  />
  <path style="fill:none; stroke:#000000; stroke-width:1.4309"
        d="M23.54 36.81C22.75 36.81 22.14 37.46 22.14 38.26C22.14 39.06 22.75 39.72 23.54 39.72C24.31 39.72 24.95 39.06 24.95 38.26C24.95 37.46 24.31 36.81 23.54 36.81z"
  />
  <path style="fill:none; stroke:#000000; stroke-width:1.4309; stroke-linecap:round; stroke-linejoin:round"
        d="M6.65 49.89L17.91 38.26
           M10.87 51.35L17.91 44.08
           M12.28 55.71L22.14 45.53
           M23.54 38.26C22.14 39.72 15.8 50.62 26.36 50.62C36.92 50.62 26.36 36.08 31.29 31.72"
  />
 </g>
</svg>
