<?xml version="1.0" encoding="UTF-8" standalone="no"?>
<svg
   xmlns:dc="http://purl.org/dc/elements/1.1/"
   xmlns:cc="http://creativecommons.org/ns#"
   xmlns:rdf="http://www.w3.org/1999/02/22-rdf-syntax-ns#"
   xmlns:svg="http://www.w3.org/2000/svg"
   xmlns="http://www.w3.org/2000/svg"
   xmlns:xlink="http://www.w3.org/1999/xlink"
   xmlns:sodipodi="http://sodipodi.sourceforge.net/DTD/sodipodi-0.dtd"
   xmlns:inkscape="http://www.inkscape.org/namespaces/inkscape"
   version="1.1"
   width="64"
   height="64"
   color-interpolation="linearRGB"
   id="svg2"
   sodipodi:version="0.32"
   inkscape:version="0.46"
   sodipodi:docname="folder-"
   inkscape:output_extension="org.inkscape.output.svg.inkscape">
  <metadata
     id="metadata43">
    <rdf:RDF>
      <cc:Work
         rdf:about="">
        <dc:format>image/svg+xml</dc:format>
        <dc:type
           rdf:resource="http://purl.org/dc/dcmitype/StillImage" />
      </cc:Work>
    </rdf:RDF>
  </metadata>
  <defs
     id="defs41">
    <inkscape:perspective
       sodipodi:type="inkscape:persp3d"
       inkscape:vp_x="0 : 32 : 1"
       inkscape:vp_y="0 : 1000 : 0"
       inkscape:vp_z="64 : 32 : 1"
       inkscape:persp3d-origin="32 : 21.333333 : 1"
       id="perspective45" />
    <inkscape:perspective
       id="perspective2569"
       inkscape:persp3d-origin="32 : 21.333333 : 1"
       inkscape:vp_z="64 : 32 : 1"
       inkscape:vp_y="0 : 1000 : 0"
       inkscape:vp_x="0 : 32 : 1"
       sodipodi:type="inkscape:persp3d" />
    <linearGradient
       inkscape:collect="always"
       xlink:href="#gradient3"
       id="linearGradient2659"
       gradientUnits="userSpaceOnUse"
       x1="103.24"
       y1="12.68"
       x2="103.39"
       y2="55.34" />
    <linearGradient
       inkscape:collect="always"
       xlink:href="#gradient14"
       id="linearGradient2661"
       gradientUnits="userSpaceOnUse"
       x1="78.339996"
       y1="-26.66"
       x2="101.46"
       y2="12.94" />
    <linearGradient
       inkscape:collect="always"
       xlink:href="#gradient3"
       id="linearGradient2663"
       gradientUnits="userSpaceOnUse"
       x1="88.52"
       y1="9.59"
       x2="97.54"
       y2="51.29" />
    <linearGradient
       inkscape:collect="always"
       xlink:href="#linearGradient2573"
       id="linearGradient3437"
       x1="17.153505"
       y1="48.765312"
       x2="-1.5505534"
       y2="67.469376"
       gradientUnits="userSpaceOnUse" />
  </defs>
  <sodipodi:namedview
     inkscape:window-height="667"
     inkscape:window-width="674"
     inkscape:pageshadow="2"
     inkscape:pageopacity="0.0"
     guidetolerance="10.0"
     gridtolerance="10.0"
     objecttolerance="10.0"
     borderopacity="1.0"
     bordercolor="#666666"
     pagecolor="#ffffff"
     id="base"
     showgrid="false"
     inkscape:zoom="7.28125"
     inkscape:cx="10.312782"
     inkscape:cy="31.299159"
     inkscape:window-x="1000"
     inkscape:window-y="90"
     inkscape:current-layer="svg2" />
  <g
     id="g4">
    <path
       style="fill:#010101; fill-opacity:0.396"
       d="M42 61H48L52 57H56L62 51L48 47L42 61z"
       id="path6" />
    <path
       style="fill:none; stroke:#000000; stroke-width:4"
       d="M3 15L13 41L42 59L60 12L48 10L44 12L26 8L24 13L16 11L15.91 19.2L3 15z"
       id="path8" />
    <linearGradient
       id="gradient0"
       gradientUnits="userSpaceOnUse"
       x1="102.6"
       y1="8.5"
       x2="102.74"
       y2="47.07">
      <stop
         offset="0"
         stop-color="#face79"
         id="stop11" />
      <stop
         offset="1"
         stop-color="#bc4105"
         id="stop13" />
    </linearGradient>
    <path
       style="fill:url(#gradient0)"
       d="M26 8L14 41L42 58L60 12L48 10L44 12L26 8z"
       id="path15" />
    <linearGradient
       id="gradient1"
       gradientUnits="userSpaceOnUse"
       x1="103.24"
       y1="12.68"
       x2="103.39"
       y2="55.34">
      <stop
         offset="0"
         stop-color="#ffffff"
         id="stop18" />
      <stop
         offset="1"
         stop-color="#8e8e8e"
         id="stop20" />
    </linearGradient>
    <path
       style="fill:url(#gradient1)"
       d="M16 11V41L42 57L49 22L16 11z"
       id="path22" />
    <linearGradient
       id="gradient2"
       gradientUnits="userSpaceOnUse"
       x1="78.34"
       y1="-26.66"
       x2="101.46"
       y2="12.94">
      <stop
         offset="0"
         stop-color="#9a9a9a"
         id="stop25" />
      <stop
         offset="1"
         stop-color="#505050"
         id="stop27" />
    </linearGradient>
    <path
       style="fill:url(#gradient2)"
       d="M16 11L49 22L42 57L52 20.37L16 11z"
       id="path29" />
    <linearGradient
       id="gradient3"
       gradientUnits="userSpaceOnUse"
       x1="88.52"
       y1="9.59"
       x2="97.54"
       y2="51.29">
      <stop
         offset="0"
         stop-color="#ffe2ac"
         id="stop32" />
      <stop
         offset="1"
         stop-color="#f49806"
         id="stop34" />
    </linearGradient>
    <path
       style="fill:url(#gradient3)"
       d="M3 15L13 41L42 59L38 30L3 15z"
       id="path36" />
    <path
       style="fill:#a03d03"
       d="M3 15L38 30L42 59L40.5 28L3 15z"
       id="path38" />
  </g>
  <g
     id="g2420"
     transform="matrix(0.4846209,0,0,0.4846209,-0.1080114,32.073672)">
    <linearGradient
       y2="74.07"
       x2="17.690001"
       y1="65.970001"
       x1="26.27"
       gradientUnits="userSpaceOnUse"
       id="linearGradient2573">
      <stop
         id="stop2423"
         stop-color="#000000"
         offset="0" />
      <stop
         id="stop2425"
         stop-opacity="0"
         stop-color="#000000"
         offset="1" />
    </linearGradient>
    <path
       id="path2427"
       d="M 17,49 L 5,61"
       style="fill:none;stroke:url(#linearGradient3437);stroke-width:8" />
    <path
       id="path2429"
       d="M 32,16 L 22,26 C 18,30 15,47 15,47 L 19,51 C 19,51 34,46 38,42 L 48,32 L 32,16 z M 28,15 C 27,16 26,18 26,19 C 26,20 26,23 28,25 C 30,27 33,27 35,27 C 37,27 40,26 41,25 L 29.61,13.74 L 28,15 z"
       style="fill:none;stroke:#000000;stroke-width:3" />
    <path
       id="path2431"
       d="M 55.5,11.5 L 56.5,10.5 L 52,6 L 50.66,6.66 L 49,5 L 46,8 L 45,7 L 37.85,14.13 L 32.74,16.74 L 46,30 L 60,16 L 55.5,11.5 z"
       style="fill:none;stroke:#000000;stroke-width:3" />
    <linearGradient
       y2="74.07"
       x2="17.690001"
       y1="65.970001"
       x1="26.27"
       gradientUnits="userSpaceOnUse"
       id="linearGradient2580">
      <stop
         id="stop2434"
         stop-color="#ffcc00"
         offset="0" />
      <stop
         id="stop2436"
         stop-opacity="0"
         stop-color="#ffcc00"
         offset="1" />
    </linearGradient>
    <path
       id="path2438"
       transform="translate(-1,-1)"
       d="M 17,49 L 5,61"
       style="fill:none;stroke:url(#linearGradient2659);stroke-width:2" />
    <linearGradient
       y2="74.07"
       x2="17.690001"
       y1="65.970001"
       x1="26.27"
       gradientUnits="userSpaceOnUse"
       id="linearGradient2585">
      <stop
         id="stop2441"
         stop-color="#ff7e00"
         offset="0" />
      <stop
         id="stop2443"
         stop-opacity="0"
         stop-color="#ff7e00"
         offset="1" />
    </linearGradient>
    <path
       id="path2445"
       d="M 17,49 L 5,61"
       style="fill:none;stroke:url(#linearGradient2661);stroke-width:2" />
    <linearGradient
       y2="74.07"
       x2="17.690001"
       y1="65.970001"
       x1="26.27"
       gradientUnits="userSpaceOnUse"
       id="linearGradient2590">
      <stop
         id="stop2448"
         stop-color="#ca5a00"
         offset="0" />
      <stop
         id="stop2450"
         stop-opacity="0"
         stop-color="#ca5a00"
         offset="1" />
    </linearGradient>
    <path
       id="path2452"
       transform="translate(1,1)"
       d="M 17,49 L 5,61"
       style="fill:none;stroke:url(#linearGradient2663);stroke-width:2" />
    <linearGradient
       y2="19.01"
       x2="42.82"
       y1="25.73"
       x1="41.02"
       gradientUnits="userSpaceOnUse"
       id="gradient4">
      <stop
         id="stop2455"
         stop-color="#b2b2b2"
         offset="0" />
      <stop
         id="stop2457"
         stop-color="#e5e5e5"
         offset="1" />
    </linearGradient>
    <path
       id="path2459"
       d="M 45,7 L 34,18 L 42,26 L 53,15 L 45,7 z"
       style="fill:url(#gradient4)" />
    <linearGradient
       y2="11.72"
       x2="51.169998"
       y1="15"
       x1="50.290001"
       gradientUnits="userSpaceOnUse"
       id="gradient5">
      <stop
         id="stop2462"
         stop-color="#b2b2b2"
         offset="0" />
      <stop
         id="stop2464"
         stop-color="#e5e5e5"
         offset="1" />
    </linearGradient>
    <path
       id="path2466"
       d="M 49,5 L 46,8 L 54,16 L 57,13 L 49,5 z"
       style="fill:url(#gradient5)" />
    <linearGradient
       y2="21.5"
       x2="60"
       y1="21.5"
       x1="42"
       gradientUnits="userSpaceOnUse"
       id="gradient6">
      <stop
         id="stop2469"
         stop-color="#6f8793"
         offset="0" />
      <stop
         id="stop2471"
         stop-color="#6a7883"
         offset="0.3254" />
      <stop
         id="stop2473"
         stop-color="#a4b2bd"
         offset="0.6509" />
      <stop
         id="stop2475"
         stop-color="#7c8a94"
         offset="1" />
    </linearGradient>
    <path
       id="path2477"
       d="M 57,13 L 54,16 L 53,15 L 42,26 L 46,30 L 60,16 L 57,13 z"
       style="fill:url(#gradient6)" />
    <linearGradient
       y2="11.35"
       x2="51.27"
       y1="13.64"
       x1="50.650002"
       gradientUnits="userSpaceOnUse"
       id="gradient7">
      <stop
         id="stop2480"
         stop-color="#404040"
         offset="0" />
      <stop
         id="stop2482"
         stop-color="#808080"
         offset="1" />
    </linearGradient>
    <path
       id="path2484"
       d="M 52,14 L 55,11 L 51,7 L 48,10 L 52,14 z"
       style="fill:url(#gradient7)" />
    <linearGradient
       y2="18.370001"
       x2="43.630001"
       y1="23.84"
       x1="42.16"
       gradientUnits="userSpaceOnUse"
       id="gradient8">
      <stop
         id="stop2487"
         stop-color="#404040"
         offset="0" />
      <stop
         id="stop2489"
         stop-color="#808080"
         offset="1" />
    </linearGradient>
    <path
       id="path2491"
       d="M 43.99,13.99 L 37,21 L 39,23 L 46,16 L 47,17 L 51,13 L 47,9 L 43,13 L 43.99,13.99 z"
       style="fill:url(#gradient8)" />
    <linearGradient
       y2="12.75"
       x2="56.5"
       y1="12.75"
       x1="46"
       gradientUnits="userSpaceOnUse"
       id="gradient9">
      <stop
         id="stop2494"
         stop-color="#bfbfbf"
         offset="0" />
      <stop
         id="stop2496"
         stop-color="#8c8c8c"
         offset="1" />
    </linearGradient>
    <path
       id="path2498"
       d="M 56.5,10.5 L 56,10 L 46,15 L 46,15.5 L 55,11 L 55.5,11.5 L 56.5,10.5 z"
       style="fill:url(#gradient9)" />
    <path
       id="path2500"
       d="M 42,11 L 46,15 L 46,15.5 L 42,11.5 L 42,11 z"
       style="fill:#afafaf" />
    <linearGradient
       y2="9"
       x2="44"
       y1="14"
       x1="44"
       gradientUnits="userSpaceOnUse"
       id="gradient10">
      <stop
         id="stop2503"
         stop-color="#cccccc"
         offset="0" />
      <stop
         id="stop2505"
         stop-color="#ffffff"
         offset="1" />
    </linearGradient>
    <path
       id="path2507"
       d="M 52,6 L 42,11 L 46,15 L 56,10 L 52,6 z"
       style="fill:url(#gradient10)" />
    <linearGradient
       y2="10.5"
       x2="39.869999"
       y1="18.75"
       x1="39.869999"
       gradientUnits="userSpaceOnUse"
       id="gradient11">
      <stop
         id="stop2510"
         stop-color="#cccccc"
         offset="0" />
      <stop
         id="stop2512"
         stop-color="#ffffff"
         offset="1" />
    </linearGradient>
    <path
       id="path2514"
       d="M 45,10.5 L 32.74,16.74 L 34.74,18.74 L 47,12.5 L 45,10.5 z"
       style="fill:url(#gradient11)" />
    <linearGradient
       y2="15.79"
       x2="47"
       y1="15.79"
       x1="34.75"
       gradientUnits="userSpaceOnUse"
       id="gradient12">
      <stop
         id="stop2517"
         stop-color="#808080"
         offset="0" />
      <stop
         id="stop2519"
         stop-color="#a3a3a3"
         offset="1" />
    </linearGradient>
    <path
       id="path2521"
       d="M 34.74,18.74 L 35.07,19.07 L 47,13 L 47,12.5 L 34.74,18.74 z"
       style="fill:url(#gradient12)" />
    <linearGradient
       y2="43.650002"
       x2="35.139999"
       y1="36.66"
       x1="29.280001"
       gradientUnits="userSpaceOnUse"
       id="gradient13">
      <stop
         id="stop2524"
         stop-color="#ff8000"
         offset="0" />
      <stop
         id="stop2526"
         stop-color="#b60d04"
         offset="1" />
    </linearGradient>
    <path
       id="path2528"
       d="M 42,26 L 32,36 C 28,40 17,49 17,49 L 19,51 C 19,51 34,46 38,42 L 48,32 L 42,26 z"
       style="fill:url(#gradient13)" />
    <linearGradient
       y2="23.57"
       x2="35.23"
       y1="19.139999"
       x1="24.43"
       gradientUnits="userSpaceOnUse"
       id="gradient14">
      <stop
         id="stop2531"
         stop-color="#ffde00"
         offset="0" />
      <stop
         id="stop2533"
         stop-color="#ffa200"
         offset="1" />
    </linearGradient>
    <path
       id="path2535"
       d="M 32,16 L 22,26 C 18,30 15,47 15,47 L 17,49 C 17,49 28,40 32,36 L 42,26 L 32,16 z"
       style="fill:url(#gradient14)" />
    <linearGradient
       y2="31.25"
       x2="40.75"
       y1="21.75"
       x1="31.25"
       gradientUnits="userSpaceOnUse"
       id="gradient15">
      <stop
         id="stop2538"
         stop-color="#ffae00"
         offset="0" />
      <stop
         id="stop2540"
         stop-color="#e05d00"
         offset="0.749" />
      <stop
         id="stop2542"
         stop-color="#990000"
         offset="1" />
    </linearGradient>
    <path
       id="path2544"
       d="M 40,28 C 39,29 33,29 28,25 C 30,27 33,27 35,27 C 37,27 40,26 41,25 L 44,28 C 43,29 40,28 40,28 z"
       style="fill:url(#gradient15)" />
    <radialGradient
       gradientTransform="matrix(0.1413,0,0,0.11,30.9993,18.0004)"
       r="64"
       cy="0"
       cx="0"
       gradientUnits="userSpaceOnUse"
       id="gradient16">
      <stop
         id="stop2547"
         stop-color="#ffca00"
         offset="0.3529" />
      <stop
         id="stop2549"
         stop-color="#ff8a00"
         offset="0.7098" />
      <stop
         id="stop2551"
         stop-color="#ca4700"
         offset="0.9921" />
    </radialGradient>
    <path
       id="path2553"
       d="M 28,15 C 27,16 26,18 26,19 C 26,20 26,23 28,25 C 30,27 33,27 35,27 C 37,27 40,26 41,25 L 29.61,13.74 L 28,15 z"
       style="fill:url(#gradient16)" />
    <linearGradient
       y2="33.25"
       x2="38.75"
       y1="23.75"
       x1="29.25"
       gradientUnits="userSpaceOnUse"
       id="gradient17">
      <stop
         id="stop2556"
         stop-color="#ffc105"
         offset="0" />
      <stop
         id="stop2558"
         stop-color="#c05405"
         offset="0.7568" />
      <stop
         id="stop2560"
         stop-color="#720303"
         offset="1" />
    </linearGradient>
    <path
       id="path2562"
       d="M 15,46 L 20,51 M 16,44 L 22,50 M 16,41 L 24,49 M 17,39 L 26,48 M 17,36 L 28,47 M 18,34 L 30,46"
       style="fill:none;stroke:url(#gradient17);stroke-width:1" />
  </g>
</svg>
