<?xml version="1.0" encoding="UTF-8" standalone="no"?>
<svg
   xmlns:dc="http://purl.org/dc/elements/1.1/"
   xmlns:cc="http://creativecommons.org/ns#"
   xmlns:rdf="http://www.w3.org/1999/02/22-rdf-syntax-ns#"
   xmlns:svg="http://www.w3.org/2000/svg"
   xmlns="http://www.w3.org/2000/svg"
   xmlns:xlink="http://www.w3.org/1999/xlink"
   xmlns:sodipodi="http://sodipodi.sourceforge.net/DTD/sodipodi-0.dtd"
   xmlns:inkscape="http://www.inkscape.org/namespaces/inkscape"
   version="1.1"
   width="64"
   height="64"
   color-interpolation="linearRGB"
   id="svg2"
   sodipodi:version="0.32"
   inkscape:version="0.46"
   sodipodi:docname="folder-"
   inkscape:output_extension="org.inkscape.output.svg.inkscape">
  <metadata
     id="metadata43">
    <rdf:RDF>
      <cc:Work
         rdf:about="">
        <dc:format>image/svg+xml</dc:format>
        <dc:type
           rdf:resource="http://purl.org/dc/dcmitype/StillImage" />
      </cc:Work>
    </rdf:RDF>
  </metadata>
  <defs
     id="defs41">
    <inkscape:perspective
       sodipodi:type="inkscape:persp3d"
       inkscape:vp_x="0 : 32 : 1"
       inkscape:vp_y="0 : 1000 : 0"
       inkscape:vp_z="64 : 32 : 1"
       inkscape:persp3d-origin="32 : 21.333333 : 1"
       id="perspective45" />
    <inkscape:perspective
       id="perspective2467"
       inkscape:persp3d-origin="32 : 21.333333 : 1"
       inkscape:vp_z="64 : 32 : 1"
       inkscape:vp_y="0 : 1000 : 0"
       inkscape:vp_x="0 : 32 : 1"
       sodipodi:type="inkscape:persp3d" />
    <linearGradient
       inkscape:collect="always"
       xlink:href="#radialGradient2473"
       id="linearGradient2497"
       gradientUnits="userSpaceOnUse"
       x1="102.6"
       y1="8.5"
       x2="102.74"
       y2="47.07" />
    <linearGradient
       inkscape:collect="always"
       xlink:href="#linearGradient2479"
       id="linearGradient2499"
       gradientUnits="userSpaceOnUse"
       x1="103.24"
       y1="12.68"
       x2="103.39"
       y2="55.34" />
    <linearGradient
       inkscape:collect="always"
       xlink:href="#linearGradient2485"
       id="linearGradient2501"
       gradientUnits="userSpaceOnUse"
       x1="67.289192"
       y1="-19.443151"
       x2="101.46"
       y2="12.94" />
    <linearGradient
       inkscape:collect="always"
       xlink:href="#linearGradient2492"
       id="linearGradient2503"
       gradientUnits="userSpaceOnUse"
       x1="88.519997"
       y1="9.5900002"
       x2="97.540001"
       y2="51.290001" />
  </defs>
  <sodipodi:namedview
     inkscape:window-height="667"
     inkscape:window-width="674"
     inkscape:pageshadow="2"
     inkscape:pageopacity="0.0"
     guidetolerance="10.0"
     gridtolerance="10.0"
     objecttolerance="10.0"
     borderopacity="1.0"
     bordercolor="#666666"
     pagecolor="#ffffff"
     id="base"
     showgrid="false"
     inkscape:zoom="7.28125"
     inkscape:cx="34.334764"
     inkscape:cy="32"
     inkscape:window-x="243"
     inkscape:window-y="157"
     inkscape:current-layer="svg2" />
  <g
     id="g4">
    <path
       style="fill:#010101; fill-opacity:0.396"
       d="M42 61H48L52 57H56L62 51L48 47L42 61z"
       id="path6" />
    <path
       style="fill:none; stroke:#000000; stroke-width:4"
       d="M3 15L13 41L42 59L60 12L48 10L44 12L26 8L24 13L16 11L15.91 19.2L3 15z"
       id="path8" />
    <linearGradient
       id="gradient0"
       gradientUnits="userSpaceOnUse"
       x1="102.6"
       y1="8.5"
       x2="102.74"
       y2="47.07">
      <stop
         offset="0"
         stop-color="#face79"
         id="stop11" />
      <stop
         offset="1"
         stop-color="#bc4105"
         id="stop13" />
    </linearGradient>
    <path
       style="fill:url(#gradient0)"
       d="M26 8L14 41L42 58L60 12L48 10L44 12L26 8z"
       id="path15" />
    <linearGradient
       id="gradient1"
       gradientUnits="userSpaceOnUse"
       x1="103.24"
       y1="12.68"
       x2="103.39"
       y2="55.34">
      <stop
         offset="0"
         stop-color="#ffffff"
         id="stop18" />
      <stop
         offset="1"
         stop-color="#8e8e8e"
         id="stop20" />
    </linearGradient>
    <path
       style="fill:url(#gradient1)"
       d="M16 11V41L42 57L49 22L16 11z"
       id="path22" />
    <linearGradient
       id="gradient2"
       gradientUnits="userSpaceOnUse"
       x1="78.34"
       y1="-26.66"
       x2="101.46"
       y2="12.94">
      <stop
         offset="0"
         stop-color="#9a9a9a"
         id="stop25" />
      <stop
         offset="1"
         stop-color="#505050"
         id="stop27" />
    </linearGradient>
    <path
       style="fill:url(#gradient2)"
       d="M16 11L49 22L42 57L52 20.37L16 11z"
       id="path29" />
    <linearGradient
       id="gradient3"
       gradientUnits="userSpaceOnUse"
       x1="88.52"
       y1="9.59"
       x2="97.54"
       y2="51.29">
      <stop
         offset="0"
         stop-color="#ffe2ac"
         id="stop32" />
      <stop
         offset="1"
         stop-color="#f49806"
         id="stop34" />
    </linearGradient>
    <path
       style="fill:url(#gradient3)"
       d="M3 15L13 41L42 59L38 30L3 15z"
       id="path36" />
    <path
       style="fill:#a03d03"
       d="M3 15L38 30L42 59L40.5 28L3 15z"
       id="path38" />
  </g>
  <g
     id="g2420"
     transform="matrix(0.6089707,0,0,0.6089707,0.2071158,28.340663)">
    <path
       id="path2422"
       d="M 27,57 L 29,59 L 32.13,55.83 L 37,59 L 45.39,47.54 L 64,38 L 59,35 L 61,37 L 36,49 L 27,57 z M 58,34 L 62,31 L 58,29 L 55,32 L 58,34 z"
       style="fill:#010101;fill-opacity:0.57250001" />
    <path
       id="path2424"
       d="M 6.25,30 C 6.25,30 11.87,36 16.87,42.5 C 21.87,49 26.25,55.75 26.25,55.75 L 59.12,36.87 L 32,15 L 6.25,30 z"
       style="fill:none;stroke:#010101;stroke-width:4" />
    <radialGradient
       gradientTransform="matrix(0.5714,0,0,0.3333,26,35)"
       r="64"
       cy="0"
       cx="0"
       gradientUnits="userSpaceOnUse"
       id="radialGradient2473">
      <stop
         id="stop2427"
         stop-color="#eaeaea"
         offset="1" />
      <stop
         id="stop2429"
         stop-color="#a3a3a3"
         offset="0.4886" />
    </radialGradient>
    <path
       id="path2431"
       d="M 6.25,30 C 6.25,30 11.87,36 16.87,42.5 C 21.87,49 26.25,55.75 26.25,55.75 L 59.12,36.87 L 32,15 L 6.25,30 z"
       style="fill:url(#linearGradient2497);fill-opacity:1.0" />
    <path
       id="path2433"
       d="M 2.62,30.87 C 2.62,30.87 10.95,36.26 19,41.87 C 27.44,47.75 35.75,52.75 35.75,52.75 L 58.12,26.37 C 58.12,26.37 45.44,20.7 35.37,15.37 C 30.18,12.62 26,9.37 26,9.37 L 2.62,30.87 z"
       style="fill:none;stroke:#010101;stroke-width:4" />
    <linearGradient
       y2="27.99"
       x2="118.33"
       y1="-17.09"
       x1="107.04"
       gradientUnits="userSpaceOnUse"
       id="linearGradient2479">
      <stop
         id="stop2436"
         stop-color="#edecec"
         offset="0" />
      <stop
         id="stop2438"
         stop-color="#f5f5f5"
         offset="0.673" />
      <stop
         id="stop2440"
         stop-color="#e6e6e6"
         offset="1" />
    </linearGradient>
    <path
       id="path2442"
       d="M 2.62,30.87 C 2.62,30.87 10.95,36.26 19,41.87 C 27.44,47.75 35.75,52.75 35.75,52.75 L 58.12,26.37 C 58.12,26.37 45.44,20.7 35.37,15.37 C 30.18,12.62 26,9.37 26,9.37 L 2.62,30.87 z"
       style="fill:url(#linearGradient2499);fill-opacity:1.0" />
    <linearGradient
       y2="43.630001"
       x2="78.900002"
       y1="10.12"
       x1="80.480003"
       gradientUnits="userSpaceOnUse"
       id="linearGradient2485">
      <stop
         id="stop2445"
         stop-color="#9aa5ec"
         offset="0" />
      <stop
         id="stop2447"
         stop-color="#bfd2f9"
         offset="0.5498" />
      <stop
         id="stop2449"
         stop-color="#949aee"
         offset="1" />
    </linearGradient>
    <path
       id="path2451"
       d="M 8,30 L 30,44 C 30,44 45,29 48,25 C 35,19 26,13 26,13 L 8,30 z"
       style="fill:url(#linearGradient2501);fill-opacity:1" />
    <path
       id="path2453"
       d="M 8,30 L 30,44 C 30,44 45,29 48,25 C 35,19 26,13 26,13 L 8,30 z"
       style="fill:none;stroke:#010101;stroke-width:1;stroke-opacity:0.57250001" />
    <linearGradient
       y2="14.4"
       x2="-58.5"
       y1="43.080002"
       x1="-62.139999"
       gradientUnits="userSpaceOnUse"
       id="linearGradient2492">
      <stop
         id="stop2456"
         stop-opacity="0.8588"
         stop-color="#c70484"
         offset="0" />
      <stop
         id="stop2458"
         stop-color="#ee058e"
         offset="0.9607" />
    </linearGradient>
    <path
       id="path2460"
       transform="matrix(0.6608,0,0,0.7205,8.6916,7.9718)"
       d="M 20.37,21.37 C 20.37,21.37 16.34,23.06 13.87,25.61 C 11.25,28.31 9.46,32.97 12.61,33.37 C 15.61,33.74 19.37,35.61 26.87,34 C 32.83,32.7 34.82,32.06 37,31.24 C 39.61,30.24 44.87,31.61 43.5,29.37 C 42.97,28.5 42.11,27.87 45.61,27.24 C 49.11,26.61 48.82,22.99 42,22.24 C 35.11,21.5 31.11,25 26.37,27 C 21.61,29 18.53,28.7 17.11,28.37 C 14,27.61 20.37,21.37 20.37,21.37 z M 40,33 C 37.87,33.11 37,35.11 40.5,35.61 C 44,36.11 42.11,32.87 40,33 z M 48.61,28.74 C 47.5,28.87 47.11,29.74 48.5,30.24 C 49.87,30.74 49.74,28.61 48.61,28.74 z"
       style="fill:url(#linearGradient2503);fill-opacity:1.0" />
  </g>
</svg>
