<?xml version="1.0" encoding="UTF-8" standalone="yes"?>
<svg version="1.1" width="64" height="64" color-interpolation="linearRGB"
     xmlns:svg="http://www.w3.org/2000/svg" xmlns="http://www.w3.org/2000/svg">
 <g>
  <path style="fill:#010101; fill-opacity:0.396"
        d="M42 61H48L52 57H56L62 51L48 47L42 61z"
  />
  <path style="fill:none; stroke:#000000; stroke-width:4"
        d="M3 15L13 41L42 59L60 12L48 10L44 12L26 8L24 13L16 11L15.89 19.2L3 15z"
  />
  <linearGradient id="gradient0" gradientUnits="userSpaceOnUse" x1="102.58" y1="8.5" x2="102.73" y2="47.06">
   <stop offset="0" stop-color="#face79"/>
   <stop offset="1" stop-color="#bc4105"/>
  </linearGradient>
  <path style="fill:url(#gradient0)"
        d="M26 8L14 41L42 58L60 12L48 10L44 12L26 8z"
  />
  <linearGradient id="gradient1" gradientUnits="userSpaceOnUse" x1="103.23" y1="12.68" x2="103.37" y2="55.34">
   <stop offset="0" stop-color="#ffffff"/>
   <stop offset="1" stop-color="#8e8e8e"/>
  </linearGradient>
  <path style="fill:url(#gradient1)"
        d="M16 11V41L42 57L49 22L16 11z"
  />
  <linearGradient id="gradient2" gradientUnits="userSpaceOnUse" x1="78.33" y1="-26.64" x2="101.44" y2="12.93">
   <stop offset="0" stop-color="#9a9a9a"/>
   <stop offset="1" stop-color="#505050"/>
  </linearGradient>
  <path style="fill:url(#gradient2)"
        d="M16 11L49 22L42 57L52 20.37L16 11z"
  />
  <linearGradient id="gradient3" gradientUnits="userSpaceOnUse" x1="88.51" y1="9.59" x2="97.54" y2="51.29">
   <stop offset="0" stop-color="#ffe2ac"/>
   <stop offset="1" stop-color="#f49806"/>
  </linearGradient>
  <path style="fill:url(#gradient3)"
        d="M3 15L13 41L42 59L38 30L3 15z"
  />
  <path style="fill:#a03d03"
        d="M3 15L38 30L42 59L40.5 28L3 15z"
  />
  <path style="fill:none; stroke:#000000; stroke-opacity:0.4; stroke-width:3.0238; stroke-linecap:round; stroke-linejoin:round"
        d="M4.04 47.99H23.85V61.49H4.04V47.99z"
  />
  <path style="fill:none; stroke:#000000; stroke-opacity:0.4; stroke-width:6.0477; stroke-linecap:square"
        d="M29.95 44.99V42.74C29.95 39.84 27.55 37.49 24.61 37.49C21.66 37.49 19.28 39.84 19.28 42.74V44.99"
  />
  <path style="fill:none; stroke:#000000; stroke-width:7; stroke-linecap:square"
        d="M28.42 43.49V41.24C28.42 38.34 26.03 35.99 23.09 35.99C20.13 35.99 17.76 38.34 17.76 41.24V43.49"
  />
  <path style="fill:none; stroke:#000000; stroke-width:4; stroke-linecap:round; stroke-linejoin:round"
        d="M2.52 46.49H22.33V59.99H2.52V46.49z"
  />
  <linearGradient id="gradient4" gradientUnits="userSpaceOnUse" x1="93.95" y1="44.99" x2="93.95" y2="59.99">
   <stop offset="0" stop-color="#ffff80"/>
   <stop offset="1" stop-color="#ffd400"/>
  </linearGradient>
  <path style="fill:url(#gradient4)"
        d="M2.52 46.49H22.33V59.99H2.52V46.49z"
  />
  <radialGradient id="gradient5" gradientUnits="userSpaceOnUse" cx="0" cy="0" r="64" gradientTransform="matrix(0,0.2108,-0.1546,0,21.5713,44.2498)">
   <stop offset="0.2865" stop-color="#acacac"/>
   <stop offset="0.583" stop-color="#ffffff"/>
   <stop offset="0.9185" stop-color="#acacac"/>
  </radialGradient>
  <path style="fill:none; stroke:url(#gradient5); stroke-width:3.0238; stroke-linecap:square"
        d="M28.42 43.49V41.24C28.42 38.34 26.03 35.99 23.09 35.99C20.13 35.99 17.76 38.34 17.76 41.24V43.49"
  />
 </g>
</svg>
