<?xml version="1.0" encoding="UTF-8" standalone="yes"?>
<svg version="1.1" width="64" height="64" color-interpolation="linearRGB"
     xmlns:svg="http://www.w3.org/2000/svg" xmlns="http://www.w3.org/2000/svg">
 <g>
  <path style="fill:#010101; fill-opacity:0.396"
        d="M42 61H48L52 57H56L62 51L48 47L42 61z"
  />
  <path style="fill:none; stroke:#000000; stroke-width:4"
        d="M3 15L13 41L42 59L60 12L48 10L44 12L26 8L24 13L16 11L15.9 19.2L3 15z"
  />
  <linearGradient id="gradient0" gradientUnits="userSpaceOnUse" x1="102.59" y1="8.5" x2="102.73" y2="47.06">
   <stop offset="0" stop-color="#face79"/>
   <stop offset="1" stop-color="#bc4105"/>
  </linearGradient>
  <path style="fill:url(#gradient0)"
        d="M26 8L14 41L42 58L60 12L48 10L44 12L26 8z"
  />
  <linearGradient id="gradient1" gradientUnits="userSpaceOnUse" x1="103.23" y1="12.68" x2="103.38" y2="55.34">
   <stop offset="0" stop-color="#ffffff"/>
   <stop offset="1" stop-color="#8e8e8e"/>
  </linearGradient>
  <path style="fill:url(#gradient1)"
        d="M16 11V41L42 57L49 22L16 11z"
  />
  <linearGradient id="gradient2" gradientUnits="userSpaceOnUse" x1="78.33" y1="-26.65" x2="101.45" y2="12.93">
   <stop offset="0" stop-color="#9a9a9a"/>
   <stop offset="1" stop-color="#505050"/>
  </linearGradient>
  <path style="fill:url(#gradient2)"
        d="M16 11L49 22L42 57L52 20.37L16 11z"
  />
  <linearGradient id="gradient3" gradientUnits="userSpaceOnUse" x1="88.51" y1="9.59" x2="97.54" y2="51.29">
   <stop offset="0" stop-color="#ffe2ac"/>
   <stop offset="1" stop-color="#f49806"/>
  </linearGradient>
  <path style="fill:url(#gradient3)"
        d="M3 15L13 41L42 59L38 30L3 15z"
  />
  <path style="fill:#a03d03"
        d="M3 15L38 30L42 59L40.5 28L3 15z"
  />
  <path style="fill:none; stroke:#000000; stroke-opacity:0.4; stroke-width:4; stroke-linecap:round; stroke-linejoin:round"
        d="M42 34V6L18 4V28H20V14L40 16V34H42z
           M12 20C7.57 20 4 23.57 4 28C4 32.4 7.57 36 12 36C16.4 36 20 32.4 20 28C20 23.57 16.4 20 12 20z
           M34 26C29.57 26 26 29.57 26 34C26 38.4 29.57 42 34 42C38.4 42 42 38.4 42 34C42 29.57 38.4 26 34 26z"
        transform="matrix(0.6591,0,0,0.7272,0.9996,31.0018)"
  />
  <path style="fill:none; stroke:#000000; stroke-width:4; stroke-linecap:round; stroke-linejoin:round"
        d="M32 24C27.57 24 24 27.57 24 32C24 36.4 27.57 40 32 40C36.4 40 40 36.4 40 32C40 27.57 36.4 24 32 24z
           M10 18C5.57 18 2 21.57 2 26C2 30.4 5.57 34 10 34C14.4 34 18 30.4 18 26C18 21.57 14.4 18 10 18z
           M40 32V4L16 2V26H18V12L38 14V32H40z"
        transform="matrix(0.6591,0,0,0.7272,0.9996,31.0018)"
  />
  <linearGradient id="gradient4" gradientUnits="userSpaceOnUse" x1="128" y1="1.99" x2="128" y2="40">
   <stop offset="0" stop-color="#808080"/>
   <stop offset="1" stop-color="#282828"/>
  </linearGradient>
  <path style="fill:url(#gradient4)"
        d="M32 24C27.57 24 24 27.57 24 32C24 36.4 27.57 40 32 40C36.4 40 40 36.4 40 32C40 27.57 36.4 24 32 24z
           M10 18C5.57 18 2 21.57 2 26C2 30.4 5.57 34 10 34C14.4 34 18 30.4 18 26C18 21.57 14.4 18 10 18z
           M40 32V4L16 2V26H18V12L38 14V32H40z"
        transform="matrix(0.6591,0,0,0.7272,0.9996,31.0018)"
  />
 </g>
</svg>
