<?xml version="1.0" encoding="UTF-8" standalone="yes"?>
<svg version="1.1" width="64" height="64" color-interpolation="linearRGB"
     xmlns:svg="http://www.w3.org/2000/svg" xmlns="http://www.w3.org/2000/svg">
 <g>
  <path style="fill:#010101; fill-opacity:0.396"
        d="M42 61H48L52 57H56L62 51L48 47L42 61z"
  />
  <path style="fill:none; stroke:#000000; stroke-width:4"
        d="M3 15L13 41L42 59L60 12L48 10L44 12L26 8L24 13L16 11L15.9 19.2L3 15z"
  />
  <linearGradient id="gradient0" gradientUnits="userSpaceOnUse" x1="102.59" y1="8.5" x2="102.73" y2="47.06">
   <stop offset="0" stop-color="#face79"/>
   <stop offset="1" stop-color="#bc4105"/>
  </linearGradient>
  <path style="fill:url(#gradient0)"
        d="M26 8L14 41L42 58L60 12L48 10L44 12L26 8z"
  />
  <linearGradient id="gradient1" gradientUnits="userSpaceOnUse" x1="103.23" y1="12.68" x2="103.38" y2="55.34">
   <stop offset="0" stop-color="#ffffff"/>
   <stop offset="1" stop-color="#8e8e8e"/>
  </linearGradient>
  <path style="fill:url(#gradient1)"
        d="M16 11V41L42 57L49 22L16 11z"
  />
  <linearGradient id="gradient2" gradientUnits="userSpaceOnUse" x1="78.33" y1="-26.65" x2="101.45" y2="12.93">
   <stop offset="0" stop-color="#9a9a9a"/>
   <stop offset="1" stop-color="#505050"/>
  </linearGradient>
  <path style="fill:url(#gradient2)"
        d="M16 11L49 22L42 57L52 20.37L16 11z"
  />
  <linearGradient id="gradient3" gradientUnits="userSpaceOnUse" x1="88.51" y1="9.59" x2="97.54" y2="51.29">
   <stop offset="0" stop-color="#ffe2ac"/>
   <stop offset="1" stop-color="#f49806"/>
  </linearGradient>
  <path style="fill:url(#gradient3)"
        d="M3 15L13 41L42 59L38 30L3 15z"
  />
  <path style="fill:#a03d03"
        d="M3 15L38 30L42 59L40.5 28L3 15z"
  />
  <path style="fill:none; stroke:#000000; stroke-opacity:0.4; stroke-width:4.9083; stroke-linecap:round; stroke-linejoin:round"
        d="M39.35 9.9H27.08V27.08H9.9V39.35H27.08V56.53H39.35V39.35H56.53V27.08H39.35V9.9z"
        transform="matrix(0.5529,0,0,0.5523,-1.6285,31.4018)"
  />
  <path style="fill:none; stroke:#005900; stroke-width:9; stroke-linecap:round; stroke-linejoin:round"
        d="M36.9 7.44H24.62V24.62H7.44V36.9H24.62V54.08H36.9V36.9H54.08V24.62H36.9V7.44z"
        transform="matrix(0.5529,0,0,0.5523,-1.6285,31.4018)"
  />
  <linearGradient id="gradient4" gradientUnits="userSpaceOnUse" x1="162.06" y1="7.43" x2="162.06" y2="54.08">
   <stop offset="0" stop-color="#80ff80"/>
   <stop offset="1" stop-color="#00b300"/>
  </linearGradient>
  <path style="fill:url(#gradient4)"
        d="M36.9 7.44H24.62V24.62H7.44V36.9H24.62V54.08H36.9V36.9H54.08V24.62H36.9V7.44z"
        transform="matrix(0.5529,0,0,0.5523,-1.6285,31.4018)"
  />
 </g>
</svg>
