<?xml version="1.0" encoding="UTF-8" standalone="yes"?>
<svg version="1.1" width="64" height="64" color-interpolation="linearRGB"
     xmlns:svg="http://www.w3.org/2000/svg" xmlns="http://www.w3.org/2000/svg">
 <g>
  <path style="fill:#010101; fill-opacity:0.396"
        d="M42 61H48L52 57H56L62 51L48 47L42 61z"
  />
  <path style="fill:none; stroke:#000000; stroke-width:4"
        d="M3 15L13 41L42 59L60 12L48 10L44 12L26 8L24 13L16 11L15.9 19.2L3 15z"
  />
  <linearGradient id="gradient0" gradientUnits="userSpaceOnUse" x1="102.59" y1="8.5" x2="102.73" y2="47.06">
   <stop offset="0" stop-color="#face79"/>
   <stop offset="1" stop-color="#bc4105"/>
  </linearGradient>
  <path style="fill:url(#gradient0)"
        d="M26 8L14 41L42 58L60 12L48 10L44 12L26 8z"
  />
  <linearGradient id="gradient1" gradientUnits="userSpaceOnUse" x1="103.23" y1="12.68" x2="103.38" y2="55.34">
   <stop offset="0" stop-color="#ffffff"/>
   <stop offset="1" stop-color="#8e8e8e"/>
  </linearGradient>
  <path style="fill:url(#gradient1)"
        d="M16 11V41L42 57L49 22L16 11z"
  />
  <linearGradient id="gradient2" gradientUnits="userSpaceOnUse" x1="78.33" y1="-26.65" x2="101.45" y2="12.93">
   <stop offset="0" stop-color="#9a9a9a"/>
   <stop offset="1" stop-color="#505050"/>
  </linearGradient>
  <path style="fill:url(#gradient2)"
        d="M16 11L49 22L42 57L52 20.37L16 11z"
  />
  <linearGradient id="gradient3" gradientUnits="userSpaceOnUse" x1="88.51" y1="9.59" x2="97.54" y2="51.29">
   <stop offset="0" stop-color="#ffe2ac"/>
   <stop offset="1" stop-color="#f49806"/>
  </linearGradient>
  <path style="fill:url(#gradient3)"
        d="M3 15L13 41L42 59L38 30L3 15z"
  />
  <path style="fill:#a03d03"
        d="M3 15L38 30L42 59L40.5 28L3 15z"
  />
  <path style="fill:none; stroke:#000000; stroke-width:4"
        d="M4 44V60H28V44H4z"
  />
  <linearGradient id="gradient4" gradientUnits="userSpaceOnUse" x1="39.68" y1="23.95" x2="50.15" y2="47.47">
   <stop offset="0" stop-color="#ffffff"/>
   <stop offset="1" stop-color="#d9d093"/>
  </linearGradient>
  <path style="fill:url(#gradient4)"
        d="M4 44V60H28V44H4z"
  />
  <path style="fill:#6b5222"
        d="M4 44C4 44 14 52 16 52C18 52 28 44 28 44C28 44 24.56 48.79 20.28 52L28 60L19.42 52.79C17.7 54.4 16.7 54 16 54C15.27 54 14.27 54.4 12.56 52.79L4 60L11.71 52C7.42 48.79 4 44 4 44z"
  />
  <path style="fill:none; stroke:#000000; stroke-opacity:0.4; stroke-width:4; stroke-linecap:round; stroke-linejoin:round"
        d="M28 29.93H22L32 41.93L42 29.93H36L32 17.93L28 29.93z"
        transform="matrix(-0.9614,-0.0031,0.0031,-0.9654,48.1373,66.3266)"
  />
  <path style="fill:none; stroke:#800000; stroke-width:4; stroke-linecap:round; stroke-linejoin:round"
        d="M26 27.93H20L30 39.93L40 27.93H34L30 15.93L26 27.93z"
        transform="matrix(-0.9614,-0.0031,0.0031,-0.9654,44.2913,63.4304)"
  />
  <linearGradient id="gradient5" gradientUnits="userSpaceOnUse" x1="108" y1="15.93" x2="108" y2="39.93">
   <stop offset="0" stop-color="#ffaaaa"/>
   <stop offset="1" stop-color="#d90000"/>
  </linearGradient>
  <path style="fill:url(#gradient5)"
        d="M26 27.93H20L30 39.93L40 27.93H34L30 15.93L26 27.93z"
        transform="matrix(-0.9614,-0.0031,0.0031,-0.9654,44.2913,63.4304)"
  />
 </g>
</svg>
