<?xml version="1.0" encoding="UTF-8" standalone="yes"?>
<svg version="1.1" width="64" height="64" color-interpolation="linearRGB"
     xmlns:svg="http://www.w3.org/2000/svg" xmlns="http://www.w3.org/2000/svg">
 <g>
  <path style="fill:#000100; fill-opacity:0.4352"
        d="M45.4 39.22C44.02 39.22 42.64 39.22 41.26 39.22C35.05 47.48 28.84 55.73 22.63 63.99C30.22 63.99 37.8 63.99 45.4 63.99C52.26 63.99 57.83 58.43 57.83 51.61C57.83 44.75 52.26 39.22 45.4 39.22V39.22V39.22V39.22V39.22z"
  />
  <path style="fill:none; stroke:#000100; stroke-width:4.1343; stroke-linecap:round; stroke-linejoin:round"
        d="M6.07 37.16C6.09 42.84 13.46 47.48 22.63 47.48C31.75 47.48 39.16 42.84 39.19 37.16C39.19 28.9 39.19 20.65 39.19 12.39C39.19 6.68 31.77 2.07 22.63 2.07C13.48 2.07 6.07 6.68 6.07 12.39C6.07 20.65 6.07 28.9 6.07 37.16V37.16V37.16V37.16V37.16z
           M39.16 37.13C39.19 42.83 31.75 47.48 22.63 47.48C13.46 47.48 6.03 42.83 6.07 37.13C6.07 41.27 6.07 45.4 6.07 49.54C6.09 56.36 13.46 61.93 22.63 61.93C31.75 61.93 39.16 56.36 39.19 49.54C39.18 45.4 39.17 41.27 39.16 37.13V37.13V37.13V37.13V37.13z"
  />
  <linearGradient id="gradient0" gradientUnits="userSpaceOnUse" x1="39.19" y1="30.97" x2="6.07" y2="30.97">
   <stop offset="0" stop-color="#3dae3d"/>
   <stop offset="0.1702" stop-color="#237823"/>
   <stop offset="0.8259" stop-color="#50e550"/>
   <stop offset="1" stop-color="#2eaa2e"/>
  </linearGradient>
  <path style="fill:url(#gradient0)"
        d="M6.07 37.16C6.09 42.84 13.46 47.48 22.63 47.48C31.75 47.48 39.16 42.84 39.19 37.16C39.19 28.9 39.19 20.65 39.19 12.39C39.19 18.09 31.77 22.71 22.63 22.71C13.48 22.71 6.07 18.09 6.07 12.39C6.07 20.65 6.07 28.9 6.07 37.16V37.16V37.16V37.16V37.16z"
  />
  <linearGradient id="gradient1" gradientUnits="userSpaceOnUse" x1="39.19" y1="30.97" x2="6.07" y2="30.97">
   <stop offset="0" stop-color="#ff9900"/>
   <stop offset="0.1702" stop-color="#e37d06"/>
   <stop offset="0.8259" stop-color="#ffcc00"/>
   <stop offset="1" stop-color="#ff9900"/>
  </linearGradient>
  <path style="fill:url(#gradient1)"
        d="M39.16 37.13C39.19 42.83 31.75 47.48 22.63 47.48C13.46 47.48 6.03 42.83 6.07 37.13C6.07 41.27 6.07 45.4 6.07 49.54C6.09 56.36 13.46 61.93 22.63 61.93C31.75 61.93 39.16 56.36 39.19 49.54C39.18 45.4 39.17 41.27 39.16 37.13V37.13V37.13V37.13V37.13z"
  />
  <linearGradient id="gradient2" gradientUnits="userSpaceOnUse" x1="45.91" y1="-31.33" x2="67.57" y2="-1.11">
   <stop offset="0" stop-color="#b3ffb3"/>
   <stop offset="1" stop-color="#56c856"/>
  </linearGradient>
  <path style="fill:url(#gradient2)"
        d="M6.07 12.39C6.07 6.68 13.48 2.07 22.63 2.07C31.77 2.07 39.19 6.68 39.19 12.39C39.19 18.09 31.77 22.71 22.63 22.71C13.48 22.71 6.07 18.09 6.07 12.39V12.39V12.39V12.39V12.39z"
  />
  <radialGradient id="gradient3" gradientUnits="userSpaceOnUse" cx="0" cy="0" r="64" gradientTransform="matrix(-0.3881,0,0,-0.3869,22.6335,14.4593)">
   <stop offset="0" stop-color="#666666"/>
   <stop offset="1" stop-color="#010101"/>
  </radialGradient>
  <path style="fill:url(#gradient3)"
        d="M37.12 12.39C37.12 16.93 30.63 20.65 22.63 20.65C14.62 20.65 8.14 16.93 8.14 12.39C8.14 7.82 14.62 4.13 22.63 4.13C30.63 4.13 37.12 7.82 37.12 12.39V12.39V12.39V12.39V12.39z"
  />
  <path style="fill:none; stroke:#000100; stroke-width:4.1343; stroke-linecap:round; stroke-linejoin:round"
        d="M14.35 6.2C14.35 3.91 18.05 2.07 22.63 2.07C27.19 2.07 30.91 3.91 30.91 6.2C30.91 7.57 30.91 8.94 30.91 10.33C30.91 12.59 27.19 14.45 22.63 14.45C18.05 14.45 14.35 12.59 14.35 10.33C14.35 8.94 14.35 7.57 14.35 6.2V6.2V6.2V6.2V6.2z"
  />
  <linearGradient id="gradient4" gradientUnits="userSpaceOnUse" x1="14.35" y1="2.07" x2="30.91" y2="2.07">
   <stop offset="0" stop-color="#999999"/>
   <stop offset="0.25" stop-color="#cccccc"/>
   <stop offset="1" stop-color="#868686"/>
  </linearGradient>
  <path style="fill:url(#gradient4)"
        d="M14.35 6.2C14.35 3.91 18.05 2.07 22.63 2.07C27.19 2.07 30.91 3.91 30.91 6.2C30.91 7.57 30.91 8.94 30.91 10.33C30.91 12.59 27.19 14.45 22.63 14.45C18.05 14.45 14.35 12.59 14.35 10.33C14.35 8.94 14.35 7.57 14.35 6.2V6.2V6.2V6.2V6.2z"
  />
  <linearGradient id="gradient5" gradientUnits="userSpaceOnUse" x1="44.59" y1="-13.76" x2="53.83" y2="-0.07">
   <stop offset="0" stop-color="#ffffff"/>
   <stop offset="1" stop-color="#9e9e9e"/>
  </linearGradient>
  <path style="fill:url(#gradient5)"
        d="M14.35 6.2C14.35 3.91 18.05 2.07 22.63 2.07C27.19 2.07 30.91 3.91 30.91 6.2C30.91 8.46 27.19 10.33 22.63 10.33C18.05 10.33 14.35 8.46 14.35 6.2V6.2V6.2V6.2V6.2z"
  />
  <linearGradient id="gradient6" gradientUnits="userSpaceOnUse" x1="35.35" y1="-4.11" x2="40.15" y2="4.63">
   <stop offset="0" stop-color="#f3f3f3"/>
   <stop offset="1" stop-color="#c2c2c2"/>
  </linearGradient>
  <path style="fill:url(#gradient6)"
        d="M16.57 6.01C16.57 4.68 19.17 3.61 22.38 3.61C25.58 3.61 28.19 4.68 28.19 6.01C28.19 7.33 25.58 8.42 22.38 8.42C19.17 8.42 16.57 7.33 16.57 6.01V6.01V6.01V6.01V6.01z"
  />
  <linearGradient id="gradient7" gradientUnits="userSpaceOnUse" x1="6.07" y1="30.97" x2="39.19" y2="30.97">
   <stop offset="0" stop-color="#b8b8b8"/>
   <stop offset="0.25" stop-color="#eeeeee"/>
   <stop offset="1" stop-color="#b8b8b8"/>
  </linearGradient>
  <path style="fill:url(#gradient7)"
        d="M28.84 30.05C27.52 30.45 26.14 30.71 24.7 30.85C24.7 29.82 24.7 28.79 24.7 27.76C24.02 27.82 23.32 27.87 22.63 27.87C21.92 27.87 21.23 27.82 20.56 27.75C20.56 28.78 20.56 29.81 20.56 30.84C19.11 30.71 17.72 30.43 16.42 30.04C16.42 31.42 16.42 32.79 16.42 34.18C17.72 34.58 19.11 34.85 20.56 34.97C20.56 36 20.56 37.03 20.56 38.07C21.23 38.14 21.92 38.19 22.63 38.19C23.32 38.19 24.02 38.14 24.7 38.07C24.7 37.03 24.7 36 24.7 34.97C26.14 34.84 27.52 34.58 28.84 34.18C28.84 32.79 28.84 31.42 28.84 30.05V30.05V30.05V30.05V30.05z"
  />
  <path style="fill:#ffffff"
        d="M51.9 6C46.15 12.6 40.38 19.19 34.62 25.79C38.77 25.79 42.92 25.79 47.07 25.79C44.92 31.9 42.77 38 40.63 44.12C46.92 36.37 53.22 28.62 59.51 20.87C55.11 20.87 50.72 20.87 46.33 20.87C48.19 15.92 50.05 10.96 51.9 6V6V6V6V6z"
  />
  <path style="fill:none; stroke:#000000; stroke-width:4.1343; stroke-linecap:round; stroke-linejoin:round"
        d="M51.61 6.2C51.61 6.2 40.38 19.19 34.62 25.79C38.77 25.79 42.92 25.79 47.07 25.79C44.92 31.9 42.77 38 40.63 44.12C46.92 36.37 53.22 28.62 59.51 20.87C55.11 20.87 50.72 20.87 46.33 20.87C46.44 20.65 49.75 11.15 51.61 6.2V6.2V6.2V6.2V6.2z"
  />
  <path style="fill:#ffcc00"
        d="M51.9 6C46.15 12.6 40.38 19.19 34.62 25.79C38.77 25.79 42.92 25.79 47.07 25.79C44.92 31.9 42.77 38 40.63 44.12C46.92 36.37 53.22 28.62 59.51 20.87C55.11 20.87 50.72 20.87 46.33 20.87C48.19 15.92 50.05 10.96 51.9 6V6V6V6V6z"
  />
 </g>
</svg>
