<?xml version="1.0" encoding="UTF-8" standalone="yes"?>
<svg version="1.1" width="64" height="64" color-interpolation="linearRGB"
     xmlns:svg="http://www.w3.org/2000/svg" xmlns="http://www.w3.org/2000/svg">
 <g>
  <path style="fill:none; stroke:#000000; stroke-width:8; stroke-linecap:round; stroke-linejoin:round"
        d="M18 18H12L4 26"
  />
  <path style="fill:#000000"
        d="M14 24C14 34 22 46 32 50C42 54 50 50 50 40C50 30 42 17.83 32 13.91C22 10 14 14 14 24z"
        transform="matrix(0.496,0,0,0.3848,25.9011,-2.3246)"
  />
  <path style="fill:#000000"
        d="M14 24C14 34 22 46 32 50C42 54 50 50 50 40C50 30 42 17.83 32 13.91C22 10 14 14 14 24z"
        transform="matrix(0.3848,0,0,0.3848,27.4566,-0.3246)"
  />
  <path style="fill:#010101; fill-opacity:0.3843"
        d="M24 60H46C48 60 56 52 56 52H62C64 52 64 50 64 48C64 46 60 42 60 42H24"
  />
  <path style="fill:#000000"
        d="M12 54L20 58C21.93 58.96 25 59 26 58L44 40V16C44 15 43 11 40 10L32 8C29 7 27 8 26 9L10 22C8.82 22.94 8 25.11 8 27V50C8 51 9.95 52.97 12 54z"
  />
  <linearGradient id="gradient0" gradientUnits="userSpaceOnUse" x1="82.46" y1="-46.31" x2="111.58" y2="-9.46">
   <stop offset="0" stop-color="#ffffff"/>
   <stop offset="0.5215" stop-color="#9d9d9d"/>
   <stop offset="1" stop-color="#4a4a4a"/>
  </linearGradient>
  <path style="fill:url(#gradient0)"
        d="M44 16C44 15 43 11 40 10L32 8C30 7 27 8 26 9L10 22C11 22 20 26 20 26C22 27 24 30 24 32L44 16z
           M24 32V54C24 56 22 58 20 58C22 59 25 59 26 58L34 50V24L24 32z"
  />
  <path style="fill:#111111"
        d="M44 20V40L34 50V28L44 20z"
  />
  <path style="fill:#000000"
        d="M34 50V30H58V50H34z"
  />
  <linearGradient id="gradient1" gradientUnits="userSpaceOnUse" x1="128" y1="30" x2="128" y2="49.99">
   <stop offset="0" stop-color="#818181"/>
   <stop offset="1" stop-color="#585858"/>
  </linearGradient>
  <path style="fill:url(#gradient1)"
        d="M34 50V30H58V50H34z"
  />
  <linearGradient id="gradient2" gradientUnits="userSpaceOnUse" x1="53.52" y1="-54.85" x2="86.04" y2="-32.21">
   <stop offset="0" stop-color="#c0c0c0"/>
   <stop offset="1" stop-color="#565656"/>
  </linearGradient>
  <path style="fill:url(#gradient2)"
        d="M24 54C24 56 22 58 20 58L12 54C10 53 8 51 8 50V27C8 25 9 23 10 22C11 22 20 26 20 26C22 27 24 30 24 32V54z"
  />
  <path style="fill:#000000"
        d="M8 31C8 30 10 27 11 27L21 41C21 42 15 43 14 42L8 31z"
  />
  <path style="fill:#000000"
        d="M14 24C14 34 22 46 32 50C42 54 50 50 50 40C50 30 42 17.83 32 13.91C22 10 14 14 14 24z"
        transform="matrix(0.3848,0,0,0.3848,3.4567,21.6752)"
  />
  <linearGradient id="gradient3" gradientUnits="userSpaceOnUse" x1="53.52" y1="-54.85" x2="86.04" y2="-32.21">
   <stop offset="0" stop-color="#c0c0c0"/>
   <stop offset="1" stop-color="#565656"/>
  </linearGradient>
  <path style="fill:url(#gradient3)"
        d="M14 24C14 34 22 46 32 50C42 54 50 50 50 40C50 30 42 17.83 32 13.91C22 10 14 14 14 24z"
        transform="matrix(0.2802,0,0,0.278,5.922,26.1757)"
  />
  <path style="fill:#000000"
        d="M14 24C14 34 22 46 32 50C42 54 50 50 50 40C50 30 42 17.83 32 13.91C22 10 14 14 14 24z"
        transform="matrix(0.308,0,0,0.308,2.4557,26.6346)"
  />
  <radialGradient id="gradient4" gradientUnits="userSpaceOnUse" cx="0" cy="0" r="64" gradientTransform="matrix(0.4375,0,0,0.4375,24,24)">
   <stop offset="0" stop-color="#ffffff"/>
   <stop offset="0.5019" stop-color="#501c58"/>
   <stop offset="1" stop-color="#7a46ae"/>
  </radialGradient>
  <path style="fill:url(#gradient4)"
        d="M14 24C14 34 22 46 32 50C42 54 50 50 50 40C50 30 42 17.83 32 13.91C22 10 14 14 14 24z"
        transform="matrix(0.1777,0,0,0.1777,7.0478,30.2604)"
  />
  <path style="fill:#000000"
        d="M10 53V47L12 48V54L10 53z"
  />
  <path style="fill:#000000"
        d="M10 53V47L12 48V54L10 53z"
        transform="matrix(1,0,0,1,4,2)"
  />
  <path style="fill:#000000"
        d="M10 53V47L12 48V54L10 53z"
        transform="matrix(2,0,0,2,-1,-51)"
  />
  <radialGradient id="gradient5" gradientUnits="userSpaceOnUse" cx="0" cy="0" r="64" gradientTransform="matrix(0.0312,0,0,0.0781,11,51)">
   <stop offset="0" stop-color="#ffffff"/>
   <stop offset="1" stop-color="#ffd306"/>
  </radialGradient>
  <path style="fill:url(#gradient5)"
        d="M10 53V47L12 48V54L10 53z"
        transform="matrix(1,0,0,1.2857,10,-14.4285)"
  />
  <path style="fill:none; stroke:#000000; stroke-width:4; stroke-linecap:round; stroke-linejoin:round"
        d="M16 18L21 14C22 14 27 17 27 17L22 21C22 21 17 18 16 18z
           M22 21L27 17V19L22 23V21z
           M15 20C15 15 22 21 22 21V23C22 23 16 20 15 20V20z"
        transform="matrix(1,0,0,1,6,-7)"
  />
  <radialGradient id="gradient6" gradientUnits="userSpaceOnUse" cx="0" cy="0" r="64" gradientTransform="matrix(0.125,0,0,0.0781,19,16)">
   <stop offset="0" stop-color="#ffa5a5"/>
   <stop offset="1" stop-color="#ff1b1b"/>
  </radialGradient>
  <path style="fill:url(#gradient6)"
        d="M16 18L21 14C22 14 27 17 27 17L22 21C22 21 17 18 16 18z"
        transform="matrix(1,0,0,1,6,-7)"
  />
  <path style="fill:#9b0303"
        d="M22 21L27 17V19L22 23V21z"
        transform="matrix(1,0,0,1,6,-7)"
  />
  <path style="fill:#ff0404"
        d="M15 20C15 15 22 21 22 21V23C22 23 16 20 15 20V20z"
        transform="matrix(1,0,0,1,6,-7)"
  />
 </g>
</svg>
