<?xml version="1.0" encoding="UTF-8" standalone="yes"?>
<svg version="1.1" width="64" height="64" color-interpolation="linearRGB"
     xmlns:svg="http://www.w3.org/2000/svg" xmlns="http://www.w3.org/2000/svg">
 <g>
  <path style="fill:#010101; fill-opacity:0.4313"
        d="M60 27L62 28L39 56H36L60 27z"
  />
  <path style="fill:none; stroke:#010101; stroke-width:4; stroke-linecap:round; stroke-linejoin:round"
        d="M2 37L26 49L51 24L30 16L2 37z
           M44.11 33.88L54 24C54 24 55.38 23.45 56.84 23.94C58.38 24.45 60 26 60 26L50.18 37.65C50.18 37.65 49.75 36.25 47.75 35.25C45.95 34.34 44.11 33.88 44.11 33.88z
           M36 54L28 50L42.36 35.63C42.36 35.63 44.29 36.15 46 37C48 38 48.43 39.4 48.43 39.4L36 54z"
  />
  <linearGradient id="gradient0" gradientUnits="userSpaceOnUse" x1="12.63" y1="-29.4" x2="51.08" y2="-29.01">
   <stop offset="0" stop-color="#e9ecf0"/>
   <stop offset="1" stop-color="#aab5be"/>
  </linearGradient>
  <path style="fill:url(#gradient0)"
        d="M30 19L47 25L25 46L7 37L30 19z"
  />
  <linearGradient id="gradient1" gradientUnits="userSpaceOnUse" x1="90.26" y1="-44.95" x2="106.45" y2="-28.82">
   <stop offset="0" stop-color="#bfcbd6"/>
   <stop offset="0.4666" stop-color="#d8e3eb"/>
   <stop offset="1" stop-color="#aab5be"/>
  </linearGradient>
  <path style="fill:url(#gradient1)"
        d="M30 19L47 25L25 46L7 37L30 19z
           M2 37L26 49L51 24L30 16L2 37z"
  />
  <linearGradient id="gradient2" gradientUnits="userSpaceOnUse" x1="41.13" y1="-11.93" x2="57.09" y2="-6.09">
   <stop offset="0" stop-color="#8496a3"/>
   <stop offset="1" stop-color="#86a7be"/>
  </linearGradient>
  <path style="fill:none; stroke:url(#gradient2); stroke-width:1"
        d="M30 19L47 25L25 46L7 37L30 19z
           M27 22L43 29"
  />
  <linearGradient id="gradient3" gradientUnits="userSpaceOnUse" x1="1.04" y1="-22.25" x2="46.7" y2="-19.36">
   <stop offset="0" stop-color="#4f6171" stop-opacity="0.0235"/>
   <stop offset="1" stop-color="#ffffff" stop-opacity="0.9215"/>
  </linearGradient>
  <path style="fill:url(#gradient3)"
        d="M30 19L47 25L25 46L7 37L30 19z"
  />
  <linearGradient id="gradient4" gradientUnits="userSpaceOnUse" x1="83.56" y1="-9.82" x2="89.36" y2="-4.67">
   <stop offset="0" stop-color="#d5e7f6"/>
   <stop offset="0.7071" stop-color="#7a98ae"/>
   <stop offset="1" stop-color="#96a9b9"/>
  </linearGradient>
  <path style="fill:url(#gradient4)"
        d="M36 54C36 54 34.09 51.04 32.15 50.06C30.1 49.04 28 50 28 50L42.36 35.63C42.36 35.63 44.29 36.15 46 37C48 38 48.43 39.4 48.43 39.4L36 54z
           M44.11 33.88L54 24C54 24 55.38 23.45 56.84 23.94C58.38 24.45 60 26 60 26L50.18 37.65C50.18 37.65 49.75 36.25 47.75 35.25C45.95 34.34 44.11 33.88 44.11 33.88z"
  />
  <linearGradient id="gradient5" gradientUnits="userSpaceOnUse" x1="33.2" y1="41.88" x2="40.95" y2="46.93">
   <stop offset="0" stop-color="#f3f3f3"/>
   <stop offset="1" stop-color="#b8cbdb"/>
  </linearGradient>
  <path style="fill:url(#gradient5)"
        d="M36 54C36 54 34.09 51.04 32.15 50.06C30.1 49.04 28 50 28 50L36 54z"
  />
 </g>
</svg>
