<?xml version="1.0" encoding="UTF-8" standalone="yes"?>
<svg version="1.1" width="64" height="64" color-interpolation="linearRGB"
     xmlns:svg="http://www.w3.org/2000/svg" xmlns="http://www.w3.org/2000/svg">
 <g>
  <path style="fill:#010000; fill-opacity:0.4901"
        d="M38 57C38 57 41.2 57 43.99 57C46.11 57 49.79 56.09 52 54.99C55.49 53.25 61.24 47.88 62.34 45.13C63.2 42.95 62.2 40.09 59.99 38.99C56.5 37.25 52 35 52 35L38 57z"
  />
  <linearGradient id="gradient0" gradientUnits="userSpaceOnUse" x1="110.77" y1="69.37" x2="99.18" y2="80.37">
   <stop offset="0" stop-color="#010101" stop-opacity="0"/>
   <stop offset="1" stop-color="#010000"/>
  </linearGradient>
  <path style="fill:none; stroke:url(#gradient0); stroke-width:4"
        d="M12 28C12 28 6 26 6 20C6 14 12 10 24 10C36 10 46 10.39 46 4"
  />
  <path style="fill:none; stroke:#010000; stroke-width:4; stroke-linecap:round; stroke-linejoin:round"
        d="M39 52C43 52 48.61 49.36 49.99 48C51.36 46.63 52.72 45.25 54 43.99C57.36 40.63 56 34 54 32C52 30 46 21 34 19C22 17 16 22 12 26C8 30 7.92 37.99 7.92 37.99C10 42 12.68 38.86 20 42C27.76 45.31 35 52 39 52z
           M12 44C17.95 46.97 26.03 51 31.98 53.99C36.63 56.31 44.63 53.34 48 50C50.52 47.45 49.45 48.52 52 46C55.34 42.63 56.63 36.31 51.99 33.99C46.02 31.01 37.95 26.96 32 24C27.34 21.67 21.36 22.62 18 25.98C15.47 28.52 12.52 31.46 9.98 34C6.63 37.36 7.34 41.66 12 44z
           M14 24C14 24 18 22 24 24L27 22C27 22 27 19 21 19C15 19 14 24 14 24z"
  />
  <linearGradient id="gradient1" gradientUnits="userSpaceOnUse" x1="-20.36" y1="-5.36" x2="29.82" y2="-22.63">
   <stop offset="0" stop-color="#696969"/>
   <stop offset="1" stop-color="#010101"/>
  </linearGradient>
  <path style="fill:url(#gradient1)"
        d="M12 44C17.95 46.97 26.03 51 31.98 53.99C36.63 56.31 44.63 53.34 48 50C50.52 47.45 49.45 48.52 52 46C55.34 42.63 56.63 36.31 51.99 33.99C46.02 31.01 37.95 26.96 32 24C27.34 21.67 21.36 22.62 18 25.98C15.47 28.52 12.52 31.46 9.98 34C6.63 37.36 7.34 41.66 12 44z"
  />
  <radialGradient id="gradient2" gradientUnits="userSpaceOnUse" cx="0" cy="0" r="64" gradientTransform="matrix(0.5625,0,0,0.5625,16,16)">
   <stop offset="0" stop-color="#fbfbfb"/>
   <stop offset="1" stop-color="#c0c0c0"/>
  </radialGradient>
  <path style="fill:url(#gradient2)"
        d="M39 52C43 52 48.61 49.36 49.99 48C51.36 46.63 52.72 45.25 54 43.99C57.36 40.63 56 34 54 32C52 30 46 21 34 19C22 17 16 22 12 26C8 30 7.92 37.99 7.92 37.99C10 42 12.68 38.86 20 42C27.76 45.31 35 52 39 52z"
  />
  <path style="fill:none; stroke:#010000; stroke-width:1"
        d="M16 41C16 35 17.86 27.8 26 22C33 17 33 19 33 19"
  />
  <path style="fill:none; stroke:#fcfcfc; stroke-width:0.9705"
        d="M17.48 40.74C17.48 34.93 19.29 27.97 27.2 22.34C34.01 17.5 34.01 19.43 34.01 19.43"
  />
  <radialGradient id="gradient3" gradientUnits="userSpaceOnUse" cx="0" cy="0" r="64" gradientTransform="matrix(-0.0687,-0.1744,0.1744,-0.0687,22.6166,25.7814)">
   <stop offset="0" stop-color="#010000"/>
   <stop offset="1" stop-color="#bebebe"/>
  </radialGradient>
  <path style="fill:url(#gradient3)"
        d="M14 24C14 24 18 22 24 24L27 22C27 22 27 19 21 19C15 19 14 24 14 24z"
  />
 </g>
</svg>
