<?xml version="1.0" encoding="UTF-8" standalone="yes"?>
<svg version="1.1" width="64" height="64" color-interpolation="linearRGB"
     xmlns:svg="http://www.w3.org/2000/svg" xmlns="http://www.w3.org/2000/svg">
 <g>
  <path style="fill:none; stroke:#000000; stroke-width:3.7408; stroke-linecap:square"
        d="M15.62 17.39L11.87 27.66L26.87 35.12L38.11 23.92L36.24 13.66L24.99 8.99L15.62 17.39z"
  />
  <linearGradient id="gradient0" gradientUnits="userSpaceOnUse" x1="35.27" y1="3.95" x2="46.76" y2="20.09">
   <stop offset="0" stop-color="#e9e9e9"/>
   <stop offset="1" stop-color="#b9b9b9"/>
  </linearGradient>
  <path style="fill:url(#gradient0)"
        d="M11.87 27.66L15.62 17.39L26.87 22.06V35.12L11.87 27.66z"
  />
  <linearGradient id="gradient1" gradientUnits="userSpaceOnUse" x1="31.25" y1="47.76" x2="22.56" y2="44.62">
   <stop offset="0" stop-color="#666666"/>
   <stop offset="1" stop-color="#909090"/>
  </linearGradient>
  <path style="fill:url(#gradient1)"
        d="M26.87 35.12V22.06L36.24 13.66L38.11 23.92L26.87 35.12z"
  />
  <radialGradient id="gradient2" gradientUnits="userSpaceOnUse" cx="0" cy="0" r="64" gradientTransform="matrix(-0.2607,0.0329,-0.0225,-0.1773,35.246,16.3488)">
   <stop offset="0" stop-color="#ffffff"/>
   <stop offset="0.3409" stop-color="#e5e5e5"/>
   <stop offset="1" stop-color="#c1c1c1"/>
  </radialGradient>
  <path style="fill:url(#gradient2)"
        d="M15.62 17.39L26.87 22.06L36.24 13.66L24.99 8.99L15.62 17.39z"
  />
  <path style="fill:none; stroke:#000000; stroke-width:0.9352"
        d="M24.12 15.46C26.93 17.33 30.68 13.6 27.87 11.73C25.05 9.86 21.31 13.6 24.12 15.46z
           M25.99 13.6L28.8 16.39"
  />
  <path style="fill:#000000; fill-opacity:0.4274"
        d="M44 46L54 43.99L64 33.99L56 27L44 46z"
  />
  <path style="fill:none; stroke:#000000; stroke-width:4; stroke-linecap:square"
        d="M32 25L28 36L44 44L56 32L54 21L42 16L32 25z"
  />
  <linearGradient id="gradient3" gradientUnits="userSpaceOnUse" x1="52.97" y1="10.59" x2="65.22" y2="27.88">
   <stop offset="0" stop-color="#e9e9e9"/>
   <stop offset="1" stop-color="#b9b9b9"/>
  </linearGradient>
  <path style="fill:url(#gradient3)"
        d="M28 36L32 25L44 30V44L28 36z"
  />
  <linearGradient id="gradient4" gradientUnits="userSpaceOnUse" x1="48.68" y1="57.54" x2="39.4" y2="54.18">
   <stop offset="0" stop-color="#666666"/>
   <stop offset="1" stop-color="#909090"/>
  </linearGradient>
  <path style="fill:url(#gradient4)"
        d="M44 44V30L54 21L56 32L44 44z"
  />
  <radialGradient id="gradient5" gradientUnits="userSpaceOnUse" cx="0" cy="0" r="64" gradientTransform="matrix(-0.2782,0.0353,-0.0241,-0.19,52.9357,23.8761)">
   <stop offset="0" stop-color="#ffffff"/>
   <stop offset="0.3409" stop-color="#e5e5e5"/>
   <stop offset="1" stop-color="#c1c1c1"/>
  </radialGradient>
  <path style="fill:url(#gradient5)"
        d="M32 25L44 30L54 21L42 16L32 25z"
  />
  <path style="fill:none; stroke:#000000; stroke-width:1; stroke-linecap:round; stroke-linejoin:round"
        d="M43 18L40 22L44 21V24L49 21"
  />
  <path style="fill:none; stroke:#000000; stroke-width:3.7408; stroke-linecap:square"
        d="M7.62 33.39L3.87 43.66L18.87 51.12L30.11 39.92L28.24 29.66L16.99 24.99L7.62 33.39z"
  />
  <linearGradient id="gradient6" gradientUnits="userSpaceOnUse" x1="27.27" y1="19.95" x2="38.76" y2="36.09">
   <stop offset="0" stop-color="#e9e9e9"/>
   <stop offset="1" stop-color="#b9b9b9"/>
  </linearGradient>
  <path style="fill:url(#gradient6)"
        d="M3.87 43.66L7.62 33.39L18.87 38.06V51.12L3.87 43.66z"
  />
  <linearGradient id="gradient7" gradientUnits="userSpaceOnUse" x1="23.25" y1="63.76" x2="14.56" y2="60.62">
   <stop offset="0" stop-color="#666666"/>
   <stop offset="1" stop-color="#909090"/>
  </linearGradient>
  <path style="fill:url(#gradient7)"
        d="M18.87 51.12V38.06L28.24 29.66L30.11 39.92L18.87 51.12z"
  />
  <radialGradient id="gradient8" gradientUnits="userSpaceOnUse" cx="0" cy="0" r="64" gradientTransform="matrix(-0.2607,0.0329,-0.0225,-0.1773,27.246,32.3488)">
   <stop offset="0" stop-color="#ffffff"/>
   <stop offset="0.3409" stop-color="#e5e5e5"/>
   <stop offset="1" stop-color="#c1c1c1"/>
  </radialGradient>
  <path style="fill:url(#gradient8)"
        d="M7.62 33.39L18.87 38.06L28.24 29.66L16.99 24.99L7.62 33.39z"
  />
  <path style="fill:none; stroke:#000000; stroke-width:0.9352"
        d="M14.24 30.53L19.87 27.73L17.99 32.39
           M17.06 29.59L18.93 30.53"
  />
  <path style="fill:#000000; fill-opacity:0.4274"
        d="M36 62L46 59.99L56 49.99L48 43L36 62z"
  />
  <path style="fill:none; stroke:#000000; stroke-width:4; stroke-linecap:square"
        d="M24 41L20 52L36 60L48 48L46 37L34 32L24 41z"
  />
  <linearGradient id="gradient9" gradientUnits="userSpaceOnUse" x1="44.97" y1="26.59" x2="57.22" y2="43.88">
   <stop offset="0" stop-color="#e9e9e9"/>
   <stop offset="1" stop-color="#b9b9b9"/>
  </linearGradient>
  <path style="fill:url(#gradient9)"
        d="M20 52L24 41L36 46V60L20 52z"
  />
  <linearGradient id="gradient10" gradientUnits="userSpaceOnUse" x1="40.68" y1="73.54" x2="31.4" y2="70.18">
   <stop offset="0" stop-color="#666666"/>
   <stop offset="1" stop-color="#909090"/>
  </linearGradient>
  <path style="fill:url(#gradient10)"
        d="M36 60V46L46 37L48 48L36 60z"
  />
  <radialGradient id="gradient11" gradientUnits="userSpaceOnUse" cx="0" cy="0" r="64" gradientTransform="matrix(-0.2782,0.0353,-0.0241,-0.19,44.9357,39.8762)">
   <stop offset="0" stop-color="#ffffff"/>
   <stop offset="0.3409" stop-color="#e5e5e5"/>
   <stop offset="1" stop-color="#c1c1c1"/>
  </radialGradient>
  <path style="fill:url(#gradient11)"
        d="M24 41L36 46L46 37L34 32L24 41z"
  />
  <path style="fill:none; stroke:#000000; stroke-width:1"
        d="M32 37C31 38 35 39 36 38C37 37 33 36 34 35C35 34 39 35 38 36"
  />
 </g>
</svg>
