<?xml version="1.0" encoding="UTF-8" standalone="yes"?>
<svg version="1.1" width="64" height="64" color-interpolation="linearRGB"
     xmlns:svg="http://www.w3.org/2000/svg" xmlns="http://www.w3.org/2000/svg">
 <g>
  <path style="fill:#010000; fill-opacity:0.4784"
        d="M46 60C56.65 67.09 68.12 51.77 58 46C44 38 34 52 46 60V60V60z
           M36 62C37.33 62 38.66 62 40 62C47.33 54.66 54.66 47.33 62 40C60.66 39.33 59.33 38.66 58 38C50.66 38 43.33 38 36 38C36 46 36 54 36 62V62V62z"
  />
  <path style="fill:none; stroke:#010000; stroke-width:4"
        d="M4 40C4 41.33 4 42.66 4 44C14.66 49.33 25.33 54.66 36 60C42.66 53.33 49.33 46.66 56 40C56 38.66 56 37.33 56 36C45.33 31.33 34.66 26.66 24 22C17.33 28 10.66 34 4 40V40V40z"
  />
  <linearGradient id="gradient0" gradientUnits="userSpaceOnUse" x1="77.23" y1="43.19" x2="71.61" y2="64.48">
   <stop offset="0" stop-color="#999999"/>
   <stop offset="0.9962" stop-color="#6c6c6c"/>
  </linearGradient>
  <path style="fill:url(#gradient0)"
        d="M36 54C36 56 36 58 36 60C42.66 53.33 49.33 46.66 56 40C56 38.66 56 37.33 56 36C49.33 42 42.66 48 36 54V54V54z"
  />
  <linearGradient id="gradient1" gradientUnits="userSpaceOnUse" x1="27.05" y1="19.51" x2="46.61" y2="38.61">
   <stop offset="0" stop-color="#cccccc"/>
   <stop offset="1" stop-color="#a5a5a5"/>
  </linearGradient>
  <path style="fill:url(#gradient1)"
        d="M36 54C36 56 36 58 36 60C25.33 54.66 14.66 49.33 4 44C4 42.66 4 41.33 4 40C14.66 44.66 25.33 49.33 36 54V54V54z"
  />
  <linearGradient id="gradient2" gradientUnits="userSpaceOnUse" x1="56.75" y1="7.26" x2="67.08" y2="28.93">
   <stop offset="0" stop-color="#e5e5e5"/>
   <stop offset="1" stop-color="#cbcbcb"/>
  </linearGradient>
  <path style="fill:url(#gradient2)"
        d="M4 40C14.66 44.66 25.33 49.33 36 54C42.66 48 49.33 42 56 36C45.33 31.33 34.66 26.66 24 22C17.33 28 10.66 34 4 40V40V40z"
  />
  <path style="fill:none; stroke:#010000; stroke-width:4.1998"
        d="M30 27.99C36.7 27.99 42 31.95 42 36.99C42 42.02 36.7 45.99 30 45.99C23.26 45.99 18 42.02 18 36.99C18 31.95 23.26 27.99 30 27.99V27.99V27.99z"
  />
  <radialGradient id="gradient3" gradientUnits="userSpaceOnUse" cx="0" cy="0" r="64" gradientTransform="matrix(0.1448,0.1968,-0.2625,0.1086,21.7568,33.2728)">
   <stop offset="0" stop-color="#e4e4e4"/>
   <stop offset="1" stop-color="#212121"/>
  </radialGradient>
  <path style="fill:url(#gradient3)"
        d="M30 27.99C36.7 27.99 42 31.95 42 36.99C42 42.02 36.7 45.99 30 45.99C23.26 45.99 18 42.02 18 36.99C18 31.95 23.26 27.99 30 27.99V27.99V27.99z"
  />
  <linearGradient id="gradient4" gradientUnits="userSpaceOnUse" x1="20.89" y1="27.76" x2="38.9" y2="27.66">
   <stop offset="0.0074" stop-color="#bebebe"/>
   <stop offset="1" stop-color="#0b0b0b"/>
  </linearGradient>
  <path style="fill:none; stroke:url(#gradient4); stroke-width:3.0163"
        d="M29.99 28.91C35.02 28.91 38.99 31.58 38.99 34.99C38.99 38.39 35.02 41.08 29.99 41.08C24.94 41.08 20.99 38.39 20.99 34.99C20.99 31.58 24.94 28.91 29.99 28.91V28.91V28.91z"
  />
  <linearGradient id="gradient5" gradientUnits="userSpaceOnUse" x1="34.04" y1="38.97" x2="40.41" y2="41.39">
   <stop offset="0.0037" stop-color="#010000"/>
   <stop offset="0.4659" stop-color="#6c6c6c"/>
   <stop offset="0.9962" stop-color="#010101"/>
  </linearGradient>
  <path style="fill:url(#gradient5)"
        d="M29.99 27.99C35.02 27.99 38.99 30.85 38.99 34.49C38.99 38.13 35.02 40.99 29.99 40.99C24.94 40.99 20.99 38.13 20.99 34.49C20.99 30.85 24.94 27.99 29.99 27.99V27.99V27.99z"
  />
  <path style="fill:#010000"
        d="M30 33.99C32.23 33.99 34 35.31 34 36.99C34 38.67 32.23 39.99 30 39.99C27.75 39.99 26 38.67 26 36.99C26 35.31 27.75 33.99 30 33.99V33.99V33.99z"
  />
  <radialGradient id="gradient6" gradientUnits="userSpaceOnUse" cx="0" cy="0" r="64" gradientTransform="matrix(0,0.2342,-0.0625,0,28,23.4999)">
   <stop offset="0" stop-color="#ffffff"/>
   <stop offset="0.7878" stop-color="#868686"/>
   <stop offset="1" stop-color="#414141"/>
  </radialGradient>
  <path style="fill:url(#gradient6)"
        d="M30 39C30.72 39 31.39 38.84 32 38.58C32 32.72 32 26.86 32 21C30.66 21 29.33 21 28 21C28 26.86 28 32.72 28 38.58C28.59 38.84 29.26 39 30 39V39V39z"
  />
  <path style="fill:none; stroke:#010000; stroke-width:4"
        d="M30 4C35.59 4 40 8.39 40 14C40 19.59 35.59 24 30 24C24.38 24 20 19.59 20 14C20 8.39 24.38 4 30 4V4V4z"
  />
  <radialGradient id="gradient7" gradientUnits="userSpaceOnUse" cx="0" cy="0" r="64" gradientTransform="matrix(0,0.2069,-0.2069,0,26.9994,9.9995)">
   <stop offset="0" stop-color="#ffffff"/>
   <stop offset="0.5" stop-color="#ff3300"/>
   <stop offset="1" stop-color="#cc0000"/>
  </radialGradient>
  <path style="fill:url(#gradient7)"
        d="M30 4C35.59 4 40 8.39 40 14C40 19.59 35.59 24 30 24C24.38 24 20 19.59 20 14C20 8.39 24.38 4 30 4V4V4z"
  />
  <path style="fill:none; stroke:#010000; stroke-width:4"
        d="M52 36C52 37 52 38 49 38C46 38 46 37 46 36C46 35 46 33 49 33C52 33 52 35 52 36V36V36z"
  />
  <linearGradient id="gradient8" gradientUnits="userSpaceOnUse" x1="46" y1="32" x2="54" y2="32">
   <stop offset="0" stop-color="#ff5959"/>
   <stop offset="0.6021" stop-color="#b30404"/>
   <stop offset="1" stop-color="#ff0606"/>
  </linearGradient>
  <path style="fill:url(#gradient8)"
        d="M52 36C52 37 52 38 49 38C46 38 46 37 46 36C46 35 46 33 49 33C52 33 52 35 52 36V36V36z"
  />
  <radialGradient id="gradient9" gradientUnits="userSpaceOnUse" cx="0" cy="0" r="64" gradientTransform="matrix(0,0.0437,-0.0656,0,47.8,33.2)">
   <stop offset="0" stop-color="#ffd5d5"/>
   <stop offset="0.4393" stop-color="#fbaaaa"/>
   <stop offset="1" stop-color="#ee0606"/>
  </radialGradient>
  <path style="fill:url(#gradient9)"
        d="M49 32C50.67 32 52 32.87 52 34C52 35.11 50.67 36 49 36C47.31 36 46 35.11 46 34C46 32.87 47.31 32 49 32V32V32z"
  />
 </g>
</svg>
