<?xml version="1.0" encoding="UTF-8" standalone="yes"?>
<svg version="1.1" width="64" height="64" color-interpolation="linearRGB"
     xmlns:svg="http://www.w3.org/2000/svg" xmlns="http://www.w3.org/2000/svg">
 <g>
  <path style="fill:#010101; fill-opacity:0.4549"
        d="M36 62H42L64 40L58 37H36V62z"
  />
  <linearGradient id="gradient0" gradientUnits="userSpaceOnUse" x1="61.26" y1="12.84" x2="52.8" y2="24.59">
   <stop offset="0" stop-color="#000100" stop-opacity="0"/>
   <stop offset="1" stop-color="#000100"/>
  </linearGradient>
  <path style="fill:none; stroke:url(#gradient0); stroke-width:4; stroke-linecap:round; stroke-linejoin:round"
        d="M44 8L32 20"
  />
  <linearGradient id="gradient1" gradientUnits="userSpaceOnUse" x1="69.26" y1="16.84" x2="60.8" y2="28.59">
   <stop offset="0" stop-color="#000100" stop-opacity="0"/>
   <stop offset="1" stop-color="#000100"/>
  </linearGradient>
  <path style="fill:none; stroke:url(#gradient1); stroke-width:4; stroke-linecap:round; stroke-linejoin:round"
        d="M52 12L40 24"
  />
  <linearGradient id="gradient2" gradientUnits="userSpaceOnUse" x1="77.26" y1="20.84" x2="68.8" y2="32.59">
   <stop offset="0" stop-color="#000100" stop-opacity="0"/>
   <stop offset="1" stop-color="#000100"/>
  </linearGradient>
  <path style="fill:none; stroke:url(#gradient2); stroke-width:4; stroke-linecap:round; stroke-linejoin:round"
        d="M60 16L48 28"
  />
  <path style="fill:none; stroke:#010000; stroke-width:4"
        d="M4 34V44L36 60L56 40V30L24 16L4 34z"
  />
  <linearGradient id="gradient3" gradientUnits="userSpaceOnUse" x1="39.43" y1="17.77" x2="49.29" y2="48.2">
   <stop offset="0" stop-color="#656565"/>
   <stop offset="1" stop-color="#232323"/>
  </linearGradient>
  <path style="fill:url(#gradient3)"
        d="M4 44L36 60V48L4 34V44z"
  />
  <linearGradient id="gradient4" gradientUnits="userSpaceOnUse" x1="73.83" y1="32.31" x2="67.55" y2="59.24">
   <stop offset="0" stop-color="#bcbcbc"/>
   <stop offset="1" stop-color="#878787"/>
  </linearGradient>
  <path style="fill:url(#gradient4)"
        d="M36 60L56 40V30L36 48V60z"
  />
  <linearGradient id="gradient5" gradientUnits="userSpaceOnUse" x1="55.84" y1="11.23" x2="59.22" y2="45.06">
   <stop offset="0" stop-color="#ececec"/>
   <stop offset="1" stop-color="#c5c5c5"/>
  </linearGradient>
  <path style="fill:url(#gradient5)"
        d="M4 34L36 48L56 30L24 16L4 34z"
  />
  <linearGradient id="gradient6" gradientUnits="userSpaceOnUse" x1="48.79" y1="19.18" x2="53.04" y2="42.56">
   <stop offset="0" stop-color="#939393"/>
   <stop offset="1" stop-color="#5a5a5a"/>
  </linearGradient>
  <path style="fill:url(#gradient6)"
        d="M4 34L36 48C36 48 38 40 26 34C14 28 4 34 4 34z"
  />
  <linearGradient id="gradient7" gradientUnits="userSpaceOnUse" x1="18.55" y1="36.04" x2="18.23" y2="40.15">
   <stop offset="0" stop-color="#06ff06"/>
   <stop offset="1" stop-color="#049404"/>
  </linearGradient>
  <path style="fill:url(#gradient7)"
        d="M13 34L10 37V40L12 41V38L15 35L13 34z"
  />
  <linearGradient id="gradient8" gradientUnits="userSpaceOnUse" x1="25.55" y1="40.04" x2="25.23" y2="44.15">
   <stop offset="0" stop-color="#06ff06"/>
   <stop offset="1" stop-color="#049404"/>
  </linearGradient>
  <path style="fill:url(#gradient8)"
        d="M20 38L17 41V44L19 45V42L22 39L20 38z"
  />
  <linearGradient id="gradient9" gradientUnits="userSpaceOnUse" x1="30.55" y1="42.04" x2="30.23" y2="46.15">
   <stop offset="0" stop-color="#06ff06"/>
   <stop offset="1" stop-color="#049404"/>
  </linearGradient>
  <path style="fill:url(#gradient9)"
        d="M25 40L22 43V46L24 47V44L27 41L25 40z"
  />
  <linearGradient id="gradient10" gradientUnits="userSpaceOnUse" x1="35.55" y1="45.04" x2="35.23" y2="49.15">
   <stop offset="0" stop-color="#06ff06"/>
   <stop offset="1" stop-color="#049404"/>
  </linearGradient>
  <path style="fill:url(#gradient10)"
        d="M30 43L27 46V49L29 50V47L32 44L30 43z"
  />
 </g>
</svg>
