<?xml version="1.0" encoding="UTF-8" standalone="yes"?>
<svg version="1.1" width="64" height="64" color-interpolation="linearRGB"
     xmlns:svg="http://www.w3.org/2000/svg" xmlns="http://www.w3.org/2000/svg">
 <g>
  <path style="fill:#000000"
        d="M16 16V48H48V16H16z"
        transform="matrix(0.0625,0,0,0.0625,-1,61)"
  />
  <path style="fill:#000000"
        d="M16 16V48H48V16H16z"
        transform="matrix(0.0625,0,0,0.0625,3,61)"
  />
  <path style="fill:#000000"
        d="M16 16V48H48V16H16z"
        transform="matrix(0.0625,0,0,0.0625,7,61)"
  />
  <path style="fill:#000000"
        d="M16 16V48H48V16H16z"
        transform="matrix(0.0625,0,0,0.0625,11,61)"
  />
  <path style="fill:#000000"
        d="M16 16V48H48V16H16z"
        transform="matrix(0.0625,0,0,0.0625,15,61)"
  />
  <path style="fill:#000000"
        d="M16 16V48H48V16H16z"
        transform="matrix(0.0625,0,0,0.0625,19,61)"
  />
  <path style="fill:#000000"
        d="M16 16V48H48V16H16z"
        transform="matrix(0.0625,0,0,0.0625,23,61)"
  />
  <path style="fill:#000000"
        d="M16 16V48H48V16H16z"
        transform="matrix(0.0625,0,0,0.0625,27,61)"
  />
  <path style="fill:#000000"
        d="M16 16V48H48V16H16z"
        transform="matrix(0.0625,0,0,0.0625,31,61)"
  />
  <path style="fill:#000000"
        d="M16 16V48H48V16H16z"
        transform="matrix(0.0625,0,0,0.0625,35,61)"
  />
  <path style="fill:#000000"
        d="M16 16V48H48V16H16z"
        transform="matrix(0.0625,0,0,0.0625,39,61)"
  />
  <path style="fill:#000000"
        d="M16 16V48H48V16H16z"
        transform="matrix(0.0625,0,0,0.0625,43,61)"
  />
  <path style="fill:#000000"
        d="M16 16V48H48V16H16z"
        transform="matrix(0.0625,0,0,0.0625,47,61)"
  />
  <path style="fill:#000000"
        d="M16 16V48H48V16H16z"
        transform="matrix(0.0625,0,0,0.0625,51,61)"
  />
  <path style="fill:#000000"
        d="M16 16V48H48V16H16z"
        transform="matrix(0.0625,0,0,0.0625,55,61)"
  />
  <path style="fill:#000000"
        d="M16 16V48H48V16H16z"
        transform="matrix(0.0625,0,0,0.0625,59,61)"
  />
 </g>
</svg>
