<?xml version="1.0" encoding="UTF-8" standalone="yes"?>
<svg version="1.1" width="64" height="64" color-interpolation="linearRGB"
     xmlns:svg="http://www.w3.org/2000/svg" xmlns="http://www.w3.org/2000/svg">
 <g>
  <path style="fill:#010101; fill-opacity:0.396"
        d="M42 61H48L52 57H56L62 51L48 47L42 61z"
  />
  <path style="fill:none; stroke:#000000; stroke-width:4"
        d="M3 15L13 41L42 59L60 12L48 10L44 12L26 8L24 13L16 11L15.91 19.2L3 15z"
  />
  <linearGradient id="gradient0" gradientUnits="userSpaceOnUse" x1="102.6" y1="8.5" x2="102.74" y2="47.07">
   <stop offset="0" stop-color="#face79"/>
   <stop offset="1" stop-color="#bc4105"/>
  </linearGradient>
  <path style="fill:url(#gradient0)"
        d="M26 8L14 41L42 58L60 12L48 10L44 12L26 8z"
  />
  <linearGradient id="gradient1" gradientUnits="userSpaceOnUse" x1="103.24" y1="12.68" x2="103.39" y2="55.34">
   <stop offset="0" stop-color="#ffffff"/>
   <stop offset="1" stop-color="#8e8e8e"/>
  </linearGradient>
  <path style="fill:url(#gradient1)"
        d="M16 11V41L42 57L49 22L16 11z"
  />
  <linearGradient id="gradient2" gradientUnits="userSpaceOnUse" x1="78.34" y1="-26.66" x2="101.46" y2="12.94">
   <stop offset="0" stop-color="#9a9a9a"/>
   <stop offset="1" stop-color="#505050"/>
  </linearGradient>
  <path style="fill:url(#gradient2)"
        d="M16 11L49 22L42 57L52 20.37L16 11z"
  />
  <linearGradient id="gradient3" gradientUnits="userSpaceOnUse" x1="88.52" y1="9.59" x2="97.54" y2="51.29">
   <stop offset="0" stop-color="#ffe2ac"/>
   <stop offset="1" stop-color="#f49806"/>
  </linearGradient>
  <path style="fill:url(#gradient3)"
        d="M3 15L13 41L42 59L38 30L3 15z"
  />
  <path style="fill:#a03c03"
        d="M3 15L38 30L42 59L40.5 28L3 15z"
  />
  <path style="fill:none; stroke:#000000; stroke-width:5"
        d="M16 35C10.47 35 6 39.47 6 45C6 50.51 10.47 55 16 55C21.51 55 26 50.51 26 45C26 39.47 21.51 35 16 35z"
        transform="matrix(0.8333,0,0,0.8333,2.6665,9.4998)"
  />
  <path style="fill:none; stroke:#02682b; stroke-width:2"
        d="M16 35C10.47 35 6 39.47 6 45C6 50.51 10.47 55 16 55C21.51 55 26 50.51 26 45C26 39.47 21.51 35 16 35z"
        transform="matrix(0.8333,0,0,0.8333,2.6665,9.4998)"
  />
  <path style="fill:none; stroke:#000000; stroke-width:5"
        d="M16 35C10.47 35 6 39.47 6 45C6 50.51 10.47 55 16 55C21.51 55 26 50.51 26 45C26 39.47 21.51 35 16 35z"
        transform="matrix(0.4783,0,0,0.4783,8.3471,15.0415)"
  />
  <radialGradient id="gradient4" gradientUnits="userSpaceOnUse" cx="0" cy="0" r="64" gradientTransform="matrix(0.1875,0,0,0.1718,11,44)">
   <stop offset="0" stop-color="#04ac45"/>
   <stop offset="0.996" stop-color="#038836"/>
  </radialGradient>
  <path style="fill:url(#gradient4)"
        d="M16 35C10.47 35 6 39.47 6 45C6 50.51 10.47 55 16 55C21.51 55 26 50.51 26 45C26 39.47 21.51 35 16 35z"
        transform="matrix(0.4783,0,0,0.4783,8.3471,15.0415)"
  />
  <path style="fill:none; stroke:#000000; stroke-width:5"
        d="M16 35C10.47 35 6 39.47 6 45C6 50.51 10.47 55 16 55C21.51 55 26 50.51 26 45C26 39.47 21.51 35 16 35z"
        transform="matrix(0.4783,0,0,0.4783,-0.6528,32.0415)"
  />
  <radialGradient id="gradient5" gradientUnits="userSpaceOnUse" cx="0" cy="0" r="64" gradientTransform="matrix(0.1875,0,0,0.1718,11,44)">
   <stop offset="0" stop-color="#04ac45"/>
   <stop offset="0.996" stop-color="#038836"/>
  </radialGradient>
  <path style="fill:url(#gradient5)"
        d="M16 35C10.47 35 6 39.47 6 45C6 50.51 10.47 55 16 55C21.51 55 26 50.51 26 45C26 39.47 21.51 35 16 35z"
        transform="matrix(0.4783,0,0,0.4783,-0.6528,32.0415)"
  />
  <path style="fill:none; stroke:#000000; stroke-width:5"
        d="M16 35C10.47 35 6 39.47 6 45C6 50.51 10.47 55 16 55C21.51 55 26 50.51 26 45C26 39.47 21.51 35 16 35z"
        transform="matrix(0.4783,0,0,0.4783,18.3471,32.0415)"
  />
  <radialGradient id="gradient6" gradientUnits="userSpaceOnUse" cx="0" cy="0" r="64" gradientTransform="matrix(0.1875,0,0,0.1718,11,44)">
   <stop offset="0" stop-color="#04ac45"/>
   <stop offset="0.996" stop-color="#038836"/>
  </radialGradient>
  <path style="fill:url(#gradient6)"
        d="M16 35C10.47 35 6 39.47 6 45C6 50.51 10.47 55 16 55C21.51 55 26 50.51 26 45C26 39.47 21.51 35 16 35z"
        transform="matrix(0.4783,0,0,0.4783,18.3471,32.0415)"
  />
 </g>
</svg>
