<?xml version="1.0" encoding="UTF-8" standalone="yes"?>
<svg version="1.1" width="64" height="64" color-interpolation="linearRGB"
     xmlns:svg="http://www.w3.org/2000/svg" xmlns="http://www.w3.org/2000/svg">
 <g>
  <path style="fill:#010101; fill-opacity:0.5686"
        d="M58 34C59.32 33 60.66 32 62 31C60.66 30.33 59.32 29.65 58 29C57 30 56 31 55 32C56 32.66 57 33.32 58 34V34z
           M27 57C27.65 57.66 28.33 58.32 29 59C30.03 57.94 31.07 56.88 32.12 55.82C33.74 56.88 35.37 57.94 37 59C39.79 55.17 42.58 51.35 45.38 47.53C51.58 44.35 57.79 41.17 64 38C62.32 37 60.66 36 59 35C59.66 35.66 60.32 36.32 61 37C52.66 41 44.32 45 36 49C33 51.66 30 54.32 27 57V57z"
  />
  <path style="fill:none; stroke:#010101; stroke-width:4"
        d="M6.24 30C6.24 30 11.86 36 16.86 42.5C21.86 49 26.24 55.74 26.24 55.74C37.2 49.45 48.15 43.15 59.11 36.86C50.07 29.57 41.03 22.28 32 15C23.41 20 14.82 25 6.24 30V30z"
  />
  <radialGradient id="gradient0" gradientUnits="userSpaceOnUse" cx="0" cy="0" r="64" gradientTransform="matrix(0,0.3332,-0.5713,0,26,35)">
   <stop offset="0.4862" stop-color="#896eff"/>
   <stop offset="1" stop-color="#c0d5ff"/>
  </radialGradient>
  <path style="fill:url(#gradient0)"
        d="M6.24 30C6.24 30 11.86 36 16.86 42.5C21.86 49 26.24 55.74 26.24 55.74C37.2 49.45 48.15 43.15 59.11 36.86C50.07 29.57 41.03 22.28 32 15C23.41 20 14.82 25 6.24 30V30z"
  />
  <path style="fill:none; stroke:#010101; stroke-width:4"
        d="M2.61 30.86C2.61 30.86 10.94 36.25 19 41.86C27.43 47.74 35.74 52.74 35.74 52.74C43.2 43.95 50.65 35.15 58.11 26.36C58.11 26.36 45.43 20.69 35.36 15.36C30.17 12.61 26 9.36 26 9.36C18.2 16.52 10.41 23.69 2.61 30.86V30.86z"
  />
  <linearGradient id="gradient1" gradientUnits="userSpaceOnUse" x1="105.44" y1="-23.41" x2="119.91" y2="34.32">
   <stop offset="0" stop-color="#a5b1ff"/>
   <stop offset="0.7372" stop-color="#eaf1ff"/>
   <stop offset="1" stop-color="#b3b8ff"/>
  </linearGradient>
  <path style="fill:url(#gradient1)"
        d="M2.61 30.86C2.61 30.86 10.94 36.25 19 41.86C27.43 47.74 35.74 52.74 35.74 52.74C43.2 43.95 50.65 35.15 58.11 26.36C58.11 26.36 45.43 20.69 35.36 15.36C30.17 12.61 26 9.36 26 9.36C18.2 16.52 10.41 23.69 2.61 30.86V30.86z"
  />
  <radialGradient id="gradient2" gradientUnits="userSpaceOnUse" cx="0" cy="0" r="64" gradientTransform="matrix(0.8046,0,0,-0.8046,33.6647,58.2976)">
   <stop offset="0.4862" stop-color="#02385a"/>
   <stop offset="0.5098" stop-color="#034f85"/>
  </radialGradient>
  <path style="fill:url(#gradient2)"
        d="M41.71 31.92C37.17 31 26.15 30.16 26.15 28.74C26.15 26.67 36.48 25.65 40.3 21.84H40.29C42.53 19.73 43.91 16.96 43.91 13.92C43.91 12.91 43.75 11.93 43.48 11C44.23 10.66 45.29 9.92 45.68 9.03C46.2 7.81 44.93 4.93 43.51 5.14C40.8 5.55 39.24 4.86 37.72 4.08C37.06 3.71 36.39 3.38 35.67 3.1C35.66 3.1 35.65 3.08 35.65 3.08C33.82 2.38 31.79 2 29.65 2C21.77 2 15.41 7.33 15.41 13.92C15.41 19.17 19.5 23.64 25.16 25.23C23.37 26.1 19.09 28.4 19.09 30.75C19.09 32.32 20.66 33.69 22.78 34.72C20.47 36.07 15.26 39.76 15.26 45.41C15.26 51.09 20.2 53.18 27.9 53.18C35.62 53.18 41.5 50.2 44.5 47.22C47.48 44.24 48.71 42.23 48.71 39.24C48.71 36.26 46.24 32.82 41.71 31.92z
           M20.46 13.92C20.46 8.82 24.57 4.71 29.64 4.71C34.74 4.71 38.85 8.82 38.85 13.92C38.85 19 34.74 23.11 29.64 23.11C24.57 23.11 20.46 19 20.46 13.92z
           M29.26 50.05C23.31 50.05 21.69 47.27 21.69 43.98C21.69 40.94 22.71 39 25.73 35.86C26.86 36.21 28 36.48 29.07 36.65C33.42 37.36 43.84 37.96 43.84 41.76C43.84 45.58 35.23 50.05 29.26 50.05z"
        transform="matrix(0.4411,-0.4371,0.4611,0.4302,4.2116,31.4913)"
  />
  <path style="fill:#d9551e"
        d="M29.65 5.8C28.08 5.8 26.81 7.08 26.81 8.66C26.81 11.05 29.65 11.7 29.65 12.8C29.65 11.7 32.5 11.05 32.5 8.66C32.5 7.08 31.23 5.8 29.65 5.8z"
        transform="matrix(0.4411,-0.4371,0.4611,0.4302,4.2116,31.4913)"
  />
  <path style="fill:#d9551e"
        d="M21.54 13.92C21.54 15.49 22.84 16.75 24.4 16.75C26.81 16.75 27.46 13.92 28.54 13.92C27.46 13.92 26.81 11.05 24.4 11.05C22.84 11.05 21.54 12.33 21.54 13.92z"
        transform="matrix(0.4411,-0.4371,0.4611,0.4302,4.2116,31.4913)"
  />
  <path style="fill:#d9551e"
        d="M29.65 22C31.23 22 32.5 20.73 32.5 19.15C32.5 16.75 29.65 16.11 29.65 15C29.65 16.11 26.81 16.75 26.81 19.15C26.81 20.73 28.08 22 29.65 22z"
        transform="matrix(0.4411,-0.4371,0.4611,0.4302,4.2116,31.4913)"
  />
  <path style="fill:#d9551e"
        d="M37.75 13.92C37.75 12.33 36.49 11.05 34.91 11.05C32.5 11.05 31.86 13.92 30.75 13.92C31.86 13.92 32.5 16.75 34.91 16.75C36.48 16.75 37.75 15.49 37.75 13.92z"
        transform="matrix(0.4411,-0.4371,0.4611,0.4302,4.2116,31.4913)"
  />
 </g>
</svg>
