<?xml version="1.0" encoding="UTF-8" standalone="yes"?>
<svg version="1.1" width="64" height="64" color-interpolation="linearRGB"
     xmlns:svg="http://www.w3.org/2000/svg" xmlns="http://www.w3.org/2000/svg">
 <g>
  <path style="fill:#010101; fill-opacity:0.5725"
        d="M27 57L29 59L32.12 55.82L37 59L45.39 47.53L64 38L59 35L61 37L36 49L27 57z
           M58 34L62 31L58 29L55 32L58 34z"
  />
  <path style="fill:none; stroke:#010101; stroke-width:4"
        d="M6.24 30C6.24 30 11.87 36 16.87 42.5C21.87 49 26.24 55.74 26.24 55.74L59.11 36.87L32 15L6.24 30z"
  />
  <radialGradient id="gradient0" gradientUnits="userSpaceOnUse" cx="0" cy="0" r="64" gradientTransform="matrix(0.5714,0,0,0.3333,26,35)">
   <stop offset="0.4862" stop-color="#ffc0c0"/>
   <stop offset="1" stop-color="#f4f4f4"/>
  </radialGradient>
  <path style="fill:url(#gradient0)"
        d="M6.24 30C6.24 30 11.87 36 16.87 42.5C21.87 49 26.24 55.74 26.24 55.74L59.11 36.87L32 15L6.24 30z"
  />
  <path style="fill:none; stroke:#010101; stroke-width:4"
        d="M2.61 30.87C2.61 30.87 10.95 36.26 19 41.87C27.44 47.75 35.74 52.74 35.74 52.74L58.11 26.37C58.11 26.37 45.44 20.7 35.37 15.37C30.18 12.62 26 9.37 26 9.37L2.61 30.87z"
  />
  <linearGradient id="gradient1" gradientUnits="userSpaceOnUse" x1="107.03" y1="-17.09" x2="118.33" y2="27.99">
   <stop offset="0" stop-color="#e7e7e7"/>
   <stop offset="0.7411" stop-color="#ffffff"/>
   <stop offset="1" stop-color="#ebebeb"/>
  </linearGradient>
  <path style="fill:url(#gradient1)"
        d="M2.61 30.87C2.61 30.87 10.95 36.26 19 41.87C27.44 47.75 35.74 52.74 35.74 52.74L58.11 26.37C58.11 26.37 45.44 20.7 35.37 15.37C30.18 12.62 26 9.37 26 9.37L2.61 30.87z"
  />
  <linearGradient id="gradient2" gradientUnits="userSpaceOnUse" x1="-47.14" y1="-15.78" x2="-28.46" y2="-37.85">
   <stop offset="0" stop-color="#010101"/>
   <stop offset="1" stop-color="#9e9e9e"/>
  </linearGradient>
  <path style="fill:none; stroke:url(#gradient2); stroke-width:1"
        d="M33 25L38 20
           M24 19L29 14
           M26 40L42 23
           M34 46L47 31"
  />
  <linearGradient id="gradient3" gradientUnits="userSpaceOnUse" x1="-47.14" y1="-15.78" x2="-28.46" y2="-37.85">
   <stop offset="0" stop-color="#010101"/>
   <stop offset="1" stop-color="#9e9e9e"/>
  </linearGradient>
  <path style="fill:none; stroke:url(#gradient3); stroke-width:1"
        d="M30 43L46 25
           M29 22L33 18"
  />
  <linearGradient id="gradient4" gradientUnits="userSpaceOnUse" x1="57.5" y1="-34.42" x2="71.09" y2="46.71">
   <stop offset="0.4196" stop-color="#06f8b7"/>
   <stop offset="1" stop-color="#1467ff"/>
  </linearGradient>
  <path style="fill:url(#gradient4)"
        d="M8 30L30 44L48 24L26 14L8 30z"
        transform="matrix(0.4749,0,0,0.5,8.1999,15)"
  />
  <path style="fill:none; stroke:#010101; stroke-width:1"
        d="M8 30L30 44L48 24L26 14L8 30z"
        transform="matrix(0.4749,0,0,0.5,8.1999,15)"
  />
  <path style="fill:none; stroke:#010101; stroke-width:4; stroke-linejoin:round"
        d="M30 16V2C30 2 36 4 41 4C45 4 53 2 58 2V16C53 16 45 18 41 18C36 18 30 16 30 16z"
  />
  <linearGradient id="gradient5" gradientUnits="userSpaceOnUse" x1="38.95" y1="-23.75" x2="66" y2="-12.14">
   <stop offset="0" stop-color="#ff6d6d"/>
   <stop offset="1" stop-color="#da1c1c"/>
  </linearGradient>
  <path style="fill:url(#gradient5)"
        d="M30 16V2C30 2 36 4 41 4C45 4 53 2 58 2V16C53 16 45 18 41 18C36 18 30 16 30 16z"
  />
  <path style="fill:none; stroke:#ffffff; stroke-width:2; stroke-linecap:round; stroke-linejoin:round"
        d="M50 14V7H54
           M33 14V7C33 7 37 6 37 9C37 12 34 11 34 11
           M41 7V14C41 14 46 15 46 12C46 12 46 10.3 46 9C46 6 41 7 41 7z
           M50 11H53"
  />
 </g>
</svg>
