<?xml version="1.0" encoding="UTF-8" standalone="yes"?>
<svg version="1.1" width="64" height="64" color-interpolation="linearRGB"
     xmlns:svg="http://www.w3.org/2000/svg" xmlns="http://www.w3.org/2000/svg">
 <g>
  <path style="fill:#010101; fill-opacity:0.5725"
        d="M27 57L29 59L32.12 55.82L37 59L45.39 47.53L64 38L59 35L61 37L36 49L27 57z
           M58 34L62 31L58 29L55 32L58 34z"
  />
  <path style="fill:none; stroke:#010101; stroke-width:4"
        d="M6.24 30C6.24 30 11.87 36 16.87 42.5C21.87 49 26.24 55.74 26.24 55.74L59.11 36.87L32 15L6.24 30z"
  />
  <radialGradient id="gradient0" gradientUnits="userSpaceOnUse" cx="0" cy="0" r="64" gradientTransform="matrix(0.5714,0,0,0.3333,26,35)">
   <stop offset="0.4862" stop-color="#f1b706"/>
   <stop offset="1" stop-color="#fffcc0"/>
  </radialGradient>
  <path style="fill:url(#gradient0)"
        d="M6.24 30C6.24 30 11.87 36 16.87 42.5C21.87 49 26.24 55.74 26.24 55.74L59.11 36.87L32 15L6.24 30z"
  />
  <path style="fill:none; stroke:#010101; stroke-width:4"
        d="M2.61 30.87C2.61 30.87 10.95 36.26 19 41.87C27.44 47.75 35.74 52.74 35.74 52.74L58.11 26.37C58.11 26.37 45.44 20.7 35.37 15.37C30.18 12.62 26 9.37 26 9.37L2.61 30.87z"
  />
  <linearGradient id="gradient1" gradientUnits="userSpaceOnUse" x1="107.03" y1="-17.09" x2="118.33" y2="27.99">
   <stop offset="0" stop-color="#ffefa5"/>
   <stop offset="0.7411" stop-color="#fffcc0"/>
   <stop offset="1" stop-color="#fff890"/>
  </linearGradient>
  <path style="fill:url(#gradient1)"
        d="M2.61 30.87C2.61 30.87 10.95 36.26 19 41.87C27.44 47.75 35.74 52.74 35.74 52.74L58.11 26.37C58.11 26.37 45.44 20.7 35.37 15.37C30.18 12.62 26 9.37 26 9.37L2.61 30.87z"
  />
  <linearGradient id="gradient2" gradientUnits="userSpaceOnUse" x1="-47.14" y1="-15.78" x2="-28.46" y2="-37.85">
   <stop offset="0" stop-color="#010101"/>
   <stop offset="1" stop-color="#9e9e9e"/>
  </linearGradient>
  <path style="fill:none; stroke:url(#gradient2); stroke-width:1"
        d="M20 36L34.87 20.87
           M14 32L29 17L47 29
           M26 40L40 25L29 17L22 25L40 36
           M46 29L33 45C33 45 14 33 14 32"
  />
  <linearGradient id="gradient3" gradientUnits="userSpaceOnUse" x1="-47.14" y1="-15.78" x2="-28.46" y2="-37.85">
   <stop offset="0" stop-color="#010101"/>
   <stop offset="1" stop-color="#9e9e9e"/>
  </linearGradient>
  <path style="fill:none; stroke:url(#gradient3); stroke-width:1"
        d="M29 42L44 26.37L47 29L43 33L25 21L18 29L36 40
           M23 38L38 23
           M17 34L32 19"
  />
  <path style="fill:none; stroke:#010000; stroke-width:2"
        d="M31 24V14"
  />
  <path style="fill:none; stroke:#010000; stroke-width:4; stroke-linejoin:round"
        d="M30 16V2C30 2 36 4 41 4C45 4 53 2 58 2V16C53 16 45 18 41 18C36 18 30 16 30 16z"
  />
  <radialGradient id="gradient4" gradientUnits="userSpaceOnUse" cx="0" cy="0" r="64">
   <stop offset="0.2857" stop-color="#06ff6a"/>
   <stop offset="1" stop-color="#187f00"/>
  </radialGradient>
  <path style="fill:url(#gradient4)"
        d="M30 16V2C30 2 36 4 41 4C45 4 53 2 58 2V16C53 16 45 18 41 18C36 18 30 16 30 16z"
  />
  <path style="fill:none; stroke:#010101; stroke-width:2; stroke-linecap:round; stroke-linejoin:round"
        d="M56 5C56 5 52 2 51 7C50.56 9.19 54 9 54 9C54 9 57.66 9.5 56 12C54 15 51 13 51 13
           M42 6V15L48 14
           M38 6L32 15
           M32 5L39 16"
  />
 </g>
</svg>
