<?xml version="1.0" encoding="UTF-8" standalone="yes"?>
<svg version="1.1" width="64" height="64" color-interpolation="linearRGB"
     xmlns:svg="http://www.w3.org/2000/svg" xmlns="http://www.w3.org/2000/svg">
 <g>
  <path style="fill:#010101; fill-opacity:0.5333"
        d="M36 63H41C41 63 45.5 59.62 48.12 56.08C51.02 52.16 52.07 48.04 52.07 48.04C52.07 48.04 57.05 44.03 60.03 40.01C63.01 36 63 32 63 32L59 30L57 35L36 63z"
  />
  <path style="fill:none; stroke:#010000; stroke-width:4"
        d="M3 32C3 32 2 34.47 2 37.25C2 40.86 2.61 44.61 2.61 44.61C2.61 44.61 4.97 46.56 8.22 48.29C12.2 50.4 16.6 51.72 16.6 51.72L16.61 37.87L29.5 24.74C29.5 24.74 25.45 23.09 21.65 21.54C18.28 20.17 15.1 19.88 15.1 19.88C15.1 19.88 11.03 21.95 7.87 25.11C4.49 28.5 3 32 3 32z
           M30 23.74L38.93 14.05C38.93 14.05 35.07 12.65 31.42 11.33C28.12 10.13 25 10 25 10C25 10 23.26 10.72 21.36 12.62C19.05 14.93 16.49 17.5 16.49 17.5L30 23.74z
           M31.5 25.37L47.87 31L47.92 45.96C47.92 45.96 51.83 42.1 54.36 38.78C56.29 36.23 57 33.61 57 33.61C57 33.61 58 29.95 58 26.37C58 23.53 56.24 21.5 56.24 21.5C56.24 21.5 52.2 18.89 47.33 17.11C43.78 15.82 40.72 15.21 40.72 15.21C40.72 15.21 38.67 16.65 36.4 18.79C33.6 21.43 31.5 25.37 31.5 25.37z
           M46.61 33C46.61 33 42.41 30.85 37.97 28.94C34 27.23 30.5 26.24 30.5 26.24C30.5 26.24 27.59 28.49 24.78 31.53C21.61 34.97 18.61 38.61 18.61 38.61C18.61 38.61 18.24 41.58 18.24 44.88C18.24 48.98 18.87 53.47 18.87 53.47C18.87 53.47 22.14 55.66 26.29 57.86C30.99 60.34 36 61.24 36 61.24C36 61.24 39.12 58.87 42.11 54.92C44.88 51.28 46.77 47.67 46.77 47.67C46.77 47.67 47.23 44.07 47.19 40.35C47.15 36.61 46.61 33 46.61 33z"
  />
  <linearGradient id="gradient0" gradientUnits="userSpaceOnUse" x1="13.84" y1="-34.14" x2="58.34" y2="-23.7">
   <stop offset="0" stop-color="#fff8ea"/>
   <stop offset="1" stop-color="#f5deac"/>
  </linearGradient>
  <path style="fill:url(#gradient0)"
        d="M46.61 33C46.61 33 42.41 30.85 37.97 28.94C34 27.23 30.5 26.24 30.5 26.24C30.5 26.24 27.59 28.49 24.78 31.53C21.61 34.97 18.61 38.61 18.61 38.61L36 46C36 46 39.67 42.71 42.34 39.46C44.98 36.21 46.61 33 46.61 33z
           M3 32L16.61 37.87L29.5 24.74C29.5 24.74 25.45 23.09 21.65 21.54C18.28 20.17 15.1 19.88 15.1 19.88C15.1 19.88 11.03 21.95 7.87 25.11C4.49 28.5 3 32 3 32z
           M30 23.74L38.93 14.05C38.93 14.05 35.07 12.65 31.42 11.33C28.12 10.13 25 10 25 10C25 10 23.26 10.72 21.36 12.62C19.05 14.93 16.49 17.5 16.49 17.5L30 23.74z
           M31.5 25.37L47.87 31C47.87 31 51.34 28.19 53.59 25.63C55.5 23.48 56.24 21.5 56.24 21.5C56.24 21.5 52.2 18.89 47.33 17.11C43.78 15.82 40.72 15.21 40.72 15.21C40.72 15.21 38.67 16.65 36.4 18.79C33.6 21.43 31.5 25.37 31.5 25.37z"
  />
  <linearGradient id="gradient1" gradientUnits="userSpaceOnUse" x1="44.72" y1="-3.9" x2="86.1" y2="14.51">
   <stop offset="0" stop-color="#983f04"/>
   <stop offset="1" stop-color="#e6c276"/>
  </linearGradient>
  <path style="fill:url(#gradient1)"
        d="M46.61 33C46.61 33 44.98 36.21 42.34 39.46C39.67 42.71 36 46 36 46V61.24C36 61.24 39.12 58.87 42.11 54.92C44.88 51.28 46.77 47.67 46.77 47.67C46.77 47.67 47.23 44.07 47.19 40.35C47.15 36.61 46.61 33 46.61 33z
           M47.87 31L47.92 45.96C47.92 45.96 51.83 42.1 54.36 38.78C56.29 36.23 57 33.61 57 33.61C57 33.61 58 29.95 58 26.37C58 23.53 56.24 21.5 56.24 21.5C56.24 21.5 55.5 23.48 53.59 25.63C51.34 28.19 47.87 31 47.87 31z"
  />
  <linearGradient id="gradient2" gradientUnits="userSpaceOnUse" x1="17.71" y1="94.92" x2="-10.6" y2="75.85">
   <stop offset="0" stop-color="#e1ab36"/>
   <stop offset="1" stop-color="#ffebc0"/>
  </linearGradient>
  <path style="fill:url(#gradient2)"
        d="M36 46L18.61 38.61C18.61 38.61 18.24 41.58 18.24 44.88C18.24 48.98 18.87 53.47 18.87 53.47C18.87 53.47 22.14 55.66 26.29 57.86C30.99 60.34 36 61.24 36 61.24V46z"
  />
  <linearGradient id="gradient3" gradientUnits="userSpaceOnUse" x1="2.85" y1="-60" x2="21.14" y2="-60">
   <stop offset="0" stop-color="#ffefce"/>
   <stop offset="1" stop-color="#ffd16e"/>
  </linearGradient>
  <path style="fill:url(#gradient3)"
        d="M3 32C3 32 2 34.47 2 37.25C2 40.86 2.61 44.61 2.61 44.61C2.61 44.61 4.97 46.56 8.22 48.29C12.2 50.4 16.6 51.72 16.6 51.72L16.61 37.87L3 32z"
  />
  <path style="fill:none; stroke:#010000; stroke-width:2; stroke-linecap:round"
        d="M31 34C31 34 31 22 26 19C22.15 16.69 11 24 18 25C25 26 43 23 47 26C49.25 27.69 43 34 38 33C34.06 32.2 31 24 31 24C31 24 28.37 24.67 24 27.24C19.87 29.66 15 31.24 15 31.24"
  />
  <path style="fill:none; stroke:#010000; stroke-width:2"
        d="M31 24V14"
  />
  <path style="fill:none; stroke:#010000; stroke-width:4; stroke-linejoin:round"
        d="M30 16V2C30 2 36 4 41 4C45 4 53 2 58 2V16C53 16 45 18 41 18C36 18 30 16 30 16z"
  />
  <linearGradient id="gradient4" gradientUnits="userSpaceOnUse" x1="38.95" y1="-23.75" x2="66" y2="-12.14">
   <stop offset="0" stop-color="#ffc0c0"/>
   <stop offset="1" stop-color="#ff9e9e"/>
  </linearGradient>
  <path style="fill:url(#gradient4)"
        d="M30 16V2C30 2 36 4 41 4C45 4 53 2 58 2V16C53 16 45 18 41 18C36 18 30 16 30 16z"
  />
  <path style="fill:none; stroke:#010000; stroke-width:2; stroke-linecap:round; stroke-linejoin:round"
        d="M32 7H38
           M35 7V14
           M49 14V7C49 7 53 6 53 9C53 12 50 11 50 11L54 14
           M40 14L43 7L46 14
           M41 12H45"
  />
 </g>
</svg>
