<?xml version="1.0" encoding="UTF-8" standalone="yes"?>
<svg version="1.1" width="64" height="64" color-interpolation="linearRGB"
     xmlns:svg="http://www.w3.org/2000/svg" xmlns="http://www.w3.org/2000/svg">
 <g>
  <path style="fill:#010101; fill-opacity:0.5686"
        d="M58 34C59.33 33 60.66 32 62 31C60.66 30.33 59.33 29.66 58 29C57 30 56 31 55 32C56 32.66 57 33.33 58 34V34V34z
           M27 57C27.66 57.66 28.33 58.33 29 59C30.04 57.94 31.08 56.88 32.13 55.83C33.75 56.88 35.37 57.94 37 59C39.79 55.18 42.59 51.36 45.38 47.54C51.59 44.36 57.79 41.18 64 38C62.33 37 60.66 36 59 35C59.66 35.66 60.33 36.33 61 37C52.66 41 44.33 45 36 49C33 51.66 30 54.33 27 57V57V57z"
  />
  <path style="fill:none; stroke:#010101; stroke-width:4"
        d="M6.25 30C6.25 30 11.86 36 16.87 42.5C21.87 49 26.25 55.75 26.25 55.75C37.2 49.45 48.16 43.16 59.11 36.86C50.07 29.57 41.04 22.28 32 15C23.41 20 14.83 25 6.25 30V30V30z"
  />
  <radialGradient id="gradient0" gradientUnits="userSpaceOnUse" cx="0" cy="0" r="64" gradientTransform="matrix(0,0.3332,-0.5713,0,26,35)">
   <stop offset="0.4885" stop-color="#a3a3a3"/>
   <stop offset="1" stop-color="#eaeaea"/>
  </radialGradient>
  <path style="fill:url(#gradient0)"
        d="M6.25 30C6.25 30 11.86 36 16.87 42.5C21.87 49 26.25 55.75 26.25 55.75C37.2 49.45 48.16 43.16 59.11 36.86C50.07 29.57 41.04 22.28 32 15C23.41 20 14.83 25 6.25 30V30V30z"
  />
  <path style="fill:none; stroke:#010101; stroke-width:4"
        d="M2.61 30.87C2.61 30.87 10.94 36.25 19 41.86C27.44 47.75 35.75 52.75 35.75 52.75C43.2 43.95 50.66 35.16 58.11 26.37C58.11 26.37 45.43 20.7 35.36 15.36C30.18 12.61 26 9.36 26 9.36C18.2 16.53 10.41 23.7 2.61 30.87V30.87V30.87z"
  />
  <linearGradient id="gradient1" gradientUnits="userSpaceOnUse" x1="107.04" y1="-17.09" x2="118.33" y2="27.99">
   <stop offset="0" stop-color="#edecec"/>
   <stop offset="0.6729" stop-color="#f5f5f5"/>
   <stop offset="1" stop-color="#e6e6e6"/>
  </linearGradient>
  <path style="fill:url(#gradient1)"
        d="M2.61 30.87C2.61 30.87 10.94 36.25 19 41.86C27.44 47.75 35.75 52.75 35.75 52.75C43.2 43.95 50.66 35.16 58.11 26.37C58.11 26.37 45.43 20.7 35.36 15.36C30.18 12.61 26 9.36 26 9.36C18.2 16.53 10.41 23.7 2.61 30.87V30.87V30.87z"
  />
  <linearGradient id="gradient2" gradientUnits="userSpaceOnUse" x1="80.47" y1="10.11" x2="78.89" y2="43.63">
   <stop offset="0" stop-color="#9aa5ec"/>
   <stop offset="0.5497" stop-color="#bfd2f9"/>
   <stop offset="1" stop-color="#949aee"/>
  </linearGradient>
  <path style="fill:url(#gradient2)"
        d="M8 30C15.33 34.66 22.66 39.33 30 44C30 44 45 29 48 25C35 19 26 13 26 13C20 18.66 14 24.33 8 30V30V30z"
  />
  <path style="fill:none; stroke:#010101; stroke-opacity:0.5686; stroke-width:1"
        d="M8 30C15.33 34.66 22.66 39.33 30 44C30 44 45 29 48 25C35 19 26 13 26 13C20 18.66 14 24.33 8 30V30V30z"
  />
  <linearGradient id="gradient3" gradientUnits="userSpaceOnUse" x1="-32.37" y1="39.01" x2="-29.96" y2="18.34">
   <stop offset="0" stop-color="#c70484" stop-opacity="0.8549"/>
   <stop offset="0.9606" stop-color="#ee058e"/>
  </linearGradient>
  <path style="fill:url(#gradient3)"
        d="M40.81 28.67C40.07 28.77 39.82 29.39 40.74 29.75C41.64 30.11 41.55 28.58 40.81 28.67V28.67V28.67z
           M35.12 31.74C33.71 31.82 33.14 33.26 35.45 33.62C37.76 33.98 36.51 31.65 35.12 31.74V31.74V31.74z
           M22.15 23.36C22.15 23.36 19.48 24.58 17.85 26.42C16.12 28.36 14.94 31.72 17.02 32.01C19 32.28 21.49 33.62 26.44 32.46C30.38 31.53 31.7 31.07 33.14 30.48C34.86 29.75 38.34 30.74 37.43 29.13C37.08 28.5 36.51 28.05 38.83 27.59C41.14 27.14 40.95 24.53 36.44 23.99C31.89 23.46 29.24 25.98 26.11 27.42C22.97 28.86 20.93 28.65 19.99 28.41C17.94 27.86 22.15 23.36 22.15 23.36V23.36V23.36z"
  />
 </g>
</svg>
