<?xml version="1.0" encoding="UTF-8" standalone="yes"?>
<svg version="1.1" width="64" height="64" color-interpolation="linearRGB"
     xmlns:svg="http://www.w3.org/2000/svg" xmlns="http://www.w3.org/2000/svg">
 <g>
  <path style="fill:#010101; fill-opacity:0.5725"
        d="M27 57L29 59L32.12 55.81L37 59L45.39 47.52L64 38L59 35L61 37L36 49L27 57z
           M58 34L62 31L58 29L55 32L58 34z"
  />
  <path style="fill:none; stroke:#010101; stroke-width:4"
        d="M6.24 30C6.24 30 11.87 36 16.87 42.5C21.87 49 26.24 55.74 26.24 55.74L59.1 36.86L32 15L6.24 30z"
  />
  <radialGradient id="gradient0" gradientUnits="userSpaceOnUse" cx="0" cy="0" r="64" gradientTransform="matrix(0.5714,0,0,0.3333,26,35)">
   <stop offset="0.4862" stop-color="#896eff"/>
   <stop offset="1" stop-color="#c0d5ff"/>
  </radialGradient>
  <path style="fill:url(#gradient0)"
        d="M6.24 30C6.24 30 11.87 36 16.87 42.5C21.87 49 26.24 55.74 26.24 55.74L59.1 36.86L32 15L6.24 30z"
  />
  <path style="fill:none; stroke:#010101; stroke-width:4"
        d="M2.61 30.87C2.61 30.87 10.94 36.25 19 41.86C27.44 47.74 35.74 52.74 35.74 52.74L58.1 26.37C58.1 26.37 45.44 20.7 35.36 15.37C30.17 12.61 26 9.37 26 9.37L2.61 30.87z"
  />
  <linearGradient id="gradient1" gradientUnits="userSpaceOnUse" x1="105.45" y1="-23.42" x2="119.92" y2="34.32">
   <stop offset="0" stop-color="#a5b1ff"/>
   <stop offset="0.7372" stop-color="#eaf1ff"/>
   <stop offset="1" stop-color="#b3b8ff"/>
  </linearGradient>
  <path style="fill:url(#gradient1)"
        d="M2.61 30.87C2.61 30.87 10.94 36.25 19 41.86C27.44 47.74 35.74 52.74 35.74 52.74L58.1 26.37C58.1 26.37 45.44 20.7 35.36 15.37C30.17 12.61 26 9.37 26 9.37L2.61 30.87z"
  />
  <linearGradient id="gradient2" gradientUnits="userSpaceOnUse" x1="-62.14" y1="43.08" x2="-58.5" y2="14.4">
   <stop offset="0" stop-color="#c70585"/>
   <stop offset="0.9607" stop-color="#ee068f"/>
  </linearGradient>
  <path style="fill:url(#gradient2)"
        d="M20.37 21.37C20.37 21.37 16.34 23.06 13.87 25.61C11.24 28.31 9.45 32.97 12.61 33.36C15.61 33.74 19.37 35.6 26.87 34C32.82 32.7 34.81 32.05 37 31.24C39.6 30.24 44.86 31.61 43.5 29.37C42.97 28.5 42.1 27.87 45.6 27.24C49.1 26.61 48.81 22.99 42 22.24C35.1 21.5 31.11 25 26.37 27C21.61 29 18.52 28.7 17.11 28.37C14 27.61 20.37 21.37 20.37 21.37z
           M40 33C37.86 33.1 37 35.1 40.5 35.6C44 36.1 42.1 32.86 40 33z
           M48.6 28.74C47.5 28.87 47.1 29.74 48.5 30.24C49.86 30.74 49.74 28.61 48.6 28.74z"
  />
  <path style="fill:#010101"
        d="M40.43 7.68C42.29 5.8 44.89 4.38 47.61 4.62C49.5 4.7 51.29 5.62 52.65 6.91C50.46 5.96 48.08 5.11 45.65 5.47C43.39 5.71 41.56 7.22 40.01 8.77C31.03 17.81 22.04 26.85 13.01 35.84C11.12 37.75 8.98 39.54 7.83 42.02C6.83 44.1 7.02 46.48 7.06 48.71C7.28 47.5 7.5 46.3 7.75 45.09C7.86 46.67 8.09 48.25 8.69 49.72C10.53 54.38 16.84 56.82 21.06 53.8C24.38 51.31 22.65 55.84 19.9 56.48C22.94 54.31 19 56.16 16.38 56.05C13.63 56.02 11.45 54.15 9.24 52.77C10.78 54.46 12.58 56.01 14.83 56.67C16.17 57.03 17.53 57.24 18.91 57.47C17.43 57.37 15.94 57.31 14.46 57.22C10.66 56.15 7.27 53.17 6.3 49.28C5.13 45.51 6.66 41.36 9.42 38.69C19.76 28.36 30.1 18.02 40.43 7.68z"
        transform="matrix(1.0381,-0.0167,0.0157,0.9846,-2.7898,-1.6732)"
  />
  <path style="fill:#3e3e3e; fill-opacity:0.9764"
        d="M40.01 8.77C41.56 7.22 43.39 5.71 45.65 5.47C48.08 5.11 50.46 5.96 52.65 6.91C53.31 7.5 54.21 8.11 54.37 9.03C54.5 9.24 54.79 9.67 54.94 9.89L54.98 10.27C54.92 12.39 55.18 14.63 54.31 16.62C53.28 18.63 51.48 20.06 49.93 21.65C43.55 28.01 37.17 34.37 30.84 40.77C29.81 41.76 28.65 42.85 27.16 42.99C25.8 43.11 24.48 42.7 23.19 42.32C23.08 42 22.86 41.39 22.75 41.08C23.46 41.29 24.16 41.5 24.88 41.68L25.29 41.79C26.49 42.19 27.77 42.11 28.71 41.19C36.6 33.22 44.6 25.34 52.48 17.35C52.67 17.13 53.06 16.68 53.26 16.47C53.36 16.19 53.54 15.66 53.64 15.39C54.94 12.79 54.2 9.42 51.8 7.73C48.74 5.36 44.02 5.85 41.39 8.66C31.21 18.81 21.07 29.01 10.87 39.15C9.32 40.64 8.2 42.54 7.85 44.68L7.75 45.09C7.5 46.3 7.28 47.5 7.06 48.71C7.02 46.48 6.83 44.1 7.83 42.02C8.98 39.54 11.12 37.75 13.01 35.84C22.04 26.85 31.03 17.81 40.01 8.77z"
        transform="matrix(1.0381,-0.0167,0.0157,0.9846,-2.7898,-1.6732)"
  />
  <path style="fill:#575757"
        d="M41.39 8.66C44.02 5.85 48.74 5.36 51.8 7.73C54.2 9.42 54.94 12.79 53.64 15.39C53.64 14 53.66 12.56 53.22 11.23C52.7 9.72 51.46 8.64 50.27 7.65C48.5 6.84 46.39 6.48 44.56 7.35C42.2 8.49 40.6 10.67 38.75 12.46C30 21.23 21.24 30.01 12.45 38.74C10.6 40.46 9.05 42.47 7.85 44.68C8.2 42.54 9.32 40.64 10.87 39.15C21.07 29.01 31.21 18.81 41.39 8.66z"
        transform="matrix(1.0381,-0.0167,0.0157,0.9846,-2.7898,-1.6732)"
  />
  <path style="fill:#000000"
        d="M44.56 7.35C46.39 6.48 48.5 6.84 50.27 7.65C48.26 7.93 46.11 8.01 44.33 9.08C42.57 10.09 41.33 11.72 40.06 13.25C33.4 20.51 25.93 27.01 19.41 34.42C17.85 35.43 16.46 36.66 15.21 38.02C13.62 39.75 11.77 41.22 10.37 43.1C8.96 45 8.81 47.46 8.69 49.72C8.09 48.25 7.86 46.67 7.75 45.09L7.85 44.68C9.05 42.47 10.6 40.46 12.45 38.74C21.24 30.01 30 21.23 38.75 12.46C40.6 10.67 42.2 8.49 44.56 7.35z"
        transform="matrix(1.0381,-0.0167,0.0157,0.9846,-2.7898,-1.6732)"
  />
  <path style="fill:#000000; fill-opacity:0.6705"
        d="M54.37 9.03L54.82 9.04L55.11 9.49L54.94 9.89C54.79 9.67 54.5 9.24 54.37 9.03z"
        transform="matrix(1.0381,-0.0167,0.0157,0.9846,-2.7898,-1.6732)"
  />
  <path style="fill:#010101"
        d="M54.98 10.27C55.16 10.54 55.53 11.09 55.72 11.37C55.88 14.26 55.55 17.49 53.34 19.59C45.92 27.06 38.45 34.49 31.01 41.94C29.19 43.99 26.3 44.1 23.77 43.75C22.09 42.84 20.5 41.53 19.78 39.72C19.09 38.03 19.33 36.18 19.41 34.42C25.93 27.01 33.4 20.51 40.06 13.25C40.55 13.92 41.05 14.59 41.52 15.28C35.37 21 29.62 27.16 23.57 33C22.09 34.32 20.82 36.21 21.59 38.26C21.81 38.85 22.01 39.45 22.23 40.03C20.6 39.21 20.68 37.22 20.64 35.65C21.11 34.24 22.21 33.19 23.22 32.16C27.4 28.07 31.5 23.9 35.65 19.78C37.36 18.07 39.27 16.5 40.41 14.33C38.35 15.61 36.74 17.47 35.04 19.16C30.59 23.65 26.07 28.07 21.64 32.58C20.09 34.01 19.72 36.2 19.95 38.22C20.18 40.07 21.66 41.43 23.19 42.32C24.48 42.7 25.8 43.11 27.16 42.99C28.65 42.85 29.81 41.76 30.84 40.77C37.17 34.37 43.55 28.01 49.93 21.65C51.48 20.06 53.28 18.63 54.31 16.62C55.18 14.63 54.92 12.39 54.98 10.27z"
        transform="matrix(1.0381,-0.0167,0.0157,0.9846,-2.7898,-1.6732)"
  />
  <path style="fill:#000000"
        d="M55.72 11.37C57.32 14.4 56.38 18 54.58 20.71C46.43 28.91 38.27 37.1 30.03 45.22C27.9 45.03 25.66 44.89 23.77 43.75C26.3 44.1 29.19 43.99 31.01 41.94C38.45 34.49 45.92 27.06 53.34 19.59C55.55 17.49 55.88 14.26 55.72 11.37z"
        transform="matrix(1.0381,-0.0167,0.0157,0.9846,-2.7898,-1.6732)"
  />
  <path style="fill:#010101"
        d="M35.04 19.16C36.74 17.47 38.35 15.61 40.41 14.33C39.27 16.5 37.36 18.07 35.65 19.78C31.5 23.9 27.4 28.07 23.22 32.16C22.21 33.19 21.11 34.24 20.64 35.65C20.37 36.5 20.14 37.36 19.95 38.22C19.72 36.2 20.09 34.01 21.64 32.58C26.07 28.07 30.59 23.65 35.04 19.16z"
        transform="matrix(1.0381,-0.0167,0.0157,0.9846,-2.7898,-1.6732)"
  />
  <path style="fill:#000000"
        d="M23.57 33C29.62 27.16 35.37 21 41.52 15.28C41.67 15.5 41.98 15.97 42.13 16.19C36.3 22.15 30.36 28 24.45 33.89C23.22 35.14 22.37 36.7 21.59 38.26C20.82 36.21 22.09 34.32 23.57 33z"
        transform="matrix(1.0381,-0.0167,0.0157,0.9846,-2.7898,-1.6732)"
  />
  <path style="fill:#010101; fill-opacity:0.8"
        d="M52.48 17.35C52.67 17.13 53.06 16.68 53.26 16.47C53.06 16.68 52.67 17.13 52.48 17.35z"
        transform="matrix(1.0381,-0.0167,0.0157,0.9846,-2.7898,-1.6732)"
  />
  <path style="fill:#767676"
        d=""
        transform="matrix(1.0381,-0.0167,0.0157,0.9846,-2.7898,-1.6732)"
  />
  <path style="fill:#020202; fill-opacity:0.3294"
        d=""
        transform="matrix(1.0381,-0.0167,0.0157,0.9846,-2.7898,-1.6732)"
  />
  <path style="fill:#010101; fill-opacity:0.9294"
        d="M19.95 38.22C20.14 37.36 20.37 36.5 20.64 35.65C20.68 37.22 20.6 39.21 22.23 40.03C23.09 40.63 23.98 41.18 24.88 41.68C24.16 41.5 23.46 41.29 22.75 41.08C22.86 41.39 23.08 42 23.19 42.32C21.66 41.43 20.18 40.07 19.95 38.22z"
        transform="matrix(1.0381,-0.0167,0.0157,0.9846,-2.7898,-1.6732)"
  />
  <path style="fill:#010101; fill-opacity:0.9098"
        d="M25.29 41.79C26.45 41.69 27.59 41.51 28.71 41.19C27.77 42.11 26.49 42.19 25.29 41.79z"
        transform="matrix(1.0381,-0.0167,0.0157,0.9846,-2.7898,-1.6732)"
  />
 </g>
</svg>
