<?xml version="1.0" encoding="UTF-8" standalone="yes"?>
<svg version="1.1" width="64" height="64" color-interpolation="linearRGB"
     xmlns:svg="http://www.w3.org/2000/svg" xmlns="http://www.w3.org/2000/svg">
 <g>
  <path style="fill:#010101; fill-opacity:0.5686"
        d="M58 34C59.33 33 60.66 32 62 31C60.66 30.33 59.33 29.66 58 29C57 30 56 31 55 32C56 32.66 57 33.33 58 34V34V34z
           M27 57C27.66 57.66 28.33 58.33 29 59C30.04 57.94 31.08 56.88 32.13 55.83C33.75 56.88 35.37 57.94 37 59C39.79 55.18 42.59 51.36 45.38 47.54C51.59 44.36 57.79 41.18 64 38C62.33 37 60.66 36 59 35C59.66 35.66 60.33 36.33 61 37C52.66 41 44.33 45 36 49C33 51.66 30 54.33 27 57V57V57z"
  />
  <path style="fill:none; stroke:#010101; stroke-width:4"
        d="M6.25 30C6.25 30 11.86 36 16.87 42.5C21.87 49 26.25 55.75 26.25 55.75C37.2 49.45 48.16 43.16 59.11 36.86C50.07 29.57 41.04 22.28 32 15C23.41 20 14.83 25 6.25 30V30V30z"
  />
  <radialGradient id="gradient0" gradientUnits="userSpaceOnUse" cx="0" cy="0" r="64" gradientTransform="matrix(0,0.3332,-0.5713,0,26,35)">
   <stop offset="0.4885" stop-color="#f1b706"/>
   <stop offset="1" stop-color="#fffcc0"/>
  </radialGradient>
  <path style="fill:url(#gradient0)"
        d="M6.25 30C6.25 30 11.86 36 16.87 42.5C21.87 49 26.25 55.75 26.25 55.75C37.2 49.45 48.16 43.16 59.11 36.86C50.07 29.57 41.04 22.28 32 15C23.41 20 14.83 25 6.25 30V30V30z"
  />
  <path style="fill:none; stroke:#010101; stroke-width:4"
        d="M2.61 30.87C2.61 30.87 10.94 36.25 19 41.86C27.44 47.75 35.75 52.75 35.75 52.75C43.2 43.95 50.66 35.16 58.11 26.37C58.11 26.37 45.43 20.7 35.36 15.36C30.18 12.61 26 9.36 26 9.36C18.2 16.53 10.41 23.7 2.61 30.87V30.87V30.87z"
  />
  <linearGradient id="gradient1" gradientUnits="userSpaceOnUse" x1="107.04" y1="-17.09" x2="118.33" y2="27.99">
   <stop offset="0" stop-color="#ffefa5"/>
   <stop offset="0.7423" stop-color="#fffcc0"/>
   <stop offset="1" stop-color="#fff890"/>
  </linearGradient>
  <path style="fill:url(#gradient1)"
        d="M2.61 30.87C2.61 30.87 10.94 36.25 19 41.86C27.44 47.75 35.75 52.75 35.75 52.75C43.2 43.95 50.66 35.16 58.11 26.37C58.11 26.37 45.43 20.7 35.36 15.36C30.18 12.61 26 9.36 26 9.36C18.2 16.53 10.41 23.7 2.61 30.87V30.87V30.87z"
  />
  <linearGradient id="gradient2" gradientUnits="userSpaceOnUse" x1="-47.13" y1="-15.77" x2="-28.45" y2="-37.84">
   <stop offset="0" stop-color="#010101"/>
   <stop offset="1" stop-color="#9e9e9e"/>
  </linearGradient>
  <path style="fill:none; stroke:url(#gradient2); stroke-width:1"
        d="M32 44C35.58 40.12 39.16 36.24 42.75 32.36
           M26 40C30.25 35.62 34.5 31.24 38.75 26.87
           M14 32C18.29 27.66 22.57 23.33 26.87 19
           M20 36C24.95 30.95 29.91 25.91 34.86 20.87"
  />
  <linearGradient id="gradient3" gradientUnits="userSpaceOnUse" x1="-47.13" y1="-15.77" x2="-28.45" y2="-37.84">
   <stop offset="0" stop-color="#010101"/>
   <stop offset="1" stop-color="#9e9e9e"/>
  </linearGradient>
  <path style="fill:none; stroke:url(#gradient3); stroke-width:1"
        d="M17 34C20.7 30.2 24.41 26.41 28.12 22.62
           M23 38C26.91 34.08 30.83 30.16 34.75 26.25
           M29 42C34 36.79 39 31.57 44 26.37"
  />
  <path style="fill:#000000; fill-opacity:0.3254"
        d="M54 42C48.47 42 44 44.45 44 47.5C44 50.52 48.47 53 54 53C59.52 53 64 50.52 64 47.5C64 44.45 59.52 42 54 42V42V42z
           M36 42C34.66 49.33 33.33 56.66 32 64C33.33 64 34.66 64 36 64C39.33 60.66 42.66 57.33 46 54C47 54 48 54 49 54C51.33 51.66 53.66 49.33 56 47C52.66 45.33 49.33 43.66 46 42C42.66 42 39.33 42 36 42V42V42z"
        transform="matrix(0.5666,0,0,0.5656,16.7333,2.9998)"
  />
  <path style="fill:none; stroke:#000000; stroke-width:6"
        d="M34 45C34 37 34 29 34 21C29.66 19.33 25.33 17.66 21 16C17.33 18 13.66 20 10 22C10 23 10 24 10 25C11.33 26 12.66 27 14 28C14 31.66 14 35.33 14 39C11.33 40.66 8.66 42.33 6 44C6 45.33 6 46.66 6 48C14.66 52.66 23.33 57.33 32 62C35.33 58.66 38.66 55.33 42 52C42 50.66 42 49.33 42 48C39.33 47 36.66 46 34 45V45V45z"
        transform="matrix(0.5666,0,0,0.5656,16.7333,2.9998)"
  />
  <linearGradient id="gradient4" gradientUnits="userSpaceOnUse" x1="25.16" y1="-43.13" x2="56.75" y2="-34.41">
   <stop offset="0" stop-color="#227aff"/>
   <stop offset="1" stop-color="#0025e5"/>
  </linearGradient>
  <path style="fill:url(#gradient4)"
        d="M24 53C24 44.66 24 36.33 24 28C19.33 26 14.66 24 10 22C10 23 10 24 10 25C11.34 26.08 12.68 27.17 14.02 28.26C14.01 34.84 14.01 41.41 14 48C11.33 46.66 8.66 45.33 6 44C6 45.33 6 46.66 6 48C14.66 52.66 23.33 57.33 32 62C32 60.33 32 58.66 32 57C29.33 55.66 26.66 54.33 24 53V53V53z"
        transform="matrix(0.5666,0,0,0.5656,16.7333,2.9998)"
  />
  <linearGradient id="gradient5" gradientUnits="userSpaceOnUse" x1="46.76" y1="-64.5" x2="65.47" y2="-60.16">
   <stop offset="0" stop-color="#000081"/>
   <stop offset="1" stop-color="#0909b7"/>
  </linearGradient>
  <path style="fill:url(#gradient5)"
        d="M32 57C32 58.66 32 60.33 32 62C35.33 58.66 38.66 55.33 42 52C42 50.66 42 49.33 42 48C38.66 51 35.33 54 32 57V57V57z"
        transform="matrix(0.5666,0,0,0.5656,16.7333,2.9998)"
  />
  <linearGradient id="gradient6" gradientUnits="userSpaceOnUse" x1="46.76" y1="-64.5" x2="65.47" y2="-60.16">
   <stop offset="0" stop-color="#000081"/>
   <stop offset="1" stop-color="#0909b7"/>
  </linearGradient>
  <path style="fill:url(#gradient6)"
        d="M24 53C27.33 50.33 30.66 47.66 34 45C34 37 34 29 34 21C30.66 23.33 27.33 25.66 24 28C24 36.33 24 44.66 24 53V53V53z"
        transform="matrix(0.5666,0,0,0.5656,16.7333,2.9998)"
  />
  <linearGradient id="gradient7" gradientUnits="userSpaceOnUse" x1="17.32" y1="37.58" x2="29.9" y2="31.35">
   <stop offset="0" stop-color="#050ec5"/>
   <stop offset="1" stop-color="#062fe3"/>
  </linearGradient>
  <path style="fill:url(#gradient7)"
        d="M42 48C39.33 47 36.66 46 34 45C30.66 47.66 27.33 50.33 24 53C28.13 53 32.26 53.02 36.4 53.02C38.26 51.35 40.13 49.67 42 48V48V48z"
        transform="matrix(0.5666,0,0,0.5656,16.7333,2.9998)"
  />
  <linearGradient id="gradient8" gradientUnits="userSpaceOnUse" x1="-8.62" y1="21.52" x2="12.76" y2="10.89">
   <stop offset="0" stop-color="#67b5ff"/>
   <stop offset="1" stop-color="#3b79f6"/>
  </linearGradient>
  <path style="fill:url(#gradient8)"
        d="M24 53C26.66 54.33 29.33 55.66 32 57C33.46 55.67 34.93 54.35 36.4 53.02C32.26 53.02 28.13 53 24 53V53V53z"
        transform="matrix(0.5666,0,0,0.5656,16.7333,2.9998)"
  />
  <linearGradient id="gradient9" gradientUnits="userSpaceOnUse" x1="-8.62" y1="21.52" x2="12.76" y2="10.89">
   <stop offset="0" stop-color="#67b5ff"/>
   <stop offset="1" stop-color="#3b79f6"/>
  </linearGradient>
  <path style="fill:url(#gradient9)"
        d="M6 44C8.66 45.33 11.33 46.66 14 48C14 45 14 42 14 39C11.33 40.66 8.66 42.33 6 44V44V44z"
        transform="matrix(0.5666,0,0,0.5656,16.7333,2.9998)"
  />
  <radialGradient id="gradient10" gradientUnits="userSpaceOnUse" cx="0" cy="0" r="64" gradientTransform="matrix(0,0.1405,-0.3125,0,30,22)">
   <stop offset="0" stop-color="#0530d1"/>
   <stop offset="1" stop-color="#67b5ff"/>
  </radialGradient>
  <path style="fill:url(#gradient10)"
        d="M21 16C17.33 18 13.66 20 10 22C14.66 24 19.33 26 24 28C27.33 25.66 30.66 23.33 34 21C29.66 19.33 25.33 17.66 21 16V16V16z"
        transform="matrix(0.5666,0,0,0.5656,16.7333,2.9998)"
  />
  <path style="fill:none; stroke:#000000; stroke-width:5"
        d="M22 2C16.46 2 11.98 6.46 12 12C12 17.52 16.46 22 22 22C27.52 22 32 17.52 32 12C32 6.46 27.52 2 22 2V2V2z"
        transform="matrix(0.5666,0,0,0.5656,16.7333,2.9998)"
  />
  <radialGradient id="gradient11" gradientUnits="userSpaceOnUse" cx="0" cy="0" r="64" gradientTransform="matrix(0,0.203,-0.203,0,19,9.43)">
   <stop offset="0" stop-color="#3787ff"/>
   <stop offset="0.3368" stop-color="#1b76ff"/>
   <stop offset="0.8586" stop-color="#000081"/>
   <stop offset="1" stop-color="#031d8c"/>
  </radialGradient>
  <path style="fill:url(#gradient11)"
        d="M22 2C16.46 2 11.98 6.46 12 12C12 17.52 16.46 22 22 22C27.52 22 32 17.52 32 12C32 6.46 27.52 2 22 2V2V2z"
        transform="matrix(0.5666,0,0,0.5656,16.7333,2.9998)"
  />
  <radialGradient id="gradient12" gradientUnits="userSpaceOnUse" cx="0" cy="0" r="64" gradientTransform="matrix(0,-0.0526,-0.0526,0,19,9)">
   <stop offset="0" stop-color="#ffffff"/>
   <stop offset="1" stop-color="#3787ff"/>
  </radialGradient>
  <path style="fill:url(#gradient12)"
        d="M19 5.61C17.12 5.61 15.61 7.13 15.63 9C15.63 10.85 17.12 12.36 19 12.36C20.87 12.36 22.37 10.85 22.37 9C22.37 7.13 20.86 5.61 19 5.61V5.61V5.61z"
        transform="matrix(0.5666,0,0,0.5656,16.7333,2.9998)"
  />
 </g>
</svg>
