<?xml version="1.0" encoding="UTF-8" standalone="yes"?>
<svg version="1.1" width="64" height="64" color-interpolation="linearRGB"
     xmlns:svg="http://www.w3.org/2000/svg" xmlns="http://www.w3.org/2000/svg">
 <g>
  <path style="fill:#010101; fill-opacity:0.5725"
        d="M27 57L29 59L32.13 55.83L37 59L45.38 47.54L64 38L59 35L61 37L36 49L27 57z
           M58 34L62 31L58 29L55 32L58 34z"
  />
  <path style="fill:none; stroke:#010101; stroke-width:4"
        d="M6.25 30C6.25 30 11.86 36 16.87 42.5C21.87 49 26.25 55.75 26.25 55.75L59.11 36.86L32 15L6.25 30z"
  />
  <radialGradient id="gradient0" gradientUnits="userSpaceOnUse" cx="0" cy="0" r="64" gradientTransform="matrix(0.5713,0,0,0.3332,26,35)">
   <stop offset="0.4885" stop-color="#f1b706"/>
   <stop offset="1" stop-color="#fffcc0"/>
  </radialGradient>
  <path style="fill:url(#gradient0)"
        d="M6.25 30C6.25 30 11.86 36 16.87 42.5C21.87 49 26.25 55.75 26.25 55.75L59.11 36.86L32 15L6.25 30z"
  />
  <path style="fill:none; stroke:#010101; stroke-width:4"
        d="M2.61 30.87C2.61 30.87 10.94 36.25 19 41.86C27.44 47.75 35.75 52.75 35.75 52.75L58.11 26.37C58.11 26.37 45.43 20.7 35.36 15.36C30.18 12.61 26 9.36 26 9.36L2.61 30.87z"
  />
  <linearGradient id="gradient1" gradientUnits="userSpaceOnUse" x1="107.04" y1="-17.09" x2="118.33" y2="27.98">
   <stop offset="0" stop-color="#ffefa5"/>
   <stop offset="0.7423" stop-color="#fffcc0"/>
   <stop offset="1" stop-color="#fff890"/>
  </linearGradient>
  <path style="fill:url(#gradient1)"
        d="M2.61 30.87C2.61 30.87 10.94 36.25 19 41.86C27.44 47.75 35.75 52.75 35.75 52.75L58.11 26.37C58.11 26.37 45.43 20.7 35.36 15.36C30.18 12.61 26 9.36 26 9.36L2.61 30.87z"
  />
  <linearGradient id="gradient2" gradientUnits="userSpaceOnUse" x1="-47.13" y1="-15.77" x2="-28.45" y2="-37.84">
   <stop offset="0" stop-color="#010101"/>
   <stop offset="1" stop-color="#9e9e9e"/>
  </linearGradient>
  <path style="fill:none; stroke:url(#gradient2); stroke-width:1"
        d="M19 38L37 20
           M22 25L31 16
           M31 46L44 33
           M25 42L40 27"
  />
  <linearGradient id="gradient3" gradientUnits="userSpaceOnUse" x1="-47.13" y1="-15.77" x2="-28.45" y2="-37.84">
   <stop offset="0" stop-color="#010101"/>
   <stop offset="1" stop-color="#9e9e9e"/>
  </linearGradient>
  <path style="fill:none; stroke:url(#gradient3); stroke-width:1"
        d="M28 44L48 24
           M22 40L35 27
           M25 27L34 18"
  />
  <linearGradient id="gradient4" gradientUnits="userSpaceOnUse" x1="-47.13" y1="-15.77" x2="-28.45" y2="-37.84">
   <stop offset="0" stop-color="#010101"/>
   <stop offset="1" stop-color="#9e9e9e"/>
  </linearGradient>
  <path style="fill:none; stroke:url(#gradient4); stroke-width:3; stroke-linecap:round; stroke-linejoin:round"
        d="M17 36L14 26L15 25L22 30L21 31L19 30L17 32L18 35L17 36z
           M17 31L19 29L16 27L17 31z"
  />
  <path style="fill:#ffffff"
        d="M17 36L14 26L15 25L22 30L21 31L19 30L17 32L18 35L17 36z
           M17 31L19 29L16 27L17 31z"
  />
 </g>
</svg>
