<?xml version="1.0" encoding="UTF-8" standalone="yes"?>
<svg version="1.1" width="64" height="64" color-interpolation="linearRGB"
     xmlns:svg="http://www.w3.org/2000/svg" xmlns="http://www.w3.org/2000/svg">
 <g>
  <path style="fill:#010101; fill-opacity:0.5725"
        d="M27 57L29 59L32.12 55.82L37 59L45.39 47.53L64 38L59 35L61 37L36 49L27 57z
           M58 34L62 31L58 29L55 32L58 34z"
  />
  <path style="fill:none; stroke:#010101; stroke-width:4"
        d="M6.24 30C6.24 30 11.87 36 16.87 42.5C21.87 49 26.24 55.74 26.24 55.74L59.11 36.87L32 15L6.24 30z"
  />
  <radialGradient id="gradient0" gradientUnits="userSpaceOnUse" cx="0" cy="0" r="64" gradientTransform="matrix(0.5714,0,0,0.3333,26,35)">
   <stop offset="0.4862" stop-color="#7588ad"/>
   <stop offset="1" stop-color="#cee5ff"/>
  </radialGradient>
  <path style="fill:url(#gradient0)"
        d="M6.24 30C6.24 30 11.87 36 16.87 42.5C21.87 49 26.24 55.74 26.24 55.74L59.11 36.87L32 15L6.24 30z"
  />
  <path style="fill:none; stroke:#010101; stroke-width:4"
        d="M2.61 30.87C2.61 30.87 10.95 36.26 19 41.87C27.44 47.75 35.74 52.74 35.74 52.74L58.11 26.37C58.11 26.37 45.44 20.7 35.37 15.37C30.18 12.62 26 9.37 26 9.37L2.61 30.87z"
  />
  <linearGradient id="gradient1" gradientUnits="userSpaceOnUse" x1="107.03" y1="-17.09" x2="118.33" y2="27.99">
   <stop offset="0.0039" stop-color="#bfdef4"/>
   <stop offset="0.7411" stop-color="#ffffff"/>
   <stop offset="1" stop-color="#e7eefb"/>
  </linearGradient>
  <path style="fill:url(#gradient1)"
        d="M2.61 30.87C2.61 30.87 10.95 36.26 19 41.87C27.44 47.75 35.74 52.74 35.74 52.74L58.11 26.37C58.11 26.37 45.44 20.7 35.37 15.37C30.18 12.62 26 9.37 26 9.37L2.61 30.87z"
  />
  <linearGradient id="gradient2" gradientUnits="userSpaceOnUse" x1="-47.14" y1="-10.78" x2="-28.46" y2="-32.85">
   <stop offset="0" stop-color="#010101"/>
   <stop offset="1" stop-color="#5296cb"/>
  </linearGradient>
  <path style="fill:none; stroke:url(#gradient2); stroke-width:1"
        d="M14 37L23 28
           M22 43L38 27
           M26 46L42 30"
        transform="matrix(1,0,0,1,0,-5)"
  />
  <linearGradient id="gradient3" gradientUnits="userSpaceOnUse" x1="-47.14" y1="-10.78" x2="-28.46" y2="-32.85">
   <stop offset="0" stop-color="#010101"/>
   <stop offset="1" stop-color="#5296cb"/>
  </linearGradient>
  <path style="fill:none; stroke:url(#gradient3); stroke-width:1"
        d="M22 36L33 25"
        transform="matrix(1,0,0,1,0,-5)"
  />
  <path style="fill:none; stroke:#010101; stroke-width:1"
        d="M13 34L14 36L16 37"
        transform="matrix(1,0,0,1,11,-15)"
  />
  <path style="fill:none; stroke:#010101; stroke-width:1"
        d="M23 24L25 25L26 27"
        transform="matrix(1,0,0,1,3,-7)"
  />
  <path style="fill:none; stroke:#010101; stroke-width:1"
        d="M13 34L14 36L16 37"
        transform="matrix(1,0,0,1,5,-2)"
  />
  <path style="fill:none; stroke:#010101; stroke-width:1"
        d="M23 24L25 25L26 27"
        transform="matrix(1,0,0,1,8,17)"
  />
  <path style="fill:none; stroke:#010101; stroke-width:4"
        d="M16.3 28C13.97 28.12 11.8 28.86 9.95 30.05C9.95 30.05 9.9 31.29 10.43 32.13L11.52 33.83C10.13 34.89 9.06 36.34 8.48 38.03L6.56 37.53C5.59 37.28 4.42 37.68 4.42 37.68C4.15 38.72 4.01 39.82 4.01 40.95C4.01 42.14 4.16 43.29 4.46 44.38C4.46 44.38 5.62 44.78 6.59 44.51L8.51 43.98C9.1 45.63 10.17 47.07 11.55 48.11L10.47 49.78C9.93 50.62 9.98 51.87 9.98 51.87C11.82 53.05 13.98 53.78 16.31 53.9C16.31 53.9 17.04 52.94 17.09 51.95L17.18 49.92C19 49.89 20.68 49.31 22.09 48.35L23.34 49.91C23.96 50.68 25.14 51.04 25.14 51.04C26.88 49.63 28.25 47.78 29.08 45.65C29.08 45.65 28.39 44.68 27.47 44.31L25.59 43.56C25.84 42.74 25.97 41.86 25.97 40.96C25.97 40.09 25.85 39.25 25.62 38.45L27.48 37.75C28.42 37.4 29.13 36.37 29.13 36.37C28.32 34.22 26.95 32.34 25.19 30.91C25.19 30.91 24.03 31.27 23.4 32.05L22.15 33.61C20.74 32.63 19.03 32.03 17.18 32L17.09 29.97C17.05 28.97 16.31 28 16.31 28H16.3z
           M20 41C20 42.64 18.65 44 17 44C15.34 44 14 42.65 14 41C14 39.34 15.33 38 17 38C18.64 38 20 39.33 20 41z"
  />
  <linearGradient id="gradient4" gradientUnits="userSpaceOnUse" x1="21.96" y1="-0.01" x2="57.17" y2="22.58">
   <stop offset="0" stop-color="#fdfdfd"/>
   <stop offset="1" stop-color="#8d8d8d"/>
  </linearGradient>
  <path style="fill:url(#gradient4)"
        d="M16.3 28C13.97 28.12 11.8 28.86 9.95 30.05C9.95 30.05 9.9 31.29 10.43 32.13L11.52 33.83C10.13 34.89 9.06 36.34 8.48 38.03L6.56 37.53C5.59 37.28 4.42 37.68 4.42 37.68C4.15 38.72 4.01 39.82 4.01 40.95C4.01 42.14 4.16 43.29 4.46 44.38C4.46 44.38 5.62 44.78 6.59 44.51L8.51 43.98C9.1 45.63 10.17 47.07 11.55 48.11L10.47 49.78C9.93 50.62 9.98 51.87 9.98 51.87C11.82 53.05 13.98 53.78 16.31 53.9C16.31 53.9 17.04 52.94 17.09 51.95L17.18 49.92C19 49.89 20.68 49.31 22.09 48.35L23.34 49.91C23.96 50.68 25.14 51.04 25.14 51.04C26.88 49.63 28.25 47.78 29.08 45.65C29.08 45.65 28.39 44.68 27.47 44.31L25.59 43.56C25.84 42.74 25.97 41.86 25.97 40.96C25.97 40.09 25.85 39.25 25.62 38.45L27.48 37.75C28.42 37.4 29.13 36.37 29.13 36.37C28.32 34.22 26.95 32.34 25.19 30.91C25.19 30.91 24.03 31.27 23.4 32.05L22.15 33.61C20.74 32.63 19.03 32.03 17.18 32L17.09 29.97C17.05 28.97 16.31 28 16.31 28H16.3z
           M20 41C20 42.64 18.65 44 17 44C15.34 44 14 42.65 14 41C14 39.34 15.33 38 17 38C18.64 38 20 39.33 20 41z"
  />
 </g>
</svg>
