<?xml version="1.0" encoding="UTF-8" standalone="yes"?>
<svg version="1.1" width="64" height="64" color-interpolation="linearRGB"
     xmlns:svg="http://www.w3.org/2000/svg" xmlns="http://www.w3.org/2000/svg">
 <g>
  <path style="fill:none; stroke:#000000; stroke-opacity:0.4823; stroke-width:4; stroke-linecap:round; stroke-linejoin:round"
        d="M0.98 28.51C-0.3 21.27 -0.48 12.7 4.74 6.9C3.05 15.12 3.79 23.82 6.84 31.64C9.49 39.24 14.33 46.44 21.69 50.07C32 55.86 44.29 55.45 55.68 54.22C51.07 57.83 45.06 58.46 39.46 58.88C30.11 58.92 20.28 57.09 12.8 51.17C6.08 45.5 2.69 36.94 0.98 28.51z
           M15.95 9.87C17.98 10.48 20 11.04 22.02 11.61C24.21 14.54 26.32 17.5 28.45 20.46C27.27 20.28 26.11 20.11 24.96 19.96C25.33 20.72 25.7 21.48 26.07 22.24C24.94 22.82 23.81 23.41 22.65 24C24.28 24.56 25.9 25.11 27.51 25.66C26.41 26.45 25.32 27.22 24.21 28C24.12 28.7 24.04 29.38 23.99 30.08C25.34 30.28 26.69 30.5 28.03 30.7C27.64 31.72 27.24 32.75 26.86 33.77C28.82 35.22 31.19 35.76 33.57 35.75C34.08 34.77 34.6 33.79 35.12 32.81C35.66 34.32 36.19 35.81 36.74 37.31C37.74 35.99 38.75 34.65 39.77 33.32C41.15 33.5 42.51 33.62 43.91 33.67C43.85 33.03 43.75 31.77 43.71 31.14C46.6 32.34 49.5 33.55 52.29 35.01C52.53 36.7 52.8 38.35 53.06 40.02C51.88 38.75 50.68 37.5 49.47 36.24C49.59 38.59 49.77 40.96 50 43.3C48.91 41.3 47.78 39.31 46.59 37.35C44.88 39.65 45.98 42.64 46.07 45.24C44.78 43.74 43.47 42.28 42.07 40.86C41.36 43.24 41.66 45.73 41.92 48.14C40.54 46.43 39.12 44.76 37.6 43.18C37.06 46.23 36.51 49.77 39.09 52.07C38.22 51.99 37.34 51.88 36.47 51.74C36.27 48.93 35.68 46.14 34.49 43.55C32.95 45.84 32.23 48.5 32.99 51.21C32.26 51.06 31.54 50.93 30.85 50.75C31.04 48.28 32.23 45.18 30.62 43.05C27.12 41.43 25.35 45.68 24.14 48.16C23.95 48.04 23.51 47.82 23.31 47.72C24.06 45.64 24.78 43.54 25.49 41.46C23.22 42 20.97 42.57 18.71 43.17C20.1 41.77 21.48 40.35 22.81 38.92C20.29 37.81 17.52 38.04 14.87 38.14C16.32 37.18 17.74 36.19 19.14 35.18C16.66 33.78 13.86 34.29 11.18 34.66C11.06 34.46 10.87 34.03 10.75 33.83C13.18 33.13 15.55 32.3 17.87 31.35C15.5 30.71 13.15 30.04 10.79 29.37C13.24 29.14 15.68 28.56 17.27 26.5C14.7 23.83 10.86 23.9 7.44 23.42L7.31 22.87C10.69 22.87 14.24 23.28 17.42 21.83C14.74 19.44 11.05 19.5 7.71 19.01C11.45 18.98 15.18 18.9 18.89 18.37C16.64 16.37 13.97 14.98 11.72 13C14.61 14.11 17.52 15.19 20.62 15.67C19.72 13.25 18.03 11.32 15.95 9.87z
           M24.96 19.96C26.11 20.11 27.27 20.28 28.45 20.46C30.32 22.88 31.9 25.77 34.76 27.15C37.66 28.65 40.7 29.88 43.71 31.14C43.75 31.77 43.85 33.03 43.91 33.67C42.51 33.62 41.15 33.5 39.77 33.32C38.75 34.65 37.74 35.99 36.74 37.31C36.19 35.81 35.66 34.32 35.12 32.81C34.6 33.79 34.08 34.77 33.57 35.75C31.19 35.76 28.82 35.22 26.86 33.77C27.24 32.75 27.64 31.72 28.03 30.7C26.69 30.5 25.34 30.28 23.99 30.08C24.04 29.38 24.12 28.7 24.21 28C25.32 27.22 26.41 26.45 27.51 25.66C25.9 25.11 24.28 24.56 22.65 24C23.81 23.41 24.94 22.82 26.07 22.24C25.7 21.48 25.33 20.72 24.96 19.96z
           M52.29 35.01C56.5 37.24 61.05 39.74 63 44.35V45.96C62.71 46.48 62.13 47.5 61.83 48.03C55.08 52.3 46.78 52.14 39.09 52.07C36.51 49.77 37.06 46.23 37.6 43.18C39.12 44.76 40.54 46.43 41.92 48.14C41.66 45.73 41.36 43.24 42.07 40.86C43.47 42.28 44.78 43.74 46.07 45.24C45.98 42.64 44.88 39.65 46.59 37.35C47.78 39.31 48.91 41.3 50 43.3C49.77 40.96 49.59 38.59 49.47 36.24C50.68 37.5 51.88 38.75 53.06 40.02C52.8 38.35 52.53 36.7 52.29 35.01z
           M9.3 3.32C14.93 2.11 18.94 7.74 22.02 11.61C20 11.04 17.98 10.48 15.95 9.87C18.03 11.32 19.72 13.25 20.62 15.67C17.52 15.19 14.61 14.11 11.72 13C13.97 14.98 16.64 16.37 18.89 18.37C15.18 18.9 11.45 18.98 7.71 19.01C11.05 19.5 14.74 19.44 17.42 21.83C14.24 23.28 10.69 22.87 7.31 22.87C6.17 16.33 6.58 9.47 9.3 3.32z
           M4.74 6.9C6.01 5.41 7.67 4.34 9.3 3.32C6.58 9.47 6.17 16.33 7.31 22.87L7.44 23.42C8.25 26.98 9.39 30.46 10.75 33.83C10.87 34.03 11.06 34.46 11.18 34.66C13.78 40.1 17.81 45.02 23.31 47.72C23.51 47.82 23.95 48.04 24.14 48.16C26.29 49.24 28.52 50.1 30.85 50.75C31.54 50.93 32.26 51.06 32.99 51.21C33.85 51.34 35.58 51.6 36.47 51.74C37.34 51.88 38.22 51.99 39.09 52.07C46.78 52.14 55.08 52.3 61.83 48.03C60.1 50.4 58.01 52.48 55.68 54.22C44.29 55.45 32 55.86 21.69 50.07C14.33 46.44 9.49 39.24 6.84 31.64C3.79 23.82 3.05 15.12 4.74 6.9z"
        transform="matrix(0.8819,0,0,0.9013,5.8106,7.9755)"
  />
  <path style="fill:none; stroke:#000000; stroke-width:3; stroke-linecap:round; stroke-linejoin:round"
        d="M0.98 28.51C-0.3 21.27 -0.48 12.7 4.74 6.9C3.05 15.12 3.79 23.82 6.84 31.64C9.49 39.24 14.33 46.44 21.69 50.07C32 55.86 44.29 55.45 55.68 54.22C51.07 57.83 45.06 58.46 39.46 58.88C30.11 58.92 20.28 57.09 12.8 51.17C6.08 45.5 2.69 36.94 0.98 28.51z
           M15.95 9.87C17.98 10.48 20 11.04 22.02 11.61C24.21 14.54 26.32 17.5 28.45 20.46C27.27 20.28 26.11 20.11 24.96 19.96C25.33 20.72 25.7 21.48 26.07 22.24C24.94 22.82 23.81 23.41 22.65 24C24.28 24.56 25.9 25.11 27.51 25.66C26.41 26.45 25.32 27.22 24.21 28C24.12 28.7 24.04 29.38 23.99 30.08C25.34 30.28 26.69 30.5 28.03 30.7C27.64 31.72 27.24 32.75 26.86 33.77C28.82 35.22 31.19 35.76 33.57 35.75C34.08 34.77 34.6 33.79 35.12 32.81C35.66 34.32 36.19 35.81 36.74 37.31C37.74 35.99 38.75 34.65 39.77 33.32C41.15 33.5 42.51 33.62 43.91 33.67C43.85 33.03 43.75 31.77 43.71 31.14C46.6 32.34 49.5 33.55 52.29 35.01C52.53 36.7 52.8 38.35 53.06 40.02C51.88 38.75 50.68 37.5 49.47 36.24C49.59 38.59 49.77 40.96 50 43.3C48.91 41.3 47.78 39.31 46.59 37.35C44.88 39.65 45.98 42.64 46.07 45.24C44.78 43.74 43.47 42.28 42.07 40.86C41.36 43.24 41.66 45.73 41.92 48.14C40.54 46.43 39.12 44.76 37.6 43.18C37.06 46.23 36.51 49.77 39.09 52.07C38.22 51.99 37.34 51.88 36.47 51.74C36.27 48.93 35.68 46.14 34.49 43.55C32.95 45.84 32.23 48.5 32.99 51.21C32.26 51.06 31.54 50.93 30.85 50.75C31.04 48.28 32.23 45.18 30.62 43.05C27.12 41.43 25.35 45.68 24.14 48.16C23.95 48.04 23.51 47.82 23.31 47.72C24.06 45.64 24.78 43.54 25.49 41.46C23.22 42 20.97 42.57 18.71 43.17C20.1 41.77 21.48 40.35 22.81 38.92C20.29 37.81 17.52 38.04 14.87 38.14C16.32 37.18 17.74 36.19 19.14 35.18C16.66 33.78 13.86 34.29 11.18 34.66C11.06 34.46 10.87 34.03 10.75 33.83C13.18 33.13 15.55 32.3 17.87 31.35C15.5 30.71 13.15 30.04 10.79 29.37C13.24 29.14 15.68 28.56 17.27 26.5C14.7 23.83 10.86 23.9 7.44 23.42L7.31 22.87C10.69 22.87 14.24 23.28 17.42 21.83C14.74 19.44 11.05 19.5 7.71 19.01C11.45 18.98 15.18 18.9 18.89 18.37C16.64 16.37 13.97 14.98 11.72 13C14.61 14.11 17.52 15.19 20.62 15.67C19.72 13.25 18.03 11.32 15.95 9.87z
           M24.96 19.96C26.11 20.11 27.27 20.28 28.45 20.46C30.32 22.88 31.9 25.77 34.76 27.15C37.66 28.65 40.7 29.88 43.71 31.14C43.75 31.77 43.85 33.03 43.91 33.67C42.51 33.62 41.15 33.5 39.77 33.32C38.75 34.65 37.74 35.99 36.74 37.31C36.19 35.81 35.66 34.32 35.12 32.81C34.6 33.79 34.08 34.77 33.57 35.75C31.19 35.76 28.82 35.22 26.86 33.77C27.24 32.75 27.64 31.72 28.03 30.7C26.69 30.5 25.34 30.28 23.99 30.08C24.04 29.38 24.12 28.7 24.21 28C25.32 27.22 26.41 26.45 27.51 25.66C25.9 25.11 24.28 24.56 22.65 24C23.81 23.41 24.94 22.82 26.07 22.24C25.7 21.48 25.33 20.72 24.96 19.96z
           M52.29 35.01C56.5 37.24 61.05 39.74 63 44.35V45.96C62.71 46.48 62.13 47.5 61.83 48.03C55.08 52.3 46.78 52.14 39.09 52.07C36.51 49.77 37.06 46.23 37.6 43.18C39.12 44.76 40.54 46.43 41.92 48.14C41.66 45.73 41.36 43.24 42.07 40.86C43.47 42.28 44.78 43.74 46.07 45.24C45.98 42.64 44.88 39.65 46.59 37.35C47.78 39.31 48.91 41.3 50 43.3C49.77 40.96 49.59 38.59 49.47 36.24C50.68 37.5 51.88 38.75 53.06 40.02C52.8 38.35 52.53 36.7 52.29 35.01z
           M9.3 3.32C14.93 2.11 18.94 7.74 22.02 11.61C20 11.04 17.98 10.48 15.95 9.87C18.03 11.32 19.72 13.25 20.62 15.67C17.52 15.19 14.61 14.11 11.72 13C13.97 14.98 16.64 16.37 18.89 18.37C15.18 18.9 11.45 18.98 7.71 19.01C11.05 19.5 14.74 19.44 17.42 21.83C14.24 23.28 10.69 22.87 7.31 22.87C6.17 16.33 6.58 9.47 9.3 3.32z
           M4.74 6.9C6.01 5.41 7.67 4.34 9.3 3.32C6.58 9.47 6.17 16.33 7.31 22.87L7.44 23.42C8.25 26.98 9.39 30.46 10.75 33.83C10.87 34.03 11.06 34.46 11.18 34.66C13.78 40.1 17.81 45.02 23.31 47.72C23.51 47.82 23.95 48.04 24.14 48.16C26.29 49.24 28.52 50.1 30.85 50.75C31.54 50.93 32.26 51.06 32.99 51.21C33.85 51.34 35.58 51.6 36.47 51.74C37.34 51.88 38.22 51.99 39.09 52.07C46.78 52.14 55.08 52.3 61.83 48.03C60.1 50.4 58.01 52.48 55.68 54.22C44.29 55.45 32 55.86 21.69 50.07C14.33 46.44 9.49 39.24 6.84 31.64C3.79 23.82 3.05 15.12 4.74 6.9z"
        transform="matrix(0.9119,0,0,0.9515,2.8954,0.9832)"
  />
  <path style="fill:#fd9247"
        d="M9.3 3.32C14.93 2.11 18.94 7.74 22.02 11.61C20 11.04 17.98 10.48 15.95 9.87C18.03 11.32 19.72 13.25 20.62 15.67C17.52 15.19 14.61 14.11 11.72 13C13.97 14.98 16.64 16.37 18.89 18.37C15.18 18.9 11.45 18.98 7.71 19.01C11.05 19.5 14.74 19.44 17.42 21.83C14.24 23.28 10.69 22.87 7.31 22.87C6.17 16.33 6.58 9.47 9.3 3.32z"
        transform="matrix(0.8828,0,0,0.9182,3.7694,1.9905)"
  />
  <path style="fill:#fed9bd"
        d="M4.74 6.9C6.01 5.41 7.67 4.34 9.3 3.32C6.58 9.47 6.17 16.33 7.31 22.87L7.44 23.42C8.25 26.98 9.39 30.46 10.75 33.83C10.87 34.03 11.06 34.46 11.18 34.66C13.78 40.1 17.81 45.02 23.31 47.72C23.51 47.82 23.95 48.04 24.14 48.16C26.29 49.24 28.52 50.1 30.85 50.75C31.54 50.93 32.26 51.06 32.99 51.21C33.85 51.34 35.58 51.6 36.47 51.74C37.34 51.88 38.22 51.99 39.09 52.07C46.78 52.14 55.08 52.3 61.83 48.03C60.1 50.4 58.01 52.48 55.68 54.22C44.29 55.45 32 55.86 21.69 50.07C14.33 46.44 9.49 39.24 6.84 31.64C3.79 23.82 3.05 15.12 4.74 6.9z"
        transform="matrix(0.8828,0,0,0.9182,3.7694,1.9905)"
  />
  <path style="fill:#fda864"
        d="M0.98 28.51C-0.3 21.27 -0.48 12.7 4.74 6.9C3.05 15.12 3.79 23.82 6.84 31.64C9.49 39.24 14.33 46.44 21.69 50.07C32 55.86 44.29 55.45 55.68 54.22C51.07 57.83 45.06 58.46 39.46 58.88C30.11 58.92 20.28 57.09 12.8 51.17C6.08 45.5 2.69 36.94 0.98 28.51z"
        transform="matrix(0.8828,0,0,0.9182,3.7694,1.9905)"
  />
  <path style="fill:#fda86d"
        d="M15.95 9.87C17.98 10.48 20 11.04 22.02 11.61C24.21 14.54 26.32 17.5 28.45 20.46C27.27 20.28 26.11 20.11 24.96 19.96C25.33 20.72 25.7 21.48 26.07 22.24C24.94 22.82 23.81 23.41 22.65 24C24.28 24.56 25.9 25.11 27.51 25.66C26.41 26.45 25.32 27.22 24.21 28C24.12 28.7 24.04 29.38 23.99 30.08C25.34 30.28 26.69 30.5 28.03 30.7C27.64 31.72 27.24 32.75 26.86 33.77C28.82 35.22 31.19 35.76 33.57 35.75C34.08 34.77 34.6 33.79 35.12 32.81C35.66 34.32 36.19 35.81 36.74 37.31C37.74 35.99 38.75 34.65 39.77 33.32C41.15 33.5 42.51 33.62 43.91 33.67C43.85 33.03 43.75 31.77 43.71 31.14C46.6 32.34 49.5 33.55 52.29 35.01C52.53 36.7 52.8 38.35 53.06 40.02C51.88 38.75 50.68 37.5 49.47 36.24C49.59 38.59 49.77 40.96 50 43.3C48.91 41.3 47.78 39.31 46.59 37.35C44.88 39.65 45.98 42.64 46.07 45.24C44.78 43.74 43.47 42.28 42.07 40.86C41.36 43.24 41.66 45.73 41.92 48.14C40.54 46.43 39.12 44.76 37.6 43.18C37.06 46.23 36.51 49.77 39.09 52.07C38.22 51.99 37.34 51.88 36.47 51.74C36.27 48.93 35.68 46.14 34.49 43.55C32.95 45.84 32.23 48.5 32.99 51.21C32.26 51.06 31.54 50.93 30.85 50.75C31.04 48.28 32.23 45.18 30.62 43.05C27.12 41.43 25.35 45.68 24.14 48.16C23.95 48.04 23.51 47.82 23.31 47.72C24.06 45.64 24.78 43.54 25.49 41.46C23.22 42 20.97 42.57 18.71 43.17C20.1 41.77 21.48 40.35 22.81 38.92C20.29 37.81 17.52 38.04 14.87 38.14C16.32 37.18 17.74 36.19 19.14 35.18C16.66 33.78 13.86 34.29 11.18 34.66C11.06 34.46 10.87 34.03 10.75 33.83C13.18 33.13 15.55 32.3 17.87 31.35C15.5 30.71 13.15 30.04 10.79 29.37C13.24 29.14 15.68 28.56 17.27 26.5C14.7 23.83 10.86 23.9 7.44 23.42L7.31 22.87C10.69 22.87 14.24 23.28 17.42 21.83C14.74 19.44 11.05 19.5 7.71 19.01C11.45 18.98 15.18 18.9 18.89 18.37C16.64 16.37 13.97 14.98 11.72 13C14.61 14.11 17.52 15.19 20.62 15.67C19.72 13.25 18.03 11.32 15.95 9.87z"
        transform="matrix(0.8828,0,0,0.9182,3.7694,1.9905)"
  />
  <path style="fill:#febd8f"
        d="M24.96 19.96C26.11 20.11 27.27 20.28 28.45 20.46C30.32 22.88 31.9 25.77 34.76 27.15C37.66 28.65 40.7 29.88 43.71 31.14C43.75 31.77 43.85 33.03 43.91 33.67C42.51 33.62 41.15 33.5 39.77 33.32C38.75 34.65 37.74 35.99 36.74 37.31C36.19 35.81 35.66 34.32 35.12 32.81C34.6 33.79 34.08 34.77 33.57 35.75C31.19 35.76 28.82 35.22 26.86 33.77C27.24 32.75 27.64 31.72 28.03 30.7C26.69 30.5 25.34 30.28 23.99 30.08C24.04 29.38 24.12 28.7 24.21 28C25.32 27.22 26.41 26.45 27.51 25.66C25.9 25.11 24.28 24.56 22.65 24C23.81 23.41 24.94 22.82 26.07 22.24C25.7 21.48 25.33 20.72 24.96 19.96z"
        transform="matrix(0.8828,0,0,0.9182,3.7694,1.9905)"
  />
  <path style="fill:#fd9248"
        d="M7.44 23.42C10.86 23.9 14.7 23.83 17.27 26.5C15.68 28.56 13.24 29.14 10.79 29.37C13.15 30.04 15.5 30.71 17.87 31.35C15.55 32.3 13.18 33.13 10.75 33.83C9.39 30.46 8.25 26.98 7.44 23.42z"
        transform="matrix(0.8828,0,0,0.9182,3.7694,1.9905)"
  />
  <path style="fill:#fd944a"
        d="M11.18 34.66C13.86 34.29 16.66 33.78 19.14 35.18C17.74 36.19 16.32 37.18 14.87 38.14C17.52 38.04 20.29 37.81 22.81 38.92C21.48 40.35 20.1 41.77 18.71 43.17C20.97 42.57 23.22 42 25.49 41.46C24.78 43.54 24.06 45.64 23.31 47.72C17.81 45.02 13.78 40.1 11.18 34.66z"
        transform="matrix(0.8828,0,0,0.9182,3.7694,1.9905)"
  />
  <path style="fill:#fd9349"
        d="M52.29 35.01C56.5 37.24 61.05 39.74 63 44.35V45.96C62.71 46.48 62.13 47.5 61.83 48.03C55.08 52.3 46.78 52.14 39.09 52.07C36.51 49.77 37.06 46.23 37.6 43.18C39.12 44.76 40.54 46.43 41.92 48.14C41.66 45.73 41.36 43.24 42.07 40.86C43.47 42.28 44.78 43.74 46.07 45.24C45.98 42.64 44.88 39.65 46.59 37.35C47.78 39.31 48.91 41.3 50 43.3C49.77 40.96 49.59 38.59 49.47 36.24C50.68 37.5 51.88 38.75 53.06 40.02C52.8 38.35 52.53 36.7 52.29 35.01z"
        transform="matrix(0.8828,0,0,0.9182,3.7694,1.9905)"
  />
  <path style="fill:#fd944c"
        d="M24.14 48.16C25.35 45.68 27.12 41.43 30.62 43.05C32.23 45.18 31.04 48.28 30.85 50.75C28.52 50.1 26.29 49.24 24.14 48.16z"
        transform="matrix(0.8828,0,0,0.9182,3.7694,1.9905)"
  />
  <path style="fill:#fd954d"
        d="M32.99 51.21C32.23 48.5 32.95 45.84 34.49 43.55C35.68 46.14 36.27 48.93 36.47 51.74C35.58 51.6 33.85 51.34 32.99 51.21z"
        transform="matrix(0.8828,0,0,0.9182,3.7694,1.9905)"
  />
 </g>
</svg>
