<?xml version="1.0" encoding="UTF-8" standalone="yes"?>
<svg version="1.1" width="64" height="64" color-interpolation="linearRGB"
     xmlns:svg="http://www.w3.org/2000/svg" xmlns="http://www.w3.org/2000/svg">
 <g>
  <path style="fill:none; stroke:#000000; stroke-opacity:0.1921; stroke-width:0"
        d="M73.12 16.19C73.12 17.05 71.24 17.75 68.92 17.75C66.59 17.75 64.71 17.05 64.71 16.19C64.71 15.34 66.59 14.63 68.92 14.63C71.24 14.63 73.12 15.34 73.12 16.19z"
        transform="matrix(6.2389,0,0,6.2389,-394.041,-52.4636)"
  />
  <path style="fill:#ffffff"
        d="M71.66 13.74C71.66 14.75 70.76 15.55 69.63 15.55C68.51 15.55 67.61 14.75 67.61 13.74C67.61 12.74 68.51 11.94 69.63 11.94C70.76 11.94 71.66 12.74 71.66 13.74z"
        transform="matrix(7.9773,0,0,8.1818,-515.1132,-79.1875)"
  />
  <path style="fill:#000000; fill-opacity:0.1921"
        d="M73.12 16.19C73.12 17.05 71.24 17.75 68.92 17.75C66.59 17.75 64.71 17.05 64.71 16.19C64.71 15.34 66.59 14.63 68.92 14.63C71.24 14.63 73.12 15.34 73.12 16.19z"
        transform="matrix(6.2389,0,0,6.2389,-394.041,-52.4636)"
  />
  <path style="fill:#f57900"
        d="M66.34 14.3C66.34 14.42 66.38 14.66 66.44 14.85C66.56 15.24 66.78 15.61 67.06 15.94C67.37 16.26 67.74 16.53 68.16 16.72C68.61 16.92 69.1 17.02 69.6 17.02C70.11 17.01 70.59 16.92 71.04 16.71C71.47 16.52 71.84 16.26 72.14 15.93C72.44 15.6 72.64 15.23 72.77 14.84C72.83 14.64 72.87 14.44 72.89 14.23C72.9 14.03 72.9 13.83 72.87 13.63C72.81 13.24 72.67 12.87 72.47 12.53C72.27 12.23 72.02 11.96 71.74 11.73L68.79 9.47C68.78 9.47 68.78 9.46 68.78 9.46C68.58 9.31 68.26 9.31 68.04 9.46C67.83 9.61 67.81 9.85 68 10C68.41 10.32 68.81 10.66 69.22 10.98H65.48C65.05 10.98 64.8 11.18 64.75 11.48C64.7 11.73 64.91 12.05 65.28 12.05C65.91 12.05 66.54 12.05 67.18 12.05L63.79 14.56C63.78 14.56 63.78 14.57 63.77 14.57C63.46 14.82 63.35 15.23 63.55 15.49C63.76 15.75 64.19 15.75 64.51 15.49L66.37 13.97C66.37 13.97 66.34 14.17 66.34 14.3V14.3z"
        transform="matrix(6.2389,0,0,6.2389,-394.041,-52.4636)"
  />
  <path style="fill:#ffffff"
        d="M71.66 13.74C71.66 14.75 70.76 15.55 69.63 15.55C68.51 15.55 67.61 14.75 67.61 13.74C67.61 12.74 68.51 11.94 69.63 11.94C70.76 11.94 71.66 12.74 71.66 13.74z"
        transform="matrix(6.2389,0,0,6.2389,-394.041,-52.4636)"
  />
  <path style="fill:none; stroke:#ce5c00; stroke-width:0; stroke-linecap:round; stroke-linejoin:round"
        d="M66.34 14.3C66.34 14.42 66.38 14.66 66.44 14.85C66.56 15.24 66.78 15.61 67.06 15.94C67.37 16.26 67.74 16.53 68.16 16.72C68.61 16.92 69.1 17.02 69.6 17.02C70.11 17.01 70.59 16.92 71.04 16.71C71.47 16.52 71.84 16.26 72.14 15.93C72.44 15.6 72.64 15.23 72.77 14.84C72.83 14.64 72.87 14.44 72.89 14.23C72.9 14.03 72.9 13.83 72.87 13.63C72.81 13.24 72.67 12.87 72.47 12.53C72.27 12.23 72.02 11.96 71.74 11.73L68.79 9.47C68.78 9.47 68.78 9.46 68.78 9.46C68.58 9.31 68.26 9.31 68.04 9.46C67.83 9.61 67.81 9.85 68 10C68.41 10.32 68.81 10.66 69.22 10.98H65.48C65.05 10.98 64.8 11.18 64.75 11.48C64.7 11.73 64.91 12.05 65.28 12.05C65.91 12.05 66.54 12.05 67.18 12.05L63.79 14.56C63.78 14.56 63.78 14.57 63.77 14.57C63.46 14.82 63.35 15.23 63.55 15.49C63.76 15.75 64.19 15.75 64.51 15.49L66.37 13.97C66.37 13.97 66.34 14.17 66.34 14.3V14.3z"
        transform="matrix(6.2389,0,0,6.2389,-394.041,-52.4636)"
  />
  <path style="fill:none; stroke:#ffffff; stroke-width:0"
        d="M71.66 13.74C71.66 14.75 70.76 15.55 69.63 15.55C68.51 15.55 67.61 14.75 67.61 13.74C67.61 12.74 68.51 11.94 69.63 11.94C70.76 11.94 71.66 12.74 71.66 13.74z"
        transform="matrix(6.2389,0,0,6.2389,-394.041,-52.4636)"
  />
  <linearGradient id="gradient0" gradientUnits="userSpaceOnUse" x1="70.43" y1="16.89" x2="69.27" y2="12.12">
  </linearGradient>
  <path style="fill:none; stroke:url(#gradient0); stroke-width:0"
        d="M71.66 13.74C71.66 14.75 70.76 15.55 69.63 15.55C68.51 15.55 67.61 14.75 67.61 13.74C67.61 12.74 68.51 11.94 69.63 11.94C70.76 11.94 71.66 12.74 71.66 13.74z"
        transform="matrix(6.2389,0,0,6.2389,-394.041,-52.4636)"
  />
  <path style="fill:#0d528b"
        d="M68.39 13.66C68.41 13.35 68.55 13.07 68.78 12.89C69 12.69 69.31 12.57 69.63 12.57C69.97 12.57 70.26 12.69 70.49 12.89C70.71 13.07 70.87 13.35 70.88 13.66C70.9 13.98 70.77 14.27 70.54 14.49C70.32 14.71 70 14.85 69.63 14.85C69.27 14.85 68.95 14.71 68.72 14.49C68.5 14.27 68.37 13.98 68.39 13.66z"
        transform="matrix(6.2389,0,0,6.2389,-394.041,-52.4636)"
  />
 </g>
</svg>
