<?xml version="1.0" encoding="UTF-8" standalone="yes"?>
<svg version="1.1" width="64" height="64" color-interpolation="linearRGB"
     xmlns:svg="http://www.w3.org/2000/svg" xmlns="http://www.w3.org/2000/svg">
 <g>
  <path style="fill:none; stroke:#010101; stroke-opacity:0.396; stroke-width:4; stroke-linecap:round; stroke-linejoin:round"
        d="M28 20C28 20 34 16 34 11C34 10.3 34.44 7.16 33 5C32.42 4.14 37.12 3 36 3C33 3 35.13 1 35 1C31 1 30.7 2.7 30 2C29 1 25.34 0.95 25 1C18 2 19 7 19 7C19 7 19.37 6.62 20 6C21 5 23 5 23 5C23 5 22.5 6.49 22 7C21 8 21 8 21 8C21 8 23.75 7.75 25 8C26.25 8.25 26 9 26 9C26 9 25.38 11.41 23 13C20.9 14.39 17 15 17 15C17 15 17 10 13 13C9 16 13 18 13 18C13 18 13 20.54 13 22C13 23.54 13 24 13 24C13 24 10.19 23.95 11 28C12 33 15 31 15 31C15 31 21.89 35.29 27 37C33 39 30 44 30 44C30 44 29.15 47.79 30 50C30.32 50.83 30.19 52.38 30 52C29.91 51.83 30.99 53 32 50C32.33 49 35 51 35 52C35 53 35 57 35 57C35 57 31.79 55 30 55C29 55 28 57 28 57C28 57 29.21 56.73 30 57C30.71 57.23 31 58 31 58C31 58 29.77 58.22 29 59C28.27 59.72 28 61 28 61C28 61 29 60 30 60C30.49 60 31 60 31 60C31 60 30.23 60.29 30 61C29.73 61.79 30 63 30 63C30 63 30.73 62.45 32 62C32.3 61.89 35.77 60.25 38 60C39.42 59.83 40 61 40 61C40 61 41 60 40 58C39.55 57.11 38 57 38 57C38 57 37.82 54.47 38 54C38.17 53.51 38.37 52.62 39 52C40 51 42 52 42 52L40 50C40 50 42.37 50.12 42 49C41 46 36 46 36 46C36 46 34 46 37 43C38.49 41.5 38 37 38 37C38 37 40 38 42 44C42.67 46.03 46 50 50 49C54.33 47.91 53 45 50 42C49.26 41.26 51 40 51 40L49 37C49 37 48.78 35.09 49 34C49.27 32.62 51.65 29.02 52 30C52.36 31.02 50 35 53 36C54.51 36.5 55 33 55 33C55 33 53.68 35.08 53 34C52.12 32.62 56 27 51 28C49.61 28.27 49 31 48 33C47.36 34.26 46 32.99 46 33C44.6 33.27 44 32 44 32C44 32 44.74 33.21 45 35C45.25 36.79 45.03 39.15 46 41C47.3 43.49 50.52 44.22 51 46C51.49 47.87 48 47 48 47C48 47 44 47 43 42C42.56 39.82 41.33 35.83 39 34C37.49 32.81 37 33 35 32C32.21 30.6 31 28 31 28C31 28 34.23 29.52 38 29C40.6 28.63 43.29 26.23 46 26C50.41 25.61 54 26 54 26C54 26 52.76 24.75 51 24C49.26 23.25 47 23 47 23C47 23 49.33 21.66 51 20C52.82 18.17 54 16 54 16C54 16 52.39 16.4 51 17C49 17.85 47 19 47 19C47 19 49.19 17.32 51 15C52.68 12.82 54 10 54 10C54 10 52.95 9.77 51 11C48.95 12.27 46 15 46 15C46 15 49 12 49 6C49 1 46 1 46 1C46 1 47 6 45 11C43.82 13.93 42 15 42 15C42 15 42 13 42 10C42 8 41 5 41 5C41 5 39.25 7.39 39 11C38.75 14.38 39 18 39 18C39 18 38.09 16.82 37 16C36.12 15.34 35 15 35 15C35 15 36 16.94 36 18C36 18.93 35 19 35 19L33 17C33 17 34.19 22 33 22C32 22 28 20 28 20z
           M28 34C28 34 26 36 19 37C15.64 37.47 13 40 13 40C13 40 12 41 16 42C18.01 42.5 19 45 19 45C19 45 17.45 45.54 16 47C15.09 47.9 14 50 14 51C14 51.72 13 51 13 51C13 51 13.36 48.36 12 47C10.88 45.88 8 46 8 46C8 46 10 47.04 10 48C10 49 10 49 10 49C10 49 8.69 48 8 48C6.82 48 6 49 6 49C6 49 7.16 49.16 8 50C8.63 50.63 8 51 8 51C8 51 6.64 50.83 6 51C4.81 51.29 5 52 5 52C5 52 7 52 8 53C9.58 54.58 11.29 53.53 12 54C13.61 55.07 14 58 14 58C14 58 14.59 55.1 16 53C17.58 50.61 20 49 20 49C20 49 20.45 48.45 21 49C21.84 49.84 22 51 22 51V48C22 48 22.21 47.36 23 48C23.71 48.58 25 50.47 25 50C25 49.5 25.75 47.51 25 46C24 44 23 43 23 43C23 43 24.31 42 26 42C28 42 32 43 32 43C32 43 32 41 31 39C29.58 36.17 28 34 28 34z
           M14 12C14 12 12.58 11.17 12 10C11.64 9.29 12 8 12 8C12 8 13 6.4 13 5C13 2 11 2 11 2C11 2 12 1.76 12 4C12 6 11 6 11 6C11 6 10.09 4.09 9 3C8.11 2.11 7 2 7 2C7 2 8.65 3.95 9 5C10 8 8 6 8 6C8 6 8.2 5.48 7 5C5.7 4.48 3 4 3 4C3 4 5 5 6 7C6.39 7.78 7.47 8.47 8 9C10 11 8.29 12.7 8 13C7 14 6 13 6 13C6 13 7.1 15.89 8 15C9.07 13.92 9.5 12.49 10 12C10.42 11.57 11 12 11 12L13 13L14 12z
           M11 27H9C9 27 9.73 24.71 9 23C8.23 21.21 6 20 6 20C6 20 7.77 22.4 8 24C8.26 25.88 7 27 7 27C7 27 6.2 24.2 5 23C3.7 21.7 2 23 2 23C2 23 4.18 23.64 5 25C5.67 26.11 5 27 5 27C5 27 3.11 26 2 26C0.63 26 0 27 0 27C0 27 5 28 6 32C6.41 33.64 5 35 5 35C5 35 7.23 35.27 8 34C8.73 32.77 8 30 8 30H12C12 30 12.27 28.83 12 28C11.78 27.36 11 27 11 27z"
        transform="matrix(0.66,0,0,0.3329,26.3479,42.3371)"
  />
  <path style="fill:none; stroke:#022150; stroke-width:4; stroke-linecap:round; stroke-linejoin:round"
        d="M28 20C28 20 34 16 34 11C34 10.3 34.44 7.16 33 5C32.42 4.14 37.12 3 36 3C33 3 35.13 1 35 1C31 1 30.7 2.7 30 2C29 1 25.34 0.95 25 1C18 2 19 7 19 7C19 7 19.37 6.62 20 6C21 5 23 5 23 5C23 5 22.5 6.49 22 7C21 8 21 8 21 8C21 8 23.75 7.75 25 8C26.25 8.25 26 9 26 9C26 9 25.38 11.41 23 13C20.9 14.39 17 15 17 15C17 15 17 10 13 13C9 16 13 18 13 18C13 18 13 20.54 13 22C13 23.54 13 24 13 24C13 24 10.19 23.95 11 28C12 33 15 31 15 31C15 31 21.89 35.29 27 37C33 39 30 44 30 44C30 44 29.15 47.79 30 50C30.32 50.83 30.19 52.38 30 52C29.91 51.83 30.99 53 32 50C32.33 49 35 51 35 52C35 53 35 57 35 57C35 57 31.79 55 30 55C29 55 28 57 28 57C28 57 29.21 56.73 30 57C30.71 57.23 31 58 31 58C31 58 29.77 58.22 29 59C28.27 59.72 28 61 28 61C28 61 29 60 30 60C30.49 60 31 60 31 60C31 60 30.23 60.29 30 61C29.73 61.79 30 63 30 63C30 63 30.73 62.45 32 62C32.3 61.89 35.77 60.25 38 60C39.42 59.83 40 61 40 61C40 61 41 60 40 58C39.55 57.11 38 57 38 57C38 57 37.82 54.47 38 54C38.17 53.51 38.37 52.62 39 52C40 51 42 52 42 52L40 50C40 50 42.37 50.12 42 49C41 46 36 46 36 46C36 46 34 46 37 43C38.49 41.5 38 37 38 37C38 37 40 38 42 44C42.67 46.03 46 50 50 49C54.33 47.91 53 45 50 42C49.26 41.26 51 40 51 40L49 37C49 37 48.78 35.09 49 34C49.27 32.62 51.65 29.02 52 30C52.36 31.02 50 35 53 36C54.51 36.5 55 33 55 33C55 33 53.68 35.08 53 34C52.12 32.62 56 27 51 28C49.61 28.27 49 31 48 33C47.36 34.26 46 32.99 46 33C44.6 33.27 44 32 44 32C44 32 44.74 33.21 45 35C45.25 36.79 45.03 39.15 46 41C47.3 43.49 50.52 44.22 51 46C51.49 47.87 48 47 48 47C48 47 44 47 43 42C42.56 39.82 41.33 35.83 39 34C37.49 32.81 37 33 35 32C32.21 30.6 31 28 31 28C31 28 34.23 29.52 38 29C40.6 28.63 43.29 26.23 46 26C50.41 25.61 54 26 54 26C54 26 52.76 24.75 51 24C49.26 23.25 47 23 47 23C47 23 49.33 21.66 51 20C52.82 18.17 54 16 54 16C54 16 52.39 16.4 51 17C49 17.85 47 19 47 19C47 19 49.19 17.32 51 15C52.68 12.82 54 10 54 10C54 10 52.95 9.77 51 11C48.95 12.27 46 15 46 15C46 15 49 12 49 6C49 1 46 1 46 1C46 1 47 6 45 11C43.82 13.93 42 15 42 15C42 15 42 13 42 10C42 8 41 5 41 5C41 5 39.25 7.39 39 11C38.75 14.38 39 18 39 18C39 18 38.09 16.82 37 16C36.12 15.34 35 15 35 15C35 15 36 16.94 36 18C36 18.93 35 19 35 19L33 17C33 17 34.19 22 33 22C32 22 28 20 28 20z
           M28 34C28 34 26 36 19 37C15.64 37.47 13 40 13 40C13 40 12 41 16 42C18.01 42.5 19 45 19 45C19 45 17.45 45.54 16 47C15.09 47.9 14 50 14 51C14 51.72 13 51 13 51C13 51 13.36 48.36 12 47C10.88 45.88 8 46 8 46C8 46 10 47.04 10 48C10 49 10 49 10 49C10 49 8.69 48 8 48C6.82 48 6 49 6 49C6 49 7.16 49.16 8 50C8.63 50.63 8 51 8 51C8 51 6.64 50.83 6 51C4.81 51.29 5 52 5 52C5 52 7 52 8 53C9.58 54.58 11.29 53.53 12 54C13.61 55.07 14 58 14 58C14 58 14.59 55.1 16 53C17.58 50.61 20 49 20 49C20 49 20.45 48.45 21 49C21.84 49.84 22 51 22 51V48C22 48 22.21 47.36 23 48C23.71 48.58 25 50.47 25 50C25 49.5 25.75 47.51 25 46C24 44 23 43 23 43C23 43 24.31 42 26 42C28 42 32 43 32 43C32 43 32 41 31 39C29.58 36.17 28 34 28 34z
           M14 12C14 12 12.58 11.17 12 10C11.64 9.29 12 8 12 8C12 8 13 6.4 13 5C13 2 11 2 11 2C11 2 12 1.76 12 4C12 6 11 6 11 6C11 6 10.09 4.09 9 3C8.11 2.11 7 2 7 2C7 2 8.65 3.95 9 5C10 8 8 6 8 6C8 6 8.2 5.48 7 5C5.7 4.48 3 4 3 4C3 4 5 5 6 7C6.39 7.78 7.47 8.47 8 9C10 11 8.29 12.7 8 13C7 14 6 13 6 13C6 13 7.1 15.89 8 15C9.07 13.92 9.5 12.49 10 12C10.42 11.57 11 12 11 12L13 13L14 12z
           M11 27H9C9 27 9.73 24.71 9 23C8.23 21.21 6 20 6 20C6 20 7.77 22.4 8 24C8.26 25.88 7 27 7 27C7 27 6.2 24.2 5 23C3.7 21.7 2 23 2 23C2 23 4.18 23.64 5 25C5.67 26.11 5 27 5 27C5 27 3.11 26 2 26C0.63 26 0 27 0 27C0 27 5 28 6 32C6.41 33.64 5 35 5 35C5 35 7.23 35.27 8 34C8.73 32.77 8 30 8 30H12C12 30 12.27 28.83 12 28C11.78 27.36 11 27 11 27z"
        transform="matrix(0.9482,0,0,0.9538,4.9226,1.9756)"
  />
  <radialGradient id="gradient0" gradientUnits="userSpaceOnUse" cx="0" cy="0" r="64" gradientTransform="matrix(0.7939,-0.0009,0.0009,0.8004,28.9615,19.755)">
   <stop offset="0" stop-color="#92b8eb"/>
   <stop offset="1" stop-color="#1e5aa0"/>
  </radialGradient>
  <path style="fill:url(#gradient0)"
        d="M28 20C28 20 34 16 34 11C34 10.3 34.44 7.16 33 5C32.42 4.14 37.12 3 36 3C33 3 35.13 1 35 1C31 1 30.7 2.7 30 2C29 1 25.34 0.95 25 1C18 2 19 7 19 7C19 7 19.37 6.62 20 6C21 5 23 5 23 5C23 5 22.5 6.49 22 7C21 8 21 8 21 8C21 8 23.75 7.75 25 8C26.25 8.25 26 9 26 9C26 9 25.38 11.41 23 13C20.9 14.39 17 15 17 15C17 15 17 10 13 13C9 16 13 18 13 18C13 18 13 20.54 13 22C13 23.54 13 24 13 24C13 24 10.19 23.95 11 28C12 33 15 31 15 31C15 31 21.89 35.29 27 37C33 39 30 44 30 44C30 44 29.15 47.79 30 50C30.32 50.83 30.19 52.38 30 52C29.91 51.83 30.99 53 32 50C32.33 49 35 51 35 52C35 53 35 57 35 57C35 57 31.79 55 30 55C29 55 28 57 28 57C28 57 29.21 56.73 30 57C30.71 57.23 31 58 31 58C31 58 29.77 58.22 29 59C28.27 59.72 28 61 28 61C28 61 29 60 30 60C30.49 60 31 60 31 60C31 60 30.23 60.29 30 61C29.73 61.79 30 63 30 63C30 63 30.73 62.45 32 62C32.3 61.89 35.77 60.25 38 60C39.42 59.83 40 61 40 61C40 61 41 60 40 58C39.55 57.11 38 57 38 57C38 57 37.82 54.47 38 54C38.17 53.51 38.37 52.62 39 52C40 51 42 52 42 52L40 50C40 50 42.37 50.12 42 49C41 46 36 46 36 46C36 46 34 46 37 43C38.49 41.5 38 37 38 37C38 37 40 38 42 44C42.67 46.03 46 50 50 49C54.33 47.91 53 45 50 42C49.26 41.26 51 40 51 40L49 37C49 37 48.78 35.09 49 34C49.27 32.62 51.65 29.02 52 30C52.36 31.02 50 35 53 36C54.51 36.5 55 33 55 33C55 33 53.68 35.08 53 34C52.12 32.62 56 27 51 28C49.61 28.27 49 31 48 33C47.36 34.26 46 32.99 46 33C44.6 33.27 44 32 44 32C44 32 44.74 33.21 45 35C45.25 36.79 45.03 39.15 46 41C47.3 43.49 50.52 44.22 51 46C51.49 47.87 48 47 48 47C48 47 44 47 43 42C42.56 39.82 41.33 35.83 39 34C37.49 32.81 37 33 35 32C32.21 30.6 31 28 31 28C31 28 34.23 29.52 38 29C40.6 28.63 43.29 26.23 46 26C50.41 25.61 54 26 54 26C54 26 52.76 24.75 51 24C49.26 23.25 47 23 47 23C47 23 49.33 21.66 51 20C52.82 18.17 54 16 54 16C54 16 52.39 16.4 51 17C49 17.85 47 19 47 19C47 19 49.19 17.32 51 15C52.68 12.82 54 10 54 10C54 10 52.95 9.77 51 11C48.95 12.27 46 15 46 15C46 15 49 12 49 6C49 1 46 1 46 1C46 1 47 6 45 11C43.82 13.93 42 15 42 15C42 15 42 13 42 10C42 8 41 5 41 5C41 5 39.25 7.39 39 11C38.75 14.38 39 18 39 18C39 18 38.09 16.82 37 16C36.12 15.34 35 15 35 15C35 15 36 16.94 36 18C36 18.93 35 19 35 19L33 17C33 17 34.19 22 33 22C32 22 28 20 28 20z
           M28 34C28 34 26 36 19 37C15.64 37.47 13 40 13 40C13 40 12 41 16 42C18.01 42.5 19 45 19 45C19 45 17.45 45.54 16 47C15.09 47.9 14 50 14 51C14 51.72 13 51 13 51C13 51 13.36 48.36 12 47C10.88 45.88 8 46 8 46C8 46 10 47.04 10 48C10 49 10 49 10 49C10 49 8.69 48 8 48C6.82 48 6 49 6 49C6 49 7.16 49.16 8 50C8.63 50.63 8 51 8 51C8 51 6.64 50.83 6 51C4.81 51.29 5 52 5 52C5 52 7 52 8 53C9.58 54.58 11.29 53.53 12 54C13.61 55.07 14 58 14 58C14 58 14.59 55.1 16 53C17.58 50.61 20 49 20 49C20 49 20.45 48.45 21 49C21.84 49.84 22 51 22 51V48C22 48 22.21 47.36 23 48C23.71 48.58 25 50.47 25 50C25 49.5 25.75 47.51 25 46C24 44 23 43 23 43C23 43 24.31 42 26 42C28 42 32 43 32 43C32 43 32 41 31 39C29.58 36.17 28 34 28 34z
           M14 12C14 12 12.58 11.17 12 10C11.64 9.29 12 8 12 8C12 8 13 6.4 13 5C13 2 11 2 11 2C11 2 12 1.76 12 4C12 6 11 6 11 6C11 6 10.09 4.09 9 3C8.11 2.11 7 2 7 2C7 2 8.65 3.95 9 5C10 8 8 6 8 6C8 6 8.2 5.48 7 5C5.7 4.48 3 4 3 4C3 4 5 5 6 7C6.39 7.78 7.47 8.47 8 9C10 11 8.29 12.7 8 13C7 14 6 13 6 13C6 13 7.1 15.89 8 15C9.07 13.92 9.5 12.49 10 12C10.42 11.57 11 12 11 12L13 13L14 12z
           M11 27H9C9 27 9.73 24.71 9 23C8.23 21.21 6 20 6 20C6 20 7.77 22.4 8 24C8.26 25.88 7 27 7 27C7 27 6.2 24.2 5 23C3.7 21.7 2 23 2 23C2 23 4.18 23.64 5 25C5.67 26.11 5 27 5 27C5 27 3.11 26 2 26C0.63 26 0 27 0 27C0 27 5 28 6 32C6.41 33.64 5 35 5 35C5 35 7.23 35.27 8 34C8.73 32.77 8 30 8 30H12C12 30 12.27 28.83 12 28C11.78 27.36 11 27 11 27z"
        transform="matrix(0.9482,0,0,0.9538,4.9226,1.9756)"
  />
 </g>
</svg>
