<?xml version="1.0" encoding="UTF-8" standalone="yes"?>
<svg version="1.1" width="64" height="64" color-interpolation="linearRGB"
     xmlns:svg="http://www.w3.org/2000/svg" xmlns="http://www.w3.org/2000/svg">
 <g>
  <path style="fill:#010101; fill-opacity:0.3647"
        d="M28 37C19.15 37 12 41 12 47C12 53 21 56 28 56C36 56 44 53 44 47C44 41 36.83 37 28 37z"
        transform="matrix(1.4906,0,0,0.9669,-2.3032,8.9343)"
  />
  <path style="fill:none; stroke:#000000; stroke-width:5"
        d="M28 37C19.15 37 12 41 12 47C12 53 21 56 28 56C36 56 44 53 44 47C44 41 36.83 37 28 37z"
        transform="matrix(0.9593,0,0,0.9669,1.0717,6.9343)"
  />
  <linearGradient id="gradient0" gradientUnits="userSpaceOnUse" x1="38.18" y1="13.27" x2="56.11" y2="29.45">
   <stop offset="0" stop-color="#ffbd60"/>
   <stop offset="0.6392" stop-color="#945b09"/>
   <stop offset="1" stop-color="#623a02"/>
  </linearGradient>
  <path style="fill:url(#gradient0)"
        d="M28 37C19.15 37 12 41 12 47C12 53 21 56 28 56C36 56 44 53 44 47C44 41 36.83 37 28 37z"
        transform="matrix(0.9593,0,0,0.9669,1.0717,6.9343)"
  />
  <path style="fill:none; stroke:#000000; stroke-width:4"
        d="M31.73 0C49.27 0 63.5 14.19 63.5 31.73C63.5 49.27 49.27 63.5 31.73 63.5C14.2 63.5 0 49.27 0 31.73C0 14.19 14.2 0 31.73 0V0z"
        transform="matrix(0.6269,0,0,0.6319,7.7465,6.802)"
  />
  <radialGradient id="gradient1" gradientUnits="userSpaceOnUse" cx="0" cy="0" r="64" gradientTransform="matrix(0,0.6247,-0.6247,0,17.7979,26.7905)">
   <stop offset="0" stop-color="#33ffff"/>
   <stop offset="0.3254" stop-color="#33ffff"/>
   <stop offset="0.8431" stop-color="#0066ff"/>
   <stop offset="1" stop-color="#0034cc"/>
  </radialGradient>
  <path style="fill:url(#gradient1)"
        d="M31.73 1.97C48.17 1.97 61.5 15.29 61.5 31.73C61.5 48.17 48.17 61.5 31.73 61.5C15.29 61.5 1.97 48.17 1.97 31.73C1.97 15.29 15.29 1.97 31.73 1.97V1.97z"
        transform="matrix(0.6269,0,0,0.6319,7.7465,6.802)"
  />
  <path style="fill:#010101; fill-opacity:0.3647"
        d="M31.73 1.97C15.32 1.97 1.97 15.32 1.97 31.73C1.97 35.19 2.56 38.51 3.65 41.6C3.81 41.78 3.95 41.95 4.05 42.14C4.23 42.48 4.29 42.92 4.32 43.34C8.86 54 19.44 61.5 31.73 61.5C36.34 61.5 40.69 60.45 44.59 58.57C44.32 57.26 42.88 56.81 41.6 56.93C41.76 56.97 41.92 57 42.07 57.03C41.58 56.93 41.03 56.92 40.54 57.05C40.01 57.19 39.62 57.54 39.05 57.63C37.66 57.85 36.2 57.51 34.81 57.38C33.48 57.26 32.02 57.21 30.76 57.73C30.31 57.92 29.86 58.41 29.39 58.4C29.21 58.4 29.04 58.4 28.88 58.4C27.36 58.4 25.84 58.4 24.32 58.4C24.08 58.4 23.81 58.13 23.59 58.02C23.3 57.89 23 57.78 22.68 57.7C22.4 57.63 22.1 57.59 21.82 57.57C21.69 57.44 21.57 57.29 21.46 57.16C20.96 56.6 20.18 56.45 19.5 56.21C18.56 55.9 17.62 55.5 16.67 55.25C15.97 54.31 15.57 53.14 14.53 52.48C14.41 52.4 14.27 52.33 14.13 52.28C13.92 52.19 14.03 52.17 14.03 51.98C14.03 51.61 13.92 51.31 13.78 51C13.5 50.34 13.42 49.61 13.43 48.91C13.45 47.86 13.64 46.83 13.5 45.78C13.46 45.48 13.76 45.27 13.95 45.04C14.14 44.78 14.33 44.51 14.48 44.22C14.83 43.56 14.98 42.83 15 42.08C15.03 41.11 14.87 40.13 14.95 39.17C15.01 38.45 15.73 37.84 16.09 37.25C16.71 36.24 17.25 34.78 16.38 33.76C16.1 33.43 15.73 33.25 15.37 33.05C14.83 32.76 14.29 32.47 13.75 32.17C12.84 31.68 11.93 31.18 11.01 30.68C10.87 30.6 10.71 30.54 10.56 30.48C10.5 30.45 10.42 30.41 10.35 30.38C10.34 30.09 10.33 29.81 10.29 29.52C10.11 28.39 9.44 27.7 8.56 27.02C8.07 26.65 7.76 26.02 7.38 25.55C6.96 25.05 6.48 24.58 5.91 24.26C5.69 24.14 5.47 24.03 5.23 23.97C5 23.89 4.64 23.92 4.52 23.7C6.89 22.46 7.23 19.48 8.51 17.41C8.82 16.92 9.26 16.62 9.62 16.19C9.81 15.96 9.95 15.69 10.02 15.4C10.06 15.24 10.09 15.08 10.1 14.92C10.11 14.65 9.95 14.54 10.22 14.43C11.5 13.9 12.72 13.2 13.91 12.48C14.95 11.85 16.04 11.25 17.03 10.54C18.17 9.74 18.73 8.51 19.15 7.23C19.22 7 19.16 6.89 19.44 6.9C19.61 6.91 19.79 6.91 19.97 6.89C20.29 6.87 20.61 6.81 20.93 6.72C21.21 6.63 21.5 6.52 21.76 6.4C22.05 6.56 22.37 6.69 22.69 6.76C23.24 6.89 23.83 6.95 24.39 6.89C24.74 6.86 25.08 6.77 25.41 6.63C25.74 6.5 26.07 6.08 26.43 6.04C26.19 6.72 26.25 7.45 26.54 8.1C26.68 8.42 26.87 8.72 27.09 8.98C27.37 9.27 27.77 9.4 28.02 9.68C26.85 10.09 26.04 11.05 26.12 12.36C26.16 12.95 26.37 13.5 26.64 14.02C26.74 14.21 26.76 14.44 26.82 14.64C26.9 14.93 26.48 15.27 26.29 15.5C25.55 16.33 24.5 16.53 23.68 17.28C23.2 17.73 22.89 18.3 22.69 18.93C22.63 19.11 22.58 19.31 22.53 19.5C22.32 19.78 22.14 20.09 22.02 20.43C21.83 21 21.84 21.59 22.07 22.13C22.2 22.43 22.27 22.48 22.12 22.75C21.98 23.02 21.83 23.3 21.71 23.59C21.17 24.92 21.3 26.21 22.22 27.32C23.1 28.4 24.3 29.4 25.5 30.11C26.58 30.77 27.88 30.93 29.12 30.76C29.91 30.65 30.64 30.4 31.39 30.16C31.93 30 32.46 29.77 33.01 29.73C33.54 29.69 34.03 30.1 34.42 30.42C34.6 30.57 34.72 30.57 34.63 30.82C34.57 30.98 34.52 31.14 34.5 31.31C34.41 31.63 34.4 31.96 34.43 32.29C34.5 32.98 34.76 33.61 35.06 34.22C35.32 34.74 35.59 35.24 35.86 35.75C36.11 36.22 36.34 36.71 36.61 37.17C36.68 37.28 36.75 37.39 36.82 37.5C36.75 37.6 36.69 37.72 36.64 37.83C36.51 38.09 36.41 38.36 36.31 38.62C36.05 39.3 35.91 40.01 35.88 40.74C35.85 41.85 36.19 42.85 36.92 43.68C37.16 43.96 37.52 44.16 37.53 44.54C37.57 45.21 37.47 45.86 37.57 46.52C37.78 47.85 38.64 49.83 40.15 50C41.89 50.2 43.87 49.78 45.2 48.62C45.96 47.97 46.46 47.06 47.24 46.46C47.64 46.14 48.04 45.88 48.38 45.5C48.6 45.23 48.78 44.95 48.93 44.63C49.1 44.23 49.13 43.79 49.31 43.4C49.47 44.11 49.96 44.69 50.65 44.92C51.4 45.17 52.09 44.94 52.71 44.5C53.65 43.8 54.14 42.77 54.66 41.76C55.24 40.63 55.92 39.5 55.5 38.16C54.98 36.67 53.31 35.93 51.97 36.86C51.97 36.22 51.94 35.57 51.96 34.94C52 34.3 52.12 34 52.55 33.54C53.08 32.98 53.66 32.48 54.23 31.95C55.28 30.98 55.74 29.84 55.66 28.4C55.6 27.24 55.82 26.12 54.91 25.19C55.68 24.68 56.23 23.9 56.52 23.02C56.77 23.55 57.05 24.06 57.47 24.5C57.66 24.7 57.57 25.16 57.61 25.46C57.67 25.84 57.77 26.22 57.9 26.58C58.27 27.68 58.95 28.62 59.08 29.79C59.18 30.66 59.14 31.55 59.17 32.44C59.19 32.98 59.25 33.52 59.17 34.06C59.09 34.61 58.77 35.12 58.61 35.65C58.21 36.92 58.08 38.26 58.05 39.58C58.04 40.3 57.92 40.98 58.28 41.63C58.53 42.08 58.96 42.42 59.45 42.58C60.77 39.21 61.5 35.56 61.5 31.73C61.5 15.32 48.14 1.97 31.73 1.97V1.97z"
        transform="matrix(0.6269,0,0,0.6319,7.7465,6.802)"
  />
  <radialGradient id="gradient2" gradientUnits="userSpaceOnUse" cx="0" cy="0" r="64" gradientTransform="matrix(0,-0.7355,-0.7355,0,22.6601,15.9649)">
   <stop offset="0" stop-color="#ffffff"/>
   <stop offset="0.2" stop-color="#00ff00"/>
   <stop offset="0.4" stop-color="#00e400"/>
   <stop offset="0.6" stop-color="#00b200"/>
   <stop offset="0.8" stop-color="#009900"/>
   <stop offset="1" stop-color="#008000"/>
  </radialGradient>
  <path style="fill:url(#gradient2)"
        d="M41.28 58.86C38.9 60.55 35.25 59.03 32.57 59.33C31.96 59.4 31.38 59.51 30.89 59.94C30.27 60.48 30 60.38 29.11 60.38C27.3 60.38 25.48 60.38 23.66 60.38C27.59 61.5 31.76 61.78 35.82 61.22C37.74 60.96 39.66 60.5 41.5 59.89C41.65 59.83 43.04 59.1 42.54 58.92C42.15 58.78 41.65 59.02 41.28 58.86
           M53.15 38.35C52.62 39.01 51.89 39.5 51.47 40.25C51 41.11 51.23 42.12 51.23 43.06C52.15 42.63 52.56 41.42 53.03 40.58C53.38 39.98 54.13 38.77 53.15 38.35
           M13.46 54.14C13.23 54.32 13.01 54.57 12.72 54.63C13.5 55.27 14.28 55.87 15.11 56.43C14.47 55.73 14.24 54.73 13.46 54.14
           M35.25 13.46C35.55 13.61 35.87 13.77 36.18 13.93C36.22 13.73 36.27 13.52 36.31 13.33C35.96 13.37 35.6 13.42 35.25 13.46
           M45.11 12.22C44.67 12.29 44.7 11.55 44.39 11.4C43.82 11.1 43.17 11.44 42.66 11.71C41.03 12.6 41.51 10.74 41.84 9.83C41.9 9.69 42.95 9.88 43.12 9.85C43.65 9.77 44.46 9.54 44.88 10.02C45.28 10.48 45.59 10.92 46.06 11.34C46.64 11.87 45.54 12.16 45.11 12.22
           M61.45 29.95C61.01 25.4 59.7 20.9 57.47 16.91C56.32 14.86 54.94 12.96 53.33 11.26C52.53 10.43 51.7 9.63 50.82 8.9C50.53 8.66 50.24 8.26 49.86 8.47C49.51 8.65 49.24 8 49.34 7.73C45.45 4.88 40.87 3 36.08 2.29C36.77 2.75 37.64 2.71 38.39 3.01C38.65 3.12 39.42 3.54 38.8 3.75C37.57 4.14 36.19 3.65 34.95 3.74C34.17 3.8 33.81 4.06 33.74 4.85C33.71 5.28 33.6 6.12 33.76 6.53C33.94 7.01 35.44 6.41 35.65 6.15C36.03 5.71 35.58 4.76 36.6 5.05C37 5.83 37.78 8.06 36.07 7.48C35.64 7.32 34.83 6.62 34.38 6.83C34.34 6.85 34.26 7.39 34.22 7.45C34.06 7.72 33.82 7.9 33.51 8C32.31 8.31 31.44 8.5 31 9.8C30.78 10.45 30.8 10.83 30.09 11.08C29.55 11.27 28.97 11.39 28.46 11.62C27.76 11.95 28.25 12.86 28.5 13.32C28.69 13.64 28.65 14.42 29 14.61C30.03 15.2 31.23 12.9 31.66 12.36C32.23 11.63 32.86 11.8 33.63 11.54C34 11.42 34.47 10.51 34.86 10.66C36.12 11.15 36.51 12.67 36.71 13.88C37.11 13.88 36.85 12.91 37.7 13.12C37.06 12.44 36.61 11.5 36.52 10.55C37.45 11.14 38.09 11.79 38.38 12.83C38.65 13.85 39.13 14.43 39.98 13.39C40.18 13.17 40.5 11.79 40.93 12.18C41.3 12.51 41.3 13.63 40.73 13.78C41.06 14.07 41.52 13.95 41.91 13.85C42.43 13.71 42.72 13.75 43.22 13.94C43.79 14.16 44.4 14.23 45 14.27C45.61 14.31 45.96 14.86 46.24 15.32C47 16.58 42.4 16.05 42.17 16.04C41.62 16.01 41 16 40.5 16.21C40.09 16.38 39.79 16.89 39.31 16.74C38.79 16.56 38.31 16.09 37.86 15.8C37.23 15.39 36.58 15.01 35.9 14.71C34.77 14.21 33.5 13.89 32.26 14.14C31.67 14.26 31.11 14.51 30.64 14.88C30.07 15.31 29.46 14.93 28.89 15.51C28.01 16.42 27.41 17.5 26.25 18.05C25.79 18.28 25.22 18.48 24.89 18.9C24.54 19.32 24.54 19.89 24.32 20.37C24.11 20.83 23.61 21.05 24 21.59C24.35 22.07 24.45 22.46 24.21 23.01C23.86 23.84 22.92 24.96 23.59 25.87C24.26 26.75 25.42 27.62 26.3 28.27C27.29 29 28.51 28.93 29.65 28.63C30.72 28.36 31.77 27.83 32.88 27.75C34.26 27.65 35.32 28.53 36.29 29.41C36.92 29.98 37.16 30.2 36.67 31.01C36.13 31.93 36.47 32.59 36.91 33.48C37.35 34.37 37.82 35.24 38.29 36.1C38.5 36.48 38.77 36.83 38.94 37.22C39.13 37.67 38.82 37.95 38.61 38.33C38.17 39.11 37.86 40.03 37.86 40.95C37.87 41.96 38.35 42.3 39 42.96C39.58 43.55 39.55 44.6 39.5 45.39C39.43 46.45 39.74 47.19 40.38 48.03C41.32 48.06 42.31 48 43.18 47.6C44.24 47.09 44.71 46.1 45.5 45.31C46.24 44.56 47.02 44.5 47.25 43.37C47.51 42.03 48.23 41.5 49.19 40.68C50.07 39.93 49.97 38.85 50 37.8C50.01 36.57 49.88 35.24 50.03 34.03C50.18 32.94 51.25 32.04 51.98 31.3C52.51 30.75 53.42 30.19 53.62 29.41C53.74 28.97 53.65 28.4 53.65 27.95C53.65 27.6 53.76 27.06 53.61 26.75C53.21 25.91 51.44 26.74 51.24 25.96C51.11 25.47 51.14 25.56 51.46 25.26C51.81 24.93 51.46 24.59 51.15 24.42C50.29 23.91 49.6 23.59 48.97 22.75C48.38 21.98 47.89 21.11 47.43 20.27C47.31 20.04 46.15 17.73 46.83 17.95C47.57 18.19 48.24 19.07 48.74 19.62C49.61 20.58 50.42 21.64 50.97 22.82C51 22.97 51.52 23.26 51.63 23.34C52.03 23.63 52.48 23.87 53 23.83C54.15 23.73 54.71 22.67 54.8 21.63C54.91 20.19 53.82 20.5 52.96 19.82C52.47 19.43 52.15 18.89 51.76 18.41C51.52 18.12 50.86 17.66 51.09 17.22C51.58 16.89 51.78 17.17 52.26 17.47C52.83 17.8 53.43 18.09 54.05 18.29C54.7 18.5 55.68 18.32 56.24 18.73C56.58 19 56.84 19.6 57.06 19.96C57.43 20.53 57.79 21.11 58.09 21.72C58.57 22.68 58.7 23.32 59.85 23.67C59.12 24.86 59.83 26.25 60.39 27.35C61.06 28.65 61.12 29.92 61.11 31.37C61.1 32.69 61.42 34.19 60.81 35.43C60.16 36.77 60.02 38.6 60.02 40.09C60.05 40 60.08 39.89 60.12 39.8C60.06 39.91 59.87 40.67 60.05 40.7C60.33 40.76 60.84 37.95 60.91 37.63C61.43 35.11 61.59 32.51 61.45 29.95
           M8.09 14.92C8.19 14.54 7.96 14.4 7.71 14.15C5.97 16.54 4.58 19.18 3.61 21.98C5.9 20.19 5.73 16.73 8.09 14.92
           M34.94 11.42C34.85 11.36 34.72 11.34 34.63 11.31C34.61 11.57 34.61 11.87 34.97 11.76C34.96 11.65 34.97 11.51 34.94 11.42
           M34.45 13C34.62 12.75 34.88 12.79 35.11 12.93C35.11 12.66 35.25 12.03 34.89 11.95C34.27 11.79 34.43 12.67 34.45 13
           M29.46 8.39C29.98 8.42 30.58 8.78 31.09 8.57C31.92 8.24 31.12 7 30.78 6.63C30.53 6.38 29.36 5.19 29.57 6.24C29.72 6.95 30.34 7.91 29.46 8.39
           M21.88 3.98C22.43 4.34 22.5 4.71 23.21 4.85C23.71 4.94 24.5 5.04 24.89 4.63C25.85 3.64 27.33 4.35 28.45 3.66C29.34 3.11 30.08 2.01 31.22 2C31.93 2 32.35 2.44 32.93 2.75C33.7 3.18 34.34 2.38 35.04 2.15C29.53 1.54 23.92 2.48 18.93 4.86C20.03 5.18 21.02 4.63 21.88 3.98
           M2 30.92C2 30.79 2 30.89 2 30.92
           M11.29 45.1C11.77 44.47 12.42 43.95 12.77 43.21C13.2 42.31 12.95 40.96 12.95 39.98C12.95 38.85 12.95 38.2 13.65 37.26C14.17 36.55 14.71 35.94 14.86 35.03C13.27 34.15 11.67 33.28 10.06 32.43C9.65 32.21 8.71 31.94 8.5 31.47C8.23 30.83 8.5 30 8.19 29.39C7.97 28.92 7.21 28.59 6.87 28.17C6.37 27.56 5.98 26.88 5.4 26.34C4.85 25.83 4.32 25.59 3.61 25.97C2.83 26.4 2.88 25.23 2.8 24.71C2.6 25.55 2.43 26.41 2.3 27.27C3 27.27 2.89 27.46 2.91 28.1C2.93 28.77 2.95 29.44 2.98 30.1C3.1 30.39 3.02 30.53 2.74 30.53C2.65 30.56 2.56 30.59 2.48 30.62C2.31 30.76 2.19 30.75 2.1 30.57C1.84 30.55 2.03 33.5 2.04 33.73C2.1 34.66 2 37.66 3.38 37.2C4.08 37.67 3.97 38.82 4.44 39.5C5 40.31 5.72 40.72 6.01 41.72C6.31 42.73 6.32 43.8 6.5 44.84C6.69 46.13 7.4 46.6 8.35 47.39C8.57 48.74 8.98 49.57 9.88 50.6C10.29 51.07 10.71 51.52 11.08 52.01C11.48 52.52 11.66 52.5 12.05 51.98C11.54 50.91 11.39 49.69 11.46 48.52C11.52 47.42 11.77 46.16 11.29 45.1
           M16.51 8.3C17.04 7.46 17.38 6.5 17.6 5.52C14.18 7.38 11.14 9.9 8.68 12.9C10.18 12.41 11.54 11.58 12.89 10.78C13.55 10.39 14.21 10 14.85 9.56C15.39 9.22 16.17 8.86 16.51 8.3
           M16.21 57.13C17.67 58.02 19.21 58.79 20.8 59.42C20.51 59.1 20.24 58.79 19.97 58.48C18.73 57.97 17.41 57.71 16.21 57.13
           M21 59.5C21.82 59.82 22.65 60.09 23.5 60.34C22.7 59.54 22.11 59.57 21 59.5
           M28.56 6.48C27.89 6.55 28.5 7.95 28.9 7.76C29.43 7.53 29.19 6.41 28.56 6.48"
        transform="matrix(0.6269,0,0,0.6319,7.7465,6.802)"
  />
  <linearGradient id="gradient3" gradientUnits="userSpaceOnUse" x1="-18.33" y1="30.64" x2="45.65" y2="29.78">
   <stop offset="0" stop-color="#ffc389"/>
   <stop offset="1" stop-color="#653302"/>
  </linearGradient>
  <path style="fill:none; stroke:url(#gradient3); stroke-width:4; stroke-linecap:round; stroke-linejoin:round"
        d="M14 49C14 49 18 54 29 54C39 54 43 48 43 48"
        transform="matrix(0.9593,0,0,0.9669,0.0717,2.9343)"
  />
  <path style="fill:none; stroke:#000000; stroke-width:6; stroke-linecap:round; stroke-linejoin:round"
        d="M24 0C24 0 2.07 3.99 4 27C6 51 32 50 32 50"
        transform="matrix(0.9593,0,0,0.9669,0.0717,2.9343)"
  />
  <linearGradient id="gradient4" gradientUnits="userSpaceOnUse" x1="21.02" y1="-14.39" x2="48.37" y2="17.47">
   <stop offset="0" stop-color="#cb9866"/>
   <stop offset="1" stop-color="#693502"/>
  </linearGradient>
  <path style="fill:none; stroke:url(#gradient4); stroke-width:2; stroke-linecap:round; stroke-linejoin:round"
        d="M24 0C24 0 2.07 3.99 4 27C6 51 32 50 32 50"
        transform="matrix(0.9593,0,0,0.9669,0.0717,2.9343)"
  />
 </g>
</svg>
