<?xml version="1.0" encoding="UTF-8" standalone="yes"?>
<svg version="1.1" width="64" height="64" color-interpolation="linearRGB"
     xmlns:svg="http://www.w3.org/2000/svg" xmlns="http://www.w3.org/2000/svg">
 <g>
  <linearGradient id="gradient0" gradientUnits="userSpaceOnUse" x1="6.09" y1="33.18" x2="14.19" y2="12.96">
   <stop offset="0" stop-color="#010101" stop-opacity="0.5058"/>
   <stop offset="1" stop-color="#010101" stop-opacity="0.4941"/>
  </linearGradient>
  <path style="fill:url(#gradient0)"
        d="M64 41C64 41 59 32 51 27C43.41 22.24 32 21 32 21C29.28 19.72 26 50 28 52C28 52 44 52 53 49C60.01 46.64 65.21 41.55 64 41z"
        transform="matrix(1,0,0,1,0,1)"
  />
  <path style="fill:#000000"
        d="M11.22 27.21C11.22 27.21 15.5 20.66 21.23 21.09C22.03 21.15 22.88 21.36 23.75 21.74C29 24.75 32.1 30.06 34.9 35.35C35.2 35.95 35.46 36.49 35.66 36.93C36.06 37.81 36.29 38.35 36.29 38.35C36.29 38.35 32 44.9 26.28 44.48C25.47 44.42 24.61 44.21 23.74 43.82C17.51 41.09 14.87 34.48 11.86 28.63C11.43 27.74 11.22 27.21 11.22 27.21z"
        transform="matrix(2.1188,0,0,1.6454,-22.592,-21.6658)"
  />
  <path style="fill:#ffffff"
        d="M11.89 27.61C11.89 27.61 11.94 27.36 12.55 26.7C21.06 16.81 30.77 28.28 34.53 35.89C34.83 36.43 35.07 36.92 35.27 37.31C35.68 38.13 35.76 38.35 35.76 38.35C35.76 38.35 31.66 43.03 28.49 43.69C27.75 43.83 27 43.88 26.2 43.79C18.86 42.86 15.51 34.78 12.43 29C12.03 28.19 11.89 27.61 11.89 27.61z"
        transform="matrix(2.1188,0,0,1.6454,-22.592,-21.6658)"
  />
  <radialGradient id="gradient1" gradientUnits="userSpaceOnUse" cx="0" cy="0" r="64" gradientTransform="matrix(0.2812,0,0,0.2343,18,28)">
   <stop offset="0" stop-color="#ffffff"/>
   <stop offset="0.2274" stop-color="#bcd4e2"/>
   <stop offset="0.9921" stop-color="#054fbe"/>
  </radialGradient>
  <path style="fill:url(#gradient1)"
        d="M16.92 30C17.08 28.73 17.36 27.82 17.79 26.92C20 23.84 24.14 24.75 26.37 26.97C24.14 28.73 23.71 32.26 24.59 34.92C25.48 34.02 25.92 33.15 26.81 32.71C27.69 32.26 28.65 31.11 29.53 31.54C30.46 33.56 30.76 35.53 30.34 37.56C29.89 39.33 28.64 40.51 26.88 40.97C25.56 41.41 23 40.47 21.67 39.57C19.9 38.25 19.74 38 18.4 36.24C17.51 34.92 17.08 33.58 16.99 32.14C16.88 31.42 16.86 30.7 16.92 30z"
        transform="matrix(2.1188,0,0,1.6454,-22.592,-21.6658)"
  />
  <path style="fill:#000000"
        d="M24.6 29.86C23.16 29.22 19.5 29.33 19.71 32.19C20 36.01 21.78 36.4 22.96 36.76C24.11 37.14 26.73 37.07 26.24 33.25C25.28 33.68 24.75 34.16 24.38 34.91C24.27 34.04 23.81 31.61 24.6 29.86z"
        transform="matrix(2.1188,0,0,1.6454,-22.592,-21.6658)"
  />
 </g>
</svg>
