<?xml version="1.0" encoding="UTF-8" standalone="yes"?>
<svg version="1.1" width="64" height="64" color-interpolation="linearRGB"
     xmlns:svg="http://www.w3.org/2000/svg" xmlns="http://www.w3.org/2000/svg">
 <g>
  <path style="fill:#010101; fill-opacity:0.4039"
        d="M32 62L63 52L39 40L11 47L32 62z"
  />
  <path style="fill:none; stroke:#010101; stroke-width:5; stroke-linecap:round; stroke-linejoin:round"
        d="M31.2 3.02C30.6 3.02 30 3.27 29.53 3.71C21 11.79 12.46 19.86 3.92 27.94C3.37 28.46 3.02 29.25 2.99 30.06C2.95 30.88 3.22 31.71 3.72 32.29C12.25 42.36 20.79 52.42 29.32 62.48C29.81 63.06 30.51 63.4 31.21 63.4C31.92 63.4 32.62 63.06 33.1 62.48C41.64 52.42 50.18 42.36 58.71 32.29C59.21 31.71 59.48 30.88 59.44 30.06C59.4 29.25 59.05 28.46 58.5 27.94C49.96 19.86 41.43 11.79 32.89 3.71C32.42 3.27 31.81 3.02 31.2 3.02C31.2 3.02 31.2 3.02 31.2 3.02V3.02z"
        transform="matrix(0.9669,0,0,0.9379,2.0325,0.0564)"
  />
  <linearGradient id="gradient0" gradientUnits="userSpaceOnUse" x1="71.63" y1="3.68" x2="73.42" y2="53.64">
   <stop offset="0" stop-color="#b7b7b7"/>
   <stop offset="1" stop-color="#16165b"/>
  </linearGradient>
  <path style="fill:url(#gradient0)"
        d="M31.2 3.02C30.6 3.02 30 3.27 29.53 3.71C21 11.79 12.46 19.86 3.92 27.94C3.37 28.46 3.02 29.25 2.99 30.06C2.95 30.88 3.22 31.71 3.72 32.29C12.25 42.36 20.79 52.42 29.32 62.48C29.81 63.06 30.51 63.4 31.21 63.4C31.92 63.4 32.62 63.06 33.1 62.48C41.64 52.42 50.18 42.36 58.71 32.29C59.21 31.71 59.48 30.88 59.44 30.06C59.4 29.25 59.05 28.46 58.5 27.94C49.96 19.86 41.43 11.79 32.89 3.71C32.42 3.27 31.81 3.02 31.2 3.02C31.2 3.02 31.2 3.02 31.2 3.02V3.02z"
        transform="matrix(0.9669,0,0,0.9379,2.0325,0.0564)"
  />
  <path style="fill:#ffffff"
        d="M31.17 8.03C30.63 8.03 30.09 8.25 29.68 8.65C25.86 12.26 22.04 15.87 18.22 19.49C16.88 20.75 15.14 22.31 13.85 23.54C12 25 12.11 24.88 12 25C9.31 26.95 18.52 26.64 19.54 26.42C22.08 25.77 24.05 18.18 26 18C29 20 26.1 26.84 29 27C32.19 27.17 33 21 39 21C42.09 21.1 44.83 25.91 47 26C47.89 25.87 53 28 49.04 24.12C47.41 22.57 45.78 21.03 44.14 19.49C40.32 15.87 36.5 12.26 32.68 8.65C32.26 8.25 31.72 8.02 31.17 8.03C31.17 8.03 31.17 8.03 31.17 8.03V8.03z"
        transform="matrix(0.9669,0,0,0.9379,2.0325,0.0564)"
  />
 </g>
</svg>
