<?xml version="1.0" encoding="UTF-8" standalone="yes"?>
<svg version="1.1" width="64" height="64" color-interpolation="linearRGB"
     xmlns:svg="http://www.w3.org/2000/svg" xmlns="http://www.w3.org/2000/svg">
 <g>
  <path style="fill:#000000; fill-opacity:0.4"
        d="M37 61C23.18 61 12 53.15 12 43.5C12 33.82 23.18 26 37 26C50.79 26 62 33.82 62 43.5C62 53.15 55 61 44 61C41.66 61 39.32 61 37 61V61z"
  />
  <path style="fill:none; stroke:#000000; stroke-width:4"
        d="M29 3C17.57 3 8.02 10.96 5.59 21.63C5.58 22.64 6.2 23.91 7.88 25.5C6.59 30.45 6.32 37.07 10.97 42.83C15.36 47.83 21.8 51 29 51C42.24 51 53 40.24 53 27C53 13.73 42.24 3 29 3V3z"
  />
  <radialGradient id="gradient0" gradientUnits="userSpaceOnUse" cx="0" cy="0" r="64" gradientTransform="matrix(0,0.5311,-0.5311,0,19,17)">
   <stop offset="0" stop-color="#ffffff"/>
   <stop offset="0.749" stop-color="#fee900"/>
   <stop offset="1" stop-color="#febe00"/>
  </radialGradient>
  <path style="fill:url(#gradient0)"
        d="M29 3C17.57 3 8.02 10.96 5.59 21.63C5.58 22.64 6.2 23.91 7.88 25.5C9.5 27.02 12.06 28.83 16 31C36 42 49 37 49 37C49 37 40.8 49.84 28.91 50.98C28.93 50.98 28.96 51 29 51C42.24 51 53 40.24 53 27C53 13.73 42.24 3 29 3V3z"
  />
  <path style="fill:#806540"
        d="M10.81 27.83C9.6 26.98 8.63 26.21 7.88 25.5C6.19 32.02 6.25 41.43 17 48C23.81 52.15 30.06 51.58 35.19 49.26C17.2 46.29 12.04 35.84 10.81 27.83V27.83z"
  />
  <path style="fill:#000000"
        d="M16 31C13.9 29.84 12.19 28.79 10.81 27.83C12.04 35.84 17.2 46.29 35.19 49.26C43.59 45.47 49 37 49 37C49 37 36 42 16 31V31z"
  />
  <path style="fill:none; stroke:#000000; stroke-width:3; stroke-linejoin:round"
        d="M40 17C46 20 38 28 35 26C28.5 21.66 36.3 15.14 40 17z"
  />
  <path style="fill:#ffffff"
        d="M40 17C46 20 38 28 35 26C28.5 21.66 36.3 15.14 40 17z"
  />
  <path style="fill:#000000"
        d="M32 16C23.15 16 16 23.15 16 32C16 40.83 23.15 48 32 48C40.83 48 48 40.83 48 32C48 23.15 40.83 16 32 16z"
        transform="matrix(0.1875,0,0,0.1875,29,16)"
  />
  <path style="fill:none; stroke:#000000; stroke-width:3; stroke-linejoin:round"
        d="M40 17C46 20 38 28 35 26C28.5 21.66 36.3 15.14 40 17z"
        transform="matrix(0.7797,-0.626,0.626,0.7797,-24.2435,21.1077)"
  />
  <path style="fill:#ffffff"
        d="M40 17C46 20 38 28 35 26C28.5 21.66 36.3 15.14 40 17z"
        transform="matrix(0.7797,-0.626,0.626,0.7797,-24.2435,21.1077)"
  />
  <path style="fill:#000000"
        d="M32 16C23.15 16 16 23.15 16 32C16 40.83 23.15 48 32 48C40.83 48 48 40.83 48 32C48 23.15 40.83 16 32 16z"
        transform="matrix(0.1462,-0.1173,0.1173,0.1462,10.3867,15.4279)"
  />
 </g>
</svg>
