<?xml version="1.0" encoding="UTF-8" standalone="yes"?>
<svg version="1.1" width="64" height="64" color-interpolation="linearRGB"
     xmlns:svg="http://www.w3.org/2000/svg" xmlns="http://www.w3.org/2000/svg">
 <g>
  <path style="fill:#000001; fill-opacity:0.4666"
        d="M32 16C23.15 16 16 23.15 16 32C16 40.83 23.15 48 32 48C35.14 48 38.2 46.92 41 46C44 45 42.77 46.6 46 45C48 44 48 43.26 48 42C48 40 46.54 39.88 47 39C48.35 36.27 48 35.36 48 32C48 23.15 40.83 16 32 16z"
        transform="matrix(1.625,0,0,0.9062,-16,17.5)"
  />
  <path style="fill:none; stroke:#000000; stroke-width:3"
        d="M21 19C13.24 21.2 10 27 10 36C10 50.34 21.63 62 36 62C49 62 58 54 57 44"
        transform="matrix(1,0,0,1,-7,-7)"
  />
  <linearGradient id="gradient0" gradientUnits="userSpaceOnUse" x1="-17.35" y1="27.05" x2="14.94" y2="-11">
   <stop offset="0" stop-color="#6654f0"/>
   <stop offset="0.2627" stop-color="#8475f3"/>
   <stop offset="0.7647" stop-color="#b8aef9"/>
   <stop offset="1" stop-color="#f2f1ff" stop-opacity="0.9294"/>
  </linearGradient>
  <path style="fill:url(#gradient0)"
        d="M36 10C21.63 10 10 21.63 10 36C10 50.34 21.63 62 36 62C50.34 62 62 50.34 62 36C62 21.63 50.34 10 36 10z"
        transform="matrix(1,0,0,1,-7,-7)"
  />
  <path style="fill:#000000"
        d="M8 15C8 15 22 12 31 16C37.95 19.08 37 22 37 22C37 22 37 24 36 26C34.46 29.06 30 39 30 39C30 39 27.76 43.89 34 45C51 48 56 45 56 45L55 52C55 52 34.65 49.55 31 47C21 40 28 41 28 41C28 41 27.58 35.52 29 33C34 24 36 24 36 24C36 24 37.44 23.05 29 18C24 15 8 15 8 15z"
        transform="matrix(1,0,0,1,-3,-3)"
  />
  <path style="fill:none; stroke:#0434a1; stroke-width:5"
        d="M15 6C10.01 6 6 10.01 6 15C6 19.96 10.01 24 15 24C19.96 24 24 19.96 24 15C24 10.01 19.96 6 15 6z"
        transform="matrix(0.7727,0,0,0.7727,39.9086,32.9086)"
  />
  <radialGradient id="gradient1" gradientUnits="userSpaceOnUse" cx="0" cy="0" r="64" gradientTransform="matrix(0.0959,0,0,-0.0959,47.2734,20.092)">
   <stop offset="0" stop-color="#ffffff"/>
   <stop offset="0.4" stop-color="#ffffff"/>
   <stop offset="0.6431" stop-color="#ffffff"/>
   <stop offset="1" stop-color="#ffffff"/>
  </radialGradient>
  <path style="fill:url(#gradient1)"
        d="M15 6C10.01 6 6 10.01 6 15C6 19.96 10.01 24 15 24C19.96 24 24 19.96 24 15C24 10.01 19.96 6 15 6z"
        transform="matrix(0.7727,0,0,0.7727,39.9086,32.9086)"
  />
  <path style="fill:none; stroke:#0434a1; stroke-width:3"
        d="M46 18C43.78 18 42 19.78 42 22C42 24.19 43.78 26 46 26C48.19 26 50 24.19 50 22C50 19.78 48.19 18 46 18z"
        transform="matrix(0.9166,0,0,0.9166,-33.6672,-7.667)"
  />
  <radialGradient id="gradient2" gradientUnits="userSpaceOnUse" cx="0" cy="0" r="64" gradientTransform="matrix(0.0959,0,0,-0.0959,47.2734,20.092)">
   <stop offset="0" stop-color="#ffffff"/>
   <stop offset="0.4" stop-color="#ffffff"/>
   <stop offset="0.6431" stop-color="#ffffff"/>
   <stop offset="1" stop-color="#ffffff"/>
  </radialGradient>
  <path style="fill:url(#gradient2)"
        d="M46 18C43.78 18 42 19.78 42 22C42 24.19 43.78 26 46 26C48.19 26 50 24.19 50 22C50 19.78 48.19 18 46 18z"
        transform="matrix(0.9166,0,0,0.9166,-33.6672,-7.667)"
  />
  <path style="fill:none; stroke:#0434a1; stroke-width:3"
        d="M46 18C43.78 18 42 19.78 42 22C42 24.19 43.78 26 46 26C48.19 26 50 24.19 50 22C50 19.78 48.19 18 46 18z"
        transform="matrix(0.9166,0,0,0.9166,-16.6673,15.3329)"
  />
  <radialGradient id="gradient3" gradientUnits="userSpaceOnUse" cx="0" cy="0" r="64" gradientTransform="matrix(0.0959,0,0,-0.0959,47.2734,20.092)">
   <stop offset="0" stop-color="#ffffff"/>
   <stop offset="0.4" stop-color="#ffffff"/>
   <stop offset="0.6431" stop-color="#ffffff"/>
   <stop offset="1" stop-color="#ffffff"/>
  </radialGradient>
  <path style="fill:url(#gradient3)"
        d="M46 18C43.78 18 42 19.78 42 22C42 24.19 43.78 26 46 26C48.19 26 50 24.19 50 22C50 19.78 48.19 18 46 18z"
        transform="matrix(0.9166,0,0,0.9166,-16.6673,15.3329)"
  />
  <path style="fill:none; stroke:#0434a1; stroke-width:3"
        d="M46 18C43.78 18 42 19.78 42 22C42 24.19 43.78 26 46 26C48.19 26 50 24.19 50 22C50 19.78 48.19 18 46 18z"
        transform="matrix(0.75,0,0,0.75,-1.0022,3.9989)"
  />
  <radialGradient id="gradient4" gradientUnits="userSpaceOnUse" cx="0" cy="0" r="64" gradientTransform="matrix(0.0959,0,0,-0.0959,47.2734,20.092)">
   <stop offset="0" stop-color="#ffffff"/>
   <stop offset="0.4" stop-color="#ffffff"/>
   <stop offset="0.6431" stop-color="#ffffff"/>
   <stop offset="1" stop-color="#ffffff"/>
  </radialGradient>
  <path style="fill:url(#gradient4)"
        d="M46 18C43.78 18 42 19.78 42 22C42 24.19 43.78 26 46 26C48.19 26 50 24.19 50 22C50 19.78 48.19 18 46 18z"
        transform="matrix(0.75,0,0,0.75,-1.0022,3.9989)"
  />
 </g>
</svg>
