<?xml version="1.0" encoding="UTF-8" standalone="yes"?>
<svg version="1.1" width="64" height="64" color-interpolation="linearRGB"
     xmlns:svg="http://www.w3.org/2000/svg" xmlns="http://www.w3.org/2000/svg">
 <g>
  <path style="fill:#000000; fill-opacity:0.3921"
        d="M27.16 50.02C22.38 48.75 18.3 45.61 15.82 41.33C13.34 37.03 12.67 31.94 13.96 27.16C16.62 17.19 26.86 11.28 36.83 13.96C41.6 15.23 45.68 18.37 48.16 22.65C50.64 26.95 51.31 32.04 50.02 36.82C48.75 41.6 45.61 45.68 41.33 48.16C37.03 50.64 31.94 51.31 27.16 50.02
           M29.26 58.51C31.07 58.7 32.91 58.7 34.72 58.52C34.94 57.14 35.14 55.76 35.36 54.39C37.04 54.13 38.69 53.69 40.28 53.07C41.14 54.15 42.01 55.24 42.89 56.33C44.55 55.58 46.14 54.66 47.62 53.58C47.11 52.29 46.61 51 46.1 49.7C47.44 48.64 48.65 47.44 49.72 46.11C51 46.61 52.29 47.11 53.57 47.61C54.65 46.13 55.56 44.54 56.31 42.88C55.24 42.01 54.16 41.15 53.08 40.28C53.4 39.5 53.67 38.68 53.9 37.86C54.1 37.03 54.27 36.2 54.39 35.36C55.76 35.14 57.14 34.94 58.51 34.72C58.7 32.91 58.7 31.07 58.52 29.26C57.14 29.04 55.76 28.84 54.39 28.62C54.13 26.94 53.69 25.29 53.07 23.7C54.16 22.84 55.24 21.97 56.33 21.09C55.58 19.43 54.66 17.84 53.58 16.36C52.29 16.87 51 17.37 49.7 17.88C48.64 16.54 47.44 15.33 46.11 14.26C46.61 12.98 47.11 11.69 47.61 10.41C46.13 9.33 44.54 8.42 42.88 7.67C42.01 8.75 41.15 9.82 40.29 10.9C39.5 10.58 38.68 10.31 37.86 10.08C37.03 9.88 36.2 9.71 35.36 9.59C35.14 8.22 34.94 6.85 34.72 5.47C32.91 5.28 31.07 5.28 29.26 5.46C29.04 6.84 28.84 8.22 28.62 9.59C26.94 9.85 25.29 10.29 23.7 10.91C22.84 9.83 21.97 8.74 21.09 7.65C19.43 8.41 17.84 9.32 16.37 10.4C16.87 11.69 17.37 12.99 17.88 14.28C16.54 15.34 15.33 16.54 14.26 17.87C12.98 17.37 11.69 16.87 10.41 16.37C9.33 17.85 8.42 19.44 7.67 21.1C8.75 21.97 9.82 22.83 10.9 23.69C10.58 24.49 10.31 25.3 10.08 26.12C9.88 26.95 9.71 27.78 9.59 28.62C8.22 28.84 6.85 29.04 5.47 29.26C5.28 31.07 5.28 32.91 5.46 34.72C6.84 34.94 8.22 35.14 9.59 35.36C9.85 37.04 10.29 38.69 10.91 40.28C9.83 41.14 8.74 42.01 7.65 42.89C8.4 44.55 9.32 46.14 10.4 47.61C11.69 47.11 12.99 46.61 14.28 46.1C15.34 47.44 16.54 48.65 17.87 49.72C17.37 51 16.87 52.29 16.37 53.57C17.85 54.65 19.44 55.56 21.1 56.31C21.97 55.23 22.83 54.16 23.7 53.08C24.49 53.4 25.3 53.67 26.12 53.9C26.95 54.1 27.78 54.27 28.62 54.39C28.84 55.76 29.04 57.13 29.26 58.51V58.51z
           M50.66 31.99C50.66 42.3 42.3 50.65 32 50.65C21.68 50.65 13.33 42.3 13.33 31.99C13.33 21.68 21.68 13.32 32 13.32C42.3 13.32 50.66 21.68 50.66 31.99V31.99z"
        transform="matrix(0.8689,0,0,0.3074,12.6926,43.6611)"
  />
  <path style="fill:none; stroke:#232629; stroke-width:4"
        d="M27.16 50.02C22.38 48.75 18.3 45.61 15.82 41.33C13.34 37.03 12.67 31.94 13.96 27.16C16.62 17.19 26.86 11.28 36.83 13.96C41.6 15.23 45.68 18.37 48.16 22.65C50.64 26.95 51.31 32.04 50.02 36.82C48.75 41.6 45.61 45.68 41.33 48.16C37.03 50.64 31.94 51.31 27.16 50.02
           M29.26 58.51C31.07 58.7 32.91 58.7 34.72 58.52C34.94 57.14 35.14 55.76 35.36 54.39C37.04 54.13 38.69 53.69 40.28 53.07C41.14 54.15 42.01 55.24 42.89 56.33C44.55 55.58 46.14 54.66 47.62 53.58C47.11 52.29 46.61 51 46.1 49.7C47.44 48.64 48.65 47.44 49.72 46.11C51 46.61 52.29 47.11 53.57 47.61C54.65 46.13 55.56 44.54 56.31 42.88C55.24 42.01 54.16 41.15 53.08 40.28C53.4 39.5 53.67 38.68 53.9 37.86C54.1 37.03 54.27 36.2 54.39 35.36C55.76 35.14 57.14 34.94 58.51 34.72C58.7 32.91 58.7 31.07 58.52 29.26C57.14 29.04 55.76 28.84 54.39 28.62C54.13 26.94 53.69 25.29 53.07 23.7C54.16 22.84 55.24 21.97 56.33 21.09C55.58 19.43 54.66 17.84 53.58 16.36C52.29 16.87 51 17.37 49.7 17.88C48.64 16.54 47.44 15.33 46.11 14.26C46.61 12.98 47.11 11.69 47.61 10.41C46.13 9.33 44.54 8.42 42.88 7.67C42.01 8.75 41.15 9.82 40.29 10.9C39.5 10.58 38.68 10.31 37.86 10.08C37.03 9.88 36.2 9.71 35.36 9.59C35.14 8.22 34.94 6.85 34.72 5.47C32.91 5.28 31.07 5.28 29.26 5.46C29.04 6.84 28.84 8.22 28.62 9.59C26.94 9.85 25.29 10.29 23.7 10.91C22.84 9.83 21.97 8.74 21.09 7.65C19.43 8.41 17.84 9.32 16.37 10.4C16.87 11.69 17.37 12.99 17.88 14.28C16.54 15.34 15.33 16.54 14.26 17.87C12.98 17.37 11.69 16.87 10.41 16.37C9.33 17.85 8.42 19.44 7.67 21.1C8.75 21.97 9.82 22.83 10.9 23.69C10.58 24.49 10.31 25.3 10.08 26.12C9.88 26.95 9.71 27.78 9.59 28.62C8.22 28.84 6.85 29.04 5.47 29.26C5.28 31.07 5.28 32.91 5.46 34.72C6.84 34.94 8.22 35.14 9.59 35.36C9.85 37.04 10.29 38.69 10.91 40.28C9.83 41.14 8.74 42.01 7.65 42.89C8.4 44.55 9.32 46.14 10.4 47.61C11.69 47.11 12.99 46.61 14.28 46.1C15.34 47.44 16.54 48.65 17.87 49.72C17.37 51 16.87 52.29 16.37 53.57C17.85 54.65 19.44 55.56 21.1 56.31C21.97 55.23 22.83 54.16 23.7 53.08C24.49 53.4 25.3 53.67 26.12 53.9C26.95 54.1 27.78 54.27 28.62 54.39C28.84 55.76 29.04 57.13 29.26 58.51V58.51z"
  />
  <path style="fill:#232629"
        d="M50.66 31.99C50.66 42.3 42.3 50.65 32 50.65C21.68 50.65 13.33 42.3 13.33 31.99C13.33 21.68 21.68 13.32 32 13.32C42.3 13.32 50.66 21.68 50.66 31.99V31.99z"
  />
  <path style="fill:#eff0f1; fill-opacity:0.3921"
        d="M38.66 45.32C38.66 47.1 38.66 48.88 38.66 50.66C39.1 50.66 39.54 50.66 40 50.66C40 48.88 40 47.1 40 45.32C39.54 45.32 39.1 45.32 38.66 45.32V45.32z
           M32 45.32C32 47.1 32 48.88 32 50.66C33.32 50.66 34.66 50.66 36 50.66C36 48.88 36 47.1 36 45.32C34.66 45.32 33.32 45.32 32 45.32V45.32z
           M22.65 45.32C22.65 45.77 22.65 46.21 22.65 46.66C24.88 46.66 27.1 46.66 29.33 46.66C29.33 46.21 29.33 45.77 29.33 45.32C27.1 45.32 24.88 45.32 22.65 45.32V45.32z
           M16 45.32C16 45.53 16 45.75 16 45.97C16.17 46.2 16.37 46.43 16.56 46.65C18.15 46.65 19.74 46.66 21.33 46.66C21.33 46.21 21.33 45.77 21.33 45.32C19.54 45.32 17.77 45.32 16 45.32V45.32z
           M25.33 42.66C25.33 43.1 25.33 43.54 25.33 44C26.21 44 27.1 44 28 44C28 43.54 28 43.1 28 42.66C27.1 42.66 26.21 42.66 25.33 42.66V42.66z
           M13.62 42.66C13.86 43.11 14.11 43.55 14.38 43.99C17.58 43.99 20.79 43.99 24 44C24 43.54 24 43.1 24 42.66C20.53 42.66 17.07 42.66 13.62 42.66V42.66z
           M48 40C48.44 40 48.88 40 49.32 40C49.32 40.88 49.32 41.77 49.32 42.66C48.88 42.66 48.44 42.66 48 42.66C48 41.77 48 40.88 48 40V40z
           M42.66 38.66C42.66 40.44 42.66 42.21 42.66 44C43.1 44 43.54 44 44 44C44 42.21 44 40.44 44 38.66C43.54 38.66 43.1 38.66 42.66 38.66V38.66z
           M36 38.66C36 40.44 36 42.21 36 44C37.32 44 38.66 44 40 44C40 42.21 40 40.44 40 38.66C38.66 38.66 37.32 38.66 36 38.66V38.66z
           M32 38.66C32 40.44 32 42.21 32 44C32.44 44 32.88 44 33.32 44C33.32 42.21 33.32 40.44 33.32 38.66C32.88 38.66 32.44 38.66 32 38.66V38.66z
           M26.65 37.32C26.65 37.77 26.65 38.21 26.65 38.66C27.54 38.66 28.44 38.66 29.33 38.66C29.33 38.21 29.33 37.77 29.33 37.32C28.44 37.32 27.54 37.32 26.65 37.32V37.32z
           M18.65 37.32C18.65 37.77 18.65 38.21 18.65 38.66C20.88 38.66 23.1 38.66 25.33 38.66C25.33 38.21 25.33 37.77 25.33 37.32C23.1 37.32 20.88 37.32 18.65 37.32V37.32z
           M11.43 37.32C11.54 37.77 11.68 38.22 11.83 38.65C13.66 38.65 15.5 38.66 17.33 38.66C17.33 38.21 17.33 37.77 17.33 37.32C15.36 37.32 13.39 37.32 11.43 37.32V37.32z
           M20 34.66C20 35.1 20 35.54 20 36C24.44 36 28.88 36 33.32 36C33.32 35.54 33.32 35.1 33.32 34.66C28.88 34.66 24.44 34.66 20 34.66V34.66z
           M12 34.66C12 35.1 12 35.54 12 36C14.21 36 16.44 36 18.65 36C18.65 35.54 18.65 35.1 18.65 34.66C16.44 34.66 14.21 34.66 12 34.66V34.66z
           M22.65 32C22.65 32.44 22.65 32.88 22.65 33.32C23.54 33.32 24.44 33.32 25.33 33.32C25.33 32.88 25.33 32.44 25.33 32C24.44 32 23.54 32 22.65 32V32z
           M10.66 32C10.69 32.44 10.73 32.88 10.79 33.32C14.3 33.32 17.81 33.32 21.33 33.32C21.33 32.88 21.33 32.44 21.33 32C17.77 32 14.21 32 10.66 32V32z
           M17.33 26.65C17.33 27.1 17.33 27.54 17.33 28C19.54 28 21.77 28 24 28C24 27.54 24 27.1 24 26.65C21.77 26.65 19.54 26.65 17.33 26.65V26.65z
           M11.43 26.65C11.28 27.09 11.16 27.54 11.05 28C12.7 28 14.35 28 16 28C16 27.54 16 27.1 16 26.65C14.47 26.65 12.95 26.65 11.43 26.65V26.65z
           M12.23 24C12.14 24.25 12.06 24.52 12 24.79C12 24.97 12 25.14 12 25.33C15.54 25.33 19.1 25.33 22.65 25.33C22.65 24.88 22.65 24.44 22.65 24C19.18 24 15.71 24 12.23 24V24z
           M20 21.33C20 21.77 20 22.21 20 22.65C23.54 22.65 27.1 22.65 30.65 22.65C30.65 22.21 30.65 21.77 30.65 21.33C27.1 21.33 23.54 21.33 20 21.33V21.33z
           M13.62 21.33C13.37 21.76 13.13 22.2 12.91 22.66C14.82 22.66 16.74 22.66 18.65 22.65C18.65 22.21 18.65 21.77 18.65 21.33C16.98 21.33 15.3 21.33 13.62 21.33V21.33z
           M26.65 18.65C26.65 19.1 26.65 19.54 26.65 20C27.54 20 28.44 20 29.33 20C29.33 19.54 29.33 19.1 29.33 18.65C28.44 18.65 27.54 18.65 26.65 18.65V18.65z
           M15.47 18.65C15.08 19.08 14.72 19.53 14.38 19.99C18.02 19.99 21.67 19.99 25.33 20C25.33 19.54 25.33 19.1 25.33 18.65C22.03 18.65 18.75 18.65 15.47 18.65V18.65z
           M18.01 16C17.78 16.17 17.55 16.37 17.33 16.56C17.33 16.82 17.33 17.07 17.33 17.33C19.1 17.33 20.88 17.33 22.65 17.33C22.65 16.88 22.65 16.44 22.65 16C21.11 16 19.56 16 18.01 16V16z
           M37.32 40C37.77 40 38.21 40 38.66 40C38.66 40.88 38.66 41.77 38.66 42.66C38.21 42.66 37.77 42.66 37.32 42.66C37.32 41.77 37.32 40.88 37.32 40V40z
           M33.32 46.66C33.77 46.66 34.21 46.66 34.66 46.66C34.66 47.54 34.66 48.44 34.66 49.32C34.21 49.32 33.77 49.32 33.32 49.32C33.32 48.44 33.32 47.54 33.32 46.66V46.66z"
  />
  <path style="fill:#ed1515"
        d="M33.13 30.85C32.98 31 32.82 31.16 32.66 31.32C32.5 31.49 32.34 31.64 32.18 31.8C36.85 36.47 41.51 41.13 46.19 45.8C46.5 45.49 46.82 45.17 47.13 44.86C42.47 40.18 37.8 35.51 33.13 30.85V30.85z"
  />
  <path style="fill:#fcfcfc"
        d="M32 13.32C32.44 13.32 32.88 13.32 33.33 13.32C33.33 19.32 33.33 25.32 33.33 31.32C32.88 31.32 32.44 31.32 32 31.32C32 25.32 32 19.32 32 13.32V13.32z"
  />
  <linearGradient id="gradient0" gradientUnits="userSpaceOnUse" x1="33.33" y1="20.4" x2="50.66" y2="37.73">
   <stop offset="0" stop-color="#3daee9"/>
   <stop offset="1" stop-color="#2980b9"/>
  </linearGradient>
  <path style="fill:url(#gradient0)"
        d="M33.32 13.32C33.32 19.23 33.32 25.14 33.32 31.04C37.91 35.63 42.5 40.22 47.07 44.8C48.6 43.04 49.82 41.02 50.66 38.85C50.66 34.27 50.66 29.69 50.66 25.12C48.61 19.64 44.28 15.33 38.8 13.33C36.98 13.33 35.15 13.32 33.32 13.32V13.32z"
  />
  <linearGradient id="gradient1" gradientUnits="userSpaceOnUse" x1="-272.21" y1="-742.46" x2="-298.62" y2="-788.2">
   <stop offset="0" stop-color="#d6d9dc"/>
   <stop offset="1" stop-color="#a1a9b1"/>
  </linearGradient>
  <path style="fill:url(#gradient1)"
        d="M27.16 50.02C22.38 48.75 18.3 45.61 15.82 41.33C13.34 37.03 12.67 31.94 13.96 27.16C16.62 17.19 26.86 11.28 36.83 13.96C41.6 15.23 45.68 18.37 48.16 22.65C50.64 26.95 51.31 32.04 50.02 36.82C48.75 41.6 45.61 45.68 41.33 48.16C37.03 50.64 31.94 51.31 27.16 50.02
           M29.26 58.51C31.07 58.7 32.91 58.7 34.72 58.52C34.94 57.14 35.14 55.76 35.36 54.39C37.04 54.13 38.69 53.69 40.28 53.07C41.14 54.15 42.01 55.24 42.89 56.33C44.55 55.58 46.14 54.66 47.62 53.58C47.11 52.29 46.61 51 46.1 49.7C47.44 48.64 48.65 47.44 49.72 46.11C51 46.61 52.29 47.11 53.57 47.61C54.65 46.13 55.56 44.54 56.31 42.88C55.24 42.01 54.16 41.15 53.08 40.28C53.4 39.5 53.67 38.68 53.9 37.86C54.1 37.03 54.27 36.2 54.39 35.36C55.76 35.14 57.14 34.94 58.51 34.72C58.7 32.91 58.7 31.07 58.52 29.26C57.14 29.04 55.76 28.84 54.39 28.62C54.13 26.94 53.69 25.29 53.07 23.7C54.16 22.84 55.24 21.97 56.33 21.09C55.58 19.43 54.66 17.84 53.58 16.36C52.29 16.87 51 17.37 49.7 17.88C48.64 16.54 47.44 15.33 46.11 14.26C46.61 12.98 47.11 11.69 47.61 10.41C46.13 9.33 44.54 8.42 42.88 7.67C42.01 8.75 41.15 9.82 40.29 10.9C39.5 10.58 38.68 10.31 37.86 10.08C37.03 9.88 36.2 9.71 35.36 9.59C35.14 8.22 34.94 6.85 34.72 5.47C32.91 5.28 31.07 5.28 29.26 5.46C29.04 6.84 28.84 8.22 28.62 9.59C26.94 9.85 25.29 10.29 23.7 10.91C22.84 9.83 21.97 8.74 21.09 7.65C19.43 8.41 17.84 9.32 16.37 10.4C16.87 11.69 17.37 12.99 17.88 14.28C16.54 15.34 15.33 16.54 14.26 17.87C12.98 17.37 11.69 16.87 10.41 16.37C9.33 17.85 8.42 19.44 7.67 21.1C8.75 21.97 9.82 22.83 10.9 23.69C10.58 24.49 10.31 25.3 10.08 26.12C9.88 26.95 9.71 27.78 9.59 28.62C8.22 28.84 6.85 29.04 5.47 29.26C5.28 31.07 5.28 32.91 5.46 34.72C6.84 34.94 8.22 35.14 9.59 35.36C9.85 37.04 10.29 38.69 10.91 40.28C9.83 41.14 8.74 42.01 7.65 42.89C8.4 44.55 9.32 46.14 10.4 47.61C11.69 47.11 12.99 46.61 14.28 46.1C15.34 47.44 16.54 48.65 17.87 49.72C17.37 51 16.87 52.29 16.37 53.57C17.85 54.65 19.44 55.56 21.1 56.31C21.97 55.23 22.83 54.16 23.7 53.08C24.49 53.4 25.3 53.67 26.12 53.9C26.95 54.1 27.78 54.27 28.62 54.39C28.84 55.76 29.04 57.13 29.26 58.51V58.51z"
  />
  <path style="fill:#000000; fill-opacity:0.2078"
        d=""
  />
  <path style="fill:#fcfcfc"
        d="M34.66 31.32C34.66 32.43 33.76 33.32 32.66 33.32C31.55 33.32 30.66 32.43 30.66 31.32C30.66 30.22 31.55 29.32 32.66 29.32C33.76 29.32 34.66 30.22 34.66 31.32V31.32z"
  />
  <path style="fill:#232629"
        d="M33.33 31.32C33.33 31.69 33.02 31.99 32.66 31.99C32.29 31.99 32 31.69 32 31.32C32 30.96 32.29 30.65 32.66 30.65C33.02 30.65 33.33 30.96 33.33 31.32V31.32z"
  />
 </g>
</svg>
