<?xml version="1.0" encoding="UTF-8" standalone="yes"?>
<svg version="1.1" width="64" height="64" color-interpolation="linearRGB"
     xmlns:svg="http://www.w3.org/2000/svg" xmlns="http://www.w3.org/2000/svg">
 <g>
  <path style="fill:none; stroke:#1a171b; stroke-opacity:0.4; stroke-width:3.5; stroke-linecap:round; stroke-linejoin:round"
        d="M17.33 16.51C17.23 16.51 17.12 16.56 17.05 16.6C16 17.62 14.94 18.65 13.88 19.68C13.75 19.81 13.69 20.03 13.79 20.19C15.03 22.13 16.27 24.07 17.51 26.01C16.84 27.06 16.35 28.22 15.97 29.43C13.67 29.88 11.38 30.34 9.08 30.8C8.89 30.85 8.72 30.95 8.72 31.14C8.72 32.57 8.72 33.99 8.72 35.42C8.72 35.6 8.9 35.8 9.08 35.84C11.32 36.36 13.55 36.87 15.79 37.38C16.14 38.78 16.68 40.11 17.42 41.32C16.12 43.17 14.82 45.03 13.52 46.88C13.41 47.04 13.47 47.26 13.61 47.39C14.67 48.39 15.73 49.39 16.78 50.39C16.92 50.51 17.16 50.57 17.33 50.48C19.35 49.31 21.37 48.14 23.39 46.97C24.59 47.62 25.84 48.16 27.2 48.51C27.68 50.65 28.16 52.79 28.64 54.92C28.69 55.11 28.81 55.27 29.01 55.27C30.52 55.27 32.03 55.27 33.53 55.27C33.73 55.27 33.94 55.1 33.99 54.92C34.53 52.79 35.07 50.65 35.62 48.51C37.02 48.15 38.38 47.56 39.6 46.88C41.59 48.14 43.59 49.39 45.58 50.65C45.74 50.75 45.98 50.7 46.12 50.56C47.18 49.56 48.23 48.56 49.29 47.56C49.43 47.43 49.48 47.21 49.38 47.05C48.66 45.91 47.93 44.77 47.21 43.63C46.97 43.72 46.73 43.8 46.48 43.89C46.38 43.94 46.27 43.89 46.21 43.8C46.21 43.8 44.84 41.84 43.04 39.35C40.89 43.33 36.51 46.02 31.45 46.02C24.27 46.02 18.41 40.57 18.41 33.79C18.41 28.8 21.58 24.51 26.11 22.58C26.11 21.53 26.11 20.47 26.11 19.42C25.29 19.69 24.51 19.97 23.75 20.36C23.75 20.36 23.67 20.36 23.66 20.36C21.64 19.1 19.62 17.85 17.6 16.59C17.51 16.54 17.42 16.5 17.32 16.51C17.32 16.51 17.32 16.51 17.33 16.51V16.51z"
        transform="matrix(1,0,0,1,-2,5)"
  />
  <path style="fill:none; stroke:#545454; stroke-width:4.5; stroke-linecap:round; stroke-linejoin:round"
        d="M17.33 16.51C17.23 16.51 17.12 16.56 17.05 16.6C16 17.62 14.94 18.65 13.88 19.68C13.75 19.81 13.69 20.03 13.79 20.19C15.03 22.13 16.27 24.07 17.51 26.01C16.84 27.06 16.35 28.22 15.97 29.43C13.67 29.88 11.38 30.34 9.08 30.8C8.89 30.85 8.72 30.95 8.72 31.14C8.72 32.57 8.72 33.99 8.72 35.42C8.72 35.6 8.9 35.8 9.08 35.84C11.32 36.36 13.55 36.87 15.79 37.38C16.14 38.78 16.68 40.11 17.42 41.32C16.12 43.17 14.82 45.03 13.52 46.88C13.41 47.04 13.47 47.26 13.61 47.39C14.67 48.39 15.73 49.39 16.78 50.39C16.92 50.51 17.16 50.57 17.33 50.48C19.35 49.31 21.37 48.14 23.39 46.97C24.59 47.62 25.84 48.16 27.2 48.51C27.68 50.65 28.16 52.79 28.64 54.92C28.69 55.11 28.81 55.27 29.01 55.27C30.52 55.27 32.03 55.27 33.53 55.27C33.73 55.27 33.94 55.1 33.99 54.92C34.53 52.79 35.07 50.65 35.62 48.51C37.02 48.15 38.38 47.56 39.6 46.88C41.59 48.14 43.59 49.39 45.58 50.65C45.74 50.75 45.98 50.7 46.12 50.56C47.18 49.56 48.23 48.56 49.29 47.56C49.43 47.43 49.48 47.21 49.38 47.05C48.66 45.91 47.93 44.77 47.21 43.63C46.97 43.72 46.73 43.8 46.48 43.89C46.38 43.94 46.27 43.89 46.21 43.8C46.21 43.8 44.84 41.84 43.04 39.35C40.89 43.33 36.51 46.02 31.45 46.02C24.27 46.02 18.41 40.57 18.41 33.79C18.41 28.8 21.58 24.51 26.11 22.58C26.11 21.53 26.11 20.47 26.11 19.42C25.29 19.69 24.51 19.97 23.75 20.36C23.75 20.36 23.67 20.36 23.66 20.36C21.64 19.1 19.62 17.85 17.6 16.59C17.51 16.54 17.42 16.5 17.32 16.51C17.32 16.51 17.32 16.51 17.33 16.51V16.51z"
        transform="matrix(1,0,0,1,-3,3)"
  />
  <linearGradient id="gradient0" gradientUnits="userSpaceOnUse" x1="162.34" y1="9.76" x2="162.34" y2="54.06">
   <stop offset="0" stop-color="#ffffff"/>
   <stop offset="1" stop-color="#e5e5e5"/>
  </linearGradient>
  <path style="fill:url(#gradient0)"
        d="M17.33 16.51C17.23 16.51 17.12 16.56 17.05 16.6C16 17.62 14.94 18.65 13.88 19.68C13.75 19.81 13.69 20.03 13.79 20.19C15.03 22.13 16.27 24.07 17.51 26.01C16.84 27.06 16.35 28.22 15.97 29.43C13.67 29.88 11.38 30.34 9.08 30.8C8.89 30.85 8.72 30.95 8.72 31.14C8.72 32.57 8.72 33.99 8.72 35.42C8.72 35.6 8.9 35.8 9.08 35.84C11.32 36.36 13.55 36.87 15.79 37.38C16.14 38.78 16.68 40.11 17.42 41.32C16.12 43.17 14.82 45.03 13.52 46.88C13.41 47.04 13.47 47.26 13.61 47.39C14.67 48.39 15.73 49.39 16.78 50.39C16.92 50.51 17.16 50.57 17.33 50.48C19.35 49.31 21.37 48.14 23.39 46.97C24.59 47.62 25.84 48.16 27.2 48.51C27.68 50.65 28.16 52.79 28.64 54.92C28.69 55.11 28.81 55.27 29.01 55.27C30.52 55.27 32.03 55.27 33.53 55.27C33.73 55.27 33.94 55.1 33.99 54.92C34.53 52.79 35.07 50.65 35.62 48.51C37.02 48.15 38.38 47.56 39.6 46.88C41.59 48.14 43.59 49.39 45.58 50.65C45.74 50.75 45.98 50.7 46.12 50.56C47.18 49.56 48.23 48.56 49.29 47.56C49.43 47.43 49.48 47.21 49.38 47.05C48.66 45.91 47.93 44.77 47.21 43.63C46.97 43.72 46.73 43.8 46.48 43.89C46.38 43.94 46.27 43.89 46.21 43.8C46.21 43.8 44.84 41.84 43.04 39.35C40.89 43.33 36.51 46.02 31.45 46.02C24.27 46.02 18.41 40.57 18.41 33.79C18.41 28.8 21.58 24.51 26.11 22.58C26.11 21.53 26.11 20.47 26.11 19.42C25.29 19.69 24.51 19.97 23.75 20.36C23.75 20.36 23.67 20.36 23.66 20.36C21.64 19.1 19.62 17.85 17.6 16.59C17.51 16.54 17.42 16.5 17.32 16.51C17.32 16.51 17.32 16.51 17.33 16.51V16.51z"
        transform="matrix(1,0,0,1,-3,3)"
  />
  <path style="fill:none; stroke:#1a171b; stroke-opacity:0.4; stroke-width:4; stroke-linecap:round; stroke-linejoin:round"
        d="M35.89 8.72C33.14 8.98 30.4 9.24 27.65 9.49C27.65 20.1 27.65 30.71 27.65 41.32C30.37 40.95 33.08 40.58 35.8 40.21C35.8 35.67 35.8 31.14 35.8 26.6C39.42 31.62 43.04 36.64 46.66 41.66C49.5 40.8 52.34 39.95 55.18 39.09C51.46 34.27 47.75 29.45 44.04 24.64C47.78 20.07 51.52 15.51 55.27 10.95C52.37 10.32 49.47 9.69 46.57 9.06C42.98 13.63 39.39 18.19 35.8 22.75C35.83 18.08 35.86 13.4 35.89 8.72C35.89 8.72 35.89 8.72 35.89 8.72V8.72z"
        transform="matrix(1,0,0,1,3,0)"
  />
  <path style="fill:none; stroke:#003f80; stroke-width:4.5; stroke-linecap:round; stroke-linejoin:round"
        d="M35.89 8.72C33.14 8.98 30.4 9.24 27.65 9.49C27.65 20.1 27.65 30.71 27.65 41.32C30.37 40.95 33.08 40.58 35.8 40.21C35.8 35.67 35.8 31.14 35.8 26.6C39.42 31.62 43.04 36.64 46.66 41.66C49.5 40.8 52.34 39.95 55.18 39.09C51.46 34.27 47.75 29.45 44.04 24.64C47.78 20.07 51.52 15.51 55.27 10.95C52.37 10.32 49.47 9.69 46.57 9.06C42.98 13.63 39.39 18.19 35.8 22.75C35.83 18.08 35.86 13.4 35.89 8.72C35.89 8.72 35.89 8.72 35.89 8.72V8.72z"
        transform="matrix(1,0,0,1,1,-2)"
  />
  <linearGradient id="gradient1" gradientUnits="userSpaceOnUse" x1="164.98" y1="7.51" x2="164.98" y2="55.9">
   <stop offset="0" stop-color="#abd5ff"/>
   <stop offset="1" stop-color="#006cd9"/>
  </linearGradient>
  <path style="fill:url(#gradient1)"
        d="M35.89 8.72C33.14 8.98 30.4 9.24 27.65 9.49C27.65 20.1 27.65 30.71 27.65 41.32C30.37 40.95 33.08 40.58 35.8 40.21C35.8 35.67 35.8 31.14 35.8 26.6C39.42 31.62 43.04 36.64 46.66 41.66C49.5 40.8 52.34 39.95 55.18 39.09C51.46 34.27 47.75 29.45 44.04 24.64C47.78 20.07 51.52 15.51 55.27 10.95C52.37 10.32 49.47 9.69 46.57 9.06C42.98 13.63 39.39 18.19 35.8 22.75C35.83 18.08 35.86 13.4 35.89 8.72C35.89 8.72 35.89 8.72 35.89 8.72V8.72z"
        transform="matrix(1,0,0,1,1,-2)"
  />
 </g>
</svg>
