<?xml version="1.0" encoding="UTF-8" standalone="yes"?>
<svg version="1.1" width="64" height="64" color-interpolation="linearRGB"
     xmlns:svg="http://www.w3.org/2000/svg" xmlns="http://www.w3.org/2000/svg">
 <g>
  <path style="fill:#010101; fill-opacity:0.4156"
        d="M32 60L56 56L64 44L54 33L35 37L32 60z"
  />
  <path style="fill:none; stroke:#010101; stroke-width:4; stroke-linecap:round; stroke-linejoin:bevel"
        d="M22.08 5.4C25.58 4.93 29.07 4.44 32.56 3.96C33.19 3.88 33.81 4.08 34.42 4.19C37.3 4.73 40.18 5.28 43.06 5.83C43.48 5.92 43.91 5.95 44.31 6.1C44.74 6.4 45.07 6.83 45.47 7.17C46.65 8.33 47.81 9.49 48.98 10.66C49.22 10.9 49.48 11.12 49.68 11.4C48.1 13.24 46.5 15.06 44.92 16.91C44.71 17.14 44.48 17.4 44.15 17.43C39.6 18.22 35.05 18.98 30.51 19.78C29.99 19.89 29.49 19.68 28.99 19.56C25.5 18.69 22 17.83 18.51 16.97C17.99 16.83 17.45 16.76 16.95 16.55C16.8 16.41 16.73 16.21 16.64 16.03C15.82 14.17 14.88 12.37 14.08 10.5C16.25 8.88 18.52 7.37 20.72 5.77C21.1 5.46 21.62 5.48 22.08 5.4V5.4V5.4z
           M13.91 10.72C14.42 11.46 14.7 12.34 15.11 13.14C15.61 14.13 16.04 15.15 16.53 16.14C16.65 16.39 16.83 16.6 17.01 16.8C16.59 17.23 16.45 17.82 16.27 18.37C13.72 25.45 11.17 32.54 8.61 39.62C8.38 39.07 8.25 38.47 8.1 37.89C7.28 34.85 6.47 31.8 5.64 28.77C5.53 28.27 5.22 27.72 5.5 27.22C6.6 25.09 7.64 22.92 8.78 20.81C9.97 18.43 11.14 16.04 12.4 13.69C12.91 12.7 13.35 11.68 13.91 10.72V10.72V10.72z
           M48.93 12.51C49.21 12.18 49.47 11.82 49.81 11.55C52.81 17.35 55.8 23.17 58.8 28.98C58.97 29.25 59 29.58 58.81 29.85C57.63 31.87 56.48 33.9 55.31 35.92C54.27 37.71 53.28 39.52 52.19 41.28C51.81 40.81 51.68 40.21 51.51 39.64C49.22 32.26 46.88 24.89 44.6 17.51C46.04 15.84 47.48 14.17 48.93 12.51V12.51V12.51z
           M17.01 16.8C17.81 16.95 18.59 17.17 19.38 17.37C22.66 18.17 25.94 18.95 29.21 19.8C29.54 19.88 29.87 19.94 30.21 19.95C30.11 20.13 30.01 20.32 29.99 20.53C29.83 21.8 29.99 23.08 29.85 24.35C29.72 25.55 29.86 26.76 29.73 27.97C29.61 29.1 29.74 30.24 29.62 31.37C29.55 32.11 29.55 32.87 29.56 33.61C29.58 34.47 29.43 35.32 29.44 36.18C29.44 36.98 29.46 37.79 29.38 38.59C29.26 39.75 29.39 40.93 29.26 42.09C29.16 43.04 29.23 43.99 29.2 44.94C29.19 45.54 29 46.16 29.24 46.74C29.25 46.77 29.26 46.8 29.26 46.83C27.07 45.98 24.81 45.33 22.62 44.51C21.01 43.98 19.41 43.45 17.83 42.87C16.49 42.43 15.15 42 13.84 41.5C12.41 41.02 10.98 40.58 9.57 40.05C9.25 39.91 8.86 39.89 8.61 39.62C11.17 32.54 13.72 25.45 16.27 18.37C16.45 17.82 16.59 17.23 17.01 16.8V16.8V16.8z
           M32.86 19.54C36.77 18.86 40.69 18.2 44.6 17.51C46.88 24.89 49.22 32.26 51.51 39.64C51.68 40.21 51.81 40.81 52.19 41.28C52.14 41.37 52.1 41.46 52.06 41.56C49.7 42.02 47.37 42.62 45.02 43.13C39.76 44.33 34.5 45.54 29.24 46.74C29 46.16 29.19 45.54 29.2 44.94C29.23 43.99 29.16 43.04 29.26 42.09C29.39 40.93 29.26 39.75 29.38 38.59C29.46 37.79 29.44 36.98 29.44 36.18C29.43 35.32 29.58 34.47 29.56 33.61C29.55 32.87 29.55 32.11 29.62 31.37C29.74 30.24 29.61 29.1 29.73 27.97C29.86 26.76 29.72 25.55 29.85 24.35C29.99 23.08 29.83 21.8 29.99 20.53C30.01 20.32 30.11 20.13 30.21 19.95C31.1 19.88 31.98 19.66 32.86 19.54V19.54V19.54z
           M45.02 43.13C47.37 42.62 49.7 42.02 52.06 41.56C52.1 41.59 52.17 41.65 52.21 41.68C52.02 41.88 51.82 42.07 51.59 42.24C45.12 47.45 38.68 52.71 32.2 57.91C32 57.71 31.8 57.49 31.74 57.2C31.4 55.89 31.13 54.56 30.79 53.25C30.28 51.11 29.67 48.99 29.26 46.83C29.26 46.8 29.25 46.77 29.24 46.74C34.5 45.54 39.76 44.33 45.02 43.13V43.13V43.13z
           M9 40L30 47L32 58L9 40z"
  />
  <radialGradient id="gradient0" gradientUnits="userSpaceOnUse" cx="0" cy="0" r="64" gradientTransform="matrix(0.5937,0,0,0.4531,25,7.9999)">
   <stop offset="0.0018" stop-color="#ffffff"/>
   <stop offset="0.4943" stop-color="#c7eeff"/>
   <stop offset="1" stop-color="#8fc9dc"/>
  </radialGradient>
  <path style="fill:url(#gradient0)"
        d="M22.08 5.4C25.58 4.93 29.07 4.44 32.56 3.96C33.19 3.88 33.81 4.08 34.42 4.19C37.3 4.73 40.18 5.28 43.06 5.83C43.48 5.92 43.91 5.95 44.31 6.1C44.74 6.4 45.07 6.83 45.47 7.17C46.65 8.33 47.81 9.49 48.98 10.66C49.22 10.9 49.48 11.12 49.68 11.4C48.1 13.24 46.5 15.06 44.92 16.91C44.71 17.14 44.48 17.4 44.15 17.43C39.6 18.22 35.05 18.98 30.51 19.78C29.99 19.89 29.49 19.68 28.99 19.56C25.5 18.69 22 17.83 18.51 16.97C17.99 16.83 17.45 16.76 16.95 16.55C16.8 16.41 16.73 16.21 16.64 16.03C15.82 14.17 14.88 12.37 14.08 10.5C16.25 8.88 18.52 7.37 20.72 5.77C21.1 5.46 21.62 5.48 22.08 5.4V5.4V5.4z"
  />
  <linearGradient id="gradient1" gradientUnits="userSpaceOnUse" x1="7.49" y1="-11.03" x2="43.41" y2="11.7">
   <stop offset="0" stop-color="#ffffff"/>
   <stop offset="1" stop-color="#71b2c7"/>
  </linearGradient>
  <path style="fill:url(#gradient1)"
        d="M13.91 10.72C14.42 11.46 14.7 12.34 15.11 13.14C15.61 14.13 16.04 15.15 16.53 16.14C16.65 16.39 16.83 16.6 17.01 16.8C16.59 17.23 16.45 17.82 16.27 18.37C13.72 25.45 11.17 32.54 8.61 39.62C8.38 39.07 8.25 38.47 8.1 37.89C7.28 34.85 6.47 31.8 5.64 28.77C5.53 28.27 5.22 27.72 5.5 27.22C6.6 25.09 7.64 22.92 8.78 20.81C9.97 18.43 11.14 16.04 12.4 13.69C12.91 12.7 13.35 11.68 13.91 10.72V10.72V10.72z"
  />
  <linearGradient id="gradient2" gradientUnits="userSpaceOnUse" x1="39.78" y1="53.63" x2="19.53" y2="10.1">
   <stop offset="0" stop-color="#035975"/>
   <stop offset="1" stop-color="#77b7cd"/>
  </linearGradient>
  <path style="fill:url(#gradient2)"
        d="M48.93 12.51C49.21 12.18 49.47 11.82 49.81 11.55C52.81 17.35 55.8 23.17 58.8 28.98C58.97 29.25 59 29.58 58.81 29.85C57.63 31.87 56.48 33.9 55.31 35.92C54.27 37.71 53.28 39.52 52.19 41.28C51.81 40.81 51.68 40.21 51.51 39.64C49.22 32.26 46.88 24.89 44.6 17.51C46.04 15.84 47.48 14.17 48.93 12.51V12.51V12.51z"
  />
  <linearGradient id="gradient3" gradientUnits="userSpaceOnUse" x1="-3" y1="2" x2="45" y2="2">
   <stop offset="0" stop-color="#c7f1ff"/>
   <stop offset="1" stop-color="#37a7cc"/>
  </linearGradient>
  <path style="fill:url(#gradient3)"
        d="M17.01 16.8C17.81 16.95 18.59 17.17 19.38 17.37C22.66 18.17 25.94 18.95 29.21 19.8C29.54 19.88 29.87 19.94 30.21 19.95C30.11 20.13 30.01 20.32 29.99 20.53C29.83 21.8 29.99 23.08 29.85 24.35C29.72 25.55 29.86 26.76 29.73 27.97C29.61 29.1 29.74 30.24 29.62 31.37C29.55 32.11 29.55 32.87 29.56 33.61C29.58 34.47 29.43 35.32 29.44 36.18C29.44 36.98 29.46 37.79 29.38 38.59C29.26 39.75 29.39 40.93 29.26 42.09C29.16 43.04 29.23 43.99 29.2 44.94C29.19 45.54 29 46.16 29.24 46.74C29.25 46.77 29.26 46.8 29.26 46.83C27.07 45.98 24.81 45.33 22.62 44.51C21.01 43.98 19.41 43.45 17.83 42.87C16.49 42.43 15.15 42 13.84 41.5C12.41 41.02 10.98 40.58 9.57 40.05C9.25 39.91 8.86 39.89 8.61 39.62C11.17 32.54 13.72 25.45 16.27 18.37C16.45 17.82 16.59 17.23 17.01 16.8V16.8V16.8z"
  />
  <linearGradient id="gradient4" gradientUnits="userSpaceOnUse" x1="28.66" y1="10.93" x2="55.81" y2="12.72">
   <stop offset="0" stop-color="#67d5ff"/>
   <stop offset="1" stop-color="#4c8fa7"/>
  </linearGradient>
  <path style="fill:url(#gradient4)"
        d="M32.86 19.54C36.77 18.86 40.69 18.2 44.6 17.51C46.88 24.89 49.22 32.26 51.51 39.64C51.68 40.21 51.81 40.81 52.19 41.28C52.14 41.37 52.1 41.46 52.06 41.56C49.7 42.02 47.37 42.62 45.02 43.13C39.76 44.33 34.5 45.54 29.24 46.74C29 46.16 29.19 45.54 29.2 44.94C29.23 43.99 29.16 43.04 29.26 42.09C29.39 40.93 29.26 39.75 29.38 38.59C29.46 37.79 29.44 36.98 29.44 36.18C29.43 35.32 29.58 34.47 29.56 33.61C29.55 32.87 29.55 32.11 29.62 31.37C29.74 30.24 29.61 29.1 29.73 27.97C29.86 26.76 29.72 25.55 29.85 24.35C29.99 23.08 29.83 21.8 29.99 20.53C30.01 20.32 30.11 20.13 30.21 19.95C31.1 19.88 31.98 19.66 32.86 19.54V19.54V19.54z"
  />
  <linearGradient id="gradient5" gradientUnits="userSpaceOnUse" x1="20.59" y1="64.13" x2="39.8" y2="29.04">
   <stop offset="0" stop-color="#046d94"/>
   <stop offset="1" stop-color="#095673"/>
  </linearGradient>
  <path style="fill:url(#gradient5)"
        d="M45.02 43.13C47.37 42.62 49.7 42.02 52.06 41.56C52.1 41.59 52.17 41.65 52.21 41.68C52.02 41.88 51.82 42.07 51.59 42.24C45.12 47.45 38.68 52.71 32.2 57.91C32 57.71 31.8 57.49 31.74 57.2C31.4 55.89 31.13 54.56 30.79 53.25C30.28 51.11 29.67 48.99 29.26 46.83C29.26 46.8 29.25 46.77 29.24 46.74C34.5 45.54 39.76 44.33 45.02 43.13V43.13V43.13z"
  />
  <path style="fill:#04719a"
        d="M9 40L30 47L32 58L9 40z"
  />
  <radialGradient id="gradient6" gradientUnits="userSpaceOnUse" cx="0" cy="0" r="64" gradientTransform="matrix(0.2656,0,0,0.3125,12,7)">
   <stop offset="0" stop-color="#ffffff" stop-opacity="0.949"/>
   <stop offset="1" stop-color="#ffffff" stop-opacity="0"/>
  </radialGradient>
  <path style="fill:none; stroke:url(#gradient6); stroke-width:2"
        d="M4 9L12 8L13 1L14 8L29 9L14 10L13 23L12 10L4 9z"
        transform="matrix(1,0,0,1,2,4)"
  />
 </g>
</svg>
