<?xml version="1.0" encoding="UTF-8" standalone="yes"?>
<svg version="1.1" width="64" height="64" color-interpolation="linearRGB"
     xmlns:svg="http://www.w3.org/2000/svg" xmlns="http://www.w3.org/2000/svg">
 <g>
  <path style="fill:#010101; fill-opacity:0.4509"
        d="M31.84 63.37C36.07 63.55 40.31 63.74 44.54 63.93C49.63 58.42 54.73 52.91 59.82 47.4C57.8 45.76 55.78 44.13 53.76 42.5C46.46 49.46 39.14 56.42 31.84 63.37V63.37z"
  />
  <path style="fill:none; stroke:#000000; stroke-width:5; stroke-linecap:round; stroke-linejoin:round"
        d="M4.79 18.02C4.79 27.97 4.79 37.91 4.79 47.86C13.62 51.72 22.47 55.58 31.31 59.46C37.94 54.49 44.56 49.51 51.19 44.53C51.19 34.59 51.19 24.65 51.19 14.7C42.36 11.95 33.51 9.18 24.67 6.42C18.04 10.29 11.42 14.15 4.79 18.02V18.02z"
  />
  <linearGradient id="gradient0" gradientUnits="userSpaceOnUse" x1="29.88" y1="11.23" x2="45.82" y2="52.87">
   <stop offset="0" stop-color="#ffffff"/>
   <stop offset="1" stop-color="#7e7e7e"/>
  </linearGradient>
  <path style="fill:url(#gradient0)"
        d="M4.79 18.02C4.79 27.97 4.79 37.91 4.79 47.86C13.62 51.72 22.47 55.58 31.31 59.46C31.31 48.96 31.31 38.47 31.31 27.97C22.47 24.65 13.62 21.34 4.79 18.02V18.02z"
  />
  <linearGradient id="gradient1" gradientUnits="userSpaceOnUse" x1="32.14" y1="-39.66" x2="74.42" y2="-16.99">
   <stop offset="0" stop-color="#ffffff"/>
   <stop offset="1" stop-color="#ebefff"/>
  </linearGradient>
  <path style="fill:url(#gradient1)"
        d="M4.79 18.02C13.62 21.34 22.47 24.65 31.31 27.97C37.94 23.54 44.56 19.12 51.19 14.7C42.36 11.95 33.51 9.18 24.67 6.42C18.04 10.29 11.42 14.15 4.79 18.02V18.02z"
  />
  <linearGradient id="gradient2" gradientUnits="userSpaceOnUse" x1="61.91" y1="52.28" x2="45.86" y2="24.61">
   <stop offset="0" stop-color="#4c4c4c"/>
   <stop offset="1" stop-color="#909090"/>
  </linearGradient>
  <path style="fill:url(#gradient2)"
        d="M31.31 27.97C31.31 38.47 31.31 48.96 31.31 59.46C37.94 54.49 44.56 49.51 51.19 44.53C51.19 34.59 51.19 24.65 51.19 14.7C44.56 19.12 37.94 23.54 31.31 27.97V27.97z"
  />
  <path style="fill:#000000"
        d="M32 16C23.15 16 16 23.15 16 32C16 40.83 23.15 48 32 48C40.83 48 48 40.83 48 32C48 23.15 40.83 16 32 16z"
        transform="matrix(0.2499,0,0,0.125,20,12)"
  />
  <path style="fill:#000000"
        d="M32 16C23.15 16 16 23.15 16 32C16 40.83 23.15 48 32 48C40.83 48 48 40.83 48 32C48 23.15 40.83 16 32 16z"
        transform="matrix(0.2499,0,0,0.125,7,13)"
  />
  <path style="fill:#000000"
        d="M32 16C23.15 16 16 23.15 16 32C16 40.83 23.15 48 32 48C40.83 48 48 40.83 48 32C48 23.15 40.83 16 32 16z"
        transform="matrix(0.2499,0,0,0.125,22,19)"
  />
  <path style="fill:#000000"
        d="M32 16C23.15 16 16 23.15 16 32C16 40.83 23.15 48 32 48C40.83 48 48 40.83 48 32C48 23.15 40.83 16 32 16z"
        transform="matrix(0.2499,0,0,0.125,33,11)"
  />
  <path style="fill:#000000"
        d="M32 16C23.15 16 16 23.15 16 32C16 40.83 23.15 48 32 48C40.83 48 48 40.83 48 32C48 23.15 40.83 16 32 16z"
        transform="matrix(0.2187,0,0,0.125,19.5,6)"
  />
  <path style="fill:#000000"
        d="M32 16C23.15 16 16 23.15 16 32C16 40.83 23.15 48 32 48C40.83 48 48 40.83 48 32C48 23.15 40.83 16 32 16z"
        transform="matrix(0.1864,-0.0199,0.0266,0.2485,10.1818,30.6846)"
  />
  <path style="fill:#000000"
        d="M32 16C23.15 16 16 23.15 16 32C16 40.83 23.15 48 32 48C40.83 48 48 40.83 48 32C48 23.15 40.83 16 32 16z"
        transform="matrix(0.1533,0.0419,-0.0684,0.2278,33.7846,40.3674)"
  />
  <path style="fill:#000000"
        d="M32 16C23.15 16 16 23.15 16 32C16 40.83 23.15 48 32 48C40.83 48 48 40.83 48 32C48 23.15 40.83 16 32 16z"
        transform="matrix(0.1533,0.0419,-0.0684,0.2278,38.7846,28.3675)"
  />
  <path style="fill:#000000"
        d="M32 16C23.15 16 16 23.15 16 32C16 40.83 23.15 48 32 48C40.83 48 48 40.83 48 32C48 23.15 40.83 16 32 16z"
        transform="matrix(0.1533,0.0419,-0.0684,0.2278,43.7846,16.3675)"
  />
 </g>
</svg>
