<?xml version="1.0" encoding="UTF-8" standalone="yes"?>
<svg version="1.1" width="64" height="64" color-interpolation="linearRGB"
     xmlns:svg="http://www.w3.org/2000/svg" xmlns="http://www.w3.org/2000/svg">
 <g>
  <path style="fill:#000000; fill-opacity:0.4117"
        d="M38 63C38 63 56 63 57 62C57.75 61.22 64 51 64 51L27 40L38 63z"
  />
  <path style="fill:#000000"
        d="M19.64 1.73C21.79 1.1 24.37 0.19 26.78 0.5C34.68 1.64 42.58 2.63 50.47 3.85C52.98 4.7 54.23 7.55 54 10.05C53.66 22.47 52.92 34.83 52.5 47.24C52.3 49.42 52.72 51.99 50.99 53.69C49.77 54.78 48.54 55.86 47.28 56.89C47.33 56.66 47.39 56.44 47.44 56.21C47.45 56.17 47.46 56.12 47.47 56.07C47.97 54.3 48.81 17.82 48.69 14.81C48.71 14.55 48.74 14.03 48.76 13.76C48.83 12.8 49.04 11.78 48.77 10.81C48.75 10.75 48.73 10.62 48.71 10.56C48.72 9 47.9 7.59 46.86 6.5C47.27 5.57 48.35 4.9 48.42 3.85C43.93 3.03 39.34 2.58 34.81 1.91C31.99 1.57 28.74 0.5 26.21 2.4C25.1 2.66 23.95 2.19 22.82 2.21C22.77 2.19 22.73 2.16 22.69 2.14C22.46 2.13 21.99 2.08 21.74 2.05C21.04 1.92 20.36 1.8 19.64 1.73V1.73z
           M19.06 1.93C19.97 2 20.86 2.13 21.74 2.19C21.83 2.21 21.97 2.29 22.02 2.32C22.27 2.45 22.57 2.45 22.83 2.35C23.35 2.48 23.88 2.53 24.42 2.58C24.6 2.77 24.87 2.77 25.1 2.68C25.16 2.69 25.31 2.72 25.37 2.74C25.61 2.95 25.95 2.93 26.22 2.82C26.28 2.85 26.42 2.88 26.5 2.9C26.73 3.11 27.06 3.08 27.34 2.98C27.4 3 27.53 3.03 27.61 3.05C27.86 3.27 28.17 3.24 28.46 3.16C28.5 3.18 28.52 3.19 28.57 3.21C28.79 3.43 29.12 3.4 29.41 3.3C29.49 3.32 29.61 3.37 29.69 3.38C29.92 3.58 30.24 3.55 30.52 3.46C30.6 3.48 30.74 3.5 30.81 3.53C30.99 3.74 31.25 3.72 31.5 3.63C31.56 3.64 31.7 3.69 31.76 3.69C32 3.9 32.32 3.88 32.6 3.79C32.68 3.8 32.81 3.84 32.89 3.85C33.05 4.05 33.33 4.04 33.56 3.95C33.64 3.98 33.77 4 33.84 4.02C34.07 4.23 34.41 4.2 34.69 4.11C34.75 4.11 34.9 4.15 34.97 4.18C35.2 4.39 35.51 4.37 35.8 4.27C35.88 4.27 36 4.31 36.07 4.33C36.25 4.52 36.52 4.52 36.76 4.43C36.83 4.46 36.98 4.49 37.03 4.5C37.27 4.71 37.59 4.68 37.89 4.58C37.96 4.59 38.08 4.62 38.16 4.64C38.32 4.84 38.6 4.84 38.83 4.75C38.96 4.77 39.17 4.8 39.27 4.8C39.45 5.01 39.73 5 39.97 4.91C40.02 4.93 40.17 4.96 40.24 4.96C40.41 5.17 40.69 5.15 40.92 5.08C41.01 5.08 41.24 5.11 41.35 5.12C41.51 5.34 41.8 5.33 42.03 5.24C42.1 5.24 42.24 5.28 42.31 5.3C42.54 5.5 42.88 5.49 43.16 5.39C43.23 5.4 43.36 5.43 43.44 5.44C43.59 5.64 43.88 5.64 44.1 5.57C44.41 5.64 44.71 5.71 45.01 5.75C45.42 5.96 45.78 6.2 46.2 6.37C46.23 6.39 46.25 6.4 46.28 6.43C46.48 6.68 46.66 6.93 46.82 7.2C45.35 8.55 43.08 8.81 41.98 10.5C40.5 10.24 39.64 8.36 38.01 8.29C29.78 6.9 21.53 5.49 13.3 4.05C12.83 3.88 11.86 4.14 12.67 4.55C21.11 6.33 29.73 7.43 38.13 9.48C39.72 10.63 40.6 12.74 40.94 14.66C41.35 19.24 41.02 23.85 41.38 28.44C41.38 38.7 41.72 48.97 41.48 59.23C41.4 59.74 40.96 60.97 41.69 61.17C43.39 59.69 45.08 58.16 46.83 56.71C46.74 56.95 46.65 57.16 46.53 57.38C46.14 57.72 45.46 57.92 45.38 58.49C45.4 58.71 45.31 58.79 45.12 58.74C44.7 58.66 44.25 59 44.26 59.45C44.26 59.49 44.25 59.51 44.25 59.55C44.19 59.58 44.05 59.66 44 59.7C43.5 59.72 42.89 60.22 42.82 60.72C42.85 60.99 42.74 61.06 42.51 60.99C42.22 60.85 42.06 61.22 41.99 61.44C41.53 61.95 40.74 62.27 40.08 62.23C39.74 62.07 39.44 62.06 39.14 62.22C38.34 62.17 37.51 61.67 36.77 61.33C36.65 61 36.41 60.81 36.03 60.97C34.47 60.43 32.64 59.81 31.32 58.93C31.37 58.57 30.96 58.51 30.78 58.76C27.82 57.64 24.85 56.32 21.9 55.05C21.9 55.01 21.89 54.98 21.88 54.93C21.96 54.57 21.51 54.51 21.36 54.76C20.45 54.5 19.37 54.13 18.56 53.59C18.5 53.27 18.17 53.07 17.88 53.28C17.29 53.24 16.65 52.92 16.19 52.51C16.08 52.09 15.8 51.65 15.31 51.62C14.97 51.65 14.92 51.24 14.87 50.99C14.8 50.66 14.8 50.16 14.37 50.15C14.32 50.05 14.24 49.89 14.22 49.8C14.25 49.51 14.19 49.22 13.95 49.03C13.93 48.77 13.87 48.5 13.8 48.24C13.79 48.2 13.78 48.16 13.76 48.12C13.73 47.86 13.66 47.36 13.61 47.1C13.61 47.06 13.6 47.01 13.57 46.99C13.56 46.66 13.56 46.34 13.55 46.01C13.61 45.79 13.6 45.54 13.47 45.36C13.43 45.04 13.43 44.74 13.41 44.44C13.38 44 13.37 43.54 13.31 43.12C13.25 42.67 13.2 42.23 13.11 41.78C13.11 41.52 13.09 41.01 13.07 40.76C13.05 40.31 13.05 39.86 12.99 39.42C12.99 39.34 12.97 39.2 12.95 39.13C12.92 38.69 12.92 38.24 12.82 37.81C12.79 37.57 12.69 37.09 12.65 36.86C12.63 36.81 12.63 36.76 12.62 36.73C12.62 36.3 12.61 35.9 12.61 35.49C12.59 35.03 12.57 34.59 12.5 34.17C12.45 33.57 12.39 32.99 12.32 32.4C12.31 32.13 12.3 31.87 12.29 31.61C12.36 31.35 12.31 31.06 12.18 30.83C12.16 30.56 12.15 30.29 12.13 30.01C12.11 29.42 12.07 28.82 12 28.22C12 28.19 12 28.14 12 28.11C11.98 27.87 11.92 27.39 11.89 27.15C11.82 26.56 11.74 25.98 11.67 25.37C11.66 25.11 11.65 24.58 11.65 24.31C11.63 23.79 11.67 23.27 11.54 22.77C11.53 22.73 11.53 22.69 11.51 22.63C11.5 22.38 11.48 22.12 11.41 21.88C11.37 21.39 11.35 20.91 11.33 20.42C11.39 20.21 11.36 19.98 11.2 19.79C11.19 19.52 11.18 19.27 11.18 19C11.16 18.51 11.18 18.03 11.07 17.56C11.04 17.33 10.95 16.87 10.92 16.62C10.91 16.58 10.89 16.52 10.88 16.49C10.87 16.03 10.87 15.59 10.87 15.15C10.91 14.76 10.87 14.41 10.76 14.04C10.74 13.98 10.73 13.83 10.7 13.75C10.67 13.15 10.62 12.54 10.56 11.93C10.55 11.81 10.55 11.59 10.54 11.48C10.59 11.25 10.55 11.03 10.42 10.86C10.41 10.43 10.39 10 10.37 9.56C10.33 8.61 10.2 7.64 10.37 6.68C10.37 6.4 10.45 6.14 10.6 5.9C10.72 5.71 10.85 5.52 10.85 5.28C10.82 5.07 10.91 4.91 11.09 4.81C11.37 4.71 11.57 4.5 11.69 4.24C11.86 4.08 12 3.95 12.18 3.82C12.32 3.76 12.48 3.71 12.61 3.66C12.87 3.69 13.1 3.6 13.26 3.43C14.54 3.08 15.87 2.87 17.11 2.45C17.23 2.43 17.42 2.38 17.52 2.37C18.04 2.27 18.54 2.08 19.06 1.93"
        transform="matrix(0.9371,0,0,0.9544,0.5207,1.9297)"
  />
  <path style="fill:#0446a8"
        d="M19.64 1.73C21.79 1.1 24.37 0.19 26.78 0.5C34.68 1.64 42.58 2.63 50.47 3.85C52.98 4.7 54.23 7.55 54 10.05C53.66 22.47 52.92 34.83 52.5 47.24C52.3 49.42 52.72 51.99 50.99 53.69C49.77 54.78 48.54 55.86 47.28 56.89C47.33 56.66 47.39 56.44 47.44 56.21C47.45 56.17 47.46 56.12 47.47 56.07C47.97 54.3 48.81 17.82 48.69 14.81C48.71 14.55 48.74 14.03 48.76 13.76C48.83 12.8 49.04 11.78 48.77 10.81C48.75 10.75 48.73 10.62 48.71 10.56C48.72 9 47.9 7.59 46.86 6.5C47.27 5.57 48.35 4.9 48.42 3.85C43.93 3.03 39.34 2.58 34.81 1.91C31.99 1.57 28.74 0.5 26.21 2.4C25.1 2.66 23.95 2.19 22.82 2.21C22.77 2.19 22.73 2.16 22.69 2.14C22.46 2.13 21.99 2.08 21.74 2.05C21.04 1.92 20.36 1.8 19.64 1.73V1.73z"
        transform="matrix(0.9371,0,0,0.9544,0.5207,1.9297)"
  />
  <path style="fill:#0446a8"
        d="M23 11.65C24.1 12.8 25.33 13.81 26.54 14.82C26.58 14.85 26.61 14.87 26.63 14.88C27.19 15.37 28 15.98 27.46 16.75C27.04 16.73 27.09 16.17 26.78 15.99C25.97 15.94 25.12 15.94 24.31 15.99C23.88 18.25 25.31 20.69 24.33 22.87C24.34 21.95 24.35 21 24.16 20.08C24.15 19.98 24.13 19.75 24.11 19.64C24.04 18.78 24.34 17.84 23.86 17.04C23.84 16.99 23.81 16.86 23.78 16.78C23.7 16.37 23.61 15.95 23.38 15.6C23.28 15.42 23.19 15.22 23.09 15.01C22.99 14.76 22.88 14.5 22.81 14.24C22.83 13.97 22.87 13.42 22.89 13.13C23 12.65 23 12.15 23 11.65V11.65z"
        transform="matrix(0.9371,0,0,0.9544,0.5207,1.9297)"
  />
  <path style="fill:#0446a8"
        d="M30.87 30.03C31.48 31.25 33.48 30.11 34.52 30.5C33.33 32.13 32.05 33.7 30.75 35.23C30.48 35.02 30.2 34.81 29.94 34.59C29.9 34.57 29.87 34.54 29.85 34.52C29 33.8 27.99 33.15 26.85 33.04C26.63 38.7 26.83 44.34 26.48 49.99C26.14 50.23 25.92 51.46 25.41 51.12C25.38 50.55 25.11 50.06 24.77 49.64C24.66 46.4 24.9 43.14 24.63 39.91C24.61 39.05 24.6 38.22 24.59 37.38C24.57 35.77 24.65 34.18 24.58 32.58C23.14 32.58 21.64 32.54 20.33 33.16C20.16 32.84 20.03 32.5 19.83 32.24C19.69 32 19.57 31.74 19.48 31.5C19.41 31.12 19.28 30.76 19.16 30.41C20.01 30.52 20.89 30.52 21.74 30.61C21.77 30.65 21.81 30.69 21.84 30.72C22.06 31.12 22.54 31.14 22.88 30.87C22.92 30.86 22.97 30.84 23 30.82C23.31 30.89 23.71 30.89 23.78 30.52C23.91 30.51 24.16 30.5 24.29 30.49C25.12 30.33 26.34 30.35 26.99 30.85C26.9 31.28 27.24 31.34 27.6 31.36C28.36 31.7 29.12 32.12 30 32.08C30.19 31.69 30.27 31.24 30.33 30.81C30.35 30.76 30.36 30.73 30.37 30.69C30.52 30.48 30.7 30.25 30.87 30.03V30.03z"
        transform="matrix(0.9371,0,0,0.9544,0.5207,1.9297)"
  />
  <linearGradient id="gradient0" gradientUnits="userSpaceOnUse" x1="-64" y1="-64" x2="64" y2="-64">
   <stop offset="0" stop-color="#d5f0ff"/>
   <stop offset="1" stop-color="#0580c0"/>
  </linearGradient>
  <path style="fill:url(#gradient0)"
        d="M26.21 2.4C28.74 0.5 31.99 1.57 34.81 1.91C39.34 2.58 43.93 3.03 48.42 3.85C48.35 4.9 47.27 5.57 46.86 6.5C47.9 7.59 48.72 9 48.71 10.56C48.28 9.01 47.73 7.34 46.28 6.43C46.25 6.4 46.23 6.39 46.2 6.37C45.91 5.97 45.53 5.64 45.01 5.75C44.71 5.71 44.41 5.64 44.1 5.57C43.95 5.34 43.66 5.36 43.44 5.44C43.36 5.43 43.23 5.4 43.16 5.39C42.92 5.18 42.58 5.2 42.31 5.3C42.24 5.28 42.1 5.24 42.03 5.24C41.86 5.02 41.58 5.04 41.35 5.12C41.24 5.11 41.01 5.08 40.92 5.08C40.74 4.87 40.47 4.87 40.24 4.96C40.17 4.96 40.02 4.93 39.97 4.91C39.78 4.71 39.5 4.71 39.27 4.8C39.17 4.8 38.96 4.77 38.83 4.75C38.67 4.55 38.39 4.55 38.16 4.64C38.08 4.62 37.96 4.59 37.89 4.58C37.65 4.37 37.31 4.4 37.03 4.5C36.98 4.49 36.83 4.46 36.76 4.43C36.58 4.23 36.3 4.24 36.07 4.33C36 4.31 35.88 4.27 35.8 4.27C35.55 4.05 35.24 4.08 34.97 4.18C34.9 4.15 34.75 4.11 34.69 4.11C34.46 3.9 34.12 3.93 33.84 4.02C33.77 4 33.64 3.98 33.56 3.95C33.4 3.76 33.1 3.76 32.89 3.85C32.81 3.84 32.68 3.8 32.6 3.79C32.38 3.58 32.03 3.6 31.76 3.69C31.7 3.69 31.56 3.64 31.5 3.63C31.32 3.43 31.02 3.45 30.81 3.53C30.74 3.5 30.6 3.48 30.52 3.46C30.29 3.26 29.97 3.29 29.69 3.38C29.61 3.37 29.49 3.32 29.41 3.3C29.16 3.1 28.85 3.11 28.57 3.21C28.52 3.19 28.5 3.18 28.46 3.16C28.22 2.93 27.89 2.96 27.61 3.05C27.53 3.03 27.4 3 27.34 2.98C27.1 2.77 26.76 2.8 26.5 2.9C26.42 2.88 26.28 2.85 26.22 2.82C25.99 2.61 25.64 2.64 25.37 2.74C25.31 2.72 25.16 2.69 25.1 2.68C24.94 2.46 24.64 2.48 24.42 2.58C23.88 2.53 23.35 2.48 22.83 2.35C22.83 2.3 22.82 2.26 22.82 2.21C23.95 2.19 25.1 2.66 26.21 2.4"
        transform="matrix(0.9371,0,0,0.9544,0.5207,1.9297)"
  />
  <linearGradient id="gradient1" gradientUnits="userSpaceOnUse" x1="-64" y1="-64" x2="64" y2="-64">
   <stop offset="0" stop-color="#d5f0ff"/>
   <stop offset="1" stop-color="#0580c0"/>
  </linearGradient>
  <path style="fill:url(#gradient1)"
        d="M26.63 14.88C26.67 14.88 26.72 14.87 26.75 14.87C26.82 14.87 26.87 14.86 26.94 14.85C27.26 15.18 27.6 15.5 27.95 15.83C28 16.11 27.95 16.4 27.74 16.61C27.59 16.78 27.61 17.01 27.61 17.23C27.6 17.28 27.59 17.34 27.57 17.39C27.48 17.58 27.45 17.79 27.45 18C27.45 18.04 27.45 18.1 27.44 18.14C27.37 18.74 27.33 19.36 27.32 19.97C27.31 20.22 27.29 20.48 27.26 20.72C27.29 21.35 26.73 22.58 27.77 22.4C28.24 22.85 28.67 22.19 27.89 22.35C28.09 22.24 28.27 22.15 28.48 22.07C28.58 22.06 28.79 22.03 28.9 22.02C29.66 21.98 30.45 21.96 31.2 21.76C31.26 21.75 31.4 21.73 31.49 21.72C31.84 21.75 32.2 21.81 32.55 21.87C32.56 21.91 32.57 21.96 32.59 22C33.54 24.24 35.5 25.92 36.57 28.11C36.09 28.99 35.07 29.52 34.84 30.52C34.85 30.91 34.53 31.1 34.28 31.31C34.04 31.48 33.84 31.69 33.73 31.95C33.71 32 33.68 32.03 33.65 32.07C33.45 32.26 33.23 32.47 33.09 32.72C33.02 32.8 32.92 32.99 32.84 33.06C32.64 33.24 32.4 33.42 32.31 33.69C32.15 34.15 31.83 34.53 31.44 34.83C31.24 34.94 31.08 35.07 31 35.28C30.73 35.75 30.25 35.16 30 34.94C30 34.85 29.96 34.69 29.94 34.59C30.2 34.81 30.48 35.02 30.75 35.23C32.05 33.7 33.33 32.13 34.52 30.5C33.48 30.11 31.48 31.25 30.87 30.03C30.7 30.25 30.52 30.48 30.37 30.69C30.42 30.48 30.48 30.25 30.52 30.03C30.76 29.84 30.89 29.54 30.83 29.24C30.89 29.02 30.97 28.83 31.01 28.61C31.28 28.5 31.38 28.23 31.32 27.96C31.5 27.45 31.67 26.92 31.86 26.4C32.08 26.03 32.5 25.22 31.34 25.66C29.96 25.52 28.57 25.24 27.17 25.24C26.76 27.06 27.09 29 26.99 30.85C26.34 30.35 25.12 30.33 24.29 30.49C24.36 30.04 24.41 29.61 24.37 29.19C24.32 28.62 24.27 28.07 24.23 27.5C24.25 26.7 24.35 25.88 24.41 25.08C23.04 25.03 21.67 25.31 20.37 25.67C20.32 25.67 20.26 25.69 20.22 25.7C19.75 25.64 19.78 26.48 20.2 26.54C20.23 26.58 20.24 26.61 20.27 26.63C20.5 27.36 20.63 28.12 21.07 28.75C21.09 28.79 21.11 28.83 21.12 28.86C21.26 29.48 21.51 30.03 21.74 30.61C20.89 30.52 20.01 30.52 19.16 30.41C19.28 30.76 19.41 31.12 19.48 31.5C19.37 31.37 19.27 31.24 19.17 31.11C19.08 31 19.01 30.86 19 30.69C18.9 30.08 18.6 29.52 18.24 29.02C18.24 29 18.22 28.96 18.21 28.92C18.07 28.45 17.87 27.99 17.61 27.56C17.61 27.5 17.6 27.48 17.59 27.42C17.6 27.23 17.52 27.01 17.33 26.96C17.32 26.91 17.29 26.88 17.27 26.85C17.15 26.5 17.04 26.11 16.79 25.84C16.66 25.71 16.61 25.53 16.61 25.37C16.64 25.15 16.58 24.96 16.37 24.87C16.36 24.85 16.34 24.81 16.33 24.76C16.2 24.4 16.04 24.04 15.87 23.73C15.86 23.67 15.83 23.63 15.82 23.6C15.8 23.4 15.69 23.25 15.54 23.14C15.37 23.01 15.3 22.86 15.33 22.63C15.37 22.39 15.26 22.17 15.06 22.02C15.04 22 15.01 21.97 15 21.92C14.48 20.98 15.39 21.47 15.97 21.58C16 21.59 16.03 21.6 16.08 21.61C16.59 21.83 17.03 22.14 17.04 22.74C17.06 22.79 17.07 22.85 17.08 22.89C17.09 23.12 17.26 23.37 17.51 23.32C17.75 23.33 17.99 23.33 18.21 23.33C18.65 23.31 19.11 23.31 19.54 23.22C19.6 23.21 19.63 23.2 19.69 23.19C20.03 23.2 20.4 23.15 20.74 23.08C20.88 23.06 21.13 23.02 21.26 23C21.5 22.99 21.98 22.94 22.21 22.91C22.26 22.89 22.32 22.88 22.37 22.87C22.61 22.85 23.07 22.78 23.29 22.75C23.36 22.74 23.4 22.74 23.46 22.73C24.73 22.65 23.91 20.95 24.16 20.08C24.35 21 24.34 21.95 24.33 22.87C25.31 20.69 23.88 18.25 24.31 15.99C25.12 15.94 25.97 15.94 26.78 15.99C27.09 16.17 27.04 16.73 27.46 16.75C28 15.98 27.19 15.37 26.63 14.88"
        transform="matrix(0.9371,0,0,0.9544,0.5207,1.9297)"
  />
  <path style="fill:#ebecf0"
        d="M22.69 11.33C22.64 12.3 22.66 13.28 22.71 14.24C22.61 14.43 22.6 14.62 22.69 14.82C22.83 15.16 23.02 15.63 23.37 15.76C23.26 16.07 23.39 16.36 23.53 16.61C23.49 16.83 23.57 17.32 23.81 17.33C23.83 17.38 23.84 17.44 23.85 17.49C23.92 17.88 23.44 18.97 23.96 19C23.96 19.22 23.97 19.42 23.98 19.63C23.73 20.62 24.48 22.08 23.46 22.73C23.4 22.74 23.36 22.74 23.29 22.75C23.07 22.56 22.44 22.5 22.37 22.87C22.32 22.88 22.26 22.89 22.21 22.91C21.98 22.72 21.33 22.63 21.26 23C21.13 23.02 20.88 23.06 20.74 23.08C20.48 22.91 19.77 22.79 19.69 23.19C19.63 23.2 19.6 23.21 19.54 23.22C19.15 23.24 18.35 22.95 18.21 23.33C17.99 23.33 17.75 23.33 17.51 23.32C17.6 23.1 17.28 22.82 17.08 22.89C17.07 22.85 17.06 22.79 17.04 22.74C17.35 22 16.81 21.51 16.08 21.61C16.03 21.6 16 21.59 15.97 21.58C15.67 21.17 15 21.09 14.51 21.08C14.63 21.37 14.56 21.89 15 21.92C15.01 21.97 15.04 22 15.06 22.02C14.92 22.22 15.06 22.69 15.33 22.63C15.3 22.86 15.37 23.01 15.54 23.14C15.35 23.32 15.57 23.74 15.82 23.6C15.83 23.63 15.86 23.67 15.87 23.73C15.87 24.11 15.88 24.62 16.33 24.76C16.34 24.81 16.36 24.85 16.37 24.87C16.23 25.02 16.38 25.45 16.61 25.37C16.61 25.53 16.66 25.71 16.79 25.84C16.87 26.21 16.85 26.71 17.27 26.85C17.29 26.88 17.32 26.91 17.33 26.96C17.17 27.11 17.36 27.51 17.59 27.42C17.6 27.48 17.61 27.5 17.61 27.56C17.63 28.04 17.74 28.65 18.21 28.92C18.22 28.96 18.24 29 18.24 29.02C18.24 29.62 18.62 30.24 19 30.69C19.01 30.86 19.08 31 19.17 31.11C19.17 31.56 19.39 32.32 19.83 32.4C19.86 32.74 20 33.23 20.31 33.41C20.28 33.74 20.96 33.55 20.75 33.26C20.99 33.2 21.19 33.09 21.4 33C21.53 33.17 22.02 33.19 22 32.91C22.27 32.92 22.53 32.9 22.79 32.86C23.34 32.93 23.87 32.93 24.42 32.91C24.42 33 24.44 33.17 24.44 33.25C24.14 33.33 24.14 34.06 24.44 34.15C24.42 35.23 24.42 36.3 24.45 37.39C24.5 40.26 24.24 43.53 24.6 46.17C24.69 47.24 24.37 48.97 24.77 49.64C24.89 50.19 25.03 51.17 25.45 51.4C25.77 51.88 26.07 50.86 26.37 50.66C27.25 50.58 26.62 49.33 26.79 48.84C26.87 47.16 26.83 45.47 26.84 43.77C27.34 42.28 26.83 39.89 26.96 38.14C27.09 36.54 26.9 34.95 27.02 33.35C27.17 33.5 27.47 33.59 27.64 33.48C27.73 33.5 27.87 33.54 27.96 33.57C27.84 33.9 28.37 34.13 28.6 33.96C28.9 34.19 29.16 34.59 29.61 34.51C29.51 34.72 29.79 35.05 30 34.94C30.25 35.16 30.73 35.75 31 35.28C31.26 35.47 31.61 35.06 31.44 34.83C31.83 34.53 32.15 34.15 32.31 33.69C32.62 33.8 33.01 33.36 32.84 33.06C32.92 32.99 33.02 32.8 33.09 32.72C33.43 32.85 33.82 32.4 33.65 32.07C33.68 32.03 33.71 32 33.73 31.95C34.03 32.03 34.46 31.61 34.28 31.31C34.53 31.1 34.85 30.91 34.84 30.52C35.49 29.71 36.53 29 36.74 27.97C35.56 25.86 33.99 23.98 32.59 22C32.57 21.96 32.56 21.91 32.55 21.87C32.77 21.37 31.49 21.48 31.49 21.72C31.4 21.73 31.26 21.75 31.2 21.76C30.45 21.69 29.47 21.67 28.9 22.02C28.79 22.03 28.58 22.06 28.48 22.07C28.08 22.02 27.71 22.14 27.34 22.2C27.29 21.71 27.28 21.21 27.26 20.72C27.29 20.48 27.31 20.22 27.32 19.97C27.51 19.5 27.56 18.9 27.44 18.14C27.45 18.1 27.45 18.04 27.45 18C27.74 18.04 27.74 17.53 27.57 17.39C27.59 17.34 27.6 17.28 27.61 17.23C27.89 17.24 27.9 16.77 27.74 16.61C27.95 16.4 28 16.11 27.95 15.83C27.98 15.3 27.39 14.95 26.94 14.85C26.87 14.86 26.82 14.87 26.75 14.87C26.87 14.66 26.62 14.29 26.38 14.37C26.36 14.33 26.33 14.3 26.29 14.25C26.41 13.95 25.98 13.59 25.71 13.8C25.62 13.74 25.49 13.62 25.41 13.56C25.31 13.03 24.77 12.59 24.24 12.48C24.16 12.43 24 12.31 23.94 12.25C24.04 11.97 23.65 11.56 23.36 11.66C23.34 11.6 23.32 11.55 23.29 11.5C23.44 11.17 22.86 11.39 22.69 11.33V11.33z
           M19.06 1.93C19.97 2 20.86 2.13 21.74 2.19C21.83 2.21 21.97 2.29 22.02 2.32C22.27 2.45 22.57 2.45 22.83 2.35C23.35 2.48 23.88 2.53 24.42 2.58C24.6 2.77 24.87 2.77 25.1 2.68C25.16 2.69 25.31 2.72 25.37 2.74C25.61 2.95 25.95 2.93 26.22 2.82C26.28 2.85 26.42 2.88 26.5 2.9C26.73 3.11 27.06 3.08 27.34 2.98C27.4 3 27.53 3.03 27.61 3.05C27.86 3.27 28.17 3.24 28.46 3.16C28.5 3.18 28.52 3.19 28.57 3.21C28.79 3.43 29.12 3.4 29.41 3.3C29.49 3.32 29.61 3.37 29.69 3.38C29.92 3.58 30.24 3.55 30.52 3.46C30.6 3.48 30.74 3.5 30.81 3.53C30.99 3.74 31.25 3.72 31.5 3.63C31.56 3.64 31.7 3.69 31.76 3.69C32 3.9 32.32 3.88 32.6 3.79C32.68 3.8 32.81 3.84 32.89 3.85C33.05 4.05 33.33 4.04 33.56 3.95C33.64 3.98 33.77 4 33.84 4.02C34.07 4.23 34.41 4.2 34.69 4.11C34.75 4.11 34.9 4.15 34.97 4.18C35.2 4.39 35.51 4.37 35.8 4.27C35.88 4.27 36 4.31 36.07 4.33C36.25 4.52 36.52 4.52 36.76 4.43C36.83 4.46 36.98 4.49 37.03 4.5C37.27 4.71 37.59 4.68 37.89 4.58C37.96 4.59 38.08 4.62 38.16 4.64C38.32 4.84 38.6 4.84 38.83 4.75C38.96 4.77 39.17 4.8 39.27 4.8C39.45 5.01 39.73 5 39.97 4.91C40.02 4.93 40.17 4.96 40.24 4.96C40.41 5.17 40.69 5.15 40.92 5.08C41.01 5.08 41.24 5.11 41.35 5.12C41.51 5.34 41.8 5.33 42.03 5.24C42.1 5.24 42.24 5.28 42.31 5.3C42.54 5.5 42.88 5.49 43.16 5.39C43.23 5.4 43.36 5.43 43.44 5.44C43.59 5.64 43.88 5.64 44.1 5.57C44.41 5.64 44.71 5.71 45.01 5.75C45.42 5.96 45.78 6.2 46.2 6.37C46.23 6.39 46.25 6.4 46.28 6.43C46.48 6.68 46.66 6.93 46.82 7.2C45.35 8.55 43.08 8.81 41.98 10.5C40.5 10.24 39.64 8.36 38.01 8.29C29.78 6.9 21.53 5.49 13.3 4.05C12.83 3.88 11.86 4.14 12.67 4.55C21.11 6.33 29.73 7.43 38.13 9.48C39.72 10.63 40.6 12.74 40.94 14.66C41.35 19.24 41.02 23.85 41.38 28.44C41.38 38.7 41.72 48.97 41.48 59.23C41.4 59.74 40.96 60.97 41.69 61.17C43.39 59.69 45.08 58.16 46.83 56.71C46.74 56.95 46.65 57.16 46.53 57.38C46.14 57.72 45.46 57.92 45.38 58.49C45.4 58.71 45.31 58.79 45.12 58.74C44.7 58.66 44.25 59 44.26 59.45C44.26 59.49 44.25 59.51 44.25 59.55C44.19 59.58 44.05 59.66 44 59.7C43.5 59.72 42.89 60.22 42.82 60.72C42.85 60.99 42.74 61.06 42.51 60.99C42.22 60.85 42.06 61.22 41.99 61.44C41.53 61.95 40.74 62.27 40.08 62.23C39.74 62.07 39.44 62.06 39.14 62.22C38.34 62.17 37.51 61.67 36.77 61.33C36.65 61 36.41 60.81 36.03 60.97C34.47 60.43 32.64 59.81 31.32 58.93C31.37 58.57 30.96 58.51 30.78 58.76C27.82 57.64 24.85 56.32 21.9 55.05C21.9 55.01 21.89 54.98 21.88 54.93C21.96 54.57 21.51 54.51 21.36 54.76C20.45 54.5 19.37 54.13 18.56 53.59C18.5 53.27 18.17 53.07 17.88 53.28C17.29 53.24 16.65 52.92 16.19 52.51C16.08 52.09 15.8 51.65 15.31 51.62C14.97 51.65 14.92 51.24 14.87 50.99C14.8 50.66 14.8 50.16 14.37 50.15C14.32 50.05 14.24 49.89 14.22 49.8C14.25 49.51 14.19 49.22 13.95 49.03C13.93 48.77 13.87 48.5 13.8 48.24C13.79 48.2 13.78 48.16 13.76 48.12C13.73 47.86 13.66 47.36 13.61 47.1C13.61 47.06 13.6 47.01 13.57 46.99C13.56 46.66 13.56 46.34 13.55 46.01C13.61 45.79 13.6 45.54 13.47 45.36C13.43 45.04 13.43 44.74 13.41 44.44C13.38 44 13.37 43.54 13.31 43.12C13.25 42.67 13.2 42.23 13.11 41.78C13.11 41.52 13.09 41.01 13.07 40.76C13.05 40.31 13.05 39.86 12.99 39.42C12.99 39.34 12.97 39.2 12.95 39.13C12.92 38.69 12.92 38.24 12.82 37.81C12.79 37.57 12.69 37.09 12.65 36.86C12.63 36.81 12.63 36.76 12.62 36.73C12.62 36.3 12.61 35.9 12.61 35.49C12.59 35.03 12.57 34.59 12.5 34.17C12.45 33.57 12.39 32.99 12.32 32.4C12.31 32.13 12.3 31.87 12.29 31.61C12.36 31.35 12.31 31.06 12.18 30.83C12.16 30.56 12.15 30.29 12.13 30.01C12.11 29.42 12.07 28.82 12 28.22C12 28.19 12 28.14 12 28.11C11.98 27.87 11.92 27.39 11.89 27.15C11.82 26.56 11.74 25.98 11.67 25.37C11.66 25.11 11.65 24.58 11.65 24.31C11.63 23.79 11.67 23.27 11.54 22.77C11.53 22.73 11.53 22.69 11.51 22.63C11.5 22.38 11.48 22.12 11.41 21.88C11.37 21.39 11.35 20.91 11.33 20.42C11.39 20.21 11.36 19.98 11.2 19.79C11.19 19.52 11.18 19.27 11.18 19C11.16 18.51 11.18 18.03 11.07 17.56C11.04 17.33 10.95 16.87 10.92 16.62C10.91 16.58 10.89 16.52 10.88 16.49C10.87 16.03 10.87 15.59 10.87 15.15C10.91 14.76 10.87 14.41 10.76 14.04C10.74 13.98 10.73 13.83 10.7 13.75C10.67 13.15 10.62 12.54 10.56 11.93C10.55 11.81 10.55 11.59 10.54 11.48C10.59 11.25 10.55 11.03 10.42 10.86C10.41 10.43 10.39 10 10.37 9.56C10.33 8.61 10.2 7.64 10.37 6.68C10.37 6.4 10.45 6.14 10.6 5.9C10.72 5.71 10.85 5.52 10.85 5.28C10.82 5.07 10.91 4.91 11.09 4.81C11.37 4.71 11.57 4.5 11.69 4.24C11.86 4.08 12 3.95 12.18 3.82C12.32 3.76 12.48 3.71 12.61 3.66C12.87 3.69 13.1 3.6 13.26 3.43C14.54 3.08 15.87 2.87 17.11 2.45C17.23 2.43 17.42 2.38 17.52 2.37C18.04 2.27 18.54 2.08 19.06 1.93"
        transform="matrix(0.9371,0,0,0.9544,0.5207,1.9297)"
  />
  <path style="fill:#ebecf0"
        d="M20.37 25.67C21.65 25.71 22.9 25.22 24.2 25.21C24.1 25.98 24.12 26.74 24.23 27.5C24.27 28.07 24.32 28.62 24.37 29.19C24.48 29.83 24.24 30.31 23.66 30.49C23.44 30.56 23.21 30.66 23 30.82C22.97 30.84 22.92 30.86 22.88 30.87C22.66 30.86 22.46 30.83 22.24 30.79C21.74 30.22 21.61 29.44 21.12 28.86C21.11 28.83 21.09 28.79 21.07 28.75C20.88 28.02 20.87 27.16 20.27 26.63C20.24 26.61 20.23 26.58 20.2 26.54C20.22 26.26 20.23 25.99 20.22 25.7C20.26 25.69 20.32 25.67 20.37 25.67V25.67z"
        transform="matrix(0.9371,0,0,0.9544,0.5207,1.9297)"
  />
  <path style="fill:#ebecf0"
        d="M27.34 25.4C28.86 25.52 30.37 25.76 31.88 25.88C31.87 26.06 31.87 26.24 31.86 26.4C31.67 26.92 31.5 27.45 31.32 27.96C31.07 28.08 30.96 28.36 31.01 28.61C30.97 28.83 30.89 29.02 30.83 29.24C30.54 29.41 30.42 29.73 30.52 30.03C30.48 30.25 30.42 30.48 30.37 30.69C30.36 30.73 30.35 30.76 30.33 30.81C30.01 31.26 29.99 32.24 29.23 31.83C29.22 31.57 28.98 31.41 28.73 31.49C28.41 31.46 28.09 31.41 27.76 31.37C27.53 31.14 27.1 31.04 27.15 30.66C27.23 28.92 26.95 27.11 27.34 25.4V25.4z"
        transform="matrix(0.9371,0,0,0.9544,0.5207,1.9297)"
  />
  <path style="fill:#b6b6c9"
        d="M12.67 4.55C11.86 4.14 12.83 3.88 13.3 4.05C21.53 5.49 29.78 6.9 38.01 8.29C39.64 8.36 40.5 10.24 41.98 10.5C43.08 8.81 45.35 8.55 46.82 7.2C46.66 6.93 46.48 6.68 46.28 6.43C47.73 7.34 48.28 9.01 48.71 10.56C48.73 10.62 48.75 10.75 48.77 10.81C48.74 11.8 48.74 12.79 48.76 13.76C48.74 14.03 48.71 14.55 48.69 14.81C48.5 20.32 48.42 25.84 48.27 31.35C48.24 31.86 48.23 32.35 48.21 32.88C48.04 36.62 47.84 40.38 47.96 44.13C47.94 44.31 47.92 44.5 47.9 44.7C47.69 46.3 47.74 47.95 47.8 49.55C47.78 49.82 47.74 50.34 47.73 50.6C47.5 52.43 47.7 54.26 47.47 56.07C47.46 56.12 47.45 56.17 47.44 56.21C47.15 56.54 47 56.98 46.81 57.38C46.74 57.41 46.55 57.48 46.49 57.5C46.5 57.47 46.51 57.43 46.53 57.38C46.65 57.16 46.74 56.95 46.83 56.71C45.08 58.16 43.39 59.69 41.69 61.17C40.96 60.97 41.4 59.74 41.48 59.23C41.72 48.97 41.38 38.7 41.38 28.44C41.02 23.85 41.35 19.24 40.94 14.66C40.6 12.74 39.72 10.63 38.13 9.48C29.73 7.43 21.11 6.33 12.67 4.55V4.55z"
        transform="matrix(0.9371,0,0,0.9544,0.5207,1.9297)"
  />
 </g>
</svg>
