<?xml version="1.0" encoding="UTF-8" standalone="yes"?>
<svg version="1.1" width="64" height="64" color-interpolation="linearRGB"
     xmlns:svg="http://www.w3.org/2000/svg" xmlns="http://www.w3.org/2000/svg">
 <g>
  <path style="fill:#000000; fill-opacity:0.4078"
        d="M31.81 5.44C17.08 5.44 5.14 17.37 5.14 32.1C5.14 46.83 17.08 58.77 31.81 58.77C46.53 58.77 58.48 46.83 58.48 32.1C58.48 17.37 46.53 5.44 31.81 5.44V5.44z"
        transform="matrix(0.8687,0,0,0.3249,12.676,42.6735)"
  />
  <path style="fill:none; stroke:#000000; stroke-width:7; stroke-linecap:round; stroke-linejoin:round"
        d="M31.81 5.44C17.08 5.44 5.14 17.37 5.14 32.1C5.14 46.83 17.08 58.77 31.81 58.77C46.53 58.77 58.48 46.83 58.48 32.1C58.48 17.37 46.53 5.44 31.81 5.44V5.44z"
        transform="matrix(1.0163,0,0,1,-0.0187,0)"
  />
  <path style="fill:#c87137"
        d="M31.81 5.44C17.08 5.44 5.14 17.37 5.14 32.1C5.14 46.83 17.08 58.77 31.81 58.77C46.53 58.77 58.48 46.83 58.48 32.1C58.48 17.37 46.53 5.44 31.81 5.44V5.44z"
        transform="matrix(1.0562,0,0,1.0374,-1.2896,-1.204)"
  />
  <path style="fill:#000000; fill-opacity:0.149"
        d="M58.47 31.44C58.48 31.66 58.49 31.88 58.49 32.1C58.49 46.88 46.59 58.77 31.82 58.77C17.04 58.77 5.15 46.88 5.15 32.1C5.15 31.88 5.16 31.66 5.16 31.44C5.51 45.9 17.27 57.44 31.82 57.44C46.37 57.44 58.11 45.9 58.47 31.44V31.44z"
        transform="matrix(1.0562,0,0,1.0374,-1.2896,-1.204)"
  />
  <linearGradient id="gradient0" gradientUnits="userSpaceOnUse" x1="23.53" y1="22.83" x2="44.11" y2="44.07">
   <stop offset="0" stop-color="#000000"/>
   <stop offset="1" stop-color="#000000" stop-opacity="0.5254"/>
  </linearGradient>
  <path style="fill:url(#gradient0)"
        d="M48.97 21.32C45.67 21 42.38 20.69 39.08 20.38C32.36 26 25.62 31.64 18.89 37.28C23.61 42.14 28.34 47 33.05 51.86C32.36 53.26 31.65 54.66 30.95 56.06C31.34 56.53 31.72 57.01 32.1 57.49C34.43 57.21 36.75 56.94 39.07 56.65C45.23 54.05 54.66 46.65 50.41 49.93C38.64 58.97 48.81 55.71 55.5 43.38C57.13 40.38 58.28 35.08 58.47 31.44C55.3 28.06 52.13 24.69 48.97 21.32V21.32z"
        transform="matrix(1.0562,0,0,1.0374,-1.2896,-1.204)"
  />
  <linearGradient id="gradient1" gradientUnits="userSpaceOnUse" x1="23.36" y1="57.33" x2="44.97" y2="13.33">
   <stop offset="0" stop-color="#cebee5"/>
   <stop offset="1" stop-color="#f1f1f1"/>
  </linearGradient>
  <path style="fill:url(#gradient1)"
        d="M27.47 12C27.47 12 31.73 14.92 32.02 16.57C32.02 16.57 41.04 13.72 48.97 21.32C47.63 21.32 46.3 21.32 44.97 21.32C44.97 21.32 55.45 27.88 55.63 31.99C55.45 31.88 53.7 30.97 52.97 30.65C52.97 30.65 55.51 36.52 53.57 42.25C49.96 49.1 43.2 55.08 33.32 55.99C30.67 56.23 33.32 55.99 30.65 55.99C30.65 53.32 30.65 50.65 30.65 47.99C31.54 47.99 32.44 47.99 33.32 47.99C33.32 46.65 33.32 45.32 33.32 43.99C37.59 43.78 38.63 33.58 32.97 30.65C32.97 30.65 29.39 35.68 25.18 36.17C25.18 36.17 24.68 40.49 19.6 37.75C18.24 37.01 17.74 34.61 19.11 32.66C19.47 32.14 19.83 31.62 20.19 31.1C20.19 31.1 23.76 22.52 26.3 19.99C26.3 19.99 27.63 15.99 26.3 13.32C26.3 13.32 27.81 14.45 28.3 15.32C28.3 15.32 27.96 12.48 27.47 11.99V12V12z"
        transform="matrix(1.0562,0,0,1.0374,-1.2896,-1.204)"
  />
  <path style="fill:#c6c3c7"
        d="M49.54 47.99C43.25 48 36.95 47.99 30.65 47.99C30.65 48.44 30.64 48.88 30.64 49.33C36.5 49.33 42.37 49.33 48.22 49.34C49.3 48.27 48.83 48.75 49.54 48C49.54 48 49.54 48 49.54 47.99V47.99z"
        transform="matrix(1.0562,0,0,1.0374,-1.2896,-1.204)"
  />
  <path style="fill:#c6c3c7"
        d="M52.58 43.99C46.3 44 39.61 44 33.32 44C33.32 44.44 33.32 44.88 33.32 45.33C39.45 45.33 45.56 45.33 51.68 45.33C52.5 44.11 52.13 44.68 52.58 43.99V43.99z"
        transform="matrix(1.0562,0,0,1.0374,-1.2896,-1.204)"
  />
 </g>
</svg>
