<?xml version="1.0" encoding="UTF-8" standalone="yes"?>
<svg version="1.1" width="64" height="64" color-interpolation="linearRGB"
     xmlns:svg="http://www.w3.org/2000/svg" xmlns="http://www.w3.org/2000/svg">
 <g>
  <path style="fill:#000000; fill-opacity:0.4196"
        d="M32 16C23.16 16 16 23.16 16 32C16 40.83 23.16 48 32 48C40.83 48 48 40.83 48 32C48 23.16 40.83 16 32 16z"
        transform="matrix(1.1875,0,0,0.4062,-3,40.5)"
  />
  <path style="fill:#000000; fill-opacity:0.4196"
        d="M32 16C23.16 16 16 23.16 16 32C16 40.83 23.16 48 32 48C40.83 48 48 40.83 48 32C48 23.16 40.83 16 32 16z"
        transform="matrix(1.25,0,0,0.375,4,32)"
  />
  <path style="fill:none; stroke:#000000; stroke-width:3.9996"
        d="M31.04 32.03C24.06 28.01 14.07 25.97 7.05 30.95C4.04 32.93 2.03 36.93 2.02 39.93C2 44.93 3.98 48.93 6.97 52.94C5.96 54.94 3.96 54.93 1.96 53.93C4.96 55.94 7.95 56.95 9.96 55.95C11.95 57.96 14.94 58.97 16.94 59.98C19.94 60.99 23.93 62.01 27.93 62.02C33.93 62.04 38.94 60.06 40.96 55.07C44.99 46.09 38.03 36.06 31.04 32.03V32.03V32.03z"
        transform="matrix(0.8513,0,0,0.8437,5.1318,6.0034)"
  />
  <radialGradient id="gradient0" gradientUnits="userSpaceOnUse" cx="0" cy="0" r="64" gradientTransform="matrix(-0.1588,0.2657,-0.439,-0.2624,13.6465,37.066)">
   <stop offset="0" stop-color="#ffffff"/>
   <stop offset="0.7063" stop-color="#ffe405"/>
   <stop offset="1" stop-color="#ffa405"/>
  </radialGradient>
  <path style="fill:url(#gradient0)"
        d="M31 32C24 28 14 26 7 31C4 33 2 37 2 40C2 45 4 49 7 53C6 55 4 55 2 54C5 56 8 57 10 56C12 58 15 59 17 60C20 61 24 62 28 62C34 62 39 60 41 55C45 46 38 36 31 32V32V32z"
        transform="matrix(0.8513,0,0,0.8437,5.1318,6.0034)"
  />
  <radialGradient id="gradient1" gradientUnits="userSpaceOnUse" cx="0" cy="0" r="64" gradientTransform="matrix(-0.1588,0.2657,-0.439,-0.2624,13.6465,37.066)">
   <stop offset="0" stop-color="#ffe405"/>
   <stop offset="1" stop-color="#ffa405"/>
  </radialGradient>
  <path style="fill:url(#gradient1)"
        d="M31 32C29 31 27 29 24.04 29.06C19 29 24 36 29 41C34 46 40 51 42 49C42 42 36 35 31 32V32V32z"
        transform="matrix(0.8513,0,0,0.8437,5.1318,6.0034)"
  />
  <path style="fill:none; stroke:#000000; stroke-width:2; stroke-linecap:square"
        d="M19 47C22 47 23 51 20 51C23 53 22 57 18 54
           M15 46C13 46 10 45 10 45C10 45 13 50 15 51"
        transform="matrix(0.8513,0,0,0.8437,5.1318,6.0034)"
  />
  <path style="fill:none; stroke:#000000; stroke-width:4"
        d="M54 37C58.2 34.86 62 32 62 26C62 18.32 57 10.31 50 6.3C42 1.3 30 0.31 23 5.3C17.78 9.02 17 16 19 21C22 30 33 36 42 38C45 39 48.54 38.84 51 38C53 43 56 47 60.25 48.2C58 47 55.2 41.86 54 37V37V37z"
        transform="matrix(0.8513,0,0,0.8437,5.1318,6.0034)"
  />
  <radialGradient id="gradient2" gradientUnits="userSpaceOnUse" cx="0" cy="0" r="64" gradientTransform="matrix(-0.2096,0.2949,-0.4074,-0.2896,34.229,11.689)">
   <stop offset="0" stop-color="#ffffff"/>
   <stop offset="0.7063" stop-color="#7fe583"/>
   <stop offset="1" stop-color="#04b10c"/>
  </radialGradient>
  <path style="fill:url(#gradient2)"
        d="M54 37C58.2 34.86 62 32 62 26C62 18.32 57 10.31 50 6.3C42 1.3 30 0.31 23 5.3C17.78 9.02 17 16 19 21C22 30 33 36 42 38C45 39 48.54 38.84 51 38C53 43 56 47 60.25 48.2C58 47 55.2 41.86 54 37V37V37z"
        transform="matrix(0.8513,0,0,0.8437,5.1318,6.0034)"
  />
  <path style="fill:none; stroke:#000000; stroke-width:2; stroke-linecap:square"
        d="M37 21C37 21 39 25 39 28C39 31 37 32 37 32
           M25.37 22.87C25.43 23.32 25.49 23.79 25.55 24.25
           M25 17.62C25 17.95 25 18.28 25 18.62
           M30 23C31.33 23.66 32.66 24.33 34 25"
        transform="matrix(0.8513,0,0,0.8437,5.1318,6.0034)"
  />
 </g>
</svg>
