<?xml version="1.0" encoding="UTF-8" standalone="yes"?>
<svg version="1.1" width="64" height="64" color-interpolation="linearRGB"
     xmlns:svg="http://www.w3.org/2000/svg" xmlns="http://www.w3.org/2000/svg">
 <g>
  <path style="fill:#010101; fill-opacity:0.4078"
        d="M29.54 2.81C34.22 2.41 38.99 3.17 43.31 5.03C50.02 7.86 55.54 13.34 58.43 20.02C60.02 23.66 60.85 27.64 60.77 31.6C60.88 35.76 59.86 39.89 58.15 43.65C55.98 48.32 52.54 52.38 48.28 55.29C45.41 57.27 42.16 58.69 38.78 59.53C34.61 60.53 30.21 60.61 26.01 59.7C20.79 58.59 15.89 56 12.06 52.27C7.15 47.64 4.02 41.19 3.35 34.48C3.33 33.4 3.14 32.32 3.2 31.23C3.26 28.92 3.53 26.6 4.11 24.35C5.4 19.21 8.2 14.46 12.03 10.78C16.73 6.23 23.02 3.36 29.54 2.81"
        transform="matrix(0.8256,0,0,0.4726,13.0766,35.1065)"
  />
  <path style="fill:none; stroke:#000000; stroke-width:5.5"
        d="M29.54 2.81C34.22 2.41 38.99 3.17 43.31 5.03C50.02 7.86 55.54 13.34 58.43 20.02C60.02 23.66 60.85 27.64 60.77 31.6C60.88 35.76 59.86 39.89 58.15 43.65C55.98 48.32 52.54 52.38 48.28 55.29C45.41 57.27 42.16 58.69 38.78 59.53C34.61 60.53 30.21 60.61 26.01 59.7C20.79 58.59 15.89 56 12.06 52.27C7.15 47.64 4.02 41.19 3.35 34.48C3.33 33.4 3.14 32.32 3.2 31.23C3.26 28.92 3.53 26.6 4.11 24.35C5.4 19.21 8.2 14.46 12.03 10.78C16.73 6.23 23.02 3.36 29.54 2.81"
        transform="matrix(0.8083,0,0,0.8722,5.1322,6.0264)"
  />
  <linearGradient id="gradient0" gradientUnits="userSpaceOnUse" x1="66.17" y1="-13.18" x2="81.22" y2="42.82">
   <stop offset="0" stop-color="#c8b3ff"/>
   <stop offset="1" stop-color="#5a478b"/>
  </linearGradient>
  <path style="fill:url(#gradient0)"
        d="M29.54 2.81C34.22 2.41 38.99 3.17 43.31 5.03C50.02 7.86 55.54 13.34 58.43 20.02C60.02 23.66 60.85 27.64 60.77 31.6C60.88 35.76 59.86 39.89 58.15 43.65C55.98 48.32 52.54 52.38 48.28 55.29C45.41 57.27 42.16 58.69 38.78 59.53C34.61 60.53 30.21 60.61 26.01 59.7C20.79 58.59 15.89 56 12.06 52.27C7.15 47.64 4.02 41.19 3.35 34.48C3.33 33.4 3.14 32.32 3.2 31.23C3.26 28.92 3.53 26.6 4.11 24.35C5.4 19.21 8.2 14.46 12.03 10.78C16.73 6.23 23.02 3.36 29.54 2.81"
        transform="matrix(0.8083,0,0,0.8722,5.1322,6.0264)"
  />
  <path style="fill:none; stroke:#000000; stroke-width:4.5; stroke-linecap:round; stroke-linejoin:round"
        d="M33.86 25.35C34.37 26.29 35.03 27.2 35.99 27.72C36.48 27.99 37.04 28.06 37.59 28.06C38.97 28.08 40.34 28.38 41.57 29.01C42.7 29.57 43.68 30.37 44.67 31.16C46.15 32.35 47.82 33.36 49.65 33.92C50.75 34.27 51.96 34.3 53.07 33.95C54.38 33.55 55.54 32.78 56.72 32.12C55.84 33.84 54.64 35.41 53.26 36.76C51.42 38.56 49.07 39.93 46.5 40.26C44.01 40.51 41.43 40.14 39.18 39.03C37.64 38.31 36.3 37.25 34.9 36.3C33.88 35.58 32.65 34.97 31.36 35.22C29.94 35.49 28.8 36.47 27.64 37.26C25.75 38.65 23.6 39.77 21.27 40.14C20.15 40.37 18.99 40.33 17.86 40.31C15.64 40.12 13.54 39.15 11.81 37.77C10.12 36.42 8.72 34.72 7.6 32.87C7.45 32.63 7.33 32.37 7.21 32.12C8.95 33.12 10.77 34.37 12.87 34.19C14.52 34.05 16.04 33.27 17.45 32.45C19.09 31.46 20.43 30.01 22.14 29.12C23.46 28.39 24.98 28.07 26.48 28.06C27.09 28.06 27.69 27.9 28.19 27.57C29.09 26.96 29.72 26.03 30.2 25.07C32 22 32 22 32 22C32 22 32 22 33.86 25.35z"
        transform="matrix(1.0899,0,0,1.0976,-3.338,1.2996)"
  />
  <linearGradient id="gradient1" gradientUnits="userSpaceOnUse" x1="62.28" y1="20.56" x2="61.21" y2="52.54">
   <stop offset="0" stop-color="#ffffff"/>
   <stop offset="1" stop-color="#d2baff"/>
  </linearGradient>
  <path style="fill:url(#gradient1)"
        d="M33.86 25.35C34.37 26.29 35.03 27.2 35.99 27.72C36.48 27.99 37.04 28.06 37.59 28.06C38.97 28.08 40.34 28.38 41.57 29.01C42.7 29.57 43.68 30.37 44.67 31.16C46.15 32.35 47.82 33.36 49.65 33.92C50.75 34.27 51.96 34.3 53.07 33.95C54.38 33.55 55.54 32.78 56.72 32.12C55.84 33.84 54.64 35.41 53.26 36.76C51.42 38.56 49.07 39.93 46.5 40.26C44.01 40.51 41.43 40.14 39.18 39.03C37.64 38.31 36.3 37.25 34.9 36.3C33.88 35.58 32.65 34.97 31.36 35.22C29.94 35.49 28.8 36.47 27.64 37.26C25.75 38.65 23.6 39.77 21.27 40.14C20.15 40.37 18.99 40.33 17.86 40.31C15.64 40.12 13.54 39.15 11.81 37.77C10.12 36.42 8.72 34.72 7.6 32.87C7.45 32.63 7.33 32.37 7.21 32.12C8.95 33.12 10.77 34.37 12.87 34.19C14.52 34.05 16.04 33.27 17.45 32.45C19.09 31.46 20.43 30.01 22.14 29.12C23.46 28.39 24.98 28.07 26.48 28.06C27.09 28.06 27.69 27.9 28.19 27.57C29.09 26.96 29.72 26.03 30.2 25.07C32 22 32 22 32 22C32 22 32 22 33.86 25.35z"
        transform="matrix(1.0899,0,0,1.0976,-3.338,1.2996)"
  />
 </g>
</svg>
