<?xml version="1.0" encoding="UTF-8" standalone="yes"?>
<svg version="1.1" width="64" height="64" color-interpolation="linearRGB"
     xmlns:svg="http://www.w3.org/2000/svg" xmlns="http://www.w3.org/2000/svg">
 <g>
  <path style="fill:#000000; fill-opacity:0.4117"
        d="M38 63C38 63 56 63 57 62C57.76 61.22 64 51 64 51L27 40L38 63z"
  />
  <path style="fill:#000000"
        d="M19.65 1.74C21.8 1.11 24.37 0.19 26.79 0.51C34.68 1.64 42.59 2.63 50.47 3.86C52.98 4.7 54.23 7.56 54 10.05C53.66 22.47 52.92 34.84 52.51 47.24C52.31 49.42 52.72 51.99 50.99 53.69C49.78 54.79 48.55 55.87 47.29 56.89C47.34 56.66 47.39 56.44 47.44 56.21C47.45 56.17 47.46 56.12 47.47 56.08C47.97 54.31 48.82 17.82 48.69 14.82C48.71 14.55 48.75 14.03 48.77 13.77C48.84 12.8 49.05 11.78 48.78 10.82C48.76 10.76 48.73 10.63 48.71 10.57C48.72 9.01 47.9 7.6 46.87 6.5C47.28 5.57 48.36 4.9 48.42 3.85C43.93 3.04 39.35 2.58 34.82 1.91C31.99 1.58 28.74 0.5 26.21 2.41C25.1 2.67 23.95 2.2 22.82 2.22C22.78 2.19 22.73 2.17 22.69 2.15C22.46 2.13 21.99 2.08 21.75 2.05C21.05 1.92 20.36 1.8 19.65 1.74V1.74z
           M19.06 1.94C19.97 2 20.86 2.13 21.75 2.19C21.83 2.22 21.97 2.29 22.03 2.32C22.28 2.46 22.57 2.45 22.83 2.35C23.35 2.48 23.89 2.53 24.43 2.58C24.6 2.78 24.88 2.77 25.1 2.68C25.17 2.7 25.31 2.73 25.38 2.74C25.61 2.96 25.95 2.93 26.22 2.83C26.29 2.85 26.43 2.89 26.5 2.91C26.73 3.11 27.06 3.08 27.34 2.99C27.41 3 27.54 3.04 27.61 3.06C27.86 3.27 28.18 3.25 28.46 3.16C28.5 3.18 28.53 3.19 28.57 3.21C28.8 3.44 29.13 3.41 29.42 3.31C29.49 3.33 29.62 3.37 29.69 3.39C29.93 3.59 30.25 3.56 30.53 3.47C30.6 3.49 30.74 3.51 30.81 3.53C30.99 3.74 31.26 3.73 31.5 3.64C31.56 3.65 31.7 3.69 31.77 3.7C32 3.91 32.33 3.89 32.61 3.79C32.68 3.81 32.82 3.84 32.89 3.85C33.06 4.05 33.34 4.04 33.57 3.96C33.64 3.98 33.78 4 33.85 4.02C34.08 4.23 34.41 4.2 34.69 4.11C34.76 4.12 34.9 4.16 34.97 4.18C35.2 4.39 35.52 4.37 35.81 4.27C35.88 4.28 36.01 4.32 36.08 4.33C36.26 4.53 36.53 4.52 36.77 4.44C36.84 4.46 36.98 4.49 37.04 4.5C37.28 4.71 37.6 4.68 37.89 4.58C37.96 4.6 38.09 4.63 38.16 4.65C38.33 4.85 38.61 4.85 38.84 4.76C38.96 4.77 39.17 4.8 39.28 4.81C39.45 5.01 39.73 5 39.97 4.92C40.03 4.93 40.17 4.96 40.24 4.97C40.41 5.17 40.69 5.16 40.92 5.08C41.02 5.09 41.25 5.11 41.36 5.13C41.52 5.34 41.81 5.33 42.04 5.24C42.11 5.25 42.25 5.29 42.32 5.3C42.55 5.5 42.88 5.49 43.16 5.39C43.23 5.4 43.37 5.44 43.44 5.45C43.6 5.65 43.88 5.65 44.11 5.57C44.41 5.65 44.71 5.71 45.02 5.76C45.42 5.97 45.79 6.2 46.2 6.37C46.23 6.39 46.26 6.41 46.29 6.44C46.48 6.69 46.66 6.94 46.83 7.2C45.36 8.56 43.09 8.82 41.98 10.5C40.5 10.25 39.64 8.36 38.02 8.29C29.79 6.91 21.54 5.49 13.31 4.06C12.84 3.89 11.86 4.15 12.67 4.56C21.12 6.33 29.73 7.44 38.13 9.48C39.72 10.64 40.61 12.74 40.94 14.66C41.36 19.24 41.03 23.85 41.38 28.44C41.38 38.7 41.72 48.97 41.48 59.23C41.4 59.75 40.96 60.97 41.69 61.17C43.39 59.69 45.09 58.16 46.84 56.71C46.75 56.95 46.65 57.16 46.54 57.38C46.14 57.72 45.46 57.92 45.38 58.49C45.4 58.71 45.32 58.8 45.12 58.75C44.7 58.66 44.26 59.01 44.27 59.45C44.27 59.49 44.26 59.52 44.26 59.56C44.19 59.59 44.06 59.66 44 59.7C43.5 59.72 42.89 60.22 42.83 60.72C42.86 60.99 42.75 61.07 42.52 60.99C42.22 60.86 42.07 61.22 41.99 61.44C41.54 61.95 40.75 62.28 40.09 62.23C39.75 62.08 39.44 62.07 39.14 62.22C38.35 62.17 37.52 61.67 36.78 61.34C36.65 61 36.41 60.82 36.04 60.97C34.47 60.43 32.64 59.82 31.32 58.93C31.38 58.58 30.96 58.52 30.79 58.77C27.82 57.64 24.85 56.33 21.91 55.06C21.91 55.02 21.9 54.98 21.89 54.93C21.96 54.58 21.52 54.52 21.36 54.77C20.45 54.51 19.37 54.13 18.56 53.6C18.5 53.28 18.18 53.08 17.89 53.29C17.3 53.24 16.66 52.92 16.19 52.52C16.08 52.1 15.81 51.65 15.32 51.62C14.97 51.65 14.92 51.25 14.87 50.99C14.8 50.66 14.8 50.16 14.37 50.15C14.33 50.06 14.25 49.89 14.22 49.81C14.26 49.52 14.2 49.22 13.96 49.04C13.93 48.78 13.88 48.5 13.8 48.24C13.79 48.2 13.78 48.16 13.77 48.12C13.73 47.87 13.66 47.37 13.62 47.11C13.61 47.07 13.6 47.02 13.58 46.99C13.57 46.66 13.57 46.35 13.56 46.02C13.61 45.8 13.6 45.55 13.47 45.37C13.44 45.05 13.43 44.74 13.41 44.44C13.39 44 13.38 43.55 13.32 43.12C13.26 42.67 13.21 42.23 13.12 41.79C13.11 41.53 13.09 41.02 13.08 40.77C13.06 40.32 13.05 39.87 12.99 39.42C12.99 39.35 12.97 39.2 12.96 39.13C12.92 38.69 12.92 38.25 12.83 37.82C12.79 37.58 12.7 37.1 12.65 36.87C12.64 36.82 12.64 36.77 12.63 36.73C12.63 36.31 12.62 35.9 12.61 35.49C12.59 35.04 12.58 34.6 12.51 34.17C12.46 33.58 12.4 32.99 12.33 32.4C12.32 32.13 12.3 31.88 12.29 31.61C12.36 31.35 12.32 31.06 12.18 30.83C12.16 30.56 12.15 30.3 12.14 30.02C12.12 29.43 12.08 28.82 12.01 28.22C12.01 28.19 12 28.15 12 28.11C11.98 27.88 11.92 27.4 11.9 27.16C11.83 26.56 11.75 25.98 11.67 25.38C11.66 25.11 11.65 24.58 11.65 24.31C11.64 23.8 11.67 23.28 11.54 22.78C11.53 22.73 11.53 22.69 11.52 22.64C11.51 22.39 11.48 22.13 11.41 21.89C11.37 21.4 11.35 20.92 11.34 20.43C11.4 20.21 11.36 19.98 11.21 19.8C11.2 19.53 11.19 19.28 11.18 19.01C11.16 18.52 11.18 18.04 11.08 17.56C11.04 17.33 10.96 16.87 10.92 16.63C10.91 16.58 10.9 16.53 10.89 16.49C10.88 16.04 10.87 15.59 10.87 15.15C10.91 14.77 10.88 14.41 10.77 14.04C10.75 13.98 10.73 13.84 10.71 13.76C10.67 13.15 10.63 12.54 10.57 11.94C10.56 11.82 10.55 11.59 10.54 11.48C10.59 11.26 10.55 11.03 10.42 10.86C10.41 10.43 10.4 10 10.38 9.57C10.34 8.61 10.21 7.65 10.37 6.69C10.38 6.41 10.46 6.14 10.6 5.91C10.72 5.72 10.85 5.52 10.85 5.29C10.83 5.07 10.91 4.92 11.09 4.82C11.38 4.72 11.58 4.5 11.7 4.24C11.86 4.09 12.01 3.96 12.18 3.82C12.33 3.76 12.48 3.71 12.62 3.66C12.87 3.69 13.1 3.6 13.27 3.43C14.54 3.08 15.87 2.87 17.12 2.46C17.23 2.44 17.43 2.39 17.53 2.37C18.05 2.27 18.55 2.09 19.06 1.94"
        transform="matrix(0.9371,0,0,0.9544,0.5207,1.9297)"
  />
  <path style="fill:#7e0c0f"
        d="M19.65 1.74C21.8 1.11 24.37 0.19 26.79 0.51C34.68 1.64 42.59 2.63 50.47 3.86C52.98 4.7 54.23 7.56 54 10.05C53.66 22.47 52.92 34.84 52.51 47.24C52.31 49.42 52.72 51.99 50.99 53.69C49.78 54.79 48.55 55.87 47.29 56.89C47.34 56.66 47.39 56.44 47.44 56.21C47.45 56.17 47.46 56.12 47.47 56.08C47.97 54.31 48.82 17.82 48.69 14.82C48.71 14.55 48.75 14.03 48.77 13.77C48.84 12.8 49.05 11.78 48.78 10.82C48.76 10.76 48.73 10.63 48.71 10.57C48.72 9.01 47.9 7.6 46.87 6.5C47.28 5.57 48.36 4.9 48.42 3.85C43.93 3.04 39.35 2.58 34.82 1.91C31.99 1.58 28.74 0.5 26.21 2.41C25.1 2.67 23.95 2.2 22.82 2.22C22.78 2.19 22.73 2.17 22.69 2.15C22.46 2.13 21.99 2.08 21.75 2.05C21.05 1.92 20.36 1.8 19.65 1.74V1.74z"
        transform="matrix(0.9371,0,0,0.9544,0.5207,1.9297)"
  />
  <path style="fill:#7e0c0f"
        d="M23 11.65C24.1 12.8 25.33 13.82 26.55 14.83C26.58 14.85 26.61 14.87 26.64 14.89C27.19 15.37 28 15.98 27.46 16.76C27.05 16.73 27.09 16.18 26.79 15.99C25.97 15.95 25.13 15.95 24.31 15.99C23.89 18.26 25.31 20.69 24.33 22.88C24.34 21.95 24.35 21 24.17 20.08C24.16 19.98 24.14 19.76 24.12 19.65C24.05 18.79 24.34 17.84 23.86 17.05C23.84 16.99 23.81 16.86 23.79 16.79C23.7 16.38 23.62 15.96 23.39 15.6C23.29 15.42 23.19 15.22 23.09 15.02C22.99 14.77 22.89 14.5 22.81 14.24C22.83 13.97 22.87 13.42 22.9 13.14C23 12.65 23 12.15 23 11.65V11.65z"
        transform="matrix(0.9371,0,0,0.9544,0.5207,1.9297)"
  />
  <path style="fill:#7e0c0f"
        d="M30.87 30.04C31.48 31.26 33.48 30.11 34.53 30.51C33.34 32.13 32.06 33.7 30.76 35.23C30.48 35.03 30.2 34.82 29.94 34.6C29.91 34.58 29.88 34.55 29.85 34.53C29 33.81 27.99 33.15 26.85 33.05C26.64 38.7 26.83 44.35 26.48 49.99C26.15 50.23 25.93 51.46 25.42 51.12C25.39 50.56 25.11 50.07 24.78 49.64C24.67 46.4 24.91 43.14 24.64 39.91C24.61 39.06 24.6 38.22 24.59 37.38C24.57 35.78 24.66 34.18 24.58 32.59C23.15 32.59 21.65 32.55 20.33 33.16C20.17 32.85 20.04 32.51 19.83 32.24C19.69 32 19.57 31.75 19.48 31.5C19.42 31.13 19.29 30.77 19.17 30.42C20.02 30.53 20.9 30.53 21.75 30.62C21.78 30.66 21.81 30.69 21.84 30.72C22.06 31.13 22.55 31.15 22.89 30.88C22.93 30.86 22.97 30.84 23.01 30.82C23.31 30.9 23.71 30.9 23.79 30.53C23.92 30.52 24.17 30.5 24.3 30.49C25.13 30.33 26.34 30.35 26.99 30.85C26.91 31.29 27.25 31.34 27.6 31.36C28.36 31.7 29.13 32.12 30 32.09C30.19 31.69 30.28 31.25 30.33 30.81C30.35 30.77 30.36 30.73 30.38 30.69C30.53 30.48 30.7 30.26 30.87 30.04V30.04z"
        transform="matrix(0.9371,0,0,0.9544,0.5207,1.9297)"
  />
  <path style="fill:#b9655d"
        d="M26.21 2.41C28.74 0.5 31.99 1.58 34.82 1.91C39.35 2.58 43.93 3.04 48.42 3.85C48.36 4.9 47.28 5.57 46.87 6.5C47.9 7.6 48.72 9.01 48.71 10.57C48.29 9.02 47.73 7.34 46.29 6.44C46.26 6.41 46.23 6.39 46.2 6.37C45.91 5.98 45.54 5.64 45.02 5.76C44.71 5.71 44.41 5.65 44.11 5.57C43.95 5.35 43.66 5.36 43.44 5.45C43.37 5.44 43.23 5.4 43.16 5.39C42.92 5.18 42.59 5.2 42.32 5.3C42.25 5.29 42.11 5.25 42.04 5.24C41.87 5.03 41.59 5.04 41.36 5.13C41.25 5.11 41.02 5.09 40.92 5.08C40.75 4.87 40.47 4.88 40.24 4.97C40.17 4.96 40.03 4.93 39.97 4.92C39.79 4.71 39.51 4.72 39.28 4.81C39.17 4.8 38.96 4.77 38.84 4.76C38.67 4.55 38.39 4.56 38.16 4.65C38.09 4.63 37.96 4.6 37.89 4.58C37.65 4.38 37.32 4.41 37.04 4.5C36.98 4.49 36.84 4.46 36.77 4.44C36.59 4.23 36.31 4.24 36.08 4.33C36.01 4.32 35.88 4.28 35.81 4.27C35.56 4.06 35.24 4.08 34.97 4.18C34.9 4.16 34.76 4.12 34.69 4.11C34.46 3.9 34.12 3.93 33.85 4.02C33.78 4 33.64 3.98 33.57 3.96C33.4 3.76 33.11 3.76 32.89 3.85C32.82 3.84 32.68 3.81 32.61 3.79C32.38 3.58 32.04 3.6 31.77 3.7C31.7 3.69 31.56 3.65 31.5 3.64C31.32 3.44 31.03 3.45 30.81 3.53C30.74 3.51 30.6 3.49 30.53 3.47C30.3 3.26 29.97 3.29 29.69 3.39C29.62 3.37 29.49 3.33 29.42 3.31C29.17 3.1 28.85 3.12 28.57 3.21C28.53 3.19 28.5 3.18 28.46 3.16C28.22 2.94 27.9 2.97 27.61 3.06C27.54 3.04 27.41 3 27.34 2.99C27.1 2.78 26.77 2.81 26.5 2.91C26.43 2.89 26.29 2.85 26.22 2.83C25.99 2.62 25.65 2.65 25.38 2.74C25.31 2.73 25.17 2.7 25.1 2.68C24.94 2.47 24.65 2.49 24.43 2.58C23.89 2.53 23.35 2.48 22.83 2.35C22.83 2.31 22.82 2.26 22.82 2.22C23.95 2.2 25.1 2.67 26.21 2.41"
        transform="matrix(0.9371,0,0,0.9544,0.5207,1.9297)"
  />
  <path style="fill:#b9655d"
        d="M26.64 14.89C26.68 14.89 26.72 14.88 26.76 14.87C26.82 14.87 26.88 14.86 26.94 14.85C27.27 15.18 27.6 15.51 27.95 15.84C28 16.12 27.95 16.41 27.75 16.62C27.59 16.79 27.61 17.02 27.62 17.23C27.6 17.29 27.59 17.34 27.57 17.4C27.48 17.58 27.45 17.8 27.45 18C27.45 18.05 27.45 18.1 27.44 18.15C27.37 18.75 27.33 19.36 27.32 19.97C27.31 20.22 27.3 20.48 27.27 20.72C27.3 21.35 26.73 22.58 27.78 22.41C28.24 22.85 28.68 22.19 27.9 22.35C28.09 22.25 28.28 22.16 28.48 22.07C28.58 22.06 28.8 22.04 28.91 22.03C29.67 21.98 30.45 21.96 31.2 21.77C31.27 21.76 31.41 21.73 31.49 21.72C31.84 21.76 32.2 21.81 32.56 21.87C32.57 21.92 32.58 21.96 32.6 22C33.55 24.25 35.5 25.93 36.58 28.11C36.1 28.99 35.08 29.53 34.85 30.53C34.86 30.92 34.54 31.1 34.29 31.31C34.05 31.48 33.85 31.69 33.73 31.95C33.71 32 33.68 32.04 33.65 32.08C33.45 32.27 33.23 32.47 33.1 32.72C33.03 32.81 32.92 32.99 32.85 33.07C32.64 33.24 32.4 33.42 32.32 33.69C32.15 34.15 31.83 34.54 31.44 34.84C31.25 34.94 31.08 35.08 31.01 35.29C30.73 35.76 30.26 35.16 30.01 34.94C30 34.86 29.96 34.69 29.94 34.6C30.2 34.82 30.48 35.03 30.76 35.23C32.06 33.7 33.34 32.13 34.53 30.51C33.48 30.11 31.48 31.26 30.87 30.04C30.7 30.26 30.53 30.48 30.38 30.69C30.43 30.48 30.48 30.26 30.53 30.04C30.77 29.84 30.9 29.55 30.83 29.24C30.9 29.03 30.97 28.83 31.02 28.62C31.29 28.5 31.39 28.23 31.32 27.96C31.51 27.45 31.68 26.93 31.86 26.41C32.09 26.04 32.51 25.22 31.34 25.67C29.96 25.53 28.57 25.24 27.18 25.25C26.77 27.06 27.09 29 26.99 30.85C26.34 30.35 25.13 30.33 24.3 30.49C24.36 30.05 24.42 29.62 24.37 29.19C24.32 28.63 24.28 28.07 24.23 27.51C24.26 26.7 24.35 25.89 24.42 25.08C23.05 25.04 21.68 25.31 20.37 25.68C20.32 25.68 20.27 25.69 20.22 25.7C19.76 25.65 19.79 26.48 20.2 26.55C20.23 26.58 20.25 26.61 20.28 26.64C20.5 27.36 20.64 28.13 21.07 28.76C21.09 28.8 21.11 28.83 21.13 28.86C21.27 29.48 21.52 30.04 21.75 30.62C20.9 30.53 20.02 30.53 19.17 30.42C19.29 30.77 19.42 31.13 19.48 31.5C19.38 31.38 19.28 31.25 19.18 31.12C19.08 31 19.02 30.86 19 30.69C18.91 30.08 18.6 29.53 18.25 29.03C18.24 29 18.22 28.96 18.21 28.93C18.07 28.45 17.88 27.99 17.61 27.56C17.61 27.51 17.6 27.48 17.59 27.43C17.6 27.23 17.53 27.02 17.33 26.96C17.32 26.92 17.3 26.89 17.28 26.85C17.16 26.5 17.05 26.12 16.8 25.84C16.67 25.71 16.61 25.54 16.62 25.37C16.65 25.16 16.58 24.96 16.38 24.88C16.36 24.85 16.34 24.81 16.33 24.77C16.2 24.41 16.05 24.05 15.87 23.73C15.86 23.68 15.84 23.64 15.83 23.6C15.81 23.41 15.7 23.26 15.54 23.15C15.38 23.02 15.3 22.86 15.34 22.64C15.38 22.4 15.27 22.18 15.07 22.03C15.04 22 15.02 21.97 15 21.93C14.48 20.98 15.4 21.47 15.97 21.58C16 21.59 16.04 21.6 16.08 21.61C16.59 21.83 17.04 22.15 17.05 22.75C17.06 22.8 17.07 22.85 17.08 22.9C17.09 23.13 17.27 23.37 17.52 23.32C17.76 23.33 17.99 23.33 18.21 23.33C18.66 23.31 19.11 23.31 19.55 23.22C19.6 23.21 19.64 23.2 19.69 23.19C20.04 23.2 20.41 23.16 20.75 23.08C20.89 23.06 21.14 23.03 21.27 23.01C21.5 22.99 21.98 22.94 22.21 22.92C22.27 22.9 22.32 22.89 22.38 22.88C22.61 22.85 23.07 22.79 23.3 22.76C23.36 22.75 23.41 22.74 23.46 22.73C24.73 22.66 23.92 20.95 24.17 20.08C24.35 21 24.34 21.95 24.33 22.88C25.31 20.69 23.89 18.26 24.31 15.99C25.13 15.95 25.97 15.95 26.79 15.99C27.09 16.18 27.05 16.73 27.46 16.76C28 15.98 27.19 15.37 26.64 14.89"
        transform="matrix(0.9371,0,0,0.9544,0.5207,1.9297)"
  />
  <path style="fill:#ebecf0"
        d="M22.69 11.34C22.65 12.31 22.67 13.28 22.71 14.25C22.61 14.44 22.6 14.63 22.69 14.83C22.83 15.16 23.03 15.64 23.37 15.77C23.27 16.07 23.4 16.36 23.54 16.62C23.49 16.83 23.57 17.32 23.81 17.33C23.83 17.39 23.84 17.44 23.85 17.49C23.93 17.89 23.44 18.97 23.96 19C23.96 19.22 23.97 19.43 23.98 19.64C23.73 20.63 24.48 22.08 23.46 22.73C23.41 22.74 23.36 22.75 23.3 22.76C23.07 22.56 22.44 22.5 22.38 22.88C22.32 22.89 22.27 22.9 22.21 22.92C21.98 22.72 21.33 22.64 21.27 23.01C21.14 23.03 20.89 23.06 20.75 23.08C20.48 22.92 19.78 22.8 19.69 23.19C19.64 23.2 19.6 23.21 19.55 23.22C19.16 23.24 18.35 22.95 18.21 23.33C17.99 23.33 17.76 23.33 17.52 23.32C17.6 23.1 17.29 22.82 17.08 22.9C17.07 22.85 17.06 22.8 17.05 22.75C17.35 22.01 16.81 21.52 16.08 21.61C16.04 21.6 16 21.59 15.97 21.58C15.67 21.18 15.01 21.09 14.52 21.08C14.64 21.38 14.57 21.9 15 21.93C15.02 21.97 15.04 22 15.07 22.03C14.92 22.22 15.07 22.69 15.34 22.64C15.3 22.86 15.38 23.02 15.54 23.15C15.35 23.32 15.58 23.74 15.83 23.6C15.84 23.64 15.86 23.68 15.87 23.73C15.88 24.11 15.89 24.63 16.33 24.77C16.34 24.81 16.36 24.85 16.38 24.88C16.23 25.03 16.39 25.45 16.62 25.37C16.61 25.54 16.67 25.71 16.8 25.84C16.87 26.21 16.85 26.71 17.28 26.85C17.3 26.89 17.32 26.92 17.33 26.96C17.18 27.11 17.36 27.52 17.59 27.43C17.6 27.48 17.61 27.51 17.61 27.56C17.64 28.05 17.75 28.66 18.21 28.93C18.22 28.96 18.24 29 18.25 29.03C18.24 29.63 18.63 30.24 19 30.69C19.02 30.86 19.08 31 19.18 31.12C19.18 31.56 19.4 32.33 19.83 32.4C19.86 32.75 20 33.23 20.31 33.41C20.29 33.74 20.96 33.56 20.76 33.27C20.99 33.2 21.19 33.1 21.41 33C21.54 33.17 22.03 33.19 22.01 32.91C22.28 32.92 22.54 32.9 22.8 32.87C23.34 32.93 23.88 32.93 24.43 32.91C24.43 33 24.44 33.17 24.44 33.26C24.15 33.34 24.15 34.07 24.44 34.15C24.43 35.23 24.43 36.31 24.45 37.39C24.51 40.27 24.24 43.54 24.6 46.17C24.69 47.24 24.38 48.97 24.78 49.64C24.9 50.19 25.04 51.17 25.45 51.4C25.78 51.88 26.07 50.87 26.37 50.66C27.26 50.59 26.63 49.34 26.8 48.85C26.88 47.16 26.83 45.47 26.84 43.78C27.34 42.29 26.83 39.89 26.96 38.14C27.09 36.55 26.91 34.95 27.03 33.36C27.18 33.51 27.47 33.6 27.65 33.48C27.73 33.5 27.88 33.55 27.96 33.58C27.84 33.9 28.37 34.13 28.6 33.96C28.91 34.19 29.17 34.6 29.61 34.52C29.52 34.72 29.8 35.06 30.01 34.94C30.26 35.16 30.73 35.76 31.01 35.29C31.27 35.47 31.62 35.07 31.44 34.84C31.83 34.54 32.15 34.15 32.32 33.69C32.62 33.81 33.02 33.37 32.85 33.07C32.92 32.99 33.03 32.81 33.1 32.72C33.43 32.86 33.83 32.4 33.65 32.08C33.68 32.04 33.71 32 33.73 31.95C34.04 32.04 34.46 31.62 34.29 31.31C34.54 31.1 34.86 30.92 34.85 30.53C35.49 29.71 36.54 29 36.74 27.97C35.57 25.86 33.99 23.98 32.6 22C32.58 21.96 32.57 21.92 32.56 21.87C32.78 21.37 31.49 21.48 31.49 21.72C31.41 21.73 31.27 21.76 31.2 21.77C30.45 21.69 29.47 21.68 28.91 22.03C28.8 22.04 28.58 22.06 28.48 22.07C28.08 22.03 27.71 22.15 27.34 22.2C27.3 21.71 27.29 21.21 27.27 20.72C27.3 20.48 27.31 20.22 27.32 19.97C27.52 19.5 27.56 18.91 27.44 18.15C27.45 18.1 27.45 18.05 27.45 18C27.75 18.05 27.75 17.54 27.57 17.4C27.59 17.34 27.6 17.29 27.62 17.23C27.9 17.24 27.91 16.78 27.75 16.62C27.95 16.41 28 16.12 27.95 15.84C27.98 15.31 27.4 14.96 26.94 14.85C26.88 14.86 26.82 14.87 26.76 14.87C26.88 14.66 26.63 14.29 26.39 14.38C26.36 14.34 26.33 14.3 26.3 14.26C26.42 13.96 25.98 13.59 25.71 13.8C25.63 13.74 25.49 13.63 25.42 13.57C25.31 13.03 24.78 12.59 24.25 12.48C24.17 12.43 24.01 12.32 23.94 12.26C24.05 11.97 23.66 11.57 23.36 11.66C23.34 11.6 23.32 11.55 23.3 11.5C23.44 11.17 22.86 11.4 22.69 11.34V11.34z
           M19.06 1.94C19.97 2 20.86 2.13 21.75 2.19C21.83 2.22 21.97 2.29 22.03 2.32C22.28 2.46 22.57 2.45 22.83 2.35C23.35 2.48 23.89 2.53 24.43 2.58C24.6 2.78 24.88 2.77 25.1 2.68C25.17 2.7 25.31 2.73 25.38 2.74C25.61 2.96 25.95 2.93 26.22 2.83C26.29 2.85 26.43 2.89 26.5 2.91C26.73 3.11 27.06 3.08 27.34 2.99C27.41 3 27.54 3.04 27.61 3.06C27.86 3.27 28.18 3.25 28.46 3.16C28.5 3.18 28.53 3.19 28.57 3.21C28.8 3.44 29.13 3.41 29.42 3.31C29.49 3.33 29.62 3.37 29.69 3.39C29.93 3.59 30.25 3.56 30.53 3.47C30.6 3.49 30.74 3.51 30.81 3.53C30.99 3.74 31.26 3.73 31.5 3.64C31.56 3.65 31.7 3.69 31.77 3.7C32 3.91 32.33 3.89 32.61 3.79C32.68 3.81 32.82 3.84 32.89 3.85C33.06 4.05 33.34 4.04 33.57 3.96C33.64 3.98 33.78 4 33.85 4.02C34.08 4.23 34.41 4.2 34.69 4.11C34.76 4.12 34.9 4.16 34.97 4.18C35.2 4.39 35.52 4.37 35.81 4.27C35.88 4.28 36.01 4.32 36.08 4.33C36.26 4.53 36.53 4.52 36.77 4.44C36.84 4.46 36.98 4.49 37.04 4.5C37.28 4.71 37.6 4.68 37.89 4.58C37.96 4.6 38.09 4.63 38.16 4.65C38.33 4.85 38.61 4.85 38.84 4.76C38.96 4.77 39.17 4.8 39.28 4.81C39.45 5.01 39.73 5 39.97 4.92C40.03 4.93 40.17 4.96 40.24 4.97C40.41 5.17 40.69 5.16 40.92 5.08C41.02 5.09 41.25 5.11 41.36 5.13C41.52 5.34 41.81 5.33 42.04 5.24C42.11 5.25 42.25 5.29 42.32 5.3C42.55 5.5 42.88 5.49 43.16 5.39C43.23 5.4 43.37 5.44 43.44 5.45C43.6 5.65 43.88 5.65 44.11 5.57C44.41 5.65 44.71 5.71 45.02 5.76C45.42 5.97 45.79 6.2 46.2 6.37C46.23 6.39 46.26 6.41 46.29 6.44C46.48 6.69 46.66 6.94 46.83 7.2C45.36 8.56 43.09 8.82 41.98 10.5C40.5 10.25 39.64 8.36 38.02 8.29C29.79 6.91 21.54 5.49 13.31 4.06C12.84 3.89 11.86 4.15 12.67 4.56C21.12 6.33 29.73 7.44 38.13 9.48C39.72 10.64 40.61 12.74 40.94 14.66C41.36 19.24 41.03 23.85 41.38 28.44C41.38 38.7 41.72 48.97 41.48 59.23C41.4 59.75 40.96 60.97 41.69 61.17C43.39 59.69 45.09 58.16 46.84 56.71C46.75 56.95 46.65 57.16 46.54 57.38C46.14 57.72 45.46 57.92 45.38 58.49C45.4 58.71 45.32 58.8 45.12 58.75C44.7 58.66 44.26 59.01 44.27 59.45C44.27 59.49 44.26 59.52 44.26 59.56C44.19 59.59 44.06 59.66 44 59.7C43.5 59.72 42.89 60.22 42.83 60.72C42.86 60.99 42.75 61.07 42.52 60.99C42.22 60.86 42.07 61.22 41.99 61.44C41.54 61.95 40.75 62.28 40.09 62.23C39.75 62.08 39.44 62.07 39.14 62.22C38.35 62.17 37.52 61.67 36.78 61.34C36.65 61 36.41 60.82 36.04 60.97C34.47 60.43 32.64 59.82 31.32 58.93C31.38 58.58 30.96 58.52 30.79 58.77C27.82 57.64 24.85 56.33 21.91 55.06C21.91 55.02 21.9 54.98 21.89 54.93C21.96 54.58 21.52 54.52 21.36 54.77C20.45 54.51 19.37 54.13 18.56 53.6C18.5 53.28 18.18 53.08 17.89 53.29C17.3 53.24 16.66 52.92 16.19 52.52C16.08 52.1 15.81 51.65 15.32 51.62C14.97 51.65 14.92 51.25 14.87 50.99C14.8 50.66 14.8 50.16 14.37 50.15C14.33 50.06 14.25 49.89 14.22 49.81C14.26 49.52 14.2 49.22 13.96 49.04C13.93 48.78 13.88 48.5 13.8 48.24C13.79 48.2 13.78 48.16 13.77 48.12C13.73 47.87 13.66 47.37 13.62 47.11C13.61 47.07 13.6 47.02 13.58 46.99C13.57 46.66 13.57 46.35 13.56 46.02C13.61 45.8 13.6 45.55 13.47 45.37C13.44 45.05 13.43 44.74 13.41 44.44C13.39 44 13.38 43.55 13.32 43.12C13.26 42.67 13.21 42.23 13.12 41.79C13.11 41.53 13.09 41.02 13.08 40.77C13.06 40.32 13.05 39.87 12.99 39.42C12.99 39.35 12.97 39.2 12.96 39.13C12.92 38.69 12.92 38.25 12.83 37.82C12.79 37.58 12.7 37.1 12.65 36.87C12.64 36.82 12.64 36.77 12.63 36.73C12.63 36.31 12.62 35.9 12.61 35.49C12.59 35.04 12.58 34.6 12.51 34.17C12.46 33.58 12.4 32.99 12.33 32.4C12.32 32.13 12.3 31.88 12.29 31.61C12.36 31.35 12.32 31.06 12.18 30.83C12.16 30.56 12.15 30.3 12.14 30.02C12.12 29.43 12.08 28.82 12.01 28.22C12.01 28.19 12 28.15 12 28.11C11.98 27.88 11.92 27.4 11.9 27.16C11.83 26.56 11.75 25.98 11.67 25.38C11.66 25.11 11.65 24.58 11.65 24.31C11.64 23.8 11.67 23.28 11.54 22.78C11.53 22.73 11.53 22.69 11.52 22.64C11.51 22.39 11.48 22.13 11.41 21.89C11.37 21.4 11.35 20.92 11.34 20.43C11.4 20.21 11.36 19.98 11.21 19.8C11.2 19.53 11.19 19.28 11.18 19.01C11.16 18.52 11.18 18.04 11.08 17.56C11.04 17.33 10.96 16.87 10.92 16.63C10.91 16.58 10.9 16.53 10.89 16.49C10.88 16.04 10.87 15.59 10.87 15.15C10.91 14.77 10.88 14.41 10.77 14.04C10.75 13.98 10.73 13.84 10.71 13.76C10.67 13.15 10.63 12.54 10.57 11.94C10.56 11.82 10.55 11.59 10.54 11.48C10.59 11.26 10.55 11.03 10.42 10.86C10.41 10.43 10.4 10 10.38 9.57C10.34 8.61 10.21 7.65 10.37 6.69C10.38 6.41 10.46 6.14 10.6 5.91C10.72 5.72 10.85 5.52 10.85 5.29C10.83 5.07 10.91 4.92 11.09 4.82C11.38 4.72 11.58 4.5 11.7 4.24C11.86 4.09 12.01 3.96 12.18 3.82C12.33 3.76 12.48 3.71 12.62 3.66C12.87 3.69 13.1 3.6 13.27 3.43C14.54 3.08 15.87 2.87 17.12 2.46C17.23 2.44 17.43 2.39 17.53 2.37C18.05 2.27 18.55 2.09 19.06 1.94"
        transform="matrix(0.9371,0,0,0.9544,0.5207,1.9297)"
  />
  <path style="fill:#ebecf0"
        d="M20.37 25.68C21.66 25.71 22.91 25.22 24.2 25.21C24.1 25.98 24.13 26.75 24.23 27.51C24.28 28.07 24.32 28.63 24.37 29.19C24.48 29.83 24.25 30.31 23.67 30.49C23.44 30.56 23.21 30.67 23.01 30.82C22.97 30.84 22.93 30.86 22.89 30.88C22.67 30.86 22.46 30.83 22.24 30.8C21.75 30.22 21.61 29.44 21.13 28.86C21.11 28.83 21.09 28.8 21.07 28.76C20.89 28.03 20.87 27.17 20.28 26.64C20.25 26.61 20.23 26.58 20.2 26.55C20.22 26.27 20.23 25.99 20.22 25.7C20.27 25.69 20.32 25.68 20.37 25.68V25.68z"
        transform="matrix(0.9371,0,0,0.9544,0.5207,1.9297)"
  />
  <path style="fill:#ebecf0"
        d="M27.34 25.41C28.86 25.53 30.37 25.77 31.89 25.89C31.88 26.06 31.88 26.24 31.86 26.41C31.68 26.93 31.51 27.45 31.32 27.96C31.07 28.08 30.96 28.36 31.02 28.62C30.97 28.83 30.9 29.03 30.83 29.24C30.55 29.42 30.43 29.73 30.53 30.04C30.48 30.26 30.43 30.48 30.38 30.69C30.36 30.73 30.35 30.77 30.33 30.81C30.02 31.27 29.99 32.24 29.23 31.83C29.22 31.57 28.98 31.42 28.73 31.49C28.42 31.46 28.09 31.42 27.77 31.37C27.54 31.15 27.1 31.05 27.16 30.67C27.23 28.93 26.95 27.11 27.34 25.41V25.41z"
        transform="matrix(0.9371,0,0,0.9544,0.5207,1.9297)"
  />
  <path style="fill:#b6b6c9"
        d="M12.67 4.56C11.86 4.15 12.84 3.89 13.31 4.06C21.54 5.49 29.79 6.91 38.02 8.29C39.64 8.36 40.5 10.25 41.98 10.5C43.09 8.82 45.36 8.56 46.83 7.2C46.66 6.94 46.48 6.69 46.29 6.44C47.73 7.34 48.29 9.02 48.71 10.57C48.73 10.63 48.76 10.76 48.78 10.82C48.74 11.8 48.74 12.79 48.77 13.77C48.75 14.03 48.71 14.55 48.69 14.82C48.5 20.32 48.42 25.84 48.28 31.35C48.25 31.86 48.23 32.36 48.21 32.88C48.05 36.62 47.85 40.38 47.96 44.13C47.94 44.32 47.92 44.5 47.9 44.7C47.69 46.31 47.75 47.95 47.81 49.56C47.79 49.83 47.75 50.35 47.73 50.61C47.51 52.43 47.7 54.27 47.47 56.08C47.46 56.12 47.45 56.17 47.44 56.21C47.15 56.55 47 56.98 46.82 57.38C46.74 57.41 46.56 57.48 46.49 57.5C46.5 57.47 46.52 57.43 46.54 57.38C46.65 57.16 46.75 56.95 46.84 56.71C45.09 58.16 43.39 59.69 41.69 61.17C40.96 60.97 41.4 59.75 41.48 59.23C41.72 48.97 41.38 38.7 41.38 28.44C41.03 23.85 41.36 19.24 40.94 14.66C40.61 12.74 39.72 10.64 38.13 9.48C29.73 7.44 21.12 6.33 12.67 4.56V4.56z"
        transform="matrix(0.9371,0,0,0.9544,0.5207,1.9297)"
  />
 </g>
</svg>
