<?xml version="1.0" encoding="UTF-8" standalone="yes"?>
<svg version="1.1" width="64" height="64" color-interpolation="linearRGB"
     xmlns:svg="http://www.w3.org/2000/svg" xmlns="http://www.w3.org/2000/svg">
 <g>
  <path style="fill:#4b4b4b"
        d="M20.85 1.24C23.92 0.24 28.04 -0.4 30.5 2.25C35.29 6.1 39.17 11.46 39.65 17.76C38.96 25.96 34.22 33.02 29.03 39.12C26.46 42.11 23.02 44.19 19.25 45.33C13.81 45.88 8.35 43.92 4.21 40.4C0.71 37.09 0.64 32.64 1.19 28.22C1.27 27.64 1.37 27.22 1.51 26.54C4 15.97 10.83 5.63 21.03 1.18
           M26.93 5.5C21.41 6.16 17.16 9.92 13.78 14.19C13.55 14.48 13.33 14.77 13.11 15.05C12.96 15.27 12.79 15.49 12.63 15.7C12 16.57 11.4 17.45 10.83 18.31C7.5 24.09 4.74 31.03 6.61 37.76C7.82 42.04 13.24 39.66 15.98 38.16C25.38 32 32.16 20.74 31.44 9.3C31.49 6.37 29.25 5.17 26.93 5.5z"
        transform="matrix(0.8745,0,0,0.7693,4.0246,0.9162)"
  />
  <path style="fill:none; stroke:#000000; stroke-width:2"
        d="M20.85 1.24C23.92 0.24 28.04 -0.4 30.5 2.25C35.29 6.1 39.17 11.46 39.65 17.76C38.96 25.96 34.22 33.02 29.03 39.12C26.46 42.11 23.02 44.19 19.25 45.33C13.81 45.88 8.35 43.92 4.21 40.4C0.71 37.09 0.64 32.64 1.19 28.22C1.27 27.64 1.37 27.22 1.51 26.54C4 15.97 10.83 5.63 21.03 1.18
           M26.93 5.5C21.41 6.16 17.16 9.92 13.78 14.19C13.55 14.48 13.33 14.77 13.11 15.05C12.96 15.27 12.79 15.49 12.63 15.7C12 16.57 11.4 17.45 10.83 18.31C7.5 24.09 4.74 31.03 6.61 37.76C7.82 42.04 13.24 39.66 15.98 38.16C25.38 32 32.16 20.74 31.44 9.3C31.49 6.37 29.25 5.17 26.93 5.5z"
        transform="matrix(0.8745,0,0,0.7693,4.0246,0.9162)"
  />
  <path style="fill:#5c5c5c"
        d="M55.12 27.51C58.66 26.83 61.83 30.4 62.66 33.58C63.02 37.02 59.03 40.18 55.8 40.15C53.87 38.34 51.56 36.95 50.65 34.23C49.94 31.05 53.63 29.15 55.54 27.27
           M55.51 29.65C55.19 32.13 58.04 36.51 60.72 35.16C61.1 32.39 58.45 29.5 55.51 29.65z"
        transform="matrix(0.8745,0,0,0.7693,4.0246,0.9162)"
  />
  <path style="fill:none; stroke:#000000; stroke-width:2"
        d="M55.12 27.51C58.66 26.83 61.83 30.4 62.66 33.58C63.02 37.02 59.03 40.18 55.8 40.15C53.87 38.34 51.56 36.95 50.65 34.23C49.94 31.05 53.63 29.15 55.54 27.27
           M55.51 29.65C55.19 32.13 58.04 36.51 60.72 35.16C61.1 32.39 58.45 29.5 55.51 29.65z"
        transform="matrix(0.8745,0,0,0.7693,4.0246,0.9162)"
  />
  <path style="fill:#686868"
        d="M54.88 44.65C57.31 45.43 59.94 47.69 60.3 50.4C60.3 54.06 57.69 57.26 54.61 58.99C51.51 60.33 47.66 58.26 46.2 55.44C51.92 57.7 57.76 49.73 54.88 44.65z"
        transform="matrix(0.8745,0,0,0.7693,4.0246,0.9162)"
  />
  <path style="fill:none; stroke:#000000; stroke-width:2"
        d="M54.88 44.65C57.31 45.43 59.94 47.69 60.3 50.4C60.3 54.06 57.69 57.26 54.61 58.99C51.51 60.33 47.66 58.26 46.2 55.44C51.92 57.7 57.76 49.73 54.88 44.65z"
        transform="matrix(0.8745,0,0,0.7693,4.0246,0.9162)"
  />
  <path style="fill:none; stroke:#595959; stroke-opacity:0.9529; stroke-width:2"
        d="M39.26 59.96L45.69 74.29C45.86 75.51 43.92 76.32 43.02 75.32L36.77 60.87L39.26 59.96z"
        transform="matrix(0.8745,0,0,0.7693,4.0246,0.9162)"
  />
  <path style="fill:#000000"
        d="M39.26 59.96L45.69 74.29C45.86 75.51 43.92 76.32 43.02 75.32L36.77 60.87L39.26 59.96z"
        transform="matrix(0.8745,0,0,0.7693,4.0246,0.9162)"
  />
  <path style="fill:none; stroke:#595959; stroke-opacity:0.9529; stroke-width:2"
        d="M35.44 60.94L32.47 79.45C32.1 80 31.5 79.92 31.39 79.9C31.25 79.88 30.81 79.72 30.64 79.26L32.83 60.39L35.44 60.94z"
        transform="matrix(0.8745,0,0,0.7693,4.0246,0.9162)"
  />
  <path style="fill:#000000"
        d="M35.44 60.94L32.47 79.45C32.1 80 31.5 79.92 31.39 79.9C31.25 79.88 30.81 79.72 30.64 79.26L32.83 60.39L35.44 60.94z"
        transform="matrix(0.8745,0,0,0.7693,4.0246,0.9162)"
  />
  <path style="fill:#000000; fill-opacity:0.4078"
        d="M39.56 63.54C52.82 63.54 63.24 67.44 63.24 72.41C63.24 77.37 52.82 81.27 39.56 81.27C26.31 81.27 15.9 77.37 15.9 72.41C15.9 67.44 26.31 63.54 39.56 63.54z"
        transform="matrix(0.8745,0,0,0.7693,4.0246,0.9162)"
  />
  <path style="fill:none; stroke:#595959; stroke-opacity:0.9529; stroke-width:2"
        d="M31.98 59.96L22.5 69.31C21.48 69.57 20.84 69 21.11 68.4L29.79 57.96L31.98 59.96z"
        transform="matrix(0.8745,0,0,0.7693,4.0246,0.9162)"
  />
  <path style="fill:#000000"
        d="M31.98 59.96L22.5 69.31C21.48 69.57 20.84 69 21.11 68.4L29.79 57.96L31.98 59.96z"
        transform="matrix(0.8745,0,0,0.7693,4.0246,0.9162)"
  />
  <linearGradient id="gradient0" gradientUnits="userSpaceOnUse" x1="-33.05" y1="37.42" x2="-1.17" y2="-10.39">
   <stop offset="0" stop-color="#000001"/>
   <stop offset="1" stop-color="#f6bb49"/>
  </linearGradient>
  <path style="fill:url(#gradient0)"
        d="M26.93 5.5C29.25 5.17 31.79 6.58 31.44 9.3C32.16 20.74 25.38 32 15.98 38.16C13.24 39.66 7.82 42.04 6.61 37.76C4.74 31.03 7.5 24.09 10.83 18.31C14.61 12.6 19.67 6.37 26.93 5.5
           M25.65 6.31C20.22 7.08 17.5 11.97 13.72 15.02C9.66 21.55 5.25 29.2 7.23 37.15C8.14 40.02 11.38 39.78 13.57 38.61C18.86 36.48 22.92 32.15 25.8 27.35C29.38 21.6 32.03 14.69 30.58 7.84C30.13 5.72 27.19 6.11 25.65 6.31z"
        transform="matrix(0.8745,0,0,0.7693,4.0246,0.9162)"
  />
  <linearGradient id="gradient1" gradientUnits="userSpaceOnUse" x1="-33.05" y1="37.42" x2="-1.17" y2="-10.39">
   <stop offset="0" stop-color="#000001"/>
   <stop offset="1" stop-color="#f6bb49"/>
  </linearGradient>
  <path style="fill:url(#gradient1)"
        d="M29.03 39.12C34.22 33.02 38.96 25.96 39.65 17.76C43.05 23.56 46.23 29.51 49.57 35.35C49.96 35 50.29 34.61 50.65 34.23C51.56 36.95 53.87 38.34 55.8 40.15C53.85 41.35 52.67 42.84 54.88 44.65C57.76 49.73 51.92 57.7 46.2 55.44C44.83 54.91 43.45 54.45 42.09 53.89L41.58 53.66C41.05 48.62 34.47 46.31 30.73 49.61C26.86 48.34 23.03 46.87 19.25 45.33C23.02 44.19 26.46 42.11 29.03 39.12"
        transform="matrix(0.8745,0,0,0.7693,4.0246,0.9162)"
  />
  <path style="fill:none; stroke:#000000; stroke-width:2"
        d="M29.03 39.12C34.22 33.02 38.96 25.96 39.65 17.76C43.05 23.56 46.23 29.51 49.57 35.35C49.96 35 50.29 34.61 50.65 34.23C51.56 36.95 53.87 38.34 55.8 40.15C53.85 41.35 52.67 42.84 54.88 44.65C57.76 49.73 51.92 57.7 46.2 55.44C44.83 54.91 43.45 54.45 42.09 53.89L41.58 53.66C41.05 48.62 34.47 46.31 30.73 49.61C26.86 48.34 23.03 46.87 19.25 45.33C23.02 44.19 26.46 42.11 29.03 39.12"
        transform="matrix(0.8745,0,0,0.7693,4.0246,0.9162)"
  />
  <linearGradient id="gradient2" gradientUnits="userSpaceOnUse" x1="-33.05" y1="37.42" x2="-1.17" y2="-10.39">
   <stop offset="0" stop-color="#000001"/>
   <stop offset="1" stop-color="#f6bb49"/>
  </linearGradient>
  <path style="fill:url(#gradient2)"
        d="M55.51 29.71C58.45 29.55 61.1 32.39 60.72 35.16C58.04 36.51 55.19 32.68 55.51 30.2
           M56.48 30.76C56.11 32.74 58.14 34.74 60.08 34.5C60.13 32.42 58.6 30.72 56.48 30.76z"
        transform="matrix(0.8745,0,0,0.7693,4.0246,0.9162)"
  />
  <radialGradient id="gradient3" gradientUnits="userSpaceOnUse" cx="0" cy="0" r="64" gradientTransform="matrix(0.3989,0.3337,-0.3692,0.4414,16.0502,9.6934)">
   <stop offset="0" stop-color="#ffffff" stop-opacity="0.996"/>
   <stop offset="1" stop-color="#05d3f9" stop-opacity="0.6196"/>
  </radialGradient>
  <path style="fill:url(#gradient3)"
        d="M25.65 6.31C27.19 6.11 30.13 5.72 30.58 7.84C32.03 14.69 29.38 21.6 25.8 27.35C22.92 32.15 18.86 36.48 13.57 38.61C11.38 39.78 8.14 40.02 7.23 37.15C5.25 29.2 9.66 21.55 13.72 15.02C17.5 11.97 20.22 7.08 25.65 6.31"
        transform="matrix(0.8745,0,0,0.7693,4.0246,0.9162)"
  />
  <radialGradient id="gradient4" gradientUnits="userSpaceOnUse" cx="0" cy="0" r="64" gradientTransform="matrix(0.3989,0.3337,-0.3692,0.4414,16.0502,9.6934)">
   <stop offset="0" stop-color="#ffffff" stop-opacity="0.996"/>
   <stop offset="1" stop-color="#05d3f9" stop-opacity="0.6196"/>
  </radialGradient>
  <path style="fill:url(#gradient4)"
        d="M56.42 30.57C58.54 30.54 60.13 32.42 60.08 34.5C58.21 35.47 55.69 32.26 56.42 30.57z"
        transform="matrix(0.8745,0,0,0.7693,4.0246,0.9162)"
  />
  <path style="fill:none; stroke:#000000; stroke-width:2; stroke-linecap:round"
        d="M35.25 48.17C38.62 48.17 41.27 50.86 41.27 54.28C41.27 57.7 38.62 60.39 35.25 60.39C31.88 60.39 29.23 57.7 29.23 54.28C29.23 50.86 31.88 48.17 35.25 48.17z"
        transform="matrix(0.8745,0,0,0.7693,4.0246,0.9162)"
  />
  <linearGradient id="gradient5" gradientUnits="userSpaceOnUse" x1="-33.05" y1="37.42" x2="-1.17" y2="-10.39">
   <stop offset="0" stop-color="#000001"/>
   <stop offset="1" stop-color="#f6bb49"/>
  </linearGradient>
  <path style="fill:url(#gradient5)"
        d="M35.25 48.17C38.62 48.17 41.27 50.86 41.27 54.28C41.27 57.7 38.62 60.39 35.25 60.39C31.88 60.39 29.23 57.7 29.23 54.28C29.23 50.86 31.88 48.17 35.25 48.17z"
        transform="matrix(0.8745,0,0,0.7693,4.0246,0.9162)"
  />
  <radialGradient id="gradient6" gradientUnits="userSpaceOnUse" cx="0" cy="0" r="64" gradientTransform="matrix(0.3989,0.3337,-0.3692,0.4414,16.0502,9.6934)">
   <stop offset="0" stop-color="#ffffff" stop-opacity="0.996"/>
   <stop offset="1" stop-color="#05d3f9" stop-opacity="0.6196"/>
  </radialGradient>
  <path style="fill:url(#gradient6)"
        d="M37.3 34.67C41.32 38.24 47.59 41.86 49.36 47.51C44.01 45.19 39.85 41.51 35.76 37.6C34.91 36.22 35.73 34.82 37.3 34.67z"
        transform="matrix(0.8745,0,0,0.7693,4.0246,0.9162)"
  />
 </g>
</svg>
