<?xml version="1.0" encoding="UTF-8" standalone="yes"?>
<svg version="1.1" width="64" height="64" color-interpolation="linearRGB"
     xmlns:svg="http://www.w3.org/2000/svg" xmlns="http://www.w3.org/2000/svg">
 <g>
  <path style="fill:none; stroke:#010101; stroke-opacity:0.5294; stroke-width:4; stroke-linecap:round"
        d="M3 18C3 18 11 19.12 12 20C13 20.87 11 32 11 32L22 19L20 31L28 26C28 26 28.62 36.12 30 37C31.37 37.87 39 41 39 41"
        transform="matrix(1.4951,0,0,0.67,3.1935,31.4289)"
  />
  <path style="fill:none; stroke:#010101; stroke-width:4; stroke-linecap:round"
        d="M9 24C9 24 12 24.12 13 25C14 25.87 15 34 15 34L20 21L23 35L26 30C26 30 27.62 36.12 29 37C30.37 37.87 38 40 38 40"
        transform="matrix(1.8899,0,0,2.0186,-12.5992,-25.4603)"
  />
  <linearGradient id="gradient0" gradientUnits="userSpaceOnUse" x1="8.55" y1="-65.3" x2="42.49" y2="-63.35">
   <stop offset="0" stop-color="#78d905"/>
   <stop offset="0.5058" stop-color="#8cff05"/>
   <stop offset="1" stop-color="#7add05"/>
  </linearGradient>
  <path style="fill:none; stroke:url(#gradient0); stroke-width:1; stroke-linecap:square"
        d="M9 24C9 24 12 24.12 13 25C14 25.87 15 34 15 34L20 21L23 35L26 30C26 30 27.62 36.12 29 37C30.37 37.87 38 40 38 40"
        transform="matrix(1.8899,0,0,2.0186,-12.5992,-25.4603)"
  />
 </g>
</svg>
