<?xml version="1.0" encoding="UTF-8" standalone="yes"?>
<svg version="1.1" width="64" height="64" color-interpolation="linearRGB"
     xmlns:svg="http://www.w3.org/2000/svg" xmlns="http://www.w3.org/2000/svg">
 <g>
  <path style="fill:#010101; fill-opacity:0.5725"
        d="M27 57L29 59L32.12 55.81L37 59L45.39 47.52L64 38L59 35L61 37L36 49L27 57z
           M58 34L62 31L58 29L55 32L58 34z"
  />
  <path style="fill:none; stroke:#010101; stroke-width:4"
        d="M6.24 30C6.24 30 11.87 36 16.87 42.5C21.87 49 26.24 55.74 26.24 55.74L59.1 36.86L32 15L6.24 30z"
  />
  <radialGradient id="gradient0" gradientUnits="userSpaceOnUse" cx="0" cy="0" r="64" gradientTransform="matrix(0.5714,0,0,0.3333,26,35)">
   <stop offset="0.4862" stop-color="#7588ad"/>
   <stop offset="1" stop-color="#cee5ff"/>
  </radialGradient>
  <path style="fill:url(#gradient0)"
        d="M6.24 30C6.24 30 11.87 36 16.87 42.5C21.87 49 26.24 55.74 26.24 55.74L59.1 36.86L32 15L6.24 30z"
  />
  <path style="fill:none; stroke:#010101; stroke-width:4"
        d="M2.61 30.87C2.61 30.87 10.94 36.25 19 41.86C27.44 47.74 35.74 52.74 35.74 52.74L58.1 26.37C58.1 26.37 45.44 20.7 35.36 15.37C30.17 12.61 26 9.37 26 9.37L2.61 30.87z"
  />
  <linearGradient id="gradient1" gradientUnits="userSpaceOnUse" x1="107.03" y1="-17.09" x2="118.33" y2="27.99">
   <stop offset="0.0039" stop-color="#bfdef4"/>
   <stop offset="0.7411" stop-color="#ffffff"/>
   <stop offset="1" stop-color="#e7eefb"/>
  </linearGradient>
  <path style="fill:url(#gradient1)"
        d="M2.61 30.87C2.61 30.87 10.94 36.25 19 41.86C27.44 47.74 35.74 52.74 35.74 52.74L58.1 26.37C58.1 26.37 45.44 20.7 35.36 15.37C30.17 12.61 26 9.37 26 9.37L2.61 30.87z"
  />
  <linearGradient id="gradient2" gradientUnits="userSpaceOnUse" x1="-23.09" y1="11.4" x2="25.87" y2="-12.49">
   <stop offset="0" stop-color="#010101"/>
   <stop offset="1" stop-color="#5296cb"/>
  </linearGradient>
  <path style="fill:none; stroke:url(#gradient2); stroke-width:1"
        d="M19 32L23 28
           M22 46L40 28
           M26 49L45 30"
        transform="matrix(1,0,0,1,0,-5)"
  />
  <linearGradient id="gradient3" gradientUnits="userSpaceOnUse" x1="-23.09" y1="11.4" x2="25.87" y2="-12.49">
   <stop offset="0" stop-color="#010101"/>
   <stop offset="1" stop-color="#5296cb"/>
  </linearGradient>
  <path style="fill:none; stroke:url(#gradient3); stroke-width:1"
        d="M26 32L33 25"
        transform="matrix(1,0,0,1,0,-5)"
  />
  <path style="fill:none; stroke:#010101; stroke-width:1"
        d="M13 34L14 36L16 37"
        transform="matrix(1,0,0,1,11,-15)"
  />
  <path style="fill:none; stroke:#010101; stroke-width:1"
        d="M23 24L25 25L26 27"
        transform="matrix(1,0,0,1,3,-7)"
  />
  <path style="fill:none; stroke:#010101; stroke-width:1"
        d="M23 24L25 25L26 27"
        transform="matrix(1,0,0,1,9,21)"
  />
  <linearGradient id="gradient4" gradientUnits="userSpaceOnUse" x1="45.86" y1="23.84" x2="45.86" y2="32.61">
   <stop offset="0" stop-color="#ffffff" stop-opacity="0.7098"/>
   <stop offset="1" stop-color="#000000" stop-opacity="0.8588"/>
  </linearGradient>
  <path style="fill:url(#gradient4)"
        d="M34.56 32.07L56 30L58 27L56 25L46 26L34.56 32.07z"
  />
  <linearGradient id="gradient5" gradientUnits="userSpaceOnUse" x1="57.11" y1="4.41" x2="61.99" y2="4.82">
   <stop offset="0" stop-color="#ffffff"/>
   <stop offset="0.2039" stop-color="#ffefef"/>
   <stop offset="0.6039" stop-color="#ffc7c7"/>
   <stop offset="1" stop-color="#ff9999"/>
  </linearGradient>
  <path style="fill:url(#gradient5)"
        d=""
  />
  <path style="fill:#000000"
        d="M62.42 1.95L62.31 1.84C61.49 1 60.55 0.54 59.59 0.33C58.23 -0.05 56.92 0.22 56.06 1C56 1.04 52 5.03 52 5.03C52 5.03 36.79 20.56 36.79 20.56L36.64 20.71L32.66 31.62L34.85 32.09L44.26 28.01L59.53 12.42C59.53 12.42 59.74 12.22 59.76 12.19C59.87 12.1 60 11.99 60 11.99C60 11.95 63.79 7.88 63.79 7.88C64.85 6.29 64.3 3.82 62.42 1.95z"
  />
  <linearGradient id="gradient6" gradientUnits="userSpaceOnUse" x1="37.6" y1="25.13" x2="40.79" y2="29">
   <stop offset="0" stop-color="#fffffa"/>
   <stop offset="1" stop-color="#f49333"/>
  </linearGradient>
  <path style="fill:url(#gradient6)"
        d="M38.04 21.07L34.51 29.61L35.14 30.57L43.86 26.63L42.19 22.27L38.04 21.07z"
  />
  <path style="fill:#000000"
        d="M35.38 27.05L34.16 29.61L35.05 31.1L37.21 29.99L35.85 28.58L35.38 27.05z"
  />
  <path style="fill:#f49300"
        d="M58.38 11.81L43.86 26.63L41.02 26.06L38.48 23.73L38.04 21.07L52.56 6.25L52.99 8.91L55.54 11.24L58.38 11.81z"
  />
  <linearGradient id="gradient7" gradientUnits="userSpaceOnUse" x1="45.35" y1="14.89" x2="44.26" y2="13.73">
   <stop offset="0" stop-color="#eceb23"/>
   <stop offset="1" stop-color="#f49333"/>
  </linearGradient>
  <path style="fill:url(#gradient7)"
        d="M38.39 23.81L38.04 21.07L52.56 6.25L52.99 8.91L38.39 23.81z"
  />
  <linearGradient id="gradient8" gradientUnits="userSpaceOnUse" x1="47.44" y1="17.92" x2="46.2" y2="16.68">
   <stop offset="0" stop-color="#eceb23"/>
   <stop offset="1" stop-color="#fffcf7"/>
  </linearGradient>
  <path style="fill:url(#gradient8)"
        d="M41.02 26.06L38.47 23.73L52.99 8.91L55.54 11.24L41.02 26.06z"
  />
  <path style="fill:#000000"
        d="M52.7 8.62L38.33 23.4L41.4 26.32L56.13 11.23L52.98 8.34L52.7 8.62z
           M53 9.47C53.4 9.83 54.54 10.88 54.96 11.26C54.41 11.83 41.52 24.98 41.01 25.5C40.61 25.14 39.48 24.09 39.05 23.71C39.61 23.14 52.49 10 53 9.47z"
  />
  <linearGradient id="gradient9" gradientUnits="userSpaceOnUse" x1="54.37" y1="2.67" x2="58.8" y2="7.76">
   <stop offset="0.0274" stop-color="#ff9999"/>
   <stop offset="0.1098" stop-color="#ff9f9f"/>
   <stop offset="0.2235" stop-color="#ffb0b0"/>
   <stop offset="0.349" stop-color="#ffcccc"/>
   <stop offset="0.4901" stop-color="#fff3f3"/>
   <stop offset="0.5294" stop-color="#ffffff"/>
   <stop offset="0.6" stop-color="#ffe6e6"/>
   <stop offset="0.7098" stop-color="#ffc5c5"/>
   <stop offset="0.8156" stop-color="#ffacac"/>
   <stop offset="0.9137" stop-color="#ff9e9e"/>
   <stop offset="1" stop-color="#ff9999"/>
  </linearGradient>
  <path style="fill:url(#gradient9)"
        d="M61.5 2.92C61.46 2.88 61.42 2.85 61.38 2.81C60.66 2.07 59.95 1.71 59.31 1.56C58.34 1.28 57.42 1.39 56.84 1.97C56.84 1.98 56.83 1.99 56.83 1.99C56.75 2.03 56.72 2.05 56.72 2.05L52.5 6.32L52.57 8.53L55.48 11.32L58.31 11.88L62.52 7.61C62.52 7.61 62.57 7.52 62.63 7.37C63.43 6.3 62.96 4.37 61.5 2.92z"
  />
  <path style="fill:#000000"
        d="M37.74 20.44C37.52 20.49 37.39 20.7 37.44 20.92L38.1 23.94L40.83 26.45L44.02 27.15C44.24 27.2 44.46 27.05 44.5 26.84C44.51 26.81 44.51 26.78 44.51 26.75C44.51 26.56 44.39 26.4 44.2 26.36C44.2 26.36 41.42 25.74 41.22 25.69C41.07 25.56 39.01 23.67 38.85 23.51C38.79 23.29 38.23 20.74 38.23 20.74C38.18 20.52 37.97 20.39 37.74 20.44z"
  />
  <path style="fill:#000000"
        d="M52.6 5.12C51.34 6.39 52.22 9.22 53.82 10.81C54.94 11.92 56.5 12.63 57.79 12.62C58.48 12.62 59.04 12.42 59.43 12.02C59.58 11.87 59.58 11.6 59.43 11.45C59.27 11.29 59.01 11.29 58.85 11.45C58.55 11.75 58.11 11.81 57.79 11.81C56.71 11.82 55.35 11.18 54.39 10.23C52.97 8.82 52.32 6.52 53.14 5.7C53.3 5.53 53.34 5.28 53.18 5.12C53.02 4.96 52.76 4.97 52.6 5.12z"
  />
  <path style="fill:#000000"
        d="M56.31 1.43C55.92 1.82 55.7 2.39 55.71 3.05C55.71 4.3 56.43 5.81 57.53 6.9C58.65 8.01 60.2 8.73 61.48 8.73C62.14 8.73 62.7 8.52 63.09 8.13C63.25 7.98 63.25 7.71 63.08 7.55C62.93 7.4 62.67 7.4 62.51 7.55C62.22 7.86 61.78 7.92 61.47 7.92C60.42 7.92 59.06 7.28 58.1 6.33C57.16 5.39 56.52 4.07 56.52 3.05C56.52 2.74 56.52 2.23 56.82 1.94C56.99 1.77 57.04 1.58 56.88 1.43C56.72 1.26 56.47 1.26 56.31 1.43z"
  />
  <linearGradient id="gradient10" gradientUnits="userSpaceOnUse" x1="-23.09" y1="11.4" x2="25.87" y2="-12.49">
   <stop offset="0" stop-color="#010101"/>
   <stop offset="1" stop-color="#5296cb"/>
  </linearGradient>
  <path style="fill:url(#gradient10)"
        d="M16 38L5 30L9 27L11 29V25L14 22V29H25L21 33L14 32L19 35L16 38z"
        transform="matrix(1.3578,0,0,1.25,-2.7894,-7.5)"
  />
 </g>
</svg>
