<?xml version="1.0" encoding="UTF-8" standalone="yes"?>
<svg version="1.1" width="64" height="64" color-interpolation="linearRGB"
     xmlns:svg="http://www.w3.org/2000/svg" xmlns="http://www.w3.org/2000/svg">
 <g>
  <path style="fill:#000000; fill-opacity:0.4117"
        d="M25 64C26 64 27 64 28 64C31.33 60.66 34.66 57.33 38 54C38 54 42 54 44 54C46 54 49 53 51 51C51.52 50.45 56.36 46 56.36 46C57.24 46 58.12 46 59 46C60.33 44 61.66 42 63 40C62.5 39.66 62 39.33 61.5 39C63.5 36 64 35 64 32C64 29 62 28 60 27C48.33 39.33 36.66 51.66 25 64V64V64z"
  />
  <path style="fill:none; stroke:#000000; stroke-width:4; stroke-linejoin:round"
        d="M58 32C58 28 58 24 58 20C58 11 55 6 46 3C41 1 37 2 31 5C25.33 7.66 19.66 10.33 14 13C11.76 15.03 10 18.71 10.01 22.97C10 28.98 10 34.99 10 41C10.66 41.33 11.33 41.66 12 42C8.66 44.33 5.33 46.66 2 49C9.66 53.33 17.33 57.66 25 62C28.33 58.66 31.66 55.33 35 52C35.65 52.33 36.31 52.67 36.97 53C43.98 46 50.99 39 58 32V32V32z"
  />
  <linearGradient id="gradient0" gradientUnits="userSpaceOnUse" x1="88.51" y1="-66.76" x2="125.87" y2="-12.97">
   <stop offset="0.2894" stop-color="#5f8493"/>
   <stop offset="0.5227" stop-color="#eaf7ff"/>
   <stop offset="0.6389" stop-color="#a5b7c2"/>
   <stop offset="0.7631" stop-color="#a0bccc"/>
   <stop offset="0.8646" stop-color="#748994"/>
   <stop offset="1" stop-color="#829ab2"/>
  </linearGradient>
  <path style="fill:url(#gradient0)"
        d="M58 32C58 28 58 24 58 20C58 11 55 6 46 3C41 1 37 2 31 5C25.33 7.66 19.66 10.33 14 13C21.33 21 28.66 29 36 37C36 42.66 36 48.33 36 54C43.33 46.66 50.66 39.33 58 32V32V32z"
  />
  <linearGradient id="gradient1" gradientUnits="userSpaceOnUse" x1="33.04" y1="-13.05" x2="62.01" y2="15.89">
   <stop offset="0" stop-color="#acd3db"/>
   <stop offset="0.624" stop-color="#ffffff"/>
   <stop offset="1" stop-color="#6492a8"/>
  </linearGradient>
  <path style="fill:url(#gradient1)"
        d="M38 39C39.06 27.98 36.47 17.23 28 13C24 11 20 11 15 13C20 13 22 13 25 15C32.11 19.72 37 27 38 39V39V39z"
  />
  <path style="fill:none; stroke:#000000; stroke-width:4"
        d="M36 54C36 54 36 47 36 38C36 29 33.63 19.8 24 15C19.77 12.88 16 13 13 15"
  />
  <linearGradient id="gradient2" gradientUnits="userSpaceOnUse" x1="-9.25" y1="2.92" x2="8.06" y2="-8.88">
   <stop offset="0" stop-color="#f7fbfd"/>
   <stop offset="1" stop-color="#31596b"/>
  </linearGradient>
  <path style="fill:url(#gradient2)"
        d="M24 15C14.06 10.02 10 16 10.01 25.97C10 30.98 10 35.99 10 41C10.33 36 10.66 31 11 26C11 16 14 10 24 15C24 15 24 15 24.01 15C24 15 24 15 24 15V15V15z"
  />
  <linearGradient id="gradient3" gradientUnits="userSpaceOnUse" x1="66.95" y1="38.94" x2="47.68" y2="61.29">
   <stop offset="0" stop-color="#343d41"/>
   <stop offset="0.1879" stop-color="#364145"/>
   <stop offset="1" stop-color="#566f7a"/>
  </linearGradient>
  <path style="fill:url(#gradient3)"
        d="M24 15C14.06 10.02 11 16 11.01 25.97C11 30.98 11 35.99 11 41C18.81 36.31 26.63 31.63 34.45 26.95C32.63 21.6 29.14 17.56 24.01 15C24 15 24 15 24 15V15V15z"
  />
  <linearGradient id="gradient4" gradientUnits="userSpaceOnUse" x1="3.29" y1="28.05" x2="29.73" y2="7.36">
   <stop offset="0" stop-color="#435563"/>
   <stop offset="1" stop-color="#2d4048"/>
  </linearGradient>
  <path style="fill:url(#gradient4)"
        d="M12 42C12 42 27 41 36 45C36 42.33 36 39.66 36 37C35.97 33.25 35.47 29.89 34.45 26.95C26.3 31.63 18.15 36.31 10 41C10.66 41.33 11.33 41.66 12 42V42V42z"
  />
  <linearGradient id="gradient5" gradientUnits="userSpaceOnUse" x1="-7.32" y1="52.74" x2="-4.13" y2="33.48">
   <stop offset="0" stop-color="#bed1db"/>
   <stop offset="1" stop-color="#8dadba"/>
  </linearGradient>
  <path style="fill:url(#gradient5)"
        d="M36 45C36 47.5 36 50 36 52.5C35.66 52.33 35.33 52.16 35 52C31.66 55.33 28.33 58.66 25 62C17.33 57.66 9.66 53.33 2 49C5.33 46.66 8.66 44.33 12 42C12 42 27 41 36 45V45V45z"
  />
  <path style="fill:#7795a3"
        d="M15 44C12.66 45.66 10.33 47.33 8 49C11.66 51.33 15.33 53.66 19 56C24 52 29 48 34 44C27.66 44 21.33 44 15 44V44V44z"
  />
  <path style="fill:none; stroke:#000000; stroke-width:4"
        d="M36 34C32.66 30 29.33 26 26 22C21.28 24.65 16.57 27.31 11.85 29.97C11.85 29.97 19 33 24 36C29 39 31.85 41.99 31.85 41.99C33.23 40.99 34.61 39.99 36 39C36 37.33 36 35.66 36 34V34V34z
           M11.85 29.97C8.9 31.65 5.95 33.32 3 35C8 40.66 13 46.33 18 52C22.61 48.66 27.23 45.32 31.85 41.99C31.85 41.99 29 39 24 36C19 33 11.85 29.97 11.85 29.97V29.97V29.97z"
  />
  <linearGradient id="gradient6" gradientUnits="userSpaceOnUse" x1="25" y1="14.97" x2="41.56" y2="33.52">
   <stop offset="0" stop-color="#ffeec0"/>
   <stop offset="1" stop-color="#e7d6a8"/>
  </linearGradient>
  <path style="fill:url(#gradient6)"
        d="M11.85 29.97C8.9 31.65 5.95 33.32 3 35C8 40.66 13 46.33 18 52C22.61 48.66 27.23 45.32 31.85 41.99C31.85 41.99 29 39 24 36C19 33 11.85 29.97 11.85 29.97V29.97V29.97z"
  />
  <linearGradient id="gradient7" gradientUnits="userSpaceOnUse" x1="1.64" y1="13.85" x2="13.1" y2="4.28">
   <stop offset="0" stop-color="#b4a06b"/>
   <stop offset="1" stop-color="#a28b4e"/>
  </linearGradient>
  <path style="fill:url(#gradient7)"
        d="M36 34C32.66 30 29.33 26 26 22C21.28 24.65 16.57 27.31 11.85 29.97C11.85 29.97 19 33 24 36C29 39 31.85 41.99 31.85 41.99C33.23 40.99 34.61 39.99 36 39C36 37.33 36 35.66 36 34V34V34z"
  />
  <path style="fill:#826a31"
        d="M3 35C3 35 10.72 37.43 17 38.4C17.33 42.6 17.66 46.8 18 51C18.21 46.87 18.43 42.75 18.64 38.63C21.47 38.95 23.78 38.86 24.56 37.91C25.04 37.36 25.36 35.65 25.56 33.54C29.04 34.36 32.52 35.18 36 36C32.56 34.7 29.12 33.39 25.69 32.09C26.04 27.52 26 22 26 22C26 22 25 34 23 36C21 38 3 35 3 35V35V35z"
  />
  <path style="fill:none; stroke:#000000; stroke-width:4"
        d="M44 7C44 15 44 23 44 31C44.66 31.33 45.33 31.66 46 32C46.33 31.66 46.66 31.33 47 31C47 26.66 47 22.33 47 18C49.33 16 51.66 14 54 12C54 9 54 6 54 3C53.33 2.66 52.66 2.33 52 2C49.33 3.66 46.66 5.33 44 7V7V7z"
  />
  <path style="fill:#f20606"
        d="M46 17.98C46 14.65 46 11.32 46 8C48.66 6.33 51.33 4.66 54 3C54 6 54 9 54 12C52 13.66 50 15.33 48 17C47.33 17.32 46.66 17.65 46 17.98V17.98V17.98z"
  />
  <linearGradient id="gradient8" gradientUnits="userSpaceOnUse" x1="76.16" y1="3.06" x2="76.55" y2="31.1">
   <stop offset="0" stop-color="#ffc7ba"/>
   <stop offset="1" stop-color="#c31a1a"/>
  </linearGradient>
  <path style="fill:url(#gradient8)"
        d="M44 16.87C44 13.58 44 10.29 44 7C44.66 7.33 45.33 7.66 46 8C46 11.29 46 14.58 46 17.87C45.33 17.54 44.66 17.21 44 16.87V16.87V16.87z"
  />
  <path style="fill:#faa28e"
        d="M44 7C44.66 7.33 45.33 7.66 46 8C48.66 6.33 51.33 4.66 54 3C53.33 2.66 52.66 2.33 52 2C49.33 3.66 46.66 5.33 44 7V7V7z"
  />
  <linearGradient id="gradient9" gradientUnits="userSpaceOnUse" x1="76.16" y1="3.06" x2="76.55" y2="31.1">
   <stop offset="0.0074" stop-color="#e3e3e3"/>
   <stop offset="1" stop-color="#59697a"/>
  </linearGradient>
  <path style="fill:url(#gradient9)"
        d="M46 32C46 27.32 46 22.65 46 17.98C46.33 17.99 46.66 17.99 47 18C47 22.33 47 26.66 47 31C46.66 31.33 46.33 31.66 46 32V32V32z"
  />
  <linearGradient id="gradient10" gradientUnits="userSpaceOnUse" x1="75.16" y1="4.07" x2="75.55" y2="32.1">
   <stop offset="0" stop-color="#d6d9dc"/>
   <stop offset="1" stop-color="#788999"/>
  </linearGradient>
  <path style="fill:url(#gradient10)"
        d="M46 32C45.33 31.66 44.66 31.33 44 31C44 26.32 44 21.65 44 16.98C44.66 17.36 45.33 17.75 46 18.12C46 22.75 46 27.37 46 32V32V32z"
  />
 </g>
</svg>
