<?xml version="1.0" encoding="UTF-8" standalone="yes"?>
<svg version="1.1" width="64" height="64" color-interpolation="linearRGB"
     xmlns:svg="http://www.w3.org/2000/svg" xmlns="http://www.w3.org/2000/svg">
 <g>
  <path style="fill:#010101; fill-opacity:0.3607"
        d="M40 62H52L64 51C64 51 65.8 40.61 63 35C60.31 29.62 46 24 46 24L12 56L40 62z"
  />
  <path style="fill:none; stroke:#000000; stroke-width:6; stroke-linecap:round; stroke-linejoin:round"
        d="M63.99 19.45C63.99 19.45 63.99 19.45 60.36 17.39C58.98 16.61 56 15 56 9C56 1.92 46 3 46 3C31.69 6.06 19 12 6.56 17.67C21.71 20.25 36.85 22.84 52 25.42C56 23.43 60 21.44 63.99 19.45V19.45V19.45z
           M45.15 38.27C31.29 36.3 17.44 34.34 3.58 32.37C5.73 31.49 7.87 30.61 10.01 29.73C10.32 29.77 10.63 29.82 10.95 29.87C10.02 30.49 9.09 31.12 8.17 31.74C8.67 31.88 9.18 32.01 9.68 32.15C10.32 31.42 10.95 30.69 11.59 29.96C12.53 30.1 13.47 30.24 14.41 30.38C13.54 30.97 12.67 31.55 11.79 32.14C12.3 32.28 12.8 32.41 13.31 32.55C13.91 31.86 14.51 31.17 15.11 30.48C16.04 30.61 16.96 30.75 17.88 30.89C17.06 31.44 16.24 31.99 15.42 32.55C15.92 32.68 16.43 32.82 16.93 32.95C17.5 32.3 18.07 31.65 18.64 31C20.69 31.3 22.75 31.6 24.81 31.91C24.09 32.39 23.38 32.87 22.67 33.35C23.17 33.49 23.68 33.62 24.18 33.75C24.68 33.18 25.18 32.61 25.68 32.04C26.55 32.16 27.41 32.29 28.27 32.42C27.61 32.86 26.95 33.31 26.29 33.75C26.8 33.89 27.3 34.02 27.81 34.16C28.27 33.62 28.74 33.09 29.21 32.55C31.21 32.85 33.21 33.14 35.2 33.44C34.65 33.81 34.1 34.19 33.55 34.56C34.05 34.69 34.55 34.83 35.06 34.96C35.46 34.51 35.86 34.05 36.26 33.59C38.22 33.88 40.18 34.17 42.13 34.46C41.69 34.76 41.24 35.06 40.8 35.37C41.3 35.5 41.8 35.63 42.31 35.77C42.64 35.39 42.97 35.01 43.3 34.63C44.85 34.86 46.4 35.09 47.95 35.32C47.01 36.3 46.08 37.28 45.15 38.27V38.27V38.27z
           M28.15 49.1C27.16 49.03 26.18 48.95 25.2 48.88C25.2 45.54 25.2 42.2 25.2 38.85C26.18 39 27.16 39.14 28.15 39.28C28.15 42.55 28.15 45.83 28.15 49.1V49.1V49.1z
           M51.6 26.44C36.58 23.8 21.57 21.15 6.56 18.51C6.56 21.31 6.56 24.11 6.56 26.91C4.37 27.78 2.18 28.65 0 29.53C0 31.41 0 33.29 0 35.17C3.68 35.71 7.37 36.25 11.06 36.79C11.92 41.39 12.78 46 13.64 50.61C13.79 51.43 14.04 51.43 14.19 50.61C15 46.27 15.81 41.94 16.62 37.6C18.87 37.93 21.13 38.26 23.38 38.59C23.38 41.97 23.38 45.36 23.38 48.75C22.4 48.67 21.42 48.6 20.44 48.53C20.44 49.47 20.44 50.41 20.44 51.35C24.54 51.65 28.65 51.95 32.76 52.25C32.76 51.32 32.76 50.38 32.76 49.44C31.82 49.37 30.89 49.3 29.96 49.23C29.96 46 29.96 42.77 29.96 39.54C33.26 40.03 36.56 40.51 39.86 40.99C40.73 45.63 41.59 50.27 42.45 54.9C42.61 55.73 42.85 55.73 43.01 54.9C43.82 50.54 44.64 46.17 45.45 41.81C46.32 41.94 47.19 42.06 48.06 42.19C48.1 40.39 48.14 38.58 48.17 36.78C49.31 36.11 50.46 35.44 51.6 34.77C51.6 31.99 51.6 29.22 51.6 26.44H51.6V26.44z
           M52.56 35.52C51.38 36.19 50.2 36.87 49.03 37.54C49.03 39.13 49.03 40.73 49.03 42.32C54.02 38.93 59 35.54 63.99 32.15C63.99 28.32 63.99 24.5 63.99 20.68C60.18 22.64 56.37 24.6 52.56 26.55C52.56 29.54 52.56 32.53 52.56 35.52V35.52z"
        transform="matrix(0.8676,0,0,1.0152,2.7352,2.0536)"
  />
  <path style="fill:#ffffff"
        d="M6 36L11 33L46 38L43 42L6 36z"
        transform="matrix(1,0,0,1.0721,-1,-3.3617)"
  />
  <radialGradient id="gradient0" gradientUnits="userSpaceOnUse" cx="0" cy="0" r="64" gradientTransform="matrix(-0.1493,-0.535,0.786,-0.2194,38.2989,11.0601)">
   <stop offset="0" stop-color="#ce7c05"/>
   <stop offset="0.4725" stop-color="#8e5503"/>
   <stop offset="1" stop-color="#010101"/>
  </radialGradient>
  <path style="fill:url(#gradient0)"
        d="M63.99 19.45C63.99 19.45 63.99 19.45 60.36 17.39C58.98 16.61 56 15 56 9C56 1.92 46 3 46 3C31.69 6.06 19 12 6.56 17.67C21.71 20.25 36.85 22.84 52 25.42C56 23.43 60 21.44 63.99 19.45V19.45V19.45z"
        transform="matrix(0.8676,0,0,1.0152,2.7352,2.0536)"
  />
  <linearGradient id="gradient1" gradientUnits="userSpaceOnUse" x1="-32.08" y1="79.9" x2="-31.94" y2="-0.08">
   <stop offset="0" stop-color="#010101"/>
   <stop offset="0.8131" stop-color="#a56304"/>
   <stop offset="1" stop-color="#b66d04"/>
  </linearGradient>
  <path style="fill:url(#gradient1)"
        d="M45.15 38.27C31.29 36.3 17.44 34.34 3.58 32.37C5.73 31.49 7.87 30.61 10.01 29.73C10.32 29.77 10.63 29.82 10.95 29.87C10.02 30.49 9.09 31.12 8.17 31.74C8.67 31.88 9.18 32.01 9.68 32.15C10.32 31.42 10.95 30.69 11.59 29.96C12.53 30.1 13.47 30.24 14.41 30.38C13.54 30.97 12.67 31.55 11.79 32.14C12.3 32.28 12.8 32.41 13.31 32.55C13.91 31.86 14.51 31.17 15.11 30.48C16.04 30.61 16.96 30.75 17.88 30.89C17.06 31.44 16.24 31.99 15.42 32.55C15.92 32.68 16.43 32.82 16.93 32.95C17.5 32.3 18.07 31.65 18.64 31C20.69 31.3 22.75 31.6 24.81 31.91C24.09 32.39 23.38 32.87 22.67 33.35C23.17 33.49 23.68 33.62 24.18 33.75C24.68 33.18 25.18 32.61 25.68 32.04C26.55 32.16 27.41 32.29 28.27 32.42C27.61 32.86 26.95 33.31 26.29 33.75C26.8 33.89 27.3 34.02 27.81 34.16C28.27 33.62 28.74 33.09 29.21 32.55C31.21 32.85 33.21 33.14 35.2 33.44C34.65 33.81 34.1 34.19 33.55 34.56C34.05 34.69 34.55 34.83 35.06 34.96C35.46 34.51 35.86 34.05 36.26 33.59C38.22 33.88 40.18 34.17 42.13 34.46C41.69 34.76 41.24 35.06 40.8 35.37C41.3 35.5 41.8 35.63 42.31 35.77C42.64 35.39 42.97 35.01 43.3 34.63C44.85 34.86 46.4 35.09 47.95 35.32C47.01 36.3 46.08 37.28 45.15 38.27V38.27V38.27z
           M28.15 49.1C27.16 49.03 26.18 48.95 25.2 48.88C25.2 45.54 25.2 42.2 25.2 38.85C26.18 39 27.16 39.14 28.15 39.28C28.15 42.55 28.15 45.83 28.15 49.1V49.1V49.1z
           M51.6 26.44C36.58 23.8 21.57 21.15 6.56 18.51C6.56 21.31 6.56 24.11 6.56 26.91C4.37 27.78 2.18 28.65 0 29.53C0 31.41 0 33.29 0 35.17C3.68 35.71 7.37 36.25 11.06 36.79C11.92 41.39 12.78 46 13.64 50.61C13.79 51.43 14.04 51.43 14.19 50.61C15 46.27 15.81 41.94 16.62 37.6C18.87 37.93 21.13 38.26 23.38 38.59C23.38 41.97 23.38 45.36 23.38 48.75C22.4 48.67 21.42 48.6 20.44 48.53C20.44 49.47 20.44 50.41 20.44 51.35C24.54 51.65 28.65 51.95 32.76 52.25C32.76 51.32 32.76 50.38 32.76 49.44C31.82 49.37 30.89 49.3 29.96 49.23C29.96 46 29.96 42.77 29.96 39.54C33.26 40.03 36.56 40.51 39.86 40.99C40.73 45.63 41.59 50.27 42.45 54.9C42.61 55.73 42.85 55.73 43.01 54.9C43.82 50.54 44.64 46.17 45.45 41.81C46.32 41.94 47.19 42.06 48.06 42.19C48.1 40.39 48.14 38.58 48.17 36.78C49.31 36.11 50.46 35.44 51.6 34.77C51.6 31.99 51.6 29.22 51.6 26.44H51.6V26.44z"
        transform="matrix(0.8676,0,0,1.0152,2.7352,2.0536)"
  />
  <linearGradient id="gradient2" gradientUnits="userSpaceOnUse" x1="50.56" y1="85.98" x2="10.31" y2="68.19">
   <stop offset="0" stop-color="#010101"/>
   <stop offset="0.7692" stop-color="#f99506"/>
   <stop offset="1" stop-color="#b87413"/>
  </linearGradient>
  <path style="fill:url(#gradient2)"
        d="M52.56 35.52C51.38 36.19 50.2 36.87 49.03 37.54C49.03 39.13 49.03 40.73 49.03 42.32C54.02 38.93 59 35.54 63.99 32.15C63.99 28.32 63.99 24.5 63.99 20.68C60.18 22.64 56.37 24.6 52.56 26.55C52.56 29.54 52.56 32.53 52.56 35.52V35.52z"
        transform="matrix(0.8676,0,0,1.0152,2.7352,2.0536)"
  />
 </g>
</svg>
