<?xml version="1.0" encoding="UTF-8" standalone="yes"?>
<svg version="1.1" width="64" height="64" color-interpolation="linearRGB"
     xmlns:svg="http://www.w3.org/2000/svg" xmlns="http://www.w3.org/2000/svg">
 <g>
  <path style="fill:#000000; fill-opacity:0.4"
        d="M56 52C53.33 51.33 50.66 50.66 48 50C48 48.66 48 47.33 48 46C44 46 40 46 36 46C25.66 49 15.33 52 5 55C7 57.33 9 59.66 11 62C15.33 62 19.66 62 24 62C27.33 61 30.66 60 34 59C34 59 38 61 41 61C44 61 48 60 48 58C48 56 47.02 55.02 47.02 55.02C50.02 54.01 53 53 56 52V52V52z"
  />
  <path style="fill:none; stroke:#000000; stroke-width:2"
        d="M14 15C14 15 11 7 13 4C15 1 22 0 24 2C26 4 25 12 25 12"
  />
  <path style="fill:none; stroke:#000000; stroke-width:4"
        d="M36 12C36 11 36 10 36 9C25 11.33 14 13.66 3 16C3 28.66 3 41.33 3 54C5.66 56.33 8.33 58.66 11 61C22 57.66 33 54.33 44 51C44 38.33 44 25.66 44 13C41.33 12.66 38.66 12.33 36 12V12V12z"
  />
  <path style="fill:#6e6e6e"
        d="M44 13C41.33 12.66 38.66 12.33 36 12C36 12.97 36 13.95 36 14.93C38.66 14.28 41.33 13.64 44 13V13V13z"
  />
  <linearGradient id="gradient0" gradientUnits="userSpaceOnUse" x1="61.31" y1="-54.18" x2="29.72" y2="-64.91">
   <stop offset="0" stop-color="#a7a7a7"/>
   <stop offset="1" stop-color="#7d7d7d"/>
  </linearGradient>
  <path style="fill:url(#gradient0)"
        d="M11 21C19.33 18.97 27.66 16.95 36 14.93C36 12.95 36 10.97 36 9C25 11.33 14 13.66 3 16C5.66 16.33 8.33 16.66 11 17C11 18.33 11 19.66 11 21V21V21z"
  />
  <linearGradient id="gradient1" gradientUnits="userSpaceOnUse" x1="19.51" y1="-60.91" x2="30.62" y2="-58.97">
   <stop offset="0" stop-color="#e2e2e2"/>
   <stop offset="1" stop-color="#c1c1c1"/>
  </linearGradient>
  <path style="fill:url(#gradient1)"
        d="M11 17C8.33 16.66 5.66 16.33 3 16C3 28.66 3 41.33 3 54C5.66 54 8.33 54 11 54C11 41.66 11 29.33 11 17V17V17z"
  />
  <linearGradient id="gradient2" gradientUnits="userSpaceOnUse" x1="-67.76" y1="-8.54" x2="-63.98" y2="-12.76">
   <stop offset="0" stop-color="#ffffff"/>
   <stop offset="1" stop-color="#dcdcdc"/>
  </linearGradient>
  <path style="fill:url(#gradient2)"
        d="M3 54C5.66 56.33 8.33 58.66 11 61C11 58.66 11 56.33 11 54C8.33 54 5.66 54 3 54V54V54z"
  />
  <path style="fill:none; stroke:#000000; stroke-width:2"
        d="M32 17C32 17 35 11 32 7C29 3 26 6 23 9C20 12 21 20 21 20"
  />
  <linearGradient id="gradient3" gradientUnits="userSpaceOnUse" x1="99.72" y1="110.05" x2="46.9" y2="135.49">
   <stop offset="0" stop-color="#e0e0e0"/>
   <stop offset="1" stop-color="#b0b0b0"/>
  </linearGradient>
  <path style="fill:url(#gradient3)"
        d="M11 21C11 34.33 11 47.66 11 61C22 57.66 33 54.33 44 51C44 38.33 44 25.66 44 13C33 15.66 22 18.33 11 21V21V21z"
  />
 </g>
</svg>
