<?xml version="1.0" encoding="UTF-8" standalone="yes"?>
<svg version="1.1" width="64" height="64" color-interpolation="linearRGB"
     xmlns:svg="http://www.w3.org/2000/svg" xmlns="http://www.w3.org/2000/svg">
 <g>
  <path style="fill:#010101; fill-opacity:0.3686"
        d="M3 31C3 31 22 26 25 32C28.81 39.63 9 43 9 43L3 31z
           M26 53C26 53 46.36 49.85 43 42C40 35 15 41 15 41L26 53z
           M30 53L63 41V38L31 51L30 53z
           M4 30L42 23V25L5 32L4 30z"
  />
  <path style="fill:none; stroke:#010101; stroke-width:2; stroke-linecap:round; stroke-linejoin:round"
        d="M25 20.29C26.93 18.97 29 17.69 31.37 17.47C34.22 17.21 37.17 17.72 39.73 19.03C41.25 19.81 42.94 20.13 44.53 20.69C49.01 22.19 53.41 23.96 57.66 26C58.83 26.62 60.4 25.97 61.37 27.02C61.99 27.67 62.82 28.14 63.28 28.93C63.23 29.97 62.09 30.57 62.01 31.62C61.68 34.24 60.75 36.76 59.5 39.07C58.55 40.71 57.28 42.3 55.5 43.04C54.42 43.51 53.03 43.28 52.31 42.31C51.38 41.29 51.39 39.85 50.93 38.62C50.4 38.35 49.77 38.5 49.33 38.87C48.35 39.68 47.88 40.92 47.57 42.12C46.96 44.67 45.76 47.07 44.22 49.2C43.12 50.66 41.8 52.07 40.07 52.77C38.38 53.45 36.15 53.16 35 51.64C34.07 50.52 34.03 49.01 33.74 47.66C32.54 47.43 31.31 47.27 30.19 46.75C24.35 44.3 18.69 41.38 13.42 37.86C11.71 36.79 10.13 35.5 8.23 34.78C6.22 33.97 4.8 32.15 2.77 31.38C2.35 32.08 2.2 32.91 1.89 33.66C0.05 33.33 0.7 30.09 2.48 30.31C3.81 30.36 5.01 31.03 6.13 31.71C7.83 32.71 9.2 34.15 10.9 35.14C13.24 36.54 15.5 38.06 17.92 39.34C21.58 41.17 25.36 42.77 29.17 44.27C30.46 44.75 31.33 46.18 32.81 46.1C34.45 45.36 34.76 43.45 35.55 42.02C37.05 39.39 39.35 37.16 42.11 35.91C43.35 35.37 44.83 34.93 46.12 35.55C47.25 36.09 47.64 37.36 48.29 38.33C49.24 38.01 50.15 37.57 51.01 37.05C51.57 36.71 51.65 36 51.89 35.45C52.54 33.32 53.55 31.29 54.94 29.53C55.53 28.76 56.29 28.13 56.92 27.4C55.93 26.51 54.72 25.94 53.55 25.34C49.7 23.44 45.63 22 41.55 20.67C38.68 19.58 35.69 18.67 32.6 18.58C31.61 18.57 30.68 18.93 29.8 19.33C27.63 20.33 25.63 21.63 23.56 22.8C22.87 23.17 22.06 23.61 21.26 23.3C21.04 22.68 21.21 21.9 21.87 21.63C22.92 21.18 24.07 20.97 25 20.29
           M59.36 27.66C57.7 28.3 56.52 29.72 55.51 31.11C53.88 33.53 52.57 36.35 52.61 39.32C52.64 40.31 52.9 41.53 53.9 41.98C55 42.36 56.08 41.63 56.87 40.93C59.36 38.64 60.62 35.34 61.23 32.08C61.44 30.79 61.65 29.35 61 28.14C60.7 27.53 59.93 27.43 59.36 27.66
           M44.17 36.7C41.84 37.08 39.99 38.78 38.54 40.56C36.88 42.54 35.69 45 35.44 47.59C35.35 48.78 35.4 50.06 36.02 51.12C36.45 51.82 37.28 52.2 38.08 52.15C39.74 52.12 41.12 51.07 42.28 50C45.08 47.45 46.7 43.73 46.98 39.98C47.02 39.06 47 38.02 46.33 37.32C45.79 36.72 44.94 36.58 44.17 36.7z"
        transform="matrix(-0.9981,0,0,1.0529,63.5644,-2.8692)"
  />
  <radialGradient id="gradient0" gradientUnits="userSpaceOnUse" cx="0" cy="0" r="64" gradientTransform="matrix(0.2343,0,0,0.2187,57,31)">
   <stop offset="0" stop-color="#ffffff"/>
   <stop offset="0.4549" stop-color="#71c0f3"/>
   <stop offset="1" stop-color="#54b3f0"/>
  </radialGradient>
  <path style="fill:url(#gradient0)"
        d="M59.36 27.66C57.7 28.3 56.52 29.72 55.51 31.11C53.88 33.53 52.57 36.35 52.61 39.32C52.64 40.31 52.9 41.53 53.9 41.98C55 42.36 56.08 41.63 56.87 40.93C59.36 38.64 60.62 35.34 61.23 32.08C61.44 30.79 61.65 29.35 61 28.14C60.7 27.53 59.93 27.43 59.36 27.66"
        transform="matrix(-0.9981,0,0,1.0529,63.5644,-2.8692)"
  />
  <radialGradient id="gradient1" gradientUnits="userSpaceOnUse" cx="0" cy="0" r="64" gradientTransform="matrix(0.3125,0,0,0.2968,42,41)">
   <stop offset="0" stop-color="#ffffff"/>
   <stop offset="0.4549" stop-color="#71c0f3"/>
   <stop offset="1" stop-color="#54b3f0"/>
  </radialGradient>
  <path style="fill:url(#gradient1)"
        d="M44.17 36.7C41.84 37.08 39.99 38.78 38.54 40.56C36.88 42.54 35.69 45 35.44 47.59C35.35 48.78 35.4 50.06 36.02 51.12C36.45 51.82 37.28 52.2 38.08 52.15C39.74 52.12 41.12 51.07 42.28 50C45.08 47.45 46.7 43.73 46.98 39.98C47.02 39.06 47 38.02 46.33 37.32C45.79 36.72 44.94 36.58 44.17 36.7z"
        transform="matrix(-0.9981,0,0,1.0529,63.5644,-2.8692)"
  />
 </g>
</svg>
