<?xml version="1.0" encoding="UTF-8" standalone="yes"?>
<svg version="1.1" width="64" height="64" color-interpolation="linearRGB"
     xmlns:svg="http://www.w3.org/2000/svg" xmlns="http://www.w3.org/2000/svg">
 <g>
  <path style="fill:#000000; fill-opacity:0.4039"
        d="M46 59H54L64 54V41L35 40L16 56H32L40 49"
  />
  <path style="fill:none; stroke:#000000; stroke-width:6"
        d="M64 5.95C64 4.3 62.66 2.97 61.02 2.97C43.16 2.97 25.3 2.97 7.44 2.97C5.79 2.97 4.46 4.3 4.46 5.95C4.46 18.85 4.46 31.75 4.46 44.65C4.46 46.29 5.79 47.62 7.44 47.62C16.16 47.62 24.89 47.62 33.61 47.62C34.01 47.62 34.38 47.78 34.66 48.06C38.63 52.03 42.6 56 46.57 59.97C47.51 60.9 49.11 60.24 49.11 58.91C49.11 55.65 49.11 52.38 49.11 49.11C49.11 48.29 49.78 47.62 50.6 47.62C54.07 47.62 57.55 47.62 61.02 47.62C62.66 47.62 64 46.29 64 44.65C64 31.75 64 18.85 64 5.95V5.95z
           M0 2.97C0 1.33 1.33 0 2.97 0C20.83 0 38.69 0 56.55 0C58.2 0 59.53 1.33 59.53 2.97C59.53 15.87 59.53 28.77 59.53 41.67C59.53 43.31 58.2 44.65 56.55 44.65C47.83 44.65 39.1 44.65 30.38 44.65C29.98 44.65 29.61 44.8 29.33 45.08C25.36 49.05 21.39 53.02 17.42 56.99C16.48 57.93 14.88 57.26 14.88 55.94C14.88 52.67 14.88 49.4 14.88 46.13C14.88 45.31 14.21 44.65 13.39 44.65C9.92 44.65 6.44 44.65 2.97 44.65C1.33 44.65 0 43.31 0 41.67C0 28.77 0 15.87 0 2.97V2.97z"
        transform="matrix(0.8787,0,0,0.8558,3,5)"
  />
  <linearGradient id="gradient0" gradientUnits="userSpaceOnUse" x1="104" y1="13.97" x2="44.46" y2="73.51">
   <stop offset="0" stop-color="#6eb4d9"/>
   <stop offset="1" stop-color="#004e6e"/>
  </linearGradient>
  <path style="fill:url(#gradient0)"
        d="M64 5.95C64 4.3 62.66 2.97 61.02 2.97C43.16 2.97 25.3 2.97 7.44 2.97C5.79 2.97 4.46 4.3 4.46 5.95C4.46 18.85 4.46 31.75 4.46 44.65C4.46 46.29 5.79 47.62 7.44 47.62C16.16 47.62 24.89 47.62 33.61 47.62C34.01 47.62 34.38 47.78 34.66 48.06C38.63 52.03 42.6 56 46.57 59.97C47.51 60.9 49.11 60.24 49.11 58.91C49.11 55.65 49.11 52.38 49.11 49.11C49.11 48.29 49.78 47.62 50.6 47.62C54.07 47.62 57.55 47.62 61.02 47.62C62.66 47.62 64 46.29 64 44.65C64 31.75 64 18.85 64 5.95V5.95z"
        transform="matrix(0.8787,0,0,0.8558,3,5)"
  />
  <path style="fill:#000405; fill-opacity:0.098"
        d="M49.11 49.11C49.11 48.29 49.78 47.62 50.6 47.62C54.07 47.62 57.55 47.62 61.02 47.62C62.66 47.62 64 46.29 64 44.65C64 44.15 64 43.65 64 43.16C64 44.8 62.66 46.13 61.02 46.13C57.55 46.13 54.07 46.13 50.6 46.13C49.78 46.13 49.11 46.8 49.11 47.62C49.11 48.12 49.11 48.62 49.11 49.11V49.11z
           M4.46 43.16C4.46 43.65 4.46 44.15 4.46 44.65C4.46 46.29 5.79 47.62 7.44 47.62C16.16 47.62 24.89 47.62 33.61 47.62C34.01 47.62 34.38 47.78 34.66 48.06C38.63 52.03 42.6 56 46.57 59.97C47.51 60.9 49.11 60.24 49.11 58.91C49.11 58.42 49.11 57.92 49.11 57.43C49.11 58.75 47.51 59.42 46.57 58.48C42.6 54.51 38.63 50.54 34.66 46.57C34.38 46.29 34.01 46.13 33.61 46.13C24.89 46.13 16.16 46.13 7.44 46.13C5.79 46.13 4.46 44.8 4.46 43.16V43.16V43.16z"
        transform="matrix(0.8787,0,0,0.8558,3,5)"
  />
  <linearGradient id="gradient1" gradientUnits="userSpaceOnUse" x1="24" y1="-83" x2="95.53" y2="-11.46">
   <stop offset="0" stop-color="#b3e5ff"/>
   <stop offset="1" stop-color="#3daee9"/>
  </linearGradient>
  <path style="fill:url(#gradient1)"
        d="M0 2.97C0 1.33 1.33 0 2.97 0C20.83 0 38.69 0 56.55 0C58.2 0 59.53 1.33 59.53 2.97C59.53 15.87 59.53 28.77 59.53 41.67C59.53 43.31 58.2 44.65 56.55 44.65C47.83 44.65 39.1 44.65 30.38 44.65C29.98 44.65 29.61 44.8 29.33 45.08C25.36 49.05 21.39 53.02 17.42 56.99C16.48 57.93 14.88 57.26 14.88 55.94C14.88 52.67 14.88 49.4 14.88 46.13C14.88 45.31 14.21 44.65 13.39 44.65C9.92 44.65 6.44 44.65 2.97 44.65C1.33 44.65 0 43.31 0 41.67C0 28.77 0 15.87 0 2.97V2.97z"
        transform="matrix(0.8787,0,0,0.8558,3,5)"
  />
  <path style="fill:#021c5a; fill-opacity:0.098"
        d="M14.88 54.45C14.88 54.94 14.88 55.44 14.88 55.94C14.88 57.26 16.48 57.93 17.42 56.99C21.39 53.02 25.36 49.05 29.33 45.08C29.61 44.8 29.98 44.65 30.38 44.65C39.1 44.65 47.83 44.65 56.55 44.65C58.2 44.65 59.53 43.31 59.53 41.67C59.53 41.17 59.53 40.68 59.53 40.18C59.53 41.83 58.2 43.16 56.55 43.16C47.83 43.16 39.1 43.16 30.38 43.16C29.98 43.16 29.61 43.31 29.33 43.59C25.36 47.56 21.39 51.53 17.42 55.5C16.48 56.44 14.88 55.77 14.88 54.45V54.45V54.45z
           M0 40.18C0 40.68 0 41.17 0 41.67C0 43.31 1.33 44.65 2.97 44.65C6.44 44.65 9.92 44.65 13.39 44.65C14.21 44.65 14.88 45.31 14.88 46.13C14.88 45.64 14.88 45.14 14.88 44.65C14.88 43.82 14.21 43.16 13.39 43.16C9.92 43.16 6.44 43.16 2.97 43.16C1.33 43.16 0 41.83 0 40.18V40.18V40.18z"
        transform="matrix(0.8787,0,0,0.8558,3,5)"
  />
  <linearGradient id="gradient2" gradientUnits="userSpaceOnUse" x1="52.09" y1="14.88" x2="17.25" y2="-28.68">
   <stop offset="0" stop-color="#d1d5d9"/>
   <stop offset="1" stop-color="#fcffff"/>
  </linearGradient>
  <path style="fill:url(#gradient2)"
        d="M10.41 8.93C23.31 8.93 36.21 8.93 49.11 8.93C50.76 8.93 52.09 10.26 52.09 11.9V11.9C52.09 13.55 50.76 14.88 49.11 14.88C36.21 14.88 23.31 14.88 10.41 14.88C8.77 14.88 7.44 13.55 7.44 11.9V11.9C7.44 10.26 8.77 8.93 10.41 8.93V8.93V8.93z"
        transform="matrix(0.8787,0,0,0.8558,3,5)"
  />
  <path style="fill:none; stroke:#004e6e; stroke-opacity:0.098; stroke-width:1.4883"
        d="M10.41 8.18C23.31 8.18 36.21 8.18 49.11 8.18C51.17 8.18 52.83 9.85 52.83 11.9V11.9C52.83 13.96 51.17 15.62 49.11 15.62C36.21 15.62 23.31 15.62 10.41 15.62C8.36 15.62 6.69 13.96 6.69 11.9V11.9C6.69 9.85 8.36 8.18 10.41 8.18V8.18V8.18z"
        transform="matrix(0.8787,0,0,0.8558,3,5)"
  />
  <linearGradient id="gradient3" gradientUnits="userSpaceOnUse" x1="44.65" y1="25.3" x2="8.96" y2="-11.87">
   <stop offset="0" stop-color="#d1d5d9"/>
   <stop offset="1" stop-color="#fcffff"/>
  </linearGradient>
  <path style="fill:url(#gradient3)"
        d="M10.41 19.34C20.83 19.34 31.25 19.34 41.67 19.34C43.31 19.34 44.65 20.68 44.65 22.32V22.32C44.65 23.96 43.31 25.3 41.67 25.3C31.25 25.3 20.83 25.3 10.41 25.3C8.77 25.3 7.44 23.96 7.44 22.32V22.32C7.44 20.68 8.77 19.34 10.41 19.34V19.34V19.34z"
        transform="matrix(0.8787,0,0,0.8558,3,5)"
  />
  <path style="fill:none; stroke:#004e6e; stroke-opacity:0.098; stroke-width:1.4883"
        d="M10.41 18.6C20.83 18.6 31.25 18.6 41.67 18.6C43.72 18.6 45.39 20.27 45.39 22.32V22.32C45.39 24.38 43.72 26.04 41.67 26.04C31.25 26.04 20.83 26.04 10.41 26.04C8.36 26.04 6.69 24.38 6.69 22.32V22.32C6.69 20.27 8.36 18.6 10.41 18.6V18.6V18.6z"
        transform="matrix(0.8787,0,0,0.8558,3,5)"
  />
  <linearGradient id="gradient4" gradientUnits="userSpaceOnUse" x1="46.2" y1="66.72" x2="11.06" y2="37.44">
   <stop offset="0" stop-color="#d1d5d9"/>
   <stop offset="1" stop-color="#fcffff"/>
  </linearGradient>
  <path style="fill:url(#gradient4)"
        d="M10.41 29.76C18.35 29.76 26.29 29.76 34.23 29.76C35.87 29.76 37.2 31.1 37.2 32.74V32.74C37.2 34.38 35.87 35.72 34.23 35.72C26.29 35.72 18.35 35.72 10.41 35.72C8.77 35.72 7.44 34.38 7.44 32.74V32.74C7.44 31.1 8.77 29.76 10.41 29.76V29.76V29.76z"
        transform="matrix(0.8787,0,0,0.8558,3,5)"
  />
  <path style="fill:none; stroke:#004e6e; stroke-opacity:0.098; stroke-width:1.4883"
        d="M10.41 29.02C18.35 29.02 26.29 29.02 34.23 29.02C36.28 29.02 37.95 30.68 37.95 32.74V32.74C37.95 34.79 36.28 36.46 34.23 36.46C26.29 36.46 18.35 36.46 10.41 36.46C8.36 36.46 6.69 34.79 6.69 32.74V32.74C6.69 30.68 8.36 29.02 10.41 29.02V29.02V29.02z"
        transform="matrix(0.8787,0,0,0.8558,3,5)"
  />
 </g>
</svg>
