<?xml version="1.0" encoding="UTF-8" standalone="yes"?>
<svg version="1.1" width="64" height="64" color-interpolation="linearRGB"
     xmlns:svg="http://www.w3.org/2000/svg" xmlns="http://www.w3.org/2000/svg">
 <g>
  <path style="fill:none; stroke:#000000; stroke-width:4"
        d="M46 10C46 5.57 39.72 2 32 2C24.26 2 18 5.57 18 10C18 12 18 14 18 16C22.66 16 27.33 16 32 16C32 16.66 32 17.33 32 18C24.66 18 17.33 18 10 18C5.57 18 2 24.26 2 32C2 39.72 5.57 46 10 46C12 46 14 46 16 46C16 44 16 42 16 40C16 35.02 20.02 31 25 31C29.66 31 34.33 31 39 31C42.86 31 46 27.86 46 24C46 19.33 46 14.66 46 10
           M28 9C28 10.64 26.64 12 25 12C23.34 12 22 10.64 22 9C22 7.34 23.34 6 25 6C26.64 6 28 7.34 28 9V9V9z"
  />
  <linearGradient id="gradient0" gradientUnits="userSpaceOnUse" x1="95.68" y1="-41.88" x2="112.83" y2="-14.86">
   <stop offset="0" stop-color="#5a9fd4"/>
   <stop offset="1" stop-color="#306998"/>
  </linearGradient>
  <path style="fill:url(#gradient0)"
        d="M46 10C46 5.57 39.72 2 32 2C24.26 2 18 5.57 18 10C18 12 18 14 18 16C22.66 16 27.33 16 32 16C32 16.66 32 17.33 32 18C24.66 18 17.33 18 10 18C5.57 18 2 24.26 2 32C2 39.72 5.57 46 10 46C12 46 14 46 16 46C16 44 16 42 16 40C16 35.02 20.02 31 25 31C29.66 31 34.33 31 39 31C42.86 31 46 27.86 46 24C46 19.33 46 14.66 46 10
           M28 9C28 10.64 26.64 12 25 12C23.34 12 22 10.64 22 9C22 7.34 23.34 6 25 6C26.64 6 28 7.34 28 9V9V9z"
  />
  <path style="fill:none; stroke:#000000; stroke-width:4"
        d="M17.99 53.99C17.99 58.42 24.27 61.99 31.99 61.99C39.73 61.99 45.99 58.42 45.99 53.99C45.99 51.99 45.99 49.99 45.99 47.99C41.33 47.99 36.66 47.99 31.99 47.99C31.99 47.33 31.99 46.66 31.99 45.99C39.33 45.99 46.66 45.99 53.99 45.99C58.42 45.99 61.99 39.73 61.99 31.99C61.99 24.27 58.42 17.99 53.99 17.99C51.99 17.99 49.99 17.99 47.99 17.99C47.99 19.99 47.99 21.99 47.99 23.99C47.99 28.97 43.97 32.99 38.99 32.99C34.33 32.99 29.66 32.99 24.99 32.99C21.13 32.99 17.99 36.13 17.99 39.99C17.99 44.66 17.99 49.33 17.99 53.99
           M35.99 54.99C35.99 53.34 37.34 51.99 38.99 51.99C40.65 51.99 41.99 53.34 41.99 54.99C41.99 56.65 40.65 57.99 38.99 57.99C37.34 57.99 35.99 56.65 35.99 54.99V54.99V54.99z"
  />
  <linearGradient id="gradient1" gradientUnits="userSpaceOnUse" x1="112.67" y1="-22.53" x2="129.83" y2="4.5">
   <stop offset="0" stop-color="#fff1a5"/>
   <stop offset="1" stop-color="#ffd439"/>
  </linearGradient>
  <path style="fill:url(#gradient1)"
        d="M17.99 53.99C17.99 58.42 24.27 61.99 31.99 61.99C39.73 61.99 45.99 58.42 45.99 53.99C45.99 51.99 45.99 49.99 45.99 47.99C41.33 47.99 36.66 47.99 31.99 47.99C31.99 47.33 31.99 46.66 31.99 45.99C39.33 45.99 46.66 45.99 53.99 45.99C58.42 45.99 61.99 39.73 61.99 31.99C61.99 24.27 58.42 17.99 53.99 17.99C51.99 17.99 49.99 17.99 47.99 17.99C47.99 19.99 47.99 21.99 47.99 23.99C47.99 28.97 43.97 32.99 38.99 32.99C34.33 32.99 29.66 32.99 24.99 32.99C21.13 32.99 17.99 36.13 17.99 39.99C17.99 44.66 17.99 49.33 17.99 53.99
           M35.99 54.99C35.99 53.34 37.34 51.99 38.99 51.99C40.65 51.99 41.99 53.34 41.99 54.99C41.99 56.65 40.65 57.99 38.99 57.99C37.34 57.99 35.99 56.65 35.99 54.99V54.99V54.99z"
  />
 </g>
</svg>
