<?xml version="1.0" encoding="UTF-8" standalone="yes"?>
<svg version="1.1" width="64" height="64" color-interpolation="linearRGB"
     xmlns:svg="http://www.w3.org/2000/svg" xmlns="http://www.w3.org/2000/svg">
 <g>
  <path style="fill:#000000; fill-opacity:0.3725"
        d="M42 62L55 61C55 61 64 50 64 49C64 47 53 45 53 45L52 52L42 62z"
        transform="matrix(1,0,0,1,-3,0)"
  />
  <path style="fill:none; stroke:#000000; stroke-width:5; stroke-linecap:round; stroke-linejoin:round"
        d="M8 7C8 7 16 9 25 13C32.92 16.5 42 21 42 21C42 21 44 28 44 40C44 51 42 60 42 60C42 60 37 60 23 53C11.78 47.39 8 43 8 43C8 43 6 40 6 25C6 11 8 7 8 7z
           M8 7L19 3C19 3 25.22 3.37 34 7C51 14 51 16 51 16L42 21C42 21 33.24 16.87 25 13C17.26 9.37 8 7 8 7z
           M42 60C42 60 43 52.99 43 39C43 30 42 21 42 21L51 16C51 16 53 21 53 34C53 48 51 52 51 52L42 60z"
        transform="matrix(1,0,0,1,-3,0)"
  />
  <linearGradient id="gradient0" gradientUnits="userSpaceOnUse" x1="43.24" y1="-27.06" x2="68.48" y2="8.26">
   <stop offset="0" stop-color="#c0ecc0"/>
   <stop offset="1" stop-color="#27f527"/>
  </linearGradient>
  <path style="fill:url(#gradient0)"
        d="M8 7L19 3C19 3 25.22 3.37 34 7C51 14 51 16 51 16L42 21C42 21 33.24 16.87 25 13C17.26 9.37 8 7 8 7z"
        transform="matrix(1,0,0,1,-3,0)"
  />
  <linearGradient id="gradient1" gradientUnits="userSpaceOnUse" x1="36.96" y1="-9.11" x2="62.96" y2="1.95">
   <stop offset="0.0039" stop-color="#05ce05"/>
   <stop offset="1" stop-color="#026c02"/>
  </linearGradient>
  <path style="fill:url(#gradient1)"
        d="M42 60C42 60 43 52.99 43 39C43 30 42 21 42 21L51 16C51 16 53 21 53 34C53 48 51 52 51 52L42 60z"
        transform="matrix(1,0,0,1,-3,0)"
  />
  <linearGradient id="gradient2" gradientUnits="userSpaceOnUse" x1="-24.08" y1="-49.16" x2="48.98" y2="3.92">
   <stop offset="0" stop-color="#80ff80"/>
   <stop offset="1" stop-color="#04ab04"/>
  </linearGradient>
  <path style="fill:url(#gradient2)"
        d="M8 7C8 7 16 9 25 13C32.92 16.5 42 21 42 21C42 21 44 28 44 40C44 51 42 60 42 60C42 60 37 60 23 53C11.78 47.39 8 43 8 43C8 43 6 40 6 25C6 11 8 7 8 7z"
        transform="matrix(1,0,0,1,-3,0)"
  />
  <path style="fill:none; stroke:#000000; stroke-opacity:0.3725; stroke-width:5; stroke-linecap:round; stroke-linejoin:round"
        d="M24 34C24 41 21.81 44.4 17 42C11 39 12 32 12 26C12 19 14.89 17.74 18 19C23 21 24 24 24 34z
           M20 38L24 46
           M33 28V45C33 45 32.59 49.59 34 51C35 52 36 52 36 52
           M30 34L37 37"
        transform="matrix(0.9999,0,0,1.0253,-3.9999,-0.3948)"
  />
  <linearGradient id="gradient3" gradientUnits="userSpaceOnUse" x1="14.41" y1="-1.76" x2="41.26" y2="32.91">
   <stop offset="0" stop-color="#ffffff"/>
   <stop offset="1" stop-color="#bbdab1"/>
  </linearGradient>
  <path style="fill:none; stroke:url(#gradient3); stroke-width:3; stroke-linecap:round; stroke-linejoin:round"
        d="M24 34C24 41 21.81 44.4 17 42C11 39 12 32 12 26C12 19 14.89 17.74 18 19C23 21 24 24 24 34z
           M20 38L24 46
           M33 28V45C33 45 32.59 49.59 34 51C35 52 36 52 36 52
           M30 34L37 37"
        transform="matrix(1,0,0,1,-3,0)"
  />
  <path style="fill:none; stroke:#ffffff; stroke-width:16; stroke-linecap:round; stroke-linejoin:round"
        d="M59.14 37.39C51.98 44.82 44.82 52.24 37.65 59.66C36.1 58.18 34.54 56.69 32.98 55.21C32.98 55.21 46.06 42.63 46.06 42.74C46.06 42.85 8.69 43.01 8.69 42.74C8.69 42.4 8.69 36.5 8.69 36.5C25.51 36.8 42.33 37.1 59.14 37.39V37.39z"
        transform="matrix(0.4224,0,0,0.467,34.8872,32.4304)"
  />
  <path style="fill:none; stroke:#800000; stroke-width:9; stroke-linecap:round; stroke-linejoin:round"
        d="M56.27 35.18C49.11 42.6 41.95 50.02 34.79 57.44C33.23 55.96 31.67 54.47 30.11 53C30.11 53 43.19 40.41 43.19 40.52C43.19 40.64 5.82 40.8 5.82 40.52C5.82 40.18 5.82 34.29 5.82 34.29C22.64 34.58 39.46 34.88 56.27 35.18V35.18z"
        transform="matrix(0.41,0,0,0.467,36.499,33.2585)"
  />
  <linearGradient id="gradient4" gradientUnits="userSpaceOnUse" x1="152.56" y1="61.51" x2="152.56" y2="19.96">
   <stop offset="0" stop-color="#ffabab"/>
   <stop offset="1" stop-color="#d90000"/>
  </linearGradient>
  <path style="fill:url(#gradient4)"
        d="M56.27 35.18C49.11 42.6 41.95 50.02 34.79 57.44C33.23 55.96 31.67 54.47 30.11 53C30.11 53 43.19 40.41 43.19 40.52C43.19 40.64 5.82 40.8 5.82 40.52C5.82 40.18 5.82 34.29 5.82 34.29C22.64 34.58 39.46 34.88 56.27 35.18V35.18z"
        transform="matrix(0.41,0,0,0.467,36.499,33.2585)"
  />
  <path style="fill:none; stroke:#ffffff; stroke-width:16; stroke-linecap:round; stroke-linejoin:round"
        d="M7.76 30.41C14.62 23.09 21.48 15.77 28.34 8.45C29.9 9.91 31.46 11.38 33.02 12.84C31.15 14.6 20.74 25.14 20.86 25.14C21.79 25.14 58.28 25.14 58.28 25.14C58.28 27.19 58.28 29.23 58.28 31.28C41.44 31 24.6 30.7 7.76 30.41V30.41z"
        transform="matrix(0.41,0,0,0.469,35.7036,29.1636)"
  />
  <path style="fill:none; stroke:#063071; stroke-width:9; stroke-linecap:round; stroke-linejoin:round"
        d="M5.89 28.65C12.75 21.33 19.61 14.01 26.47 6.69C28.03 8.16 29.59 9.62 31.15 11.08C29.28 12.84 18.87 23.38 19 23.38C19.92 23.38 56.41 23.38 56.41 23.38C56.41 25.43 56.41 27.48 56.41 29.53C39.57 29.23 22.73 28.94 5.89 28.65V28.65z"
        transform="matrix(0.41,0,0,0.467,36.499,29.9466)"
  />
  <linearGradient id="gradient5" gradientUnits="userSpaceOnUse" x1="128.85" y1="2.68" x2="128.85" y2="43.63">
   <stop offset="0" stop-color="#dbf2fd"/>
   <stop offset="1" stop-color="#00aaff"/>
  </linearGradient>
  <path style="fill:url(#gradient5)"
        d="M5.89 28.65C12.75 21.33 19.61 14.01 26.47 6.69C28.03 8.16 29.59 9.62 31.15 11.08C29.28 12.84 18.87 23.38 19 23.38C19.92 23.38 56.41 23.38 56.41 23.38C56.41 25.43 56.41 27.48 56.41 29.53C39.57 29.23 22.73 28.94 5.89 28.65V28.65z"
        transform="matrix(0.41,0,0,0.467,36.499,29.9466)"
  />
 </g>
</svg>
