<?xml version="1.0" encoding="UTF-8" standalone="yes"?>
<svg version="1.1" width="64" height="64" color-interpolation="linearRGB"
     xmlns:svg="http://www.w3.org/2000/svg" xmlns="http://www.w3.org/2000/svg">
 <g>
  <path style="fill:#000000; fill-opacity:0.3725"
        d="M42 62L55 61C55 61 64 50 64 49C64 47 53 45 53 45L52 52L42 62z"
        transform="matrix(1,0,0,1,-3,0)"
  />
  <path style="fill:none; stroke:#000000; stroke-width:5; stroke-linecap:round; stroke-linejoin:round"
        d="M8 7C8 7 16 9 25 13C32.92 16.5 42 21 42 21C42 21 44 28 44 40C44 51 42 60 42 60C42 60 37 60 23 53C11.78 47.39 8 43 8 43C8 43 6 40 6 25C6 11 8 7 8 7z
           M8 7L19 3C19 3 25.22 3.37 34 7C51 14 51 16 51 16L42 21C42 21 33.24 16.87 25 13C17.26 9.37 8 7 8 7z
           M42 60C42 60 43 52.99 43 39C43 30 42 21 42 21L51 16C51 16 53 21 53 34C53 48 51 52 51 52L42 60z"
        transform="matrix(1,0,0,1,-3,0)"
  />
  <linearGradient id="gradient0" gradientUnits="userSpaceOnUse" x1="43.24" y1="-27.06" x2="68.48" y2="8.26">
   <stop offset="0" stop-color="#c0ecc0"/>
   <stop offset="1" stop-color="#27f527"/>
  </linearGradient>
  <path style="fill:url(#gradient0)"
        d="M8 7L19 3C19 3 25.22 3.37 34 7C51 14 51 16 51 16L42 21C42 21 33.24 16.87 25 13C17.26 9.37 8 7 8 7z"
        transform="matrix(1,0,0,1,-3,0)"
  />
  <linearGradient id="gradient1" gradientUnits="userSpaceOnUse" x1="36.96" y1="-9.11" x2="62.96" y2="1.95">
   <stop offset="0.0039" stop-color="#05ce05"/>
   <stop offset="1" stop-color="#026c02"/>
  </linearGradient>
  <path style="fill:url(#gradient1)"
        d="M42 60C42 60 43 52.99 43 39C43 30 42 21 42 21L51 16C51 16 53 21 53 34C53 48 51 52 51 52L42 60z"
        transform="matrix(1,0,0,1,-3,0)"
  />
  <linearGradient id="gradient2" gradientUnits="userSpaceOnUse" x1="-24.08" y1="-49.16" x2="48.98" y2="3.92">
   <stop offset="0" stop-color="#80ff80"/>
   <stop offset="1" stop-color="#04ab04"/>
  </linearGradient>
  <path style="fill:url(#gradient2)"
        d="M8 7C8 7 16 9 25 13C32.92 16.5 42 21 42 21C42 21 44 28 44 40C44 51 42 60 42 60C42 60 37 60 23 53C11.78 47.39 8 43 8 43C8 43 6 40 6 25C6 11 8 7 8 7z"
        transform="matrix(1,0,0,1,-3,0)"
  />
  <path style="fill:none; stroke:#000000; stroke-opacity:0.3725; stroke-width:5; stroke-linecap:round; stroke-linejoin:round"
        d="M24 34C24 41 21.81 44.4 17 42C11 39 12 32 12 26C12 19 14.89 17.74 18 19C23 21 24 24 24 34z
           M20 38L24 46
           M33 28V45C33 45 32.59 49.59 34 51C35 52 36 52 36 52
           M30 34L37 37"
        transform="matrix(0.9999,0,0,1.0253,-3.9999,-0.3948)"
  />
  <linearGradient id="gradient3" gradientUnits="userSpaceOnUse" x1="14.41" y1="-1.76" x2="41.26" y2="32.91">
   <stop offset="0" stop-color="#ffffff"/>
   <stop offset="1" stop-color="#bbdab1"/>
  </linearGradient>
  <path style="fill:none; stroke:url(#gradient3); stroke-width:3; stroke-linecap:round; stroke-linejoin:round"
        d="M24 34C24 41 21.81 44.4 17 42C11 39 12 32 12 26C12 19 14.89 17.74 18 19C23 21 24 24 24 34z
           M20 38L24 46
           M33 28V45C33 45 32.59 49.59 34 51C35 52 36 52 36 52
           M30 34L37 37"
        transform="matrix(1,0,0,1,-3,0)"
  />
  <path style="fill:none; stroke:#ffffff; stroke-width:8"
        d="M18 51C18 53 18 55 18 57C20 58 22 59 24 60C25.33 59 26.65 58 28 57C28 54.66 28 52.32 28 50C26.33 49.07 24.65 48.16 23 47.24C21.33 48.5 19.65 49.74 18 51V51z
           M6 50C6 52.32 6 54.66 6 57C8 58 10 59 12 60C13.32 59 14.66 58 16 57C16 54.66 16 52.32 16 50C14 49 12 48 10 47C8.66 48 7.33 49 6 50V50z
           M12 39C12 41.32 12 43.66 12 46C14 47 16 48 18 49C19.33 48 20.65 47 22 46C22 43.66 22 41.32 22 39C20 38 18 37 16 36C14.66 37 13.32 38 12 39V39z"
        transform="matrix(1.0333,0,0,1.0299,30.9332,-2.9385)"
  />
  <path style="fill:none; stroke:#000000; stroke-width:4"
        d="M18 51C18 53 18 55 18 57C20 58 22 59 24 60C25.33 59 26.65 58 28 57C28 54.66 28 52.32 28 50C26.33 49.07 24.65 48.16 23 47.24C21.33 48.5 19.65 49.74 18 51V51z
           M6 50C6 52.32 6 54.66 6 57C8 58 10 59 12 60C13.32 59 14.66 58 16 57C16 54.66 16 52.32 16 50C14 49 12 48 10 47C8.66 48 7.33 49 6 50V50z
           M12 39C12 41.32 12 43.66 12 46C14 47 16 48 18 49C19.33 48 20.65 47 22 46C22 43.66 22 41.32 22 39C20 38 18 37 16 36C14.66 37 13.32 38 12 39V39z"
        transform="matrix(1.0333,0,0,1.0299,30.9332,-2.9385)"
  />
  <linearGradient id="gradient4" gradientUnits="userSpaceOnUse" x1="37.23" y1="20.05" x2="44.3" y2="30.38">
   <stop offset="0" stop-color="#fff9ba"/>
   <stop offset="1" stop-color="#ffc104"/>
  </linearGradient>
  <path style="fill:url(#gradient4)"
        d="M12 39C12 41.32 12 43.66 12 46C14 47 16 48 18 49C19.33 48 20.65 47 22 46C22 43.66 22 41.32 22 39C20 38 18 37 16 36C14.66 37 13.32 38 12 39V39z"
        transform="matrix(1.0333,0,0,1.0299,30.9332,-2.9385)"
  />
  <linearGradient id="gradient5" gradientUnits="userSpaceOnUse" x1="25.67" y1="29.94" x2="35.71" y2="40.25">
   <stop offset="0" stop-color="#c7e3ff"/>
   <stop offset="1" stop-color="#392fff"/>
  </linearGradient>
  <path style="fill:url(#gradient5)"
        d="M6 50C6 52.32 6 54.66 6 57C8 58 10 59 12 60C13.32 59 14.66 58 16 57C16 54.66 16 52.32 16 50C14 49 12 48 10 47C8.66 48 7.33 49 6 50V50z"
        transform="matrix(1.0333,0,0,1.0299,30.9332,-2.9385)"
  />
  <linearGradient id="gradient6" gradientUnits="userSpaceOnUse" x1="46.8" y1="31.97" x2="54.06" y2="44.91">
   <stop offset="0" stop-color="#ff9797"/>
   <stop offset="1" stop-color="#ce3232"/>
  </linearGradient>
  <path style="fill:url(#gradient6)"
        d="M18 51C18 53 18 55 18 57C20 58 22 59 24 60C25.33 59 26.65 58 28 57C28 54.66 28 52.32 28 50C26.33 49.07 24.65 48.16 23 47.24C21.33 48.5 19.65 49.74 18 51V51z"
        transform="matrix(1.0333,0,0,1.0299,30.9332,-2.9385)"
  />
 </g>
</svg>
