<?xml version="1.0" encoding="UTF-8" standalone="yes"?>
<svg version="1.1" width="64" height="64" color-interpolation="linearRGB"
     xmlns:svg="http://www.w3.org/2000/svg" xmlns="http://www.w3.org/2000/svg">
 <g>
  <path style="fill:#000000; fill-opacity:0.3529"
        d="M40 36C26.74 36 16 40.92 16 47C16 53.03 23.74 57 37 57C38.88 57 44.89 60.35 48 61C53 62 53.31 62 57 62C61 62 62.08 60.09 63 60C63.67 59.9 60 60 56 59C52.93 58.22 53 58 50 57C48.07 56.34 51 56 54 55C56.09 54.26 64 52 64 47C64 41 53.24 36 40 36z"
        transform="matrix(1,0,0,1,-1,0)"
  />
  <path style="fill:#000000"
        d="M32 16C23.13 16 16 23.13 16 32C16 40.81 23.13 48 32 48C40.81 48 48 40.81 48 32C48 23.13 40.81 16 32 16z"
        transform="matrix(1.5055,0,0,1.5349,-18.1763,-20.6175)"
  />
  <radialGradient id="gradient0" gradientUnits="userSpaceOnUse" cx="0" cy="0" r="64" gradientTransform="matrix(0.5937,0,0,0.7343,28,10)">
   <stop offset="0" stop-color="#92b8eb"/>
   <stop offset="1" stop-color="#1f5ba0"/>
  </radialGradient>
  <path style="fill:url(#gradient0)"
        d="M32 16C23.13 16 16 23.13 16 32C16 40.81 23.13 48 32 48C40.81 48 48 40.81 48 32C48 23.13 40.81 16 32 16z"
        transform="matrix(1.5055,0,0,1.5349,-18.1763,-20.6175)"
  />
  <path style="fill:#000000"
        d="M16.87 38.76C19.96 36.19 23.24 33.78 26.83 32C28.21 32.34 29.64 32.08 31.06 32.43C35.5 33.24 39.62 35.42 43.52 37.62C47.74 40 51.81 42.52 56.24 44.48C58.24 45.32 60.34 45.84 62.5 46.18C61.83 46.54 61.06 46.73 60.33 46.91C58.26 47.39 56.2 47.88 54.03 47.93C51.42 48 48.73 48.29 46.12 47.73C42.24 47 38.74 45.16 35.24 43.44C33.45 42.56 31.61 41.7 29.69 41.24C26.56 40.5 23.24 40.72 20.19 41.55C16.71 42.5 13.5 44.14 10.18 45.52C12.11 43 14.53 40.91 16.87 38.76z"
        transform="matrix(0.9192,0,0,0.8434,2.4298,1.7631)"
  />
  <path style="fill:#6fd4fc"
        d="M16.87 38.76C19.96 36.19 23.24 33.78 26.83 32C28.21 32.34 29.64 32.08 31.06 32.43C35.5 33.24 39.62 35.42 43.52 37.62C47.74 40 51.81 42.52 56.24 44.48C58.24 45.32 60.34 45.84 62.5 46.18C61.83 46.54 61.06 46.73 60.33 46.91C58.26 47.39 56.2 47.88 54.03 47.93C51.42 48 48.73 48.29 46.12 47.73C42.24 47 38.74 45.16 35.24 43.44C33.45 42.56 31.61 41.7 29.69 41.24C26.56 40.5 23.24 40.72 20.19 41.55C16.71 42.5 13.5 44.14 10.18 45.52C12.11 43 14.53 40.91 16.87 38.76z"
        transform="matrix(0.9192,0,0,0.8434,2.4298,1.7631)"
  />
  <path style="fill:#000000"
        d="M11.47 16.65C15.55 14.93 20.2 14.5 24.59 15.22C30.9 16.11 36.82 18.69 42.54 21.38C46.51 23.24 50.41 25.38 54.53 26.84C52.52 26.85 50.52 26.58 48.52 26.61C41 26.63 33.47 28.39 26.83 32C23.24 33.78 19.96 36.19 16.87 38.76C14.53 40.91 12.11 43 10.18 45.52C10.05 45.58 9.81 45.73 9.72 45.76C8.99 44.84 8.5 43.76 8.05 42.72C6.71 39.33 6.07 35.73 6.11 32.08C6.04 27.25 7.11 22.38 9.43 18.11C9.8 17.32 10.68 17 11.47 16.65z"
        transform="matrix(1,0,0,1,-2,-4)"
  />
  <path style="fill:#000000; fill-opacity:0.3529"
        d="M11.47 16.65C15.55 14.93 20.2 14.5 24.59 15.22C30.9 16.11 36.82 18.69 42.54 21.38C46.51 23.24 50.41 25.38 54.53 26.84C52.52 26.85 50.52 26.58 48.52 26.61C41 26.63 33.47 28.39 26.83 32C23.24 33.78 19.96 36.19 16.87 38.76C14.53 40.91 12.11 43 10.18 45.52C10.05 45.58 9.81 45.73 9.72 45.76C8.99 44.84 8.5 43.76 8.05 42.72C6.71 39.33 6.07 35.73 6.11 32.08C6.04 27.25 7.11 22.38 9.43 18.11C9.8 17.32 10.68 17 11.47 16.65z"
        transform="matrix(0.9793,0,0,1,3.1262,0)"
  />
  <path style="fill:#ffffff"
        d="M11.47 16.65C15.55 14.93 20.2 14.5 24.59 15.22C30.9 16.11 36.82 18.69 42.54 21.38C46.51 23.24 50.41 25.38 54.53 26.84C52.52 26.85 50.52 26.58 48.52 26.61C41 26.63 33.47 28.39 26.83 32C23.24 33.78 19.96 36.19 16.87 38.76C14.53 40.91 12.11 43 10.18 45.52C10.05 45.58 9.81 45.73 9.72 45.76C8.99 44.84 8.5 43.76 8.05 42.72C6.71 39.33 6.07 35.73 6.11 32.08C6.04 27.25 7.11 22.38 9.43 18.11C9.8 17.32 10.68 17 11.47 16.65z"
        transform="matrix(1,0,0,1,-2,-4)"
  />
 </g>
</svg>
