<?xml version="1.0" encoding="UTF-8" standalone="yes"?>
<svg version="1.1" width="64" height="64" color-interpolation="linearRGB"
     xmlns:svg="http://www.w3.org/2000/svg" xmlns="http://www.w3.org/2000/svg">
 <g>
  <path style="fill:#000000; fill-opacity:0.349"
        d="M39 36C25.73 36 15 40.91 15 47C15 53.02 22.73 57 36 57C37.88 57 43.88 60.34 47 61C52 62 52.31 62 56 62C60 62 61.08 60.09 62 60C62.66 59.9 59 60 55 59C51.93 58.22 52 58 49 57C47.06 56.34 50 56 53 55C55.09 54.25 63 52 63 47C63 41 52.24 36 39 36V36V36z"
  />
  <path style="fill:none; stroke:#000000; stroke-width:4"
        d="M29.99 3.94C16.64 3.94 5.91 14.88 5.91 28.49C5.91 42.02 16.64 53.05 29.99 53.05C43.26 53.05 54.08 42.02 54.08 28.49C54.08 14.88 43.26 3.94 29.99 3.94V3.94V3.94z"
  />
  <radialGradient id="gradient0" gradientUnits="userSpaceOnUse" cx="0" cy="0" r="64" gradientTransform="matrix(0,1.127,-0.8938,0,23.9776,-5.2685)">
   <stop offset="0" stop-color="#92b8eb"/>
   <stop offset="1" stop-color="#1f5ba0"/>
  </radialGradient>
  <path style="fill:url(#gradient0)"
        d="M29.99 3.94C16.64 3.94 5.91 14.88 5.91 28.49C5.91 42.02 16.64 53.05 29.99 53.05C43.26 53.05 54.08 42.02 54.08 28.49C54.08 14.88 43.26 3.94 29.99 3.94V3.94V3.94z"
  />
  <path style="fill:none; stroke:#000000; stroke-width:4; stroke-linecap:square"
        d="M17 32C20 29 27 28 30 29C34.08 29.68 38.84 31.63 42.43 33.49C46.31 35.49 50.05 37.62 54.12 39.27C55.96 39.98 57.89 40.42 59.87 40.71C59.26 41.01 58.55 41.17 57.88 41.32C55.98 41.73 54.08 42.14 52.09 42.18C49.69 42.24 47.22 42.49 44.82 42.01C41.25 41.4 38.03 39.85 34.82 38.4C33.17 37.65 31.48 36.93 29.72 36.54C26.84 35.92 23.79 36.1 20.98 36.8C17.78 37.6 16.05 37.83 13 39C14.77 36.87 17 32 17 32z"
  />
  <path style="fill:#6fd4fc"
        d="M17.93 34.45C20.77 32.28 23.79 30.25 27.09 28.75C28.36 29.03 29.67 28.81 30.98 29.11C35.06 29.79 38.84 31.63 42.43 33.49C46.31 35.49 50.05 37.62 54.12 39.27C55.96 39.98 57.89 40.42 59.87 40.71C59.26 41.01 58.55 41.17 57.88 41.32C55.98 41.73 54.08 42.14 52.09 42.18C49.69 42.24 47.22 42.49 44.82 42.01C41.25 41.4 38.03 39.85 34.82 38.4C33.17 37.65 31.48 36.93 29.72 36.54C26.84 35.92 23.79 36.1 20.98 36.8C17.78 37.6 14.83 38.99 11.78 40.15C13.56 38.02 15.78 36.26 17.93 34.45V34.45V34.45z"
  />
  <path style="fill:none; stroke:#000000; stroke-width:4; stroke-linejoin:round"
        d="M9.47 12.64C13.55 10.93 18.2 10.5 22.59 11.22C28.89 12.11 34.81 14.69 40.54 17.37C44.5 19.23 48.4 21.37 52.52 22.84C50.52 22.85 48.52 22.57 46.52 22.61C39 22.62 31.47 24.38 24.82 28C21.23 29.77 17.95 32.18 14.87 34.75C12.52 36.9 10.1 39 8.18 41.52C8.05 41.58 7.81 41.72 7.72 41.75C6.98 40.84 6.5 39.75 6.05 38.72C4.71 35.33 4.07 31.72 4.11 28.08C4.03 23.25 5.11 18.37 7.43 14.11C7.8 13.31 8.68 13 9.47 12.64V12.64V12.64z"
  />
  <path style="fill:#000000; fill-opacity:0.349"
        d="M14.35 16.64C18.35 14.93 22.9 14.5 27.2 15.22C33.38 16.11 39.18 18.69 44.78 21.37C48.67 23.23 52.49 25.37 56.52 26.84C54.55 26.85 52.6 26.57 50.64 26.61C43.27 26.62 35.9 28.38 29.4 32C25.88 33.77 22.67 36.18 19.64 38.75C17.35 40.9 14.98 43 13.09 45.52C12.96 45.58 12.73 45.72 12.64 45.75C11.93 44.84 11.45 43.75 11 42.72C9.69 39.33 9.07 35.72 9.1 32.08C9.04 27.25 10.08 22.37 12.36 18.11C12.72 17.31 13.58 17 14.35 16.64V16.64V16.64z"
  />
  <path style="fill:#ffffff"
        d="M9.47 12.64C13.55 10.93 18.2 10.5 22.59 11.22C28.89 12.11 34.81 14.69 40.54 17.37C44.5 19.23 48.4 21.37 52.52 22.84C50.52 22.85 48.52 22.57 46.52 22.61C39 22.62 31.47 24.38 24.82 28C21.23 29.77 17.95 32.18 14.87 34.75C12.52 36.9 10.1 39 8.18 41.52C8.05 41.58 7.81 41.72 7.72 41.75C6.98 40.84 6.5 39.75 6.05 38.72C4.71 35.33 4.07 31.72 4.11 28.08C4.03 23.25 5.11 18.37 7.43 14.11C7.8 13.31 8.68 13 9.47 12.64V12.64V12.64z"
  />
 </g>
</svg>
