<?xml version="1.0" encoding="UTF-8" standalone="yes"?>
<svg version="1.1" width="64" height="64" color-interpolation="linearRGB"
     xmlns:svg="http://www.w3.org/2000/svg" xmlns="http://www.w3.org/2000/svg">
 <g>
  <path style="fill:#000000; fill-opacity:0.4"
        d="M32 16C23.15 16 16 23.15 16 32C16 40.83 23.15 48 32 48C40.83 48 48 40.83 48 32C48 23.15 40.83 16 32 16z"
        transform="matrix(1.75,0,0,0.9687,-20,13.5)"
  />
  <path style="fill:#000000"
        d="M31.26 1.34C14.35 1.34 0.62 15.05 0.62 31.98C0.62 48.88 14.35 62.57 31.26 62.57C48.2 62.57 61.92 48.89 61.92 31.98C61.92 15.05 48.2 1.34 31.26 1.34z"
        transform="matrix(0.9619,0,0,0.9696,0.0276,-0.0964)"
  />
  <path style="fill:#000000"
        d="M52.24 13.38C47.59 9.61 47.56 5.64 48.5 4.11C49.24 2.87 53.09 0.11 59.5 5.5C63.77 9.11 63.74 13.5 62.17 14.93C61.3 15.74 59.24 18.06 52.24 13.41V13.38z"
        transform="matrix(0.9298,0,0,0.9375,1.0311,0.9304)"
  />
  <linearGradient id="gradient0" gradientUnits="userSpaceOnUse" x1="22.96" y1="72.98" x2="-9.28" y2="24.59">
   <stop offset="0" stop-color="#095986"/>
   <stop offset="1" stop-color="#56a8eb"/>
  </linearGradient>
  <path style="fill:url(#gradient0)"
        d="M7.08 48.32C15.93 61.55 33.95 64.97 47.32 55.93C60.73 46.89 64.44 28.83 55.59 15.56C46.77 2.35 28.75 -1.04 15.37 8C1.96 17.01 -1.73 35.07 7.08 48.32z"
        transform="matrix(0.9298,0,0,0.9375,1.0311,0.9304)"
  />
  <linearGradient id="gradient1" gradientUnits="userSpaceOnUse" x1="10.04" y1="2.2" x2="62.81" y2="16.45">
   <stop offset="0" stop-color="#84c5f5"/>
   <stop offset="1" stop-color="#ffffff"/>
  </linearGradient>
  <path style="fill:url(#gradient1)"
        d="M3.5 23.63C3.5 23.63 7.5 6.33 26.5 3.32C29.5 8.81 32.65 16.13 25.5 30.5C18 45.42 27.63 54 27.63 54C9.15 43.31 3.5 23.64 3.5 23.64V23.63z"
        transform="matrix(0.9298,0,0,0.9375,1.0311,0.9304)"
  />
  <path style="fill:#665123"
        d="M50.97 4.68C48.31 10.87 32.39 29.1 29.24 54.34C38.68 38.31 52.28 37.3 52.28 37.3C52.28 37.3 52.17 21.51 60.84 12.81C58.57 2.48 50.97 4.68 50.97 4.68V4.68z"
        transform="matrix(0.9298,0,0,0.9375,1.0311,0.9304)"
  />
  <linearGradient id="gradient2" gradientUnits="userSpaceOnUse" x1="58.39" y1="13.93" x2="47.58" y2="6.97">
   <stop offset="0" stop-color="#83560b"/>
   <stop offset="1" stop-color="#fff2bc"/>
  </linearGradient>
  <path style="fill:url(#gradient2)"
        d="M51 5.8C48.93 10.8 34.5 27.61 30.24 52.34C40.85 36.84 51.85 37.49 51.85 37.49C51.85 37.49 51.59 21.99 60.24 13.36C58 3.11 50.93 5.43 51 5.8z"
        transform="matrix(0.9298,0,0,0.9375,1.0311,0.9304)"
  />
  <path style="fill:#665123"
        d="M41.17 26C42.17 26.15 41 27.56 40.53 28.65C40.39 29.03 39 30.11 38.78 30.61C36.03 36.94 30.74 50.09 30.74 50.09C30.74 50.09 36.28 34.84 38.5 29.78C38.93 28.77 38.29 28.87 38.93 27.78C39.48 26.86 40.54 25.87 41.17 26z"
        transform="matrix(0.9298,0,0,0.9375,1.0311,0.9304)"
  />
  <path style="fill:#c8ba96"
        d="M57.8 9.05C57.8 9.05 43.3 34.15 43.5 37.23C46.5 33.55 49.8 32.8 49.8 32.8C49.8 32.8 49.9 23.5 59.15 10.24L57.8 9.05V9.05z"
        transform="matrix(0.9298,0,0,0.9375,1.0311,0.9304)"
  />
 </g>
</svg>
