<?xml version="1.0" encoding="UTF-8" standalone="yes"?>
<svg version="1.1" width="64" height="64" color-interpolation="linearRGB"
     xmlns:svg="http://www.w3.org/2000/svg" xmlns="http://www.w3.org/2000/svg">
 <g>
  <path style="fill:#010101; fill-opacity:0.4196"
        d="M33.22 76.3L35.68 78.76L39.52 74.85L45.52 78.76L55.86 64.64L78.76 52.92L72.6 49.22L75.06 51.68L44.3 66.46L33.22 76.3z
           M71.38 48L76.3 44.3L71.38 41.84L67.68 45.52L71.38 48z"
        transform="matrix(0.7742,0,0,0.8035,1.8203,-0.5268)"
  />
  <path style="fill:none; stroke:#010101; stroke-width:4"
        d="M7.67 43.06C7.67 43.06 14.6 50.46 20.75 58.46C26.91 66.46 32.29 74.75 32.29 74.75L72.74 51.52L39.38 24.6L7.67 43.06z"
        transform="matrix(0.7742,0,0,0.8035,1.8203,-0.5268)"
  />
  <radialGradient id="gradient0" gradientUnits="userSpaceOnUse" cx="0" cy="0" r="64" gradientTransform="matrix(0.1787,0,0,0.0803,61.132,88.853)">
   <stop offset="0.4823" stop-color="#f1f1f1"/>
   <stop offset="1" stop-color="#ffffff"/>
  </radialGradient>
  <path style="fill:url(#gradient0)"
        d="M7.67 43.06C7.67 43.06 14.6 50.46 20.75 58.46C26.91 66.46 32.29 74.75 32.29 74.75L61.56 57.93L56.6 57.84L60.3 52.92L70.19 52.98L72.74 51.52L39.38 24.6L7.67 43.06z"
        transform="matrix(0.7742,0,0,0.8035,1.8203,-0.5268)"
  />
  <path style="fill:#e2e2e2"
        d="M61.56 57.93L56.6 57.84L60.3 52.92L70.19 52.98L61.56 57.93z"
        transform="matrix(0.7742,0,0,0.8035,1.8203,-0.5268)"
  />
  <path style="fill:none; stroke:#010101; stroke-width:4"
        d="M3.2 44.14C3.2 44.14 13.47 50.77 23.38 57.67C33.76 64.92 43.98 71.05 43.98 71.05L71.51 38.6C71.51 38.6 55.92 31.62 43.52 25.06C37.13 21.67 32 17.67 32 17.67L3.2 44.14z"
        transform="matrix(0.7742,0,0,0.8035,1.8203,-0.5268)"
  />
  <linearGradient id="gradient1" gradientUnits="userSpaceOnUse" x1="35.2" y1="59.42" x2="62.1" y2="59.42">
   <stop offset="0" stop-color="#efefef"/>
   <stop offset="0.7372" stop-color="#fcfcfc"/>
   <stop offset="1" stop-color="#f8f8f8"/>
  </linearGradient>
  <path style="fill:url(#gradient1)"
        d="M3.2 44.14C3.2 44.14 13.47 50.77 23.38 57.67C33.76 64.92 43.98 71.05 43.98 71.05L55.2 57.84L40.6 55.67L28.3 52.92L30.76 51.68L45.52 50.13L61.2 50.75L71.51 38.6C71.51 38.6 55.92 31.62 43.52 25.06C37.13 21.67 32 17.67 32 17.67L3.2 44.14z"
        transform="matrix(0.7742,0,0,0.8035,1.8203,-0.5268)"
  />
  <linearGradient id="gradient2" gradientUnits="userSpaceOnUse" x1="8.67" y1="-24.37" x2="50.89" y2="-15.21">
   <stop offset="0" stop-color="#00ff00"/>
   <stop offset="0.4784" stop-color="#00c119"/>
   <stop offset="1" stop-color="#007f33"/>
  </linearGradient>
  <path style="fill:url(#gradient2)"
        d="M17 44L24 37L27 40L21 47L17 44z"
        transform="matrix(1.0918,0,0,1.1391,-1.9198,-6.8232)"
  />
  <linearGradient id="gradient3" gradientUnits="userSpaceOnUse" x1="74.58" y1="114.11" x2="87.54" y2="114.11">
   <stop offset="0" stop-color="#828282"/>
   <stop offset="1" stop-color="#e0e0e0"/>
  </linearGradient>
  <path style="fill:url(#gradient3)"
        d="M55.2 57.84L40.6 55.67L28.3 52.92L30.76 51.68L45.52 50.13L61.2 50.75L55.2 57.84z"
        transform="matrix(0.7742,0,0,0.8035,1.8203,-0.5268)"
  />
  <path style="fill:none; stroke:#010101; stroke-width:4"
        d="M37.74 34.87L67.33 5.28C67.33 5.28 70.81 3.54 74.29 7.02C77.77 10.5 76.03 13.99 76.03 13.99L46.45 43.57L32.51 48.8L37.74 34.87z
           M39.07 34.53L39.48 38.35L42.97 41.84L46.76 42.22
           M62.56 11.03C62.4 12.38 62.59 14.48 64.72 16.59C66.83 18.7 68.93 18.91 70.26 18.73"
        transform="matrix(0.7742,0,0,0.8035,1.8203,-0.5268)"
  />
  <linearGradient id="gradient4" gradientUnits="userSpaceOnUse" x1="97.53" y1="42.88" x2="100.95" y2="39.45">
   <stop offset="0" stop-color="#ffeed5"/>
   <stop offset="0.549" stop-color="#dbab5f"/>
   <stop offset="0.8078" stop-color="#ffeed5"/>
  </linearGradient>
  <path style="fill:url(#gradient4)"
        d="M37.74 34.87L37.85 39.56L41.73 43.45L46.45 43.57L35.59 47.18L34.13 45.63L37.74 34.87z"
        transform="matrix(0.7742,0,0,0.8035,1.8203,-0.5268)"
  />
  <linearGradient id="gradient5" gradientUnits="userSpaceOnUse" x1="94.26" y1="12.54" x2="100.58" y2="6.22">
   <stop offset="0" stop-color="#ffeaba"/>
   <stop offset="1" stop-color="#fff6e3"/>
  </linearGradient>
  <path style="fill:url(#gradient5)"
        d="M39.48 33.13L39.41 38.14L62.1 15.72V10.5L39.48 33.13z"
        transform="matrix(0.7742,0,0,0.8035,1.8203,-0.5268)"
  />
  <linearGradient id="gradient6" gradientUnits="userSpaceOnUse" x1="101.6" y1="18.06" x2="108.89" y2="10.77">
   <stop offset="0" stop-color="#f0ab06"/>
   <stop offset="1" stop-color="#fbb50d"/>
  </linearGradient>
  <path style="fill:url(#gradient6)"
        d="M39.41 38.14L43.15 41.89L65.59 19.21L62.1 15.72L39.41 38.14z"
        transform="matrix(0.7742,0,0,0.8035,1.8203,-0.5268)"
  />
  <linearGradient id="gradient7" gradientUnits="userSpaceOnUse" x1="110.71" y1="19.88" x2="118.41" y2="12.18">
   <stop offset="0" stop-color="#a52a04"/>
   <stop offset="1" stop-color="#fdb44b"/>
  </linearGradient>
  <path style="fill:url(#gradient7)"
        d="M43.15 41.89L48.18 41.84L70.81 19.21H65.59L43.15 41.89z"
        transform="matrix(0.7742,0,0,0.8035,1.8203,-0.5268)"
  />
  <linearGradient id="gradient8" gradientUnits="userSpaceOnUse" x1="65.78" y1="3.95" x2="76.91" y2="13.46">
   <stop offset="0" stop-color="#a9ff00"/>
   <stop offset="0.4666" stop-color="#049d04"/>
   <stop offset="1" stop-color="#076602"/>
  </linearGradient>
  <path style="fill:url(#gradient8)"
        d="M66.9 5.28C66.9 5.28 65.59 8.76 69.07 12.24C72.55 15.72 76.03 13.99 76.03 13.99L59.06 30.96C59.06 30.96 55.47 32.58 51.99 29.1C48.5 25.62 50.25 22.14 50.25 22.14L66.9 5.28z"
        transform="matrix(0.7742,0,0,0.8035,1.8203,-0.5268)"
  />
  <radialGradient id="gradient9" gradientUnits="userSpaceOnUse" cx="0" cy="0" r="64" gradientTransform="matrix(0.0466,0.0328,-0.0209,0.0297,71.6791,9.1817)">
   <stop offset="0" stop-color="#010000"/>
   <stop offset="1" stop-color="#ffaa00"/>
  </radialGradient>
  <path style="fill:url(#gradient9)"
        d="M66.81 4.77C66.81 4.77 70.36 3.08 74.09 6.82C77.83 10.55 76.14 14.1 76.14 14.1C76.14 14.1 72.6 15.78 68.87 12.04C65.13 8.31 66.81 4.77 66.81 4.77z"
        transform="matrix(0.7742,0,0,0.8035,1.8203,-0.5268)"
  />
  <path style="fill:#010101"
        d="M50 19L51 24V26L53 28L54 29L55 30H58H59L60.91 29.83L61 31L58.14 31.99L55.37 31.84L53.68 30.92L52.14 30.3L50.6 28.76L49.38 27.22L49 25V22L50 19z"
        transform="matrix(0.7742,0,0,0.8035,1.8203,-0.5268)"
  />
  <path style="fill:#010101"
        d="M50 19L51 24V26L53 28L54 29L55 30H58H59L60.91 29.83L61 31L58.14 31.99L55.37 31.84L53.68 30.92L52.14 30.3L50.6 28.76L49.38 27.22L49 25V22L50 19z"
        transform="matrix(0.7742,0,0,0.8035,14.8203,-13.5267)"
  />
  <path style="fill:none; stroke:#000000; stroke-width:1"
        d="M13.12 51.07L41.33 23.48"
        transform="matrix(0.7742,0,0,0.8035,1.8203,-0.5268)"
  />
  <path style="fill:none; stroke:#000000; stroke-width:1"
        d="M18.46 54.87L34.76 38.36"
        transform="matrix(0.7742,0,0,0.8035,1.8203,-0.5268)"
  />
  <path style="fill:none; stroke:#010101; stroke-width:1"
        d="M24.71 58.87C29.84 53.81 33.19 50.63 34.76 49.33"
        transform="matrix(0.7742,0,0,0.8035,1.8203,-0.5268)"
  />
  <path style="fill:none; stroke:#010101; stroke-width:1"
        d="M30.15 63.49L50.97 41.33"
        transform="matrix(0.7742,0,0,0.8035,1.8203,-0.5268)"
  />
  <path style="fill:none; stroke:#010101; stroke-width:1"
        d="M37.12 67.18C55.72 45.84 65.02 35.1 65.02 34.97C65.02 34.76 64.92 34.76 65.02 34.76C65.09 34.76 65.05 34.9 64.92 35.17"
        transform="matrix(0.7742,0,0,0.8035,1.8203,-0.5268)"
  />
  <linearGradient id="gradient10" gradientUnits="userSpaceOnUse" x1="8.67" y1="-24.37" x2="50.89" y2="-15.21">
   <stop offset="0" stop-color="#00ff00"/>
   <stop offset="0.4784" stop-color="#00c119"/>
   <stop offset="1" stop-color="#007f33"/>
  </linearGradient>
  <path style="fill:url(#gradient10)"
        d="M0.71 44.14L31.55 15.37L37.12 19.52L6.97 48.3C6.97 48.3 4.88 46.92 0.71 44.14z"
        transform="matrix(0.7467,0,0,0.7731,2.8402,0.9401)"
  />
  <path style="fill:none; stroke:#010101; stroke-width:1"
        d="M10.87 36.2L54.04 60.41"
        transform="matrix(0.7742,0,0,0.8035,1.8203,-0.5268)"
  />
  <path style="fill:none; stroke:#010101; stroke-width:1"
        d="M21.63 25.33L36.61 33.84"
        transform="matrix(0.7742,0,0,0.8035,1.8203,-0.5268)"
  />
  <path style="fill:none; stroke:#010101; stroke-width:1"
        d="M51.28 41.43L63.28 48.61"
        transform="matrix(0.7742,0,0,0.8035,1.8203,-0.5268)"
  />
  <path style="fill:none; stroke:#000000; stroke-width:0; stroke-linejoin:bevel"
        d="M1.73 43.37L31.33 16.09L36.82 19.38C36.75 19.86 26.97 29.19 7.48 47.38"
        transform="matrix(0.7742,0,0,0.8035,1.8203,-0.5268)"
  />
  <path style="fill:none; stroke:#000000; stroke-width:0; stroke-linejoin:bevel"
        d="M1.73 43.37L31.33 16.09L36.82 19.38C36.75 19.86 26.97 29.19 7.48 47.38"
        transform="matrix(0.7742,0,0,0.8035,1.8203,-0.5268)"
  />
  <path style="fill:none; stroke:#000000; stroke-width:0; stroke-linejoin:bevel"
        d="M0.71 44.14L31.55 15.37L37.12 19.52L6.97 48.3C6.97 48.3 4.88 46.92 0.71 44.14z"
        transform="matrix(0.7742,0,0,0.8035,1.8203,-0.5268)"
  />
  <path style="fill:none; stroke:#000000; stroke-width:2; stroke-linejoin:bevel"
        d="M0.71 44.14L31.55 15.37L37.12 19.52L6.97 48.3C6.97 48.3 4.88 46.92 0.71 44.14z"
        transform="matrix(0.7742,0,0,0.8035,1.8203,-0.5268)"
  />
  <path style="fill:#010101; fill-opacity:0.4196"
        d="M42 52L61 53C61 53 64 49 63 51C62.33 52.32 63.62 46.62 63 46C62 45 54 45 54 45L50 47L46 46L42 52z"
        transform="matrix(0.9984,0.055,-0.055,0.9984,1.8046,-0.7391)"
  />
 </g>
</svg>
