<?xml version="1.0" encoding="UTF-8" standalone="yes"?>
<svg version="1.1" width="64" height="64" color-interpolation="linearRGB"
     xmlns:svg="http://www.w3.org/2000/svg" xmlns="http://www.w3.org/2000/svg">
 <g>
  <path style="fill:#010101; fill-opacity:0.4901"
        d="M40 64C44 64 48 64 52 64C56 59.33 60 54.66 64 50C61.99 48.99 59.99 47.99 57.99 46.99C58.65 46.32 59.33 45.66 60 45C56.66 43.33 53.33 41.66 50 40C46.66 48 43.33 56 40 64V64V64z"
  />
  <path style="fill:none; stroke:#010000; stroke-width:4"
        d="M24 6C25.66 5 27.33 4 29 3C34.66 4.66 40.33 6.33 46 8C46 10 46 12 46 14"
  />
  <linearGradient id="gradient0" gradientUnits="userSpaceOnUse" x1="122.91" y1="-32.33" x2="131.67" y2="-5.43">
   <stop offset="0.0074" stop-color="#ececec"/>
   <stop offset="1" stop-color="#c3c3c3"/>
  </linearGradient>
  <path style="fill:url(#gradient0)"
        d="M24 6C25.66 5 27.33 4 29 3C34.66 4.66 40.33 6.33 46 8C44.33 9.33 42.66 10.66 41 12C35.33 10 29.66 8 24 6V6V6z"
  />
  <path style="fill:#4b4b4b"
        d="M41 12C42.66 10.66 44.33 9.33 46 8C46 10 46 12 46 14C44.33 13.33 42.66 12.66 41 12V12V12z"
  />
  <path style="fill:none; stroke:#010000; stroke-width:4"
        d="M2 8C2 19.33 2 30.66 2 42C14.66 48.66 27.33 55.33 40 62C43.33 58 46.66 54 50 50C50 38.66 50 27.33 50 16C37.33 11.33 24.66 6.66 12 2C8.66 4 5.33 6 2 8V8V8z"
  />
  <linearGradient id="gradient1" gradientUnits="userSpaceOnUse" x1="13.84" y1="-38.13" x2="58.34" y2="-27.7">
   <stop offset="0" stop-color="#ffffff"/>
   <stop offset="1" stop-color="#d3d3d3"/>
  </linearGradient>
  <path style="fill:url(#gradient1)"
        d="M2 8C14.66 13.33 27.33 18.66 40 24C43.33 21.33 46.66 18.66 50 16C37.33 11.33 24.66 6.66 12 2C8.66 4 5.33 6 2 8V8V8z"
  />
  <linearGradient id="gradient2" gradientUnits="userSpaceOnUse" x1="40.6" y1="-4.88" x2="77.76" y2="1.74">
   <stop offset="0" stop-color="#474747"/>
   <stop offset="1" stop-color="#a5a0a0"/>
  </linearGradient>
  <path style="fill:url(#gradient2)"
        d="M40 24C40 36.66 40 49.33 40 62C43.33 58 46.66 54 50 50C50 38.66 50 27.33 50 16C46.66 18.66 43.33 21.33 40 24V24V24z"
  />
  <linearGradient id="gradient3" gradientUnits="userSpaceOnUse" x1="11.3" y1="82.69" x2="-25.58" y2="46.62">
   <stop offset="0" stop-color="#909090"/>
   <stop offset="1" stop-color="#d4d4d4"/>
  </linearGradient>
  <path style="fill:url(#gradient3)"
        d="M37 26C37 35.66 37 45.33 37 55C26 49.33 15 43.66 4 38C4 29.33 4 20.66 4 12C15 16.66 26 21.33 37 26V26V26z
           M2 8C2 19.33 2 30.66 2 42C14.66 48.66 27.33 55.33 40 62C40 49.33 40 36.66 40 24C27.33 18.66 14.66 13.33 2 8V8V8z"
  />
  <linearGradient id="gradient4" gradientUnits="userSpaceOnUse" x1="6.95" y1="-50.95" x2="76.9" y2="-40.97">
   <stop offset="0" stop-color="#1d1e2c"/>
   <stop offset="0.2424" stop-color="#454658"/>
   <stop offset="1" stop-color="#010101"/>
  </linearGradient>
  <path style="fill:url(#gradient4)"
        d="M37 26C37 34.66 37 43.33 37 52C26.66 46.66 16.33 41.33 6 36C6.01 28.28 6.03 20.57 6.05 12.86C16.36 17.24 26.68 21.62 37 26V26V26z"
  />
  <linearGradient id="gradient5" gradientUnits="userSpaceOnUse" x1="63.81" y1="3.46" x2="73.69" y2="31.53">
   <stop offset="0" stop-color="#242222"/>
   <stop offset="1" stop-color="#9a9a9a"/>
  </linearGradient>
  <path style="fill:url(#gradient5)"
        d="M5.96 36C5.31 36.67 4.65 37.33 4 38C4 29.33 4 20.66 4 12C4.68 12.28 5.36 12.57 6.05 12.86C6.02 20.58 5.99 28.29 5.96 36V36V36z"
  />
  <linearGradient id="gradient6" gradientUnits="userSpaceOnUse" x1="0.68" y1="-5.51" x2="39.3" y2="-5.51">
   <stop offset="0" stop-color="#d4cece"/>
   <stop offset="0.3483" stop-color="#f3f3f3"/>
   <stop offset="1" stop-color="#d9d9d9"/>
  </linearGradient>
  <path style="fill:url(#gradient6)"
        d="M37 52C37 53 37 54 37 55C26 49.33 15 43.66 4 38C4.66 37.33 5.33 36.67 6 36C16.33 41.34 26.66 46.66 37 52V52V52z"
  />
  <path style="fill:none; stroke:#8dff06; stroke-width:2; stroke-linecap:round"
        d="M34 56C34.33 56.16 34.66 56.33 35 56.5"
  />
  <linearGradient id="gradient7" gradientUnits="userSpaceOnUse" x1="41.18" y1="-8.65" x2="41.18" y2="51.87">
   <stop offset="0" stop-color="#b8b8b8"/>
   <stop offset="0.2527" stop-color="#e9e9e9"/>
   <stop offset="0.2978" stop-color="#909090"/>
   <stop offset="0.2991" stop-color="#919191"/>
   <stop offset="0.3458" stop-color="#aaaaaa"/>
   <stop offset="0.3973" stop-color="#bebebe"/>
   <stop offset="0.4564" stop-color="#cccccc"/>
   <stop offset="0.5295" stop-color="#d4d4d4"/>
   <stop offset="0.6572" stop-color="#d6d6d6"/>
   <stop offset="1" stop-color="#a2a2a2"/>
  </linearGradient>
  <path style="fill:url(#gradient7)"
        d="M61.28 45.37C54.22 38.07 47.17 30.77 40.12 23.48C41.35 20.52 42.58 16.59 41.84 14.87C40.12 12.16 33.73 9.7 33.73 9.7C32.91 10.52 32.09 11.34 31.27 12.16C32.74 13.64 34.22 15.11 35.69 16.59C35.12 18.64 34.55 20.69 33.97 22.74C32 23.23 30.04 23.72 28.07 24.21C26.59 22.74 25.12 21.26 23.64 19.79C22.82 20.61 22 21.43 21.18 22.25C21.18 22.25 22.66 29.13 26.35 30.36C28.56 31.1 32 29.87 34.71 28.89C41.68 36.19 48.65 43.48 55.62 50.78C57.09 52.26 59.31 52.26 60.78 50.78C62.26 49.31 62.26 47.09 60.78 45.62C60.95 45.53 61.11 45.45 61.28 45.37V45.37z"
  />
  <path style="fill:none; stroke:#000000; stroke-width:6.2762; stroke-linecap:round; stroke-linejoin:round"
        d="M61.28 45.37C54.22 38.07 47.17 30.77 40.12 23.48C41.35 20.52 42.58 16.59 41.84 14.87C40.12 12.16 33.73 9.7 33.73 9.7C32.91 10.52 32.09 11.34 31.27 12.16C32.74 13.64 34.22 15.11 35.69 16.59C35.12 18.64 34.55 20.69 33.97 22.74C32 23.23 30.04 23.72 28.07 24.21C26.59 22.74 25.12 21.26 23.64 19.79C22.82 20.61 22 21.43 21.18 22.25C21.18 22.25 22.66 29.13 26.35 30.36C28.56 31.1 32 29.87 34.71 28.89C41.68 36.19 48.65 43.48 55.62 50.78C57.09 52.26 59.31 52.26 60.78 50.78C62.26 49.31 62.26 47.09 60.78 45.62C60.95 45.53 61.11 45.45 61.28 45.37V45.37z"
  />
  <linearGradient id="gradient8" gradientUnits="userSpaceOnUse" x1="31.43" y1="8.05" x2="31.43" y2="52.21">
   <stop offset="0" stop-color="#b8b8b8"/>
   <stop offset="0.2527" stop-color="#f8f8f8"/>
   <stop offset="0.2978" stop-color="#c2c2c2"/>
   <stop offset="0.3066" stop-color="#c6c6c6"/>
   <stop offset="0.3646" stop-color="#d9d9d9"/>
   <stop offset="0.4313" stop-color="#e7e7e7"/>
   <stop offset="0.5134" stop-color="#f0f0f0"/>
   <stop offset="0.6572" stop-color="#f2f2f2"/>
   <stop offset="1" stop-color="#a2a2a2"/>
  </linearGradient>
  <path style="fill:url(#gradient8)"
        d="M41.6 14.87C40.12 12.16 33.73 9.7 33.73 9.7C32.91 10.52 32.09 11.34 31.27 12.16C32.74 13.64 34.22 15.11 35.69 16.59C35.12 18.64 34.55 20.69 33.97 22.74C32 23.23 30.04 23.72 28.07 24.21C26.59 22.74 25.12 21.26 23.64 19.79C22.82 20.61 22 21.43 21.18 22.25C21.18 22.25 22.66 29.13 26.35 30.36C30.04 31.59 38.4 27.17 38.4 27.17C38.4 27.17 43.07 18.06 41.6 15.11C41.6 15.03 41.6 14.95 41.6 14.87V14.87z"
  />
  <path style="fill:#787878"
        d="M36.19 24.71C44.3 33.23 52.42 41.76 60.54 50.29"
  />
  <linearGradient id="gradient9" gradientUnits="userSpaceOnUse" x1="47.62" y1="10.01" x2="47.62" y2="51.51">
   <stop offset="0" stop-color="#b8b8b8"/>
   <stop offset="0.2527" stop-color="#f8f8f8"/>
   <stop offset="0.2978" stop-color="#c2c2c2"/>
   <stop offset="0.3066" stop-color="#c6c6c6"/>
   <stop offset="0.3646" stop-color="#d9d9d9"/>
   <stop offset="0.4313" stop-color="#e7e7e7"/>
   <stop offset="0.5134" stop-color="#f0f0f0"/>
   <stop offset="0.6572" stop-color="#f2f2f2"/>
   <stop offset="1" stop-color="#a2a2a2"/>
  </linearGradient>
  <path style="fill:url(#gradient9)"
        d="M34.22 22.74C32.74 24.21 32.74 26.43 34.22 27.9C41.52 35.45 48.81 42.99 56.11 50.54C57.59 52.01 59.8 52.01 61.28 50.54C62.75 49.06 62.75 46.85 61.28 45.37C53.98 37.83 46.68 30.28 39.38 22.74C37.91 21.26 35.69 21.26 34.22 22.74V22.74V22.74z"
  />
  <path style="fill:#ffffff"
        d="M32 12.9C31.76 12.65 31.51 12.41 31.27 12.16C32.09 11.34 32.91 10.52 33.73 9.7C33.73 9.7 39.14 11.67 41.11 13.88C38.4 12.16 33.97 10.93 33.97 10.93C33.32 11.59 32.66 12.24 32 12.9V12.9V12.9z"
  />
  <path style="fill:#ffffff"
        d="M21.18 22.25C22 21.43 22.82 20.61 23.64 19.79C25.12 21.26 26.59 22.74 28.07 24.21C30.12 23.64 32.17 23.07 34.22 22.49C34.71 20.44 35.2 18.39 35.69 16.34C35.45 18.64 35.2 20.93 34.96 23.23C32.5 24.05 30.04 24.87 27.58 25.69C26.26 24.21 24.95 22.74 23.64 21.26C22.9 22 22.16 22.74 21.43 23.48C21.34 23.07 21.26 22.66 21.18 22.25V22.25V22.25z"
  />
  <path style="fill:#ffffff"
        d="M39.88 23.23C46.93 30.61 53.98 37.99 61.03 45.37C54.22 38.81 47.42 32.25 40.61 25.69C40.37 24.79 40.12 23.89 39.88 22.98C39.88 23.07 39.88 23.15 39.88 23.23V23.23z"
  />
  <radialGradient id="gradient10" gradientUnits="userSpaceOnUse" cx="0" cy="0" r="64" gradientTransform="matrix(0,0.0351,-0.0351,0,58.1069,47.3584)">
   <stop offset="0" stop-color="#4d4d4d"/>
   <stop offset="1" stop-color="#b8b8b8"/>
  </radialGradient>
  <path style="fill:url(#gradient10)"
        d="M60.05 48.32C60.05 49.06 59.31 49.8 58.57 49.8C57.83 49.8 57.09 49.06 57.09 48.32C57.09 47.58 57.83 46.85 58.57 46.85C59.31 46.85 60.05 47.58 60.05 48.32V48.32V48.32z"
  />
  <path style="fill:none; stroke:#000000; stroke-width:4.2355"
        d="M22.42 47.62C22.42 49.95 20.53 51.86 18.19 51.86C15.86 51.86 13.95 49.97 13.95 47.62C13.95 45.28 15.84 43.39 18.19 43.39C20.52 43.39 22.42 45.27 22.42 47.62V47.62V47.62z
           M17.44 33.87C14.98 33.99 12.68 34.78 10.72 36.03C10.72 36.03 10.67 37.34 11.24 38.23C11.62 38.84 12.01 39.44 12.39 40.04C10.91 41.17 9.78 42.69 9.16 44.49C8.49 44.31 7.81 44.14 7.13 43.96C6.11 43.7 4.88 44.12 4.88 44.12C4.58 45.21 4.44 46.39 4.44 47.57C4.44 48.84 4.6 50.05 4.91 51.2C4.91 51.2 6.14 51.64 7.17 51.35C7.85 51.17 8.53 50.98 9.21 50.79C9.83 52.53 10.96 54.06 12.42 55.15C12.03 55.75 11.65 56.34 11.27 56.93C10.71 57.82 10.75 59.15 10.75 59.15C12.7 60.4 14.99 61.17 17.46 61.28C17.46 61.28 18.23 60.28 18.28 59.22C18.31 58.51 18.34 57.79 18.38 57.08C20.3 57.05 22.08 56.42 23.58 55.42C24.02 55.97 24.46 56.51 24.9 57.06C25.57 57.88 26.82 58.26 26.82 58.26C28.65 56.76 30.1 54.81 30.99 52.55C30.99 52.55 30.26 51.52 29.27 51.13C28.61 50.87 27.95 50.6 27.28 50.34C27.55 49.48 27.68 48.54 27.68 47.59C27.68 46.66 27.57 45.78 27.32 44.92C27.98 44.68 28.64 44.44 29.29 44.19C30.29 43.81 31.03 42.72 31.03 42.72C30.18 40.45 28.72 38.45 26.87 36.94C26.87 36.94 25.64 37.32 24.96 38.15C24.52 38.7 24.08 39.26 23.64 39.81C22.16 38.76 20.35 38.14 18.38 38.09C18.34 37.38 18.31 36.66 18.28 35.95C18.25 34.89 17.46 33.87 17.46 33.87C17.45 33.87 17.45 33.87 17.44 33.87C17.44 33.87 17.44 33.87 17.44 33.87V33.87z"
  />
  <linearGradient id="gradient11" gradientUnits="userSpaceOnUse" x1="25.56" y1="-3.2" x2="62.84" y2="20.71">
   <stop offset="0" stop-color="#f7f9ff"/>
   <stop offset="1" stop-color="#989db0"/>
  </linearGradient>
  <path style="fill:url(#gradient11)"
        d="M22.42 47.62C22.42 49.95 20.53 51.86 18.19 51.86C15.86 51.86 13.95 49.97 13.95 47.62C13.95 45.28 15.84 43.39 18.19 43.39C20.52 43.39 22.42 45.27 22.42 47.62V47.62V47.62z
           M17.44 33.87C14.98 33.99 12.68 34.78 10.72 36.03C10.72 36.03 10.67 37.34 11.24 38.23C11.62 38.84 12.01 39.44 12.39 40.04C10.91 41.17 9.78 42.69 9.16 44.49C8.49 44.31 7.81 44.14 7.13 43.96C6.11 43.7 4.88 44.12 4.88 44.12C4.58 45.21 4.44 46.39 4.44 47.57C4.44 48.84 4.6 50.05 4.91 51.2C4.91 51.2 6.14 51.64 7.17 51.35C7.85 51.17 8.53 50.98 9.21 50.79C9.83 52.53 10.96 54.06 12.42 55.15C12.03 55.75 11.65 56.34 11.27 56.93C10.71 57.82 10.75 59.15 10.75 59.15C12.7 60.4 14.99 61.17 17.46 61.28C17.46 61.28 18.23 60.28 18.28 59.22C18.31 58.51 18.34 57.79 18.38 57.08C20.3 57.05 22.08 56.42 23.58 55.42C24.02 55.97 24.46 56.51 24.9 57.06C25.57 57.88 26.82 58.26 26.82 58.26C28.65 56.76 30.1 54.81 30.99 52.55C30.99 52.55 30.26 51.52 29.27 51.13C28.61 50.87 27.95 50.6 27.28 50.34C27.55 49.48 27.68 48.54 27.68 47.59C27.68 46.66 27.57 45.78 27.32 44.92C27.98 44.68 28.64 44.44 29.29 44.19C30.29 43.81 31.03 42.72 31.03 42.72C30.18 40.45 28.72 38.45 26.87 36.94C26.87 36.94 25.64 37.32 24.96 38.15C24.52 38.7 24.08 39.26 23.64 39.81C22.16 38.76 20.35 38.14 18.38 38.09C18.34 37.38 18.31 36.66 18.28 35.95C18.25 34.89 17.46 33.87 17.46 33.87C17.45 33.87 17.45 33.87 17.44 33.87C17.44 33.87 17.44 33.87 17.44 33.87V33.87z"
  />
 </g>
</svg>
