<?xml version="1.0" encoding="UTF-8" standalone="yes"?>
<svg version="1.1" width="64" height="64" color-interpolation="linearRGB"
     xmlns:svg="http://www.w3.org/2000/svg" xmlns="http://www.w3.org/2000/svg">
 <g>
  <path style="fill:#000000; fill-opacity:0.4"
        d="M33 55L51 61C52 59 58 56 59 57C61 55 62 54 62 51C62 48 55 37 55 37L29 28L17 34C19 36 20 44 20 44C20 44 26 48 28 50C30 52 33 55 33 55z"
  />
  <path style="fill:none; stroke:#000000; stroke-opacity:0.4; stroke-width:2"
        d="M27 51C27 51 22 55 18 57C14 59 11 55 13 53"
  />
  <path style="fill:none; stroke:#000000; stroke-width:1; stroke-linecap:round; stroke-linejoin:round"
        d="M13.05 52.57C12.23 56.61 17.21 60.1 19.8 54.69C22.82 48.38 43.53 5.08 43.53 5.08"
  />
  <path style="fill:none; stroke:#000000; stroke-width:3"
        d="M57.17 43.75C62.42 32.79 54.75 18.21 40.05 11.18C25.36 4.15 9.2 7.33 3.96 18.3C3.96 18.3 13.41 21.71 15.25 24.81C21.09 26.5 37.33 34.26 41.41 37.32C47.68 38.1 57.17 43.75 57.17 43.75z"
  />
  <linearGradient id="gradient0" gradientUnits="userSpaceOnUse" x1="43.73" y1="134.73" x2="22.81" y2="130.85">
   <stop offset="0" stop-color="#ffffff"/>
   <stop offset="1" stop-color="#ffaa00"/>
  </linearGradient>
  <path style="fill:url(#gradient0)"
        d="M44.35 13.56C49.7 21.67 41.41 37.32 41.41 37.32C47.68 38.1 57.17 43.75 57.17 43.75C61.88 33.92 56.19 21.16 44.35 13.56z"
  />
  <linearGradient id="gradient1" gradientUnits="userSpaceOnUse" x1="87.35" y1="-47.1" x2="56.68" y2="-61.77">
   <stop offset="0" stop-color="#fdfdfd"/>
   <stop offset="1" stop-color="#ffaa00"/>
  </linearGradient>
  <path style="fill:url(#gradient1)"
        d="M44.35 13.56C43 12.69 41.55 11.9 40.05 11.18C38.18 10.28 36.29 9.55 34.4 8.99C23.38 9.49 15.25 24.81 15.25 24.81C21.09 26.5 37.33 34.26 41.41 37.32C41.41 37.32 49.7 21.67 44.35 13.56z"
  />
  <linearGradient id="gradient2" gradientUnits="userSpaceOnUse" x1="-63.33" y1="65.56" x2="-55.29" y2="76.22">
   <stop offset="0" stop-color="#ffffff"/>
   <stop offset="1" stop-color="#fddd9d"/>
  </linearGradient>
  <path style="fill:url(#gradient2)"
        d="M34.4 8.99C21.42 5.08 8.53 8.73 3.96 18.3C3.96 18.3 13.41 21.71 15.25 24.81C15.25 24.81 23.38 9.49 34.4 8.99z"
  />
 </g>
</svg>
