<?xml version="1.0" encoding="UTF-8" standalone="yes"?>
<svg version="1.1" width="64" height="64" color-interpolation="linearRGB"
     xmlns:svg="http://www.w3.org/2000/svg" xmlns="http://www.w3.org/2000/svg">
 <g>
  <path style="fill:#999999"
        d="M44.4 10.18C41.38 10.2 38.56 10.81 36.45 12.02C36.45 12.02 16.07 23.79 16.07 23.79C15.6 24.07 15.37 24.39 15.36 24.74C15.36 28.18 15.36 31.61 15.36 35.05C15.35 35.5 15.74 35.99 16.5 36.43C16.5 36.43 34.3 46.71 34.3 46.71C35.65 47.49 37.27 47.59 38.36 46.96L58.75 35.19C60.9 33.95 61.95 32.27 61.95 30.49C61.95 27.03 61.95 23.58 61.95 20.12C61.91 17.79 60.09 15.26 56.61 13.26C53.04 11.2 48.53 10.14 44.4 10.18V10.18V10.18z"
  />
  <linearGradient id="gradient0" gradientUnits="userSpaceOnUse" x1="32" y1="41.23" x2="40.91" y2="41.23">
   <stop offset="0" stop-color="#ffffff" stop-opacity="0"/>
   <stop offset="0.5" stop-color="#ffffff"/>
   <stop offset="1" stop-color="#999999"/>
  </linearGradient>
  <path style="fill:url(#gradient0)"
        d="M32 35.08C32 38.52 32 41.95 32 45.38C32.51 45.68 34.3 46.71 34.3 46.71C35.65 47.49 37.27 47.59 38.36 46.96C38.36 46.96 40.35 45.81 40.91 45.49C40.91 42.06 40.91 38.62 40.91 35.19C40.35 35.52 38.36 36.67 38.36 36.67C37.27 37.29 35.65 37.19 34.3 36.41C34.3 36.41 32.51 35.38 32 35.08H32V35.08z"
  />
  <path style="fill:#cccccc"
        d="M16.5 26.14L34.3 36.41C35.65 37.19 37.27 37.29 38.36 36.67L58.75 24.89C63.74 22.01 62.79 16.82 56.61 13.26C50.44 9.69 41.44 9.14 36.45 12.02L16.07 23.79C14.98 24.42 15.16 25.36 16.5 26.14V26.14"
  />
  <path style="fill:none; stroke:#ffffff; stroke-width:0.2905"
        d="M61.94 20.34C61.84 22.13 60.89 23.31 59.66 24.29C52.69 28.34 45.72 32.39 38.74 36.44C36.66 37.64 35.51 36.95 34.1 36.3C28.45 33.02 22.81 29.74 17.16 26.46C14.83 25.32 15.14 24.51 16.08 23.79"
  />
  <path style="fill:#000080; fill-opacity:0.8"
        d="M44.4 10.18C44.23 10.18 44.06 10.18 43.9 10.19C43.84 10.19 43.79 10.19 43.73 10.19C43.59 10.2 43.46 10.2 43.32 10.21C43.3 10.21 43.29 10.21 43.27 10.21C43.24 10.21 43.21 10.22 43.17 10.22C43.1 10.22 43.02 10.23 42.95 10.24C42.77 10.25 42.59 10.26 42.42 10.28C42.2 10.3 41.99 10.33 41.78 10.35C41.71 10.36 41.63 10.37 41.56 10.38C41.53 10.39 41.5 10.39 41.46 10.4C41.43 10.4 41.41 10.41 41.38 10.41C41.3 10.42 41.22 10.43 41.15 10.44C41.14 10.45 41.13 10.45 41.11 10.45C41.06 10.46 41.01 10.47 40.96 10.48C40.92 10.48 40.89 10.49 40.85 10.5C40.85 10.5 40.84 10.5 40.84 10.5C40.65 10.53 40.45 10.57 40.26 10.61C40.25 10.61 40.24 10.62 40.23 10.62C40.18 10.63 40.13 10.64 40.08 10.65C40.01 10.67 39.93 10.69 39.86 10.71C39.81 10.72 39.76 10.73 39.71 10.74C39.68 10.75 39.66 10.76 39.64 10.76C39.59 10.77 39.54 10.79 39.5 10.8C39.45 10.81 39.4 10.82 39.35 10.84C39.34 10.84 39.34 10.84 39.34 10.84C39.32 10.85 39.3 10.85 39.28 10.86C39.14 10.9 39 10.94 38.86 10.98C38.81 11 38.77 11.01 38.72 11.03C38.65 11.05 38.57 11.08 38.5 11.1C38.43 11.13 38.37 11.15 38.3 11.17C38.26 11.19 38.21 11.21 38.17 11.22C38.17 11.22 38.16 11.22 38.16 11.22C38.09 11.25 38.02 11.28 37.96 11.3C37.87 11.34 37.78 11.37 37.7 11.41C37.65 11.43 37.61 11.45 37.56 11.47C37.54 11.48 37.51 11.49 37.49 11.5C37.45 11.52 37.41 11.53 37.37 11.55C37.34 11.57 37.31 11.58 37.28 11.59C37.24 11.61 37.21 11.63 37.18 11.64C37.1 11.68 37.02 11.72 36.93 11.76C36.89 11.79 36.84 11.81 36.8 11.84C36.76 11.85 36.73 11.87 36.69 11.89C36.61 11.93 36.53 11.98 36.45 12.02C36.45 12.02 16.07 23.79 16.07 23.79C16.04 23.81 16.02 23.83 15.99 23.85C15.96 23.86 15.93 23.88 15.91 23.9C15.88 23.92 15.86 23.93 15.83 23.95C15.81 23.97 15.79 23.99 15.77 24.01C15.74 24.03 15.72 24.04 15.7 24.06C15.69 24.08 15.67 24.09 15.65 24.11C15.65 24.11 15.65 24.12 15.64 24.12C15.63 24.14 15.61 24.16 15.59 24.17C15.57 24.2 15.56 24.22 15.54 24.24C15.54 24.24 15.54 24.24 15.54 24.25C15.52 24.26 15.51 24.28 15.5 24.3C15.49 24.32 15.48 24.34 15.47 24.36C15.47 24.36 15.47 24.36 15.47 24.36C15.46 24.38 15.45 24.4 15.44 24.42C15.44 24.42 15.43 24.43 15.43 24.43C15.43 24.45 15.42 24.47 15.41 24.49C15.4 24.51 15.39 24.53 15.39 24.55C15.39 24.55 15.39 24.55 15.39 24.55C15.37 24.61 15.36 24.67 15.36 24.74C15.36 24.74 15.36 24.74 15.36 24.74C15.36 24.75 15.36 24.75 15.36 24.76C15.36 28.19 15.36 31.62 15.36 35.04C15.36 35.5 15.74 35.99 16.5 36.43C16.5 36.43 34.3 46.71 34.3 46.71C35.65 47.49 37.27 47.59 38.36 46.96L58.75 35.19C60.9 33.95 61.95 32.27 61.95 30.49C61.95 27.09 61.95 23.7 61.95 20.31C61.95 20.25 61.95 20.18 61.95 20.12C61.95 20.12 61.95 20.12 61.95 20.12C61.94 20.05 61.94 19.99 61.94 19.92C61.94 19.87 61.93 19.82 61.93 19.77C61.93 19.76 61.92 19.74 61.92 19.72C61.92 19.71 61.92 19.7 61.92 19.68C61.92 19.67 61.92 19.67 61.92 19.66C61.91 19.59 61.9 19.53 61.89 19.46C61.89 19.46 61.89 19.46 61.89 19.46C61.88 19.42 61.87 19.38 61.87 19.33C61.86 19.28 61.85 19.23 61.84 19.18C61.82 19.13 61.81 19.07 61.8 19.02C61.79 18.99 61.78 18.96 61.78 18.93C61.76 18.89 61.75 18.84 61.74 18.79C61.74 18.79 61.74 18.79 61.74 18.79C61.72 18.74 61.71 18.69 61.69 18.64C61.68 18.62 61.68 18.59 61.67 18.57C61.67 18.56 61.66 18.55 61.66 18.54C61.64 18.49 61.62 18.45 61.61 18.4C61.6 18.38 61.59 18.36 61.58 18.34C61.56 18.27 61.53 18.21 61.5 18.14C61.48 18.09 61.46 18.03 61.43 17.98C61.43 17.97 61.42 17.96 61.41 17.94C61.41 17.93 61.4 17.91 61.39 17.9C61.37 17.85 61.34 17.8 61.32 17.75C61.28 17.68 61.25 17.61 61.21 17.55C61.18 17.48 61.14 17.42 61.1 17.36C61.1 17.35 61.1 17.35 61.1 17.35C61.07 17.31 61.05 17.27 61.03 17.23C61.01 17.2 60.99 17.18 60.98 17.15C60.97 17.14 60.96 17.12 60.94 17.1C60.91 17.05 60.88 17 60.85 16.96C60.81 16.9 60.77 16.84 60.73 16.79C60.73 16.78 60.72 16.77 60.71 16.76C60.67 16.69 60.62 16.63 60.57 16.57C60.57 16.57 60.57 16.56 60.57 16.56C60.51 16.49 60.46 16.42 60.4 16.35C60.38 16.33 60.37 16.32 60.36 16.3C60.31 16.24 60.26 16.19 60.21 16.13C60.17 16.08 60.13 16.03 60.08 15.98C60.06 15.96 60.04 15.93 60.02 15.91C59.98 15.87 59.94 15.83 59.91 15.79C59.88 15.76 59.85 15.73 59.82 15.7C59.79 15.66 59.75 15.63 59.72 15.6C59.68 15.56 59.64 15.52 59.6 15.48C59.53 15.41 59.46 15.34 59.38 15.27C59.33 15.22 59.27 15.17 59.22 15.12C59.19 15.1 59.17 15.08 59.15 15.06C59.14 15.05 59.13 15.04 59.12 15.03C59.08 15 59.04 14.96 59 14.93C58.97 14.9 58.94 14.87 58.91 14.85C58.82 14.78 58.74 14.71 58.66 14.64C58.59 14.59 58.52 14.53 58.45 14.48C58.43 14.46 58.41 14.45 58.39 14.44C58.33 14.39 58.27 14.34 58.21 14.3C58.18 14.28 58.15 14.25 58.12 14.23C58.12 14.23 58.12 14.23 58.12 14.23C58.03 14.17 57.93 14.1 57.84 14.03C57.75 13.97 57.66 13.91 57.57 13.85C57.56 13.85 57.55 13.84 57.55 13.83C57.51 13.81 57.48 13.79 57.45 13.77C57.38 13.72 57.31 13.68 57.25 13.64C57.22 13.62 57.2 13.61 57.18 13.6C57.1 13.55 57.01 13.5 56.93 13.45C56.83 13.38 56.72 13.32 56.61 13.26C56.5 13.19 56.39 13.13 56.27 13.07C56.16 13 56.05 12.94 55.93 12.88C55.86 12.85 55.8 12.81 55.73 12.78C55.68 12.75 55.63 12.73 55.58 12.7C55.53 12.68 55.48 12.65 55.42 12.62C55.36 12.59 55.3 12.56 55.23 12.53C55.19 12.51 55.16 12.49 55.12 12.48C55.04 12.44 54.96 12.4 54.88 12.36C54.85 12.35 54.83 12.34 54.81 12.33C54.71 12.29 54.61 12.25 54.51 12.2C54.51 12.2 54.5 12.2 54.49 12.19C54.38 12.14 54.26 12.1 54.15 12.05C54.07 12.02 54 11.99 53.92 11.96C53.87 11.94 53.83 11.92 53.78 11.9C53.7 11.87 53.62 11.84 53.54 11.81C53.49 11.79 53.45 11.77 53.41 11.76C53.34 11.73 53.28 11.71 53.21 11.69C53.15 11.67 53.09 11.64 53.03 11.62C52.98 11.61 52.93 11.59 52.89 11.57C52.88 11.57 52.87 11.57 52.86 11.56C52.76 11.53 52.66 11.49 52.56 11.46C52.46 11.43 52.37 11.4 52.27 11.37C52.26 11.36 52.24 11.36 52.23 11.35C52.11 11.32 52 11.28 51.88 11.25C51.79 11.22 51.69 11.19 51.6 11.17C51.56 11.16 51.53 11.15 51.5 11.14C51.41 11.11 51.31 11.09 51.22 11.06C51.11 11.03 51 11 50.88 10.97C50.83 10.96 50.77 10.94 50.72 10.93C50.66 10.92 50.6 10.9 50.55 10.89C50.47 10.87 50.4 10.85 50.32 10.84C50.28 10.83 50.25 10.82 50.21 10.81C50.11 10.79 50.02 10.77 49.93 10.75C49.91 10.74 49.89 10.74 49.87 10.73C49.76 10.71 49.64 10.69 49.53 10.67C49.53 10.67 49.53 10.66 49.52 10.66C49.41 10.64 49.29 10.62 49.18 10.6C49.09 10.58 49.01 10.57 48.92 10.56C48.89 10.55 48.87 10.54 48.84 10.54C48.81 10.53 48.77 10.53 48.74 10.52C48.66 10.51 48.58 10.5 48.49 10.48C48.44 10.47 48.39 10.47 48.34 10.46C48.28 10.45 48.21 10.44 48.15 10.43C48.08 10.42 48.01 10.41 47.94 10.4C47.9 10.4 47.85 10.39 47.8 10.38C47.69 10.37 47.58 10.36 47.46 10.34C47.35 10.33 47.23 10.32 47.12 10.31C47 10.29 46.87 10.28 46.75 10.27C46.72 10.27 46.69 10.27 46.66 10.26C46.56 10.26 46.46 10.25 46.36 10.24C46.23 10.23 46.1 10.22 45.97 10.21C45.97 10.21 45.96 10.21 45.96 10.21C45.89 10.21 45.82 10.21 45.75 10.2C45.74 10.2 45.73 10.2 45.73 10.2C45.62 10.2 45.52 10.19 45.41 10.19C45.33 10.19 45.25 10.18 45.17 10.18C45.14 10.18 45.1 10.18 45.07 10.18C44.97 10.18 44.88 10.18 44.78 10.18C44.65 10.18 44.53 10.17 44.4 10.18C44.4 10.18 44.4 10.18 44.4 10.18V10.18z"
  />
  <path style="fill:#999999"
        d="M37.67 18.17C37.03 18.54 37.01 19.16 37.55 19.7L34.5 21.46C34.42 21.51 34.37 21.57 34.35 21.63L33.13 26.43L32.15 26.99C31.2 26.65 30.08 26.65 29.42 27.03C28.61 27.49 28.8 28.35 29.84 28.95C30.87 29.55 32.37 29.66 33.17 29.19C33.81 28.83 33.82 28.21 33.28 27.67L34.52 26.96L34.53 26.96L34.53 26.95L37.27 25.37L37.27 25.37L44.68 24.74C44.8 24.74 44.9 24.71 44.98 24.66L47.77 23.05L48.54 23.49L48.92 23.71L49.22 23.54L51.57 22.19L51.87 22.02L51.48 21.79L48.65 20.16L48.27 19.94L47.97 20.11L45.63 21.47L45.33 21.64L45.71 21.86L46.62 22.38L43.95 23.93L39.05 24.34L49.57 18.27L51.04 19.12L51.58 19.43L51.67 19.07L52.37 16.32L52.46 15.96L51.84 16.02L47.07 16.42L46.45 16.47L46.98 16.78L48.41 17.6L34.92 25.39L35.77 22.06L38.69 20.37C39.64 20.71 40.76 20.72 41.42 20.34C42.22 19.87 42.04 19.01 41 18.42C39.96 17.82 38.47 17.71 37.67 18.17V18.17"
  />
  <path style="fill:none; stroke:#000000; stroke-width:1.8666; stroke-linecap:round; stroke-linejoin:round"
        d="M44.17 9.4C40.75 9.41 37.31 10.36 34.48 12.3C28.08 16.02 21.62 19.66 15.26 23.45C14.37 24.24 14.68 25.53 14.65 26.58C14.65 27.35 14.65 28.12 14.65 28.9C10.24 31.46 5.8 33.95 1.43 36.57C0.91 37.39 1.31 38.42 1.19 39.32C1.24 41.28 1.05 43.27 1.3 45.21C2.04 46.01 3.15 46.31 4.03 46.93C8.47 49.48 12.88 52.09 17.35 54.59C18.32 54.66 18.97 53.8 19.81 53.47C23.92 51.09 28.04 48.71 32.16 46.33C33.74 47.29 35.51 48.46 37.46 48.11C39.18 47.75 40.52 46.51 42.07 45.76C48.12 42.23 54.25 38.81 60.25 35.19C61.94 33.96 63.05 31.86 62.8 29.75C62.75 26.22 62.93 22.67 62.7 19.14C62.1 16.26 59.73 14.16 57.3 12.72C53.36 10.37 48.73 9.35 44.17 9.4V9.4V9.4z"
  />
  <path style="fill:#808080"
        d="M1.9 44.84C7.1 47.85 12.3 50.85 17.5 53.85C22.71 50.85 27.91 47.85 33.11 44.84C27.91 41.84 22.71 38.84 17.5 35.83C12.3 38.84 7.1 41.84 1.9 44.84V44.84V44.84z"
  />
  <path style="fill:#4d4d4d"
        d="M2.12 44.71C7.4 41.67 12.67 38.62 17.95 35.58C17.95 33.17 17.95 30.77 17.95 28.37C12.67 31.41 7.4 34.46 2.12 37.51C2.12 39.91 2.12 42.31 2.12 44.71V44.71V44.71z"
  />
  <path style="fill:#b3b3b3"
        d="M16.39 51.92C21.91 48.7 27.44 45.49 32.96 42.27C32.96 41.84 32.96 41.41 32.96 40.98C27.44 44.2 21.91 47.42 16.39 50.64C16.39 51.06 16.39 51.49 16.39 51.92H16.39V51.92z"
  />
  <path style="fill:#ececec"
        d="M3.01 44.2C3.01 43.77 3.01 43.34 3.01 42.91C7.47 45.49 11.93 48.06 16.39 50.64C16.39 51.06 16.39 51.49 16.39 51.92C11.93 49.35 7.47 46.77 3.01 44.2V44.2V44.2z"
  />
  <path style="fill:#cccccc"
        d="M16.39 50.64C11.93 48.06 7.47 45.49 3.01 42.91C8.59 39.69 14.16 36.48 19.73 33.26C24.19 35.83 28.65 38.41 33.11 40.98C27.54 44.2 21.96 47.42 16.39 50.64V50.64V50.64z"
  />
  <path style="fill:#808080"
        d="M14.97 47.59L16.65 48.56L31.44 40.02L29.77 39.05L14.97 47.59V47.59
           M12.19 45.98L13.86 46.95L28.65 38.41L26.98 37.44L12.19 45.98V45.98
           M9.4 44.37L11.07 45.34L25.86 36.8L24.19 35.83L9.4 44.37V44.37
           M6.61 42.76L8.29 43.73L23.08 35.19L21.41 34.22L6.61 42.76V42.76"
  />
  <path style="fill:#808080"
        d="M20.85 36.48C21.59 36.91 22.33 37.34 23.08 37.76C21.59 38.62 20.11 39.48 18.62 40.34C17.88 39.91 17.13 39.48 16.39 39.05C17.88 38.19 19.36 37.34 20.85 36.48V36.48V36.48z
           M16.39 33.9C17.13 34.33 17.88 34.76 18.62 35.19C17.13 36.05 15.65 36.91 14.16 37.76C13.42 37.34 12.67 36.91 11.93 36.48C13.42 35.62 14.9 34.76 16.39 33.9V33.9V33.9z
           M17.5 28.11C12.3 31.11 7.1 34.12 1.9 37.12C7.1 40.12 12.3 43.13 17.5 46.13C22.71 43.13 27.91 40.12 33.11 37.12C27.91 34.12 22.71 31.11 17.5 28.11V28.11V28.11z"
  />
  <path style="fill:#4d4d4d"
        d="M17.5 53.85C17.5 51.28 17.5 48.7 17.5 46.13C22.71 43.13 27.91 40.12 33.11 37.12C33.11 39.69 33.11 42.27 33.11 44.84C27.91 47.85 22.71 50.85 17.5 53.85C17.5 53.85 17.5 53.85 17.5 53.85V53.85z"
  />
  <path style="fill:#333333"
        d="M12.15 36.61C12.08 36.56 12.01 36.52 11.93 36.48C13.42 35.62 14.9 34.76 16.39 33.9C16.39 33.99 16.39 34.07 16.39 34.16C14.98 34.98 13.57 35.79 12.15 36.61V36.61V36.61z"
  />
  <path style="fill:#e6e6e6"
        d="M16.39 33.9C16.39 33.99 16.39 34.07 16.39 34.16C17.06 34.55 17.73 34.93 18.4 35.32C18.47 35.28 18.54 35.23 18.62 35.19C17.88 34.76 17.13 34.33 16.39 33.9V33.9V33.9z"
  />
  <path style="fill:#e6e6e6"
        d="M2.12 37.51C7.17 40.42 12.23 43.34 17.28 46.26C17.28 48.66 17.28 51.06 17.28 53.47C12.23 50.55 7.17 47.63 2.12 44.71C2.12 42.31 2.12 39.91 2.12 37.51V37.51V37.51z
           M1.9 37.12C1.9 39.69 1.9 42.27 1.9 44.84C7.1 47.85 12.3 50.85 17.5 53.85C17.5 51.28 17.5 48.7 17.5 46.13C12.3 43.13 7.1 40.12 1.9 37.12V37.12V37.12z"
  />
  <path style="fill:#333333"
        d="M16.61 39.18C16.54 39.14 16.46 39.09 16.39 39.05C17.88 38.19 19.36 37.34 20.85 36.48C20.85 36.56 20.85 36.65 20.85 36.73C19.44 37.55 18.02 38.36 16.61 39.18V39.18V39.18z"
  />
  <path style="fill:#e6e6e6"
        d="M20.85 36.48C20.85 36.56 20.85 36.65 20.85 36.73C21.52 37.12 22.19 37.51 22.85 37.89C22.93 37.85 23 37.81 23.08 37.76C22.33 37.34 21.59 36.91 20.85 36.48H20.85V36.48z"
  />
  <path style="fill:#000000; fill-opacity:0.6"
        d="M16.61 39.18C18.02 38.36 19.44 37.55 20.85 36.73C21.52 37.12 22.19 37.51 22.85 37.89C21.44 38.71 20.03 39.52 18.62 40.34C17.95 39.95 17.28 39.57 16.61 39.18V39.18V39.18z"
  />
  <path style="fill:#000000; fill-opacity:0.6"
        d="M12.15 36.61C13.57 35.79 14.98 34.98 16.39 34.16C17.06 34.55 17.73 34.93 18.4 35.32C16.98 36.13 15.57 36.95 14.16 37.76C13.49 37.38 12.82 36.99 12.15 36.61V36.61V36.61z"
  />
  <path style="fill:none; stroke:#ffffff; stroke-opacity:0.2392; stroke-width:0.2905"
        d="M17.58 46.09C22.7 43.13 27.82 40.18 32.93 37.22"
  />
 </g>
</svg>
