<?xml version="1.0" encoding="UTF-8" standalone="yes"?>
<svg version="1.1" width="64" height="64" color-interpolation="linearRGB"
     xmlns:svg="http://www.w3.org/2000/svg" xmlns="http://www.w3.org/2000/svg">
 <g>
  <path style="fill:#000100; fill-opacity:0.4392"
        d="M48 40C46.66 40 45.33 40 44 40C38 48 32 56 26 64C33.33 64 40.66 64 48 64C54.61 64 60 58.61 60 52C60 45.36 54.61 40 48 40V40V40z"
  />
  <path style="fill:none; stroke:#000100; stroke-width:4; stroke-linecap:round; stroke-linejoin:round"
        d="M41.97 37.97C42 43.5 34.81 48 26 48C17.13 48 9.97 43.5 10 37.97C10 41.98 10 45.99 10 50C10.02 56.61 17.13 62 26 62C34.81 62 41.97 56.61 42 50C41.99 45.99 41.97 41.98 41.97 37.97V37.97V37.97z
           M10 38C10.02 43.5 17.13 48 26 48C34.81 48 41.97 43.5 42 38C42 30 42 22 42 14C42 8.47 34.83 4 26 4C17.15 4 10 8.47 10 14C10 22 10 30 10 38V38V38z"
  />
  <linearGradient id="gradient0" gradientUnits="userSpaceOnUse" x1="42" y1="32" x2="10" y2="32">
   <stop offset="0" stop-color="#3dae3d"/>
   <stop offset="0.1702" stop-color="#237823"/>
   <stop offset="0.8259" stop-color="#50e550"/>
   <stop offset="1" stop-color="#2eaa2e"/>
  </linearGradient>
  <path style="fill:url(#gradient0)"
        d="M10 38C10.02 43.5 17.13 48 26 48C34.81 48 41.97 43.5 42 38C42 30 42 22 42 14C42 19.52 34.83 24 26 24C17.15 24 10 19.52 10 14C10 22 10 30 10 38V38V38z"
  />
  <linearGradient id="gradient1" gradientUnits="userSpaceOnUse" x1="42" y1="32" x2="10" y2="32">
   <stop offset="0" stop-color="#ff9900"/>
   <stop offset="0.1702" stop-color="#e37d06"/>
   <stop offset="0.8259" stop-color="#ffcc00"/>
   <stop offset="1" stop-color="#ff9900"/>
  </linearGradient>
  <path style="fill:url(#gradient1)"
        d="M41.97 37.97C42 43.5 34.81 48 26 48C17.13 48 9.97 43.5 10 37.97C10 41.98 10 45.99 10 50C10.02 56.61 17.13 62 26 62C34.81 62 41.97 56.61 42 50C41.99 45.99 41.97 41.98 41.97 37.97V37.97V37.97z"
  />
  <linearGradient id="gradient2" gradientUnits="userSpaceOnUse" x1="48.49" y1="-28.37" x2="69.41" y2="0.91">
   <stop offset="0" stop-color="#b3ffb3"/>
   <stop offset="1" stop-color="#56c856"/>
  </linearGradient>
  <path style="fill:url(#gradient2)"
        d="M10 14C10 8.47 17.15 4 26 4C34.83 4 42 8.47 42 14C42 19.52 34.83 24 26 24C17.15 24 10 19.52 10 14V14V14z"
  />
  <radialGradient id="gradient3" gradientUnits="userSpaceOnUse" cx="0" cy="0" r="64" gradientTransform="matrix(0,0.375,-0.375,0,26,16)">
   <stop offset="0" stop-color="#666666"/>
   <stop offset="1" stop-color="#010101"/>
  </radialGradient>
  <path style="fill:url(#gradient3)"
        d="M40 14C40 18.4 33.72 22 26 22C18.26 22 12 18.4 12 14C12 9.57 18.26 6 26 6C33.72 6 40 9.57 40 14V14V14z"
  />
  <path style="fill:none; stroke:#000100; stroke-width:4; stroke-linecap:round; stroke-linejoin:round"
        d="M18 8C18 5.78 21.57 4 26 4C30.4 4 34 5.78 34 8C34 9.33 34 10.66 34 12C34 14.19 30.4 16 26 16C21.57 16 18 14.19 18 12C18 10.66 18 9.33 18 8V8V8z"
  />
  <linearGradient id="gradient4" gradientUnits="userSpaceOnUse" x1="18" y1="4" x2="34" y2="4">
   <stop offset="0" stop-color="#999999"/>
   <stop offset="0.25" stop-color="#cccccc"/>
   <stop offset="1" stop-color="#868686"/>
  </linearGradient>
  <path style="fill:url(#gradient4)"
        d="M18 8C18 5.78 21.57 4 26 4C30.4 4 34 5.78 34 8C34 9.33 34 10.66 34 12C34 14.19 30.4 16 26 16C21.57 16 18 14.19 18 12C18 10.66 18 9.33 18 8V8V8z"
  />
  <linearGradient id="gradient5" gradientUnits="userSpaceOnUse" x1="47.2" y1="-11.34" x2="56.13" y2="1.92">
   <stop offset="0" stop-color="#ffffff"/>
   <stop offset="1" stop-color="#9e9e9e"/>
  </linearGradient>
  <path style="fill:url(#gradient5)"
        d="M18 8C18 5.78 21.57 4 26 4C30.4 4 34 5.78 34 8C34 10.19 30.4 12 26 12C21.57 12 18 10.19 18 8V8V8z"
  />
  <linearGradient id="gradient6" gradientUnits="userSpaceOnUse" x1="38.29" y1="-2" x2="42.93" y2="6.48">
   <stop offset="0" stop-color="#f3f3f3"/>
   <stop offset="1" stop-color="#c2c2c2"/>
  </linearGradient>
  <path style="fill:url(#gradient6)"
        d="M20.15 7.82C20.15 6.53 22.66 5.49 25.76 5.49C28.85 5.49 31.37 6.53 31.37 7.82C31.37 9.1 28.85 10.15 25.76 10.15C22.66 10.15 20.15 9.1 20.15 7.82V7.82V7.82z"
  />
  <linearGradient id="gradient7" gradientUnits="userSpaceOnUse" x1="10" y1="32" x2="42" y2="32">
   <stop offset="0" stop-color="#b8b8b8"/>
   <stop offset="0.25" stop-color="#eeeeee"/>
   <stop offset="1" stop-color="#b8b8b8"/>
  </linearGradient>
  <path style="fill:url(#gradient7)"
        d="M32 31.11C30.72 31.5 29.38 31.75 28 31.88C28 30.88 28 29.88 28 28.88C27.34 28.95 26.67 29 26 29C25.31 29 24.64 28.95 24 28.88C24 29.88 24 30.88 24 31.88C22.6 31.75 21.26 31.48 20 31.11C20 32.44 20 33.77 20 35.11C21.26 35.5 22.6 35.75 24 35.88C24 36.88 24 37.88 24 38.88C24.64 38.95 25.31 39 26 39C26.67 39 27.34 38.95 28 38.88C28 37.88 28 36.88 28 35.88C29.38 35.75 30.72 35.5 32 35.11C32 33.77 32 32.44 32 31.11V31.11V31.11z"
  />
 </g>
</svg>
