<?xml version="1.0" encoding="UTF-8" standalone="yes"?>
<svg version="1.1" width="64" height="64" color-interpolation="linearRGB"
     xmlns:svg="http://www.w3.org/2000/svg" xmlns="http://www.w3.org/2000/svg">
 <g>
  <path style="fill:none; stroke:#7e0303; stroke-width:3; stroke-linecap:round; stroke-linejoin:bevel"
        d="M14 47C25.48 44.86 30.88 46.12 42.64 47.02C48.08 47.44 54.16 48.69 58.49 52.18C59.11 52.69 59.66 53.29 60.09 53.96C60.23 54.2 60.33 54.46 60.43 54.71C60.44 52.66 60.45 50.61 60.46 48.56C60.41 48.69 60.35 48.8 60.26 48.89C59.43 49.82 57.64 49.42 56.62 49.17C51.3 47.86 47.59 43.46 44.12 39.6C39.79 34.75 35.46 29.89 31.65 24.61C29.9 22.19 28.26 19.64 26.71 17.11C25.99 15.92 25.39 14.7 24.91 13.41C23.83 10.47 24.22 19.57 24.58 17.44C24.64 17.14 24.72 16.83 24.8 16.53C25.57 13.76 27.3 10.32 30.58 10.12C31.76 10.06 32.94 10.64 33.89 11.27C34.36 11.58 34.71 12 34.97 12.48C35.85 14.67 35.9 12.73 35.11 6.67C35.02 7.03 34.87 7.37 34.72 7.71C33.74 10.01 31.82 11.93 30.12 13.72C28.4 15.55 27.17 17.22 25.83 19.37C23.55 23.01 20.86 26.39 18.75 30.15C16.47 34.19 14.42 38.37 12.16 42.41C10.77 44.91 9 44 8 43C5.19 40.19 1.98 45.87 1.55 50.13C1.29 52.75 0.89 56.3 1.96 58.8C2.74 60.63 5.17 60.47 6.53 59.55C7.89 58.62 8.85 57 9.67 55.61C11.01 53.33 12.31 51.02 13.59 48.7C16.79 42.89 19.72 37.06 23.51 31.58C25.02 29.43 26.25 26.81 27.94 24.81C28.99 23.56 30.2 22.43 31.3 21.23C34.15 18.12 35.7 15.27 35.82 11.02C35.94 6.96 36.04 1.6 30.58 1.51C27.43 1.46 25.61 5.25 24.77 7.71C23.34 11.88 23.47 16.86 24.49 21.08C25.16 23.83 26.95 26.32 28.48 28.66C30.19 31.27 31.87 33.88 33.76 36.36C37.49 41.27 41.7 45.84 45.83 50.42C48.89 53.81 53.32 57.25 58.13 57.37C62.26 57.47 61.12 51.27 60.91 48.78C60.62 45.21 56.8 43.51 53.79 42.49C42.04 38.49 28.99 40.06 17.1 42.36C14.06 42.95 13.91 47.02 14 47z"
        transform="matrix(0.8767,0,0,0.888,5.7299,4.0015)"
  />
  <path style="fill:#f70018"
        d="M14 47C25.48 44.86 30.88 46.12 42.64 47.02C48.08 47.44 54.16 48.69 58.49 52.18C59.11 52.69 59.66 53.29 60.09 53.96C60.23 54.2 60.33 54.46 60.43 54.71C60.44 52.66 60.45 50.61 60.46 48.56C60.41 48.69 60.35 48.8 60.26 48.89C59.43 49.82 57.64 49.42 56.62 49.17C51.3 47.86 47.59 43.46 44.12 39.6C39.79 34.75 35.46 29.89 31.65 24.61C29.9 22.19 28.26 19.64 26.71 17.11C25.99 15.92 25.39 14.7 24.91 13.41C23.83 10.47 24.22 19.57 24.58 17.44C24.64 17.14 24.72 16.83 24.8 16.53C25.57 13.76 27.3 10.32 30.58 10.12C31.76 10.06 32.94 10.64 33.89 11.27C34.36 11.58 34.71 12 34.97 12.48C35.85 14.67 35.9 12.73 35.11 6.67C35.02 7.03 34.87 7.37 34.72 7.71C33.74 10.01 31.82 11.93 30.12 13.72C28.4 15.55 27.17 17.22 25.83 19.37C23.55 23.01 20.86 26.39 18.75 30.15C16.47 34.19 14.42 38.37 12.16 42.41C10.77 44.91 9 44 8 43C5.19 40.19 1.98 45.87 1.55 50.13C1.29 52.75 0.89 56.3 1.96 58.8C2.74 60.63 5.17 60.47 6.53 59.55C7.89 58.62 8.85 57 9.67 55.61C11.01 53.33 12.31 51.02 13.59 48.7C16.79 42.89 19.72 37.06 23.51 31.58C25.02 29.43 26.25 26.81 27.94 24.81C28.99 23.56 30.2 22.43 31.3 21.23C34.15 18.12 35.7 15.27 35.82 11.02C35.94 6.96 36.04 1.6 30.58 1.51C27.43 1.46 25.61 5.25 24.77 7.71C23.34 11.88 23.47 16.86 24.49 21.08C25.16 23.83 26.95 26.32 28.48 28.66C30.19 31.27 31.87 33.88 33.76 36.36C37.49 41.27 41.7 45.84 45.83 50.42C48.89 53.81 53.32 57.25 58.13 57.37C62.26 57.47 61.12 51.27 60.91 48.78C60.62 45.21 56.8 43.51 53.79 42.49C42.04 38.49 28.99 40.06 17.1 42.36C14.06 42.95 13.91 47.02 14 47z"
        transform="matrix(0.8767,0,0,0.888,5.7299,4.0015)"
  />
 </g>
</svg>
