<?xml version="1.0" encoding="UTF-8" standalone="yes"?>
<svg version="1.1" width="64" height="64" color-interpolation="linearRGB"
     xmlns:svg="http://www.w3.org/2000/svg" xmlns="http://www.w3.org/2000/svg">
 <g>
  <path style="fill:#000000; fill-opacity:0.5372"
        d="M20 49.72C30.05 47.83 34.79 48.95 45.11 49.75C49.88 50.11 55.2 51.22 59 54.33C59.54 54.79 60.02 55.31 60.4 55.9C60.52 56.13 60.61 56.36 60.7 56.58C60.7 54.75 60.72 52.93 60.72 51.11C60.68 51.22 60.63 51.33 60.54 51.4C59.83 52.24 58.25 51.88 57.36 51.65C52.7 50.5 49.45 46.59 46.4 43.15C42.61 38.84 38.81 34.54 35.47 29.85C33.94 27.7 32.5 25.44 31.13 23.19C30.51 22.12 29.97 21.04 29.55 19.89C28.62 17.29 28.95 25.37 29.27 23.47C29.32 23.21 29.39 22.94 29.46 22.68C30.13 20.21 31.65 17.15 34.52 16.97C35.56 16.93 36.59 17.43 37.43 18C37.84 18.27 38.15 18.64 38.38 19.07C39.15 21.02 39.2 19.29 38.5 13.92C38.43 14.23 38.29 14.53 38.15 14.84C37.29 16.88 35.61 18.59 34.13 20.18C32.62 21.79 31.54 23.29 30.37 25.2C28.37 28.43 26.01 31.43 24.15 34.77C22.15 38.36 20.37 42.06 18.38 45.65C17.17 47.88 15.61 47.06 14.73 46.18C12.27 43.68 9.46 48.72 9.07 52.5C8.86 54.84 8.51 57.99 9.44 60.2C10.13 61.84 12.26 61.68 13.44 60.88C14.64 60.04 15.47 58.61 16.2 57.38C17.38 55.34 18.52 53.29 19.63 51.24C22.44 46.08 25.01 40.9 28.34 36.04C29.65 34.12 30.73 31.79 32.22 30.03C33.13 28.92 34.2 27.9 35.16 26.85C37.65 24.09 39.02 21.55 39.13 17.77C39.22 14.18 39.31 9.42 34.52 9.34C31.77 9.28 30.18 12.65 29.44 14.84C28.19 18.54 28.29 22.96 29.2 26.71C29.78 29.15 31.35 31.37 32.69 33.45C34.18 35.76 35.66 38.08 37.31 40.27C40.59 44.63 44.27 48.7 47.9 52.77C50.59 55.77 54.47 58.83 58.68 58.93C62.31 59.02 61.31 53.52 61.11 51.31C60.86 48.13 57.52 46.63 54.88 45.72C44.58 42.18 33.13 43.56 22.71 45.61C20.04 46.13 19.92 49.75 20 49.72z
           M20 49.72C30.05 47.83 34.79 48.95 45.11 49.75C49.88 50.11 55.2 51.22 59 54.33C59.54 54.79 60.02 55.31 60.4 55.9C60.52 56.13 60.61 56.36 60.7 56.58C60.7 54.75 60.72 52.93 60.72 51.11C60.68 51.22 60.63 51.33 60.54 51.4C59.83 52.24 58.25 51.88 57.36 51.65C52.7 50.5 49.45 46.59 46.4 43.15C42.61 38.84 38.81 34.54 35.47 29.85C33.94 27.7 32.5 25.44 31.13 23.19C30.51 22.12 29.97 21.04 29.55 19.89C28.62 17.29 28.95 25.37 29.27 23.47C29.32 23.21 29.39 22.94 29.46 22.68C30.13 20.21 31.65 17.15 34.52 16.97C35.56 16.93 36.59 17.43 37.43 18C37.84 18.27 38.15 18.64 38.38 19.07C39.15 21.02 39.2 19.29 38.5 13.92C38.43 14.23 38.29 14.53 38.15 14.84C37.29 16.88 35.61 18.59 34.13 20.18C32.62 21.79 31.54 23.29 30.37 25.2C28.37 28.43 26.01 31.43 24.15 34.77C22.15 38.36 20.37 42.06 18.38 45.65C17.17 47.88 15.61 47.06 14.73 46.18C12.27 43.68 9.46 48.72 9.07 52.5C8.86 54.84 8.51 57.99 9.44 60.2C10.13 61.84 12.26 61.68 13.44 60.88C14.64 60.04 15.47 58.61 16.2 57.38C17.38 55.34 18.52 53.29 19.63 51.24C22.44 46.08 25.01 40.9 28.34 36.04C29.65 34.12 30.73 31.79 32.22 30.03C33.13 28.92 34.2 27.9 35.16 26.85C37.65 24.09 39.02 21.55 39.13 17.77C39.22 14.18 39.31 9.42 34.52 9.34C31.77 9.28 30.18 12.65 29.44 14.84C28.19 18.54 28.29 22.96 29.2 26.71C29.78 29.15 31.35 31.37 32.69 33.45C34.18 35.76 35.66 38.08 37.31 40.27C40.59 44.63 44.27 48.7 47.9 52.77C50.59 55.77 54.47 58.83 58.68 58.93C62.31 59.02 61.31 53.52 61.11 51.31C60.86 48.13 57.52 46.63 54.88 45.72C44.58 42.18 33.13 43.56 22.71 45.61C20.04 46.13 19.92 49.75 20 49.72z"
        transform="matrix(0.9652,0,0,0.9658,0.151,1.0969)"
  />
  <path style="fill:none; stroke:#800000; stroke-width:5; stroke-linecap:round; stroke-linejoin:bevel"
        d="M18 45.72C28.05 43.83 32.79 44.95 43.11 45.75C47.88 46.11 53.2 47.22 57 50.33C57.54 50.79 58.02 51.31 58.4 51.9C58.52 52.13 58.61 52.36 58.7 52.58C58.7 50.75 58.72 48.93 58.72 47.11C58.68 47.22 58.63 47.33 58.54 47.4C57.83 48.24 56.25 47.88 55.36 47.65C50.7 46.5 47.45 42.59 44.4 39.15C40.61 34.84 36.81 30.54 33.47 25.85C31.94 23.7 30.5 21.44 29.13 19.19C28.51 18.12 27.97 17.04 27.55 15.89C26.62 13.28 26.95 21.37 27.27 19.47C27.32 19.21 27.39 18.94 27.46 18.68C28.13 16.21 29.65 13.15 32.52 12.97C33.56 12.93 34.59 13.43 35.43 14C35.84 14.27 36.15 14.64 36.38 15.07C37.15 17.02 37.2 15.3 36.5 9.92C36.43 10.23 36.29 10.53 36.15 10.84C35.29 12.89 33.61 14.59 32.13 16.18C30.62 17.79 29.54 19.29 28.37 21.2C26.37 24.43 24.01 27.43 22.15 30.77C20.15 34.36 18.37 38.06 16.38 41.65C15.17 43.88 13.61 43.06 12.73 42.18C10.27 39.68 7.46 44.72 7.07 48.5C6.86 50.84 6.51 53.99 7.44 56.2C8.13 57.84 10.26 57.68 11.44 56.88C12.64 56.04 13.47 54.61 14.19 53.38C15.38 51.34 16.52 49.29 17.63 47.24C20.44 42.08 23.01 36.9 26.34 32.04C27.65 30.12 28.73 27.79 30.21 26.03C31.13 24.92 32.2 23.9 33.16 22.85C35.65 20.09 37.02 17.55 37.13 13.77C37.22 10.18 37.31 5.42 32.52 5.34C29.77 5.28 28.18 8.65 27.44 10.84C26.19 14.55 26.29 18.96 27.2 22.71C27.78 25.15 29.35 27.37 30.69 29.45C32.18 31.76 33.66 34.08 35.31 36.27C38.59 40.63 42.27 44.7 45.9 48.77C48.59 51.77 52.47 54.83 56.68 54.93C60.31 55.02 59.31 49.52 59.11 47.31C58.86 44.13 55.52 42.63 52.88 41.72C42.58 38.18 31.13 39.56 20.71 41.61C18.04 42.13 17.92 45.75 18 45.72z"
        transform="matrix(0.9652,0,0,0.9658,0.151,1.0969)"
  />
  <linearGradient id="gradient0" gradientUnits="userSpaceOnUse" x1="162.63" y1="7.34" x2="162.63" y2="54.17">
   <stop offset="0" stop-color="#ffabab"/>
   <stop offset="1" stop-color="#d90000"/>
  </linearGradient>
  <path style="fill:url(#gradient0)"
        d="M18 45.72C28.05 43.83 32.79 44.95 43.11 45.75C47.88 46.11 53.2 47.22 57 50.33C57.54 50.79 58.02 51.31 58.4 51.9C58.52 52.13 58.61 52.36 58.7 52.58C58.7 50.75 58.72 48.93 58.72 47.11C58.68 47.22 58.63 47.33 58.54 47.4C57.83 48.24 56.25 47.88 55.36 47.65C50.7 46.5 47.45 42.59 44.4 39.15C40.61 34.84 36.81 30.54 33.47 25.85C31.94 23.7 30.5 21.44 29.13 19.19C28.51 18.12 27.97 17.04 27.55 15.89C26.62 13.28 26.95 21.37 27.27 19.47C27.32 19.21 27.39 18.94 27.46 18.68C28.13 16.21 29.65 13.15 32.52 12.97C33.56 12.93 34.59 13.43 35.43 14C35.84 14.27 36.15 14.64 36.38 15.07C37.15 17.02 37.2 15.3 36.5 9.92C36.43 10.23 36.29 10.53 36.15 10.84C35.29 12.89 33.61 14.59 32.13 16.18C30.62 17.79 29.54 19.29 28.37 21.2C26.37 24.43 24.01 27.43 22.15 30.77C20.15 34.36 18.37 38.06 16.38 41.65C15.17 43.88 13.61 43.06 12.73 42.18C10.27 39.68 7.46 44.72 7.07 48.5C6.86 50.84 6.51 53.99 7.44 56.2C8.13 57.84 10.26 57.68 11.44 56.88C12.64 56.04 13.47 54.61 14.19 53.38C15.38 51.34 16.52 49.29 17.63 47.24C20.44 42.08 23.01 36.9 26.34 32.04C27.65 30.12 28.73 27.79 30.21 26.03C31.13 24.92 32.2 23.9 33.16 22.85C35.65 20.09 37.02 17.55 37.13 13.77C37.22 10.18 37.31 5.42 32.52 5.34C29.77 5.28 28.18 8.65 27.44 10.84C26.19 14.55 26.29 18.96 27.2 22.71C27.78 25.15 29.35 27.37 30.69 29.45C32.18 31.76 33.66 34.08 35.31 36.27C38.59 40.63 42.27 44.7 45.9 48.77C48.59 51.77 52.47 54.83 56.68 54.93C60.31 55.02 59.31 49.52 59.11 47.31C58.86 44.13 55.52 42.63 52.88 41.72C42.58 38.18 31.13 39.56 20.71 41.61C18.04 42.13 17.92 45.75 18 45.72z"
        transform="matrix(0.9652,0,0,0.9658,0.151,1.0969)"
  />
 </g>
</svg>
