<?xml version="1.0" encoding="UTF-8" standalone="yes"?>
<svg version="1.1" width="64" height="64" color-interpolation="linearRGB"
     xmlns:svg="http://www.w3.org/2000/svg" xmlns="http://www.w3.org/2000/svg">
 <g>
  <path style="fill:#000000; fill-opacity:0.5372"
        d="M18 45.73C28.06 43.83 32.8 44.95 43.11 45.75C47.88 46.12 53.21 47.23 57 50.33C57.55 50.79 58.03 51.32 58.41 51.91C58.53 52.13 58.62 52.36 58.7 52.58C58.71 50.76 58.72 48.94 58.73 47.12C58.69 47.23 58.63 47.33 58.55 47.41C57.83 48.24 56.26 47.88 55.36 47.66C50.7 46.5 47.45 42.59 44.4 39.16C40.61 34.85 36.81 30.54 33.47 25.85C31.94 23.7 30.5 21.44 29.14 19.19C28.51 18.13 27.98 17.05 27.56 15.9C26.62 13.29 26.96 21.37 27.27 19.48C27.33 19.22 27.4 18.94 27.47 18.68C28.14 16.22 29.66 13.16 32.53 12.98C33.57 12.93 34.6 13.44 35.44 14C35.85 14.28 36.16 14.65 36.38 15.08C37.15 17.02 37.2 15.3 36.51 9.92C36.43 10.24 36.3 10.54 36.16 10.84C35.3 12.89 33.62 14.59 32.13 16.18C30.62 17.8 29.54 19.29 28.37 21.2C26.37 24.43 24.01 27.43 22.16 30.77C20.16 34.36 18.37 38.07 16.39 41.66C15.17 43.88 13.62 43.07 12.74 42.18C10.27 39.69 7.46 44.73 7.08 48.51C6.86 50.84 6.51 53.99 7.44 56.21C8.13 57.84 10.26 57.69 11.45 56.88C12.64 56.05 13.48 54.61 14.2 53.38C15.38 51.35 16.52 49.3 17.64 47.24C20.44 42.08 23.01 36.91 26.34 32.04C27.66 30.13 28.74 27.8 30.22 26.03C31.14 24.92 32.2 23.91 33.17 22.85C35.66 20.09 37.02 17.56 37.13 13.78C37.23 10.18 37.32 5.42 32.53 5.34C29.77 5.29 28.18 8.66 27.44 10.84C26.19 14.55 26.3 18.97 27.2 22.72C27.78 25.16 29.35 27.37 30.69 29.45C32.19 31.76 33.67 34.08 35.32 36.28C38.59 40.64 42.28 44.7 45.9 48.77C48.59 51.78 52.47 54.83 56.69 54.94C60.31 55.03 59.31 49.52 59.12 47.31C58.87 44.14 55.52 42.63 52.88 41.73C42.58 38.18 31.14 39.57 20.72 41.61C18.05 42.14 17.92 45.75 18 45.73z
           M18 45.73C28.06 43.83 32.8 44.95 43.11 45.75C47.88 46.12 53.21 47.23 57 50.33C57.55 50.79 58.03 51.32 58.41 51.91C58.53 52.13 58.62 52.36 58.7 52.58C58.71 50.76 58.72 48.94 58.73 47.12C58.69 47.23 58.63 47.33 58.55 47.41C57.83 48.24 56.26 47.88 55.36 47.66C50.7 46.5 47.45 42.59 44.4 39.16C40.61 34.85 36.81 30.54 33.47 25.85C31.94 23.7 30.5 21.44 29.14 19.19C28.51 18.13 27.98 17.05 27.56 15.9C26.62 13.29 26.96 21.37 27.27 19.48C27.33 19.22 27.4 18.94 27.47 18.68C28.14 16.22 29.66 13.16 32.53 12.98C33.57 12.93 34.6 13.44 35.44 14C35.85 14.28 36.16 14.65 36.38 15.08C37.15 17.02 37.2 15.3 36.51 9.92C36.43 10.24 36.3 10.54 36.16 10.84C35.3 12.89 33.62 14.59 32.13 16.18C30.62 17.8 29.54 19.29 28.37 21.2C26.37 24.43 24.01 27.43 22.16 30.77C20.16 34.36 18.37 38.07 16.39 41.66C15.17 43.88 13.62 43.07 12.74 42.18C10.27 39.69 7.46 44.73 7.08 48.51C6.86 50.84 6.51 53.99 7.44 56.21C8.13 57.84 10.26 57.69 11.45 56.88C12.64 56.05 13.48 54.61 14.2 53.38C15.38 51.35 16.52 49.3 17.64 47.24C20.44 42.08 23.01 36.91 26.34 32.04C27.66 30.13 28.74 27.8 30.22 26.03C31.14 24.92 32.2 23.91 33.17 22.85C35.66 20.09 37.02 17.56 37.13 13.78C37.23 10.18 37.32 5.42 32.53 5.34C29.77 5.29 28.18 8.66 27.44 10.84C26.19 14.55 26.3 18.97 27.2 22.72C27.78 25.16 29.35 27.37 30.69 29.45C32.19 31.76 33.67 34.08 35.32 36.28C38.59 40.64 42.28 44.7 45.9 48.77C48.59 51.78 52.47 54.83 56.69 54.94C60.31 55.03 59.31 49.52 59.12 47.31C58.87 44.14 55.52 42.63 52.88 41.73C42.58 38.18 31.14 39.57 20.72 41.61C18.05 42.14 17.92 45.75 18 45.73z"
        transform="matrix(1,0,0,1,2,4)"
  />
  <path style="fill:none; stroke:#7e0303; stroke-width:2.6471; stroke-linecap:round; stroke-linejoin:bevel"
        d="M18 45.73C28.06 43.83 32.8 44.95 43.11 45.75C47.88 46.12 53.21 47.23 57 50.33C57.55 50.79 58.03 51.32 58.41 51.91C58.53 52.13 58.62 52.36 58.7 52.58C58.71 50.76 58.72 48.94 58.73 47.12C58.69 47.23 58.63 47.33 58.55 47.41C57.83 48.24 56.26 47.88 55.36 47.66C50.7 46.5 47.45 42.59 44.4 39.16C40.61 34.85 36.81 30.54 33.47 25.85C31.94 23.7 30.5 21.44 29.14 19.19C28.51 18.13 27.98 17.05 27.56 15.9C26.62 13.29 26.96 21.37 27.27 19.48C27.33 19.22 27.4 18.94 27.47 18.68C28.14 16.22 29.66 13.16 32.53 12.98C33.57 12.93 34.6 13.44 35.44 14C35.85 14.28 36.16 14.65 36.38 15.08C37.15 17.02 37.2 15.3 36.51 9.92C36.43 10.24 36.3 10.54 36.16 10.84C35.3 12.89 33.62 14.59 32.13 16.18C30.62 17.8 29.54 19.29 28.37 21.2C26.37 24.43 24.01 27.43 22.16 30.77C20.16 34.36 18.37 38.07 16.39 41.66C15.17 43.88 13.62 43.07 12.74 42.18C10.27 39.69 7.46 44.73 7.08 48.51C6.86 50.84 6.51 53.99 7.44 56.21C8.13 57.84 10.26 57.69 11.45 56.88C12.64 56.05 13.48 54.61 14.2 53.38C15.38 51.35 16.52 49.3 17.64 47.24C20.44 42.08 23.01 36.91 26.34 32.04C27.66 30.13 28.74 27.8 30.22 26.03C31.14 24.92 32.2 23.91 33.17 22.85C35.66 20.09 37.02 17.56 37.13 13.78C37.23 10.18 37.32 5.42 32.53 5.34C29.77 5.29 28.18 8.66 27.44 10.84C26.19 14.55 26.3 18.97 27.2 22.72C27.78 25.16 29.35 27.37 30.69 29.45C32.19 31.76 33.67 34.08 35.32 36.28C38.59 40.64 42.28 44.7 45.9 48.77C48.59 51.78 52.47 54.83 56.69 54.94C60.31 55.03 59.31 49.52 59.12 47.31C58.87 44.14 55.52 42.63 52.88 41.73C42.58 38.18 31.14 39.57 20.72 41.61C18.05 42.14 17.92 45.75 18 45.73z"
  />
  <path style="fill:#f70018"
        d="M18 45.73C28.06 43.83 32.8 44.95 43.11 45.75C47.88 46.12 53.21 47.23 57 50.33C57.55 50.79 58.03 51.32 58.41 51.91C58.53 52.13 58.62 52.36 58.7 52.58C58.71 50.76 58.72 48.94 58.73 47.12C58.69 47.23 58.63 47.33 58.55 47.41C57.83 48.24 56.26 47.88 55.36 47.66C50.7 46.5 47.45 42.59 44.4 39.16C40.61 34.85 36.81 30.54 33.47 25.85C31.94 23.7 30.5 21.44 29.14 19.19C28.51 18.13 27.98 17.05 27.56 15.9C26.62 13.29 26.96 21.37 27.27 19.48C27.33 19.22 27.4 18.94 27.47 18.68C28.14 16.22 29.66 13.16 32.53 12.98C33.57 12.93 34.6 13.44 35.44 14C35.85 14.28 36.16 14.65 36.38 15.08C37.15 17.02 37.2 15.3 36.51 9.92C36.43 10.24 36.3 10.54 36.16 10.84C35.3 12.89 33.62 14.59 32.13 16.18C30.62 17.8 29.54 19.29 28.37 21.2C26.37 24.43 24.01 27.43 22.16 30.77C20.16 34.36 18.37 38.07 16.39 41.66C15.17 43.88 13.62 43.07 12.74 42.18C10.27 39.69 7.46 44.73 7.08 48.51C6.86 50.84 6.51 53.99 7.44 56.21C8.13 57.84 10.26 57.69 11.45 56.88C12.64 56.05 13.48 54.61 14.2 53.38C15.38 51.35 16.52 49.3 17.64 47.24C20.44 42.08 23.01 36.91 26.34 32.04C27.66 30.13 28.74 27.8 30.22 26.03C31.14 24.92 32.2 23.91 33.17 22.85C35.66 20.09 37.02 17.56 37.13 13.78C37.23 10.18 37.32 5.42 32.53 5.34C29.77 5.29 28.18 8.66 27.44 10.84C26.19 14.55 26.3 18.97 27.2 22.72C27.78 25.16 29.35 27.37 30.69 29.45C32.19 31.76 33.67 34.08 35.32 36.28C38.59 40.64 42.28 44.7 45.9 48.77C48.59 51.78 52.47 54.83 56.69 54.94C60.31 55.03 59.31 49.52 59.12 47.31C58.87 44.14 55.52 42.63 52.88 41.73C42.58 38.18 31.14 39.57 20.72 41.61C18.05 42.14 17.92 45.75 18 45.73z"
  />
 </g>
</svg>
