<?xml version="1.0" encoding="UTF-8" standalone="yes"?>
<svg version="1.1" width="64" height="64" color-interpolation="linearRGB"
     xmlns:svg="http://www.w3.org/2000/svg" xmlns="http://www.w3.org/2000/svg">
 <g>
  <path style="fill:#999999; fill-opacity:0.3568"
        d="M16.19 52.73C30.3 50.71 44.29 48.44 58.74 49.3C65.42 49.7 72.89 50.88 78.21 54.18C78.97 54.66 79.65 55.22 80.17 55.86C80.35 56.09 80.47 56.33 80.59 56.58C80.6 54.64 80.62 52.7 80.63 50.76C80.57 50.87 80.49 50.98 80.38 51.06C79.36 51.95 77.16 51.57 75.91 51.33C69.38 50.08 64.82 45.93 60.56 42.27C55.23 37.69 49.91 33.08 45.24 28.09C43.09 25.8 41.07 23.39 39.16 20.98C38.28 19.87 37.55 18.71 36.96 17.49C35.63 14.71 36.11 23.32 36.55 21.31C36.62 21.02 36.72 20.73 36.82 20.44C37.77 17.81 39.89 14.57 43.92 14.38C45.37 14.31 46.82 14.86 47.99 15.46C48.56 15.76 48.99 16.16 49.31 16.61C50.39 18.68 50.45 16.85 49.49 11.11C49.38 11.45 49.19 11.78 49.01 12.1C47.8 14.27 45.44 16.09 43.36 17.79C41.24 19.52 39.73 21.1 38.09 23.13C35.28 26.58 31.98 29.78 29.39 33.33C26.59 37.16 24.07 41.11 21.29 44.94C19.58 47.3 17.93 49.94 15.59 51.98C14.66 52.8 13.49 53.41 12.06 53.52C11.31 53.58 10.55 53.31 9.91 53.07C9.56 52.92 9.27 52.71 9.05 52.46C12.13 55.93 7.7 60.56 9.39 57.78C10.9 55.27 14.16 54.62 17.27 53.67C18.1 53.42 17.8 50.17 17.8 49.68C17.8 49.48 17.67 45.62 17.27 45.7C12.56 46.65 8.79 48.21 8.26 52.24C7.94 54.72 7.44 58.08 8.76 60.45C9.72 62.18 12.7 62.02 14.37 61.16C16.05 60.28 17.22 58.73 18.23 57.42C19.88 55.26 21.48 53.08 23.05 50.89C26.98 45.39 30.58 39.86 35.24 34.69C37.09 32.64 38.6 30.17 40.68 28.28C41.97 27.1 43.45 26.03 44.81 24.89C48.31 21.95 50.21 19.25 50.36 15.23C50.5 11.39 50.63 6.32 43.92 6.23C40.05 6.18 37.82 9.77 36.78 12.09C35.02 16.03 35.19 20.76 36.44 24.75C37.26 27.35 39.46 29.71 41.34 31.92C43.44 34.39 45.5 36.85 47.83 39.21C52.41 43.86 57.58 48.18 62.66 52.52C66.41 55.72 71.86 58.97 77.76 59.09C82.84 59.18 81.44 53.32 81.18 50.96C80.82 47.58 76.13 45.98 72.43 45.01C58 41.23 41.97 42.71 27.36 44.89C23.63 45.45 19.92 46.07 16.19 46.64C15.14 46.8 16.08 52.74 16.19 52.73z"
        transform="matrix(0.814,0,0,1.0567,-3.84,-2.3835)"
  />
  <path style="fill:#f70019"
        d="M13.05 49.14C27.16 47.12 41.15 44.86 55.6 45.71C62.28 46.11 69.75 47.29 75.07 50.59C75.83 51.07 76.51 51.64 77.03 52.28C77.21 52.5 77.33 52.75 77.45 52.99C77.46 51.05 77.48 49.11 77.49 47.17C77.43 47.29 77.35 47.39 77.24 47.48C76.22 48.36 74.02 47.98 72.77 47.74C66.24 46.5 61.68 42.34 57.42 38.69C52.09 34.1 46.77 29.5 42.1 24.5C39.95 22.21 37.93 19.8 36.02 17.4C35.14 16.28 34.4 15.12 33.82 13.9C32.49 11.12 32.97 19.73 33.41 17.72C33.48 17.43 33.58 17.14 33.68 16.85C34.63 14.23 36.75 10.98 40.78 10.79C42.23 10.73 43.68 11.28 44.85 11.88C45.42 12.17 45.85 12.57 46.17 13.02C47.25 15.09 47.31 13.26 46.35 7.52C46.24 7.86 46.05 8.19 45.87 8.51C44.66 10.68 42.3 12.5 40.22 14.2C38.1 15.93 36.59 17.51 34.95 19.54C32.14 22.99 28.84 26.19 26.25 29.74C23.45 33.57 20.93 37.52 18.15 41.35C16.44 43.71 14.79 46.35 12.45 48.4C11.52 49.21 10.35 49.82 8.92 49.93C8.17 49.99 7.41 49.72 6.77 49.48C6.42 49.33 6.13 49.13 5.91 48.87C8.99 52.34 4.56 56.97 6.25 54.19C7.76 51.69 11.02 51.04 14.13 50.09C14.96 49.83 14.66 46.59 14.66 46.1C14.66 45.89 14.53 42.03 14.13 42.11C9.42 43.06 5.65 44.62 5.12 48.65C4.8 51.13 4.3 54.49 5.62 56.86C6.58 58.59 9.56 58.44 11.23 57.57C12.91 56.69 14.08 55.15 15.09 53.84C16.74 51.68 18.34 49.49 19.91 47.3C23.84 41.8 27.44 36.28 32.1 31.1C33.95 29.06 35.46 26.58 37.54 24.69C38.83 23.51 40.31 22.44 41.67 21.3C45.17 18.36 47.07 15.66 47.22 11.64C47.36 7.8 47.49 2.73 40.78 2.64C36.91 2.59 34.68 6.18 33.64 8.51C31.88 12.45 32.05 17.17 33.3 21.16C34.12 23.76 36.32 26.12 38.2 28.33C40.3 30.8 42.36 33.27 44.69 35.62C49.27 40.27 54.44 44.59 59.52 48.93C63.27 52.13 68.72 55.39 74.62 55.5C79.7 55.6 78.3 49.73 78.04 47.37C77.68 44 72.99 42.39 69.29 41.42C54.86 37.64 38.83 39.12 24.22 41.3C20.49 41.86 16.78 42.48 13.05 43.05C12 43.21 12.94 49.16 13.05 49.14z"
        transform="matrix(0.814,0,0,1.0567,-2.6101,-1.2752)"
  />
 </g>
</svg>
