<?xml version="1.0" encoding="UTF-8" standalone="yes"?>
<svg version="1.1" width="64" height="64" color-interpolation="linearRGB"
     xmlns:svg="http://www.w3.org/2000/svg" xmlns="http://www.w3.org/2000/svg">
 <g>
  <path style="fill:none; stroke:#000000; stroke-opacity:0.4; stroke-width:4.9083; stroke-linecap:round; stroke-linejoin:round"
        d="M6 6L32 33L58 6H6z"
        transform="matrix(1,0,0,1,2,2)"
  />
  <path style="fill:none; stroke:#005900; stroke-width:4.9083; stroke-linecap:round; stroke-linejoin:round"
        d="M6 6L32 33L58 6H6z"
  />
  <linearGradient id="gradient0" gradientUnits="userSpaceOnUse" x1="162.06" y1="7.43" x2="162.06" y2="54.08">
   <stop offset="0" stop-color="#80ff80"/>
   <stop offset="1" stop-color="#00b300"/>
  </linearGradient>
  <path style="fill:url(#gradient0)"
        d="M6 6L32 33L58 6H6z"
  />
  <path style="fill:none; stroke:#000000; stroke-opacity:0.4; stroke-width:3"
        d="M4 50V60"
        transform="matrix(1,0,0,1,3,2)"
  />
  <path style="fill:none; stroke:#000000; stroke-opacity:0.4; stroke-width:3"
        d="M4 50V60"
        transform="matrix(1,0,0,1,16,2)"
  />
  <path style="fill:none; stroke:#000000; stroke-opacity:0.4; stroke-width:3"
        d="M4 50V60"
        transform="matrix(1,0,0,1,55,2)"
  />
  <path style="fill:none; stroke:#000000; stroke-opacity:0.4; stroke-width:3"
        d="M4 50V60"
        transform="matrix(1,0,0,1,42,2)"
  />
  <path style="fill:none; stroke:#000000; stroke-opacity:0.4; stroke-width:5; stroke-linecap:round; stroke-linejoin:round"
        d="M12 38V60"
        transform="matrix(1,0,0,1,21,2)"
  />
  <path style="fill:none; stroke:#000000; stroke-width:2"
        d="M4 50V60"
        transform="matrix(1,0,0,1,2,0)"
  />
  <path style="fill:none; stroke:#000000; stroke-width:2"
        d="M4 50V60"
        transform="matrix(1,0,0,1,15,0)"
  />
  <path style="fill:none; stroke:#000000; stroke-width:2"
        d="M4 50V60"
        transform="matrix(1,0,0,1,54,0)"
  />
  <path style="fill:none; stroke:#000000; stroke-width:2"
        d="M4 50V60"
        transform="matrix(1,0,0,1,41,0)"
  />
  <path style="fill:none; stroke:#000000; stroke-width:4; stroke-linecap:round; stroke-linejoin:round"
        d="M12 38V60"
        transform="matrix(1,0,0,1,20,0)"
  />
 </g>
</svg>
