<?xml version="1.0" encoding="UTF-8" standalone="yes"?>
<svg version="1.1" width="64" height="64" color-interpolation="linearRGB"
     xmlns:svg="http://www.w3.org/2000/svg" xmlns="http://www.w3.org/2000/svg">
 <g>
  <radialGradient id="gradient0" gradientUnits="userSpaceOnUse" cx="0" cy="0" r="64" gradientTransform="matrix(0.1088,0,0,0.1861,35.7925,159.5505)">
   <stop offset="0" stop-color="#d3d7cf"/>
   <stop offset="1" stop-color="#888a85"/>
  </radialGradient>
  <path style="fill:none; stroke:url(#gradient0); stroke-width:4.923; stroke-linecap:round"
        d="M23.54 63.18C22.48 66.81 18.43 69.76 14.49 69.76C10.56 69.76 8.22 66.81 9.27 63.18C10.33 59.56 14.38 56.61 18.32 56.61C22.26 56.61 24.59 59.56 23.54 63.18z"
        transform="matrix(0.7634,0,0,0.7183,0.5824,3.3796)"
  />
  <path style="fill:none; stroke:#eeeeec; stroke-width:1.4707; stroke-linecap:round"
        d="M23.54 63.18C22.48 66.82 18.43 69.76 14.49 69.76C10.55 69.76 8.22 66.82 9.27 63.18C10.33 59.55 14.38 56.61 18.32 56.61C22.26 56.61 24.59 59.55 23.54 63.18z"
        transform="matrix(0.7634,0,0,0.7183,0.5824,3.3796)"
  />
  <radialGradient id="gradient1" gradientUnits="userSpaceOnUse" cx="0" cy="0" r="64" gradientTransform="matrix(0.1088,0,0,0.1861,35.7925,133.5465)">
   <stop offset="0" stop-color="#d3d7cf"/>
   <stop offset="1" stop-color="#888a85"/>
  </radialGradient>
  <path style="fill:none; stroke:url(#gradient1); stroke-width:4.923; stroke-linecap:round"
        d="M23.54 53.34C22.48 56.97 18.43 59.91 14.49 59.91C10.56 59.91 8.22 56.97 9.27 53.34C10.33 49.71 14.38 46.76 18.32 46.76C22.26 46.76 24.59 49.71 23.54 53.34z"
        transform="matrix(0.7634,0,0,0.7183,0.5824,3.3796)"
  />
  <path style="fill:none; stroke:#eeeeec; stroke-width:1.4707; stroke-linecap:round"
        d="M23.54 53.34C22.48 56.97 18.43 59.91 14.49 59.91C10.55 59.91 8.22 56.97 9.27 53.34C10.33 49.71 14.38 46.76 18.32 46.76C22.26 46.76 24.59 49.71 23.54 53.34z"
        transform="matrix(0.7634,0,0,0.7183,0.5824,3.3796)"
  />
  <radialGradient id="gradient2" gradientUnits="userSpaceOnUse" cx="0" cy="0" r="64" gradientTransform="matrix(0.1088,0,0,0.1861,35.7925,107.5426)">
   <stop offset="0" stop-color="#d3d7cf"/>
   <stop offset="1" stop-color="#888a85"/>
  </radialGradient>
  <path style="fill:none; stroke:url(#gradient2); stroke-width:4.923; stroke-linecap:round"
        d="M23.54 43.49C22.48 47.12 18.43 50.07 14.49 50.07C10.56 50.07 8.22 47.12 9.27 43.49C10.33 39.86 14.38 36.92 18.32 36.92C22.26 36.92 24.59 39.86 23.54 43.49z"
        transform="matrix(0.7634,0,0,0.7183,0.5824,3.3796)"
  />
  <path style="fill:none; stroke:#eeeeec; stroke-width:1.4707; stroke-linecap:round"
        d="M23.54 43.49C22.48 47.12 18.43 50.07 14.49 50.07C10.55 50.07 8.22 47.12 9.27 43.49C10.33 39.86 14.38 36.92 18.32 36.92C22.26 36.92 24.59 39.86 23.54 43.49z"
        transform="matrix(0.7634,0,0,0.7183,0.5824,3.3796)"
  />
  <radialGradient id="gradient3" gradientUnits="userSpaceOnUse" cx="0" cy="0" r="64" gradientTransform="matrix(0.1088,0,0,0.1861,35.7925,81.5386)">
   <stop offset="0" stop-color="#d3d7cf"/>
   <stop offset="1" stop-color="#888a85"/>
  </radialGradient>
  <path style="fill:none; stroke:url(#gradient3); stroke-width:4.923; stroke-linecap:round"
        d="M23.54 33.65C22.48 37.27 18.43 40.22 14.49 40.22C10.56 40.22 8.22 37.27 9.27 33.65C10.33 30.02 14.38 27.07 18.32 27.07C22.26 27.07 24.59 30.02 23.54 33.65z"
        transform="matrix(0.7634,0,0,0.7183,0.5824,3.3796)"
  />
  <path style="fill:none; stroke:#eeeeec; stroke-width:1.4707; stroke-linecap:round"
        d="M23.54 33.65C22.48 37.28 18.43 40.22 14.49 40.22C10.55 40.22 8.22 37.28 9.27 33.65C10.33 30.02 14.38 27.07 18.32 27.07C22.26 27.07 24.59 30.02 23.54 33.65z"
        transform="matrix(0.7634,0,0,0.7183,0.5824,3.3796)"
  />
  <radialGradient id="gradient4" gradientUnits="userSpaceOnUse" cx="0" cy="0" r="64" gradientTransform="matrix(0.1088,0,0,0.1861,35.7925,55.5347)">
   <stop offset="0" stop-color="#d3d7cf"/>
   <stop offset="1" stop-color="#888a85"/>
  </radialGradient>
  <path style="fill:none; stroke:url(#gradient4); stroke-width:4.923; stroke-linecap:round"
        d="M23.54 23.8C22.48 27.43 18.43 30.37 14.49 30.37C10.56 30.37 8.22 27.43 9.27 23.8C10.33 20.17 14.38 17.23 18.32 17.23C22.26 17.23 24.59 20.17 23.54 23.8z"
        transform="matrix(0.7634,0,0,0.7183,0.5824,3.3796)"
  />
  <path style="fill:none; stroke:#eeeeec; stroke-width:1.4707; stroke-linecap:round"
        d="M23.54 23.8C22.48 27.43 18.43 30.37 14.49 30.37C10.55 30.37 8.22 27.43 9.27 23.8C10.33 20.17 14.38 17.23 18.32 17.23C22.26 17.23 24.59 20.17 23.54 23.8z"
        transform="matrix(0.7634,0,0,0.7183,0.5824,3.3796)"
  />
  <path style="fill:none; stroke:#02265c; stroke-width:10; stroke-linecap:round"
        d="M23.54 13.95C22.48 17.58 18.43 20.53 14.49 20.53C10.56 20.53 8.22 17.58 9.27 13.95C10.33 10.32 14.38 7.38 18.32 7.38C22.26 7.38 24.59 10.32 23.54 13.95z"
        transform="matrix(0.7634,0,0,0.7183,0.5824,3.3796)"
  />
  <path style="fill:none; stroke:#eeeeec; stroke-width:1.4707; stroke-linecap:round"
        d="M23.54 13.95C22.48 17.58 18.43 20.53 14.49 20.53C10.55 20.53 8.22 17.58 9.27 13.95C10.33 10.32 14.38 7.38 18.32 7.38C22.26 7.38 24.59 10.32 23.54 13.95z"
        transform="matrix(0.7634,0,0,0.7183,0.5824,3.3796)"
  />
  <path style="fill:#006499"
        d="M15.58 2.46H54.97V54.97H15.58V2.46z"
        transform="matrix(0.7634,0,0,0.7183,0.5824,3.3796)"
  />
  <path style="fill:none; stroke:#02265c; stroke-width:6; stroke-linecap:round; stroke-linejoin:round"
        d="M15.58 2.46H54.97V54.97H15.58V2.46z"
        transform="matrix(0.9138,0,0,0.7183,-1.1607,3.3796)"
  />
  <path style="fill:none; stroke:#ffffff; stroke-opacity:0.2; stroke-width:1.641; stroke-linecap:round"
        d="M19.56 4.15C18.24 4.15 17.28 5.15 17.28 6.51V64.05C17.28 65.41 18.24 66.41 19.56 66.41H60.89C62.21 66.41 63.17 65.41 63.17 64.05V6.51C63.17 5.15 62.21 4.15 60.89 4.15H19.56z"
        transform="matrix(0.7634,0,0,0.7183,0.5824,3.3796)"
  />
  <path style="fill:#d3d7cf"
        d="M19.69 6.56H61.01L62.35 7.7V42.66H19.69V6.56z"
        transform="matrix(0.7634,0,0,0.7183,0.5824,3.3796)"
  />
  <path style="fill:#cccccc"
        d="M19.69 6.56H61.79C63.52 8.25 60.99 9.87 58.51 9.84H17.43C19.89 9.84 21.35 7.37 19.69 6.56z"
        transform="matrix(0.7634,0,0,0.7183,0.5824,3.3796)"
  />
  <path style="fill:none; stroke:#02265c; stroke-width:8"
        d="M64.82 15.58H71.38V28.71H64.82V15.58z"
        transform="matrix(0.7634,0,0,0.7183,0.5824,3.3796)"
  />
  <path style="fill:#009900"
        d="M64.82 15.58H71.38V28.71H64.82V15.58z"
        transform="matrix(0.7634,0,0,0.7183,0.5824,3.3796)"
  />
  <path style="fill:none; stroke:#ffffff; stroke-opacity:0.2; stroke-width:1.641; stroke-linecap:round"
        d="M19.56 4.15C18.24 4.15 17.28 5.15 17.28 6.51V64.05C17.28 65.41 18.24 66.41 19.56 66.41H60.89C62.21 66.41 63.17 65.41 63.17 64.05V6.51C63.17 5.15 62.21 4.15 60.89 4.15H19.56z"
        transform="matrix(0.7634,0,0,0.7183,0.5824,3.3796)"
  />
  <path style="fill:none; stroke:#02265c; stroke-width:8"
        d="M61.53 32H72.04V45.12H61.53V32z"
        transform="matrix(0.7634,0,0,0.7183,0.5824,3.3796)"
  />
  <path style="fill:#ffcc00"
        d="M61.53 32H72.04V45.12H61.53V32z"
        transform="matrix(0.7634,0,0,0.7183,0.5824,3.3796)"
  />
  <path style="fill:none; stroke:#02265c; stroke-width:8"
        d="M63.17 48.41H73.68V61.53H63.17V48.41z"
        transform="matrix(0.7634,0,0,0.7183,0.5824,3.3796)"
  />
  <path style="fill:#990000"
        d="M63.17 48.41H73.68V61.53H63.17V48.41z"
        transform="matrix(0.7634,0,0,0.7183,0.5824,3.3796)"
  />
  <path style="fill:#000000; fill-opacity:0.247"
        d="M57.74 31.17H66.68V44.3H57.74V31.17z"
        transform="matrix(0.7634,0,0,0.7183,0.5824,3.3796)"
  />
  <path style="fill:#000000; fill-opacity:0.098"
        d="M57.74 47.58H66.68V62.03H57.74V47.58z"
        transform="matrix(0.7634,0,0,0.7183,0.5824,3.3796)"
  />
  <path style="fill:#000000; fill-opacity:0.1529"
        d="M57.43 14.76H66.62V27.89H57.43V14.76z"
        transform="matrix(0.7634,0,0,0.7183,0.5824,3.3796)"
  />
  <path style="fill:#006499"
        d="M18.01 10.66H62.4C64.65 10.66 66.46 12.47 66.46 14.72V70.6C66.46 72.85 64.65 74.66 62.4 74.66H18.01C15.76 74.66 13.94 72.85 13.94 70.6V14.72C13.94 12.47 15.76 10.66 18.01 10.66z"
        transform="matrix(0.7634,0,0,0.7183,0.5824,3.3796)"
  />
  <path style="fill:none; stroke:#02265c; stroke-width:8; stroke-linecap:round"
        d="M18.01 10.66H62.4C64.65 10.66 66.46 12.47 66.46 14.72V70.6C66.46 72.85 64.65 74.66 62.4 74.66H18.01C15.76 74.66 13.94 72.85 13.94 70.6V14.72C13.94 12.47 15.76 10.66 18.01 10.66z"
        transform="matrix(0.7634,0,0,0.7183,0.5824,3.3796)"
  />
  <linearGradient id="gradient5" gradientUnits="userSpaceOnUse" x1="66.3" y1="64.1" x2="92.96" y2="64.1">
   <stop offset="0" stop-color="#ffffff"/>
   <stop offset="1" stop-color="#ffffff" stop-opacity="0"/>
  </linearGradient>
  <path style="fill:none; stroke:url(#gradient5); stroke-width:1.641; stroke-linecap:round"
        d="M17.99 12.35C16.64 12.35 15.64 13.35 15.64 14.71V70.61C15.64 71.97 16.64 72.97 17.99 72.97H62.41C63.76 72.97 64.76 71.97 64.76 70.61V14.71C64.76 13.35 63.76 12.35 62.41 12.35H17.99z"
        transform="matrix(0.7634,0,0,0.7183,0.5824,3.3796)"
  />
  <path style="fill:none; stroke:#204a87; stroke-width:1.6414; stroke-linecap:round"
        d="M22.15 68.16C22.15 69.55 21.05 70.68 19.69 70.68C18.33 70.68 17.23 69.55 17.23 68.16C17.23 66.76 18.33 65.64 19.69 65.64C21.05 65.64 22.15 66.76 22.15 68.16z"
        transform="matrix(0.7634,0,0,0.7183,0.5824,3.3796)"
  />
  <path style="fill:none; stroke:#204a87; stroke-width:1.6414; stroke-linecap:round"
        d="M22.15 58.31C22.15 59.7 21.05 60.83 19.69 60.83C18.33 60.83 17.23 59.7 17.23 58.31C17.23 56.92 18.33 55.79 19.69 55.79C21.05 55.79 22.15 56.92 22.15 58.31z"
        transform="matrix(0.7634,0,0,0.7183,0.5824,3.3796)"
  />
  <path style="fill:none; stroke:#204a87; stroke-width:1.6414; stroke-linecap:round"
        d="M22.15 48.46C22.15 49.86 21.05 50.99 19.69 50.99C18.33 50.99 17.23 49.86 17.23 48.46C17.23 47.07 18.33 45.94 19.69 45.94C21.05 45.94 22.15 47.07 22.15 48.46z"
        transform="matrix(0.7634,0,0,0.7183,0.5824,3.3796)"
  />
  <path style="fill:none; stroke:#204a87; stroke-width:1.6414; stroke-linecap:round"
        d="M22.15 28.77C22.15 30.17 21.05 31.29 19.69 31.29C18.33 31.29 17.23 30.17 17.23 28.77C17.23 27.38 18.33 26.25 19.69 26.25C21.05 26.25 22.15 27.38 22.15 28.77z"
        transform="matrix(0.7634,0,0,0.7183,0.5824,3.3796)"
  />
  <path style="fill:none; stroke:#204a87; stroke-width:1.6414; stroke-linecap:round"
        d="M22.15 38.62C22.15 40.01 21.05 41.14 19.69 41.14C18.33 41.14 17.23 40.01 17.23 38.62C17.23 37.23 18.33 36.1 19.69 36.1C21.05 36.1 22.15 37.23 22.15 38.62z"
        transform="matrix(0.7634,0,0,0.7183,0.5824,3.3796)"
  />
  <path style="fill:none; stroke:#204a87; stroke-width:1.6414; stroke-linecap:round"
        d="M22.15 18.93C22.15 20.32 21.05 21.45 19.69 21.45C18.33 21.45 17.23 20.32 17.23 18.93C17.23 17.53 18.33 16.41 19.69 16.41C21.05 16.41 22.15 17.53 22.15 18.93z"
        transform="matrix(0.7634,0,0,0.7183,0.5824,3.3796)"
  />
  <path style="fill:none; stroke:#02265c; stroke-width:8; stroke-linecap:round"
        d="M9.28 63.17C8.22 66.8 10.57 69.74 14.51 69.74C16.01 69.74 17.51 69.29 18.87 68.56"
        transform="matrix(0.7634,0,0,0.7183,0.5824,3.3796)"
  />
  <path style="fill:none; stroke:#eeeeec; stroke-width:1.641; stroke-linecap:round"
        d="M11.23 59.89C10.33 60.86 9.63 61.97 9.28 63.17C8.22 66.8 10.57 69.74 14.51 69.74C16.01 69.74 17.51 69.29 18.87 68.56"
        transform="matrix(0.7634,0,0,0.7183,0.5824,3.3796)"
  />
  <path style="fill:#ffffff"
        d="M10.23 62.37C10.23 63.05 9.68 63.6 9 63.6C8.32 63.6 7.76 63.05 7.76 62.37C7.76 61.69 8.32 61.14 9 61.14C9.68 61.14 10.23 61.69 10.23 62.37z"
        transform="matrix(0.7634,0,0,0.7183,0.5824,3.3796)"
  />
  <path style="fill:#ffffff; fill-opacity:0.698"
        d="M19.8 67.95C19.8 68.63 19.25 69.19 18.57 69.19C17.89 69.19 17.34 68.63 17.34 67.95C17.34 67.27 17.89 66.72 18.57 66.72C19.25 66.72 19.8 67.27 19.8 67.95z"
        transform="matrix(0.7634,0,0,0.7183,0.5824,3.3796)"
  />
  <path style="fill:none; stroke:#02265c; stroke-width:8; stroke-linecap:round"
        d="M9.28 53.33C8.22 56.96 10.57 59.89 14.51 59.89C16.01 59.89 17.51 59.44 18.87 58.71"
        transform="matrix(0.7634,0,0,0.7183,0.5824,3.3796)"
  />
  <path style="fill:none; stroke:#eeeeec; stroke-width:1.641; stroke-linecap:round"
        d="M11.23 50.05C10.33 51.02 9.63 52.12 9.28 53.33C8.22 56.96 10.57 59.89 14.51 59.89C16.01 59.89 17.51 59.44 18.87 58.71"
        transform="matrix(0.7634,0,0,0.7183,0.5824,3.3796)"
  />
  <path style="fill:#ffffff"
        d="M10.23 52.52C10.23 53.2 9.68 53.76 9 53.76C8.32 53.76 7.76 53.2 7.76 52.52C7.76 51.84 8.32 51.29 9 51.29C9.68 51.29 10.23 51.84 10.23 52.52z"
        transform="matrix(0.7634,0,0,0.7183,0.5824,3.3796)"
  />
  <path style="fill:#ffffff; fill-opacity:0.698"
        d="M19.8 58.11C19.8 58.79 19.25 59.34 18.57 59.34C17.89 59.34 17.34 58.79 17.34 58.11C17.34 57.43 17.89 56.88 18.57 56.88C19.25 56.88 19.8 57.43 19.8 58.11z"
        transform="matrix(0.7634,0,0,0.7183,0.5824,3.3796)"
  />
  <path style="fill:none; stroke:#02265c; stroke-width:8; stroke-linecap:round"
        d="M9.28 43.48C8.22 47.11 10.57 50.05 14.51 50.05C16.01 50.05 17.51 49.59 18.87 48.87"
        transform="matrix(0.7634,0,0,0.7183,0.5824,3.3796)"
  />
  <path style="fill:none; stroke:#eeeeec; stroke-width:1.641; stroke-linecap:round"
        d="M11.23 40.2C10.33 41.17 9.63 42.28 9.28 43.48C8.22 47.11 10.57 50.05 14.51 50.05C16.01 50.05 17.51 49.59 18.87 48.87"
        transform="matrix(0.7634,0,0,0.7183,0.5824,3.3796)"
  />
  <path style="fill:#ffffff"
        d="M10.23 42.68C10.23 43.36 9.68 43.91 9 43.91C8.32 43.91 7.76 43.36 7.76 42.68C7.76 42 8.32 41.45 9 41.45C9.68 41.45 10.23 42 10.23 42.68z"
        transform="matrix(0.7634,0,0,0.7183,0.5824,3.3796)"
  />
  <path style="fill:#ffffff; fill-opacity:0.698"
        d="M19.8 48.26C19.8 48.94 19.25 49.49 18.57 49.49C17.89 49.49 17.34 48.94 17.34 48.26C17.34 47.58 17.89 47.03 18.57 47.03C19.25 47.03 19.8 47.58 19.8 48.26z"
        transform="matrix(0.7634,0,0,0.7183,0.5824,3.3796)"
  />
  <path style="fill:none; stroke:#02265c; stroke-width:8; stroke-linecap:round"
        d="M9.28 33.64C8.22 37.26 10.57 40.2 14.51 40.2C16.01 40.2 17.51 39.75 18.87 39.02"
        transform="matrix(0.7634,0,0,0.7183,0.5824,3.3796)"
  />
  <path style="fill:none; stroke:#eeeeec; stroke-width:1.641; stroke-linecap:round"
        d="M11.23 30.35C10.33 31.33 9.63 32.43 9.28 33.64C8.22 37.26 10.57 40.2 14.51 40.2C16.01 40.2 17.51 39.75 18.87 39.02"
        transform="matrix(0.7634,0,0,0.7183,0.5824,3.3796)"
  />
  <path style="fill:#ffffff"
        d="M10.23 32.83C10.23 33.51 9.68 34.06 9 34.06C8.32 34.06 7.76 33.51 7.76 32.83C7.76 32.15 8.32 31.6 9 31.6C9.68 31.6 10.23 32.15 10.23 32.83z"
        transform="matrix(0.7634,0,0,0.7183,0.5824,3.3796)"
  />
  <path style="fill:#ffffff; fill-opacity:0.698"
        d="M19.8 38.42C19.8 39.1 19.25 39.65 18.57 39.65C17.89 39.65 17.34 39.1 17.34 38.42C17.34 37.74 17.89 37.19 18.57 37.19C19.25 37.19 19.8 37.74 19.8 38.42z"
        transform="matrix(0.7634,0,0,0.7183,0.5824,3.3796)"
  />
  <path style="fill:none; stroke:#02265c; stroke-width:8; stroke-linecap:round"
        d="M9.28 23.79C8.22 27.42 10.57 30.35 14.51 30.35C16.01 30.35 17.51 29.9 18.87 29.17"
        transform="matrix(0.7634,0,0,0.7183,0.5824,3.3796)"
  />
  <path style="fill:none; stroke:#eeeeec; stroke-width:1.641; stroke-linecap:round"
        d="M11.23 20.51C10.33 21.48 9.63 22.58 9.28 23.79C8.22 27.42 10.57 30.35 14.51 30.35C16.01 30.35 17.51 29.9 18.87 29.17"
        transform="matrix(0.7634,0,0,0.7183,0.5824,3.3796)"
  />
  <path style="fill:#ffffff"
        d="M10.23 22.99C10.23 23.67 9.68 24.22 9 24.22C8.32 24.22 7.76 23.67 7.76 22.99C7.76 22.31 8.32 21.76 9 21.76C9.68 21.76 10.23 22.31 10.23 22.99z"
        transform="matrix(0.7634,0,0,0.7183,0.5824,3.3796)"
  />
  <path style="fill:#ffffff; fill-opacity:0.698"
        d="M19.8 28.57C19.8 29.25 19.25 29.8 18.57 29.8C17.89 29.8 17.34 29.25 17.34 28.57C17.34 27.89 17.89 27.34 18.57 27.34C19.25 27.34 19.8 27.89 19.8 28.57z"
        transform="matrix(0.7634,0,0,0.7183,0.5824,3.3796)"
  />
  <path style="fill:#ffffff"
        d="M39.17 40.26C39.17 41.83 39.49 43.07 40.14 43.98C40.79 44.89 41.68 45.34 42.79 45.34C43.89 45.34 44.77 44.89 45.43 43.98C46.08 43.06 46.41 41.82 46.41 40.26C46.41 38.71 46.08 37.49 45.41 36.59C44.75 35.68 43.87 35.23 42.75 35.23C41.67 35.23 40.79 35.68 40.14 36.59C39.49 37.49 39.17 38.71 39.17 40.26
           M46.78 46.03C46.41 46.94 45.81 47.65 44.98 48.16C44.17 48.66 43.21 48.91 42.1 48.91C39.98 48.91 38.24 48.12 36.91 46.53C35.58 44.93 34.92 42.85 34.92 40.3C34.92 37.74 35.59 35.66 36.93 34.06C38.26 32.46 39.99 31.66 42.1 31.66C43.21 31.66 44.17 31.92 44.98 32.43C45.81 32.94 46.41 33.65 46.78 34.56V32.05H50.66V45.34C52.2 45.1 53.4 44.34 54.28 43.06C55.16 41.77 55.6 40.12 55.6 38.11C55.6 36.83 55.42 35.63 55.06 34.52C54.7 33.39 54.16 32.37 53.43 31.43C52.25 29.87 50.78 28.67 49.01 27.82C47.25 26.98 45.35 26.56 43.29 26.56C41.86 26.56 40.48 26.76 39.17 27.15C37.86 27.54 36.65 28.11 35.53 28.86C33.7 30.11 32.27 31.74 31.25 33.73C30.23 35.72 29.72 37.87 29.72 40.18C29.72 42.09 30.05 43.88 30.71 45.55C31.37 47.22 32.33 48.69 33.58 49.97C34.82 51.22 36.24 52.17 37.84 52.83C39.44 53.49 41.16 53.82 42.98 53.82C44.54 53.82 46.1 53.52 47.66 52.92C49.21 52.32 50.55 51.51 51.65 50.48L53.63 53.59C52.09 54.83 50.4 55.78 48.56 56.43C46.75 57.1 44.9 57.43 43.01 57.43C40.72 57.43 38.57 57.01 36.54 56.16C34.51 55.33 32.7 54.12 31.12 52.52C29.53 50.92 28.32 49.07 27.5 46.97C26.67 44.86 26.25 42.6 26.25 40.18C26.25 37.85 26.67 35.63 27.51 33.52C28.36 31.41 29.56 29.56 31.12 27.96C32.67 26.37 34.49 25.14 36.55 24.27C38.63 23.4 40.79 22.97 43.01 22.97C45.79 22.97 48.31 23.52 50.57 24.62C52.83 25.71 54.73 27.28 56.25 29.34C57.18 30.59 57.88 31.96 58.35 33.43C58.83 34.89 59.07 36.42 59.07 38.03C59.07 41.5 58.06 44.19 56.05 46.11C54.03 48.03 51.18 48.99 47.51 48.99H46.78V46.03"
        transform="matrix(0.7634,0,0,0.7183,0.5824,3.3796)"
  />
  <path style="fill:none; stroke:#02265c; stroke-width:8; stroke-linecap:round"
        d="M9.28 13.94C8.22 17.57 10.57 20.51 14.51 20.51C16.01 20.51 17.51 20.06 18.87 19.33"
        transform="matrix(0.7634,0,0,0.7183,0.5824,3.3796)"
  />
  <path style="fill:none; stroke:#eeeeec; stroke-width:1.641; stroke-linecap:round"
        d="M11.23 10.66C10.33 11.63 9.63 12.74 9.28 13.94C8.22 17.57 10.57 20.51 14.51 20.51C16.01 20.51 17.51 20.06 18.87 19.33"
        transform="matrix(0.7634,0,0,0.7183,0.5824,3.3796)"
  />
  <path style="fill:#ffffff"
        d="M10.23 13.14C10.23 13.82 9.68 14.37 9 14.37C8.32 14.37 7.76 13.82 7.76 13.14C7.76 12.46 8.32 11.91 9 11.91C9.68 11.91 10.23 12.46 10.23 13.14z"
        transform="matrix(0.7634,0,0,0.7183,0.5824,3.3796)"
  />
  <path style="fill:#ffffff; fill-opacity:0.698"
        d="M19.8 18.72C19.8 19.4 19.25 19.95 18.57 19.95C17.89 19.95 17.34 19.4 17.34 18.72C17.34 18.04 17.89 17.49 18.57 17.49C19.25 17.49 19.8 18.04 19.8 18.72z"
        transform="matrix(0.7634,0,0,0.7183,0.5824,3.3796)"
  />
 </g>
</svg>
