<?xml version="1.0" encoding="UTF-8" standalone="yes"?>
<svg version="1.1" width="64" height="64" color-interpolation="linearRGB"
     xmlns:svg="http://www.w3.org/2000/svg" xmlns="http://www.w3.org/2000/svg">
 <g>
  <path style="fill:#000000; fill-opacity:0.5176"
        d="M16 62H50C50 62 53.5 61.5 55 60C56.5 58.5 56 56 56 56V53H62V37H60V13H55C55 13 54.84 11.4 54 10C53.38 8.96 52 8 52 8V5L10 6L11 53C11 53 10.08 56.96 12 60C13.91 63.03 16 62 16 62z"
  />
  <radialGradient id="gradient0" gradientUnits="userSpaceOnUse" cx="0" cy="0" r="64" gradientTransform="matrix(0.083,0,0,0.1336,27.9063,117.9847)">
   <stop offset="0" stop-color="#d3d7cf"/>
   <stop offset="1" stop-color="#888a85"/>
  </radialGradient>
  <path style="fill:none; stroke:url(#gradient0); stroke-width:3.6488; stroke-linecap:round"
        d="M18.55 48.76C17.74 51.36 14.65 53.48 11.64 53.48C8.64 53.48 6.85 51.36 7.65 48.76C8.46 46.16 11.56 44.04 14.56 44.04C17.57 44.04 19.35 46.16 18.55 48.76z"
  />
  <path style="fill:none; stroke:#eeeeec; stroke-width:1.09; stroke-linecap:round"
        d="M18.55 48.76C17.74 51.37 14.65 53.48 11.64 53.48C8.63 53.48 6.85 51.37 7.65 48.76C8.46 46.15 11.56 44.04 14.56 44.04C17.57 44.04 19.35 46.15 18.55 48.76z"
  />
  <radialGradient id="gradient1" gradientUnits="userSpaceOnUse" cx="0" cy="0" r="64" gradientTransform="matrix(0.083,0,0,0.1336,27.9063,99.306)">
   <stop offset="0" stop-color="#d3d7cf"/>
   <stop offset="1" stop-color="#888a85"/>
  </radialGradient>
  <path style="fill:none; stroke:url(#gradient1); stroke-width:3.6488; stroke-linecap:round"
        d="M18.55 41.69C17.74 44.3 14.65 46.41 11.64 46.41C8.64 46.41 6.85 44.3 7.65 41.69C8.46 39.08 11.56 36.96 14.56 36.96C17.57 36.96 19.35 39.08 18.55 41.69z"
  />
  <path style="fill:none; stroke:#eeeeec; stroke-width:1.09; stroke-linecap:round"
        d="M18.55 41.69C17.74 44.3 14.65 46.41 11.64 46.41C8.63 46.41 6.85 44.3 7.65 41.69C8.46 39.08 11.56 36.96 14.56 36.96C17.57 36.96 19.35 39.08 18.55 41.69z"
  />
  <radialGradient id="gradient2" gradientUnits="userSpaceOnUse" cx="0" cy="0" r="64" gradientTransform="matrix(0.083,0,0,0.1336,27.9063,80.6274)">
   <stop offset="0" stop-color="#d3d7cf"/>
   <stop offset="1" stop-color="#888a85"/>
  </radialGradient>
  <path style="fill:none; stroke:url(#gradient2); stroke-width:3.6488; stroke-linecap:round"
        d="M18.55 34.61C17.74 37.22 14.65 39.34 11.64 39.34C8.64 39.34 6.85 37.22 7.65 34.61C8.46 32.01 11.56 29.89 14.56 29.89C17.57 29.89 19.35 32.01 18.55 34.61z"
  />
  <path style="fill:none; stroke:#eeeeec; stroke-width:1.09; stroke-linecap:round"
        d="M18.55 34.61C17.74 37.22 14.65 39.34 11.64 39.34C8.63 39.34 6.85 37.22 7.65 34.61C8.46 32.01 11.56 29.89 14.56 29.89C17.57 29.89 19.35 32.01 18.55 34.61z"
  />
  <radialGradient id="gradient3" gradientUnits="userSpaceOnUse" cx="0" cy="0" r="64" gradientTransform="matrix(0.083,0,0,0.1336,27.9063,61.9487)">
   <stop offset="0" stop-color="#d3d7cf"/>
   <stop offset="1" stop-color="#888a85"/>
  </radialGradient>
  <path style="fill:none; stroke:url(#gradient3); stroke-width:3.6488; stroke-linecap:round"
        d="M18.55 27.55C17.74 30.15 14.65 32.26 11.64 32.26C8.64 32.26 6.85 30.15 7.65 27.55C8.46 24.94 11.56 22.82 14.56 22.82C17.57 22.82 19.35 24.94 18.55 27.55z"
  />
  <path style="fill:none; stroke:#eeeeec; stroke-width:1.09; stroke-linecap:round"
        d="M18.55 27.55C17.74 30.15 14.65 32.26 11.64 32.26C8.63 32.26 6.85 30.15 7.65 27.55C8.46 24.94 11.56 22.82 14.56 22.82C17.57 22.82 19.35 24.94 18.55 27.55z"
  />
  <radialGradient id="gradient4" gradientUnits="userSpaceOnUse" cx="0" cy="0" r="64" gradientTransform="matrix(0.083,0,0,0.1336,27.9063,43.2701)">
   <stop offset="0" stop-color="#d3d7cf"/>
   <stop offset="1" stop-color="#888a85"/>
  </radialGradient>
  <path style="fill:none; stroke:url(#gradient4); stroke-width:3.6488; stroke-linecap:round"
        d="M18.55 20.47C17.74 23.08 14.65 25.19 11.64 25.19C8.64 25.19 6.85 23.08 7.65 20.47C8.46 17.86 11.56 15.75 14.56 15.75C17.57 15.75 19.35 17.86 18.55 20.47z"
  />
  <path style="fill:none; stroke:#eeeeec; stroke-width:1.09; stroke-linecap:round"
        d="M18.55 20.47C17.74 23.08 14.65 25.19 11.64 25.19C8.63 25.19 6.85 23.08 7.65 20.47C8.46 17.86 11.56 15.75 14.56 15.75C17.57 15.75 19.35 17.86 18.55 20.47z"
  />
  <path style="fill:none; stroke:#02265c; stroke-width:7.4119; stroke-linecap:round"
        d="M18.55 13.39C17.74 16 14.65 18.12 11.64 18.12C8.64 18.12 6.85 16 7.65 13.39C8.46 10.79 11.56 8.68 14.56 8.68C17.57 8.68 19.35 10.79 18.55 13.39z"
  />
  <path style="fill:none; stroke:#eeeeec; stroke-width:1.09; stroke-linecap:round"
        d="M18.55 13.39C17.74 16 14.65 18.12 11.64 18.12C8.63 18.12 6.85 16 7.65 13.39C8.46 10.79 11.56 8.68 14.56 8.68C17.57 8.68 19.35 10.79 18.55 13.39z"
  />
  <path style="fill:#006499"
        d="M12.47 5.14H42.54V42.86H12.47V5.14z"
  />
  <path style="fill:none; stroke:#02265c; stroke-width:4.9313; stroke-linecap:round; stroke-linejoin:round"
        d="M13.07 5.14H49.07V42.86H13.07V5.14z"
  />
  <path style="fill:none; stroke:#ffffff; stroke-opacity:0.2; stroke-width:1.2162; stroke-linecap:round"
        d="M15.51 6.36C14.5 6.36 13.77 7.07 13.77 8.05V49.38C13.77 50.36 14.5 51.08 15.51 51.08H47.06C48.07 51.08 48.8 50.36 48.8 49.38V8.05C48.8 7.07 48.07 6.36 47.06 6.36H15.51z"
  />
  <path style="fill:#d3d7cf"
        d="M15.61 8.09H47.15L48.18 8.91V34.02H15.61V8.09z"
  />
  <path style="fill:#cccccc"
        d="M15.61 8.09H47.75C49.07 9.3 47.14 10.46 45.24 10.44H13.88C15.76 10.44 16.88 8.67 15.61 8.09z"
  />
  <path style="fill:none; stroke:#02265c; stroke-width:5.9295"
        d="M50.06 14.57H55.07V24H50.06V14.57z"
  />
  <path style="fill:#009900"
        d="M50.06 14.57H55.07V24H50.06V14.57z"
  />
  <path style="fill:none; stroke:#ffffff; stroke-opacity:0.2; stroke-width:1.2162; stroke-linecap:round"
        d="M15.51 6.36C14.5 6.36 13.77 7.07 13.77 8.05V49.38C13.77 50.36 14.5 51.08 15.51 51.08H47.06C48.07 51.08 48.8 50.36 48.8 49.38V8.05C48.8 7.07 48.07 6.36 47.06 6.36H15.51z"
  />
  <path style="fill:none; stroke:#02265c; stroke-width:5.9295"
        d="M47.55 26.36H55.57V35.78H47.55V26.36z"
  />
  <path style="fill:#ffcc00"
        d="M47.55 26.36H55.57V35.78H47.55V26.36z"
  />
  <path style="fill:none; stroke:#02265c; stroke-width:5.9295"
        d="M48.8 38.15H56.82V47.57H48.8V38.15z"
  />
  <path style="fill:#990000"
        d="M48.8 38.15H56.82V47.57H48.8V38.15z"
  />
  <path style="fill:#000000; fill-opacity:0.247"
        d="M44.66 25.76H51.48V35.2H44.66V25.76z"
  />
  <path style="fill:#000000; fill-opacity:0.098"
        d="M44.66 37.55H51.48V47.93H44.66V37.55z"
  />
  <path style="fill:#000000; fill-opacity:0.1529"
        d="M44.42 13.98H51.44V23.41H44.42V13.98z"
  />
  <path style="fill:#006499"
        d="M14.33 11.03H48.21C49.93 11.03 51.31 12.33 51.31 13.95V54.09C51.31 55.7 49.93 57 48.21 57H14.33C12.61 57 11.22 55.7 11.22 54.09V13.95C11.22 12.33 12.61 11.03 14.33 11.03z"
  />
  <path style="fill:none; stroke:#02265c; stroke-width:5.9295; stroke-linecap:round"
        d="M14.33 11.03H48.21C49.93 11.03 51.31 12.33 51.31 13.95V54.09C51.31 55.7 49.93 57 48.21 57H14.33C12.61 57 11.22 55.7 11.22 54.09V13.95C11.22 12.33 12.61 11.03 14.33 11.03z"
  />
  <linearGradient id="gradient5" gradientUnits="userSpaceOnUse" x1="51.19" y1="49.42" x2="71.54" y2="49.42">
   <stop offset="0" stop-color="#ffffff"/>
   <stop offset="1" stop-color="#ffffff" stop-opacity="0"/>
  </linearGradient>
  <path style="fill:none; stroke:url(#gradient5); stroke-width:1.2162; stroke-linecap:round"
        d="M14.31 12.25C13.28 12.25 12.52 12.96 12.52 13.94V54.09C12.52 55.07 13.28 55.79 14.31 55.79H48.22C49.25 55.79 50.02 55.07 50.02 54.09V13.94C50.02 12.96 49.25 12.25 48.22 12.25H14.31z"
  />
  <path style="fill:none; stroke:#204a87; stroke-width:1.2165; stroke-linecap:round"
        d="M17.49 52.33C17.49 53.33 16.65 54.14 15.61 54.14C14.57 54.14 13.73 53.33 13.73 52.33C13.73 51.33 14.57 50.52 15.61 50.52C16.65 50.52 17.49 51.33 17.49 52.33z"
  />
  <path style="fill:none; stroke:#204a87; stroke-width:1.2165; stroke-linecap:round"
        d="M17.49 45.26C17.49 46.26 16.65 47.07 15.61 47.07C14.57 47.07 13.73 46.26 13.73 45.26C13.73 44.26 14.57 43.45 15.61 43.45C16.65 43.45 17.49 44.26 17.49 45.26z"
  />
  <path style="fill:none; stroke:#204a87; stroke-width:1.2165; stroke-linecap:round"
        d="M17.49 38.18C17.49 39.19 16.65 40 15.61 40C14.57 40 13.73 39.19 13.73 38.18C13.73 37.18 14.57 36.37 15.61 36.37C16.65 36.37 17.49 37.18 17.49 38.18z"
  />
  <path style="fill:none; stroke:#204a87; stroke-width:1.2165; stroke-linecap:round"
        d="M17.49 24.04C17.49 25.05 16.65 25.85 15.61 25.85C14.57 25.85 13.73 25.05 13.73 24.04C13.73 23.04 14.57 22.23 15.61 22.23C16.65 22.23 17.49 23.04 17.49 24.04z"
  />
  <path style="fill:none; stroke:#204a87; stroke-width:1.2165; stroke-linecap:round"
        d="M17.49 31.12C17.49 32.11 16.65 32.93 15.61 32.93C14.57 32.93 13.73 32.11 13.73 31.12C13.73 30.12 14.57 29.31 15.61 29.31C16.65 29.31 17.49 30.12 17.49 31.12z"
  />
  <path style="fill:none; stroke:#204a87; stroke-width:1.2165; stroke-linecap:round"
        d="M17.49 16.97C17.49 17.97 16.65 18.78 15.61 18.78C14.57 18.78 13.73 17.97 13.73 16.97C13.73 15.97 14.57 15.16 15.61 15.16C16.65 15.16 17.49 15.97 17.49 16.97z"
  />
  <path style="fill:none; stroke:#02265c; stroke-width:5.9295; stroke-linecap:round"
        d="M7.66 48.75C6.85 51.36 8.65 53.47 11.65 53.47C12.8 53.47 13.94 53.15 14.98 52.62"
  />
  <path style="fill:none; stroke:#eeeeec; stroke-width:1.2162; stroke-linecap:round"
        d="M9.15 46.39C8.46 47.09 7.93 47.89 7.66 48.75C6.85 51.36 8.65 53.47 11.65 53.47C12.8 53.47 13.94 53.15 14.98 52.62"
  />
  <path style="fill:#ffffff"
        d="M8.39 48.17C8.39 48.66 7.97 49.06 7.45 49.06C6.93 49.06 6.5 48.66 6.5 48.17C6.5 47.69 6.93 47.29 7.45 47.29C7.97 47.29 8.39 47.69 8.39 48.17z"
  />
  <path style="fill:#ffffff; fill-opacity:0.698"
        d="M15.69 52.18C15.69 52.67 15.27 53.07 14.75 53.07C14.23 53.07 13.81 52.67 13.81 52.18C13.81 51.69 14.23 51.3 14.75 51.3C15.27 51.3 15.69 51.69 15.69 52.18z"
  />
  <path style="fill:none; stroke:#02265c; stroke-width:5.9295; stroke-linecap:round"
        d="M7.66 41.68C6.85 44.29 8.65 46.39 11.65 46.39C12.8 46.39 13.94 46.07 14.98 45.55"
  />
  <path style="fill:none; stroke:#eeeeec; stroke-width:1.2162; stroke-linecap:round"
        d="M9.15 39.33C8.46 40.02 7.93 40.81 7.66 41.68C6.85 44.29 8.65 46.39 11.65 46.39C12.8 46.39 13.94 46.07 14.98 45.55"
  />
  <path style="fill:#ffffff"
        d="M8.39 41.1C8.39 41.59 7.97 41.99 7.45 41.99C6.93 41.99 6.5 41.59 6.5 41.1C6.5 40.61 6.93 40.22 7.45 40.22C7.97 40.22 8.39 40.61 8.39 41.1z"
  />
  <path style="fill:#ffffff; fill-opacity:0.698"
        d="M15.69 45.12C15.69 45.6 15.27 46 14.75 46C14.23 46 13.81 45.6 13.81 45.12C13.81 44.63 14.23 44.23 14.75 44.23C15.27 44.23 15.69 44.63 15.69 45.12z"
  />
  <path style="fill:none; stroke:#02265c; stroke-width:5.9295; stroke-linecap:round"
        d="M7.66 34.61C6.85 37.21 8.65 39.33 11.65 39.33C12.8 39.33 13.94 39 14.98 38.48"
  />
  <path style="fill:none; stroke:#eeeeec; stroke-width:1.2162; stroke-linecap:round"
        d="M9.15 32.25C8.46 32.95 7.93 33.74 7.66 34.61C6.85 37.21 8.65 39.33 11.65 39.33C12.8 39.33 13.94 39 14.98 38.48"
  />
  <path style="fill:#ffffff"
        d="M8.39 34.03C8.39 34.52 7.97 34.92 7.45 34.92C6.93 34.92 6.5 34.52 6.5 34.03C6.5 33.54 6.93 33.15 7.45 33.15C7.97 33.15 8.39 33.54 8.39 34.03z"
  />
  <path style="fill:#ffffff; fill-opacity:0.698"
        d="M15.69 38.04C15.69 38.53 15.27 38.92 14.75 38.92C14.23 38.92 13.81 38.53 13.81 38.04C13.81 37.55 14.23 37.16 14.75 37.16C15.27 37.16 15.69 37.55 15.69 38.04z"
  />
  <path style="fill:none; stroke:#02265c; stroke-width:5.9295; stroke-linecap:round"
        d="M7.66 27.54C6.85 30.14 8.65 32.25 11.65 32.25C12.8 32.25 13.94 31.93 14.98 31.4"
  />
  <path style="fill:none; stroke:#eeeeec; stroke-width:1.2162; stroke-linecap:round"
        d="M9.15 25.18C8.46 25.88 7.93 26.67 7.66 27.54C6.85 30.14 8.65 32.25 11.65 32.25C12.8 32.25 13.94 31.93 14.98 31.4"
  />
  <path style="fill:#ffffff"
        d="M8.39 26.96C8.39 27.44 7.97 27.84 7.45 27.84C6.93 27.84 6.5 27.44 6.5 26.96C6.5 26.47 6.93 26.07 7.45 26.07C7.97 26.07 8.39 26.47 8.39 26.96z"
  />
  <path style="fill:#ffffff; fill-opacity:0.698"
        d="M15.69 30.97C15.69 31.46 15.27 31.86 14.75 31.86C14.23 31.86 13.81 31.46 13.81 30.97C13.81 30.48 14.23 30.09 14.75 30.09C15.27 30.09 15.69 30.48 15.69 30.97z"
  />
  <path style="fill:none; stroke:#02265c; stroke-width:5.9295; stroke-linecap:round"
        d="M7.66 20.46C6.85 23.07 8.65 25.18 11.65 25.18C12.8 25.18 13.94 24.85 14.98 24.33"
  />
  <path style="fill:none; stroke:#eeeeec; stroke-width:1.2162; stroke-linecap:round"
        d="M9.15 18.11C8.46 18.8 7.93 19.59 7.66 20.46C6.85 23.07 8.65 25.18 11.65 25.18C12.8 25.18 13.94 24.85 14.98 24.33"
  />
  <path style="fill:#ffffff"
        d="M8.39 19.89C8.39 20.38 7.97 20.77 7.45 20.77C6.93 20.77 6.5 20.38 6.5 19.89C6.5 19.4 6.93 19 7.45 19C7.97 19 8.39 19.4 8.39 19.89z"
  />
  <path style="fill:#ffffff; fill-opacity:0.698"
        d="M15.69 23.9C15.69 24.38 15.27 24.78 14.75 24.78C14.23 24.78 13.81 24.38 13.81 23.9C13.81 23.41 14.23 23.01 14.75 23.01C15.27 23.01 15.69 23.41 15.69 23.9z"
  />
  <path style="fill:#ffffff"
        d="M30.48 32.29C30.48 33.42 30.72 34.31 31.22 34.97C31.72 35.62 32.4 35.94 33.24 35.94C34.08 35.94 34.75 35.62 35.26 34.97C35.75 34.3 36.01 33.41 36.01 32.29C36.01 31.18 35.75 30.3 35.24 29.66C34.74 29 34.07 28.68 33.21 28.68C32.39 28.68 31.72 29 31.22 29.66C30.72 30.3 30.48 31.18 30.48 32.29
           M36.29 36.44C36.01 37.09 35.55 37.6 34.92 37.97C34.3 38.33 33.56 38.51 32.72 38.51C31.1 38.51 29.77 37.94 28.75 36.8C27.74 35.65 27.24 34.15 27.24 32.32C27.24 30.48 27.75 28.99 28.77 27.84C29.79 26.69 31.11 26.12 32.72 26.12C33.56 26.12 34.3 26.3 34.92 26.67C35.55 27.04 36.01 27.55 36.29 28.2V26.4H39.25V35.94C40.43 35.77 41.34 35.22 42.01 34.3C42.69 33.38 43.02 32.19 43.02 30.75C43.02 29.83 42.89 28.97 42.61 28.17C42.34 27.36 41.92 26.63 41.37 25.95C40.47 24.83 39.34 23.97 37.99 23.36C36.65 22.75 35.2 22.45 33.62 22.45C32.53 22.45 31.48 22.6 30.48 22.88C29.48 23.16 28.56 23.57 27.7 24.1C26.3 25 25.21 26.17 24.43 27.6C23.65 29.03 23.27 30.58 23.27 32.24C23.27 33.61 23.52 34.89 24.02 36.09C24.53 37.29 25.26 38.35 26.21 39.27C27.16 40.17 28.24 40.85 29.46 41.32C30.69 41.8 32 42.03 33.39 42.03C34.58 42.03 35.77 41.82 36.96 41.39C38.14 40.96 39.17 40.37 40.01 39.63L41.52 41.87C40.34 42.76 39.05 43.44 37.65 43.91C36.27 44.39 34.85 44.63 33.41 44.63C31.66 44.63 30.02 44.32 28.47 43.71C26.92 43.12 25.54 42.25 24.33 41.1C23.12 39.95 22.2 38.62 21.57 37.11C20.94 35.6 20.62 33.97 20.62 32.24C20.62 30.56 20.94 28.97 21.58 27.45C22.23 25.94 23.14 24.61 24.33 23.46C25.52 22.32 26.91 21.43 28.48 20.81C30.07 20.18 31.72 19.87 33.41 19.87C35.53 19.87 37.46 20.27 39.18 21.06C40.91 21.84 42.36 22.97 43.52 24.45C44.23 25.35 44.76 26.33 45.12 27.39C45.49 28.44 45.67 29.54 45.67 30.69C45.67 33.18 44.9 35.12 43.37 36.5C41.82 37.87 39.65 38.56 36.85 38.56H36.29V36.44"
  />
  <path style="fill:none; stroke:#02265c; stroke-width:5.9295; stroke-linecap:round"
        d="M7.66 13.39C6.85 16 8.65 18.11 11.65 18.11C12.8 18.11 13.94 17.78 14.98 17.26"
  />
  <path style="fill:none; stroke:#eeeeec; stroke-width:1.2162; stroke-linecap:round"
        d="M9.15 11.03C8.46 11.73 7.93 12.53 7.66 13.39C6.85 16 8.65 18.11 11.65 18.11C12.8 18.11 13.94 17.78 14.98 17.26"
  />
  <path style="fill:#ffffff"
        d="M8.39 12.81C8.39 13.3 7.97 13.7 7.45 13.7C6.93 13.7 6.5 13.3 6.5 12.81C6.5 12.32 6.93 11.93 7.45 11.93C7.97 11.93 8.39 12.32 8.39 12.81z"
  />
  <path style="fill:#ffffff; fill-opacity:0.698"
        d="M15.69 16.82C15.69 17.31 15.27 17.7 14.75 17.7C14.23 17.7 13.81 17.31 13.81 16.82C13.81 16.33 14.23 15.94 14.75 15.94C15.27 15.94 15.69 16.33 15.69 16.82z"
  />
 </g>
</svg>
