<?xml version="1.0" encoding="UTF-8" standalone="yes"?>
<svg version="1.1" width="64" height="64" color-interpolation="linearRGB"
     xmlns:svg="http://www.w3.org/2000/svg" xmlns="http://www.w3.org/2000/svg">
 <g>
  <path style="fill:none; stroke:#000000; stroke-opacity:0.4; stroke-width:9.9145; stroke-linecap:round; stroke-linejoin:round"
        d="M57 15H8"
        transform="matrix(1,0,0,1,0,-2)"
  />
  <path style="fill:none; stroke:#464646; stroke-width:9.9145; stroke-linecap:round; stroke-linejoin:round"
        d="M56 14H8"
        transform="matrix(1,0,0,1,0,-2)"
  />
  <linearGradient id="gradient0" gradientUnits="userSpaceOnUse" x1="61.14" y1="-4.65" x2="61.14" y2="37.09">
   <stop offset="0" stop-color="#cccccc"/>
   <stop offset="1" stop-color="#919191"/>
  </linearGradient>
  <path style="fill:none; stroke:url(#gradient0); stroke-width:4.9572; stroke-linecap:round"
        d="M56 14H8"
        transform="matrix(1,0,0,1,0,-2)"
  />
  <path style="fill:#005900"
        d="M32 16C23.16 16 16 23.16 16 32C16 40.83 23.16 48 32 48C40.83 48 48 40.83 48 32C48 23.16 40.83 16 32 16z"
        transform="matrix(0.4999,0,0,0.5,21,-4)"
  />
  <linearGradient id="gradient1" gradientUnits="userSpaceOnUse" x1="61.04" y1="-6.63" x2="61.04" y2="35.1">
   <stop offset="0" stop-color="#80ff80"/>
   <stop offset="1" stop-color="#00b200"/>
  </linearGradient>
  <path style="fill:url(#gradient1)"
        d="M32 16C23.16 16 16 23.16 16 32C16 40.83 23.16 48 32 48C40.83 48 48 40.83 48 32C48 23.16 40.83 16 32 16z"
        transform="matrix(0.3125,0,0,0.3125,27,2)"
  />
  <path style="fill:none; stroke:#000000; stroke-opacity:0.4; stroke-width:9.9145; stroke-linecap:round; stroke-linejoin:round"
        d="M57 15H8"
        transform="matrix(1,0,0,1,0,18)"
  />
  <path style="fill:none; stroke:#464646; stroke-width:9.9145; stroke-linecap:round; stroke-linejoin:round"
        d="M56 14H8"
        transform="matrix(1,0,0,1,0,18)"
  />
  <linearGradient id="gradient2" gradientUnits="userSpaceOnUse" x1="61.14" y1="-4.65" x2="61.14" y2="37.09">
   <stop offset="0" stop-color="#cccccc"/>
   <stop offset="1" stop-color="#919191"/>
  </linearGradient>
  <path style="fill:none; stroke:url(#gradient2); stroke-width:4.9572; stroke-linecap:round"
        d="M56 14H8"
        transform="matrix(1,0,0,1,0,18)"
  />
  <path style="fill:#005900"
        d="M32 16C23.16 16 16 23.16 16 32C16 40.83 23.16 48 32 48C40.83 48 48 40.83 48 32C48 23.16 40.83 16 32 16z"
        transform="matrix(0.4999,0,0,0.5,11,16)"
  />
  <linearGradient id="gradient3" gradientUnits="userSpaceOnUse" x1="61.04" y1="-6.63" x2="61.04" y2="35.1">
   <stop offset="0" stop-color="#80ff80"/>
   <stop offset="1" stop-color="#00b200"/>
  </linearGradient>
  <path style="fill:url(#gradient3)"
        d="M32 16C23.16 16 16 23.16 16 32C16 40.83 23.16 48 32 48C40.83 48 48 40.83 48 32C48 23.16 40.83 16 32 16z"
        transform="matrix(0.3125,0,0,0.3125,17,22)"
  />
  <path style="fill:none; stroke:#000000; stroke-opacity:0.4; stroke-width:9.9145; stroke-linecap:round; stroke-linejoin:round"
        d="M57 15H8"
        transform="matrix(1,0,0,1,0,38)"
  />
  <path style="fill:none; stroke:#464646; stroke-width:9.9145; stroke-linecap:round; stroke-linejoin:round"
        d="M56 14H8"
        transform="matrix(1,0,0,1,0,38)"
  />
  <linearGradient id="gradient4" gradientUnits="userSpaceOnUse" x1="61.14" y1="-4.65" x2="61.14" y2="37.09">
   <stop offset="0" stop-color="#cccccc"/>
   <stop offset="1" stop-color="#919191"/>
  </linearGradient>
  <path style="fill:none; stroke:url(#gradient4); stroke-width:4.9572; stroke-linecap:round"
        d="M56 14H8"
        transform="matrix(1,0,0,1,0,38)"
  />
  <path style="fill:#005900"
        d="M32 16C23.16 16 16 23.16 16 32C16 40.83 23.16 48 32 48C40.83 48 48 40.83 48 32C48 23.16 40.83 16 32 16z"
        transform="matrix(0.4999,0,0,0.5,27,37)"
  />
  <linearGradient id="gradient5" gradientUnits="userSpaceOnUse" x1="61.04" y1="-6.63" x2="61.04" y2="35.1">
   <stop offset="0" stop-color="#80ff80"/>
   <stop offset="1" stop-color="#00b200"/>
  </linearGradient>
  <path style="fill:url(#gradient5)"
        d="M32 16C23.16 16 16 23.16 16 32C16 40.83 23.16 48 32 48C40.83 48 48 40.83 48 32C48 23.16 40.83 16 32 16z"
        transform="matrix(0.3125,0,0,0.3125,33,43)"
  />
 </g>
</svg>
