<?xml version="1.0" encoding="UTF-8" standalone="yes"?>
<svg version="1.1" width="64" height="64" color-interpolation="linearRGB"
     xmlns:svg="http://www.w3.org/2000/svg" xmlns="http://www.w3.org/2000/svg">
 <g>
  <path style="fill:#010101; fill-opacity:0.4352"
        d="M57.43 50.62L60.42 51.55C62.04 52.05 63.6 50.62 63.22 48.96L60.06 35C59.68 33.35 57.66 32.72 56.42 33.87L45.91 43.59C44.66 44.74 45.13 46.81 46.75 47.31L49.49 48.16C47.85 50.04 45.93 51.65 43.77 52.92C41.33 54.36 38.65 55.34 35.86 55.81V32.49H42.6C44.75 32.49 46.5 30.75 46.5 28.6C46.5 26.45 44.75 24.7 42.6 24.7H35.86V21.49C40.06 19.9 43.06 15.85 43.06 11.1C43.06 4.97 38.08 0 31.96 0C25.84 0 20.86 4.97 20.86 11.1C20.86 15.85 23.86 19.91 28.07 21.49V24.7H21.32C19.17 24.7 17.43 26.45 17.43 28.6C17.43 30.75 19.17 32.49 21.32 32.49H28.07V55.81C25.28 55.34 22.6 54.36 20.15 52.92C18.01 51.64 16.07 50.03 14.44 48.16L17.17 47.31C18.79 46.81 19.26 44.74 18.02 43.59L7.51 33.87C6.26 32.72 4.24 33.35 3.87 35L0.71 48.97C0.33 50.62 1.89 52.06 3.5 51.56L6.5 50.63C9.04 54.28 12.35 57.35 16.19 59.63C20.95 62.44 26.41 63.93 31.96 63.93C37.52 63.93 42.97 62.44 47.74 59.63C51.57 57.35 54.88 54.27 57.43 50.62z
           M35.27 11.09C35.27 11.6 35.16 12.08 34.96 12.51C34.42 13.63 33.28 14.4 31.96 14.4C30.64 14.4 29.5 13.63 28.97 12.51C28.76 12.08 28.65 11.6 28.65 11.09C28.65 9.26 30.14 7.78 31.96 7.78C33.79 7.78 35.27 9.26 35.27 11.09z"
        transform="matrix(0.8723,0,0,0.8279,8.0804,9)"
  />
  <linearGradient id="gradient0" gradientUnits="userSpaceOnUse" x1="175.58" y1="7.44" x2="175.58" y2="54.06">
   <stop offset="0" stop-color="#abd5ff"/>
   <stop offset="1" stop-color="#006cd9"/>
  </linearGradient>
  <path style="fill:url(#gradient0)"
        d="M57.43 50.62L60.42 51.55C62.04 52.05 63.6 50.62 63.22 48.96L60.06 35C59.68 33.35 57.66 32.72 56.42 33.87L45.91 43.59C44.66 44.74 45.13 46.81 46.75 47.31L49.49 48.16C47.85 50.04 45.93 51.65 43.77 52.92C41.33 54.36 38.65 55.34 35.86 55.81V32.49H42.6C44.75 32.49 46.5 30.75 46.5 28.6C46.5 26.45 44.75 24.7 42.6 24.7H35.86V21.49C40.06 19.9 43.06 15.85 43.06 11.1C43.06 4.97 38.08 0 31.96 0C25.84 0 20.86 4.97 20.86 11.1C20.86 15.85 23.86 19.91 28.07 21.49V24.7H21.32C19.17 24.7 17.43 26.45 17.43 28.6C17.43 30.75 19.17 32.49 21.32 32.49H28.07V55.81C25.28 55.34 22.6 54.36 20.15 52.92C18.01 51.64 16.07 50.03 14.44 48.16L17.17 47.31C18.79 46.81 19.26 44.74 18.02 43.59L7.51 33.87C6.26 32.72 4.24 33.35 3.87 35L0.71 48.97C0.33 50.62 1.89 52.06 3.5 51.56L6.5 50.63C9.04 54.28 12.35 57.35 16.19 59.63C20.95 62.44 26.41 63.93 31.96 63.93C37.52 63.93 42.97 62.44 47.74 59.63C51.57 57.35 54.88 54.27 57.43 50.62z
           M35.27 11.09C35.27 11.6 35.16 12.08 34.96 12.51C34.42 13.63 33.28 14.4 31.96 14.4C30.64 14.4 29.5 13.63 28.97 12.51C28.76 12.08 28.65 11.6 28.65 11.09C28.65 9.26 30.14 7.78 31.96 7.78C33.79 7.78 35.27 9.26 35.27 11.09z"
        transform="matrix(0.8404,0,0,0.8279,6.1005,5)"
  />
  <path style="fill:none; stroke:#003f80; stroke-width:3; stroke-linecap:round; stroke-linejoin:round"
        d="M57.43 50.62L60.42 51.55C62.04 52.05 63.6 50.62 63.22 48.96L60.06 35C59.68 33.35 57.66 32.72 56.42 33.87L45.91 43.59C44.66 44.74 45.13 46.81 46.75 47.31L49.49 48.16C47.85 50.04 45.93 51.65 43.77 52.92C41.33 54.36 38.65 55.34 35.86 55.81V32.49H42.6C44.75 32.49 46.5 30.75 46.5 28.6C46.5 26.45 44.75 24.7 42.6 24.7H35.86V21.49C40.06 19.9 43.06 15.85 43.06 11.1C43.06 4.97 38.08 0 31.96 0C25.84 0 20.86 4.97 20.86 11.1C20.86 15.85 23.86 19.91 28.07 21.49V24.7H21.32C19.17 24.7 17.43 26.45 17.43 28.6C17.43 30.75 19.17 32.49 21.32 32.49H28.07V55.81C25.28 55.34 22.6 54.36 20.15 52.92C18.01 51.64 16.07 50.03 14.44 48.16L17.17 47.31C18.79 46.81 19.26 44.74 18.02 43.59L7.51 33.87C6.26 32.72 4.24 33.35 3.87 35L0.71 48.97C0.33 50.62 1.89 52.06 3.5 51.56L6.5 50.63C9.04 54.28 12.35 57.35 16.19 59.63C20.95 62.44 26.41 63.93 31.96 63.93C37.52 63.93 42.97 62.44 47.74 59.63C51.57 57.35 54.88 54.27 57.43 50.62z
           M35.27 11.09C35.27 11.6 35.16 12.08 34.96 12.51C34.42 13.63 33.28 14.4 31.96 14.4C30.64 14.4 29.5 13.63 28.97 12.51C28.76 12.08 28.65 11.6 28.65 11.09C28.65 9.26 30.14 7.78 31.96 7.78C33.79 7.78 35.27 9.26 35.27 11.09z"
        transform="matrix(0.8404,0,0,0.8279,6.1005,5)"
  />
 </g>
</svg>
