<?xml version="1.0" encoding="UTF-8" standalone="yes"?>
<svg version="1.1" width="64" height="64" color-interpolation="linearRGB"
     xmlns:svg="http://www.w3.org/2000/svg" xmlns="http://www.w3.org/2000/svg">
 <g>
  <path style="fill:none; stroke:#000000; stroke-opacity:0.4; stroke-width:4; stroke-linecap:round; stroke-linejoin:round"
        d="M6 18H42V42H6V18z"
        transform="matrix(1.2995,0,0,1.271,2.8201,4.0746)"
  />
  <path style="fill:none; stroke:#000000; stroke-width:4; stroke-linecap:round; stroke-linejoin:round"
        d="M4 16H40V40H4V16z"
        transform="matrix(1.2995,0,0,1.271,2.8201,4.0746)"
  />
  <linearGradient id="gradient0" gradientUnits="userSpaceOnUse" x1="127.98" y1="16" x2="127.98" y2="40">
   <stop offset="0" stop-color="#808080"/>
   <stop offset="1" stop-color="#262626"/>
  </linearGradient>
  <path style="fill:url(#gradient0)"
        d="M4 16H40V40H4V16z"
        transform="matrix(1.2995,0,0,1.271,2.8201,4.0746)"
  />
  <linearGradient id="gradient1" gradientUnits="userSpaceOnUse" x1="127.98" y1="16" x2="127.98" y2="40">
   <stop offset="0" stop-color="#ffffff"/>
   <stop offset="1" stop-color="#e5e5e5"/>
  </linearGradient>
  <path style="fill:url(#gradient1)"
        d="M32 20L36 16H40L36 20H32z
           M24 20L28 16H32L28 20H24z
           M16 20L20 16H24L20 20H16z
           M8 20L12 16H16L12 20H8z"
        transform="matrix(1.2995,0,0,1.271,2.8201,4.0746)"
  />
  <linearGradient id="gradient2" gradientUnits="userSpaceOnUse" x1="127.98" y1="16" x2="127.98" y2="40">
   <stop offset="0" stop-color="#ffffff"/>
   <stop offset="1" stop-color="#e5e5e5"/>
  </linearGradient>
  <path style="fill:none; stroke:url(#gradient2); stroke-width:2; stroke-linecap:round"
        d="M7 27H37
           M22 33V37
           M7 33H37"
        transform="matrix(1.2995,0,0,1.271,2.8201,4.0746)"
  />
  <path style="fill:none; stroke:#000000; stroke-opacity:0.4; stroke-width:3.9996; stroke-linecap:round; stroke-linejoin:round"
        d="M4.56 10.12L39.98 3.69L41.41 11.56L9.93 17.28L9.57 15.31L5.64 16.03L4.56 10.12z"
        transform="matrix(1.2995,0,0,1.271,2.8201,4.0746)"
  />
  <path style="fill:none; stroke:#000000; stroke-width:3.9996; stroke-linecap:round; stroke-linejoin:round"
        d="M2.56 8.12L37.98 1.69L39.41 9.56L7.93 15.28L7.57 13.31L3.64 14.03L2.56 8.12z"
        transform="matrix(1.2995,0,0,1.271,2.8201,4.0746)"
  />
  <linearGradient id="gradient3" gradientUnits="userSpaceOnUse" x1="124.54" y1="-14.04" x2="125.97" y2="-6.17">
   <stop offset="0" stop-color="#808080"/>
   <stop offset="1" stop-color="#262626"/>
  </linearGradient>
  <path style="fill:url(#gradient3)"
        d="M2.56 8.12L37.98 1.69L39.41 9.56L7.93 15.28L7.57 13.31L3.64 14.03L2.56 8.12z"
        transform="matrix(1.2995,0,0,1.271,2.8201,4.0746)"
  />
  <linearGradient id="gradient4" gradientUnits="userSpaceOnUse" x1="124.19" y1="-16" x2="125.98" y2="-6.16">
   <stop offset="0" stop-color="#ffffff"/>
   <stop offset="1" stop-color="#e5e5e5"/>
  </linearGradient>
  <path style="fill:url(#gradient4)"
        d="M30.65 6.07L35.48 10.27L39.41 9.56L34.58 5.36L30.65 6.07z
           M22.78 7.5L27.61 11.7L31.54 10.99L26.71 6.79L22.78 7.5z
           M14.91 8.93L19.74 13.14L23.67 12.42L18.84 8.22L14.91 8.93z
           M7.04 10.36L11.87 14.57L15.8 13.85L10.97 9.65L7.04 10.36z"
        transform="matrix(1.2995,0,0,1.271,2.8201,4.0746)"
  />
  <path style="fill:#000000"
        d="M4 14H8V18H4V14z"
        transform="matrix(1.2995,0,0,1.271,2.8201,4.0746)"
  />
  <linearGradient id="gradient5" gradientUnits="userSpaceOnUse" x1="127.98" y1="16" x2="127.98" y2="40">
   <stop offset="0" stop-color="#ffffff"/>
   <stop offset="1" stop-color="#e5e5e5"/>
  </linearGradient>
  <path style="fill:url(#gradient5)"
        d="M6 15C6.55 15 7 15.43 7 16C7 16.54 6.55 17 6 17C5.44 17 5 16.54 5 16C5 15.43 5.44 15 6 15z"
        transform="matrix(1.2995,0,0,1.271,2.8201,4.0746)"
  />
 </g>
</svg>
