<?xml version="1.0" encoding="UTF-8" standalone="yes"?>
<svg version="1.1" width="64" height="64" color-interpolation="linearRGB"
     xmlns:svg="http://www.w3.org/2000/svg" xmlns="http://www.w3.org/2000/svg">
 <g>
  <path style="fill:#000000"
        d="M3.81 6.62V54.54H40.47V6.62H3.81z"
        transform="matrix(0.8708,0,0,0.8708,4.1292,4.1316)"
  />
  <path style="fill:none; stroke:#000000; stroke-opacity:0.4; stroke-width:5.6385; stroke-linecap:round; stroke-linejoin:round"
        d="M29.19 29.17V37.63H46.11V46.09L60.21 33.4L46.11 20.72V29.17H29.19z"
        transform="matrix(0.8708,0,0,0.8708,4.1292,4.1316)"
  />
  <path style="fill:none; stroke:#bf5000; stroke-width:5.6385; stroke-linecap:round; stroke-linejoin:round"
        d="M26.37 26.35V34.81H43.29V43.27L57.39 30.58L43.29 17.9V26.35H26.37z"
        transform="matrix(0.8708,0,0,0.8708,4.1292,4.1316)"
  />
  <linearGradient id="gradient0" gradientUnits="userSpaceOnUse" x1="181.45" y1="17.9" x2="181.45" y2="43.27">
   <stop offset="0" stop-color="#ffff80"/>
   <stop offset="1" stop-color="#ffd500"/>
  </linearGradient>
  <path style="fill:url(#gradient0)"
        d="M26.37 26.35V34.81H43.29V43.27L57.39 30.58L43.29 17.9V26.35H26.37z"
        transform="matrix(0.8708,0,0,0.8708,4.1292,4.1316)"
  />
  <path style="fill:none; stroke:#000000; stroke-opacity:0.4; stroke-width:5.6385; stroke-linecap:round; stroke-linejoin:round"
        d="M6.63 9.44V57.36L23.55 60.18L26.37 58.77V8.03L23.55 6.62L6.63 9.44z"
        transform="matrix(0.8708,0,0,0.8708,4.1292,4.1316)"
  />
  <path style="fill:none; stroke:#545454; stroke-width:5.6385; stroke-linecap:round; stroke-linejoin:round"
        d="M3.81 6.62V54.54L20.73 57.36L23.55 55.95V5.21L20.73 3.8L3.81 6.62z"
        transform="matrix(0.8708,0,0,0.8708,4.1292,4.1316)"
  />
  <linearGradient id="gradient1" gradientUnits="userSpaceOnUse" x1="181.45" y1="6.61" x2="181.45" y2="54.53">
   <stop offset="0" stop-color="#ffffff"/>
   <stop offset="1" stop-color="#d9d9d9"/>
  </linearGradient>
  <path style="fill:url(#gradient1)"
        d="M3.81 6.62V54.54L20.73 57.36V3.8L3.81 6.62z"
        transform="matrix(0.8708,0,0,0.8708,4.1292,4.1316)"
  />
  <path style="fill:#545454"
        d="M17.91 29.17V31.99H12.27V29.17"
        transform="matrix(0.8708,0,0,0.8708,4.1292,4.1316)"
  />
 </g>
</svg>
