<?xml version="1.0" encoding="UTF-8" standalone="yes"?>
<svg version="1.1" width="64" height="64" color-interpolation="linearRGB"
     xmlns:svg="http://www.w3.org/2000/svg" xmlns="http://www.w3.org/2000/svg">
 <g>
  <path style="fill:none; stroke:#000000; stroke-opacity:0.4; stroke-width:4; stroke-linecap:round; stroke-linejoin:round"
        d="M35.4 7.67L44.15 16.35H39.54V24.17H31.25V16.35H26.63L35.4 7.67z
           M18.13 36.97V63.18L56.83 64.08V38.77L65.11 52.34V42.38L56.83 28.84H17.22L9.85 40.59V51.43L18.13 36.97z"
        transform="matrix(1,0,0,1,-3,-2)"
  />
  <linearGradient id="gradient0" gradientUnits="userSpaceOnUse" x1="44" y1="11.09" x2="53.77" y2="23.54">
   <stop offset="0" stop-color="#371c01"/>
   <stop offset="1" stop-color="#472401"/>
  </linearGradient>
  <path style="fill:none; stroke:url(#gradient0); stroke-width:3.5; stroke-linejoin:round"
        d="M12.89 34.24V58.63L51.04 59.47V35.91L59.2 48.52V39.29L51.04 26.65H11.97L4.71 37.59V47.7L12.89 34.24z"
  />
  <linearGradient id="gradient1" gradientUnits="userSpaceOnUse" x1="12.47" y1="51.65" x2="12.22" y2="39.04">
   <stop offset="0" stop-color="#a06f40"/>
   <stop offset="1" stop-color="#dca977"/>
  </linearGradient>
  <path style="fill:url(#gradient1)"
        d="M5.61 44.34V38.43L12.89 28.35H50.13L58.31 40.97C58.31 40.97 59.2 47.7 59.2 46.84C59.2 46.75 50.13 34.24 50.13 33.4V57.79H13.8V31.71L5.61 44.34z"
  />
  <path style="fill:none; stroke:#bf5000; stroke-width:5; stroke-linecap:round; stroke-linejoin:round"
        d="M31.46 3.8L40.24 12.47H35.63V20.29H27.31V12.47H22.7L31.46 3.8z"
  />
  <linearGradient id="gradient2" gradientUnits="userSpaceOnUse" x1="80.8" y1="3.79" x2="80.8" y2="20.29">
   <stop offset="0" stop-color="#ffff80"/>
   <stop offset="1" stop-color="#ffd500"/>
  </linearGradient>
  <path style="fill:url(#gradient2)"
        d="M31.46 3.8L40.24 12.47H35.63V20.29H27.31V12.47H22.7L31.46 3.8z"
  />
 </g>
</svg>
