<?xml version="1.0" encoding="UTF-8" standalone="yes"?>
<svg version="1.1" width="64" height="64" color-interpolation="linearRGB"
     xmlns:svg="http://www.w3.org/2000/svg" xmlns="http://www.w3.org/2000/svg">
 <g>
  <path style="fill:none; stroke:#000000; stroke-opacity:0.5137; stroke-width:6.9879"
        d="M32.01 6.69C45.99 6.69 57.33 18.03 57.33 32.02C57.33 46.01 45.99 57.35 32.01 57.35C18.02 57.35 6.68 46.01 6.68 32.02C6.68 18.03 18.02 6.69 32.01 6.69z"
        transform="matrix(0.9826,0,0,0.9826,3.0552,3.0554)"
  />
  <path style="fill:none; stroke:#05285c; stroke-width:6.9879"
        d="M32.01 6.69C45.99 6.69 57.33 18.03 57.33 32.02C57.33 46.01 45.99 57.35 32.01 57.35C18.02 57.35 6.68 46.01 6.68 32.02C6.68 18.03 18.02 6.69 32.01 6.69z"
        transform="matrix(0.9653,0,0,0.9653,1.1105,1.1109)"
  />
  <radialGradient id="gradient0" gradientUnits="userSpaceOnUse" cx="0" cy="0" r="64" gradientTransform="matrix(0.5313,0,0,-0.5313,20.157,27.8155)">
   <stop offset="0.1931" stop-color="#33ffff"/>
   <stop offset="0.7878" stop-color="#0066ff"/>
   <stop offset="1" stop-color="#0034cc"/>
  </radialGradient>
  <path style="fill:url(#gradient0)"
        d="M32.01 6.69C45.99 6.69 57.33 18.03 57.33 32.02C57.33 46.01 45.99 57.35 32.01 57.35C18.02 57.35 6.68 46.01 6.68 32.02C6.68 18.03 18.02 6.69 32.01 6.69z"
        transform="matrix(0.9653,0,0,0.9653,1.1105,1.1109)"
  />
  <radialGradient id="gradient1" gradientUnits="userSpaceOnUse" cx="0" cy="0" r="64" gradientTransform="matrix(0.5313,0,0,-0.5313,20.157,27.8155)">
   <stop offset="0.33" stop-color="#09b4b6"/>
   <stop offset="0.85" stop-color="#033784"/>
   <stop offset="1" stop-color="#051d61"/>
  </radialGradient>
  <path style="fill:url(#gradient1)"
        d="M53.41 18.45C49.67 12.56 43.48 8.38 36.58 7.09C35.09 6.84 33.54 6.69 32.01 6.69C24.91 6.69 18.02 9.75 13.26 15C8.2 20.58 5.87 28.21 6.96 35.64C7.53 39.14 7.88 40.19 8.79 42.16C11.33 47.96 16.08 52.71 21.91 55.25C28.55 58.15 36.31 58.02 42.85 54.9C42.58 53.7 41.55 53.65 40.53 53.55H40.4L40.78 53.65C39.95 53.45 39.23 53.83 38.46 54.05C37.58 54.3 36.65 54.18 35.76 54.08C33.96 53.87 31.76 53.52 30.27 54.82C30.17 54.82 30.09 54.82 30.09 54.82H29.79C29.79 54.82 26.33 54.82 25.6 54.82C24.86 54.3 24.19 54.15 23.53 54.11C23.49 54.05 23.18 53.73 23.18 53.73C23 53.51 22.85 53.38 22.61 53.3L21.09 52.78L19.49 52.21C19.35 52.15 19.23 52.15 19.09 52.12C19.06 52.08 19.07 52.01 19.02 51.95L18.67 51.41C18.21 50.58 17.7 49.79 16.74 49.58C16.86 49.06 16.67 48.61 16.53 48.11C16.35 47.57 16.32 46.97 16.33 46.39L16.39 45.89C16.43 45.19 16.47 44.49 16.36 43.79C17.48 42.53 17.73 41.26 17.63 39.63L17.61 39.03C17.61 38.16 17.61 38.05 17.9 37.66L18.05 37.48C18.84 36.44 20.07 34.36 18.42 33.44L14.32 31.21C14.32 31.21 13.78 30.98 13.72 30.93V30.89C13.68 29.7 13.27 28.87 12.31 28.15L12.04 27.96L11.69 27.5L10.69 26.28C10.03 25.65 9.42 25.47 8.84 25.41C8.81 25.3 8.73 25.19 8.66 25.09C10.11 24.49 10.77 22.9 11.33 21.56C11.67 20.76 11.96 19.89 12.56 19.25C13.09 18.66 13.61 18.15 13.47 17.27C14.6 16.8 15.65 16.22 16.66 15.64L16.78 15.56L18.79 14.3C20.21 13.48 20.86 12.32 21.32 10.77C22.18 10.87 22.96 10.64 23.53 10.35C24.62 10.99 26.41 11.03 27.33 10.05C27.37 10.05 27.53 10.05 27.71 10.04C27.17 11.14 27.71 12.67 28.91 13.12C28.97 13.16 28.98 13.26 29.02 13.31C28.79 13.38 28.55 13.48 28.55 13.48L27.44 14.72C27.18 15.51 27.44 16.29 27.82 16.99C27.84 17 27.85 17.1 27.85 17.1C27.86 17.22 27.92 17.43 27.98 17.66C27.86 17.8 27.75 17.91 27.75 17.91C26.65 19.25 24.83 19.56 24.34 21.43L24.26 21.68C23.69 22.44 23.55 23.32 24.08 24.14C24.01 24.24 23.98 24.35 23.98 24.35C23.52 25.18 23.11 26.14 23.39 27.11C23.66 28.04 24.43 28.73 25.14 29.33C25.84 29.93 26.55 30.53 27.42 30.86C28.44 31.26 29.6 31.19 30.65 30.91L31.71 30.59C32.2 30.4 32.71 30.17 33.24 30.21C33.82 30.28 34.24 30.73 34.66 31.09C33.92 32.98 35.34 34.86 36.21 36.5C36.21 36.5 36.39 36.82 36.46 36.93C35.41 38.82 35.29 40.91 36.91 42.52L37.06 42.67C37.03 44.24 37.09 46.97 39.06 47.44C41.1 47.92 43.13 46.78 44.37 45.26L44.84 44.69L45.25 44.37C45.67 44.07 46.14 43.69 46.4 43.22C46.65 42.73 46.66 42.12 47.01 41.65V41.67C47.07 42.63 47.99 43.35 48.94 43.16C50.11 42.98 50.81 41.71 51.29 40.76L51.51 40.33L51.55 40.23C52.13 39.25 52.56 37.99 51.83 36.96C51.2 36.08 49.96 35.84 49.11 36.58C49.11 36.27 49.11 35.99 49.11 35.99L49.16 34.18C49.19 33.91 49.76 33.35 50.06 33.06L50.37 32.75L50.69 32.47C51.33 31.91 51.96 31.3 52.18 30.43C52.31 30.07 52.24 29.47 52.25 29.08V28.78V28.66C52.34 27.83 52.21 26.99 51.55 26.42C52.28 25.97 52.81 25.2 53.03 24.25C53.08 24.34 53.16 24.51 53.16 24.51C53.38 24.93 53.65 25.43 54.12 25.88C54.05 26.92 54.43 27.92 54.88 28.81C55.35 29.7 55.45 30.71 55.42 31.69L55.45 32.7C55.48 33.2 55.55 33.76 55.4 34.26C55.27 34.74 55.03 35.18 54.91 35.64C54.6 36.73 54.5 37.88 54.5 39.03C54.35 39.95 54.88 40.84 55.65 41.12C58.5 33.7 57.67 25.18 53.41 18.45z"
        transform="matrix(0.9653,0,0,0.9653,1.1105,1.1109)"
  />
  <radialGradient id="gradient2" gradientUnits="userSpaceOnUse" cx="0" cy="0" r="64" gradientTransform="matrix(0.6255,0,0,0.6255,24.2932,18.6216)">
   <stop offset="0" stop-color="#ffffff"/>
   <stop offset="0.2991" stop-color="#00ff00"/>
   <stop offset="0.5643" stop-color="#00b200"/>
   <stop offset="1" stop-color="#008000"/>
  </radialGradient>
  <path style="fill:url(#gradient2)"
        d="M14.61 43.39C15.03 42.86 15.58 42.4 15.87 41.79C16.24 41.01 16.04 39.85 16.04 39.03C16.04 38.08 16.04 37.52 16.64 36.71C17.06 36.11 17.52 35.6 17.66 34.83C16.31 34.09 14.94 33.32 13.57 32.61C13.22 32.42 12.43 32.19 12.24 31.8C12.02 31.24 12.24 30.54 11.99 30.04C11.78 29.62 11.16 29.36 10.84 28.99C10.42 28.49 10.1 27.89 9.6 27.44C9.12 27.01 8.67 26.8 8.07 27.12C7.43 27.48 7.47 26.48 7.39 26.06C7.22 26.77 7.08 27.5 6.97 28.21C7.56 28.21 7.49 28.39 7.49 28.94C7.5 29.5 7.53 30.05 7.56 30.64C7.65 30.86 7.57 30.99 7.33 30.99C7.26 31.02 7.21 31.06 7.12 31.09C6.97 31.2 6.87 31.19 6.8 31.03C6.58 31.02 6.73 33.52 6.75 33.73C6.8 34.51 6.73 37.06 7.89 36.68C8.48 37.07 8.38 38.06 8.79 38.64C9.28 39.32 9.89 39.67 10.14 40.52C10.38 41.37 10.38 42.28 10.52 43.16C10.72 44.27 11.3 44.67 12.13 45.34C12.32 46.49 12.66 47.19 13.41 48.08C13.76 48.46 14.11 48.87 14.45 49.29C14.78 49.7 14.92 49.7 15.27 49.23C14.82 48.33 14.7 47.31 14.77 46.31C14.81 45.37 15.03 44.3 14.61 43.39
           M23.63 8.41C24.1 8.73 24.13 9.02 24.75 9.13C25.18 9.22 25.87 9.31 26.2 8.96C27.01 8.11 28.27 8.73 29.22 8.14C29.96 7.68 30.6 6.74 31.57 6.74C32.17 6.71 32.55 7.09 33.04 7.36C33.69 7.73 34.21 7.04 34.81 6.84C30.16 6.34 25.38 7.12 21.1 9.16C22.05 9.43 22.9 8.96 23.63 8.41
           M30.07 12.15C30.52 12.19 31.02 12.5 31.46 12.32C32.17 12.03 31.48 10.98 31.2 10.67C30.99 10.45 29.97 9.43 30.17 10.33C30.3 10.92 30.83 11.75 30.07 12.15
           M11.89 17.73C11.99 17.39 11.78 17.27 11.57 17.06C10.1 19.08 8.9 21.33 8.07 23.72C10.03 22.2 9.89 19.25 11.89 17.73
           M57.3 30.5C56.92 26.63 55.8 22.81 53.9 19.4C52.94 17.67 51.76 16.05 50.38 14.6C49.71 13.9 49.01 13.21 48.24 12.6C48.02 12.39 47.77 12.04 47.44 12.22C47.14 12.37 46.91 11.82 47 11.61C43.67 9.16 39.79 7.57 35.7 6.95C36.31 7.36 37.03 7.33 37.66 7.59C37.88 7.68 38.56 8.03 38.01 8.2C36.99 8.55 35.82 8.14 34.74 8.2C34.08 8.27 33.79 8.49 33.73 9.16C33.69 9.51 33.59 10.22 33.73 10.57C33.89 10.98 35.16 10.47 35.34 10.26C35.66 9.87 35.29 9.08 36.17 9.31C36.49 9.98 37.16 11.87 35.69 11.38C35.34 11.26 34.64 10.64 34.26 10.82C34.24 10.85 34.17 11.31 34.14 11.37C34.01 11.58 33.79 11.75 33.54 11.8C32.49 12.1 31.76 12.25 31.37 13.37C31.2 13.9 31.22 14.25 30.62 14.46C30.17 14.6 29.67 14.71 29.23 14.9C28.65 15.18 29.04 15.95 29.26 16.34C29.43 16.64 29.39 17.28 29.69 17.45C30.56 17.96 31.58 15.99 31.94 15.53C32.42 14.9 32.97 15.06 33.64 14.83C33.94 14.75 34.33 13.95 34.66 14.08C35.76 14.51 36.08 15.81 36.24 16.82C36.58 16.82 36.36 15.99 37.09 16.18C36.56 15.59 36.18 14.82 36.08 14.01C36.88 14.51 37.41 15.06 37.66 15.94C37.91 16.8 38.3 17.28 39.03 16.4C39.2 16.22 39.45 15.06 39.83 15.39C40.15 15.66 40.15 16.62 39.67 16.75C39.95 16.99 40.33 16.87 40.65 16.8C41.1 16.69 41.35 16.71 41.77 16.87C42.27 17.06 42.78 17.14 43.29 17.15C43.82 17.2 44.12 17.67 44.34 18.05C45 19.14 41.1 18.68 40.9 18.66C40.43 18.65 39.88 18.65 39.45 18.8C39.13 18.96 38.88 19.4 38.46 19.25C38.01 19.12 37.61 18.72 37.23 18.45C36.68 18.1 36.14 17.8 35.56 17.55C34.59 17.1 33.51 16.85 32.46 17.04C31.96 17.15 31.48 17.38 31.09 17.69C30.6 18.03 30.06 17.73 29.6 18.22C28.86 18.97 28.33 19.89 27.36 20.37C26.94 20.58 26.47 20.75 26.2 21.08C25.89 21.44 25.89 21.93 25.71 22.35C25.52 22.73 25.1 22.94 25.43 23.4C25.74 23.79 25.82 24.11 25.61 24.59C25.31 25.3 24.5 26.25 25.08 27.02C25.64 27.79 26.65 28.53 27.37 29.08C28.23 29.7 29.28 29.62 30.25 29.37C31.13 29.13 32.04 28.7 32.99 28.64C34.17 28.54 35.06 29.29 35.89 30.04C36.43 30.52 36.64 30.73 36.21 31.41C35.76 32.18 36.04 32.74 36.4 33.51C36.78 34.25 37.19 35.02 37.58 35.74C37.76 36.06 38.01 36.34 38.14 36.69C38.3 37.07 38.05 37.29 37.86 37.63C37.48 38.31 37.23 39.07 37.23 39.85C37.23 40.73 37.63 41.01 38.18 41.58C38.68 42.07 38.65 42.98 38.63 43.64C38.56 44.55 38.84 45.16 39.35 45.89C40.18 45.92 41 45.86 41.76 45.51C42.65 45.09 43.04 44.24 43.73 43.57C44.37 42.94 45.03 42.87 45.22 41.92C45.45 40.77 46.05 40.33 46.87 39.63C47.61 39 47.51 38.08 47.54 37.17C47.57 36.13 47.44 35.02 47.57 33.98C47.71 33.05 48.62 32.28 49.23 31.66C49.71 31.19 50.46 30.73 50.63 30.04C50.73 29.68 50.66 29.19 50.66 28.78C50.66 28.52 50.76 28.06 50.63 27.79C50.28 27.05 48.79 27.76 48.62 27.11C48.49 26.69 48.53 26.77 48.79 26.52C49.11 26.22 48.79 25.96 48.53 25.79C47.79 25.37 47.22 25.08 46.69 24.37C46.17 23.72 45.77 22.98 45.35 22.26C45.26 22.09 44.27 20.12 44.84 20.3C45.47 20.49 46.05 21.24 46.49 21.71C47.22 22.52 47.92 23.43 48.37 24.44C48.39 24.56 48.84 24.81 48.94 24.88C49.29 25.13 49.67 25.32 50.09 25.29C51.08 25.2 51.55 24.32 51.64 23.42C51.73 22.21 50.78 22.47 50.06 21.89C49.67 21.56 49.39 21.08 49.07 20.69C48.84 20.45 48.28 20.06 48.49 19.66C48.91 19.38 49.07 19.64 49.48 19.88C49.96 20.17 50.46 20.41 51.01 20.59C51.55 20.76 52.38 20.59 52.85 20.97C53.16 21.18 53.36 21.68 53.55 22C53.87 22.48 54.18 22.98 54.43 23.51C54.85 24.32 54.95 24.86 55.93 25.16C55.33 26.18 55.93 27.37 56.4 28.29C56.98 29.4 57.02 30.49 57 31.7C57 32.84 57.27 34.12 56.75 35.17C56.21 36.32 56.1 37.85 56.1 39.14C56.1 39.05 56.12 38.94 56.18 38.89C56.12 38.98 55.96 39.61 56.1 39.64C56.35 39.71 56.78 37.31 56.82 37.04C57.27 34.9 57.42 32.7 57.3 30.5
           M43.39 15.41C43.03 15.46 43.04 14.86 42.78 14.71C42.3 14.47 41.73 14.76 41.32 14.99C39.93 15.74 40.33 14.16 40.62 13.38C40.65 13.26 41.55 13.42 41.7 13.41C42.15 13.32 42.85 13.14 43.2 13.55C43.54 13.94 43.8 14.3 44.2 14.67C44.69 15.11 43.77 15.37 43.39 15.41
           M50.24 37.64C49.76 38.2 49.16 38.64 48.81 39.26C48.39 39.99 48.59 40.87 48.59 41.67C49.39 41.3 49.74 40.26 50.14 39.56C50.44 39.03 51.06 38.01 50.24 37.64
           M40.13 55.1C38.11 56.52 35.01 55.25 32.71 55.5C32.2 55.55 31.69 55.64 31.3 56.02C30.76 56.47 30.52 56.4 29.79 56.4C28.23 56.4 26.68 56.4 25.14 56.4C28.49 57.32 32.04 57.57 35.48 57.1C37.13 56.87 38.75 56.5 40.33 55.97C40.46 55.92 41.63 55.29 41.2 55.16C40.88 55.03 40.46 55.22 40.13 55.1
           M19.07 12.1C19.51 11.37 19.8 10.56 20 9.72C17.09 11.28 14.49 13.44 12.39 15.99C13.66 15.59 14.82 14.88 15.97 14.19C16.54 13.84 17.1 13.51 17.63 13.16C18.09 12.86 18.77 12.56 19.07 12.1
           M16.46 51.07C16.28 51.23 16.08 51.45 15.84 51.51C16.47 52.05 17.16 52.56 17.86 53.03C17.33 52.43 17.13 51.58 16.46 51.07"
        transform="matrix(0.9653,0,0,0.9653,1.1105,1.1109)"
  />
 </g>
</svg>
