<?xml version="1.0" encoding="UTF-8" standalone="yes"?>
<svg version="1.1" width="64" height="64" color-interpolation="linearRGB"
     xmlns:svg="http://www.w3.org/2000/svg" xmlns="http://www.w3.org/2000/svg">
 <g>
  <path style="fill:none; stroke:#05285c; stroke-width:5"
        d="M32.02 5.9C42.02 5.9 50.13 14.02 50.13 24.03C50.13 34.04 42.02 42.15 32.02 42.15C22.01 42.15 13.89 34.04 13.89 24.03C13.89 14.02 22.01 5.9 32.02 5.9z"
        transform="matrix(1.3976,0,0,1.3976,-12.7314,-1.5545)"
  />
  <radialGradient id="gradient0" gradientUnits="userSpaceOnUse" cx="0" cy="0" r="64" gradientTransform="matrix(0.3802,0,0,-0.3802,23.5321,21.0146)">
   <stop offset="0.1931" stop-color="#33ffff"/>
   <stop offset="0.7878" stop-color="#0066ff"/>
   <stop offset="1" stop-color="#0034cc"/>
  </radialGradient>
  <path style="fill:url(#gradient0)"
        d="M32.02 5.9C42.02 5.9 50.13 14.02 50.13 24.03C50.13 34.04 42.02 42.15 32.02 42.15C22.01 42.15 13.89 34.04 13.89 24.03C13.89 14.02 22.01 5.9 32.02 5.9z"
        transform="matrix(1.3976,0,0,1.3976,-12.7314,-1.5545)"
  />
  <radialGradient id="gradient1" gradientUnits="userSpaceOnUse" cx="0" cy="0" r="64" gradientTransform="matrix(0.3802,0,0,-0.3802,23.5321,21.0146)">
   <stop offset="0.33" stop-color="#09b4b6"/>
   <stop offset="0.85" stop-color="#033784"/>
   <stop offset="1" stop-color="#051d61"/>
  </radialGradient>
  <path style="fill:url(#gradient1)"
        d="M47.33 14.32C44.65 10.1 40.22 7.11 35.29 6.19C34.22 6.01 33.11 5.9 32.02 5.9C26.94 5.9 22.01 8.09 18.6 11.85C14.98 15.84 13.31 21.3 14.09 26.62C14.5 29.12 14.75 29.87 15.4 31.28C17.22 35.43 20.62 38.83 24.79 40.65C29.54 42.72 35.09 42.63 39.77 40.4C39.58 39.54 38.84 39.5 38.11 39.43H38.02L38.29 39.5C37.7 39.36 37.18 39.63 36.63 39.79C36 39.97 35.34 39.88 34.7 39.81C33.41 39.66 31.84 39.41 30.77 40.34C30.7 40.34 30.64 40.34 30.64 40.34H30.43C30.43 40.34 27.95 40.34 27.43 40.34C26.9 39.97 26.42 39.86 25.95 39.83C25.92 39.79 25.7 39.56 25.7 39.56C25.57 39.4 25.46 39.31 25.29 39.25L24.2 38.88L23.06 38.47C22.96 38.43 22.87 38.43 22.77 38.41C22.75 38.38 22.76 38.33 22.72 38.29L22.47 37.9C22.14 37.31 21.78 36.74 21.09 36.59C21.18 36.22 21.04 35.9 20.94 35.54C20.81 35.15 20.79 34.72 20.8 34.31L20.84 33.95C20.87 33.45 20.9 32.95 20.82 32.45C21.62 31.55 21.8 30.64 21.73 29.47L21.71 29.04C21.71 28.42 21.71 28.34 21.92 28.06L22.03 27.93C22.59 27.19 23.47 25.7 22.29 25.04L19.36 23.45C19.36 23.45 18.97 23.28 18.93 23.25V23.22C18.9 22.37 18.61 21.77 17.92 21.26L17.73 21.12C17.73 21.12 17.48 20.79 17.48 20.79L16.76 19.92C16.29 19.47 15.85 19.34 15.44 19.3C15.42 19.22 15.36 19.14 15.31 19.07C16.35 18.64 16.82 17.5 17.22 16.54C17.46 15.97 17.67 15.35 18.1 14.89C18.48 14.47 18.85 14.1 18.75 13.47C19.56 13.14 20.31 12.72 21.03 12.31L21.12 12.25L22.56 11.35C23.57 10.76 24.04 9.93 24.37 8.82C24.98 8.89 25.54 8.73 25.95 8.52C26.73 8.98 28.01 9.01 28.67 8.31C28.7 8.31 28.81 8.31 28.94 8.3C28.55 9.09 28.94 10.18 29.8 10.5C29.84 10.53 29.85 10.6 29.88 10.64C29.71 10.69 29.54 10.76 29.54 10.76L28.75 11.65C28.56 12.21 28.75 12.77 29.02 13.27C29.03 13.28 29.04 13.35 29.04 13.35C29.05 13.44 29.09 13.59 29.13 13.75C29.05 13.85 28.97 13.93 28.97 13.93C28.18 14.89 26.88 15.11 26.53 16.45L26.47 16.63C26.06 17.17 25.96 17.8 26.34 18.39C26.29 18.46 26.27 18.54 26.27 18.54C25.94 19.13 25.65 19.82 25.85 20.51C26.04 21.18 26.59 21.67 27.1 22.1C27.6 22.53 28.11 22.96 28.73 23.2C29.46 23.48 30.29 23.43 31.04 23.23L31.8 23C32.15 22.87 32.52 22.7 32.9 22.73C33.31 22.78 33.61 23.1 33.91 23.36C33.38 24.71 34.4 26.06 35.02 27.23C35.02 27.23 35.15 27.46 35.2 27.54C34.45 28.89 34.36 30.39 35.52 31.54L35.63 31.65C35.61 32.77 35.65 34.72 37.06 35.06C38.52 35.4 39.97 34.59 40.86 33.5L41.2 33.09L41.49 32.86C41.79 32.65 42.13 32.38 42.31 32.04C42.49 31.69 42.5 31.25 42.75 30.92V30.93C42.79 31.62 43.45 32.13 44.13 32C44.97 31.87 45.47 30.96 45.81 30.28L45.97 29.97L46 29.9C46.41 29.2 46.72 28.3 46.2 27.56C45.75 26.93 44.86 26.76 44.25 27.29C44.25 27.07 44.25 26.87 44.25 26.87L44.29 25.57C44.31 25.38 44.72 24.98 44.93 24.77L45.15 24.55L45.38 24.35C45.84 23.95 46.29 23.51 46.45 22.89C46.54 22.63 46.49 22.2 46.5 21.92L46.5 21.71L46.5 21.62C46.56 21.03 46.47 20.43 46 20.02C46.52 19.7 46.9 19.15 47.06 18.47C47.09 18.53 47.15 18.65 47.15 18.65C47.31 18.95 47.5 19.31 47.84 19.63C47.79 20.38 48.06 21.09 48.38 21.73C48.72 22.37 48.79 23.09 48.77 23.79L48.79 24.51C48.81 24.87 48.86 25.27 48.75 25.63C48.66 25.97 48.49 26.29 48.4 26.62C48.18 27.4 48.11 28.22 48.11 29.04C48 29.7 48.38 30.34 48.93 30.54C50.97 25.23 50.38 19.13 47.33 14.32z"
        transform="matrix(1.3976,0,0,1.3976,-12.7314,-1.5545)"
  />
  <radialGradient id="gradient2" gradientUnits="userSpaceOnUse" cx="0" cy="0" r="64" gradientTransform="matrix(0.4476,0,0,0.4476,26.4916,14.4363)">
   <stop offset="0" stop-color="#ffffff"/>
   <stop offset="0.2991" stop-color="#00ff00"/>
   <stop offset="0.5643" stop-color="#00b200"/>
   <stop offset="1" stop-color="#008000"/>
  </radialGradient>
  <path style="fill:url(#gradient2)"
        d="M19.57 32.16C19.87 31.78 20.26 31.45 20.47 31.02C20.73 30.46 20.59 29.63 20.59 29.04C20.59 28.36 20.59 27.96 21.02 27.38C21.32 26.95 21.65 26.59 21.75 26.04C20.78 25.51 19.8 24.96 18.82 24.45C18.57 24.31 18.01 24.15 17.87 23.87C17.71 23.47 17.87 22.97 17.69 22.61C17.54 22.31 17.1 22.12 16.87 21.86C16.57 21.5 16.34 21.07 15.98 20.75C15.64 20.44 15.32 20.29 14.89 20.52C14.43 20.78 14.46 20.06 14.4 19.76C14.28 20.27 14.18 20.79 14.1 21.3C14.52 21.3 14.47 21.43 14.47 21.82C14.48 22.22 14.5 22.62 14.52 23.04C14.59 23.2 14.53 23.29 14.36 23.29C14.31 23.31 14.27 23.34 14.21 23.36C14.1 23.44 14.03 23.43 13.98 23.32C13.82 23.31 13.93 25.1 13.94 25.25C13.98 25.81 13.93 27.63 14.76 27.36C15.18 27.64 15.11 28.35 15.4 28.76C15.75 29.25 16.19 29.5 16.37 30.11C16.54 30.72 16.54 31.37 16.64 32C16.78 32.79 17.2 33.08 17.79 33.56C17.93 34.38 18.17 34.88 18.71 35.52C18.96 35.79 19.21 36.08 19.45 36.38C19.69 36.68 19.79 36.68 20.04 36.34C19.72 35.7 19.63 34.97 19.68 34.25C19.71 33.58 19.87 32.81 19.57 32.16
           M26.02 7.13C26.36 7.36 26.38 7.57 26.82 7.65C27.13 7.71 27.62 7.78 27.86 7.53C28.44 6.92 29.34 7.36 30.02 6.94C30.55 6.61 31.01 5.94 31.7 5.94C32.13 5.92 32.4 6.19 32.75 6.38C33.22 6.65 33.59 6.15 34.02 6.01C30.69 5.65 27.27 6.21 24.21 7.67C24.89 7.86 25.5 7.53 26.02 7.13
           M30.63 9.81C30.95 9.84 31.31 10.06 31.62 9.93C32.13 9.72 31.64 8.97 31.44 8.75C31.29 8.59 30.56 7.86 30.7 8.51C30.79 8.93 31.17 9.52 30.63 9.81
           M17.62 13.8C17.69 13.56 17.54 13.47 17.39 13.32C16.34 14.77 15.48 16.38 14.89 18.09C16.29 17 16.19 14.89 17.62 13.8
           M50.11 22.94C49.84 20.17 49.04 17.44 47.68 15C46.99 13.76 46.15 12.6 45.16 11.56C44.68 11.06 44.18 10.57 43.63 10.13C43.47 9.98 43.29 9.73 43.06 9.86C42.84 9.97 42.68 9.57 42.74 9.42C40.36 7.67 37.58 6.53 34.66 6.09C35.09 6.38 35.61 6.36 36.06 6.55C36.22 6.61 36.7 6.86 36.31 6.98C35.58 7.23 34.74 6.94 33.97 6.98C33.5 7.03 33.29 7.19 33.25 7.67C33.22 7.92 33.15 8.43 33.25 8.68C33.36 8.97 34.27 8.61 34.4 8.46C34.63 8.18 34.36 7.61 34.99 7.78C35.22 8.26 35.7 9.61 34.65 9.26C34.4 9.17 33.9 8.73 33.63 8.86C33.61 8.88 33.56 9.21 33.54 9.25C33.45 9.4 33.29 9.52 33.11 9.56C32.36 9.77 31.84 9.88 31.56 10.68C31.44 11.06 31.45 11.31 31.02 11.46C30.7 11.56 30.34 11.64 30.03 11.78C29.61 11.98 29.89 12.53 30.05 12.81C30.17 13.02 30.14 13.48 30.36 13.6C30.98 13.97 31.71 12.56 31.97 12.23C32.31 11.78 32.7 11.89 33.18 11.73C33.4 11.67 33.68 11.1 33.91 11.19C34.7 11.5 34.93 12.43 35.04 13.15C35.29 13.15 35.13 12.56 35.65 12.69C35.27 12.27 35 11.72 34.93 11.14C35.5 11.5 35.88 11.89 36.06 12.52C36.24 13.14 36.52 13.48 37.04 12.85C37.16 12.72 37.34 11.89 37.61 12.13C37.84 12.32 37.84 13.01 37.5 13.1C37.7 13.27 37.97 13.19 38.2 13.14C38.52 13.06 38.7 13.07 39 13.19C39.36 13.32 39.72 13.38 40.09 13.39C40.47 13.42 40.68 13.76 40.84 14.03C41.31 14.81 38.52 14.48 38.38 14.47C38.04 14.46 37.65 14.46 37.34 14.57C37.11 14.68 36.93 15 36.63 14.89C36.31 14.8 36.02 14.51 35.75 14.32C35.36 14.07 34.97 13.85 34.56 13.67C33.86 13.35 33.09 13.17 32.34 13.31C31.98 13.39 31.64 13.55 31.36 13.77C31.01 14.02 30.62 13.8 30.29 14.15C29.76 14.69 29.38 15.35 28.69 15.69C28.39 15.84 28.05 15.96 27.86 16.2C27.64 16.46 27.64 16.81 27.51 17.11C27.37 17.38 27.07 17.53 27.31 17.86C27.53 18.14 27.59 18.37 27.44 18.71C27.22 19.22 26.64 19.9 27.06 20.45C27.46 21 28.18 21.53 28.7 21.92C29.31 22.37 30.06 22.31 30.76 22.13C31.39 21.96 32.04 21.65 32.72 21.61C33.56 21.54 34.2 22.07 34.79 22.61C35.18 22.95 35.33 23.1 35.02 23.59C34.7 24.14 34.9 24.54 35.16 25.09C35.43 25.62 35.72 26.17 36 26.69C36.13 26.92 36.31 27.12 36.4 27.37C36.52 27.64 36.34 27.8 36.2 28.04C35.93 28.53 35.75 29.07 35.75 29.63C35.75 30.26 36.04 30.46 36.43 30.87C36.79 31.22 36.77 31.87 36.75 32.34C36.7 32.99 36.9 33.43 37.27 33.95C37.86 33.97 38.45 33.93 38.99 33.68C39.63 33.38 39.91 32.77 40.4 32.29C40.86 31.84 41.33 31.79 41.47 31.11C41.63 30.29 42.06 29.97 42.65 29.47C43.18 29.02 43.11 28.36 43.13 27.71C43.15 26.97 43.06 26.17 43.15 25.43C43.25 24.76 43.9 24.21 44.34 23.77C44.68 23.43 45.22 23.1 45.34 22.61C45.41 22.35 45.36 22 45.36 21.71C45.36 21.52 45.43 21.19 45.34 21C45.09 20.47 44.02 20.98 43.9 20.51C43.81 20.21 43.84 20.27 44.02 20.09C44.25 19.88 44.02 19.69 43.84 19.57C43.31 19.27 42.9 19.06 42.52 18.55C42.15 18.09 41.86 17.56 41.56 17.04C41.5 16.92 40.79 15.51 41.2 15.64C41.65 15.78 42.06 16.31 42.38 16.65C42.9 17.23 43.4 17.88 43.72 18.6C43.74 18.69 44.06 18.87 44.13 18.92C44.38 19.1 44.65 19.23 44.95 19.21C45.66 19.15 46 18.52 46.06 17.87C46.13 17.01 45.45 17.19 44.93 16.78C44.65 16.54 44.45 16.2 44.22 15.92C44.06 15.75 43.66 15.47 43.81 15.18C44.11 14.98 44.22 15.17 44.52 15.34C44.86 15.55 45.22 15.72 45.61 15.85C46 15.97 46.59 15.85 46.93 16.12C47.15 16.27 47.29 16.63 47.43 16.86C47.66 17.2 47.88 17.56 48.06 17.94C48.36 18.52 48.43 18.9 49.13 19.12C48.7 19.85 49.13 20.7 49.47 21.36C49.88 22.15 49.91 22.93 49.9 23.8C49.9 24.61 50.09 25.53 49.72 26.28C49.33 27.1 49.25 28.2 49.25 29.12C49.25 29.06 49.27 28.98 49.31 28.94C49.27 29.01 49.15 29.46 49.25 29.48C49.43 29.53 49.74 27.81 49.77 27.62C50.09 26.09 50.2 24.51 50.11 22.94
           M40.16 12.14C39.9 12.18 39.91 11.75 39.72 11.64C39.38 11.47 38.97 11.68 38.68 11.84C37.68 12.38 37.97 11.25 38.18 10.69C38.2 10.6 38.84 10.72 38.95 10.71C39.27 10.65 39.77 10.52 40.02 10.81C40.27 11.09 40.45 11.35 40.74 11.61C41.09 11.93 40.43 12.11 40.16 12.14
           M45.06 28.05C44.72 28.45 44.29 28.76 44.04 29.21C43.74 29.73 43.88 30.36 43.88 30.93C44.45 30.67 44.7 29.92 44.99 29.42C45.2 29.04 45.65 28.31 45.06 28.05
           M37.83 40.54C36.38 41.56 34.16 40.65 32.52 40.83C32.15 40.86 31.79 40.93 31.51 41.2C31.12 41.52 30.95 41.47 30.43 41.47C29.31 41.47 28.2 41.47 27.1 41.47C29.5 42.13 32.04 42.31 34.5 41.97C35.68 41.81 36.84 41.54 37.97 41.16C38.06 41.13 38.9 40.68 38.59 40.58C38.36 40.49 38.06 40.63 37.83 40.54
           M22.76 9.77C23.07 9.25 23.28 8.67 23.42 8.07C21.34 9.19 19.48 10.73 17.98 12.56C18.89 12.27 19.72 11.76 20.54 11.27C20.95 11.02 21.35 10.78 21.73 10.53C22.06 10.32 22.54 10.1 22.76 9.77
           M20.89 37.66C20.76 37.77 20.62 37.93 20.45 37.97C20.9 38.36 21.39 38.72 21.89 39.06C21.51 38.63 21.37 38.02 20.89 37.66"
        transform="matrix(1.3976,0,0,1.3976,-12.7314,-1.5545)"
  />
 </g>
</svg>
