<?xml version="1.0" encoding="UTF-8" standalone="yes"?>
<svg version="1.1" width="64" height="64" color-interpolation="linearRGB"
     xmlns:svg="http://www.w3.org/2000/svg" xmlns="http://www.w3.org/2000/svg">
 <g>
  <path style="fill:none; stroke:#000000; stroke-opacity:0.396; stroke-width:6.3624; stroke-linejoin:round"
        d="M17.45 110.92V102.1L36.77 58.85L17.49 20.01V11.4H62.49V24.47H31.77L48.36 58.54L30.93 97.75H62.49V110.92H17.45z"
        transform="matrix(0.9027,0,0,0.5372,-1.6113,0.805)"
  />
  <linearGradient id="gradient0" gradientUnits="userSpaceOnUse" x1="58.15" y1="3.86" x2="57.45" y2="44.43">
   <stop offset="0" stop-color="#abd5ff"/>
   <stop offset="1" stop-color="#045cb6"/>
  </linearGradient>
  <path style="fill:url(#gradient0)"
        d="M17.45 110.92V102.1L36.77 58.85L17.49 20.01V11.4H62.49V24.47H31.77L48.36 58.54L30.93 97.75H62.49V110.92H17.45z"
        transform="matrix(0.9027,0,0,0.5372,-3.6113,-1.1949)"
  />
  <path style="fill:none; stroke:#031f9c; stroke-width:6.3624; stroke-linejoin:round"
        d="M17.45 110.92V102.1L36.77 58.85L17.49 20.01V11.4H62.49V24.47H31.77L48.36 58.54L30.93 97.75H62.49V110.92H17.45z"
        transform="matrix(0.9027,0,0,0.5372,-3.6113,-1.1949)"
  />
 </g>
</svg>
