<?xml version="1.0" encoding="UTF-8" standalone="yes"?>
<svg version="1.1" width="64" height="64" color-interpolation="linearRGB"
     xmlns:svg="http://www.w3.org/2000/svg" xmlns="http://www.w3.org/2000/svg">
 <g>
  <path style="fill:none; stroke:#000000; stroke-opacity:0.4; stroke-width:4; stroke-linecap:round; stroke-linejoin:round"
        d="M23 4C23 4 8 18.5 8 26.86C8 35.22 14.71 42 23 42C31.28 42 38 35.22 38 26.86C38 18.5 23 4 23 4z"
        transform="matrix(1.2499,0,0,1.2731,5.0001,4.9821)"
  />
  <path style="fill:none; stroke:#004080; stroke-width:4; stroke-linejoin:round"
        d="M21 2C21 2 6 16.5 6 24.86C6 33.22 12.71 40 21 40C29.28 40 36 33.22 36 24.86C36 16.5 21 2 21 2z"
        transform="matrix(1.2499,0,0,1.2731,5.0001,4.9821)"
  />
  <linearGradient id="gradient0" gradientUnits="userSpaceOnUse" x1="128" y1="1.99" x2="128" y2="40">
   <stop offset="0" stop-color="#abd5ff"/>
   <stop offset="1" stop-color="#006cd9"/>
  </linearGradient>
  <path style="fill:url(#gradient0)"
        d="M21 2C21 2 6 16.5 6 24.86C6 33.22 12.71 40 21 40C29.28 40 36 33.22 36 24.86C36 16.5 21 2 21 2z"
        transform="matrix(1.2499,0,0,1.2731,5.0001,4.9821)"
  />
  <path style="fill:#ffffff; fill-opacity:0.6862"
        d="M21 4C21 4 8 17.81 8 25C8 32.16 13.81 38 21 38H20.98C16.02 38 11.98 32.16 11.98 25C11.98 17.81 21 4 21 4z"
        transform="matrix(1.2499,0,0,1.2731,5.0001,4.9821)"
  />
 </g>
</svg>
