<?xml version="1.0" encoding="UTF-8" standalone="yes"?>
<svg version="1.1" width="64" height="64" color-interpolation="linearRGB"
     xmlns:svg="http://www.w3.org/2000/svg" xmlns="http://www.w3.org/2000/svg">
 <g>
  <path style="fill:#010101; fill-opacity:0.4392"
        d="M14.81 6.93C12.64 6.93 10.86 8.69 10.86 10.86C10.86 26.29 10.86 41.72 10.86 57.15C10.86 57.47 10.86 57.8 10.86 58.13C10.86 60.31 12.64 62.06 14.81 62.06C26.95 62.06 39.09 62.06 51.24 62.06C52.86 62.06 54.2 60.75 54.2 59.11C54.2 58.07 54.2 57.02 54.2 55.97C55.34 55.58 56.15 54.49 56.15 53.2C56.15 38.77 56.15 24.32 56.15 9.88C56.15 8.26 54.84 6.93 53.2 6.93C40.4 6.93 27.61 6.93 14.81 6.93V6.93V6.93z"
  />
  <linearGradient id="gradient0" gradientUnits="userSpaceOnUse" x1="116.24" y1="28.31" x2="116.24" y2="53.34">
   <stop offset="0" stop-color="#abd5ff"/>
   <stop offset="1" stop-color="#006cd9"/>
  </linearGradient>
  <path style="fill:url(#gradient0)"
        d="M12 6C24.66 6 37.33 6 50 6C50.54 6 51 6.44 51 7C51 21.33 51 35.66 51 50C51 50.54 50.54 51 50 51C39.66 51 29.33 51 19 51C19 39.66 19 28.33 19 17C18 17 19.54 16 19 16C16 16 17 16.45 17 17C17 28.33 17 39.66 17 51C15.33 51 13.66 51 12 51C12.18 49.79 10.64 51.59 10 52C10 37.33 10 22.66 10 8C10 6.9 10.9 6 12 6V6V6z"
  />
  <path style="fill:#deba8a"
        d="M11.81 53.15C24.2 53.1 36.6 53.05 49 53C49 54 49 55 49 56C49 56.54 48.54 57 48 57C36 57 24 57 12 57C10.9 57 10 56.08 10 55C10 53.77 11.21 53.15 11.81 53.15V53.15V53.15z"
  />
  <path style="fill:#003f80"
        d="M12 6C24.66 6 37.33 6 50 6C50.54 6 51 6.44 51 7C51 21.33 51 35.66 51 50C51 50.54 50.54 51 50 51C39.66 51 29.33 51 19 51C19 39.66 19 28.33 19 17C18 17 19.54 16 19 16C16 16 17 16.45 17 17C17 28.33 17 39.66 17 51C15.33 51 13.66 51 12 51C12.18 49.79 10.64 51.59 10 52C10 37.33 10 22.66 10 8C10 6.9 10.9 6 12 6V6V6z
           M11.81 53.15C24.2 53.1 36.6 53.05 49 53C49 54 49 55 49 56C49 56.54 48.54 57 48 57C36 57 24 57 12 57C10.9 57 10 56.08 10 55C10 53.77 11.21 53.15 11.81 53.15V53.15V53.15z
           M12.8 47.25C12.25 47.25 11.81 47.7 11.81 48.24C11.81 48.77 12.25 49.22 12.8 49.22C13.45 49.22 14.1 49.22 14.76 49.22C15.31 49.22 15.75 48.77 15.75 48.24C15.75 47.7 15.31 47.25 14.76 47.25C14.1 47.25 13.45 47.25 12.8 47.25V47.25V47.25z
           M12.8 42.33C12.25 42.33 11.81 42.77 11.81 43.31C11.81 43.86 12.25 44.29 12.8 44.29C13.45 44.29 14.1 44.29 14.76 44.29C15.31 44.29 15.75 43.86 15.75 43.31C15.75 42.77 15.31 42.33 14.76 42.33C14.1 42.33 13.45 42.33 12.8 42.33V42.33V42.33z
           M12.8 37.4C12.25 37.4 11.81 37.84 11.81 38.4C11.81 38.93 12.25 39.38 12.8 39.38C13.45 39.38 14.1 39.38 14.76 39.38C15.31 39.38 15.75 38.93 15.75 38.4C15.75 37.84 15.31 37.4 14.76 37.4C14.1 37.4 13.45 37.4 12.8 37.4V37.4V37.4z
           M12.8 32.49C12.25 32.49 11.81 32.93 11.81 33.47C11.81 34.02 12.25 34.45 12.8 34.45C13.45 34.45 14.1 34.45 14.76 34.45C15.31 34.45 15.75 34.02 15.75 33.47C15.75 32.93 15.31 32.49 14.76 32.49C14.1 32.49 13.45 32.49 12.8 32.49V32.49V32.49z
           M30 33C29.45 33 29 33.45 29 34C29 34.54 29.45 35 30 35C33.33 35 36.66 35 40 35C40.54 35 41 34.54 41 34C41 33.45 40.54 33 40 33C36.66 33 33.33 33 30 33V33V33z
           M12.8 27.55C12.25 27.55 11.81 28.01 11.81 28.54C11.81 29.09 12.25 29.53 12.8 29.53C13.45 29.53 14.1 29.53 14.76 29.53C15.31 29.53 15.75 29.09 15.75 28.54C15.75 28.01 15.31 27.55 14.76 27.55C14.1 27.55 13.45 27.55 12.8 27.55V27.55V27.55z
           M40 29C39.45 29 39 29.45 39 30C39 30.54 39.45 31 40 31C41.66 31 43.33 31 45 31C45.54 31 46 30.54 46 30C46 29.45 45.54 29 45 29C43.33 29 41.66 29 40 29V29V29z
           M27 29C26.45 29 26 29.45 26 30C26 30.54 26.45 31 27 31C30.33 31 33.66 31 37 31C37.54 31 38 31 38 30C38 29 37.54 29 37 29C33.66 29 30.33 29 27 29V29V29z
           M12.8 22.63C12.25 22.63 11.81 23.07 11.81 23.62C11.81 24.17 12.25 24.61 12.8 24.61C13.45 24.61 14.1 24.61 14.76 24.61C15.31 24.61 15.75 24.17 15.75 23.62C15.75 23.07 15.31 22.63 14.76 22.63C14.1 22.63 13.45 22.63 12.8 22.63V22.63V22.63z
           M12.8 17.71C12.25 17.71 11.81 18.15 11.81 18.7C11.81 19.25 12.25 19.69 12.8 19.69C13.45 19.69 14.1 19.69 14.76 19.69C15.31 19.69 15.75 19.25 15.75 18.7C15.75 18.15 15.31 17.71 14.76 17.71C14.1 17.71 13.45 17.71 12.8 17.71V17.71V17.71z
           M12.8 12.8C12.25 12.8 11.81 13.23 11.81 13.77C11.81 14.31 12.25 14.76 12.8 14.76C13.45 14.76 14.1 14.76 14.76 14.76C15.31 14.76 15.75 14.31 15.75 13.77C15.75 13.23 15.31 12.8 14.76 12.8C14.1 12.8 13.45 12.8 12.8 12.8V12.8V12.8z
           M18 8C17.45 8 17 8.44 17 9C17 10.33 17 11.66 17 13C17 13.53 18 14 18.7 13.77C19.21 13.61 19 13.53 19 13C19 11.66 19 10.33 19 9C19 8.44 18.54 8 18 8V8V8z
           M12.8 7.86C12.25 7.86 11.81 8.31 11.81 8.85C11.81 9.39 12.25 9.84 12.8 9.84C13.45 9.84 14.1 9.84 14.76 9.84C15.31 9.84 15.75 9.39 15.75 8.85C15.75 8.31 15.31 7.86 14.76 7.86C14.1 7.86 13.45 7.86 12.8 7.86V7.86V7.86z
           M11.81 3.93C9.64 3.93 7.86 5.69 7.86 7.86C7.86 23.29 7.86 38.72 7.86 54.15C7.86 54.47 7.86 54.8 7.86 55.13C7.86 57.31 9.64 59.06 11.81 59.06C23.95 59.06 36.09 59.06 48.24 59.06C49.86 59.06 51.2 57.75 51.2 56.11C51.2 55.07 51.2 54.02 51.2 52.97C52.34 52.58 53.15 51.49 53.15 50.2C53.15 35.77 53.15 21.32 53.15 6.88C53.15 5.26 51.84 3.93 50.2 3.93C37.4 3.93 24.61 3.93 11.81 3.93V3.93V3.93z"
  />
  <path style="fill:none; stroke:#800000; stroke-width:4"
        d="M35 6C35 11.33 35 16.66 35 22C36.66 20.66 38.33 19.33 40 18C41.66 19.33 43.33 20.66 45 22C45 16.66 45 11.33 45 6C41.66 6 38.33 6 35 6V6V6z"
  />
  <linearGradient id="gradient1" gradientUnits="userSpaceOnUse" x1="102.06" y1="8.43" x2="102.06" y2="21.08">
   <stop offset="0" stop-color="#ffabab"/>
   <stop offset="1" stop-color="#d90000"/>
  </linearGradient>
  <path style="fill:url(#gradient1)"
        d="M35 6C35 11.33 35 16.66 35 22C36.66 20.66 38.33 19.33 40 18C41.66 19.33 43.33 20.66 45 22C45 16.66 45 11.33 45 6C41.66 6 38.33 6 35 6V6V6z"
  />
 </g>
</svg>
