<?xml version="1.0" encoding="UTF-8" standalone="yes"?>
<svg version="1.1" width="64" height="64" color-interpolation="linearRGB"
     xmlns:svg="http://www.w3.org/2000/svg" xmlns="http://www.w3.org/2000/svg">
 <g>
  <path style="fill:#010101; fill-opacity:0.4431"
        d="M11.81 3.93C9.64 3.93 7.87 5.7 7.87 7.87V54.15V55.13C7.87 57.31 9.64 59.07 11.81 59.07H48.24C49.87 59.07 51.2 57.75 51.2 56.12V52.98C52.34 52.58 53.16 51.49 53.16 50.21V6.89C53.16 5.26 51.84 3.93 50.21 3.93H11.81z"
        transform="matrix(1,0,0,1,3,3)"
  />
  <linearGradient id="gradient0" gradientUnits="userSpaceOnUse" x1="116.25" y1="28.32" x2="116.25" y2="53.34">
   <stop offset="0" stop-color="#abd5ff"/>
   <stop offset="1" stop-color="#006cd9"/>
  </linearGradient>
  <path style="fill:url(#gradient0)"
        d="M12 6H50C50.54 6 51 6.45 51 7V50C51 50.54 50.54 51 50 51H19V17C18 17 19.54 16 19 16C16 16 17 16.45 17 17V51H12C12.18 49.79 10.64 51.59 10 52V8C10 6.91 10.91 6 12 6z"
  />
  <path style="fill:#deba8a"
        d="M11.81 53.16L49 53V56C49 56.54 48.54 57 48 57H12C10.91 57 10 56.08 10 55C10 53.77 11.21 53.16 11.81 53.16z"
  />
  <path style="fill:#003f80"
        d="M11.81 3.93C9.64 3.93 7.87 5.7 7.87 7.87V54.15V55.13C7.87 57.31 9.64 59.07 11.81 59.07H48.24C49.87 59.07 51.2 57.75 51.2 56.12V52.98C52.34 52.58 53.16 51.49 53.16 50.21V6.89C53.16 5.26 51.84 3.93 50.21 3.93H11.81z
           M12.8 7.87C12.25 7.87 11.81 8.31 11.81 8.86C11.81 9.4 12.25 9.84 12.8 9.84H14.76C15.31 9.84 15.75 9.4 15.75 8.86C15.75 8.31 15.31 7.87 14.76 7.87H12.8z
           M18 8C17.45 8 17 8.45 17 9V13C17 13.54 18 14 18.7 13.78C19.22 13.62 19 13.54 19 13V9C19 8.45 18.54 8 18 8z
           M12.8 12.8C12.25 12.8 11.81 13.24 11.81 13.78C11.81 14.32 12.25 14.76 12.8 14.76H14.76C15.31 14.76 15.75 14.32 15.75 13.78C15.75 13.24 15.31 12.8 14.76 12.8H12.8z
           M12.8 17.72C12.25 17.72 11.81 18.16 11.81 18.7C11.81 19.25 12.25 19.69 12.8 19.69H14.76C15.31 19.69 15.75 19.25 15.75 18.7C15.75 18.16 15.31 17.72 14.76 17.72H12.8z
           M12.8 22.64C12.25 22.64 11.81 23.08 11.81 23.63C11.81 24.17 12.25 24.61 12.8 24.61H14.76C15.31 24.61 15.75 24.17 15.75 23.63C15.75 23.08 15.31 22.64 14.76 22.64H12.8z
           M27 29C26.45 29 26 29.45 26 30C26 30.54 26.45 31 27 31H37C37.54 31 38 31 38 30C38 29 37.54 29 37 29H27z
           M40 29C39.45 29 39 29.45 39 30C39 30.54 39.45 31 40 31H45C45.54 31 46 30.54 46 30C46 29.45 45.54 29 45 29H40z
           M12.8 27.56C12.25 27.56 11.81 28.01 11.81 28.55C11.81 29.09 12.25 29.53 12.8 29.53H14.76C15.31 29.53 15.75 29.09 15.75 28.55C15.75 28.01 15.31 27.56 14.76 27.56H12.8z
           M30 33C29.45 33 29 33.45 29 34C29 34.54 29.45 35 30 35H40C40.54 35 41 34.54 41 34C41 33.45 40.54 33 40 33H30z
           M12.8 32.49C12.25 32.49 11.81 32.93 11.81 33.47C11.81 34.02 12.25 34.46 12.8 34.46H14.76C15.31 34.46 15.75 34.02 15.75 33.47C15.75 32.93 15.31 32.49 14.76 32.49H12.8z
           M12.8 37.41C12.25 37.41 11.81 37.85 11.81 38.4C11.81 38.94 12.25 39.38 12.8 39.38H14.76C15.31 39.38 15.75 38.94 15.75 38.4C15.75 37.85 15.31 37.41 14.76 37.41H12.8z
           M12.8 42.33C12.25 42.33 11.81 42.77 11.81 43.32C11.81 43.86 12.25 44.3 12.8 44.3H14.76C15.31 44.3 15.75 43.86 15.75 43.32C15.75 42.77 15.31 42.33 14.76 42.33H12.8z
           M12.8 47.26C12.25 47.26 11.81 47.7 11.81 48.24C11.81 48.78 12.25 49.23 12.8 49.23H14.76C15.31 49.23 15.75 48.78 15.75 48.24C15.75 47.7 15.31 47.26 14.76 47.26H12.8z
           M11.81 53.16L49 53V56C49 56.54 48.54 57 48 57H12C10.91 57 10 56.08 10 55C10 53.77 11.21 53.16 11.81 53.16z
           M12 6H50C50.54 6 51 6.45 51 7V50C51 50.54 50.54 51 50 51H19V17C18 17 19.54 16 19 16C16 16 17 16.45 17 17V51H12C12.18 49.79 10.64 51.59 10 52V8C10 6.91 10.91 6 12 6z"
  />
  <path style="fill:none; stroke:#800000; stroke-width:4"
        d="M35 6V22L40 18L45 22V6H35z"
  />
  <linearGradient id="gradient1" gradientUnits="userSpaceOnUse" x1="102.06" y1="8.43" x2="102.06" y2="21.08">
   <stop offset="0" stop-color="#ffabab"/>
   <stop offset="1" stop-color="#d90000"/>
  </linearGradient>
  <path style="fill:url(#gradient1)"
        d="M35 6V22L40 18L45 22V6H35z"
  />
 </g>
</svg>
