<?xml version="1.0" encoding="UTF-8" standalone="yes"?>
<svg version="1.1" width="64" height="64" color-interpolation="linearRGB"
     xmlns:svg="http://www.w3.org/2000/svg" xmlns="http://www.w3.org/2000/svg">
 <g>
  <path style="fill:none; stroke:#010101; stroke-opacity:0.3921; stroke-width:4; stroke-linecap:round; stroke-linejoin:round"
        d="M30.36 5.9C30.36 9.15 30.36 12.42 30.36 15.68C31.45 15.68 32.52 15.68 33.61 15.68C33.61 12.42 33.61 9.15 33.61 5.9C32.52 5.9 31.45 5.9 30.36 5.9V5.9V5.9V5.9V5.9V5.9V5.9z
           M30.36 48.29C30.36 51.56 30.36 54.81 30.36 58.08C31.45 58.08 32.52 58.08 33.61 58.08C33.61 54.81 33.61 51.56 33.61 48.29C32.52 48.29 31.45 48.29 30.36 48.29V48.29V48.29V48.29V48.29V48.29V48.29z
           M5.9 30.36C5.9 31.45 5.9 32.52 5.9 33.61C9.15 33.61 12.42 33.61 15.68 33.61C15.68 32.52 15.68 31.45 15.68 30.36C12.42 30.36 9.15 30.36 5.9 30.36V30.36V30.36V30.36V30.36V30.36V30.36z
           M48.29 30.36C48.29 31.45 48.29 32.52 48.29 33.61C51.56 33.61 54.81 33.61 58.08 33.61C58.08 32.52 58.08 31.45 58.08 30.36C54.81 30.36 51.56 30.36 48.29 30.36V30.36V30.36V30.36V30.36V30.36V30.36z
           M44.08 41.77C43.31 42.54 42.54 43.31 41.77 44.08C44.08 46.38 46.38 48.68 48.68 51C49.45 50.22 50.22 49.45 51 48.68C48.68 46.38 46.38 44.08 44.08 41.77V41.77V41.77V41.77V41.77V41.77V41.77z
           M14.72 12.42C13.96 13.18 13.18 13.96 12.42 14.72C14.72 17.03 17.03 19.34 19.34 21.64C20.11 20.87 20.87 20.11 21.64 19.34C19.34 17.03 17.03 14.72 14.72 12.42V12.42V12.42V12.42V12.42V12.42V12.42z
           M19.34 41.77C17.03 44.08 14.72 46.38 12.42 48.68C13.18 49.45 13.96 50.22 14.72 51C17.03 48.68 19.34 46.38 21.64 44.08C20.87 43.31 20.11 42.54 19.34 41.77V41.77V41.77V41.77V41.77V41.77V41.77z
           M48.68 12.42C46.38 14.72 44.08 17.03 41.77 19.34C42.54 20.11 43.31 20.87 44.08 21.64C46.38 19.34 48.68 17.03 51 14.72C50.22 13.96 49.45 13.18 48.68 12.42V12.42V12.42V12.42V12.42V12.42V12.42z
           M31.98 22.2C37.4 22.2 41.77 26.56 41.77 31.98C41.77 37.4 37.4 41.77 31.98 41.77C26.56 41.77 22.2 37.4 22.2 31.98C22.2 26.56 26.56 22.2 31.98 22.2V22.2V22.2V22.2V22.2V22.2V22.2z
           M31.98 18.95C24.8 18.95 18.95 24.8 18.95 31.98C18.95 39.16 24.8 45.02 31.98 45.02C39.16 45.02 45.02 39.16 45.02 31.98C45.02 24.8 39.16 18.95 31.98 18.95V18.95V18.95V18.95V18.95V18.95V18.95z"
        transform="matrix(1,0,0,1,2,2)"
  />
  <path style="fill:#000000"
        d="M31.98 22.2C37.4 22.2 41.77 26.56 41.77 31.98C41.77 37.4 37.4 41.77 31.98 41.77C26.56 41.77 22.2 37.4 22.2 31.98C22.2 26.56 26.56 22.2 31.98 22.2V22.2V22.2V22.2V22.2V22.2V22.2z
           M31.98 18.95C24.8 18.95 18.95 24.8 18.95 31.98C18.95 39.16 24.8 45.02 31.98 45.02C39.16 45.02 45.02 39.16 45.02 31.98C45.02 24.8 39.16 18.95 31.98 18.95V18.95V18.95V18.95V18.95V18.95V18.95z"
  />
  <linearGradient id="gradient0" gradientUnits="userSpaceOnUse" x1="72.61" y1="9.62" x2="72.46" y2="53.62">
   <stop offset="0" stop-color="#ababab"/>
   <stop offset="1" stop-color="#414141"/>
  </linearGradient>
  <path style="fill:url(#gradient0)"
        d="M31.98 18.95C24.8 18.95 18.95 24.8 18.95 31.98C18.95 39.16 24.8 45.02 31.98 45.02C39.16 45.02 45.02 39.16 45.02 31.98C45.02 24.8 39.16 18.95 31.98 18.95V18.95V18.95V18.95V18.95V18.95V18.95z"
        transform="matrix(0.7699,0,0,0.7699,7.3596,7.3596)"
  />
  <path style="fill:none; stroke:#000000; stroke-width:4; stroke-linecap:round; stroke-linejoin:round"
        d="M30.36 5.9C30.36 9.15 30.36 12.42 30.36 15.68C31.45 15.68 32.52 15.68 33.61 15.68C33.61 12.42 33.61 9.15 33.61 5.9C32.52 5.9 31.45 5.9 30.36 5.9V5.9V5.9V5.9V5.9V5.9V5.9z
           M30.36 48.29C30.36 51.56 30.36 54.81 30.36 58.08C31.45 58.08 32.52 58.08 33.61 58.08C33.61 54.81 33.61 51.56 33.61 48.29C32.52 48.29 31.45 48.29 30.36 48.29V48.29V48.29V48.29V48.29V48.29V48.29z
           M5.9 30.36C5.9 31.45 5.9 32.52 5.9 33.61C9.15 33.61 12.42 33.61 15.68 33.61C15.68 32.52 15.68 31.45 15.68 30.36C12.42 30.36 9.15 30.36 5.9 30.36V30.36V30.36V30.36V30.36V30.36V30.36z
           M48.29 30.36C48.29 31.45 48.29 32.52 48.29 33.61C51.56 33.61 54.81 33.61 58.08 33.61C58.08 32.52 58.08 31.45 58.08 30.36C54.81 30.36 51.56 30.36 48.29 30.36V30.36V30.36V30.36V30.36V30.36V30.36z
           M44.08 41.77C43.31 42.54 42.54 43.31 41.77 44.08C44.08 46.38 46.38 48.68 48.68 51C49.45 50.22 50.22 49.45 51 48.68C48.68 46.38 46.38 44.08 44.08 41.77V41.77V41.77V41.77V41.77V41.77V41.77z
           M14.72 12.42C13.96 13.18 13.18 13.96 12.42 14.72C14.72 17.03 17.03 19.34 19.34 21.64C20.11 20.87 20.87 20.11 21.64 19.34C19.34 17.03 17.03 14.72 14.72 12.42V12.42V12.42V12.42V12.42V12.42V12.42z
           M19.34 41.77C17.03 44.08 14.72 46.38 12.42 48.68C13.18 49.45 13.96 50.22 14.72 51C17.03 48.68 19.34 46.38 21.64 44.08C20.87 43.31 20.11 42.54 19.34 41.77V41.77V41.77V41.77V41.77V41.77V41.77z
           M48.68 12.42C46.38 14.72 44.08 17.03 41.77 19.34C42.54 20.11 43.31 20.87 44.08 21.64C46.38 19.34 48.68 17.03 51 14.72C50.22 13.96 49.45 13.18 48.68 12.42V12.42V12.42V12.42V12.42V12.42V12.42z"
  />
  <linearGradient id="gradient1" gradientUnits="userSpaceOnUse" x1="72.61" y1="9.62" x2="72.46" y2="53.62">
   <stop offset="0" stop-color="#ababab"/>
   <stop offset="1" stop-color="#414141"/>
  </linearGradient>
  <path style="fill:url(#gradient1)"
        d="M30.36 5.9C30.36 9.15 30.36 12.42 30.36 15.68C31.45 15.68 32.52 15.68 33.61 15.68C33.61 12.42 33.61 9.15 33.61 5.9C32.52 5.9 31.45 5.9 30.36 5.9V5.9V5.9V5.9V5.9V5.9V5.9z
           M30.36 48.29C30.36 51.56 30.36 54.81 30.36 58.08C31.45 58.08 32.52 58.08 33.61 58.08C33.61 54.81 33.61 51.56 33.61 48.29C32.52 48.29 31.45 48.29 30.36 48.29V48.29V48.29V48.29V48.29V48.29V48.29z
           M5.9 30.36C5.9 31.45 5.9 32.52 5.9 33.61C9.15 33.61 12.42 33.61 15.68 33.61C15.68 32.52 15.68 31.45 15.68 30.36C12.42 30.36 9.15 30.36 5.9 30.36V30.36V30.36V30.36V30.36V30.36V30.36z
           M48.29 30.36C48.29 31.45 48.29 32.52 48.29 33.61C51.56 33.61 54.81 33.61 58.08 33.61C58.08 32.52 58.08 31.45 58.08 30.36C54.81 30.36 51.56 30.36 48.29 30.36V30.36V30.36V30.36V30.36V30.36V30.36z
           M44.08 41.77C43.31 42.54 42.54 43.31 41.77 44.08C44.08 46.38 46.38 48.68 48.68 51C49.45 50.22 50.22 49.45 51 48.68C48.68 46.38 46.38 44.08 44.08 41.77V41.77V41.77V41.77V41.77V41.77V41.77z
           M14.72 12.42C13.96 13.18 13.18 13.96 12.42 14.72C14.72 17.03 17.03 19.34 19.34 21.64C20.11 20.87 20.87 20.11 21.64 19.34C19.34 17.03 17.03 14.72 14.72 12.42V12.42V12.42V12.42V12.42V12.42V12.42z
           M19.34 41.77C17.03 44.08 14.72 46.38 12.42 48.68C13.18 49.45 13.96 50.22 14.72 51C17.03 48.68 19.34 46.38 21.64 44.08C20.87 43.31 20.11 42.54 19.34 41.77V41.77V41.77V41.77V41.77V41.77V41.77z
           M48.68 12.42C46.38 14.72 44.08 17.03 41.77 19.34C42.54 20.11 43.31 20.87 44.08 21.64C46.38 19.34 48.68 17.03 51 14.72C50.22 13.96 49.45 13.18 48.68 12.42V12.42V12.42V12.42V12.42V12.42V12.42z"
  />
 </g>
</svg>
