<?xml version="1.0" encoding="UTF-8" standalone="yes"?>
<svg version="1.1" width="64" height="64" color-interpolation="linearRGB"
     xmlns:svg="http://www.w3.org/2000/svg" xmlns="http://www.w3.org/2000/svg">
 <g>
  <path style="fill:none; stroke:#010101; stroke-opacity:0.3882; stroke-width:3"
        d="M32.97 20.95C25.79 20.95 19.95 26.79 19.95 33.97C19.95 41.15 25.79 47.02 32.97 47.02C40.15 47.02 46.02 41.15 46.02 33.97C46.02 26.79 40.15 20.95 32.97 20.95V20.95V20.95V20.95V20.95V20.95V20.95V20.95V20.95V20.95V20.95z
           M32.97 24.2C38.4 24.2 42.77 28.54 42.77 33.97C42.77 39.4 38.4 43.77 32.97 43.77C27.54 43.77 23.2 39.4 23.2 33.97C23.2 28.54 27.54 24.2 32.97 24.2V24.2V24.2V24.2V24.2V24.2V24.2V24.2V24.2V24.2V24.2z
           M31.36 14.42C31.36 15.51 31.36 16.6 31.36 17.68C32.45 17.68 33.52 17.68 34.61 17.68C34.61 16.6 34.61 15.51 34.61 14.42C33.52 14.42 32.45 14.42 31.36 14.42V14.42V14.42V14.42V14.42V14.42V14.42V14.42V14.42V14.42z
           M31.36 50.29C31.36 51.38 31.36 52.47 31.36 53.56C32.45 53.56 33.52 53.56 34.61 53.56C34.61 52.47 34.61 51.38 34.61 50.29C33.52 50.29 32.45 50.29 31.36 50.29V50.29V50.29V50.29V50.29V50.29V50.29V50.29V50.29V50.29z
           M13.42 32.36C13.42 33.45 13.42 34.52 13.42 35.61C14.51 35.61 15.6 35.61 16.68 35.61C16.68 34.52 16.68 33.45 16.68 32.36C15.6 32.36 14.51 32.36 13.42 32.36V32.36V32.36V32.36V32.36V32.36V32.36V32.36V32.36V32.36z
           M49.29 32.36C49.29 33.45 49.29 34.52 49.29 35.61C50.38 35.61 51.47 35.61 52.56 35.61C52.56 34.52 52.56 33.45 52.56 32.36C51.47 32.36 50.38 32.36 49.29 32.36V32.36V32.36V32.36V32.36V32.36V32.36V32.36V32.36V32.36z
           M45.4 44.09C44.63 44.86 43.86 45.63 43.09 46.4C43.86 47.18 44.63 47.93 45.4 48.72C46.18 47.93 46.93 47.18 47.72 46.4C46.93 45.63 46.18 44.86 45.4 44.09V44.09V44.09V44.09V44.09V44.09V44.09V44.09V44.09V44.09z
           M20.62 44.09C19.86 44.86 19.05 45.63 18.29 46.4C19.05 47.18 19.86 47.93 20.62 48.72C21.37 47.93 22.12 47.18 22.93 46.4C22.12 45.63 21.37 44.86 20.62 44.09V44.09V44.09V44.09V44.09V44.09V44.09V44.09V44.09V44.09z
           M45.4 19.29C44.63 20.05 43.86 20.86 43.09 21.62C43.86 22.37 44.63 23.12 45.4 23.93C46.18 23.12 46.93 22.37 47.72 21.62C46.93 20.86 46.18 20.05 45.4 19.29V19.29V19.29V19.29V19.29V19.29V19.29V19.29V19.29V19.29z
           M20.62 19.29C19.86 20.05 19.05 20.86 18.29 21.62C19.05 22.37 19.86 23.12 20.62 23.93C21.37 23.12 22.12 22.37 22.93 21.62C22.12 20.86 21.37 20.05 20.62 19.29V19.29V19.29V19.29V19.29V19.29V19.29V19.29V19.29V19.29z"
        transform="matrix(1,0,0,1,0,-1)"
  />
  <path style="fill:#000000"
        d="M31.96 22.2C37.4 22.2 41.77 26.54 41.77 31.96C41.77 37.4 37.4 41.77 31.96 41.77C26.54 41.77 22.2 37.4 22.2 31.96C22.2 26.54 26.54 22.2 31.96 22.2V22.2V22.2V22.2V22.2V22.2V22.2V22.2V22.2V22.2V22.2z
           M31.96 18.95C24.79 18.95 18.95 24.79 18.95 31.96C18.95 39.15 24.79 45.02 31.96 45.02C39.15 45.02 45.02 39.15 45.02 31.96C45.02 24.79 39.15 18.95 31.96 18.95V18.95V18.95V18.95V18.95V18.95V18.95V18.95V18.95V18.95V18.95z"
  />
  <linearGradient id="gradient0" gradientUnits="userSpaceOnUse" x1="72.61" y1="9.61" x2="72.45" y2="53.61">
   <stop offset="0" stop-color="#ababab"/>
   <stop offset="1" stop-color="#414141"/>
  </linearGradient>
  <path style="fill:url(#gradient0)"
        d="M31.96 22.2C37.4 22.2 41.77 26.54 41.77 31.96C41.77 37.4 37.4 41.77 31.96 41.77C26.54 41.77 22.2 37.4 22.2 31.96C22.2 26.54 26.54 22.2 31.96 22.2V22.2V22.2V22.2V22.2V22.2V22.2V22.2V22.2V22.2V22.2z"
  />
  <path style="fill:none; stroke:#000000; stroke-width:3.3631; stroke-linecap:round; stroke-linejoin:round"
        d="M30.36 12.42C30.36 13.51 30.36 14.6 30.36 15.68C31.45 15.68 32.52 15.68 33.61 15.68C33.61 14.6 33.61 13.51 33.61 12.42C32.52 12.42 31.45 12.42 30.36 12.42V12.42V12.42V12.42V12.42V12.42V12.42V12.42V12.42V12.42z
           M30.36 48.29C30.36 49.38 30.36 50.47 30.36 51.56C31.45 51.56 32.52 51.56 33.61 51.56C33.61 50.47 33.61 49.38 33.61 48.29C32.52 48.29 31.45 48.29 30.36 48.29V48.29V48.29V48.29V48.29V48.29V48.29V48.29V48.29V48.29z
           M12.42 30.36C12.42 31.45 12.42 32.52 12.42 33.61C13.51 33.61 14.6 33.61 15.68 33.61C15.68 32.52 15.68 31.45 15.68 30.36C14.6 30.36 13.51 30.36 12.42 30.36V30.36V30.36V30.36V30.36V30.36V30.36V30.36V30.36V30.36z
           M48.29 30.36C48.29 31.45 48.29 32.52 48.29 33.61C49.38 33.61 50.47 33.61 51.56 33.61C51.56 32.52 51.56 31.45 51.56 30.36C50.47 30.36 49.38 30.36 48.29 30.36V30.36V30.36V30.36V30.36V30.36V30.36V30.36V30.36V30.36z
           M44.4 42.09C43.63 42.86 42.86 43.63 42.09 44.4C42.86 45.18 43.63 45.93 44.4 46.72C45.18 45.93 45.93 45.18 46.72 44.4C45.93 43.63 45.18 42.86 44.4 42.09V42.09V42.09V42.09V42.09V42.09V42.09V42.09V42.09V42.09z
           M19.62 42.09C18.86 42.86 18.05 43.63 17.29 44.4C18.05 45.18 18.86 45.93 19.62 46.72C20.37 45.93 21.12 45.18 21.93 44.4C21.12 43.63 20.37 42.86 19.62 42.09V42.09V42.09V42.09V42.09V42.09V42.09V42.09V42.09V42.09z
           M44.4 17.29C43.63 18.05 42.86 18.86 42.09 19.62C42.86 20.37 43.63 21.12 44.4 21.93C45.18 21.12 45.93 20.37 46.72 19.62C45.93 18.86 45.18 18.05 44.4 17.29V17.29V17.29V17.29V17.29V17.29V17.29V17.29V17.29V17.29z
           M19.62 17.29C18.86 18.05 18.05 18.86 17.29 19.62C18.05 20.37 18.86 21.12 19.62 21.93C20.37 21.12 21.12 20.37 21.93 19.62C21.12 18.86 20.37 18.05 19.62 17.29V17.29V17.29V17.29V17.29V17.29V17.29V17.29V17.29V17.29z"
  />
  <linearGradient id="gradient1" gradientUnits="userSpaceOnUse" x1="72.61" y1="9.61" x2="72.45" y2="53.61">
   <stop offset="0" stop-color="#ababab"/>
   <stop offset="1" stop-color="#414141"/>
  </linearGradient>
  <path style="fill:url(#gradient1)"
        d="M30.36 12.42C30.36 13.51 30.36 14.6 30.36 15.68C31.45 15.68 32.52 15.68 33.61 15.68C33.61 14.6 33.61 13.51 33.61 12.42C32.52 12.42 31.45 12.42 30.36 12.42V12.42V12.42V12.42V12.42V12.42V12.42V12.42V12.42V12.42z
           M30.36 48.29C30.36 49.38 30.36 50.47 30.36 51.56C31.45 51.56 32.52 51.56 33.61 51.56C33.61 50.47 33.61 49.38 33.61 48.29C32.52 48.29 31.45 48.29 30.36 48.29V48.29V48.29V48.29V48.29V48.29V48.29V48.29V48.29V48.29z
           M12.42 30.36C12.42 31.45 12.42 32.52 12.42 33.61C13.51 33.61 14.6 33.61 15.68 33.61C15.68 32.52 15.68 31.45 15.68 30.36C14.6 30.36 13.51 30.36 12.42 30.36V30.36V30.36V30.36V30.36V30.36V30.36V30.36V30.36V30.36z
           M48.29 30.36C48.29 31.45 48.29 32.52 48.29 33.61C49.38 33.61 50.47 33.61 51.56 33.61C51.56 32.52 51.56 31.45 51.56 30.36C50.47 30.36 49.38 30.36 48.29 30.36V30.36V30.36V30.36V30.36V30.36V30.36V30.36V30.36V30.36z
           M44.4 42.09C43.63 42.86 42.86 43.63 42.09 44.4C42.86 45.18 43.63 45.93 44.4 46.72C45.18 45.93 45.93 45.18 46.72 44.4C45.93 43.63 45.18 42.86 44.4 42.09V42.09V42.09V42.09V42.09V42.09V42.09V42.09V42.09V42.09z
           M19.62 42.09C18.86 42.86 18.05 43.63 17.29 44.4C18.05 45.18 18.86 45.93 19.62 46.72C20.37 45.93 21.12 45.18 21.93 44.4C21.12 43.63 20.37 42.86 19.62 42.09V42.09V42.09V42.09V42.09V42.09V42.09V42.09V42.09V42.09z
           M44.4 17.29C43.63 18.05 42.86 18.86 42.09 19.62C42.86 20.37 43.63 21.12 44.4 21.93C45.18 21.12 45.93 20.37 46.72 19.62C45.93 18.86 45.18 18.05 44.4 17.29V17.29V17.29V17.29V17.29V17.29V17.29V17.29V17.29V17.29z
           M19.62 17.29C18.86 18.05 18.05 18.86 17.29 19.62C18.05 20.37 18.86 21.12 19.62 21.93C20.37 21.12 21.12 20.37 21.93 19.62C21.12 18.86 20.37 18.05 19.62 17.29V17.29V17.29V17.29V17.29V17.29V17.29V17.29V17.29V17.29z"
  />
 </g>
</svg>
