<?xml version="1.0" encoding="UTF-8" standalone="yes"?>
<svg version="1.1" width="64" height="64" color-interpolation="linearRGB"
     xmlns:svg="http://www.w3.org/2000/svg" xmlns="http://www.w3.org/2000/svg">
 <g>
  <path style="fill:none; stroke:#000000; stroke-opacity:0.4; stroke-width:4; stroke-linecap:round; stroke-linejoin:round"
        d="M37 42L42 35C42 35 43 27 31 14.98C19 2.99 11 3.99 11 3.99L4 8.98L14 16.98L18 12.98C18 12.98 24 13.98 28 17.98C32 22 33 28 33 28L29 32L37 42z"
        transform="matrix(1.4094,0,0,1.4093,0.9679,1.0208)"
  />
  <path style="fill:none; stroke:#005900; stroke-width:4; stroke-linecap:round; stroke-linejoin:round"
        d="M35 40L40 33C40 33 41 25 29 12.98C17 0.99 9 1.99 9 1.99L2 6.98L12 14.98L16 10.98C16 10.98 22 11.98 26 15.98C30 20 31 26 31 26L27 30L35 40z"
        transform="matrix(1.4094,0,0,1.4093,0.9679,1.0208)"
  />
  <linearGradient id="gradient0" gradientUnits="userSpaceOnUse" x1="128" y1="2" x2="128" y2="40">
   <stop offset="0" stop-color="#80ff80"/>
   <stop offset="1" stop-color="#00b200"/>
  </linearGradient>
  <path style="fill:url(#gradient0)"
        d="M35 40L40 33C40 33 41 25 29 12.98C17 0.99 9 1.99 9 1.99L2 6.98L12 14.98L16 10.98C16 10.98 22 11.98 26 15.98C30 20 31 26 31 26L27 30L35 40z"
        transform="matrix(1.4094,0,0,1.4093,0.9679,1.0208)"
  />
 </g>
</svg>
