<?xml version="1.0" encoding="UTF-8" standalone="yes"?>
<svg version="1.1" width="64" height="64" color-interpolation="linearRGB"
     xmlns:svg="http://www.w3.org/2000/svg" xmlns="http://www.w3.org/2000/svg">
 <g>
  <path style="fill:none; stroke:#000000; stroke-opacity:0.4; stroke-width:5.6374; stroke-linecap:round; stroke-linejoin:round"
        d="M53.11 60.21L60.16 50.34C60.16 50.34 61.57 39.07 44.65 22.13C27.74 5.23 16.47 6.64 16.47 6.64L6.6 13.67L20.69 24.95L26.33 19.31C26.33 19.31 34.79 20.72 40.43 26.36C46.06 32.02 47.47 40.48 47.47 40.48L41.84 46.11L53.11 60.21z"
        transform="matrix(0.871,0,0,0.871,4.1249,4.1259)"
  />
  <path style="fill:none; stroke:#005900; stroke-width:5.6374; stroke-linecap:round; stroke-linejoin:round"
        d="M50.29 57.39L57.34 47.52C57.34 47.52 58.75 36.25 41.84 19.31C24.92 2.41 13.65 3.82 13.65 3.82L3.78 10.85L17.88 22.13L23.51 16.49C23.51 16.49 31.97 17.9 37.61 23.54C43.24 29.2 44.65 37.66 44.65 37.66L39.02 43.29L50.29 57.39z"
        transform="matrix(0.871,0,0,0.871,4.1249,4.1259)"
  />
  <linearGradient id="gradient0" gradientUnits="userSpaceOnUse" x1="181.37" y1="3.83" x2="181.37" y2="57.39">
   <stop offset="0" stop-color="#80ff80"/>
   <stop offset="1" stop-color="#00b200"/>
  </linearGradient>
  <path style="fill:url(#gradient0)"
        d="M50.29 57.39L57.34 47.52C57.34 47.52 58.75 36.25 41.84 19.31C24.92 2.41 13.65 3.82 13.65 3.82L3.78 10.85L17.88 22.13L23.51 16.49C23.51 16.49 31.97 17.9 37.61 23.54C43.24 29.2 44.65 37.66 44.65 37.66L39.02 43.29L50.29 57.39z"
        transform="matrix(0.871,0,0,0.871,4.1249,4.1259)"
  />
 </g>
</svg>
