<?xml version="1.0" encoding="UTF-8" standalone="yes"?>
<svg version="1.1" width="64" height="64" color-interpolation="linearRGB"
     xmlns:svg="http://www.w3.org/2000/svg" xmlns="http://www.w3.org/2000/svg">
 <g>
  <path style="fill:none; stroke:#000000; stroke-opacity:0.4; stroke-width:5.2993; stroke-linecap:round; stroke-linejoin:round"
        d="M17.5 58.45V53.36H53.25V58.45H17.5z"
  />
  <path style="fill:none; stroke:#000000; stroke-opacity:0.4; stroke-width:5.2993"
        d="M23 17.72C23 27.9 31.25 29.18 31.25 34.27C31.25 39.36 23 40.63 23 50.81H47.75C47.75 40.63 39.5 39.36 39.5 34.27C39.5 29.18 47.75 27.9 47.75 17.72H23z"
  />
  <path style="fill:none; stroke:#0074b2; stroke-width:5.2993"
        d="M20.25 15.18C20.25 25.36 28.5 26.63 28.5 31.72C28.5 36.81 20.25 38.09 20.25 48.27H45C45 38.09 36.75 36.81 36.75 31.72C36.75 26.63 45 25.36 45 15.18H20.25z"
  />
  <path style="fill:none; stroke:#7d3602; stroke-width:5.2993; stroke-linecap:round; stroke-linejoin:round"
        d="M14.75 12.63V7.54H50.5V12.63H14.75z"
  />
  <linearGradient id="gradient0" gradientUnits="userSpaceOnUse" x1="139.8" y1="-40.54" x2="156.82" y2="-12.99">
   <stop offset="0" stop-color="#f8fcff"/>
   <stop offset="1" stop-color="#aae2ff"/>
  </linearGradient>
  <path style="fill:url(#gradient0)"
        d="M20.25 15.18C20.25 25.36 28.5 26.63 28.5 31.72C28.5 36.81 20.25 38.09 20.25 48.27H45C45 38.09 36.75 36.81 36.75 31.72C36.75 26.63 45 25.36 45 15.18H20.25z"
  />
  <path style="fill:none; stroke:#000000; stroke-opacity:0.4; stroke-width:5.2993; stroke-linecap:round; stroke-linejoin:round"
        d="M17.5 15.18V10.09H53.25V15.18H17.5z"
  />
  <linearGradient id="gradient1" gradientUnits="userSpaceOnUse" x1="86.25" y1="7.54" x2="86.25" y2="12.63">
   <stop offset="0" stop-color="#f5d18b"/>
   <stop offset="1" stop-color="#d77c3a"/>
  </linearGradient>
  <path style="fill:url(#gradient1)"
        d="M14.75 12.63V7.54H50.5V12.63H14.75z"
  />
  <path style="fill:none; stroke:#7d3602; stroke-width:5.2993; stroke-linecap:round; stroke-linejoin:round"
        d="M14.75 55.9V50.81H50.5V55.9H14.75z"
  />
  <linearGradient id="gradient2" gradientUnits="userSpaceOnUse" x1="86.25" y1="50.81" x2="86.25" y2="55.9">
   <stop offset="0" stop-color="#f5d18b"/>
   <stop offset="1" stop-color="#d77c3a"/>
  </linearGradient>
  <path style="fill:url(#gradient2)"
        d="M14.75 55.9V50.81H50.5V55.9H14.75z"
  />
  <linearGradient id="gradient3" gradientUnits="userSpaceOnUse" x1="120.62" y1="-59.58" x2="137.81" y2="-43.68">
   <stop offset="0" stop-color="#ff80ea"/>
   <stop offset="1" stop-color="#d900b3"/>
  </linearGradient>
  <path style="fill:url(#gradient3)"
        d="M23 48.27H42.25C42.25 43.18 40.87 41.9 39.5 40.63C35.37 40.63 34 40.63 32.62 31.72C32.62 26.63 39.5 26.63 39.5 22.81C36.75 30.45 28.5 15.18 25.75 22.81C25.75 26.63 32.62 26.63 32.62 31.72C31.25 40.63 29.87 40.63 25.75 40.63C24.37 41.9 23 43.18 23 48.27z"
  />
  <path style="fill:none; stroke:#000000; stroke-opacity:0.4; stroke-width:4.9086; stroke-linecap:round; stroke-linejoin:round"
        d="M56.53 9.9V29.54H36.9L43.03 23.4C36.9 14.8 20.94 11.13 9.9 19.72C18.49 9.9 37.36 5.45 50.4 16.03L56.53 9.9z"
        transform="matrix(0.5183,0,0,0.5736,29.409,26.1399)"
  />
  <path style="fill:none; stroke:#004080; stroke-width:9; stroke-linecap:round; stroke-linejoin:round"
        d="M54.08 7.45V27.08H34.44L40.58 20.94C34.44 12.35 18.49 8.67 7.44 17.26C16.04 7.45 34.91 3.01 47.94 13.58L54.08 7.45z"
        transform="matrix(0.5183,0,0,0.5736,29.409,26.1399)"
  />
  <linearGradient id="gradient4" gradientUnits="userSpaceOnUse" x1="162.06" y1="7.43" x2="162.06" y2="27.08">
   <stop offset="0" stop-color="#abd5ff"/>
   <stop offset="1" stop-color="#006cd9"/>
  </linearGradient>
  <path style="fill:url(#gradient4)"
        d="M54.08 7.45V27.08H34.44L40.58 20.94C34.44 12.35 18.49 8.67 7.44 17.26C16.04 7.45 34.91 3.01 47.94 13.58L54.08 7.45z"
        transform="matrix(0.5183,0,0,0.5736,29.409,26.1399)"
  />
  <path style="fill:none; stroke:#000000; stroke-opacity:0.4; stroke-width:4.9086; stroke-linecap:round; stroke-linejoin:round"
        d="M9.9 56.53V36.9H29.54L23.4 43.04C29.54 51.62 45.49 55.3 56.54 46.72C47.94 56.53 29.07 60.97 16.04 50.4L9.9 56.53z"
        transform="matrix(0.5183,0,0,0.5736,29.409,26.1399)"
  />
  <path style="fill:none; stroke:#004080; stroke-width:9; stroke-linecap:round; stroke-linejoin:round"
        d="M7.45 54.08V34.44H27.08L20.95 40.58C27.08 49.17 43.04 52.85 54.08 44.26C45.49 54.08 26.62 58.53 13.58 47.95L7.45 54.08z"
        transform="matrix(0.5183,0,0,0.5736,29.409,26.1399)"
  />
  <linearGradient id="gradient5" gradientUnits="userSpaceOnUse" x1="-100.52" y1="54.09" x2="-100.52" y2="34.44">
   <stop offset="0" stop-color="#006cd9"/>
   <stop offset="1" stop-color="#aad4ff"/>
  </linearGradient>
  <path style="fill:url(#gradient5)"
        d="M7.45 54.08V34.44H27.08L20.95 40.58C27.08 49.17 43.04 52.85 54.08 44.26C45.49 54.08 26.62 58.53 13.58 47.95L7.45 54.08z"
        transform="matrix(0.5183,0,0,0.5736,29.409,26.1399)"
  />
 </g>
</svg>
