<?xml version="1.0" encoding="UTF-8" standalone="yes"?>
<svg version="1.1" width="64" height="64" color-interpolation="linearRGB"
     xmlns:svg="http://www.w3.org/2000/svg" xmlns="http://www.w3.org/2000/svg">
 <g>
  <path style="fill:none; stroke:#000000; stroke-opacity:0.4; stroke-width:5.2993; stroke-linecap:round; stroke-linejoin:round"
        d="M17.5 58.45V53.36H53.25V58.45H17.5z"
  />
  <path style="fill:none; stroke:#000000; stroke-opacity:0.4; stroke-width:5.2993"
        d="M23 17.71C23 27.89 31.25 29.18 31.25 34.27C31.25 39.36 23 40.63 23 50.81H47.75C47.75 40.63 39.5 39.36 39.5 34.27C39.5 29.18 47.75 27.89 47.75 17.71H23z"
  />
  <path style="fill:none; stroke:#0074b2; stroke-width:5.2993"
        d="M20.25 15.18C20.25 25.36 28.5 26.62 28.5 31.71C28.5 36.81 20.25 38.09 20.25 48.27H45C45 38.09 36.75 36.81 36.75 31.71C36.75 26.62 45 25.36 45 15.18H20.25z"
  />
  <path style="fill:none; stroke:#7d3602; stroke-width:5.2993; stroke-linecap:round; stroke-linejoin:round"
        d="M14.75 12.63V7.53H50.5V12.63H14.75z"
  />
  <linearGradient id="gradient0" gradientUnits="userSpaceOnUse" x1="139.8" y1="-40.54" x2="156.82" y2="-12.98">
   <stop offset="0" stop-color="#f8fcff"/>
   <stop offset="1" stop-color="#aae2ff"/>
  </linearGradient>
  <path style="fill:url(#gradient0)"
        d="M20.25 15.18C20.25 25.36 28.5 26.62 28.5 31.71C28.5 36.81 20.25 38.09 20.25 48.27H45C45 38.09 36.75 36.81 36.75 31.71C36.75 26.62 45 25.36 45 15.18H20.25z"
  />
  <path style="fill:none; stroke:#000000; stroke-opacity:0.4; stroke-width:5.2993; stroke-linecap:round; stroke-linejoin:round"
        d="M17.5 15.18V10.09H53.25V15.18H17.5z"
  />
  <linearGradient id="gradient1" gradientUnits="userSpaceOnUse" x1="86.25" y1="7.53" x2="86.25" y2="12.63">
   <stop offset="0" stop-color="#f5d18b"/>
   <stop offset="1" stop-color="#d77c3a"/>
  </linearGradient>
  <path style="fill:url(#gradient1)"
        d="M14.75 12.63V7.53H50.5V12.63H14.75z"
  />
  <path style="fill:none; stroke:#7d3602; stroke-width:5.2993; stroke-linecap:round; stroke-linejoin:round"
        d="M14.75 55.9V50.81H50.5V55.9H14.75z"
  />
  <linearGradient id="gradient2" gradientUnits="userSpaceOnUse" x1="86.25" y1="50.81" x2="86.25" y2="55.9">
   <stop offset="0" stop-color="#f5d18b"/>
   <stop offset="1" stop-color="#d77c3a"/>
  </linearGradient>
  <path style="fill:url(#gradient2)"
        d="M14.75 55.9V50.81H50.5V55.9H14.75z"
  />
  <linearGradient id="gradient3" gradientUnits="userSpaceOnUse" x1="120.62" y1="-59.58" x2="137.8" y2="-43.68">
   <stop offset="0" stop-color="#ff80ea"/>
   <stop offset="1" stop-color="#d900b3"/>
  </linearGradient>
  <path style="fill:url(#gradient3)"
        d="M23 48.27H42.25C42.25 43.18 40.86 41.9 39.5 40.63C35.36 40.63 34 40.63 32.61 31.71C32.61 26.62 39.5 26.62 39.5 22.8C36.75 30.45 28.5 15.18 25.75 22.8C25.75 26.62 32.61 26.62 32.61 31.71C31.25 40.63 29.87 40.63 25.75 40.63C24.37 41.9 23 43.18 23 48.27z"
  />
  <path style="fill:none; stroke:#000000; stroke-opacity:0.4; stroke-width:2.4751; stroke-linecap:round; stroke-linejoin:round"
        d="M58.76 46.61L38.4 34.51V58.71L58.76 46.61z"
        transform="matrix(1,0,0,1,1,1)"
  />
  <path style="fill:none; stroke:#005900; stroke-width:3.9963; stroke-linecap:round; stroke-linejoin:round"
        d="M57.57 45.34L37.2 33.23V57.43L57.57 45.34z"
  />
  <linearGradient id="gradient4" gradientUnits="userSpaceOnUse" x1="111.47" y1="33.23" x2="111.47" y2="57.43">
   <stop offset="0" stop-color="#80ff80"/>
   <stop offset="1" stop-color="#00b200"/>
  </linearGradient>
  <path style="fill:url(#gradient4)"
        d="M57.57 45.34L37.2 33.23V57.43L57.57 45.34z"
  />
 </g>
</svg>
