<?xml version="1.0" encoding="UTF-8" standalone="yes"?>
<svg version="1.1" width="64" height="64" color-interpolation="linearRGB"
     xmlns:svg="http://www.w3.org/2000/svg" xmlns="http://www.w3.org/2000/svg">
 <g>
  <path style="fill:#000000; fill-opacity:0.396"
        d="M27.73 75.37C26.48 75.1 25.36 74.56 24.36 73.74L23.92 73.38L23.08 73.8C21.28 74.7 19.65 75.04 17.49 74.95C15.15 74.86 12.97 74.14 11.42 72.95L10.84 72.51L9.99 72.79C7.82 73.51 5.51 73.13 3.65 71.75C2.84 71.15 2.21 70.36 1.74 69.38C0.84 67.5 0.86 65.53 1.8 63.62C2.55 62.09 3.93 60.9 5.66 60.31C6.45 60.04 6.71 60.01 7.86 60H9.16L9.33 59.47C10.23 56.7 12.41 54.7 15.41 53.89C16.62 53.56 18.55 53.66 20.22 54.14C20.42 54.19 20.51 54.08 20.94 53.29C23.64 48.19 29.52 46.42 34.34 49.25C35.34 49.84 36.81 51.28 37.55 52.41C38.35 53.62 38.79 54.72 39.19 56.55C39.24 56.77 39.33 56.85 39.6 56.9C42.01 57.39 44.04 59.15 44.95 61.57C45.81 63.84 45.7 66.47 44.68 68.51C43.69 70.48 42.32 71.7 40.32 72.38C39.87 72.54 39.44 72.58 38.5 72.58C37.44 72.58 37.18 72.53 36.49 72.27C35.78 72.01 35.69 72 35.6 72.15C35.42 72.47 34.66 73.3 34.11 73.76C33.45 74.33 32.4 74.89 31.41 75.2C30.46 75.5 28.72 75.57 27.73 75.37V75.37z"
        transform="matrix(1.3447,0,0,1.511,2.3224,-58.5767)"
  />
  <path style="fill:#fdffff"
        d="M26.04 71.99C24.82 71.73 23.72 71.2 22.74 70.4L22.31 70.04L21.49 70.46C19.73 71.34 18.13 71.66 16.01 71.58C13.72 71.49 11.59 70.79 10.07 69.62L9.51 69.19L8.67 69.47C6.55 70.17 4.28 69.8 2.46 68.45C1.67 67.85 1.05 67.09 0.59 66.12C-0.28 64.28 -0.26 62.35 0.65 60.49C1.39 58.98 2.74 57.82 4.43 57.24C5.2 56.98 5.45 56.94 6.58 56.94H7.86L8.03 56.42C8.9 53.71 11.04 51.75 13.98 50.95C15.16 50.63 17.05 50.73 18.69 51.2C18.88 51.25 18.98 51.14 19.39 50.37C22.04 45.38 27.79 43.64 32.51 46.41C33.5 46.99 34.93 48.4 35.66 49.5C36.44 50.69 36.87 51.77 37.26 53.56C37.31 53.77 37.41 53.85 37.67 53.91C40.03 54.38 42.02 56.11 42.91 58.48C43.75 60.7 43.64 63.27 42.64 65.28C41.67 67.21 40.34 68.39 38.37 69.07C37.93 69.22 37.52 69.26 36.59 69.26C35.55 69.26 35.29 69.21 34.62 68.96C33.93 68.7 33.84 68.69 33.75 68.84C33.58 69.15 32.83 69.97 32.3 70.42C31.64 70.98 30.62 71.52 29.65 71.83C28.72 72.12 27.01 72.2 26.04 71.99V71.99z"
        transform="matrix(1.3447,0,0,1.511,2.3224,-58.5767)"
  />
  <path style="fill:none; stroke:#000000; stroke-width:2"
        d="M26.04 71.99C24.82 71.73 23.72 71.2 22.74 70.4L22.31 70.04L21.49 70.46C19.73 71.34 18.13 71.66 16.01 71.58C13.72 71.49 11.59 70.79 10.07 69.62L9.51 69.19L8.67 69.47C6.55 70.17 4.28 69.8 2.46 68.45C1.67 67.85 1.05 67.09 0.59 66.12C-0.28 64.28 -0.26 62.35 0.65 60.49C1.39 58.98 2.74 57.82 4.43 57.24C5.2 56.98 5.45 56.94 6.58 56.94H7.86L8.03 56.42C8.9 53.71 11.04 51.75 13.98 50.95C15.16 50.63 17.05 50.73 18.69 51.2C18.88 51.25 18.98 51.14 19.39 50.37C22.04 45.38 27.79 43.64 32.51 46.41C33.5 46.99 34.93 48.4 35.66 49.5C36.44 50.69 36.87 51.77 37.26 53.56C37.31 53.77 37.41 53.85 37.67 53.91C40.03 54.38 42.02 56.11 42.91 58.48C43.75 60.7 43.64 63.27 42.64 65.28C41.67 67.21 40.34 68.39 38.37 69.07C37.93 69.22 37.52 69.26 36.59 69.26C35.55 69.26 35.29 69.21 34.62 68.96C33.93 68.7 33.84 68.69 33.75 68.84C33.58 69.15 32.83 69.97 32.3 70.42C31.64 70.98 30.62 71.52 29.65 71.83C28.72 72.12 27.01 72.2 26.04 71.99V71.99z"
        transform="matrix(1.3447,0,0,1.511,2.3224,-58.5767)"
  />
  <path style="fill:#cbcbcb; fill-opacity:0.8705"
        d="M16.44 51.77C17.83 57.98 20.59 60.71 23.2 62.76C20.83 59.08 17.97 55.31 19.47 52.36L16.44 51.77z"
        transform="matrix(1.3447,0,0,1.511,2.3224,-58.5767)"
  />
  <path style="fill:#cbcbcb; fill-opacity:0.8705"
        d="M35.31 68.04C34.56 64.71 33.08 63.25 31.68 62.15C32.95 64.12 34.49 66.14 33.68 67.73L35.31 68.04z"
        transform="matrix(1.3447,0,0,1.511,2.3224,-58.5767)"
  />
  <path style="fill:#cbcbcb; fill-opacity:0.8705"
        d="M36.64 54.28C33.97 55.96 33.35 57.47 33.03 58.79C34.21 57.24 35.31 55.5 37.15 55.47L36.64 54.28z"
        transform="matrix(1.3447,0,0,1.511,2.3224,-58.5767)"
  />
  <path style="fill:none; stroke:#000000; stroke-width:6.4283; stroke-linejoin:round"
        d="M33.03 9.52C33.03 16.66 33.03 23.81 33.03 30.95C40.17 30.95 47.31 30.95 54.46 30.95C52.31 28.81 50.17 26.67 48.03 24.52C51.6 20.95 55.17 17.38 58.74 13.81C55.88 10.95 53.03 8.1 50.17 5.24C46.6 8.81 43.03 12.38 39.46 15.95C37.31 13.81 35.17 11.66 33.03 9.52V9.52V9.52z"
  />
  <linearGradient id="gradient0" gradientUnits="userSpaceOnUse" x1="76.31" y1="-36.79" x2="100.61" y2="-12.64">
   <stop offset="0" stop-color="#adff89"/>
   <stop offset="1" stop-color="#21ce21"/>
  </linearGradient>
  <path style="fill:url(#gradient0)"
        d="M33.03 9.52C33.03 16.66 33.03 23.81 33.03 30.95C40.17 30.95 47.31 30.95 54.46 30.95C52.31 28.81 50.17 26.67 48.03 24.52C51.6 20.95 55.17 17.38 58.74 13.81C55.88 10.95 53.03 8.1 50.17 5.24C46.6 8.81 43.03 12.38 39.46 15.95C37.31 13.81 35.17 11.66 33.03 9.52V9.52V9.52z"
  />
  <path style="fill:#cbcbcb; fill-opacity:0.8705"
        d="M10.65 68.9C14.74 65.2 11.15 64.67 10.39 64.33C11.31 64.93 12.87 65.73 9.95 68.15L10.65 68.9z"
        transform="matrix(1.3447,0,0,1.511,2.3224,-58.5767)"
  />
 </g>
</svg>
