<?xml version="1.0" encoding="UTF-8" standalone="yes"?>
<svg version="1.1" width="64" height="64" color-interpolation="linearRGB"
     xmlns:svg="http://www.w3.org/2000/svg" xmlns="http://www.w3.org/2000/svg">
 <g>
  <path style="fill:none; stroke:#010101; stroke-opacity:0.3568; stroke-width:5; stroke-linecap:round; stroke-linejoin:round"
        d="M25.22 8.72C20.05 8.72 17.88 10.78 17.88 16.02C17.88 18.39 17.88 20.76 17.88 23.13C17.88 26.37 17.78 30.12 14.93 30.12C14.43 30.12 13.94 30.12 13.45 30.12C13.45 31.37 13.45 32.62 13.45 33.87C13.94 33.87 14.43 33.87 14.93 33.87C17.78 33.87 17.88 37.62 17.88 40.86C17.88 43.23 17.88 45.6 17.88 47.97C17.88 53.21 20.05 55.27 25.22 55.27C25.22 54.12 25.22 52.97 25.22 51.82C21.77 51.82 21.72 50.43 21.72 45.39C21.72 43.44 21.72 41.48 21.72 39.53C21.72 37.11 21.13 33.51 18.22 32.02C21.13 30.53 21.72 26.93 21.72 24.51C21.72 22.54 21.72 20.57 21.72 18.6C21.72 13.56 21.77 12.17 25.22 12.17C25.22 11.02 25.22 9.87 25.22 8.72
           M38.73 8.72C38.73 9.87 38.73 11.02 38.73 12.17C42.17 12.17 42.27 13.56 42.27 18.6C42.27 20.57 42.27 22.54 42.27 24.51C42.27 26.93 42.86 30.53 45.77 32.02C42.86 33.51 42.27 37.11 42.27 39.53C42.27 41.48 42.27 43.44 42.27 45.39C42.27 50.43 42.17 51.82 38.73 51.82C38.73 52.97 38.73 54.12 38.73 55.27C43.9 55.27 46.11 53.21 46.11 47.97C46.11 45.6 46.11 43.23 46.11 40.86C46.11 37.62 46.31 33.87 49.11 33.87C49.59 33.87 50.07 33.87 50.54 33.87C50.54 32.62 50.54 31.37 50.54 30.12C50.07 30.12 49.59 30.12 49.11 30.12C46.31 30.12 46.11 26.37 46.11 23.13C46.11 20.76 46.11 18.39 46.11 16.02C46.11 10.78 43.9 8.72 38.73 8.72"
        transform="matrix(1,0,0,1,3,2)"
  />
  <path style="fill:none; stroke:#010101; stroke-width:5; stroke-linecap:round; stroke-linejoin:round"
        d="M25.22 8.72C20.05 8.72 17.88 10.78 17.88 16.02C17.88 18.39 17.88 20.76 17.88 23.13C17.88 26.37 17.78 30.12 14.93 30.12C14.43 30.12 13.94 30.12 13.45 30.12C13.45 31.37 13.45 32.62 13.45 33.87C13.94 33.87 14.43 33.87 14.93 33.87C17.78 33.87 17.88 37.62 17.88 40.86C17.88 43.23 17.88 45.6 17.88 47.97C17.88 53.21 20.05 55.27 25.22 55.27C25.22 54.12 25.22 52.97 25.22 51.82C21.77 51.82 21.72 50.43 21.72 45.39C21.72 43.44 21.72 41.48 21.72 39.53C21.72 37.11 21.13 33.51 18.22 32.02C21.13 30.53 21.72 26.93 21.72 24.51C21.72 22.54 21.72 20.57 21.72 18.6C21.72 13.56 21.77 12.17 25.22 12.17C25.22 11.02 25.22 9.87 25.22 8.72
           M38.73 8.72C38.73 9.87 38.73 11.02 38.73 12.17C42.17 12.17 42.27 13.56 42.27 18.6C42.27 20.57 42.27 22.54 42.27 24.51C42.27 26.93 42.86 30.53 45.77 32.02C42.86 33.51 42.27 37.11 42.27 39.53C42.27 41.48 42.27 43.44 42.27 45.39C42.27 50.43 42.17 51.82 38.73 51.82C38.73 52.97 38.73 54.12 38.73 55.27C43.9 55.27 46.11 53.21 46.11 47.97C46.11 45.6 46.11 43.23 46.11 40.86C46.11 37.62 46.31 33.87 49.11 33.87C49.59 33.87 50.07 33.87 50.54 33.87C50.54 32.62 50.54 31.37 50.54 30.12C50.07 30.12 49.59 30.12 49.11 30.12C46.31 30.12 46.11 26.37 46.11 23.13C46.11 20.76 46.11 18.39 46.11 16.02C46.11 10.78 43.9 8.72 38.73 8.72"
  />
  <linearGradient id="gradient0" gradientUnits="userSpaceOnUse" x1="71.77" y1="16.58" x2="71.67" y2="52.66">
   <stop offset="0" stop-color="#d6d6d6"/>
   <stop offset="1" stop-color="#5c5c5c"/>
  </linearGradient>
  <path style="fill:url(#gradient0)"
        d="M38.73 8.72C38.73 9.87 38.73 11.02 38.73 12.17C42.17 12.17 42.27 13.56 42.27 18.6C42.27 20.57 42.27 22.54 42.27 24.51C42.27 26.93 42.86 30.53 45.77 32.02C42.86 33.51 42.27 37.11 42.27 39.53C42.27 41.48 42.27 43.44 42.27 45.39C42.27 50.43 42.17 51.82 38.73 51.82C38.73 52.97 38.73 54.12 38.73 55.27C43.9 55.27 46.11 53.21 46.11 47.97C46.11 45.6 46.11 43.23 46.11 40.86C46.11 37.62 46.31 33.87 49.11 33.87C49.59 33.87 50.07 33.87 50.54 33.87C50.54 32.62 50.54 31.37 50.54 30.12C50.07 30.12 49.59 30.12 49.11 30.12C46.31 30.12 46.11 26.37 46.11 23.13C46.11 20.76 46.11 18.39 46.11 16.02C46.11 10.78 43.9 8.72 38.73 8.72
           M25.22 8.72C20.05 8.72 17.88 10.78 17.88 16.02C17.88 18.39 17.88 20.76 17.88 23.13C17.88 26.37 17.78 30.12 14.93 30.12C14.43 30.12 13.94 30.12 13.45 30.12C13.45 31.37 13.45 32.62 13.45 33.87C13.94 33.87 14.43 33.87 14.93 33.87C17.78 33.87 17.88 37.62 17.88 40.86C17.88 43.23 17.88 45.6 17.88 47.97C17.88 53.21 20.05 55.27 25.22 55.27C25.22 54.12 25.22 52.97 25.22 51.82C21.77 51.82 21.72 50.43 21.72 45.39C21.72 43.44 21.72 41.48 21.72 39.53C21.72 37.11 21.13 33.51 18.22 32.02C21.13 30.53 21.72 26.93 21.72 24.51C21.72 22.54 21.72 20.57 21.72 18.6C21.72 13.56 21.77 12.17 25.22 12.17C25.22 11.02 25.22 9.87 25.22 8.72"
  />
 </g>
</svg>
