<?xml version="1.0" encoding="UTF-8" standalone="yes"?>
<svg version="1.1" width="64" height="64" color-interpolation="linearRGB"
     xmlns:svg="http://www.w3.org/2000/svg" xmlns="http://www.w3.org/2000/svg">
 <g>
  <path style="fill:none; stroke:#000000; stroke-opacity:0.4; stroke-width:5.0462; stroke-linecap:round; stroke-linejoin:round"
        d="M33.74 10.07C33.74 10.07 14.99 28.53 14.99 39.17C14.99 49.82 23.38 58.45 33.74 58.45C44.09 58.45 52.49 49.82 52.49 39.17C52.49 28.53 33.74 10.07 33.74 10.07z"
  />
  <path style="fill:none; stroke:#670202; stroke-width:5.0462; stroke-linejoin:round"
        d="M31.24 7.52C31.24 7.52 12.49 25.98 12.49 36.63C12.49 47.27 20.88 55.9 31.24 55.9C41.59 55.9 49.99 47.27 49.99 36.63C49.99 25.98 31.24 7.52 31.24 7.52z"
  />
  <linearGradient id="gradient0" gradientUnits="userSpaceOnUse" x1="164.98" y1="7.51" x2="164.98" y2="55.9">
   <stop offset="0" stop-color="#ffacac"/>
   <stop offset="1" stop-color="#f20606"/>
  </linearGradient>
  <path style="fill:url(#gradient0)"
        d="M31.24 7.52C31.24 7.52 12.49 25.98 12.49 36.63C12.49 47.27 20.88 55.9 31.24 55.9C41.59 55.9 49.99 47.27 49.99 36.63C49.99 25.98 31.24 7.52 31.24 7.52z"
  />
  <path style="fill:#ffffff; fill-opacity:0.6862"
        d="M31.24 10.07C31.24 10.07 14.99 27.65 14.99 36.8C14.99 45.92 22.26 53.35 31.24 53.35H31.22C25.02 53.35 19.97 45.92 19.97 36.8C19.97 27.65 31.24 10.07 31.24 10.07z"
  />
 </g>
</svg>
