<?xml version="1.0" encoding="UTF-8" standalone="yes"?>
<svg version="1.1" width="64" height="64" color-interpolation="linearRGB"
     xmlns:svg="http://www.w3.org/2000/svg" xmlns="http://www.w3.org/2000/svg">
 <g>
  <path style="fill:#000000; fill-opacity:0.4"
        d="M44.98 33.38C47.56 35.97 51.43 32.09 48.85 29.51C45.84 26.5 42.82 23.49 39.81 20.48C37.23 17.89 33.36 21.77 35.94 24.35C38.95 27.36 41.96 30.37 44.98 33.38V33.38V33.38z
           M50.14 10.15C45.14 10.15 41.1 14.2 41.1 19.19C44.11 22.2 47.13 25.21 50.14 28.22C55.12 28.22 59.16 24.17 59.16 19.19C59.16 14.2 55.12 10.15 50.14 10.15V10.15V10.15z
           M35.94 28.22C29.06 35.1 22.18 41.98 15.3 48.87C15.3 50.16 11.43 55.32 10.14 56.61C11 57.47 11.86 58.33 12.72 59.19C14.01 57.9 19.17 54.03 20.46 54.03C27.34 47.15 34.22 40.27 41.1 33.38C39.38 31.66 37.66 29.94 35.94 28.22V28.22V28.22z"
  />
  <path style="fill:none; stroke:#545454; stroke-width:5.1616; stroke-linecap:round; stroke-linejoin:round"
        d="M33.36 25.64C26.48 32.52 19.6 39.4 12.72 46.28C12.72 47.57 8.84 52.74 7.55 54.03C8.41 54.89 9.27 55.75 10.14 56.61C11.43 55.32 16.59 51.45 17.88 51.45C24.76 44.57 31.64 37.68 38.52 30.8C36.8 29.08 35.08 27.36 33.36 25.64V25.64V25.64z"
  />
  <linearGradient id="gradient0" gradientUnits="userSpaceOnUse" x1="170.14" y1="19.19" x2="170.14" y2="55.32">
   <stop offset="0" stop-color="#ffffff"/>
   <stop offset="1" stop-color="#e5e5e5"/>
  </linearGradient>
  <path style="fill:url(#gradient0)"
        d="M33.36 25.64C26.48 32.52 19.6 39.4 12.72 46.28C12.72 47.57 8.84 52.74 7.55 54.03C12.72 48.87 17.88 43.71 23.04 38.55C24.76 38.55 26.48 38.55 28.2 38.55C22.18 44.57 16.16 50.59 10.14 56.61C11.43 55.32 16.59 51.45 17.88 51.45C24.76 44.57 31.64 37.68 38.52 30.8C36.8 29.08 35.08 27.36 33.36 25.64V25.64V25.64z"
  />
  <linearGradient id="gradient1" gradientUnits="userSpaceOnUse" x1="170.14" y1="38.55" x2="170.14" y2="56.61">
   <stop offset="0" stop-color="#ffffff"/>
   <stop offset="1" stop-color="#b3b3b3"/>
  </linearGradient>
  <path style="fill:url(#gradient1)"
        d="M23.04 38.55C17.88 43.71 12.72 48.87 7.55 54.03C8.41 54.89 9.27 55.75 10.14 56.61C16.16 50.59 22.18 44.57 28.2 38.55C26.48 38.55 24.76 38.55 23.04 38.55V38.55V38.55z"
  />
  <path style="fill:none; stroke:#800000; stroke-width:5.1616; stroke-linecap:round; stroke-linejoin:round"
        d="M42.39 30.8C44.98 33.38 48.85 29.51 46.27 26.93C43.25 23.92 40.24 20.91 37.23 17.89C34.65 15.31 30.78 19.19 33.36 21.77C36.37 24.78 39.38 27.79 42.39 30.8V30.8V30.8z
           M47.56 7.57C42.56 7.57 38.52 11.61 38.52 16.6C41.53 19.62 44.54 22.63 47.56 25.64C52.54 25.64 56.59 21.58 56.59 16.6C56.59 11.61 52.54 7.57 47.56 7.57V7.57V7.57z"
  />
  <linearGradient id="gradient2" gradientUnits="userSpaceOnUse" x1="170.14" y1="7.56" x2="170.14" y2="25.64">
   <stop offset="0" stop-color="#ffabab"/>
   <stop offset="1" stop-color="#d90000"/>
  </linearGradient>
  <path style="fill:url(#gradient2)"
        d="M47.56 7.57C42.56 7.57 38.52 11.61 38.52 16.6C41.53 19.62 44.54 22.63 47.56 25.64C52.54 25.64 56.59 21.58 56.59 16.6C56.59 11.61 52.54 7.57 47.56 7.57V7.57V7.57z"
  />
  <linearGradient id="gradient3" gradientUnits="userSpaceOnUse" x1="170.14" y1="16.6" x2="170.14" y2="32.09">
   <stop offset="0" stop-color="#ffabab"/>
   <stop offset="1" stop-color="#d90000"/>
  </linearGradient>
  <path style="fill:url(#gradient3)"
        d="M42.39 30.8C44.98 33.38 48.85 29.51 46.27 26.93C43.25 23.92 40.24 20.91 37.23 17.89C34.65 15.31 30.78 19.19 33.36 21.77C36.37 24.78 39.38 27.79 42.39 30.8V30.8V30.8z"
  />
 </g>
</svg>
