<?xml version="1.0" encoding="UTF-8" standalone="yes"?>
<svg version="1.1" width="64" height="64" color-interpolation="linearRGB"
     xmlns:svg="http://www.w3.org/2000/svg" xmlns="http://www.w3.org/2000/svg">
 <g>
  <path style="fill:none; stroke:#010000; stroke-width:7.4821; stroke-linejoin:round"
        d="M24.79 4.84V16.47L31.99 20.34L39.19 16.47V4.84L46.39 12.59V24.22L39.19 30.04V55.24C39.19 55.24 39.19 59.12 31.99 59.12C24.79 59.12 24.79 55.24 24.79 55.24V30.04L17.59 24.22V12.59L24.79 4.84z"
        transform="matrix(0.807,0,0,0.8704,5.6737,4.1469)"
  />
  <linearGradient id="gradient0" gradientUnits="userSpaceOnUse" x1="119.9" y1="-134.71" x2="148.32" y2="-113.99">
   <stop offset="0" stop-color="#ebebeb"/>
   <stop offset="1" stop-color="#adadad"/>
  </linearGradient>
  <path style="fill:url(#gradient0)"
        d="M24.79 4.84V16.47L31.99 20.34L39.19 16.47V4.84L46.39 12.59V24.22L39.19 30.04V55.24C39.19 55.24 39.19 59.12 31.99 59.12C24.79 59.12 24.79 55.24 24.79 55.24V30.04L17.59 24.22V12.59L24.79 4.84z"
        transform="matrix(0.807,0,0,0.8704,5.6737,4.1469)"
  />
 </g>
</svg>
