<?xml version="1.0" encoding="UTF-8" standalone="yes"?>
<svg version="1.1" width="64" height="64" color-interpolation="linearRGB"
     xmlns:svg="http://www.w3.org/2000/svg" xmlns="http://www.w3.org/2000/svg">
 <g>
  <path style="fill:#000000; fill-opacity:0.5294"
        d="M31.5 15.75C31.11 15.75 30.71 15.77 30.29 15.81C30.42 16.38 30.49 16.98 30.49 17.58C30.49 19.68 29.67 21.66 28.19 23.15C27.12 24.21 25.82 24.93 24.38 25.26C23.5 29.09 19.78 31.81 15.75 31.3C15.75 31.37 15.75 31.44 15.75 31.5C15.75 40.19 22.82 47.26 31.5 47.26C40.19 47.26 47.26 40.19 47.26 31.5C47.26 22.82 40.19 15.75 31.5 15.75z"
        transform="matrix(1.9592,0,0,1.9274,-28.7222,-27.2222)"
  />
  <linearGradient id="gradient0" gradientUnits="userSpaceOnUse" x1="93.73" y1="-17.03" x2="112.57" y2="49.27">
   <stop offset="0" stop-color="#f9d48d"/>
   <stop offset="1" stop-color="#ffaa00"/>
  </linearGradient>
  <path style="fill:url(#gradient0)"
        d="M31.5 15.75C31.11 15.75 30.71 15.77 30.29 15.81C30.42 16.38 30.49 16.98 30.49 17.58C30.49 19.68 29.67 21.66 28.19 23.15C27.12 24.21 25.82 24.93 24.38 25.26C23.5 29.09 19.78 31.81 15.75 31.3C15.75 31.37 15.75 31.44 15.75 31.5C15.75 40.19 22.82 47.26 31.5 47.26C40.19 47.26 47.26 40.19 47.26 31.5C47.26 22.82 40.19 15.75 31.5 15.75z"
        transform="matrix(1.7052,0,0,1.7052,-22.7222,-22.7222)"
  />
  <path style="fill:#443016"
        d="M35.15 20.65C36.26 20.65 37.12 21.51 37.12 22.61C37.12 23.72 36.26 24.58 35.15 24.58C34.05 24.58 33.19 23.72 33.19 22.61C33.19 21.51 34.05 20.65 35.15 20.65z"
        transform="matrix(1.7052,0,0,1.7052,-22.7222,-22.7222)"
  />
  <path style="fill:#443016"
        d="M41.23 26.99C42.33 26.99 43.2 27.86 43.2 28.96C43.2 30.06 42.33 30.93 41.23 30.93C40.12 30.93 39.26 30.06 39.26 28.96C39.26 27.86 40.12 26.99 41.23 26.99z"
        transform="matrix(1.7052,0,0,1.7052,-22.7222,-22.7222)"
  />
  <path style="fill:#443016"
        d="M31.22 28.96C32.32 28.96 33.19 29.83 33.19 30.93C33.19 32.03 32.32 32.9 31.22 32.9C30.11 32.9 29.25 32.03 29.25 30.93C29.25 29.83 30.11 28.96 31.22 28.96z"
        transform="matrix(1.7052,0,0,1.7052,-22.7222,-22.7222)"
  />
  <path style="fill:#443016"
        d="M23.63 34.7C24.73 34.7 25.6 35.57 25.6 36.67C25.6 37.77 24.73 38.64 23.63 38.64C22.52 38.64 21.66 37.77 21.66 36.67C21.66 35.57 22.52 34.7 23.63 34.7z"
        transform="matrix(1.7052,0,0,1.7052,-22.7222,-22.7222)"
  />
  <path style="fill:#443016"
        d="M31.5 39.67C32.61 39.67 33.47 40.53 33.47 41.64C33.47 42.74 32.61 43.61 31.5 43.61C30.4 43.61 29.53 42.74 29.53 41.64C29.53 40.53 30.4 39.67 31.5 39.67z"
        transform="matrix(1.7052,0,0,1.7052,-22.7222,-22.7222)"
  />
  <path style="fill:#443016"
        d="M38.27 34.7C39.37 34.7 40.24 35.57 40.24 36.67C40.24 37.77 39.37 38.64 38.27 38.64C37.17 38.64 36.3 37.77 36.3 36.67C36.3 35.57 37.17 34.7 38.27 34.7z"
        transform="matrix(1.7052,0,0,1.7052,-22.7222,-22.7222)"
  />
  <path style="fill:#26251d"
        d="M31.5 49.23C21.73 49.23 13.78 41.27 13.78 31.5C13.78 31.01 13.81 30.52 13.85 30.03C13.88 29.74 14.03 29.47 14.27 29.3C14.51 29.14 14.82 29.09 15.1 29.16C18.64 30.16 22.1 27.72 22.56 24.28C22.62 23.84 22.97 23.49 23.41 23.43C24.7 23.26 25.87 22.68 26.79 21.75C27.91 20.64 28.52 19.15 28.52 17.58C28.52 16.81 28.37 16.06 28.08 15.35C27.97 15.07 27.99 14.75 28.14 14.49C28.29 14.22 28.55 14.04 28.85 14C29.84 13.85 30.68 13.78 31.5 13.78C41.27 13.78 49.23 21.73 49.23 31.5C49.23 41.27 41.27 49.23 31.5 49.23z
           M15.75 31.3C15.75 31.37 15.75 31.44 15.75 31.5C15.75 40.19 22.82 47.26 31.5 47.26C40.19 47.26 47.26 40.19 47.26 31.5C47.26 22.82 40.19 15.75 31.5 15.75C31.11 15.75 30.71 15.77 30.29 15.81C30.42 16.38 30.49 16.98 30.49 17.58C30.49 19.68 29.67 21.66 28.19 23.15C27.12 24.21 25.82 24.93 24.38 25.26C23.5 29.09 19.78 31.81 15.75 31.3z"
        transform="matrix(1.7052,0,0,1.7052,-22.7222,-22.7222)"
  />
 </g>
</svg>
