<?xml version="1.0" encoding="UTF-8" standalone="yes"?>
<svg version="1.1" width="64" height="64" color-interpolation="linearRGB"
     xmlns:svg="http://www.w3.org/2000/svg" xmlns="http://www.w3.org/2000/svg">
 <g>
  <path style="fill:none; stroke:#010101; stroke-opacity:0.4235; stroke-width:5; stroke-linecap:round; stroke-linejoin:round"
        d="M38.18 11.12V22.38C25.56 23.76 15.52 39.09 14.6 58.38H7.27V63.94H14.63C15.53 83.23 25.56 98.58 38.18 99.98V111.2H41.81V99.94C54.43 98.56 64.47 83.23 65.39 63.94H72.72V58.38H65.36C64.46 39.09 54.43 23.74 41.81 22.33V11.12H38.18z
           M38.18 27.94V39.11C31.6 40.39 26.42 48.32 25.58 58.38H18.27C19.16 42.17 27.57 29.3 38.18 27.94z
           M41.81 27.94C52.42 29.3 60.83 42.17 61.72 58.38H54.41C53.57 48.32 48.39 40.4 41.81 39.12V27.94z
           M38.18 44.71V58.38H29.26C30.03 51.38 33.6 45.9 38.18 44.71z
           M41.81 44.74C46.39 45.92 49.97 51.39 50.75 58.38H41.81V44.74z
           M18.27 63.94H25.58C26.42 74 31.6 81.92 38.18 83.19V94.38C27.57 93.01 19.16 80.15 18.27 63.94z
           M29.24 63.94H38.18V77.58C33.6 76.4 30.02 70.93 29.24 63.94z
           M41.81 63.94H50.73C49.96 70.93 46.39 76.42 41.81 77.61V63.94z
           M54.41 63.94H61.72C60.83 80.15 52.42 93.01 41.81 94.38V83.2C48.39 81.92 53.57 74 54.41 63.94z"
        transform="matrix(0.8472,0,0,0.5698,0.1111,-1.1903)"
  />
  <path style="fill:none; stroke:#000000; stroke-width:5; stroke-linecap:round; stroke-linejoin:round"
        d="M38.18 11.12V22.38C25.56 23.76 15.52 39.09 14.6 58.38H7.27V63.94H14.63C15.53 83.23 25.56 98.58 38.18 99.98V111.2H41.81V99.94C54.43 98.56 64.47 83.23 65.39 63.94H72.72V58.38H65.36C64.46 39.09 54.43 23.74 41.81 22.33V11.12H38.18z
           M38.18 27.94V39.11C31.6 40.39 26.42 48.32 25.58 58.38H18.27C19.16 42.17 27.57 29.3 38.18 27.94z
           M41.81 27.94C52.42 29.3 60.83 42.17 61.72 58.38H54.41C53.57 48.32 48.39 40.4 41.81 39.12V27.94z
           M38.18 44.71V58.38H29.26C30.03 51.38 33.6 45.9 38.18 44.71z
           M41.81 44.74C46.39 45.92 49.97 51.39 50.75 58.38H41.81V44.74z
           M18.27 63.94H25.58C26.42 74 31.6 81.92 38.18 83.19V94.38C27.57 93.01 19.16 80.15 18.27 63.94z
           M29.24 63.94H38.18V77.58C33.6 76.4 30.02 70.93 29.24 63.94z
           M41.81 63.94H50.73C49.96 70.93 46.39 76.42 41.81 77.61V63.94z
           M54.41 63.94H61.72C60.83 80.15 52.42 93.01 41.81 94.38V83.2C48.39 81.92 53.57 74 54.41 63.94z"
        transform="matrix(0.8472,0,0,0.5698,-1.8888,-3.1903)"
  />
  <linearGradient id="gradient0" gradientUnits="userSpaceOnUse" x1="66.17" y1="4.53" x2="66.17" y2="51.08">
   <stop offset="0" stop-color="#a9a9a9"/>
   <stop offset="1" stop-color="#414141"/>
  </linearGradient>
  <path style="fill:url(#gradient0)"
        d="M38.18 11.12V22.38C25.56 23.76 15.52 39.09 14.6 58.38H7.27V63.94H14.63C15.53 83.23 25.56 98.58 38.18 99.98V111.2H41.81V99.94C54.43 98.56 64.47 83.23 65.39 63.94H72.72V58.38H65.36C64.46 39.09 54.43 23.74 41.81 22.33V11.12H38.18z
           M38.18 27.94V39.11C31.6 40.39 26.42 48.32 25.58 58.38H18.27C19.16 42.17 27.57 29.3 38.18 27.94z
           M41.81 27.94C52.42 29.3 60.83 42.17 61.72 58.38H54.41C53.57 48.32 48.39 40.4 41.81 39.12V27.94z
           M38.18 44.71V58.38H29.26C30.03 51.38 33.6 45.9 38.18 44.71z
           M41.81 44.74C46.39 45.92 49.97 51.39 50.75 58.38H41.81V44.74z
           M18.27 63.94H25.58C26.42 74 31.6 81.92 38.18 83.19V94.38C27.57 93.01 19.16 80.15 18.27 63.94z
           M29.24 63.94H38.18V77.58C33.6 76.4 30.02 70.93 29.24 63.94z
           M41.81 63.94H50.73C49.96 70.93 46.39 76.42 41.81 77.61V63.94z
           M54.41 63.94H61.72C60.83 80.15 52.42 93.01 41.81 94.38V83.2C48.39 81.92 53.57 74 54.41 63.94z"
        transform="matrix(0.8472,0,0,0.5698,-1.8888,-3.1903)"
  />
 </g>
</svg>
