<?xml version="1.0" encoding="UTF-8" standalone="yes"?>
<svg version="1.1" width="64" height="64" color-interpolation="linearRGB"
     xmlns:svg="http://www.w3.org/2000/svg" xmlns="http://www.w3.org/2000/svg">
 <g>
  <path style="fill:none; stroke:#000000; stroke-opacity:0.4; stroke-width:4.9082; stroke-linecap:round; stroke-linejoin:round"
        d="M13 12C13.09 15.09 13 17 13 20C13 20 20 23 35 23C50 23 57 20 57 20C57 17 57 15 57 12C57 12 50 9 35 9C20 9 13 12 13 12V12V12z
           M57 48C57 48 50 51 35 51C20 51 13 48 13 48C13 52.9 13 53.09 13 58C13 58 19.98 61 35 61C50 61 57 58 57 58C57 53.09 57 48 57 48V48V48z
           M57 29C57 29 50 32 35 32C20 32 13 29 13 29C13 33 13 35 13 39C13 39 20 42 35 42C50 42 57 39 57 39C57 37 57 29 57 29V29V29z"
  />
  <path style="fill:none; stroke:#800000; stroke-width:4.9082"
        d="M10 9C10.09 12.09 10 14 10 17C10 17 17 20 32 20C47 20 54 17 54 17C54 14 54 12 54 9C54 9 47 6 32 6C17 6 10 9 10 9V9V9z"
  />
  <path style="fill:none; stroke:#004080; stroke-width:4.9082"
        d="M54 26C54 26 47 29 32 29C17 29 10 26 10 26C10 30 10 32 10 36C10 36 17 39 32 39C47 39 54 36 54 36C54 34 54 26 54 26V26V26z"
  />
  <path style="fill:none; stroke:#005900; stroke-width:4.9082"
        d="M54 45C54 45 47 48 32 48C17 48 10 45 10 45C10 49.9 10 50.09 10 55C10 55 16.98 58 32 58C47 58 54 55 54 55C54 50.09 54 45 54 45V45V45z"
  />
  <linearGradient id="gradient0" gradientUnits="userSpaceOnUse" x1="92.02" y1="7.38" x2="92.05" y2="24.03">
   <stop offset="0" stop-color="#ffabab"/>
   <stop offset="1" stop-color="#d90000"/>
  </linearGradient>
  <path style="fill:url(#gradient0)"
        d="M10 9C10.09 12.09 10 14 10 17C10 17 17 20 32 20C47 20 54 17 54 17C54 14 54 12 54 9C54 9 47 6 32 6C17 6 10 9 10 9V9V9z"
  />
  <linearGradient id="gradient1" gradientUnits="userSpaceOnUse" x1="129.05" y1="27.61" x2="129.05" y2="41.07">
   <stop offset="0" stop-color="#abd5ff"/>
   <stop offset="1" stop-color="#006cd9"/>
  </linearGradient>
  <path style="fill:url(#gradient1)"
        d="M54 26C54 26 47 29 32 29C17 29 10 26 10 26C10 30 10 32 10 36C10 36 17 39 32 39C47 39 54 36 54 36C54 34 54 26 54 26V26V26z"
  />
  <linearGradient id="gradient2" gradientUnits="userSpaceOnUse" x1="158.05" y1="40.34" x2="158.05" y2="53.08">
   <stop offset="0" stop-color="#80ff80"/>
   <stop offset="1" stop-color="#00b200"/>
  </linearGradient>
  <path style="fill:url(#gradient2)"
        d="M54 45C54 45 47 48 32 48C17 48 10 45 10 45C10 49.9 10 50.09 10 55C10 55 16.98 58 32 58C47 58 54 55 54 55C54 50.09 54 45 54 45V45V45z"
  />
 </g>
</svg>
