<?xml version="1.0" encoding="UTF-8" standalone="yes"?>
<svg version="1.1" width="64" height="64" color-interpolation="linearRGB"
     xmlns:svg="http://www.w3.org/2000/svg" xmlns="http://www.w3.org/2000/svg">
 <g>
  <path style="fill:#000000; fill-opacity:0.4"
        d="M25.48 1.99C6.9 1.99 3.51 43.85 25.48 43.85C47.45 43.85 44.06 1.99 25.48 1.99z
           M5.21 27.11H45.76
           M10.28 10.36L39 41.76
           M23.79 20.83L13.66 18.74C13.66 18.74 13.66 31.29 17.03 35.48C20.42 39.67 23.79 39.67 23.79 39.67V20.83z
           M27.17 20.83V39.67C27.17 39.67 30.55 39.67 33.93 35.48C37.31 31.29 37.31 18.74 37.31 18.74L27.17 20.83z
           M14.92 15.07C14.92 15.07 22.1 16.64 25.48 16.64C28.87 16.64 36.04 15.07 36.04 15.07C36.04 15.07 33.93 6.18 25.48 6.18C17.03 6.18 14.92 15.07 14.92 15.07z
           M18.72 20.83C15.35 20.83 15.35 29.2 18.72 29.2C23.79 29.2 23.79 20.83 18.72 20.83z
           M32.24 25.02C27.17 25.02 27.17 33.39 32.24 33.39C35.62 33.39 35.62 25.02 32.24 25.02z
           M40.68 10.36L11.96 41.76"
        transform="matrix(1,0,0,1,2,3)"
  />
  <path style="fill:#181818; fill-opacity:0.9843"
        d="M25.48 1.99C6.9 1.99 3.51 43.85 25.48 43.85C47.45 43.85 44.06 1.99 25.48 1.99z"
  />
  <path style="fill:none; stroke:#181818; stroke-opacity:0.9843; stroke-width:5.7215; stroke-linecap:round"
        d="M5.21 27.11H45.76
           M40.68 10.36L11.96 41.76
           M10.28 10.36L39 41.76"
  />
  <linearGradient id="gradient0" gradientUnits="userSpaceOnUse" x1="151.43" y1="-117.96" x2="172.88" y2="-80.31">
   <stop offset="0" stop-color="#ffdcdc"/>
   <stop offset="1" stop-color="#e80606"/>
  </linearGradient>
  <path style="fill:url(#gradient0)"
        d="M23.79 20.83L13.66 18.74C13.66 18.74 13.66 31.29 17.03 35.48C20.42 39.67 23.79 39.67 23.79 39.67V20.83z
           M27.17 20.83V39.67C27.17 39.67 30.55 39.67 33.93 35.48C37.31 31.29 37.31 18.74 37.31 18.74L27.17 20.83z"
  />
  <linearGradient id="gradient1" gradientUnits="userSpaceOnUse" x1="66.04" y1="-29.17" x2="73.04" y2="-10.92">
   <stop offset="0" stop-color="#c6c6c6"/>
   <stop offset="1" stop-color="#4a4a4a"/>
  </linearGradient>
  <path style="fill:url(#gradient1)"
        d="M14.92 15.07C14.92 15.07 22.1 16.64 25.48 16.64C28.87 16.64 36.04 15.07 36.04 15.07C36.04 15.07 33.93 6.18 25.48 6.18C17.03 6.18 14.92 15.07 14.92 15.07z"
  />
  <path style="fill:#181818; fill-opacity:0.9843"
        d="M18.72 20.83C15.35 20.83 15.35 29.2 18.72 29.2C23.79 29.2 23.79 20.83 18.72 20.83z
           M32.24 25.02C27.17 25.02 27.17 33.39 32.24 33.39C35.62 33.39 35.62 25.02 32.24 25.02z"
  />
  <path style="fill:#000000; fill-opacity:0.4"
        d="M61.45 51.09L46.41 40.81V61.36L61.45 51.09z"
        transform="matrix(1,0,0,1,1,0)"
  />
  <linearGradient id="gradient2" gradientUnits="userSpaceOnUse" x1="100.37" y1="39.73" x2="100.37" y2="60.29">
   <stop offset="0" stop-color="#80ff80"/>
   <stop offset="1" stop-color="#00b200"/>
  </linearGradient>
  <path style="fill:url(#gradient2)"
        d="M60.56 50.02L45.54 39.73V60.29L60.56 50.02z"
  />
  <path style="fill:none; stroke:#005900; stroke-width:1.984; stroke-linecap:round; stroke-linejoin:round"
        d="M60.56 50.02L45.54 39.73V60.29L60.56 50.02z"
  />
 </g>
</svg>
