<?xml version="1.0" encoding="UTF-8" standalone="yes"?>
<svg version="1.1" width="64" height="64" color-interpolation="linearRGB"
     xmlns:svg="http://www.w3.org/2000/svg" xmlns="http://www.w3.org/2000/svg">
 <g>
  <path style="fill:#181818; fill-opacity:0.9843"
        d="M31.99 7.99C11.45 7.99 7.71 49.85 31.99 49.85C56.27 49.85 52.52 7.99 31.99 7.99z"
        transform="matrix(0.9048,0,0,1,-3.4569,-5.9999)"
  />
  <path style="fill:none; stroke:#181818; stroke-opacity:0.9843; stroke-width:6; stroke-linecap:round"
        d="M9.58 33.11H54.4
           M48.79 16.36L17.05 47.76
           M15.19 16.36L46.93 47.76"
        transform="matrix(0.9048,0,0,1,-3.4569,-5.9999)"
  />
  <linearGradient id="gradient0" gradientUnits="userSpaceOnUse" x1="171.19" y1="-111.97" x2="194.9" y2="-74.32">
   <stop offset="0" stop-color="#ffdcdc"/>
   <stop offset="1" stop-color="#e80606"/>
  </linearGradient>
  <path style="fill:url(#gradient0)"
        d="M30.12 26.83L18.92 24.74C18.92 24.74 18.92 37.29 22.65 41.48C26.39 45.67 30.12 45.67 30.12 45.67V26.83z
           M33.86 26.83V45.67C33.86 45.67 37.59 45.67 41.33 41.48C45.06 37.29 45.06 24.74 45.06 24.74L33.86 26.83z"
        transform="matrix(0.9048,0,0,1,-3.4569,-5.9999)"
  />
  <linearGradient id="gradient1" gradientUnits="userSpaceOnUse" x1="76.81" y1="-23.18" x2="84.55" y2="-4.93">
   <stop offset="0" stop-color="#c6c6c6"/>
   <stop offset="1" stop-color="#4a4a4a"/>
  </linearGradient>
  <path style="fill:url(#gradient1)"
        d="M20.32 21.07C20.32 21.07 28.25 22.64 31.99 22.64C35.73 22.64 43.66 21.07 43.66 21.07C43.66 21.07 41.33 12.18 31.99 12.18C22.65 12.18 20.32 21.07 20.32 21.07z"
        transform="matrix(0.9048,0,0,1,-3.4569,-5.9999)"
  />
  <path style="fill:#181818; fill-opacity:0.9843"
        d="M24.52 26.83C20.79 26.83 20.79 35.2 24.52 35.2C30.12 35.2 30.12 26.83 24.52 26.83z
           M39.46 31.02C33.86 31.02 33.86 39.39 39.46 39.39C43.19 39.39 43.19 31.02 39.46 31.02z"
        transform="matrix(0.9048,0,0,1,-3.4569,-5.9999)"
  />
  <path style="fill:none; stroke:#000000; stroke-opacity:0.4; stroke-width:1.9841; stroke-linecap:round; stroke-linejoin:round"
        d="M40.46 35.1L25.42 24.82V45.37L40.46 35.1z"
        transform="matrix(1,0,0,1,21,16)"
  />
  <linearGradient id="gradient2" gradientUnits="userSpaceOnUse" x1="79.38" y1="23.74" x2="79.38" y2="44.29">
   <stop offset="0" stop-color="#80ff80"/>
   <stop offset="1" stop-color="#00b200"/>
  </linearGradient>
  <path style="fill:url(#gradient2)"
        d="M39.57 34.02L24.54 23.74V44.29L39.57 34.02z"
        transform="matrix(1,0,0,1,21,16)"
  />
  <path style="fill:none; stroke:#005900; stroke-width:1.9841; stroke-linecap:round; stroke-linejoin:round"
        d="M39.57 34.02L24.54 23.74V44.29L39.57 34.02z"
        transform="matrix(1,0,0,1,21,16)"
  />
 </g>
</svg>
