<?xml version="1.0" encoding="UTF-8" standalone="yes"?>
<svg version="1.1" width="64" height="64" color-interpolation="linearRGB"
     xmlns:svg="http://www.w3.org/2000/svg" xmlns="http://www.w3.org/2000/svg">
 <g>
  <path style="fill:none; stroke:#000000; stroke-opacity:0.4; stroke-width:4.9548; stroke-linecap:round; stroke-linejoin:round"
        d="M54 31L36 12L32 16C32 16 46 31.12 46 31C46 30.87 32 43.69 32 44C32 44.38 37 49 37 49L54 31z"
        transform="matrix(1.1734,0,0,1.1825,-28.7827,-2.3879)"
  />
  <path style="fill:none; stroke:#0e0e0e; stroke-width:4.9548; stroke-linecap:round; stroke-linejoin:round"
        d="M54 31L36 12L32 16C32 16 46 31.12 46 31C46 30.87 32 43.69 32 44C32 44.38 37 49 37 49L54 31z"
        transform="matrix(1.1734,0,0,1.1825,-31.1297,-4.7531)"
  />
  <linearGradient id="gradient0" gradientUnits="userSpaceOnUse" x1="65.17" y1="12.53" x2="65.17" y2="33.08">
   <stop offset="0" stop-color="#848484"/>
   <stop offset="1" stop-color="#545454"/>
  </linearGradient>
  <path style="fill:url(#gradient0)"
        d="M54 31L36 12L32 16C32 16 46 31.12 46 31C46 30.87 32 43.69 32 44C32 44.38 37 49 37 49L54 31z"
        transform="matrix(1.1734,0,0,1.1825,-31.1297,-4.7531)"
  />
  <path style="fill:none; stroke:#000000; stroke-opacity:0.4; stroke-width:4.9548; stroke-linecap:round; stroke-linejoin:round"
        d="M36 49V42H61C61 42.38 61 49 61 49H36z"
        transform="matrix(1,0,0,1,-1,8)"
  />
  <path style="fill:none; stroke:#0e0e0e; stroke-width:4.9548; stroke-linecap:round; stroke-linejoin:round"
        d="M36 49V42H61C61 42.38 61 49 61 49H36z"
        transform="matrix(1,0,0,1,-3,6)"
  />
  <linearGradient id="gradient1" gradientUnits="userSpaceOnUse" x1="65.17" y1="12.53" x2="65.17" y2="33.08">
   <stop offset="0" stop-color="#848484"/>
   <stop offset="1" stop-color="#545454"/>
  </linearGradient>
  <path style="fill:url(#gradient1)"
        d="M36 49V42H61C61 42.38 61 49 61 49H36z"
        transform="matrix(1,0,0,1,-3,6)"
  />
 </g>
</svg>
