<?xml version="1.0" encoding="UTF-8" standalone="yes"?>
<svg version="1.1" width="64" height="64" color-interpolation="linearRGB"
     xmlns:svg="http://www.w3.org/2000/svg" xmlns="http://www.w3.org/2000/svg">
 <g>
  <path style="fill:none; stroke:#000000; stroke-opacity:0.4; stroke-width:4.9548; stroke-linecap:round; stroke-linejoin:round"
        d="M54 31L36 12L32 16C32 16 46 31.12 46 31C46 30.87 32 43.69 32 44C32 44.38 37 49 37 49L54 31z"
        transform="matrix(1,0,0,1,7,2)"
  />
  <path style="fill:none; stroke:#095609; stroke-width:4.9548; stroke-linecap:round; stroke-linejoin:round"
        d="M54 31L36 12L32 16C32 16 46 31.12 46 31C46 30.87 32 43.69 32 44C32 44.38 37 49 37 49L54 31z"
        transform="matrix(1,0,0,1,5,0)"
  />
  <linearGradient id="gradient0" gradientUnits="userSpaceOnUse" x1="165.44" y1="7.43" x2="165.44" y2="54.06">
   <stop offset="0" stop-color="#80ff80"/>
   <stop offset="1" stop-color="#00b200"/>
  </linearGradient>
  <path style="fill:url(#gradient0)"
        d="M54 31L36 12L32 16C32 16 46 31.12 46 31C46 30.87 32 43.69 32 44C32 44.38 37 49 37 49L54 31z"
        transform="matrix(1,0,0,1,5,0)"
  />
  <path style="fill:none; stroke:#000000; stroke-opacity:0.4; stroke-width:4.9548; stroke-linecap:round; stroke-linejoin:round"
        d="M39 31L56 12L61 17C59 16 47 31.12 47 31C47 30.87 59 43 60 44C60.27 44.27 56 49 56 49L39 31z"
        transform="matrix(1,0,0,1,-31,2)"
  />
  <path style="fill:none; stroke:#095609; stroke-width:4.9548; stroke-linecap:round; stroke-linejoin:round"
        d="M39 31L56 12L61 17C59 16 47 31.12 47 31C47 30.87 59 43 60 44C60.27 44.27 56 49 56 49L39 31z"
        transform="matrix(1,0,0,1,-33,0)"
  />
  <linearGradient id="gradient1" gradientUnits="userSpaceOnUse" x1="165.44" y1="7.43" x2="165.44" y2="54.06">
   <stop offset="0" stop-color="#80ff80"/>
   <stop offset="1" stop-color="#00b200"/>
  </linearGradient>
  <path style="fill:url(#gradient1)"
        d="M39 31L56 12L61 17C59 16 47 31.12 47 31C47 30.87 59 43 60 44C60.27 44.27 56 49 56 49L39 31z"
        transform="matrix(1,0,0,1,-33,0)"
  />
 </g>
</svg>
