<?xml version="1.0" encoding="UTF-8" standalone="yes"?>
<svg version="1.1" width="64" height="64" color-interpolation="linearRGB"
     xmlns:svg="http://www.w3.org/2000/svg" xmlns="http://www.w3.org/2000/svg">
 <g>
  <path style="fill:#000000; fill-opacity:0.3764"
        d="M39.38 4.07C59.75 4.07 76.28 17.25 76.28 33.49C76.28 49.72 59.74 64.19 35.54 63.06C33.97 68.05 28.21 74.07 18.63 74.28C21.1 71.12 24.47 67.97 24.55 60.36C11.58 55.8 2.48 45.51 2.48 33.49C2.48 17.25 19.01 4.07 39.38 4.07z"
        transform="matrix(0.7692,0,0,0.7866,4.086,4.4026)"
  />
  <path style="fill:#14acff"
        d="M39.38 4.07C59.75 4.07 76.28 17.25 76.28 33.49C76.28 49.72 59.74 64.19 35.54 63.06C33.97 68.05 28.21 74.07 18.63 74.28C21.1 71.12 24.47 67.97 24.55 60.36C11.58 55.8 2.48 45.51 2.48 33.49C2.48 17.25 19.01 4.07 39.38 4.07z"
        transform="matrix(0.7824,0,0,0.7866,0.0664,0.4026)"
  />
  <path style="fill:none; stroke:#000000; stroke-width:4.3668"
        d="M39.38 4.07C59.75 4.07 76.28 17.25 76.28 33.49C76.28 49.72 59.74 64.19 35.54 63.06C33.97 68.05 28.21 74.07 18.63 74.28C21.1 71.12 24.47 67.97 24.55 60.36C11.58 55.8 2.48 45.51 2.48 33.49C2.48 17.25 19.01 4.07 39.38 4.07z"
        transform="matrix(0.7824,0,0,0.7866,0.0664,0.4026)"
  />
 </g>
</svg>
