<?xml version="1.0" encoding="UTF-8" standalone="yes"?>
<svg version="1.1" width="64" height="64" color-interpolation="linearRGB"
     xmlns:svg="http://www.w3.org/2000/svg" xmlns="http://www.w3.org/2000/svg">
 <g>
  <path style="fill:#000000; fill-opacity:0.3764"
        d="M34.37 7.6C50.04 7.6 62.76 17.97 62.76 30.74C62.76 43.51 50.03 54.89 31.42 54C30.21 57.93 25.78 62.66 18.41 62.83C20.31 60.34 22.9 57.86 22.96 51.88C12.99 48.29 5.99 40.2 5.99 30.74C5.99 17.97 18.7 7.6 34.37 7.6z"
        transform="matrix(0.8559,0,0,0.8851,5.0422,3.2172)"
  />
  <path style="fill:#14acff"
        d="M30.87 3.6C46.81 3.6 59.74 13.97 59.74 26.74C59.74 39.51 46.8 50.89 27.87 50C26.64 53.93 22.13 58.66 14.64 58.83C16.57 56.34 19.21 53.86 19.27 47.88C9.12 44.29 2 36.2 2 26.74C2 13.97 14.93 3.6 30.87 3.6z"
        transform="matrix(0.8559,0,0,0.8851,5.0422,3.2172)"
  />
  <path style="fill:none; stroke:#000000; stroke-width:3.4257"
        d="M30.87 3.6C46.81 3.6 59.74 13.97 59.74 26.74C59.74 39.51 46.8 50.89 27.87 50C26.64 53.93 22.13 58.66 14.64 58.83C16.57 56.34 19.21 53.86 19.27 47.88C9.12 44.29 2 36.2 2 26.74C2 13.97 14.93 3.6 30.87 3.6z"
        transform="matrix(0.8559,0,0,0.8851,5.0422,3.2172)"
  />
 </g>
</svg>
