<?xml version="1.0" encoding="UTF-8" standalone="yes"?>
<svg version="1.1" width="64" height="64" color-interpolation="linearRGB"
     xmlns:svg="http://www.w3.org/2000/svg" xmlns="http://www.w3.org/2000/svg">
 <g>
  <path style="fill:none; stroke:#000000; stroke-opacity:0.4; stroke-width:4; stroke-linecap:round; stroke-linejoin:round"
        d="M4 38H38L36 4H28L26 8H6L4 38z
           M3.99 38L1.99 18H40L38 38H3.99z"
        transform="matrix(1.432,0,0,1.45,3.8597,2.9999)"
  />
  <path style="fill:none; stroke:#bf5000; stroke-width:4; stroke-linecap:round; stroke-linejoin:round"
        d="M4 38H38L36 4H28L26 8H6L4 38z"
        transform="matrix(1.432,0,0,1.45,0.9957,0.0999)"
  />
  <path style="fill:#ffc800"
        d="M4 38H38L36 4H28L26 8H6L4 38z"
        transform="matrix(1.432,0,0,1.45,0.9957,0.0999)"
  />
  <path style="fill:none; stroke:#bf5000; stroke-width:4; stroke-linecap:round; stroke-linejoin:round"
        d="M3.99 38L1.99 18H40L38 38H3.99z"
        transform="matrix(1.432,0,0,1.45,0.9957,0.0999)"
  />
  <linearGradient id="gradient0" gradientUnits="userSpaceOnUse" x1="128" y1="20" x2="128" y2="40">
   <stop offset="0" stop-color="#ffea80"/>
   <stop offset="1" stop-color="#ffbb00"/>
  </linearGradient>
  <path style="fill:url(#gradient0)"
        d="M3.99 38L1.99 18H40L38 38H3.99z"
        transform="matrix(1.432,0,0,1.45,0.9957,0.0999)"
  />
 </g>
</svg>
