<?xml version="1.0" encoding="UTF-8" standalone="yes"?>
<svg version="1.1" width="64" height="64" color-interpolation="linearRGB"
     xmlns:svg="http://www.w3.org/2000/svg" xmlns="http://www.w3.org/2000/svg">
 <g>
  <path style="fill:none; stroke:#000000; stroke-opacity:0.4; stroke-width:5.6374; stroke-linecap:round; stroke-linejoin:round"
        d="M17.88 6.62H60.17V60.17H17.88V6.62z"
        transform="matrix(0.8708,0,0,0.8709,4.138,4.127)"
  />
  <path style="fill:none; stroke:#000080; stroke-width:5.6374; stroke-linecap:round; stroke-linejoin:round"
        d="M15.06 3.8H57.36V57.35H15.06V3.8z"
        transform="matrix(0.8708,0,0,0.8709,4.138,4.127)"
  />
  <linearGradient id="gradient0" gradientUnits="userSpaceOnUse" x1="181.41" y1="3.8" x2="181.41" y2="57.35">
   <stop offset="0" stop-color="#ffffff"/>
   <stop offset="1" stop-color="#d9d9ff"/>
  </linearGradient>
  <path style="fill:url(#gradient0)"
        d="M15.06 3.8H57.36V57.35H15.06V3.8z"
        transform="matrix(0.8708,0,0,0.8709,4.138,4.127)"
  />
  <path style="fill:none; stroke:#000000; stroke-opacity:0.4; stroke-width:5.6374; stroke-linecap:round; stroke-linejoin:round"
        d="M48.9 23.54H20.7V15.09L6.61 29.18L20.7 43.27V34.81H48.9V23.54z"
        transform="matrix(0.8708,0,0,0.8709,4.138,4.127)"
  />
  <path style="fill:none; stroke:#005900; stroke-width:5.6374; stroke-linecap:round; stroke-linejoin:round"
        d="M46.08 20.72H17.88V12.27L3.79 26.36L17.88 40.45V31.99H46.08V20.72z"
        transform="matrix(0.8708,0,0,0.8709,4.138,4.127)"
  />
  <linearGradient id="gradient1" gradientUnits="userSpaceOnUse" x1="181.41" y1="12.27" x2="181.41" y2="43.26">
   <stop offset="0" stop-color="#80ff80"/>
   <stop offset="1" stop-color="#00b200"/>
  </linearGradient>
  <path style="fill:url(#gradient1)"
        d="M46.08 20.72H17.88V12.27L3.79 26.36L17.88 40.45V31.99H46.08V20.72z"
        transform="matrix(0.8708,0,0,0.8709,4.138,4.127)"
  />
 </g>
</svg>
