<?xml version="1.0" encoding="UTF-8" standalone="yes"?>
<svg version="1.1" width="64" height="64" color-interpolation="linearRGB"
     xmlns:svg="http://www.w3.org/2000/svg" xmlns="http://www.w3.org/2000/svg">
 <g>
  <path style="fill:none; stroke:#000000; stroke-opacity:0.4; stroke-width:5.5459; stroke-linecap:round; stroke-linejoin:round"
        d="M60.17 59.27H6.63V7.44H54.54L60.17 12.9V59.27z"
        transform="matrix(0.8707,0,0,0.8668,4.135,4.2582)"
  />
  <path style="fill:none; stroke:#000000; stroke-width:5.5459; stroke-linecap:round; stroke-linejoin:round"
        d="M57.36 56.54H3.81V4.71H51.72L57.36 10.18V56.54z"
        transform="matrix(0.8707,0,0,0.8668,4.135,4.2582)"
  />
  <linearGradient id="gradient0" gradientUnits="userSpaceOnUse" x1="181.35" y1="4.71" x2="181.35" y2="56.54">
   <stop offset="0" stop-color="#ababab"/>
   <stop offset="1" stop-color="#404040"/>
  </linearGradient>
  <path style="fill:url(#gradient0)"
        d="M57.36 56.54H3.81V4.71H51.72L57.36 10.18V56.54z"
        transform="matrix(0.8707,0,0,0.8668,4.135,4.2582)"
  />
  <path style="fill:none; stroke:#000000; stroke-width:5.5459; stroke-linecap:round; stroke-linejoin:round"
        d="M12.27 31.99H48.9V56.54H12.27V31.99z"
        transform="matrix(0.8707,0,0,0.8668,4.135,4.2582)"
  />
  <linearGradient id="gradient1" gradientUnits="userSpaceOnUse" x1="181.35" y1="31.99" x2="181.35" y2="56.54">
   <stop offset="0" stop-color="#ffffff"/>
   <stop offset="1" stop-color="#e6e6e6"/>
  </linearGradient>
  <path style="fill:url(#gradient1)"
        d="M12.27 31.99H48.9V56.54H12.27V31.99z"
        transform="matrix(0.8707,0,0,0.8668,4.135,4.2582)"
  />
  <path style="fill:#808080"
        d="M9.45 4.71H20.72V23.81H9.45V4.71z"
        transform="matrix(0.8707,0,0,0.8668,4.135,4.2582)"
  />
  <path style="fill:none; stroke:#000000; stroke-width:5.5459; stroke-linecap:round; stroke-linejoin:round"
        d="M20.72 4.71H48.9V21.09H20.72V4.71z"
        transform="matrix(0.8707,0,0,0.8668,4.135,4.2582)"
  />
  <linearGradient id="gradient2" gradientUnits="userSpaceOnUse" x1="181.35" y1="4.71" x2="181.35" y2="21.09">
   <stop offset="0" stop-color="#f7f7f7"/>
   <stop offset="1" stop-color="#cccccc"/>
  </linearGradient>
  <path style="fill:url(#gradient2)"
        d="M20.72 4.71H48.9V21.09H20.72V4.71z"
        transform="matrix(0.8707,0,0,0.8668,4.135,4.2582)"
  />
  <path style="fill:#000000"
        d="M37.63 7.45H43.27V18.36H37.63V7.45z"
        transform="matrix(0.8707,0,0,0.8668,4.135,4.2582)"
  />
  <path style="fill:#d90000"
        d="M15.09 51.08H46.08L48.9 56.54H12.27L15.09 51.08z"
        transform="matrix(0.8707,0,0,0.8668,4.135,4.2582)"
  />
 </g>
</svg>
