<?xml version="1.0" encoding="UTF-8" standalone="yes"?>
<svg version="1.1" width="64" height="64" color-interpolation="linearRGB"
     xmlns:svg="http://www.w3.org/2000/svg" xmlns="http://www.w3.org/2000/svg">
 <g>
  <path style="fill:none; stroke:#000000; stroke-opacity:0.4; stroke-width:5.636; stroke-linecap:round; stroke-linejoin:round"
        d="M60.17 60.17H6.63V6.62H54.54L60.17 12.27V60.17z"
        transform="matrix(0.8709,0,0,0.8709,4.129,4.1271)"
  />
  <path style="fill:none; stroke:#000000; stroke-width:5.636; stroke-linecap:round; stroke-linejoin:round"
        d="M57.36 57.36H3.81V3.8H51.72L57.36 9.45V57.36z"
        transform="matrix(0.8709,0,0,0.8709,4.129,4.1271)"
  />
  <linearGradient id="gradient0" gradientUnits="userSpaceOnUse" x1="181.35" y1="3.8" x2="181.35" y2="57.36">
   <stop offset="0" stop-color="#ababab"/>
   <stop offset="1" stop-color="#404040"/>
  </linearGradient>
  <path style="fill:url(#gradient0)"
        d="M57.36 57.36H3.81V3.8H51.72L57.36 9.45V57.36z"
        transform="matrix(0.8709,0,0,0.8709,4.129,4.1271)"
  />
  <path style="fill:none; stroke:#000000; stroke-width:5.636; stroke-linecap:round; stroke-linejoin:round"
        d="M12.27 31.99H48.9V57.36H12.27V31.99z"
        transform="matrix(0.8709,0,0,0.8709,4.129,4.1271)"
  />
  <linearGradient id="gradient1" gradientUnits="userSpaceOnUse" x1="181.35" y1="31.99" x2="181.35" y2="57.36">
   <stop offset="0" stop-color="#ffffff"/>
   <stop offset="1" stop-color="#e6e6e6"/>
  </linearGradient>
  <path style="fill:url(#gradient1)"
        d="M12.27 31.99H48.9V57.36H12.27V31.99z"
        transform="matrix(0.8709,0,0,0.8709,4.129,4.1271)"
  />
  <path style="fill:#808080"
        d="M9.45 3.8H20.72V23.54H9.45V3.8z"
        transform="matrix(0.8709,0,0,0.8709,4.129,4.1271)"
  />
  <path style="fill:none; stroke:#000000; stroke-width:5.636; stroke-linecap:round; stroke-linejoin:round"
        d="M20.72 3.8H48.9V20.72H20.72V3.8z"
        transform="matrix(0.8709,0,0,0.8709,4.129,4.1271)"
  />
  <linearGradient id="gradient2" gradientUnits="userSpaceOnUse" x1="181.35" y1="3.8" x2="181.35" y2="20.72">
   <stop offset="0" stop-color="#f7f7f7"/>
   <stop offset="1" stop-color="#cccccc"/>
  </linearGradient>
  <path style="fill:url(#gradient2)"
        d="M20.72 3.8H48.9V20.72H20.72V3.8z"
        transform="matrix(0.8709,0,0,0.8709,4.129,4.1271)"
  />
  <path style="fill:#000000"
        d="M37.63 6.63H43.27V17.9H37.63V6.63z"
        transform="matrix(0.8709,0,0,0.8709,4.129,4.1271)"
  />
  <path style="fill:#d90000"
        d="M15.09 51.72H46.08L48.9 57.36H12.27L15.09 51.72z"
        transform="matrix(0.8709,0,0,0.8709,4.129,4.1271)"
  />
  <path style="fill:none; stroke:#000080; stroke-width:5.636; stroke-linecap:round; stroke-linejoin:round"
        d="M3.81 17.9H57.36V43.27H40.45L30.58 50.31L20.72 43.27H3.81V17.9z"
        transform="matrix(0.8709,0,0,0.8709,4.129,4.1271)"
  />
  <linearGradient id="gradient3" gradientUnits="userSpaceOnUse" x1="181.35" y1="17.9" x2="181.35" y2="43.27">
   <stop offset="0" stop-color="#ffffff"/>
   <stop offset="1" stop-color="#e5e5ff"/>
  </linearGradient>
  <path style="fill:url(#gradient3)"
        d="M3.81 17.9H57.36V43.27H40.45L30.58 50.31L20.72 43.27H3.81V17.9z"
        transform="matrix(0.8709,0,0,0.8709,4.129,4.1271)"
  />
  <path style="fill:#000080"
        d="M26.36 40.45H29.18C29.88 40.45 30.58 39.04 30.58 37.63C30.58 39.04 31.29 40.45 31.99 40.45H34.81V37.63H31.99V23.54H34.81V20.72H31.99C31.29 20.72 30.58 22.13 30.58 23.54C30.58 22.13 29.88 20.72 29.18 20.72H26.36V23.54H29.18V37.63H26.36V40.45z"
        transform="matrix(0.8709,0,0,0.8709,4.129,4.1271)"
  />
  <path style="fill:none; stroke:#000000; stroke-width:2.818"
        d="M13.68 37.63V29.18C13.68 27.77 12.27 26.36 10.86 26.36C9.45 26.36 8.04 27.77 8.04 29.18
           M13.68 34.81C13.68 34.81 10.86 36.22 9.45 36.22C7.9 36.22 8.04 34.81 8.04 33.4C8.04 31.99 9.45 30.58 10.86 30.58H13.68
           M19.31 37.63V23.54
           M19.31 34.81C19.31 34.81 20.72 36.22 22.13 36.22C23.54 36.22 24.95 34.81 24.95 33.4C24.95 31.99 23.54 30.58 22.13 30.58H19.31"
        transform="matrix(0.8709,0,0,0.8709,4.129,4.1271)"
  />
 </g>
</svg>
