<?xml version="1.0" encoding="UTF-8" standalone="yes"?>
<svg version="1.1" width="64" height="64" color-interpolation="linearRGB"
     xmlns:svg="http://www.w3.org/2000/svg" xmlns="http://www.w3.org/2000/svg">
 <g>
  <path style="fill:none; stroke:#000000; stroke-opacity:0.4; stroke-width:4.8436; stroke-linecap:round; stroke-linejoin:round"
        d="M16.77 9.89H52.59V56.52H16.77V9.89z"
  />
  <path style="fill:none; stroke:#000080; stroke-width:4.8436; stroke-linecap:round; stroke-linejoin:round"
        d="M14.38 7.42H50.2V54.08H14.38V7.42z"
  />
  <linearGradient id="gradient0" gradientUnits="userSpaceOnUse" x1="160.07" y1="7.42" x2="160.07" y2="54.08">
   <stop offset="0" stop-color="#ffffff"/>
   <stop offset="1" stop-color="#d9d9ff"/>
  </linearGradient>
  <path style="fill:url(#gradient0)"
        d="M14.38 7.42H50.2V54.08H14.38V7.42z"
  />
  <path style="fill:none; stroke:#004080; stroke-width:8; stroke-linecap:round; stroke-linejoin:round"
        d="M21 2C10.5 2 2 10.5 2 21C2 31.48 10.5 40 21 40C31.48 40 40 31.48 40 21C40 10.5 31.48 2 21 2z"
        transform="matrix(0.6666,0,0,0.6666,31.9999,31.9999)"
  />
  <linearGradient id="gradient1" gradientUnits="userSpaceOnUse" x1="128" y1="1.99" x2="128" y2="40">
   <stop offset="0" stop-color="#abd5ff"/>
   <stop offset="1" stop-color="#006cd9"/>
  </linearGradient>
  <path style="fill:url(#gradient1)"
        d="M21 2C10.5 2 2 10.5 2 21C2 31.48 10.5 40 21 40C31.48 40 40 31.48 40 21C40 10.5 31.48 2 21 2z"
        transform="matrix(0.6666,0,0,0.6666,31.9999,31.9999)"
  />
  <path style="fill:#ffffff"
        d="M34 16L25 15L21 6L17 15L9 16L14 23L13 32L21 28L29 32L28 23L34 16z"
        transform="matrix(0.6666,0,0,0.6666,31.9999,31.9999)"
  />
 </g>
</svg>
