<?xml version="1.0" encoding="UTF-8" standalone="yes"?>
<svg version="1.1" width="64" height="64" color-interpolation="linearRGB"
     xmlns:svg="http://www.w3.org/2000/svg" xmlns="http://www.w3.org/2000/svg">
 <g>
  <path style="fill:none; stroke:#000000; stroke-opacity:0.4; stroke-width:5.6364; stroke-linecap:round; stroke-linejoin:round"
        d="M6.63 6.62L12.27 6.63C12.27 9.45 17.9 9.45 17.9 6.63H23.54C23.54 9.45 29.18 9.45 29.18 6.63H34.81C34.81 9.45 40.45 9.45 40.45 6.63H46.09C46.09 9.45 51.72 9.45 51.72 6.63H57.36V12.27C54.54 12.27 54.54 17.9 57.36 17.9V23.54C54.54 23.54 54.54 29.18 57.36 29.18V34.81C54.54 34.81 54.54 40.45 57.36 40.45V46.09C54.54 46.09 54.54 51.72 57.36 51.72V57.36H51.72C51.72 54.54 46.09 54.54 46.09 57.36H40.45C40.45 54.54 34.81 54.54 34.81 57.36H29.18C29.18 54.54 23.54 54.54 23.54 57.36H17.9C17.9 54.54 12.27 54.54 12.27 57.36H6.63V51.72C9.45 51.72 9.45 46.09 6.63 46.09V40.45C9.45 40.45 9.45 34.81 6.63 34.81V29.18C9.45 29.18 9.45 23.54 6.63 23.54V17.9C9.45 17.9 9.45 12.27 6.63 12.27V6.62z"
        transform="matrix(0.9193,0,0,0.9354,3.0806,3.0636)"
  />
  <path style="fill:none; stroke:#545454; stroke-width:5.6364; stroke-linecap:round; stroke-linejoin:round"
        d="M3.81 3.8L9.45 3.81C9.45 6.63 15.09 6.63 15.09 3.81H20.72C20.72 6.63 26.36 6.63 26.36 3.81H32C32 6.63 37.63 6.63 37.63 3.81H43.27C43.27 6.63 48.9 6.63 48.9 3.81H54.54V9.45C51.72 9.45 51.72 15.09 54.54 15.09V20.72C51.72 20.72 51.72 26.36 54.54 26.36V32C51.72 32 51.72 37.63 54.54 37.63V43.27C51.72 43.27 51.72 48.9 54.54 48.9V54.54H48.9C48.9 51.72 43.27 51.72 43.27 54.54H37.63C37.63 51.72 32 51.72 32 54.54H26.36C26.36 51.72 20.72 51.72 20.72 54.54H15.09C15.09 51.72 9.45 51.72 9.45 54.54H3.81V48.9C6.63 48.9 6.63 43.27 3.81 43.27V37.63C6.63 37.63 6.63 32 3.81 32V26.36C6.63 26.36 6.63 20.72 3.81 20.72V15.09C6.63 15.09 6.63 9.45 3.81 9.45V3.8z"
        transform="matrix(0.9193,0,0,0.9354,3.0806,3.0636)"
  />
  <linearGradient id="gradient0" gradientUnits="userSpaceOnUse" x1="181.36" y1="3.8" x2="181.36" y2="54.54">
   <stop offset="0" stop-color="#ffffff"/>
   <stop offset="1" stop-color="#e5e5e5"/>
  </linearGradient>
  <path style="fill:url(#gradient0)"
        d="M3.81 3.8L9.45 3.81C9.45 6.63 15.09 6.63 15.09 3.81H20.72C20.72 6.63 26.36 6.63 26.36 3.81H32C32 6.63 37.63 6.63 37.63 3.81H43.27C43.27 6.63 48.9 6.63 48.9 3.81H54.54V9.45C51.72 9.45 51.72 15.09 54.54 15.09V20.72C51.72 20.72 51.72 26.36 54.54 26.36V32C51.72 32 51.72 37.63 54.54 37.63V43.27C51.72 43.27 51.72 48.9 54.54 48.9V54.54H48.9C48.9 51.72 43.27 51.72 43.27 54.54H37.63C37.63 51.72 32 51.72 32 54.54H26.36C26.36 51.72 20.72 51.72 20.72 54.54H15.09C15.09 51.72 9.45 51.72 9.45 54.54H3.81V48.9C6.63 48.9 6.63 43.27 3.81 43.27V37.63C6.63 37.63 6.63 32 3.81 32V26.36C6.63 26.36 6.63 20.72 3.81 20.72V15.09C6.63 15.09 6.63 9.45 3.81 9.45V3.8z"
        transform="matrix(0.9193,0,0,0.9354,3.0806,3.0636)"
  />
  <linearGradient id="gradient1" gradientUnits="userSpaceOnUse" x1="181.36" y1="9.45" x2="181.36" y2="48.9">
   <stop offset="0" stop-color="#ffabab"/>
   <stop offset="1" stop-color="#d90000"/>
  </linearGradient>
  <path style="fill:none; stroke:url(#gradient1); stroke-width:5.6364"
        d="M12.27 12.27V46.09H46.09V12.27H12.27z
           M17.9 37.63C26.36 37.63 34.81 29.18 20.72 29.18L23.54 20.72H32"
        transform="matrix(0.9193,0,0,0.9354,3.0806,3.0636)"
  />
  <linearGradient id="gradient2" gradientUnits="userSpaceOnUse" x1="148.65" y1="113.8" x2="120.75" y2="141.7">
   <stop offset="0" stop-color="#ffabab"/>
   <stop offset="1" stop-color="#d90000"/>
  </linearGradient>
  <path style="fill:none; stroke:url(#gradient2); stroke-width:2.8182"
        d="M41.04 20.14C39.93 19.04 38.16 19.04 37.05 20.14C35.95 21.24 35.94 23.02 37.05 24.13C38.15 25.22 39.94 25.22 41.04 24.13"
        transform="matrix(0.9193,0,0,0.9354,3.0806,3.0636)"
  />
  <path style="fill:none; stroke:#000000; stroke-opacity:0.4; stroke-width:5.6364"
        d="M28.91 28.91C21.75 36.06 21.75 47.66 28.91 54.81C36.05 61.96 47.66 61.97 54.81 54.81C61.96 47.67 61.96 36.05 54.81 28.91C47.66 21.75 36.05 21.76 28.91 28.91z
           M36.88 52.82L51.82 37.88"
        transform="matrix(0.9193,0,0,0.9354,3.0806,3.0636)"
  />
 </g>
</svg>
