<?xml version="1.0" encoding="UTF-8" standalone="yes"?>
<svg version="1.1" width="64" height="64" color-interpolation="linearRGB"
     xmlns:svg="http://www.w3.org/2000/svg" xmlns="http://www.w3.org/2000/svg">
 <g>
  <path style="fill:none; stroke:#3c2401; stroke-width:3; stroke-linejoin:round"
        d="M54 4L36 22L32 32L42 28L60 10L54 4z"
        transform="matrix(1.7439,0,0,1.7439,-48.222,0.6108)"
  />
  <linearGradient id="gradient0" gradientUnits="userSpaceOnUse" x1="71.08" y1="-13.14" x2="76.3" y2="-8.06">
   <stop offset="0" stop-color="#ffb629"/>
   <stop offset="1" stop-color="#d85a05"/>
  </linearGradient>
  <path style="fill:url(#gradient0)"
        d="M54 4L36 22L42 28L60 10L54 4z"
        transform="matrix(1.7439,0,0,1.7439,-48.222,0.6108)"
  />
  <linearGradient id="gradient1" gradientUnits="userSpaceOnUse" x1="46.27" y1="9.94" x2="51.84" y2="14.51">
   <stop offset="0" stop-color="#ffebce"/>
   <stop offset="1" stop-color="#d3b283"/>
  </linearGradient>
  <path style="fill:url(#gradient1)"
        d="M36 22L34 26L38 30L42 28L36 22z"
        transform="matrix(1.7439,0,0,1.7439,-48.222,0.6108)"
  />
  <path style="fill:#4d4d4d"
        d="M34 26L32 32L38 30L34 26z"
        transform="matrix(1.7439,0,0,1.7439,-48.222,0.6108)"
  />
 </g>
</svg>
