<?xml version="1.0" encoding="UTF-8" standalone="yes"?>
<svg version="1.1" width="64" height="64" color-interpolation="linearRGB"
     xmlns:svg="http://www.w3.org/2000/svg" xmlns="http://www.w3.org/2000/svg">
 <g>
  <path style="fill:none; stroke:#000000; stroke-opacity:0.4; stroke-width:5.7191; stroke-linecap:round; stroke-linejoin:round"
        d="M9.44 58.09H57.36L54.54 8.8H43.27L40.45 14.6H12.26L9.44 58.09z
           M9.43 58.09L6.61 34.9H60.18L57.36 58.09H9.43z
           M9.44 32V20.39H57.36V32"
        transform="matrix(0.8711,0,0,0.8618,4.1236,4.4199)"
  />
  <path style="fill:none; stroke:#bf5000; stroke-width:5.7191; stroke-linecap:round; stroke-linejoin:round"
        d="M6.63 55.19H54.54L51.72 5.89H40.45L37.63 11.69H9.44L6.63 55.19z"
        transform="matrix(0.8711,0,0,0.8618,4.1236,4.4199)"
  />
  <path style="fill:#ffc800"
        d="M6.63 55.19H54.54L51.72 5.89H40.45L37.63 11.69H9.44L6.63 55.19z"
        transform="matrix(0.8711,0,0,0.8618,4.1236,4.4199)"
  />
  <path style="fill:none; stroke:#000080; stroke-width:5.7191; stroke-linecap:round; stroke-linejoin:round"
        d="M6.63 29.09V17.49H54.54V29.09"
        transform="matrix(0.8711,0,0,0.8618,4.1236,4.4199)"
  />
  <linearGradient id="gradient0" gradientUnits="userSpaceOnUse" x1="181.38" y1="17.49" x2="181.38" y2="29.09">
   <stop offset="0" stop-color="#ffffff"/>
   <stop offset="1" stop-color="#d9d9ff"/>
  </linearGradient>
  <path style="fill:url(#gradient0)"
        d="M6.63 29.09V17.49H54.54V29.09"
        transform="matrix(0.8711,0,0,0.8618,4.1236,4.4199)"
  />
  <path style="fill:none; stroke:#bf5000; stroke-width:5.7191; stroke-linecap:round; stroke-linejoin:round"
        d="M6.61 55.19L3.79 31.99H57.36L54.54 55.19H6.61z"
        transform="matrix(0.8711,0,0,0.8618,4.1236,4.4199)"
  />
  <linearGradient id="gradient1" gradientUnits="userSpaceOnUse" x1="181.38" y1="31.99" x2="181.38" y2="55.19">
   <stop offset="0" stop-color="#ffea80"/>
   <stop offset="1" stop-color="#ffbb00"/>
  </linearGradient>
  <path style="fill:url(#gradient1)"
        d="M6.61 55.19L3.79 31.99H57.36L54.54 55.19H6.61z"
        transform="matrix(0.8711,0,0,0.8618,4.1236,4.4199)"
  />
 </g>
</svg>
