<?xml version="1.0" encoding="UTF-8" standalone="yes"?>
<svg version="1.1" width="64" height="64" color-interpolation="linearRGB"
     xmlns:svg="http://www.w3.org/2000/svg" xmlns="http://www.w3.org/2000/svg">
 <g>
  <path style="fill:none; stroke:#000000; stroke-opacity:0.4; stroke-width:5.636; stroke-linecap:round; stroke-linejoin:round"
        d="M6.63 48.9V29.18C6.63 26.08 9.15 23.54 12.27 23.54H54.54C57.64 23.54 60.17 26.08 60.17 29.18V48.9H6.63z
           M17.9 6.62H48.9V20.72H17.9V6.62z
           M54.54 60.17H12.27L17.9 46.08H48.9L54.54 60.17z"
        transform="matrix(0.8709,0,0,0.8709,4.129,4.1271)"
  />
  <path style="fill:none; stroke:#d98e00; stroke-width:5.636; stroke-linecap:round; stroke-linejoin:round"
        d="M15.09 3.8H46.08V17.9H15.09V3.8z"
        transform="matrix(0.8709,0,0,0.8709,4.129,4.1271)"
  />
  <path style="fill:none; stroke:#545454; stroke-width:5.636; stroke-linecap:round; stroke-linejoin:round"
        d="M3.81 46.08V26.36C3.81 23.26 6.34 20.72 9.45 20.72H51.72C54.82 20.72 57.36 23.26 57.36 26.36V46.08H3.81z"
        transform="matrix(0.8709,0,0,0.8709,4.129,4.1271)"
  />
  <linearGradient id="gradient0" gradientUnits="userSpaceOnUse" x1="181.35" y1="20.72" x2="181.35" y2="46.08">
   <stop offset="0" stop-color="#ffffff"/>
   <stop offset="1" stop-color="#dadae6"/>
  </linearGradient>
  <path style="fill:url(#gradient0)"
        d="M3.81 46.08V26.36C3.81 23.26 6.34 20.72 9.45 20.72H51.72C54.82 20.72 57.36 23.26 57.36 26.36V46.08H3.81z"
        transform="matrix(0.8709,0,0,0.8709,4.129,4.1271)"
  />
  <linearGradient id="gradient1" gradientUnits="userSpaceOnUse" x1="181.35" y1="3.8" x2="181.35" y2="17.9">
   <stop offset="0" stop-color="#ffffff"/>
   <stop offset="1" stop-color="#ffffbf"/>
  </linearGradient>
  <path style="fill:url(#gradient1)"
        d="M15.09 3.8H46.08V17.9H15.09V3.8z"
        transform="matrix(0.8709,0,0,0.8709,4.129,4.1271)"
  />
  <path style="fill:#545454"
        d="M12.27 37.63H48.9V46.08H12.27V37.63z"
        transform="matrix(0.8709,0,0,0.8709,4.129,4.1271)"
  />
  <path style="fill:none; stroke:#d98e00; stroke-width:5.636; stroke-linecap:round; stroke-linejoin:round"
        d="M51.72 57.36H9.45L15.09 43.27H46.08L51.72 57.36z"
        transform="matrix(0.8709,0,0,0.8709,4.129,4.1271)"
  />
  <linearGradient id="gradient2" gradientUnits="userSpaceOnUse" x1="181.35" y1="43.27" x2="181.35" y2="57.36">
   <stop offset="0" stop-color="#ffffbf"/>
   <stop offset="1" stop-color="#ffffff"/>
  </linearGradient>
  <path style="fill:url(#gradient2)"
        d="M51.72 57.36H9.45L15.09 43.27H46.08L51.72 57.36z"
        transform="matrix(0.8709,0,0,0.8709,4.129,4.1271)"
  />
  <linearGradient id="gradient3" gradientUnits="userSpaceOnUse" x1="181.35" y1="20.72" x2="181.35" y2="34.81">
   <stop offset="0" stop-color="#808080"/>
   <stop offset="1" stop-color="#000000"/>
  </linearGradient>
  <path style="fill:url(#gradient3)"
        d="M48.9 20.72V29.18C48.9 32.27 46.36 34.81 43.27 34.81H17.9C14.8 34.81 12.27 32.27 12.27 29.18V20.72H48.9z"
        transform="matrix(0.8709,0,0,0.8709,4.129,4.1271)"
  />
  <path style="fill:#7d5400"
        d="M43.27 46.08H17.9L16.96 48.9H44.19L43.27 46.08z"
        transform="matrix(0.8709,0,0,0.8709,4.129,4.1271)"
  />
  <path style="fill:#7d5400"
        d="M45.14 51.72H16.01L15.09 54.54H46.08L45.14 51.72z"
        transform="matrix(0.8709,0,0,0.8709,4.129,4.1271)"
  />
 </g>
</svg>
