<?xml version="1.0" encoding="UTF-8" standalone="yes"?>
<svg version="1.1" width="64" height="64" color-interpolation="linearRGB"
     xmlns:svg="http://www.w3.org/2000/svg" xmlns="http://www.w3.org/2000/svg">
 <g>
  <path style="fill:none; stroke:#000000; stroke-opacity:0.4; stroke-width:5.7641; stroke-linecap:round; stroke-linejoin:round"
        d="M9.58 58.09H58.27L55.41 8.79H43.95L41.09 14.59H12.45L9.58 58.09z
           M9.57 58.09L6.7 29.09H61.13L58.27 58.09H9.57z"
        transform="matrix(0.873,0,0,0.8619,4.124,4.4165)"
  />
  <path style="fill:none; stroke:#bf5000; stroke-width:5.7641; stroke-linecap:round; stroke-linejoin:round"
        d="M6.72 55.19H55.41L52.54 5.89H41.09L38.22 11.69H9.58L6.72 55.19z"
        transform="matrix(0.873,0,0,0.8619,4.124,4.4165)"
  />
  <path style="fill:#ffc800"
        d="M6.72 55.19H55.41L52.54 5.89H41.09L38.22 11.69H9.58L6.72 55.19z"
        transform="matrix(0.873,0,0,0.8619,4.124,4.4165)"
  />
  <path style="fill:none; stroke:#bf5000; stroke-width:5.7641; stroke-linecap:round; stroke-linejoin:round"
        d="M6.7 55.19L3.84 26.19H58.27L55.41 55.19H6.7z"
        transform="matrix(0.873,0,0,0.8619,4.124,4.4165)"
  />
  <linearGradient id="gradient0" gradientUnits="userSpaceOnUse" x1="184.29" y1="29.09" x2="184.29" y2="58.09">
   <stop offset="0" stop-color="#ffea80"/>
   <stop offset="1" stop-color="#ffbb00"/>
  </linearGradient>
  <path style="fill:url(#gradient0)"
        d="M6.7 55.19L3.84 26.19H58.27L55.41 55.19H6.7z"
        transform="matrix(0.873,0,0,0.8619,4.124,4.4165)"
  />
 </g>
</svg>
