<?xml version="1.0" encoding="UTF-8" standalone="yes"?>
<svg version="1.1" width="64" height="64" color-interpolation="linearRGB"
     xmlns:svg="http://www.w3.org/2000/svg" xmlns="http://www.w3.org/2000/svg">
 <g>
  <path style="fill:#000000"
        d="M45.64 4.94C43.57 7.01 42.7 8.25 42.32 9.05C41.54 9.15 40.86 9.58 40.4 10.22C40 10.51 39.59 10.95 39.34 11.63C38.62 11.89 37.96 12.51 37.48 13.27C37.14 13.45 36.77 13.72 36.45 14.16C36.02 14.47 35.59 14.97 35.35 15.73C34.38 16.76 33.84 17.4 33.55 17.88C33.1 18.33 6.21 45.17 5.73 45.65C5.5 45.82 5.3 46.04 5.16 46.33C5.16 46.33 5.11 46.42 5.09 46.47C4.99 46.61 4.92 46.82 4.85 46.98C3.6 49.47 2.56 52.08 1.81 54.76C1.25 56.77 0.52 59.91 2.51 61.42C3.48 62.15 4.8 62.22 5.96 62.11C7.33 61.98 8.69 61.63 10 61.21C11.38 60.76 12.73 60.22 14.06 59.64C14.69 59.37 15.32 59.08 15.94 58.79C16.47 58.54 17.09 58.34 17.51 57.91C17.51 57.91 45.28 30.19 45.62 29.85C46.08 29.54 46.69 28.99 47.65 28.08C48.44 27.85 48.95 27.41 49.27 26.97C49.7 26.65 49.98 26.28 50.16 25.94C50.92 25.47 51.54 24.81 51.81 24.09C52.48 23.83 52.92 23.43 53.21 23.03C53.83 22.59 54.23 21.95 54.37 21.21C54.39 21.19 54.41 21.16 54.42 21.14C55.23 20.75 56.48 19.88 58.56 17.8C62.15 14.21 62.19 13.06 62.19 12.5C62.19 11.6 61.85 10.74 61.41 9.96C60.37 8.12 58.84 6.53 57.32 5.08C56.02 3.82 54.59 2.56 52.94 1.78C52.32 1.49 51.67 1.3 50.98 1.29C50.43 1.29 49.29 1.29 45.64 4.94"
  />
  <path style="fill:#e5b600"
        d="M16.11 56.5L52.85 19.83C52.85 19.83 49.5 18.66 47.15 16.31C44.89 14.06 43.63 10.62 43.63 10.62L6.89 47.3C6.89 47.3 4.44 52.68 7.47 55.71C10.5 58.73 16.11 56.5 16.11 56.5z"
  />
  <path style="fill:#000000"
        d="M16.11 56.5C16.11 56.5 5.53 61.67 3.62 59.77C1.71 57.86 6.89 47.29 6.89 47.29C6.89 47.29 4.28 51.87 7.8 55.38C11.32 58.9 16.11 56.5 16.11 56.5z"
  />
  <path style="fill:#e5dcc1"
        d="M6.86 47.28C6.86 47.28 3.22 55.5 3.77 56.16C3.77 56.16 5.22 54.51 5.45 54.74C5.57 54.87 4.42 56.82 4.59 57C4.74 57.15 6.07 56.08 6.24 56.25C6.39 56.41 5.38 57.79 5.54 57.96C5.71 58.13 8.27 56.02 8.44 56.18C8.58 56.33 6.33 58.76 6.46 58.89C6.58 59.02 8.29 58.03 8.38 58.13C8.59 58.33 7.13 59.56 7.12 59.56C7.73 60.16 16.08 56.49 16.08 56.49C16.08 56.49 12.83 56.83 14.62 53.23C14.79 52.89 15.43 52.16 15.27 52.09C15.11 52.02 14.64 52.66 14.33 52.86C11.54 54.64 9.12 51.99 10.9 49.35C11.06 49.1 11.56 48.79 11.61 48.51C11.51 48.32 10.87 48.87 10.58 48.98C6.14 50.55 6.86 47.28 6.86 47.28z"
  />
  <path style="fill:#a19066; fill-opacity:0.3294"
        d="M6.24 56.25C6.39 56.41 5.38 57.79 5.54 57.96C5.71 58.13 8.28 56.02 8.44 56.18C8.59 56.33 6.33 58.76 6.46 58.89C6.58 59.02 8.29 58.03 8.39 58.12C8.59 58.33 7.13 59.56 7.13 59.56C7.73 60.16 16.08 56.49 16.08 56.49C16.08 56.49 12.83 56.83 14.62 53.23C14.79 52.89 15.44 52.16 15.27 52.09C15.11 52.02 14.64 52.66 14.33 52.86C11.54 54.64 9.12 51.99 10.9 49.35C7.17 50.65 9.5 55.15 6.24 56.25z"
  />
  <path style="fill:#000000; fill-opacity:0.2"
        d="M52.57 20.12L49.14 18.35L13.81 53.6C13.81 53.6 6.17 57.44 3.7 59.9C5.32 61.51 15.92 56.69 15.92 56.69L52.57 20.12z"
  />
  <path style="fill:#ffffff; fill-opacity:0.2"
        d="M43.54 10.83L45.62 14.67L10.2 50.1C10.2 50.1 6.19 55.49 3.9 59.97C1.46 57.54 7.09 47.26 7.09 47.26L43.54 10.83z"
  />
  <path style="fill:#ffffff; fill-opacity:0.3294"
        d="M11.63 48.59L45.62 14.67L45.42 14.01L10.69 48.89L11.63 48.59z
           M4.19 57.18C4.19 57.18 5.89 53.98 4.01 56.23C3.37 57.57 3.19 58.89 3.9 59.97C4.29 59.22 5.3 57.53 5.3 57.53L5.67 56.7L4.19 57.18z"
  />
  <linearGradient id="gradient0" gradientUnits="userSpaceOnUse" x1="48.44" y1="24.93" x2="38.46" y2="14.95">
   <stop offset="0" stop-color="#5e5e5e"/>
   <stop offset="0.67" stop-color="#ffffff"/>
   <stop offset="1" stop-color="#d2d2d2"/>
  </linearGradient>
  <path style="fill:url(#gradient0)"
        d="M42.5 11.02C43.18 10.48 43.61 10.46 43.79 10.46C43.79 11.26 44.26 12.12 44.63 12.81C45.31 14.12 46.22 15.32 47.28 16.35C48.29 17.34 49.44 18.17 50.69 18.83C51.36 19.18 52.23 19.66 53.01 19.66C53.01 19.84 52.64 20.68 52.39 20.93L45.99 27.38C45.75 27.61 44.77 28.34 44.02 28.24C42.31 28.02 40.69 26.83 39.41 25.74C37.89 24.46 36.46 22.88 35.65 21.04C35.44 20.56 34.93 19.44 35.23 18.92C35.43 18.57 35.5 17.91 35.77 17.64L42.5 11.02z"
  />
  <linearGradient id="gradient1" gradientUnits="userSpaceOnUse" x1="47.32" y1="26.1" x2="37.32" y2="16.1">
   <stop offset="0" stop-color="#737373"/>
   <stop offset="1" stop-color="#d2d2d2"/>
  </linearGradient>
  <path style="fill:url(#gradient1)"
        d="M38.11 16.1C38.11 19.84 44.32 25.31 47.33 25.31C47.66 25.31 48.25 24.94 48.47 24.86C48.28 25.41 47.82 25.64 47 25.64C43.99 25.63 37.78 20.17 37.78 16.43C37.78 15.61 38.01 15.15 38.55 14.96C38.47 15.18 38.11 15.77 38.11 16.1z"
  />
  <linearGradient id="gradient2" gradientUnits="userSpaceOnUse" x1="46.67" y1="26.76" x2="36.66" y2="16.75">
   <stop offset="0" stop-color="#737373"/>
   <stop offset="1" stop-color="#d2d2d2"/>
  </linearGradient>
  <path style="fill:url(#gradient2)"
        d="M37.45 16.75C37.46 20.5 43.67 25.96 46.67 25.96C47 25.96 47.6 25.59 47.82 25.52C47.62 26.06 47.17 26.29 46.35 26.29C43.34 26.28 37.13 20.82 37.13 17.08C37.12 16.26 37.35 15.8 37.9 15.61C37.82 15.83 37.45 16.42 37.45 16.75z"
  />
  <linearGradient id="gradient3" gradientUnits="userSpaceOnUse" x1="50.59" y1="22.84" x2="40.59" y2="12.84">
   <stop offset="0" stop-color="#737373"/>
   <stop offset="1" stop-color="#d2d2d2"/>
  </linearGradient>
  <path style="fill:url(#gradient3)"
        d="M41.37 12.84C41.38 16.58 47.59 22.04 50.59 22.05C50.93 22.05 51.52 21.68 51.74 21.6C51.54 22.15 51.09 22.37 50.27 22.37C47.26 22.37 41.05 16.91 41.05 13.17C41.05 12.34 41.27 11.89 41.82 11.69C41.74 11.91 41.37 12.51 41.37 12.84z"
  />
  <linearGradient id="gradient4" gradientUnits="userSpaceOnUse" x1="51.29" y1="22.15" x2="41.28" y2="12.14">
   <stop offset="0" stop-color="#737373"/>
   <stop offset="1" stop-color="#d2d2d2"/>
  </linearGradient>
  <path style="fill:url(#gradient4)"
        d="M42.07 12.15C42.07 15.89 48.28 21.35 51.29 21.35C51.62 21.35 52.21 20.99 52.44 20.91C52.24 21.45 51.79 21.68 50.96 21.68C47.95 21.68 41.75 16.21 41.74 12.47C41.74 11.65 41.97 11.2 42.52 11C42.44 11.22 42.07 11.81 42.07 12.15z"
  />
  <linearGradient id="gradient5" gradientUnits="userSpaceOnUse" x1="47.12" y1="26.3" x2="37.12" y2="16.3">
   <stop offset="0" stop-color="#595959"/>
   <stop offset="0.75" stop-color="#ffffff"/>
   <stop offset="1" stop-color="#d2d2d2"/>
  </linearGradient>
  <path style="fill:url(#gradient5)"
        d="M37.91 16.3C37.91 20.04 44.12 25.5 47.13 25.51C47.46 25.51 48.05 25.14 48.27 25.06C48.08 25.61 47.62 25.84 46.8 25.83C43.79 25.83 37.58 20.37 37.58 16.63C37.58 15.8 37.81 15.35 38.35 15.16C38.27 15.38 37.91 15.97 37.91 16.3z"
  />
  <linearGradient id="gradient6" gradientUnits="userSpaceOnUse" x1="46.47" y1="26.95" x2="36.47" y2="16.95">
   <stop offset="0" stop-color="#595959"/>
   <stop offset="0.75" stop-color="#ffffff"/>
   <stop offset="1" stop-color="#d2d2d2"/>
  </linearGradient>
  <path style="fill:url(#gradient6)"
        d="M37.25 16.95C37.26 20.69 43.47 26.16 46.47 26.16C46.81 26.16 47.4 25.79 47.62 25.72C47.43 26.26 46.97 26.49 46.15 26.49C43.14 26.48 36.93 21.02 36.93 17.28C36.93 16.46 37.15 16 37.7 15.81C37.62 16.03 37.25 16.62 37.25 16.95z"
  />
  <linearGradient id="gradient7" gradientUnits="userSpaceOnUse" x1="50.39" y1="23.04" x2="40.39" y2="13.04">
   <stop offset="0" stop-color="#595959"/>
   <stop offset="0.75" stop-color="#ffffff"/>
   <stop offset="1" stop-color="#d2d2d2"/>
  </linearGradient>
  <path style="fill:url(#gradient7)"
        d="M41.18 13.04C41.18 16.78 47.39 22.24 50.4 22.24C50.73 22.25 51.32 21.88 51.54 21.8C51.35 22.34 50.89 22.57 50.07 22.57C47.06 22.57 40.85 17.11 40.85 13.36C40.85 12.54 41.08 12.09 41.62 11.89C41.54 12.11 41.17 12.71 41.18 13.04z"
  />
  <linearGradient id="gradient8" gradientUnits="userSpaceOnUse" x1="51.09" y1="22.35" x2="41.08" y2="12.34">
   <stop offset="0" stop-color="#595959"/>
   <stop offset="0.75" stop-color="#ffffff"/>
   <stop offset="1" stop-color="#d2d2d2"/>
  </linearGradient>
  <path style="fill:url(#gradient8)"
        d="M41.87 12.34C41.87 16.09 48.08 21.55 51.09 21.55C51.42 21.55 52.02 21.18 52.24 21.11C52.04 21.65 51.59 21.88 50.76 21.88C47.76 21.87 41.55 16.41 41.54 12.67C41.54 11.85 41.77 11.39 42.32 11.2C42.24 11.42 41.87 12.01 41.87 12.34z"
  />
  <linearGradient id="gradient9" gradientUnits="userSpaceOnUse" x1="48.57" y1="24.86" x2="38.57" y2="14.85">
   <stop offset="0" stop-color="#737373"/>
   <stop offset="1" stop-color="#d2d2d2"/>
  </linearGradient>
  <path style="fill:url(#gradient9)"
        d="M40.41 13.81C40.41 17.55 46.62 23.01 49.63 23.01C49.96 23.01 49.73 23.46 49.96 23.38C49.76 23.93 48.82 24.65 47.99 24.65C44.99 24.64 38.78 19.18 38.77 15.44C38.77 14.61 39.49 13.67 40.04 13.48C39.96 13.7 40.41 13.47 40.41 13.81z"
  />
  <linearGradient id="gradient10" gradientUnits="userSpaceOnUse" x1="48.37" y1="25.06" x2="38.37" y2="15.05">
   <stop offset="0" stop-color="#595959"/>
   <stop offset="0.75" stop-color="#ffffff"/>
   <stop offset="1" stop-color="#d2d2d2"/>
  </linearGradient>
  <path style="fill:url(#gradient10)"
        d="M40.21 14.01C40.21 17.75 46.42 23.21 49.43 23.21C49.76 23.21 49.54 23.66 49.76 23.58C49.56 24.13 48.62 24.84 47.79 24.84C44.79 24.84 38.58 19.38 38.57 15.64C38.57 14.81 39.29 13.87 39.84 13.68C39.76 13.9 40.21 13.67 40.21 14.01z"
  />
  <path style="fill:#ffffff; fill-opacity:0.498"
        d="M38 22.58C36.59 22.63 35.52 20.46 35.63 19.17C35.77 17.64 42.32 11.2 43.28 11.34C43.28 11.34 45.25 15.91 47.81 17.32C46.01 16.83 42.69 17.43 41.32 19.34C39.96 21.24 39.42 22.52 38 22.58z"
  />
  <linearGradient id="gradient11" gradientUnits="userSpaceOnUse" x1="56.94" y1="16.6" x2="46.86" y2="6.52">
   <stop offset="0" stop-color="#b64c4c"/>
   <stop offset="1" stop-color="#e19696"/>
  </linearGradient>
  <path style="fill:url(#gradient11)"
        d="M53.22 19.46C54.37 19.46 60.2 13.64 60.2 12.48C60.2 11.33 58.81 9.36 56.46 7.01C54.21 4.76 52.14 3.28 50.98 3.28C49.82 3.28 44 9.1 44 10.25C44 13.99 50.21 19.46 53.22 19.46z"
  />
  <linearGradient id="gradient12" gradientUnits="userSpaceOnUse" x1="52.1" y1="19.46" x2="52.1" y2="3.28">
   <stop offset="0" stop-color="#b64c4c"/>
   <stop offset="1" stop-color="#e19696"/>
  </linearGradient>
  <path style="fill:url(#gradient12)"
        d="M53.22 19.46C54.37 19.46 60.2 13.64 60.2 12.48C60.2 11.33 56.85 11.32 54.5 8.97C52.25 6.72 52.14 3.28 50.98 3.28C49.82 3.28 44 9.1 44 10.25C44 13.62 49.84 19.45 53.22 19.46z"
  />
  <path style="fill:#ffffff; fill-opacity:0.3294"
        d="M54.87 8.72C54.05 8.47 51.8 4.44 52.37 4.11C52.94 3.79 55.79 6.57 56.25 7.41C56.72 8.26 55.68 8.96 54.87 8.72z"
  />
  <path style="fill:#ffffff; fill-opacity:0.3294"
        d="M46.39 14.41C48.24 15.68 49.05 15.11 52.06 13.26C55.06 11.42 57.1 11.65 58.84 12C55.67 10.93 53.1 8.85 51.83 5.63C51.64 5.15 51.7 3.78 50.8 3.78C49.9 3.78 42.34 9.09 46.39 14.41z"
  />
 </g>
</svg>
