<?xml version="1.0" encoding="UTF-8" standalone="yes"?>
<svg version="1.1" width="64" height="64" color-interpolation="linearRGB"
     xmlns:svg="http://www.w3.org/2000/svg" xmlns="http://www.w3.org/2000/svg">
 <g>
  <path style="fill:#000000"
        d="M29.37 26.34C32.19 26.34 35.01 29.16 35.01 31.98L26.55 34.8L29.37 26.34z"
        transform="matrix(1.6014,0,0,1.6018,-35.3198,1.3572)"
  />
  <path style="fill:#000000; fill-opacity:0.4"
        d="M32.19 29.16L54.74 6.61L60.38 12.24L37.82 34.8C37.82 31.98 35.01 29.16 32.19 29.16z
           M32.19 29.16C35.01 29.16 37.82 31.98 37.82 34.8L29.37 37.62L32.19 29.16z"
        transform="matrix(1.6014,0,0,1.6018,-35.3198,1.3572)"
  />
  <path style="fill:none; stroke:#800000; stroke-width:5.6388; stroke-linecap:round; stroke-linejoin:round"
        d="M29.37 26.34L51.92 3.79L57.56 9.43L35.01 31.98C35.01 29.16 32.19 26.34 29.37 26.34z"
        transform="matrix(1.6014,0,0,1.6018,-35.3198,1.3572)"
  />
  <linearGradient id="gradient0" gradientUnits="userSpaceOnUse" x1="183.02" y1="3.77" x2="183.02" y2="31.98">
   <stop offset="0" stop-color="#ff0000"/>
   <stop offset="1" stop-color="#d90000"/>
  </linearGradient>
  <path style="fill:url(#gradient0)"
        d="M29.37 26.34L51.92 3.79L57.56 9.43L35.01 31.98C35.01 29.16 32.19 26.34 29.37 26.34z"
        transform="matrix(1.6014,0,0,1.6018,-35.3198,1.3572)"
  />
  <path style="fill:none; stroke:#545454; stroke-width:5.6388; stroke-linecap:round; stroke-linejoin:round"
        d="M29.37 26.34C32.19 26.34 35.01 29.16 35.01 31.98L26.55 34.8L29.37 26.34z"
        transform="matrix(1.6014,0,0,1.6018,-35.3198,1.3572)"
  />
  <linearGradient id="gradient1" gradientUnits="userSpaceOnUse" x1="26.55" y1="24.48" x2="36.85" y2="34.8">
   <stop offset="0" stop-color="#010101"/>
   <stop offset="1" stop-color="#ffffff"/>
  </linearGradient>
  <path style="fill:url(#gradient1)"
        d="M29.37 26.34C32.19 26.34 35.01 29.16 35.01 31.98L26.55 34.8L29.37 26.34z"
        transform="matrix(1.6014,0,0,1.6018,-35.3198,1.3572)"
  />
 </g>
</svg>
