<?xml version="1.0" encoding="UTF-8" standalone="yes"?>
<svg version="1.1" width="64" height="64" color-interpolation="linearRGB"
     xmlns:svg="http://www.w3.org/2000/svg" xmlns="http://www.w3.org/2000/svg">
 <g>
  <path style="fill:none; stroke:#000000; stroke-opacity:0.4; stroke-width:5.6596; stroke-linecap:round; stroke-linejoin:round"
        d="M9.69 6.61H52.37V60.09H9.69V6.61z"
        transform="matrix(0.86,0,0,0.8875,4.5619,4.109)"
  />
  <path style="fill:none; stroke:#000080; stroke-width:5.6596; stroke-linecap:round; stroke-linejoin:round"
        d="M6.84 3.8H49.52V57.28H6.84V3.8z"
        transform="matrix(0.86,0,0,0.8875,4.5619,4.109)"
  />
  <linearGradient id="gradient0" gradientUnits="userSpaceOnUse" x1="180.41" y1="3.8" x2="180.41" y2="57.28">
   <stop offset="0" stop-color="#ffffff"/>
   <stop offset="1" stop-color="#d9d9ff"/>
  </linearGradient>
  <path style="fill:url(#gradient0)"
        d="M6.84 3.8H49.52V57.28H6.84V3.8z"
        transform="matrix(0.86,0,0,0.8875,4.5619,4.109)"
  />
  <path style="fill:none; stroke:#000000; stroke-opacity:0.4; stroke-width:11.3193; stroke-linecap:round; stroke-linejoin:round"
        d="M26.76 37.58C29.6 46.02 38.14 40.39 38.14 40.39C38.14 40.39 52.37 60.09 55.21 57.28C58.06 54.46 38.14 40.39 38.14 40.39C38.14 40.39 43.83 31.95 35.29 29.14"
        transform="matrix(0.86,0,0,0.8875,4.5619,4.109)"
  />
  <path style="fill:none; stroke:#545454; stroke-width:11.3193; stroke-linecap:round; stroke-linejoin:round"
        d="M23.91 34.77C26.76 43.21 35.29 37.58 35.29 37.58C35.29 37.58 49.52 57.28 52.37 54.46C55.21 51.65 35.29 37.58 35.29 37.58C35.29 37.58 40.99 29.14 32.45 26.32"
        transform="matrix(0.86,0,0,0.8875,4.5619,4.109)"
  />
  <linearGradient id="gradient1" gradientUnits="userSpaceOnUse" x1="183.25" y1="23.51" x2="183.25" y2="57.28">
   <stop offset="0" stop-color="#ffffff"/>
   <stop offset="0.697" stop-color="#d9d9d9"/>
   <stop offset="1" stop-color="#ffffff"/>
  </linearGradient>
  <path style="fill:none; stroke:url(#gradient1); stroke-width:5.6596; stroke-linecap:round; stroke-linejoin:round"
        d="M23.91 34.77C26.76 43.21 35.29 37.58 35.29 37.58C35.29 37.58 49.52 57.28 52.37 54.46C55.21 51.65 35.29 37.58 35.29 37.58C35.29 37.58 40.99 29.14 32.45 26.32"
        transform="matrix(0.86,0,0,0.8875,4.5619,4.109)"
  />
 </g>
</svg>
