<?xml version="1.0" encoding="UTF-8" standalone="yes"?>
<svg version="1.1" width="64" height="64" color-interpolation="linearRGB"
     xmlns:svg="http://www.w3.org/2000/svg" xmlns="http://www.w3.org/2000/svg">
 <g>
  <path style="fill:none; stroke:#000000; stroke-opacity:0.4; stroke-width:4; stroke-linecap:round; stroke-linejoin:round"
        d="M10 1.99H40V40H10V1.99z"
        transform="matrix(1.4097,0,0,1.409,3.7915,3.8181)"
  />
  <path style="fill:none; stroke:#000080; stroke-width:4; stroke-linecap:round; stroke-linejoin:round"
        d="M10 1.99H40V40H10V1.99z"
        transform="matrix(1.4097,0,0,1.409,0.972,0.9999)"
  />
  <linearGradient id="gradient0" gradientUnits="userSpaceOnUse" x1="128" y1="1.99" x2="128" y2="40">
   <stop offset="0" stop-color="#ffffff"/>
   <stop offset="1" stop-color="#d9d9ff"/>
  </linearGradient>
  <path style="fill:url(#gradient0)"
        d="M10 1.99H40V40H10V1.99z"
        transform="matrix(1.4097,0,0,1.409,0.972,0.9999)"
  />
  <path style="fill:none; stroke:#000000; stroke-opacity:0.4; stroke-width:4; stroke-linecap:round; stroke-linejoin:round"
        d="M32 14H12V8L2 18L12 28V22H32V14z"
        transform="matrix(1.4097,0,0,1.409,3.7915,3.8181)"
  />
  <path style="fill:none; stroke:#005900; stroke-width:4; stroke-linecap:round; stroke-linejoin:round"
        d="M32 14H12V8L2 18L12 28V22H32V14z"
        transform="matrix(1.4097,0,0,1.409,0.972,0.9999)"
  />
  <linearGradient id="gradient1" gradientUnits="userSpaceOnUse" x1="128" y1="8" x2="128" y2="30">
   <stop offset="0" stop-color="#80ff80"/>
   <stop offset="1" stop-color="#00b200"/>
  </linearGradient>
  <path style="fill:url(#gradient1)"
        d="M32 14H12V8L2 18L12 28V22H32V14z"
        transform="matrix(1.4097,0,0,1.409,0.972,0.9999)"
  />
 </g>
</svg>
