<?xml version="1.0" encoding="UTF-8" standalone="yes"?>
<svg version="1.1" width="64" height="64" color-interpolation="linearRGB"
     xmlns:svg="http://www.w3.org/2000/svg" xmlns="http://www.w3.org/2000/svg">
 <g>
  <path style="fill:none; stroke:#000000; stroke-opacity:0.4; stroke-width:4; stroke-linecap:round; stroke-linejoin:round"
        d="M36.54 32.48C37.9 34.43 36.31 36.9 34.4 37.68C31.11 39.02 27.62 36.59 26.65 33.41C25.27 28.82 28.6 24.25 33.04 23.12C38.9 21.65 44.61 25.92 45.86 31.62C47.43 38.75 42.24 45.61 35.27 47C26.86 48.66 18.87 42.52 17.35 34.29C15.56 24.61 22.65 15.47 32.15 13.81C43.11 11.92 53.4 19.97 55.18 30.75C57.18 42.97 48.18 54.4 36.13 56.31C26.87 57.77 17.43 53.47 12.18 45.74"
        transform="matrix(1,0,0,1,-1,0)"
  />
  <path style="fill:none; stroke:#bf5000; stroke-width:6; stroke-linecap:round; stroke-linejoin:round"
        d="M34.54 29.48C35.9 31.43 34.31 33.9 32.4 34.68C29.11 36.02 25.62 33.59 24.65 30.42C23.27 25.82 26.6 21.25 31.04 20.12C36.9 18.65 42.61 22.92 43.86 28.62C45.43 35.75 40.24 42.61 33.27 44C24.86 45.66 16.87 39.52 15.35 31.29C13.56 21.61 20.65 12.47 30.15 10.81C41.11 8.92 51.4 16.97 53.18 27.75C55.18 39.97 46.18 51.4 34.13 53.31C24.87 54.77 15.43 50.47 10.18 42.74"
  />
  <linearGradient id="gradient0" gradientUnits="userSpaceOnUse" x1="164.45" y1="7.43" x2="164.45" y2="54.08">
   <stop offset="0" stop-color="#ffff80"/>
   <stop offset="1" stop-color="#ffd500"/>
  </linearGradient>
  <path style="fill:none; stroke:url(#gradient0); stroke-width:2.0999; stroke-linecap:round"
        d="M34.54 29.48C35.9 31.43 34.31 33.9 32.4 34.68C29.11 36.02 25.62 33.59 24.65 30.42C23.27 25.82 26.6 21.25 31.04 20.12C36.9 18.65 42.61 22.92 43.86 28.62C45.43 35.75 40.24 42.61 33.27 44C24.86 45.66 16.87 39.52 15.35 31.29C13.56 21.61 20.65 12.47 30.15 10.81C41.11 8.92 51.4 16.97 53.18 27.75C55.18 39.97 46.18 51.4 34.13 53.31C24.87 54.77 15.43 50.47 10.18 42.74"
  />
 </g>
</svg>
