<?xml version="1.0" encoding="UTF-8" standalone="yes"?>
<svg version="1.1" width="64" height="64" color-interpolation="linearRGB"
     xmlns:svg="http://www.w3.org/2000/svg" xmlns="http://www.w3.org/2000/svg">
 <g>
  <path style="fill:none; stroke:#000000; stroke-opacity:0.4; stroke-width:2.4541; stroke-linecap:round; stroke-linejoin:round"
        d="M40.58 8.66C31.08 8.66 23.4 16.91 23.4 27.08C23.4 37.23 31.08 45.48 40.58 45.48C50.06 45.48 57.75 37.23 57.75 27.08C57.75 16.91 50.06 8.66 40.58 8.66z"
        transform="matrix(1.4074,0,0,1.3354,-23.0346,-2.671)"
  />
  <path style="fill:none; stroke:#005900; stroke-width:2.4541; stroke-linecap:round; stroke-linejoin:round"
        d="M38.12 6.2C28.62 6.2 20.94 14.45 20.94 24.62C20.94 34.79 28.62 43.03 38.12 43.03C47.61 43.03 55.3 34.79 55.3 24.62C55.3 14.45 47.61 6.2 38.12 6.2z"
        transform="matrix(1.4074,0,0,1.3354,-23.0346,-2.671)"
  />
 </g>
</svg>
