<?xml version="1.0" encoding="UTF-8" standalone="yes"?>
<svg version="1.1" width="64" height="64" color-interpolation="linearRGB"
     xmlns:svg="http://www.w3.org/2000/svg" xmlns="http://www.w3.org/2000/svg">
 <g>
  <path style="fill:#729fcf"
        d="M9.85 62.11L10.13 -0.11"
        transform="matrix(0.875,0,0,0.8752,4,3.9828)"
  />
  <path style="fill:none; stroke:#1f4a87; stroke-width:11.9991"
        d="M9.85 62.11L10.13 -0.11"
        transform="matrix(0.875,0,0,0.8752,4,3.9828)"
  />
  <path style="fill:none; stroke:#93b6db; stroke-width:4.7996"
        d="M9.85 62.11L10.13 -0.11"
        transform="matrix(0.875,0,0,0.8752,4,3.9828)"
  />
  <path style="fill:#729fcf"
        d="M0.88 54.05L63.11 53.93"
        transform="matrix(0.875,0,0,0.8752,4,3.9828)"
  />
  <path style="fill:none; stroke:#1f4a87; stroke-width:11.999"
        d="M0.88 54.05L63.11 53.93"
        transform="matrix(0.875,0,0,0.8752,4,3.9828)"
  />
  <path style="fill:none; stroke:#93b6db; stroke-width:4.7996"
        d="M0.88 54.05L63.11 53.93"
        transform="matrix(0.875,0,0,0.8752,4,3.9828)"
  />
  <path style="fill:#babdb6"
        d="M2 2H18V17.98H2V2z"
        transform="matrix(0.875,0,0,0.8752,4,3.9828)"
  />
  <path style="fill:none; stroke:#888a85; stroke-width:4; stroke-linecap:round; stroke-linejoin:round"
        d="M2 2H18V17.98H2V2z"
        transform="matrix(0.875,0,0,0.8752,4,3.9828)"
  />
  <path style="fill:none; stroke:#ffffff; stroke-width:4; stroke-linecap:round"
        d="M6 50H14V58H6V50z"
        transform="matrix(0.875,0,0,0.8752,4,3.9828)"
  />
  <path style="fill:#babdb6"
        d="M2 46H18V61.98H2V46z"
        transform="matrix(0.875,0,0,0.8752,4,3.9828)"
  />
  <path style="fill:none; stroke:#888a85; stroke-width:4; stroke-linecap:round; stroke-linejoin:round"
        d="M2 46H18V61.98H2V46z"
        transform="matrix(0.875,0,0,0.8752,4,3.9828)"
  />
  <path style="fill:none; stroke:#ffffff; stroke-width:4; stroke-linecap:round"
        d="M6 6H14V14H6V6z"
        transform="matrix(0.875,0,0,0.8752,4,3.9828)"
  />
  <path style="fill:#babdb6"
        d="M46 46H62V61.99H46V46z"
        transform="matrix(0.875,0,0,0.8752,4,3.9828)"
  />
  <path style="fill:none; stroke:#888a85; stroke-width:4; stroke-linecap:round; stroke-linejoin:round"
        d="M46 46H62V61.99H46V46z"
        transform="matrix(0.875,0,0,0.8752,4,3.9828)"
  />
  <path style="fill:none; stroke:#ffffff; stroke-width:4; stroke-linecap:round"
        d="M50 50H58V58H50V50z"
        transform="matrix(0.875,0,0,0.8752,4,3.9828)"
  />
  <path style="fill:#000000"
        d="M14.71 40.43C19.1 40.43 23.49 44.82 23.49 49.21L10.32 53.6L14.71 40.43z"
        transform="matrix(0.875,0,0,0.8752,4,3.9828)"
  />
  <path style="fill:#000000; fill-opacity:0.4"
        d="M19.1 44.82L54.21 9.7L62.99 18.48L27.88 53.6C27.88 49.21 23.49 44.82 19.1 44.82z
           M19.1 44.82C23.49 44.82 27.88 49.21 27.88 53.6L14.71 57.99L19.1 44.82z"
        transform="matrix(0.875,0,0,0.8752,4,3.9828)"
  />
  <path style="fill:none; stroke:#800000; stroke-width:8.7802; stroke-linecap:round; stroke-linejoin:round"
        d="M14.71 40.43L49.82 5.3L58.6 14.09L23.49 49.21C23.49 44.82 19.1 40.43 14.71 40.43z"
        transform="matrix(0.875,0,0,0.8752,4,3.9828)"
  />
  <linearGradient id="gradient0" gradientUnits="userSpaceOnUse" x1="57.22" y1="0.32" x2="79.28" y2="22.74">
   <stop offset="0" stop-color="#ffaa00"/>
   <stop offset="1" stop-color="#d90000"/>
  </linearGradient>
  <path style="fill:url(#gradient0)"
        d="M14.71 40.43L49.82 5.3L58.6 14.09L23.49 49.21C23.49 44.82 19.1 40.43 14.71 40.43z"
        transform="matrix(0.875,0,0,0.8752,4,3.9828)"
  />
  <path style="fill:none; stroke:#545454; stroke-width:8.7802; stroke-linecap:round; stroke-linejoin:round"
        d="M14.71 40.43C19.1 40.43 23.49 44.82 23.49 49.21L10.32 53.6L14.71 40.43z"
        transform="matrix(0.875,0,0,0.8752,4,3.9828)"
  />
  <linearGradient id="gradient1" gradientUnits="userSpaceOnUse" x1="10.32" y1="37.53" x2="26.34" y2="53.58">
   <stop offset="0" stop-color="#010101"/>
   <stop offset="1" stop-color="#ffffff"/>
  </linearGradient>
  <path style="fill:url(#gradient1)"
        d="M14.71 40.43C19.1 40.43 23.49 44.82 23.49 49.21L10.32 53.6L14.71 40.43z"
        transform="matrix(0.875,0,0,0.8752,4,3.9828)"
  />
 </g>
</svg>
