<?xml version="1.0" encoding="UTF-8" standalone="yes"?>
<svg version="1.1" width="64" height="64" color-interpolation="linearRGB"
     xmlns:svg="http://www.w3.org/2000/svg" xmlns="http://www.w3.org/2000/svg">
 <g>
  <path style="fill:none; stroke:#000000; stroke-opacity:0.4; stroke-width:2; stroke-linecap:round; stroke-linejoin:round"
        d="M6 20C8 6 24 6 32 16C42 26 12 34 28 42"
        transform="matrix(1.2727,0,0,1.2727,4,4.0006)"
  />
  <path style="fill:none; stroke:#005900; stroke-width:2; stroke-linecap:round; stroke-linejoin:round"
        d="M4 18C6 4 22 4 30 14C40 24 10 32 26 40"
        transform="matrix(1.2727,0,0,1.2727,4,4.0006)"
  />
  <path style="fill:none; stroke:#ffd400; stroke-width:2; stroke-linecap:round; stroke-linejoin:round"
        d="M22 4L30 14L40 24
           M4 18L6 4
           M10 32L26 40"
        transform="matrix(1.2727,0,0,1.2727,4,4.0006)"
  />
  <path style="fill:none; stroke:#d90000; stroke-width:2"
        d="M1 15V21H7V15H1z"
        transform="matrix(1.2727,0,0,1.2727,4,4.0006)"
  />
  <path style="fill:none; stroke:#d90000; stroke-width:2"
        d="M27 11V17H33V11H27z"
        transform="matrix(1.2727,0,0,1.2727,4,4.0006)"
  />
  <path style="fill:none; stroke:#d90000; stroke-width:2"
        d="M23 37V43H29V37H23z"
        transform="matrix(1.2727,0,0,1.2727,4,4.0006)"
  />
  <path style="fill:none; stroke:#d90000; stroke-width:2"
        d="M6 1C4.34 1 3 2.34 3 4C3 5.64 4.34 7 6 7C7.64 7 9 5.64 9 4C9 2.34 7.64 1 6 1z"
        transform="matrix(1.2727,0,0,1.2727,4,4.0006)"
  />
  <path style="fill:none; stroke:#d90000; stroke-width:2"
        d="M22 1C20.34 1 19 2.34 19 4C19 5.64 20.34 7 22 7C23.64 7 25 5.64 25 4C25 2.34 23.64 1 22 1z"
        transform="matrix(1.2727,0,0,1.2727,4,4.0006)"
  />
  <path style="fill:none; stroke:#d90000; stroke-width:2"
        d="M40 21C38.34 21 37 22.34 37 24C37 25.64 38.34 27 40 27C41.65 27 43 25.64 43 24C43 22.34 41.65 21 40 21z"
        transform="matrix(1.2727,0,0,1.2727,4,4.0006)"
  />
  <path style="fill:none; stroke:#d90000; stroke-width:2"
        d="M10 29C8.34 29 7 30.34 7 32C7 33.65 8.34 35 10 35C11.64 35 13 33.65 13 32C13 30.34 11.64 29 10 29z"
        transform="matrix(1.2727,0,0,1.2727,4,4.0006)"
  />
 </g>
</svg>
