<?xml version="1.0" encoding="UTF-8" standalone="yes"?>
<svg version="1.1" width="64" height="64" color-interpolation="linearRGB"
     xmlns:svg="http://www.w3.org/2000/svg" xmlns="http://www.w3.org/2000/svg">
 <g>
  <path style="fill:none; stroke:#000000; stroke-opacity:0.4; stroke-width:2.818; stroke-linecap:round; stroke-linejoin:round"
        d="M41.86 44.67V5.22H5.21V44.67H41.86z"
        transform="matrix(0.8709,0,0,0.8709,4.1271,4.129)"
  />
  <path style="fill:none; stroke:#005900; stroke-width:2.818; stroke-linecap:round; stroke-linejoin:round"
        d="M39.04 41.86V2.4H2.39V41.86H39.04z
           M57.36 57.36V26.36H17.9V57.36H57.36z"
        transform="matrix(0.8709,0,0,0.8709,4.1271,4.129)"
  />
  <path style="fill:none; stroke:#000000; stroke-opacity:0.4; stroke-width:5.636; stroke-linecap:round; stroke-linejoin:round"
        d="M60.17 60.17V29.18H20.72V60.17H60.17z"
        transform="matrix(0.8709,0,0,0.8709,4.1271,4.129)"
  />
  <path style="fill:none; stroke:#005900; stroke-width:5.636; stroke-linecap:round; stroke-linejoin:round"
        d="M57.36 57.36V26.36H17.9V57.36H57.36z"
        transform="matrix(0.8709,0,0,0.8709,4.1271,4.129)"
  />
  <linearGradient id="gradient0" gradientUnits="userSpaceOnUse" x1="181.35" y1="26.36" x2="181.35" y2="57.36">
   <stop offset="0" stop-color="#80ff80"/>
   <stop offset="1" stop-color="#00b200"/>
  </linearGradient>
  <path style="fill:url(#gradient0)"
        d="M57.36 57.36V26.36H17.9V57.36H57.36z"
        transform="matrix(0.8709,0,0,0.8709,4.1271,4.129)"
  />
 </g>
</svg>
