<?xml version="1.0" encoding="UTF-8" standalone="yes"?>
<svg version="1.1" width="64" height="64" color-interpolation="linearRGB"
     xmlns:svg="http://www.w3.org/2000/svg" xmlns="http://www.w3.org/2000/svg">
 <g>
  <path style="fill:none; stroke:#000000; stroke-opacity:0.4; stroke-width:2.9131; stroke-linecap:round; stroke-linejoin:round"
        d="M26.78 23.2V8.4H8.16V46.89C8.16 46.89 20.03 45.84 21.05 46.89C22.48 48.37 29.13 60.22 28.21 60.22C26.46 60.22 59.36 61.7 61.15 61.7C62.23 61.7 26.78 23.2 26.78 23.2z"
        transform="matrix(0.8864,0,0,0.8712,4.1135,4.1287)"
  />
  <path style="fill:none; stroke:#005900; stroke-width:2.9131; stroke-linecap:round; stroke-linejoin:round"
        d="M23.91 20.24V5.44H5.29V43.93C5.29 43.93 17.17 42.88 18.18 43.93C19.61 45.41 26.26 57.25 25.34 57.25C23.6 57.25 56.5 58.73 58.29 58.73C59.36 58.73 23.91 20.24 23.91 20.24z"
        transform="matrix(0.8864,0,0,0.8712,4.1135,4.1287)"
  />
  <path style="fill:#000000; fill-opacity:0.4"
        d=""
        transform="matrix(0.8864,0,0,0.8712,4.1135,4.1287)"
  />
 </g>
</svg>
