<?xml version="1.0" encoding="UTF-8" standalone="yes"?>
<svg version="1.1" width="64" height="64" color-interpolation="linearRGB"
     xmlns:svg="http://www.w3.org/2000/svg" xmlns="http://www.w3.org/2000/svg">
 <g>
  <path style="fill:#000000; fill-opacity:0.4509"
        d="M10.06 17.74V43.57L34.56 55.73L52.93 37.49V13.18L29.96 7.1L10.06 17.74z
           M10.06 17.74V43.57L34.56 55.73V26.86L10.06 17.74z
           M10.06 17.74L34.56 26.86L52.93 13.18L29.96 7.1L10.06 17.74z
           M34.56 26.86V55.73L52.93 37.49V13.18L34.56 26.86z"
        transform="matrix(1,0,0,1,4,5)"
  />
  <path style="fill:none; stroke:#573a02; stroke-width:6.1014"
        d="M10.06 17.74V43.57L34.56 55.73L52.93 37.49V13.18L29.96 7.1L10.06 17.74z"
  />
  <linearGradient id="gradient0" gradientUnits="userSpaceOnUse" x1="-44.86" y1="-2.84" x2="-6.04" y2="-40.42">
   <stop offset="0" stop-color="#ffec4b"/>
   <stop offset="1" stop-color="#f0a506"/>
  </linearGradient>
  <path style="fill:url(#gradient0)"
        d="M10.06 17.74V43.57L34.56 55.73V26.86L10.06 17.74z"
  />
  <linearGradient id="gradient1" gradientUnits="userSpaceOnUse" x1="32.26" y1="-35.13" x2="71.3" y2="-14.39">
   <stop offset="0" stop-color="#ffffff"/>
   <stop offset="1" stop-color="#fff289"/>
  </linearGradient>
  <path style="fill:url(#gradient1)"
        d="M10.06 17.74L34.56 26.86L52.93 13.18L29.96 7.1L10.06 17.74z"
  />
  <linearGradient id="gradient2" gradientUnits="userSpaceOnUse" x1="66.71" y1="-15.03" x2="92.65" y2="4.72">
   <stop offset="0" stop-color="#f99b05"/>
   <stop offset="1" stop-color="#fcb23d"/>
  </linearGradient>
  <path style="fill:url(#gradient2)"
        d="M34.56 26.86V55.73L52.93 37.49V13.18L34.56 26.86z"
  />
 </g>
</svg>
