<?xml version="1.0" encoding="UTF-8" standalone="yes"?>
<svg version="1.1" width="64" height="64" color-interpolation="linearRGB"
     xmlns:svg="http://www.w3.org/2000/svg" xmlns="http://www.w3.org/2000/svg">
 <g>
  <path style="fill:none; stroke:#000000; stroke-opacity:0.4; stroke-width:2; stroke-linecap:round; stroke-linejoin:round"
        d="M16 13V3H3V29C3 29 11.29 28.29 12 29C13 30 17.64 38 17 38C15.78 38 38.75 39 40 39C40.75 39 16 13 16 13z"
        transform="matrix(1.4323,0,0,1.4805,3.8647,3.961)"
  />
  <path style="fill:none; stroke:#005900; stroke-width:2; stroke-linecap:round; stroke-linejoin:round"
        d="M16 13V3H3V29C3 29 11.29 28.29 12 29C13 30 17.64 38 17 38C15.78 38 38.75 39 40 39C40.75 39 16 13 16 13z"
        transform="matrix(1.4323,0,0,1.4805,1,1)"
  />
  <path style="fill:#000000; fill-opacity:0.4"
        d=""
        transform="matrix(1.0165,0,0,1.0506,-0.0165,-0.0506)"
  />
 </g>
</svg>
