<?xml version="1.0" encoding="UTF-8" standalone="yes"?>
<svg version="1.1" width="64" height="64" color-interpolation="linearRGB"
     xmlns:svg="http://www.w3.org/2000/svg" xmlns="http://www.w3.org/2000/svg">
 <g>
  <path style="fill:none; stroke:#000000; stroke-opacity:0.4; stroke-width:4; stroke-linejoin:round"
        d="M18 4C18 1.99 16 -0 16 -0H14V26H18C18 26 18 6 18 4z"
        transform="matrix(1.3078,0.4328,-0.4448,1.2722,24.82,1.8241)"
  />
  <path style="fill:none; stroke:#000000; stroke-opacity:0.4; stroke-width:8"
        d="M8 30C5.79 30 4 32.68 4 36C4 39.31 5.79 42 8 42C10.2 42 12 39.31 12 36C12 32.68 10.2 30 8 30z"
        transform="matrix(1.3078,0.4328,-0.4448,1.2722,24.82,1.8241)"
  />
  <path style="fill:none; stroke:#000000; stroke-opacity:0.4; stroke-width:4"
        d="M18 26C18 30 14 32 14 36H10C10 32 14 30 14 26H18z"
        transform="matrix(1.3078,0.4328,-0.4448,1.2722,24.82,1.8241)"
  />
  <path style="fill:none; stroke:#545454; stroke-width:4; stroke-linejoin:round"
        d="M18 4C18 1.99 16 -0 16 -0H14V26H18C18 26 18 6 18 4z"
        transform="matrix(1.3078,0.4328,-0.4448,1.2722,22.0571,-0.8636)"
  />
  <path style="fill:none; stroke:#800000; stroke-width:8"
        d="M8 30C5.79 30 4 32.68 4 36C4 39.31 5.79 42 8 42C10.2 42 12 39.31 12 36C12 32.68 10.2 30 8 30z"
        transform="matrix(1.3078,0.4328,-0.4448,1.2722,22.0571,-0.8636)"
  />
  <path style="fill:none; stroke:#800000; stroke-width:4"
        d="M18 26C18 30 14 32 14 36H10C10 32 14 30 14 26H18z"
        transform="matrix(1.3078,0.4328,-0.4448,1.2722,22.0571,-0.8636)"
  />
  <linearGradient id="gradient0" gradientUnits="userSpaceOnUse" x1="128" y1="1.99" x2="128" y2="26">
   <stop offset="0" stop-color="#e6eaf2"/>
   <stop offset="1" stop-color="#ced2d9"/>
  </linearGradient>
  <path style="fill:url(#gradient0)"
        d="M18 4C18 1.99 16 -0 16 -0H14V26H18C18 26 18 6 18 4z"
        transform="matrix(1.3078,0.4328,-0.4448,1.2722,22.0571,-0.8636)"
  />
  <linearGradient id="gradient1" gradientUnits="userSpaceOnUse" x1="128" y1="26" x2="128" y2="44">
   <stop offset="0" stop-color="#ffabab"/>
   <stop offset="1" stop-color="#d90000"/>
  </linearGradient>
  <path style="fill:none; stroke:url(#gradient1); stroke-width:4"
        d="M8 30C5.79 30 4 32.68 4 36C4 39.31 5.79 42 8 42C10.2 42 12 39.31 12 36C12 32.68 10.2 30 8 30z"
        transform="matrix(1.3078,0.4328,-0.4448,1.2722,22.0571,-0.8636)"
  />
  <linearGradient id="gradient2" gradientUnits="userSpaceOnUse" x1="128" y1="26" x2="128" y2="44">
   <stop offset="0" stop-color="#ffabab"/>
   <stop offset="1" stop-color="#d90000"/>
  </linearGradient>
  <path style="fill:url(#gradient2)"
        d="M18 26C18 30 14 32 14 36H10C10 32 14 30 14 26H18z"
        transform="matrix(1.3078,0.4328,-0.4448,1.2722,22.0571,-0.8636)"
  />
  <path style="fill:#ffffff"
        d="M16 18L14 20V-0H16V18z"
        transform="matrix(1.3078,0.4328,-0.4448,1.2722,22.0571,-0.8636)"
  />
  <path style="fill:#545454"
        d=""
        transform="matrix(1.3814,0,0,1.3438,11.53,1.9077)"
  />
  <path style="fill:none; stroke:#000000; stroke-opacity:0.4; stroke-width:4"
        d="M18 4C18 1.99 16 -0 16 -0H14V26H18C18 26 18 6 18 4z"
        transform="matrix(-1.3079,0.4322,0.4443,1.2724,42.4583,1.8258)"
  />
  <path style="fill:none; stroke:#000000; stroke-opacity:0.4; stroke-width:8"
        d="M8 30C5.79 30 4 32.68 4 36C4 39.31 5.79 42 8 42C10.2 42 12 39.31 12 36C12 32.68 10.2 30 8 30z"
        transform="matrix(-1.3079,0.4322,0.4443,1.2724,42.4583,1.8258)"
  />
  <path style="fill:none; stroke:#000000; stroke-opacity:0.4; stroke-width:4"
        d="M18 26C18 30 14 32 14 36H10C10 32 14 30 14 26H18z"
        transform="matrix(-1.3079,0.4322,0.4443,1.2724,42.4583,1.8258)"
  />
  <path style="fill:none; stroke:#545454; stroke-width:4"
        d="M18 4C18 1.99 16 -0 16 -0H14V26H18C18 26 18 6 18 4z"
        transform="matrix(-1.3079,0.4322,0.4443,1.2724,39.6954,-0.8619)"
  />
  <path style="fill:none; stroke:#800000; stroke-width:8"
        d="M8 30C5.79 30 4 32.68 4 36C4 39.31 5.79 42 8 42C10.2 42 12 39.31 12 36C12 32.68 10.2 30 8 30z"
        transform="matrix(-1.3079,0.4322,0.4443,1.2724,39.6954,-0.8619)"
  />
  <path style="fill:none; stroke:#800000; stroke-width:4"
        d="M18 26C18 30 14 32 14 36H10C10 32 14 30 14 26H18z"
        transform="matrix(-1.3079,0.4322,0.4443,1.2724,39.6954,-0.8619)"
  />
  <linearGradient id="gradient3" gradientUnits="userSpaceOnUse" x1="128" y1="1.99" x2="128" y2="26">
   <stop offset="0" stop-color="#e6eaf2"/>
   <stop offset="1" stop-color="#ced2d9"/>
  </linearGradient>
  <path style="fill:url(#gradient3)"
        d="M18 4C18 1.99 16 -0 16 -0H14V26H18C18 26 18 6 18 4z"
        transform="matrix(-1.3079,0.4322,0.4443,1.2724,39.6954,-0.8619)"
  />
  <linearGradient id="gradient4" gradientUnits="userSpaceOnUse" x1="128" y1="26" x2="128" y2="44">
   <stop offset="0" stop-color="#ffabab"/>
   <stop offset="1" stop-color="#d90000"/>
  </linearGradient>
  <path style="fill:none; stroke:url(#gradient4); stroke-width:4"
        d="M8 30C5.79 30 4 32.68 4 36C4 39.31 5.79 42 8 42C10.2 42 12 39.31 12 36C12 32.68 10.2 30 8 30z"
        transform="matrix(-1.3079,0.4322,0.4443,1.2724,39.6954,-0.8619)"
  />
  <linearGradient id="gradient5" gradientUnits="userSpaceOnUse" x1="128" y1="26" x2="128" y2="44">
   <stop offset="0" stop-color="#ffabab"/>
   <stop offset="1" stop-color="#d90000"/>
  </linearGradient>
  <path style="fill:url(#gradient5)"
        d="M18 26C18 30 14 32 14 36H10C10 32 14 30 14 26H18z"
        transform="matrix(-1.3079,0.4322,0.4443,1.2724,39.6954,-0.8619)"
  />
  <path style="fill:#ffffff"
        d="M16 18L14 20V-0H16V18z"
        transform="matrix(-1.3079,0.4322,0.4443,1.2724,39.6954,-0.8619)"
  />
 </g>
</svg>
