<?xml version="1.0" encoding="UTF-8" standalone="yes"?>
<svg version="1.1" width="64" height="64" color-interpolation="linearRGB"
     xmlns:svg="http://www.w3.org/2000/svg" xmlns="http://www.w3.org/2000/svg">
 <g>
  <path style="fill:none; stroke:#000000; stroke-opacity:0.4; stroke-width:5.5684; stroke-linecap:round; stroke-linejoin:round"
        d="M10.5 12.27H57.25V60.18H10.5V12.27z"
        transform="matrix(0.8547,0,0,0.8708,4.7213,4.1335)"
  />
  <path style="fill:none; stroke:#801313; stroke-width:5.5684; stroke-linecap:round; stroke-linejoin:round"
        d="M7.75 9.45H54.5V57.36H7.75V9.45z"
        transform="matrix(0.8547,0,0,0.8708,4.7213,4.1335)"
  />
  <linearGradient id="gradient0" gradientUnits="userSpaceOnUse" x1="178.25" y1="9.45" x2="178.25" y2="57.36">
   <stop offset="0" stop-color="#ffc800"/>
   <stop offset="1" stop-color="#d96a00"/>
  </linearGradient>
  <path style="fill:url(#gradient0)"
        d="M7.75 9.45H54.5V57.36H7.75V9.45z"
        transform="matrix(0.8547,0,0,0.8708,4.7213,4.1335)"
  />
  <path style="fill:none; stroke:#000080; stroke-width:5.3312; stroke-linecap:round; stroke-linejoin:round"
        d="M13.25 12.27H49V51.72H13.25V12.27z"
        transform="matrix(0.8547,0,0,0.8708,4.7213,4.1335)"
  />
  <linearGradient id="gradient1" gradientUnits="userSpaceOnUse" x1="178.25" y1="15.09" x2="178.25" y2="48.9">
   <stop offset="0" stop-color="#ffffff"/>
   <stop offset="1" stop-color="#d9d9ff"/>
  </linearGradient>
  <path style="fill:url(#gradient1)"
        d="M13.25 12.27H49V51.72H13.25V12.27z"
        transform="matrix(0.8547,0,0,0.8708,4.7213,4.1335)"
  />
  <path style="fill:#000080"
        d="M18.75 23.54H40.75V26.36H18.75V23.54z"
        transform="matrix(0.8547,0,0,0.8708,4.7213,4.1335)"
  />
  <path style="fill:#000080"
        d="M18.74 32H37.99V34.81H18.74V32z"
        transform="matrix(0.8547,0,0,0.8708,4.7213,4.1335)"
  />
  <path style="fill:#000080"
        d="M18.75 40.45H40.75V43.27H18.75V40.45z"
        transform="matrix(0.8547,0,0,0.8708,4.7213,4.1335)"
  />
  <path style="fill:none; stroke:#000000; stroke-width:5.5684; stroke-linecap:round; stroke-linejoin:round"
        d="M38 9.45H24.25L21.5 17.9H40.75L38 9.45z
           M31.12 3.81C29.59 3.81 28.37 5.07 28.37 6.63C28.37 8.18 29.59 9.45 31.12 9.45C32.63 9.45 33.87 8.18 33.87 6.63C33.87 5.07 32.63 3.81 31.12 3.81z"
        transform="matrix(0.8547,0,0,0.8708,4.7213,4.1335)"
  />
  <linearGradient id="gradient2" gradientUnits="userSpaceOnUse" x1="178.25" y1="3.81" x2="178.25" y2="17.9">
   <stop offset="0" stop-color="#ffffff"/>
   <stop offset="1" stop-color="#c7c7c7"/>
  </linearGradient>
  <path style="fill:url(#gradient2)"
        d="M38 9.45H24.25L21.5 17.9H40.75L38 9.45z
           M31.12 3.81C29.59 3.81 28.37 5.07 28.37 6.63C28.37 8.18 29.59 9.45 31.12 9.45C32.63 9.45 33.87 8.18 33.87 6.63C33.87 5.07 32.63 3.81 31.12 3.81z"
        transform="matrix(0.8547,0,0,0.8708,4.7213,4.1335)"
  />
 </g>
</svg>
