<?xml version="1.0" encoding="UTF-8" standalone="yes"?>
<svg version="1.1" width="64" height="64" color-interpolation="linearRGB"
     xmlns:svg="http://www.w3.org/2000/svg" xmlns="http://www.w3.org/2000/svg">
 <g>
  <path style="fill:#010101; fill-opacity:0.396"
        d="M15.07 21.45C16.61 24 23 34 23 34C23 34 15.3 30 13 30C11.84 30 10 30.44 10 31.59C10 33 12 32.87 13.46 33.61C15.76 34.76 21 36 24 41C24 41 30 42 33 41C37.29 39.55 40 38 40 38C40 38 40 29.29 40 27C40 25.17 36.9 21.89 36 22C34.4 22.15 37.69 25.52 36.52 25.52C35.37 25.52 33.04 20 30.75 20C28.44 20 31.92 24.38 30.76 24.38C29.61 24.38 26.29 20 24 20C22 20 26.14 25 25 25C24.37 25 21.54 23.93 19.23 20.6C17.61 18.25 15.36 14 12.82 14C10.36 14 13.53 18.92 15.07 21.45z"
        transform="matrix(1.7352,0,0,1.9577,-7.8785,-19.2826)"
  />
  <path style="fill:none; stroke:#804100; stroke-width:4; stroke-linejoin:round"
        d="M40 38C40 38 40 29.29 40 27C40 25.17 36.9 21.89 36 22C34.4 22.15 37.69 25.52 36.52 25.52C35.37 25.52 33.04 20 30.75 20C28.44 20 31.92 24.38 30.76 24.38C29.61 24.38 26.29 20 24 20C22 20 26.14 25 25 25C24.37 25 21.54 23.93 19.23 20.6C17.61 18.25 15.36 14 12.82 14C10.36 14 13.53 18.92 15.07 21.45C16.61 24 23 34 23 34C23 34 15.3 30 13 30C11.84 30 10 30.44 10 31.59C10 33 12 32.87 13.46 33.61C15.76 34.76 21 36 24 41"
        transform="matrix(1.7352,0,0,1.9577,-12.8785,-22.49)"
  />
  <radialGradient id="gradient0" gradientUnits="userSpaceOnUse" cx="0" cy="0" r="64" gradientTransform="matrix(0.3171,-0.2001,0.2305,0.3654,18.5077,23.6735)">
   <stop offset="0" stop-color="#fff2d9"/>
   <stop offset="1" stop-color="#ffd499"/>
  </radialGradient>
  <path style="fill:url(#gradient0)"
        d="M15.07 21.45C16.61 24 23 34 23 34C23 34 15.3 30 13 30C11.84 30 10 30.44 10 31.59C10 33 12 32.87 13.46 33.61C15.76 34.76 21 36 24 41C24 41 30 42 33 41C37.29 39.55 40 38 40 38C40 38 40 29.29 40 27C40 25.17 36.9 21.89 36 22C34.4 22.15 37.69 25.52 36.52 25.52C35.37 25.52 33.04 20 30.75 20C28.44 20 31.92 24.38 30.76 24.38C29.61 24.38 26.29 20 24 20C22 20 26.14 25 25 25C24.37 25 21.54 23.93 19.23 20.6C17.61 18.25 15.36 14 12.82 14C10.36 14 13.53 18.92 15.07 21.45z"
        transform="matrix(1.7352,0,0,1.9577,-12.8785,-22.49)"
  />
 </g>
</svg>
