<?xml version="1.0" encoding="UTF-8" standalone="yes"?>
<svg version="1.1" width="64" height="64" color-interpolation="linearRGB"
     xmlns:svg="http://www.w3.org/2000/svg" xmlns="http://www.w3.org/2000/svg">
 <g>
  <path style="fill:none; stroke:#000000; stroke-opacity:0.4235; stroke-width:4.3569"
        d="M24.27 24.71V39.51L27.12 42.47V57.27H38.51V42.47L41.36 39.51V24.71L32.81 21.75L24.27 24.71z
           M24.27 24.71V39.51L27.12 42.47V57.27H38.51V42.47L41.36 39.51V24.71L32.81 21.75L24.27 24.71z"
  />
  <path style="fill:none; stroke:#000000; stroke-width:5.8092"
        d="M22.84 21.75V36.55L25.69 39.51V54.31H37.09V39.51L39.93 36.55V21.75L31.39 18.79L22.84 21.75z"
  />
  <linearGradient id="gradient0" gradientUnits="userSpaceOnUse" x1="53.12" y1="-3.84" x2="74.78" y2="26.62">
   <stop offset="0" stop-color="#ffdb97"/>
   <stop offset="1" stop-color="#fcaf29"/>
  </linearGradient>
  <path style="fill:url(#gradient0)"
        d="M22.84 21.75V36.55L25.69 39.51V54.31H37.09V39.51L39.93 36.55V21.75L31.39 18.79L22.84 21.75z"
  />
  <path style="fill:#000000; fill-opacity:0.4235"
        d="M35.04 7.98C50.2 7.98 62.11 19.81 62.11 34.88C62.11 49.95 50.2 61.79 35.04 61.79C19.89 61.79 7.98 49.95 7.98 34.88C7.98 19.81 19.89 7.98 35.04 7.98z"
        transform="matrix(0.3025,0,0,0.3149,21.3515,2.3538)"
  />
  <path style="fill:none; stroke:#000000; stroke-width:12"
        d="M32.04 4.98C47.2 4.98 59.11 16.81 59.11 31.88C59.11 46.95 47.2 58.79 32.04 58.79C16.89 58.79 4.98 46.95 4.98 31.88C4.98 16.81 16.89 4.98 32.04 4.98z"
        transform="matrix(0.3025,0,0,0.3149,21.3515,2.3538)"
  />
  <radialGradient id="gradient1" gradientUnits="userSpaceOnUse" cx="0" cy="0" r="64" gradientTransform="matrix(0.4253,0,0,0.423,22.8171,25.4071)">
   <stop offset="0.0443" stop-color="#ffffff"/>
   <stop offset="0.0988" stop-color="#fffef8"/>
   <stop offset="0.1756" stop-color="#fefbe6"/>
   <stop offset="0.2655" stop-color="#fdf6c8"/>
   <stop offset="0.3652" stop-color="#fbef9e"/>
   <stop offset="0.472" stop-color="#f9e769"/>
   <stop offset="0.4943" stop-color="#f9e55d"/>
   <stop offset="0.7221" stop-color="#f7da15"/>
   <stop offset="0.8432" stop-color="#f7d016"/>
   <stop offset="1" stop-color="#f6bc18"/>
  </radialGradient>
  <path style="fill:url(#gradient1)"
        d="M32.04 7.46C45.81 7.46 56.63 18.2 56.63 31.88C56.63 45.58 45.81 56.33 32.04 56.33C18.29 56.33 7.48 45.58 7.48 31.88C7.48 18.2 18.29 7.46 32.04 7.46z"
        transform="matrix(0.3025,0,0,0.3149,21.3515,2.3538)"
  />
  <path style="fill:none; stroke:#3e0708; stroke-width:2"
        d="M52.36 37.5C52.31 37.02 51.95 34.61 50.9 33.38C49.15 31.36 48.09 31.45 48 31.42C48 31.42 47 31.3 46.72 32.15C46.45 33.08 46.93 33.56 46.93 33.56C46.93 33.56 48.34 33.86 48.93 34.5C47.77 36.34 41.93 44.52 32.02 44.52C21.55 44.52 15.55 36.2 14.53 34.68C15.4 34.02 15.97 33.75 15.97 33.75C15.97 33.75 16.62 33.25 16.29 32.38C16.01 31.52 15.06 31.59 15.06 31.59C14.97 31.62 13.52 32.04 12.28 34.02C11.1 35.91 11.17 38.2 11.21 38.54C11.21 38.54 11.39 39.81 11.78 38.75C12.18 37.72 12.69 36.27 13.57 35.43C15.11 37.7 20.95 47.72 32.09 47.72C42.84 47.72 48.22 37.38 49.79 34.9C50.77 35.77 51.34 36.79 51.81 38.34C52.15 39.43 52.36 37.5 52.36 37.5z"
        transform="matrix(0.3025,0,0,0.3149,21.3515,2.3538)"
  />
  <path style="fill:#000000"
        d="M27.12 29.06C28.52 28.95 29.78 30.61 29.97 32.84C30.19 35.06 29.27 36.91 27.87 37.06C26.48 37.18 25.21 35.52 25.02 33.29C24.8 31.06 25.72 29.2 27.12 29.06z"
        transform="matrix(0.5006,0,0,0.44,15.4026,-2.2844)"
  />
  <path style="fill:#000000"
        d="M37.34 28.95C38.7 29.26 39.41 31.2 38.95 33.4C38.47 35.59 37.02 37.09 35.65 36.79C34.29 36.5 33.59 34.56 34.06 32.34C34.54 30.15 35.97 28.65 37.34 28.95z"
        transform="matrix(0.4962,0,0,0.4408,14.7793,-2.2853)"
  />
 </g>
</svg>
