<?xml version="1.0" encoding="UTF-8" standalone="yes"?>
<svg version="1.1" width="64" height="64" color-interpolation="linearRGB"
     xmlns:svg="http://www.w3.org/2000/svg" xmlns="http://www.w3.org/2000/svg">
 <g>
  <path style="fill:none; stroke:#000000; stroke-opacity:0.4; stroke-width:7.3625; stroke-linecap:round; stroke-linejoin:round"
        d="M13.58 11.13C12.76 11.13 11.94 11.13 11.13 11.13"
  />
  <path style="fill:none; stroke:#545454; stroke-width:7.3625; stroke-linecap:round; stroke-linejoin:round"
        d="M11.13 8.67C10.31 8.67 9.49 8.67 8.67 8.67"
  />
  <path style="fill:none; stroke:#ffffff; stroke-width:2.4541; stroke-linecap:round; stroke-linejoin:round"
        d="M11.13 8.67C10.31 8.67 9.49 8.67 8.67 8.67"
  />
  <path style="fill:none; stroke:#000000; stroke-opacity:0.4; stroke-width:7.3625; stroke-linecap:round; stroke-linejoin:round"
        d="M28.31 11.13C27.49 11.13 26.67 11.13 25.85 11.13"
  />
  <path style="fill:none; stroke:#545454; stroke-width:7.3625; stroke-linecap:round; stroke-linejoin:round"
        d="M25.85 8.67C25.03 8.67 24.22 8.67 23.4 8.67"
  />
  <path style="fill:none; stroke:#ffffff; stroke-width:2.4541; stroke-linecap:round; stroke-linejoin:round"
        d="M25.85 8.67C25.03 8.67 24.22 8.67 23.4 8.67"
  />
  <path style="fill:none; stroke:#000000; stroke-opacity:0.4; stroke-width:7.3625; stroke-linecap:round; stroke-linejoin:round"
        d="M43.04 11.13C42.22 11.13 41.4 11.13 40.58 11.13"
  />
  <path style="fill:none; stroke:#545454; stroke-width:7.3625; stroke-linecap:round; stroke-linejoin:round"
        d="M40.58 8.67C39.76 8.67 38.94 8.67 38.12 8.67"
  />
  <path style="fill:none; stroke:#ffffff; stroke-width:2.4541; stroke-linecap:round; stroke-linejoin:round"
        d="M40.58 8.67C39.76 8.67 38.94 8.67 38.12 8.67"
  />
  <path style="fill:none; stroke:#000000; stroke-opacity:0.4; stroke-width:7.3625; stroke-linecap:round; stroke-linejoin:round"
        d="M25.85 55.31C25.03 55.31 24.22 55.31 23.4 55.31"
  />
  <path style="fill:none; stroke:#545454; stroke-width:7.3625; stroke-linecap:round; stroke-linejoin:round"
        d="M23.4 52.85C22.58 52.85 21.76 52.85 20.94 52.85"
  />
  <path style="fill:none; stroke:#ffffff; stroke-width:2.4541; stroke-linecap:round; stroke-linejoin:round"
        d="M23.4 52.85C22.58 52.85 21.76 52.85 20.94 52.85"
  />
  <path style="fill:none; stroke:#000000; stroke-opacity:0.4; stroke-width:7.3625; stroke-linecap:round; stroke-linejoin:round"
        d="M40.58 55.31C39.76 55.31 38.94 55.31 38.12 55.31"
  />
  <path style="fill:none; stroke:#545454; stroke-width:7.3625; stroke-linecap:round; stroke-linejoin:round"
        d="M38.12 52.85C37.31 52.85 36.49 52.85 35.67 52.85"
  />
  <path style="fill:none; stroke:#ffffff; stroke-width:2.4541; stroke-linecap:round; stroke-linejoin:round"
        d="M38.12 52.85C37.31 52.85 36.49 52.85 35.67 52.85"
  />
  <path style="fill:none; stroke:#000000; stroke-opacity:0.4; stroke-width:7.3625; stroke-linecap:round; stroke-linejoin:round"
        d="M55.31 55.31C54.49 55.31 53.67 55.31 52.85 55.31"
  />
  <path style="fill:none; stroke:#545454; stroke-width:7.3625; stroke-linecap:round; stroke-linejoin:round"
        d="M52.85 52.85C52.03 52.85 51.21 52.85 50.39 52.85"
  />
  <path style="fill:none; stroke:#ffffff; stroke-width:2.4541; stroke-linecap:round; stroke-linejoin:round"
        d="M52.85 52.85C52.03 52.85 51.21 52.85 50.39 52.85"
  />
  <path style="fill:none; stroke:#000000; stroke-opacity:0.4; stroke-width:7.3625; stroke-linecap:round; stroke-linejoin:round"
        d="M11.13 25.85C11.13 25.03 11.13 24.22 11.13 23.4"
  />
  <path style="fill:none; stroke:#545454; stroke-width:7.3625; stroke-linecap:round; stroke-linejoin:round"
        d="M8.67 23.4C8.67 22.58 8.67 21.76 8.67 20.94"
  />
  <path style="fill:none; stroke:#ffffff; stroke-width:2.4541; stroke-linecap:round; stroke-linejoin:round"
        d="M8.67 23.4C8.67 22.58 8.67 21.76 8.67 20.94"
  />
  <path style="fill:none; stroke:#000000; stroke-opacity:0.4; stroke-width:7.3625; stroke-linecap:round; stroke-linejoin:round"
        d="M11.13 40.58C11.13 39.76 11.13 38.94 11.13 38.12"
  />
  <path style="fill:none; stroke:#545454; stroke-width:7.3625; stroke-linecap:round; stroke-linejoin:round"
        d="M8.67 38.12C8.67 37.31 8.67 36.49 8.67 35.67"
  />
  <path style="fill:none; stroke:#ffffff; stroke-width:2.4541; stroke-linecap:round; stroke-linejoin:round"
        d="M8.67 38.12C8.67 37.31 8.67 36.49 8.67 35.67"
  />
  <path style="fill:none; stroke:#000000; stroke-opacity:0.4; stroke-width:7.3625; stroke-linecap:round; stroke-linejoin:round"
        d="M11.13 55.31C11.13 54.49 11.13 53.67 11.13 52.85"
  />
  <path style="fill:none; stroke:#545454; stroke-width:7.3625; stroke-linecap:round; stroke-linejoin:round"
        d="M8.67 52.85C8.67 52.03 8.67 51.21 8.67 50.39"
  />
  <path style="fill:none; stroke:#ffffff; stroke-width:2.4541; stroke-linecap:round; stroke-linejoin:round"
        d="M8.67 52.85C8.67 52.03 8.67 51.21 8.67 50.39"
  />
  <path style="fill:none; stroke:#000000; stroke-opacity:0.4; stroke-width:7.3625; stroke-linecap:round; stroke-linejoin:round"
        d="M55.31 13.58C55.31 12.76 55.31 11.94 55.31 11.13"
  />
  <path style="fill:none; stroke:#545454; stroke-width:7.3625; stroke-linecap:round; stroke-linejoin:round"
        d="M52.85 11.13C52.85 10.31 52.85 9.49 52.85 8.67"
  />
  <path style="fill:none; stroke:#ffffff; stroke-width:2.4541; stroke-linecap:round; stroke-linejoin:round"
        d="M52.85 11.13C52.85 10.31 52.85 9.49 52.85 8.67"
  />
  <path style="fill:none; stroke:#000000; stroke-opacity:0.4; stroke-width:7.3625; stroke-linecap:round; stroke-linejoin:round"
        d="M55.31 28.31C55.31 27.49 55.31 26.67 55.31 25.85"
  />
  <path style="fill:none; stroke:#545454; stroke-width:7.3625; stroke-linecap:round; stroke-linejoin:round"
        d="M52.85 25.85C52.85 25.03 52.85 24.22 52.85 23.4"
  />
  <path style="fill:none; stroke:#ffffff; stroke-width:2.4541; stroke-linecap:round; stroke-linejoin:round"
        d="M52.85 25.85C52.85 25.03 52.85 24.22 52.85 23.4"
  />
  <path style="fill:none; stroke:#000000; stroke-opacity:0.4; stroke-width:7.3625; stroke-linecap:round; stroke-linejoin:round"
        d="M55.31 43.04C55.31 42.22 55.31 41.4 55.31 40.58"
  />
  <path style="fill:none; stroke:#545454; stroke-width:7.3625; stroke-linecap:round; stroke-linejoin:round"
        d="M52.85 40.58C52.85 39.76 52.85 38.94 52.85 38.12"
  />
  <path style="fill:none; stroke:#ffffff; stroke-width:2.4541; stroke-linecap:round; stroke-linejoin:round"
        d="M52.85 40.58C52.85 39.76 52.85 38.94 52.85 38.12"
  />
  <path style="fill:none; stroke:#000000; stroke-opacity:0.4; stroke-width:4.2345; stroke-linecap:round; stroke-linejoin:round"
        d="M8.4 7.83C19.93 7.83 31.45 7.83 42.98 7.83C42.98 20.05 42.98 32.27 42.98 44.49C31.45 44.49 19.93 44.49 8.4 44.49C8.4 32.27 8.4 20.05 8.4 7.83V7.83V7.83V7.83V7.83z"
        transform="matrix(0.5555,-0.0157,0.0163,0.5775,13.0482,13.906)"
  />
  <path style="fill:none; stroke:#930202; stroke-width:10; stroke-linecap:round; stroke-linejoin:round"
        d="M6.09 5.9C17.63 5.9 29.15 5.9 40.68 5.9C40.68 18.12 40.68 30.34 40.68 42.56C29.15 42.56 17.63 42.56 6.09 42.56C6.09 30.34 6.09 18.12 6.09 5.9V5.9V5.9V5.9V5.9z"
        transform="matrix(0.5555,-0.0157,0.0163,0.5775,13.0482,13.906)"
  />
  <linearGradient id="gradient0" gradientUnits="userSpaceOnUse" x1="78.99" y1="14.85" x2="79.17" y2="54.07">
   <stop offset="0" stop-color="#ffb3b3"/>
   <stop offset="1" stop-color="#ff0606"/>
  </linearGradient>
  <path style="fill:url(#gradient0)"
        d="M6.09 5.9C17.63 5.9 29.15 5.9 40.68 5.9C40.68 18.12 40.68 30.34 40.68 42.56C29.15 42.56 17.63 42.56 6.09 42.56C6.09 30.34 6.09 18.12 6.09 5.9V5.9V5.9V5.9V5.9z"
        transform="matrix(0.5555,-0.0157,0.0163,0.5775,13.0482,13.906)"
  />
  <path style="fill:none; stroke:#000000; stroke-opacity:0.4; stroke-width:4.2345; stroke-linecap:round; stroke-linejoin:round"
        d="M15.74 14.16C27.27 14.16 38.79 14.16 50.32 14.16C50.32 26.37 50.32 38.6 50.32 50.81C38.79 50.81 27.27 50.81 15.74 50.81C15.74 38.6 15.74 26.37 15.74 14.16V14.16V14.16V14.16V14.16z"
        transform="matrix(0.5555,-0.0157,0.0163,0.5775,13.0482,13.906)"
  />
  <path style="fill:none; stroke:#005900; stroke-width:10; stroke-linecap:round; stroke-linejoin:round"
        d="M13.44 12.22C24.97 12.22 36.49 12.22 48.02 12.22C48.02 24.45 48.02 36.66 48.02 48.89C36.49 48.89 24.97 48.89 13.44 48.89C13.44 36.66 13.44 24.45 13.44 12.22V12.22V12.22V12.22V12.22z"
        transform="matrix(0.5555,-0.0157,0.0163,0.5775,13.0482,13.906)"
  />
  <linearGradient id="gradient1" gradientUnits="userSpaceOnUse" x1="149.45" y1="18.03" x2="149.45" y2="39.24">
   <stop offset="0" stop-color="#80ff80"/>
   <stop offset="1" stop-color="#00b200"/>
  </linearGradient>
  <path style="fill:url(#gradient1)"
        d="M13.44 12.22C24.97 12.22 36.49 12.22 48.02 12.22C48.02 24.45 48.02 36.66 48.02 48.89C36.49 48.89 24.97 48.89 13.44 48.89C13.44 36.66 13.44 24.45 13.44 12.22V12.22V12.22V12.22V12.22z"
        transform="matrix(0.5555,-0.0157,0.0163,0.5775,13.0482,13.906)"
  />
  <path style="fill:none; stroke:#000000; stroke-opacity:0.4; stroke-width:4.2345; stroke-linecap:round; stroke-linejoin:round"
        d="M23.09 21.38C34.62 21.38 46.14 21.38 57.67 21.38C57.67 33.6 57.67 45.82 57.67 58.04C46.14 58.04 34.62 58.04 23.09 58.04C23.09 45.82 23.09 33.6 23.09 21.38V21.38V21.38V21.38V21.38z"
        transform="matrix(0.5555,-0.0157,0.0163,0.5775,13.0482,13.906)"
  />
  <path style="fill:none; stroke:#000080; stroke-width:10; stroke-linecap:round; stroke-linejoin:round"
        d="M20.79 19.45C32.32 19.45 43.84 19.45 55.37 19.45C55.37 31.67 55.37 43.89 55.37 56.11C43.84 56.11 32.32 56.11 20.79 56.11C20.79 43.89 20.79 31.67 20.79 19.45V19.45V19.45V19.45V19.45z"
        transform="matrix(0.5555,-0.0157,0.0163,0.5775,13.0482,13.906)"
  />
  <linearGradient id="gradient2" gradientUnits="userSpaceOnUse" x1="156.8" y1="19.45" x2="156.8" y2="56.11">
   <stop offset="0" stop-color="#ffffff"/>
   <stop offset="1" stop-color="#d9d9ff"/>
  </linearGradient>
  <path style="fill:url(#gradient2)"
        d="M20.79 19.45C32.32 19.45 43.84 19.45 55.37 19.45C55.37 31.67 55.37 43.89 55.37 56.11C43.84 56.11 32.32 56.11 20.79 56.11C20.79 43.89 20.79 31.67 20.79 19.45V19.45V19.45V19.45V19.45z"
        transform="matrix(0.5555,-0.0157,0.0163,0.5775,13.0482,13.906)"
  />
 </g>
</svg>
