<?xml version="1.0" encoding="UTF-8" standalone="yes"?>
<svg version="1.1" width="64" height="64" color-interpolation="linearRGB"
     xmlns:svg="http://www.w3.org/2000/svg" xmlns="http://www.w3.org/2000/svg">
 <g>
  <path style="fill:#010101; fill-opacity:0.447"
        d="M4.54 13.62V59.45H50.37V13.62H4.54z
           M4.54 13.62V59.45H50.37V13.62H4.54z
           M9.12 13.62V31.95C9.12 34.24 13.71 36.54 13.71 36.54C11.41 36.54 43.49 36.54 43.49 36.54V13.62H9.12z
           M32.04 9.04V31.95H54.95L48.08 25.08L59.53 13.62L50.37 4.46L38.91 15.91L32.04 9.04z
           M32.04 9.04V31.95H54.95L48.08 25.08L59.53 13.62L50.37 4.46L38.91 15.91L32.04 9.04z
           M9.12 59.45V45.7L11.41 41.12H38.91L41.2 45.7V59.45H27.41L27.45 47.99H18.29L18.24 59.45H9.12z"
        transform="matrix(1,0,0,1,5,2)"
  />
  <path style="fill:none; stroke:#000000; stroke-width:6.8738; stroke-linejoin:round"
        d="M4.54 13.62V59.45H50.37V13.62H4.54z"
        transform="matrix(0.9352,0,0,0.9352,3.0718,1.0739)"
  />
  <linearGradient id="gradient0" gradientUnits="userSpaceOnUse" x1="75.46" y1="-22.36" x2="108.84" y2="32.16">
   <stop offset="0" stop-color="#5c64f5"/>
   <stop offset="1" stop-color="#2905c3"/>
  </linearGradient>
  <path style="fill:url(#gradient0)"
        d="M4.54 13.62V59.45H50.37V13.62H4.54z"
        transform="matrix(0.9352,0,0,0.9352,3.0718,1.0739)"
  />
  <path style="fill:#f1f1f1"
        d="M9.12 13.62V31.95C9.12 34.24 13.71 36.54 13.71 36.54C11.41 36.54 43.49 36.54 43.49 36.54V13.62H9.12z"
        transform="matrix(0.9352,0,0,0.9352,3.0718,1.0739)"
  />
  <path style="fill:none; stroke:#000000; stroke-width:6.8738; stroke-linejoin:round"
        d="M32.04 9.04V31.95H54.95L48.08 25.08L59.53 13.62L50.37 4.46L38.91 15.91L32.04 9.04z"
        transform="matrix(0.9352,0,0,0.9352,3.0718,1.0739)"
  />
  <linearGradient id="gradient1" gradientUnits="userSpaceOnUse" x1="78.32" y1="-40.49" x2="104.3" y2="-14.67">
   <stop offset="0" stop-color="#adff89"/>
   <stop offset="1" stop-color="#21ce21"/>
  </linearGradient>
  <path style="fill:url(#gradient1)"
        d="M32.04 9.04V31.95H54.95L48.08 25.08L59.53 13.62L50.37 4.46L38.91 15.91L32.04 9.04z"
        transform="matrix(0.9352,0,0,0.9352,3.0718,1.0739)"
  />
  <linearGradient id="gradient2" gradientUnits="userSpaceOnUse" x1="80.61" y1="-10.11" x2="104.01" y2="20.95">
   <stop offset="0" stop-color="#9c9c9c"/>
   <stop offset="1" stop-color="#cccccc"/>
  </linearGradient>
  <path style="fill:url(#gradient2)"
        d="M9.12 59.45V45.7L11.41 41.12H38.91L41.2 45.7V59.45H27.41L27.45 47.99H18.29L18.24 59.45H9.12z"
        transform="matrix(0.9352,0,0,0.9352,3.0718,1.0739)"
  />
 </g>
</svg>
