<?xml version="1.0" encoding="UTF-8" standalone="yes"?>
<svg version="1.1" width="64" height="64" color-interpolation="linearRGB"
     xmlns:svg="http://www.w3.org/2000/svg" xmlns="http://www.w3.org/2000/svg">
 <g>
  <path style="fill:#484848; fill-opacity:0.5411"
        d="M38.53 5.9L40.84 9.6C44.32 10.22 47.56 11.38 50.32 12.99L53.13 10.84C49.04 8.18 43.96 6.46 38.53 5.9z
           M22.28 7.83C19.95 8.68 17.78 9.77 15.86 11.06L19.22 12.89C20.96 11.89 22.9 11.07 24.98 10.44L22.28 7.83z
           M61.08 19.86L57.75 20.81C58.27 21.98 58.63 23.2 58.77 24.44L62.25 24.89C62.15 23.19 61.77 21.49 61.08 19.86z
           M7.93 20.69C7.36 22.25 7.07 23.85 7.03 25.45L10.5 25.3C10.55 24.17 10.76 23.03 11.13 21.92L7.93 20.69z
           M14.61 35.02L11.37 36.46C13.01 38.32 15.09 39.98 17.49 41.36C19.68 49.29 11.13 56.38 13.92 59.09C17.86 59.45 20.18 53.86 21.13 48.44C21.48 47.98 22.76 46.22 23.77 44.12C27.2 45.18 30.89 45.74 34.63 45.75L30.94 42.18C28.8 41.95 26.73 41.52 24.77 40.9C24.79 39.42 23.84 38.48 20.85 39.08C20.84 39.08 20.85 39.06 20.84 39.06C20.57 39.06 20.3 39 20.01 38.96C17.92 37.87 16.09 36.53 14.61 35.02z
           M54.21 35.52C52.6 37.03 50.65 38.34 48.43 39.41L51.79 41.4C54.2 40.03 56.28 38.38 57.94 36.52C56.69 36.18 55.46 35.85 54.21 35.52z"
        transform="matrix(0.8864,0,0,0.8806,4.0666,4.0559)"
  />
  <path style="fill:none; stroke:#545454; stroke-width:4.9021; stroke-linecap:round; stroke-linejoin:round"
        d="M34.53 2.9L36.84 6.6C40.32 7.22 43.56 8.38 46.32 9.99L49.13 7.84C45.04 5.18 39.96 3.46 34.53 2.9z
           M18.28 4.83C15.95 5.68 13.78 6.77 11.86 8.06L15.22 9.89C16.96 8.89 18.9 8.07 20.98 7.44L18.28 4.83z
           M57.08 16.86L53.75 17.81C54.27 18.98 54.63 20.2 54.77 21.44L58.25 21.9C58.15 20.19 57.77 18.49 57.08 16.86z
           M3.93 17.69C3.36 19.25 3.07 20.85 3.03 22.45L6.5 22.3C6.55 21.17 6.76 20.03 7.13 18.92L3.93 17.69z
           M10.61 32.02L7.37 33.46C9.01 35.32 11.09 36.98 13.49 38.36C15.68 46.29 7.13 53.38 9.92 56.09C13.86 56.45 16.18 50.86 17.13 45.44C17.48 44.98 18.76 43.22 19.77 41.12C23.2 42.18 26.89 42.74 30.63 42.75L26.94 39.18C24.8 38.95 22.73 38.52 20.77 37.9C20.79 36.42 19.84 35.48 16.85 36.08C16.84 36.08 16.85 36.06 16.84 36.06C16.57 36.06 16.3 36 16.01 35.96C13.92 34.87 12.09 33.53 10.61 32.02z
           M50.21 32.52C48.6 34.03 46.65 35.34 44.43 36.41L47.79 38.4C50.2 37.03 52.28 35.38 53.94 33.52C52.69 33.18 51.46 32.85 50.21 32.52z"
        transform="matrix(0.8864,0,0,0.8806,4.0666,4.0559)"
  />
  <path style="fill:#ffffff"
        d="M34.53 2.9L36.84 6.6C40.32 7.22 43.56 8.38 46.32 9.99L49.13 7.84C45.04 5.18 39.96 3.46 34.53 2.9z
           M18.28 4.83C15.95 5.68 13.78 6.77 11.86 8.06L15.22 9.89C16.96 8.89 18.9 8.07 20.98 7.44L18.28 4.83z
           M57.08 16.86L53.75 17.81C54.27 18.98 54.63 20.2 54.77 21.44L58.25 21.9C58.15 20.19 57.77 18.49 57.08 16.86z
           M3.93 17.69C3.36 19.25 3.07 20.85 3.03 22.45L6.5 22.3C6.55 21.17 6.76 20.03 7.13 18.92L3.93 17.69z
           M10.61 32.02L7.37 33.46C9.01 35.32 11.09 36.98 13.49 38.36C15.68 46.29 7.13 53.38 9.92 56.09C13.86 56.45 16.18 50.86 17.13 45.44C17.48 44.98 18.76 43.22 19.77 41.12C23.2 42.18 26.89 42.74 30.63 42.75L26.94 39.18C24.8 38.95 22.73 38.52 20.77 37.9C20.79 36.42 19.84 35.48 16.85 36.08C16.84 36.08 16.85 36.06 16.84 36.06C16.57 36.06 16.3 36 16.01 35.96C13.92 34.87 12.09 33.53 10.61 32.02z
           M50.21 32.52C48.6 34.03 46.65 35.34 44.43 36.41L47.79 38.4C50.2 37.03 52.28 35.38 53.94 33.52C52.69 33.18 51.46 32.85 50.21 32.52z"
        transform="matrix(0.8864,0,0,0.8806,4.0666,4.0559)"
  />
 </g>
</svg>
