<?xml version="1.0" encoding="UTF-8" standalone="yes"?>
<svg version="1.1" width="64" height="64" color-interpolation="linearRGB"
     xmlns:svg="http://www.w3.org/2000/svg" xmlns="http://www.w3.org/2000/svg">
 <g>
  <path style="fill:none; stroke:#000000; stroke-opacity:0.4; stroke-width:4; stroke-linecap:round; stroke-linejoin:round"
        d="M16 10H40V40H16V10z"
        transform="matrix(1.409,0,0,1.409,-15.909,-7.4545)"
  />
  <path style="fill:none; stroke:#d99100; stroke-width:4; stroke-linecap:round; stroke-linejoin:round"
        d="M16 10H40V40H16V10z"
        transform="matrix(1.409,0,0,1.409,-18.7272,-10.2727)"
  />
  <linearGradient id="gradient0" gradientUnits="userSpaceOnUse" x1="128" y1="10" x2="128" y2="40">
   <stop offset="0" stop-color="#ffffff"/>
   <stop offset="1" stop-color="#ffffbf"/>
  </linearGradient>
  <path style="fill:url(#gradient0)"
        d="M16 10H40V40H16V10z"
        transform="matrix(1.409,0,0,1.409,-18.7272,-10.2727)"
  />
  <path style="fill:#d99100"
        d="M20 20H34V22H20V20z
           M20 14H36V16H20V14z"
        transform="matrix(1.409,0,0,1.409,-18.7272,-10.2727)"
  />
  <path style="fill:#d99100"
        d="M20 20H34V22H20V20z
           M20 14H36V16H20V14z"
        transform="matrix(1.409,0,0,1.409,-18.7272,6.6363)"
  />
  <path style="fill:none; stroke:#000000; stroke-opacity:0.4; stroke-width:4; stroke-linecap:round; stroke-linejoin:round"
        d="M16 10H40V40H16V10z"
        transform="matrix(1.409,0,0,1.409,3.8181,3.8181)"
  />
  <path style="fill:none; stroke:#000080; stroke-width:4; stroke-linecap:round; stroke-linejoin:round"
        d="M16 10H40V40H16V10z"
        transform="matrix(1.409,0,0,1.409,1,1)"
  />
  <linearGradient id="gradient1" gradientUnits="userSpaceOnUse" x1="128" y1="10" x2="128" y2="40">
   <stop offset="0" stop-color="#ffffff"/>
   <stop offset="1" stop-color="#d9d9ff"/>
  </linearGradient>
  <path style="fill:url(#gradient1)"
        d="M16 10H40V40H16V10z"
        transform="matrix(1.409,0,0,1.409,1,1)"
  />
  <path style="fill:#000080"
        d="M20 14H36V16H20V14z
           M20 20H34V22H20V20z"
        transform="matrix(1.409,0,0,1.409,1,1)"
  />
  <path style="fill:#000080"
        d="M20 20H34V22H20V20z
           M20 14H36V16H20V14z"
        transform="matrix(1.409,0,0,1.409,1,17.909)"
  />
 </g>
</svg>
