<?xml version="1.0" encoding="UTF-8" standalone="yes"?>
<svg version="1.1" width="64" height="64" color-interpolation="linearRGB"
     xmlns:svg="http://www.w3.org/2000/svg" xmlns="http://www.w3.org/2000/svg">
 <g>
  <path style="fill:#484848; fill-opacity:0.5411"
        d="M42.62 4.54L45.27 9.26C49.27 10.06 52.99 11.54 56.16 13.59L59.39 10.85C54.69 7.45 48.86 5.25 42.62 4.54z
           M23.94 7C21.26 8.09 18.77 9.48 16.57 11.13L20.43 13.46C22.43 12.19 24.66 11.14 27.04 10.34L23.94 7z
           M68.53 22.36L64.7 23.57C65.3 25.07 65.71 26.63 65.88 28.21L69.87 28.79C69.76 26.61 69.32 24.44 68.53 22.36z
           M7.45 23.42C6.8 25.41 6.46 27.45 6.42 29.5L10.41 29.31C10.46 27.86 10.7 26.41 11.13 24.99L7.45 23.42z
           M15.13 41.72L11.4 43.55C13.29 45.93 15.68 48.05 18.44 49.81C20.96 59.93 11.13 68.99 14.34 72.44C18.86 72.91 21.53 65.77 22.62 58.85C23.02 58.26 24.49 56.01 25.66 53.33C29.6 54.69 33.84 55.4 38.13 55.41L33.9 50.86C31.44 50.56 29.06 50.01 26.8 49.22C26.83 47.33 25.74 46.13 22.3 46.9C22.29 46.9 22.3 46.88 22.29 46.87C21.98 46.87 21.67 46.8 21.34 46.75C18.93 45.35 16.83 43.65 15.13 41.72z
           M60.64 42.35C58.79 44.28 56.55 45.96 53.99 47.32L57.86 49.86C60.62 48.11 63.01 46 64.92 43.63C63.49 43.2 62.07 42.77 60.64 42.35z"
        transform="matrix(0.8702,0,0,0.7833,1.4498,2.3487)"
  />
  <path style="fill:none; stroke:#545454; stroke-width:5.9212; stroke-linecap:round; stroke-linejoin:round"
        d="M42.62 4.54L45.27 9.26C49.27 10.06 52.99 11.54 56.16 13.59L59.39 10.85C54.69 7.45 48.86 5.25 42.62 4.54z
           M23.94 7C21.26 8.09 18.77 9.48 16.57 11.13L20.43 13.46C22.43 12.19 24.66 11.14 27.04 10.34L23.94 7z
           M68.53 22.36L64.7 23.57C65.3 25.07 65.71 26.63 65.88 28.21L69.87 28.79C69.76 26.61 69.32 24.44 68.53 22.36z
           M7.45 23.42C6.8 25.41 6.46 27.45 6.42 29.5L10.41 29.31C10.46 27.86 10.7 26.41 11.13 24.99L7.45 23.42z
           M15.13 41.72L11.4 43.55C13.29 45.93 15.68 48.05 18.44 49.81C20.96 59.93 11.13 68.99 14.34 72.44C18.86 72.91 21.53 65.77 22.62 58.85C23.02 58.26 24.49 56.01 25.66 53.33C29.6 54.69 33.84 55.4 38.13 55.41L33.9 50.86C31.44 50.56 29.06 50.01 26.8 49.22C26.83 47.33 25.74 46.13 22.3 46.9C22.29 46.9 22.3 46.88 22.29 46.87C21.98 46.87 21.67 46.8 21.34 46.75C18.93 45.35 16.83 43.65 15.13 41.72z
           M60.64 42.35C58.79 44.28 56.55 45.96 53.99 47.32L57.86 49.86C60.62 48.11 63.01 46 64.92 43.63C63.49 43.2 62.07 42.77 60.64 42.35z"
        transform="matrix(0.8702,0,0,0.7833,-2.5501,-0.6512)"
  />
  <path style="fill:#ffffff"
        d="M42.62 4.54L45.27 9.26C49.27 10.06 52.99 11.54 56.16 13.59L59.39 10.85C54.69 7.45 48.86 5.25 42.62 4.54z
           M23.94 7C21.26 8.09 18.77 9.48 16.57 11.13L20.43 13.46C22.43 12.19 24.66 11.14 27.04 10.34L23.94 7z
           M68.53 22.36L64.7 23.57C65.3 25.07 65.71 26.63 65.88 28.21L69.87 28.79C69.76 26.61 69.32 24.44 68.53 22.36z
           M7.45 23.42C6.8 25.41 6.46 27.45 6.42 29.5L10.41 29.31C10.46 27.86 10.7 26.41 11.13 24.99L7.45 23.42z
           M15.13 41.72L11.4 43.55C13.29 45.93 15.68 48.05 18.44 49.81C20.96 59.93 11.13 68.99 14.34 72.44C18.86 72.91 21.53 65.77 22.62 58.85C23.02 58.26 24.49 56.01 25.66 53.33C29.6 54.69 33.84 55.4 38.13 55.41L33.9 50.86C31.44 50.56 29.06 50.01 26.8 49.22C26.83 47.33 25.74 46.13 22.3 46.9C22.29 46.9 22.3 46.88 22.29 46.87C21.98 46.87 21.67 46.8 21.34 46.75C18.93 45.35 16.83 43.65 15.13 41.72z
           M60.64 42.35C58.79 44.28 56.55 45.96 53.99 47.32L57.86 49.86C60.62 48.11 63.01 46 64.92 43.63C63.49 43.2 62.07 42.77 60.64 42.35z"
        transform="matrix(0.8702,0,0,0.7833,-2.5501,-0.6512)"
  />
 </g>
</svg>
