<?xml version="1.0" encoding="UTF-8" standalone="yes"?>
<svg version="1.1" width="64" height="64" color-interpolation="linearRGB"
     xmlns:svg="http://www.w3.org/2000/svg" xmlns="http://www.w3.org/2000/svg">
 <g>
  <path style="fill:#010101; fill-opacity:0.396"
        d="M18.27 22.71C20.94 27.7 32.03 47.27 32.03 47.27C32.03 47.27 18.67 39.44 14.67 39.44C12.66 39.44 9.47 40.3 9.47 42.56C9.47 45.32 12.94 45.06 15.47 46.51C19.46 48.76 28.56 51.19 33.76 60.98C33.76 60.98 44.17 62.94 49.38 60.98C56.82 58.14 61.52 55.11 61.52 55.11C61.52 55.11 61.52 38.05 61.52 33.57C61.52 29.99 56.15 23.57 54.58 23.78C51.81 24.08 57.52 30.67 55.49 30.67C53.49 30.67 49.45 19.87 45.47 19.87C41.47 19.87 47.5 28.44 45.49 28.44C43.5 28.44 37.73 19.87 33.76 19.87C30.29 19.87 37.47 29.65 35.5 29.65C34.4 29.65 29.49 27.56 25.48 21.04C22.67 16.44 18.77 8.12 14.36 8.12C10.09 8.12 15.59 17.75 18.27 22.71z"
        transform="matrix(0.8847,0,0,0.8845,4.0889,4.1403)"
  />
  <path style="fill:none; stroke:#804100; stroke-width:7.3991; stroke-linejoin:round"
        d="M56.52 51.9C56.52 51.9 56.52 34.85 56.52 30.36C56.52 26.78 51.15 20.36 49.58 20.57C46.81 20.87 52.52 27.47 50.49 27.47C48.49 27.47 44.45 16.66 40.47 16.66C36.47 16.66 42.5 25.23 40.49 25.23C38.5 25.23 32.73 16.66 28.76 16.66C25.29 16.66 32.47 26.45 30.5 26.45C29.4 26.45 24.49 24.35 20.48 17.83C17.67 13.23 13.77 4.91 9.36 4.91C5.09 4.91 10.59 14.54 13.27 19.5C15.94 24.49 27.03 44.07 27.03 44.07C27.03 44.07 13.67 36.24 9.67 36.24C7.66 36.24 4.47 37.1 4.47 39.35C4.47 42.11 7.94 41.85 10.47 43.3C14.46 45.55 23.56 47.98 28.76 57.77"
        transform="matrix(0.8847,0,0,0.8845,4.0889,4.1403)"
  />
  <radialGradient id="gradient0" gradientUnits="userSpaceOnUse" cx="0" cy="0" r="64" gradientTransform="matrix(0.5502,-0.3917,0.3999,0.7153,19.236,23.8556)">
   <stop offset="0" stop-color="#fff2d9"/>
   <stop offset="1" stop-color="#ffd499"/>
  </radialGradient>
  <path style="fill:url(#gradient0)"
        d="M13.27 19.5C15.94 24.49 27.03 44.07 27.03 44.07C27.03 44.07 13.67 36.24 9.67 36.24C7.66 36.24 4.47 37.1 4.47 39.35C4.47 42.11 7.94 41.85 10.47 43.3C14.46 45.55 23.56 47.98 28.76 57.77C28.76 57.77 39.17 59.73 44.38 57.77C51.82 54.93 56.52 51.9 56.52 51.9C56.52 51.9 56.52 34.85 56.52 30.36C56.52 26.78 51.15 20.36 49.58 20.57C46.81 20.87 52.52 27.47 50.49 27.47C48.49 27.47 44.45 16.66 40.47 16.66C36.47 16.66 42.5 25.23 40.49 25.23C38.5 25.23 32.73 16.66 28.76 16.66C25.29 16.66 32.47 26.45 30.5 26.45C29.4 26.45 24.49 24.35 20.48 17.83C17.67 13.23 13.77 4.91 9.36 4.91C5.09 4.91 10.59 14.54 13.27 19.5z"
        transform="matrix(0.8847,0,0,0.8845,4.0889,4.1403)"
  />
 </g>
</svg>
