<?xml version="1.0" encoding="UTF-8" standalone="yes"?>
<svg version="1.1" width="64" height="64" color-interpolation="linearRGB"
     xmlns:svg="http://www.w3.org/2000/svg" xmlns="http://www.w3.org/2000/svg">
 <g>
  <path style="fill:none; stroke:#000000; stroke-opacity:0.4235; stroke-width:3"
        d="M14 26C11.78 26 10 27.79 10 30C10 32.2 11.78 34 14 34C16.2 34 18 32.2 18 30C18 27.79 16.2 26 14 26z
           M14 26C11.78 26 10 27.79 10 30C10 32.2 11.78 34 14 34C16.2 34 18 32.2 18 30C18 27.79 16.2 26 14 26z
           M8 36V46L10 48V58H18V48L20 46V36L14 34L8 36z
           M8 36V46L10 48V58H18V48L20 46V36L14 34L8 36z"
        transform="matrix(1.4242,0,0,1.4799,12.8787,-28.5591)"
  />
  <path style="fill:none; stroke:#000000; stroke-width:4"
        d="M8 36V46L10 48V58H18V48L20 46V36L14 34L8 36z"
        transform="matrix(1.4242,0,0,1.4799,11.4545,-31.519)"
  />
  <linearGradient id="gradient0" gradientUnits="userSpaceOnUse" x1="29.26" y1="18.7" x2="44.47" y2="39.29">
   <stop offset="0" stop-color="#ffdb97"/>
   <stop offset="1" stop-color="#fcaf29"/>
  </linearGradient>
  <path style="fill:url(#gradient0)"
        d="M8 36V46L10 48V58H18V48L20 46V36L14 34L8 36z"
        transform="matrix(1.4242,0,0,1.4799,11.4545,-31.519)"
  />
  <path style="fill:none; stroke:#000000; stroke-width:4"
        d="M14 26C11.78 26 10 27.79 10 30C10 32.2 11.78 34 14 34C16.2 34 18 32.2 18 30C18 27.79 16.2 26 14 26z"
        transform="matrix(1.4242,0,0,1.4799,11.4545,-31.519)"
  />
  <radialGradient id="gradient1" gradientUnits="userSpaceOnUse" cx="0" cy="0" r="64" gradientTransform="matrix(0.2047,0,0,0.2008,12.625,28.375)">
   <stop offset="0" stop-color="#f2f2f2"/>
   <stop offset="0.6741" stop-color="#7d7a7a"/>
   <stop offset="1" stop-color="#bca184"/>
  </radialGradient>
  <path style="fill:url(#gradient1)"
        d="M14 26C11.78 26 10 27.79 10 30C10 32.2 11.78 34 14 34C16.2 34 18 32.2 18 30C18 27.79 16.2 26 14 26z"
        transform="matrix(1.4242,0,0,1.4799,11.4545,-31.519)"
  />
 </g>
</svg>
