<?xml version="1.0" encoding="UTF-8" standalone="yes"?>
<svg version="1.1" width="64" height="64" color-interpolation="linearRGB"
     xmlns:svg="http://www.w3.org/2000/svg" xmlns="http://www.w3.org/2000/svg">
 <g>
  <path style="fill:none; stroke:#005900; stroke-width:5; stroke-linecap:round; stroke-linejoin:round"
        d="M11 52C11 52 6 31 22 17C35 7 52 10 52 10"
  />
  <path style="fill:none; stroke:#d90000; stroke-width:4"
        d=""
        transform="matrix(0.7595,0,0,0.7139,10.5006,4.5988)"
  />
  <path style="fill:none; stroke:#d90000; stroke-width:4"
        d=""
        transform="matrix(0.7731,0,0,0.7294,5.5804,13.2155)"
  />
  <path style="fill:none; stroke:#d90000; stroke-width:4"
        d=""
        transform="matrix(0.7731,0,0,0.7294,5.7831,4.8633)"
  />
  <path style="fill:none; stroke:#d90000; stroke-width:2.5453"
        d="M33.27 51.09C33.27 53.63 33.27 56.18 33.27 58.72C35.81 58.72 38.36 58.72 40.9 58.72C40.9 56.18 40.9 53.63 40.9 51.09C38.36 51.09 35.81 51.09 33.27 51.09V51.09V51.09V51.09V51.09z"
        transform="matrix(1,0,0,1,-26,-2)"
  />
  <path style="fill:none; stroke:#d90000; stroke-width:2.5453"
        d="M33.27 51.09C33.27 53.63 33.27 56.18 33.27 58.72C35.81 58.72 38.36 58.72 40.9 58.72C40.9 56.18 40.9 53.63 40.9 51.09C38.36 51.09 35.81 51.09 33.27 51.09V51.09V51.09V51.09V51.09z"
        transform="matrix(1,0,0,1,16,-45)"
  />
  <path style="fill:none; stroke:#d90000; stroke-width:2.5453"
        d="M33.27 51.09C33.27 53.63 33.27 56.18 33.27 58.72C35.81 58.72 38.36 58.72 40.9 58.72C40.9 56.18 40.9 53.63 40.9 51.09C38.36 51.09 35.81 51.09 33.27 51.09V51.09V51.09V51.09V51.09z"
        transform="matrix(1.1964,0,0,1.1964,-23.2857,-47.7858)"
  />
  <path style="fill:#010101; fill-opacity:0.3921"
        d="M20.25 24.22C22.61 28.64 32.42 45.95 32.42 45.95C32.42 45.95 20.6 39.02 17.06 39.02C15.28 39.02 12.46 39.78 12.46 41.78C12.46 44.22 15.53 43.99 17.77 45.27C21.3 47.26 29.35 49.41 33.95 58.07C33.95 58.07 43.16 59.81 47.77 58.07C54.35 55.56 58.51 52.88 58.51 52.88C58.51 52.88 58.51 37.79 58.51 33.83C58.51 30.66 53.76 24.98 52.37 25.17C49.92 25.43 54.97 31.26 53.18 31.26C51.41 31.26 47.83 21.71 44.31 21.71C40.77 21.71 46.11 29.29 44.33 29.29C42.57 29.29 37.46 21.71 33.95 21.71C30.88 21.71 37.23 30.36 35.49 30.36C34.52 30.36 30.17 28.51 26.63 22.75C24.14 18.68 20.69 11.32 16.79 11.32C13.01 11.32 17.88 19.84 20.25 24.22V24.22V24.22z"
        transform="matrix(0.7519,0,0,0.7041,17.5144,20.4117)"
  />
  <path style="fill:none; stroke:#804100; stroke-width:7; stroke-linejoin:round"
        d="M54.09 50.04C54.09 50.04 54.09 34.96 54.09 30.99C54.09 27.82 49.34 22.14 47.95 22.33C45.5 22.59 50.55 28.43 48.75 28.43C46.98 28.43 43.41 18.87 39.89 18.87C36.35 18.87 41.68 26.45 39.91 26.45C38.14 26.45 33.04 18.87 29.53 18.87C26.46 18.87 32.81 27.53 31.07 27.53C30.09 27.53 25.75 25.67 22.2 19.91C19.72 15.84 16.27 8.48 12.36 8.48C8.59 8.48 13.45 17 15.82 21.38C18.19 25.8 28 43.12 28 43.12C28 43.12 16.18 36.19 12.64 36.19C10.86 36.19 8.04 36.95 8.04 38.94C8.04 41.38 11.11 41.15 13.35 42.43C16.88 44.42 24.93 46.57 29.53 55.23"
        transform="matrix(0.665,0,0,0.6831,21.5973,20.6498)"
  />
  <radialGradient id="gradient0" gradientUnits="userSpaceOnUse" cx="0" cy="0" r="64" gradientTransform="matrix(0.3854,0.6892,-0.5183,0.2898,21.1069,25.2405)">
   <stop offset="0" stop-color="#fff2d9"/>
   <stop offset="1" stop-color="#ffd499"/>
  </radialGradient>
  <path style="fill:url(#gradient0)"
        d="M15.82 21.38C18.19 25.8 28 43.12 28 43.12C28 43.12 16.18 36.19 12.64 36.19C10.86 36.19 8.04 36.95 8.04 38.94C8.04 41.38 11.11 41.15 13.35 42.43C16.88 44.42 24.93 46.57 29.53 55.23C29.53 55.23 38.74 56.97 43.35 55.23C49.93 52.72 54.09 50.04 54.09 50.04C54.09 50.04 54.09 34.96 54.09 30.99C54.09 27.82 49.34 22.14 47.95 22.33C45.5 22.59 50.55 28.43 48.75 28.43C46.98 28.43 43.41 18.87 39.89 18.87C36.35 18.87 41.68 26.45 39.91 26.45C38.14 26.45 33.04 18.87 29.53 18.87C26.46 18.87 32.81 27.53 31.07 27.53C30.09 27.53 25.75 25.67 22.2 19.91C19.72 15.84 16.27 8.48 12.36 8.48C8.59 8.48 13.45 17 15.82 21.38V21.38V21.38z"
        transform="matrix(0.665,0,0,0.6831,21.5973,20.6498)"
  />
 </g>
</svg>
