<?xml version="1.0" encoding="UTF-8" standalone="yes"?>
<svg version="1.1" width="64" height="64" color-interpolation="linearRGB"
     xmlns:svg="http://www.w3.org/2000/svg" xmlns="http://www.w3.org/2000/svg">
 <g>
  <path style="fill:none; stroke:#000000; stroke-opacity:0.4; stroke-width:5.0136; stroke-linecap:round; stroke-linejoin:round"
        d="M14.12 9.88H52.42V56.54H14.12V9.88z"
  />
  <path style="fill:none; stroke:#000080; stroke-width:5.0136; stroke-linecap:round; stroke-linejoin:round"
        d="M11.56 7.42H49.87V54.09H11.56V7.42z"
  />
  <linearGradient id="gradient0" gradientUnits="userSpaceOnUse" x1="167.35" y1="7.42" x2="167.35" y2="54.09">
   <stop offset="0" stop-color="#ffffff"/>
   <stop offset="1" stop-color="#d9d9ff"/>
  </linearGradient>
  <path style="fill:url(#gradient0)"
        d="M11.56 7.42H49.87V54.09H11.56V7.42z"
  />
  <path style="fill:none; stroke:#80d3ff; stroke-width:10.0273; stroke-linecap:square"
        d="M19.22 14.8H42.21
           M19.22 24.62H31.99
           M19.22 34.44H37.1
           M19.22 44.26H31.99"
  />
  <path style="fill:none; stroke:#000000; stroke-opacity:0.4; stroke-width:5.0136; stroke-linecap:round; stroke-linejoin:round"
        d="M19.22 14.8H42.21
           M19.22 24.62H31.99
           M19.22 34.44H37.1
           M19.22 44.26H31.99"
  />
  <path style="fill:none; stroke:#800000; stroke-width:7; stroke-linecap:round"
        d="M4 12L58 50"
  />
  <linearGradient id="gradient1" gradientUnits="userSpaceOnUse" x1="162.14" y1="12.34" x2="162.14" y2="54.09">
   <stop offset="0" stop-color="#ffabab"/>
   <stop offset="1" stop-color="#d90000"/>
  </linearGradient>
  <path style="fill:none; stroke:url(#gradient1); stroke-width:3; stroke-linecap:round"
        d="M4 12L58 50"
  />
 </g>
</svg>
