<?xml version="1.0" encoding="UTF-8" standalone="yes"?>
<svg version="1.1" width="64" height="64" color-interpolation="linearRGB"
     xmlns:svg="http://www.w3.org/2000/svg" xmlns="http://www.w3.org/2000/svg">
 <g>
  <path style="fill:none; stroke:#000000; stroke-opacity:0.4; stroke-width:5.7717; stroke-linecap:round; stroke-linejoin:round"
        d="M15.76 12.27V6.63H24.61V12.27H15.76z
           M33.47 34.81V37.63H24.61L21.66 40.45H6.9L9.85 23.54L15.76 17.9H24.61V20.72H33.47V23.54H24.61V34.81H33.47z
           M24.61 60.17V57.36L21.66 46.08H9.85L6.9 57.36V60.17H24.61z"
        transform="matrix(0.8706,0,0,0.8712,4.1378,4.12)"
  />
  <path style="fill:none; stroke:#000000; stroke-opacity:0.4; stroke-width:5.7717; stroke-linecap:round; stroke-linejoin:round"
        d="M51.19 12.27V6.63H42.33V12.27H51.19z
           M33.47 34.81V37.63H42.33L45.28 40.45H60.04L57.09 23.54L51.19 17.9H42.33V20.72H33.47V23.54H42.33V34.81H33.47z
           M42.33 60.17V57.36L45.28 46.08H57.09L60.04 57.36V60.17H42.33z"
        transform="matrix(0.8706,0,0,0.8712,4.1378,4.12)"
  />
  <path style="fill:none; stroke:#000000; stroke-width:5.7717; stroke-linecap:round; stroke-linejoin:round"
        d="M12.8 9.45V3.81H21.66V9.45H12.8z
           M30.52 31.99V34.81H21.66L18.71 37.63H3.95L6.9 20.72L12.8 15.09H21.66V17.9H30.52V20.72H21.66V31.99H30.52z
           M21.66 57.36V54.54L18.71 43.27H6.9L3.95 54.54V57.36H21.66z"
        transform="matrix(0.8706,0,0,0.8712,4.1378,4.12)"
  />
  <path style="fill:none; stroke:#000000; stroke-width:5.7717; stroke-linecap:round; stroke-linejoin:round"
        d="M48.23 9.45V3.81H39.38V9.45H48.23z
           M30.52 31.99V34.81H39.38L42.33 37.63H57.09L54.14 20.72L48.23 15.09H39.38V17.9H30.52V20.72H39.38V31.99H30.52z
           M39.38 57.36V54.54L42.33 43.27H54.14L57.09 54.54V57.36H39.38z"
        transform="matrix(0.8706,0,0,0.8712,4.1378,4.12)"
  />
  <linearGradient id="gradient0" gradientUnits="userSpaceOnUse" x1="189.94" y1="3.8" x2="189.94" y2="57.36">
   <stop offset="0" stop-color="#808080"/>
   <stop offset="1" stop-color="#282828"/>
  </linearGradient>
  <path style="fill:url(#gradient0)"
        d="M21.66 57.36V54.54L18.71 43.27H6.9L3.95 54.54V57.36H21.66z
           M30.52 31.99V34.81H21.66L18.71 37.63H3.95L6.9 20.72L12.8 15.09H21.66V17.9H30.52V20.72H21.66V31.99H30.52z
           M12.8 9.45V3.81H21.66V9.45H12.8z"
        transform="matrix(0.8706,0,0,0.8712,4.1378,4.12)"
  />
  <linearGradient id="gradient1" gradientUnits="userSpaceOnUse" x1="-128.89" y1="3.8" x2="-128.89" y2="57.36">
   <stop offset="0" stop-color="#808080"/>
   <stop offset="1" stop-color="#282828"/>
  </linearGradient>
  <path style="fill:url(#gradient1)"
        d="M39.38 57.36V54.54L42.33 43.27H54.14L57.09 54.54V57.36H39.38z
           M30.52 31.99V34.81H39.38L42.33 37.63H57.09L54.14 20.72L48.23 15.09H39.38V17.9H30.52V20.72H39.38V31.99H30.52z
           M48.23 9.45V3.81H39.38V9.45H48.23z"
        transform="matrix(0.8706,0,0,0.8712,4.1378,4.12)"
  />
 </g>
</svg>
