<?xml version="1.0" encoding="UTF-8" standalone="yes"?>
<svg version="1.1" width="64" height="64" color-interpolation="linearRGB"
     xmlns:svg="http://www.w3.org/2000/svg" xmlns="http://www.w3.org/2000/svg">
 <g>
  <path style="fill:none; stroke:#000000; stroke-opacity:0.4; stroke-width:4.6588; stroke-linejoin:round"
        d="M44.45 17.04C45.21 14.81 43.73 11.85 43.73 11.85C42.99 11.6 42.25 11.35 41.5 11.1C38.22 20.71 34.94 30.33 31.65 39.94C33.14 40.44 34.62 40.95 36.11 41.45C36.11 41.45 43.69 19.26 44.45 17.04V17.04V17.04z"
  />
  <path style="fill:none; stroke:#000000; stroke-opacity:0.4; stroke-width:9.3176"
        d="M23.45 42.11C20.99 41.28 17.98 43.58 16.72 47.26C15.47 50.93 16.45 54.59 18.91 55.42C21.35 56.26 24.38 53.95 25.64 50.27C26.89 46.59 25.9 42.94 23.45 42.11V42.11V42.11z"
  />
  <path style="fill:none; stroke:#000000; stroke-opacity:0.4; stroke-width:4.6588"
        d="M36.11 41.45C34.59 45.89 29.38 46.59 27.86 51.03C26.38 50.53 24.89 50.03 23.41 49.52C24.92 45.09 30.14 44.37 31.65 39.94C33.14 40.44 34.62 40.95 36.11 41.45V41.45V41.45z"
  />
  <path style="fill:none; stroke:#545454; stroke-width:4.6588; stroke-linejoin:round"
        d="M42.09 14.7C42.86 12.46 41.38 9.51 41.38 9.51C40.64 9.26 39.89 9 39.15 8.75C35.87 18.36 32.59 27.98 29.3 37.6C30.79 38.1 32.27 38.6 33.76 39.1C33.76 39.1 41.33 16.92 42.09 14.7V14.7V14.7z"
  />
  <path style="fill:none; stroke:#800000; stroke-width:9.3176"
        d="M21.1 39.77C18.64 38.93 15.63 41.23 14.37 44.91C13.12 48.58 14.09 52.24 16.55 53.08C19 53.91 22.03 51.61 23.28 47.93C24.54 44.25 23.55 40.59 21.1 39.77V39.77V39.77z"
  />
  <path style="fill:none; stroke:#800000; stroke-width:4.6588"
        d="M33.76 39.1C32.24 43.54 27.03 44.25 25.51 48.69C24.03 48.18 22.54 47.68 21.06 47.18C22.57 42.74 27.79 42.03 29.3 37.6C30.79 38.1 32.27 38.6 33.76 39.1V39.1V39.1z"
  />
  <linearGradient id="gradient0" gradientUnits="userSpaceOnUse" x1="165.41" y1="53.98" x2="156.31" y2="80.62">
   <stop offset="0" stop-color="#e6eaf2"/>
   <stop offset="1" stop-color="#ced2d9"/>
  </linearGradient>
  <path style="fill:url(#gradient0)"
        d="M42.09 14.7C42.86 12.46 41.38 9.51 41.38 9.51C40.64 9.26 39.89 9 39.15 8.75C35.87 18.36 32.59 27.98 29.3 37.6C30.79 38.1 32.27 38.6 33.76 39.1C33.76 39.1 41.33 16.92 42.09 14.7V14.7V14.7z"
  />
  <linearGradient id="gradient1" gradientUnits="userSpaceOnUse" x1="156.31" y1="80.62" x2="149.49" y2="100.59">
   <stop offset="0" stop-color="#ffabab"/>
   <stop offset="1" stop-color="#d90000"/>
  </linearGradient>
  <path style="fill:none; stroke:url(#gradient1); stroke-width:4.6588"
        d="M21.1 39.77C18.64 38.93 15.63 41.23 14.37 44.91C13.12 48.58 14.09 52.24 16.55 53.08C19 53.91 22.03 51.61 23.28 47.93C24.54 44.25 23.55 40.59 21.1 39.77V39.77V39.77z"
  />
  <linearGradient id="gradient2" gradientUnits="userSpaceOnUse" x1="156.31" y1="80.62" x2="149.49" y2="100.59">
   <stop offset="0" stop-color="#ffabab"/>
   <stop offset="1" stop-color="#d90000"/>
  </linearGradient>
  <path style="fill:url(#gradient2)"
        d="M33.76 39.1C32.24 43.54 27.03 44.25 25.51 48.69C24.03 48.18 22.54 47.68 21.06 47.18C22.57 42.74 27.79 42.03 29.3 37.6C30.79 38.1 32.27 38.6 33.76 39.1V39.1V39.1z"
  />
  <path style="fill:#ffffff"
        d="M34.56 29.48C33.57 29.96 32.57 30.45 31.58 30.93C34.1 23.54 36.63 16.14 39.15 8.75C39.89 9 40.64 9.26 41.38 9.51C39.11 16.16 36.83 22.82 34.56 29.48V29.48V29.48z"
  />
  <path style="fill:none; stroke:#000000; stroke-opacity:0.4; stroke-width:4.6585"
        d="M22.39 17.03C21.64 14.8 23.11 11.85 23.11 11.85C23.85 11.59 24.59 11.34 25.33 11.09C28.61 20.7 31.89 30.32 35.17 39.93C33.69 40.44 32.2 40.94 30.72 41.44C30.72 41.44 23.15 19.25 22.39 17.03V17.03V17.03z"
  />
  <path style="fill:none; stroke:#000000; stroke-opacity:0.4; stroke-width:9.3172"
        d="M43.38 42.11C45.84 41.28 48.85 43.58 50.11 47.27C51.36 50.94 50.38 54.59 47.92 55.43C45.46 56.26 42.44 53.95 41.19 50.27C39.93 46.59 40.92 42.94 43.38 42.11V42.11V42.11z"
  />
  <path style="fill:none; stroke:#000000; stroke-opacity:0.4; stroke-width:4.6585"
        d="M30.72 41.44C32.23 45.88 37.45 46.59 38.96 51.03C40.45 50.53 41.93 50.03 43.42 49.52C41.9 45.09 36.69 44.37 35.17 39.93C33.69 40.44 32.2 40.94 30.72 41.44V41.44V41.44z"
  />
  <path style="fill:none; stroke:#545454; stroke-width:4.6585"
        d="M20.04 14.69C19.28 12.46 20.75 9.5 20.75 9.5C21.49 9.25 22.24 8.99 22.98 8.74C26.26 18.36 29.54 27.98 32.82 37.6C31.34 38.1 29.85 38.6 28.37 39.1C28.37 39.1 20.79 16.91 20.04 14.69V14.69V14.69z"
  />
  <path style="fill:none; stroke:#800000; stroke-width:9.3172"
        d="M41.03 39.77C43.49 38.94 46.49 41.23 47.75 44.92C49 48.59 48.03 52.25 45.57 53.08C43.11 53.91 40.09 51.61 38.84 47.94C37.58 44.25 38.57 40.59 41.03 39.77V39.77V39.77z"
  />
  <path style="fill:none; stroke:#800000; stroke-width:4.6585"
        d="M28.37 39.1C29.88 43.53 35.1 44.25 36.6 48.69C38.09 48.18 39.58 47.68 41.07 47.18C39.55 42.74 34.34 42.03 32.82 37.6C31.34 38.1 29.85 38.6 28.37 39.1V39.1V39.1z"
  />
  <linearGradient id="gradient3" gradientUnits="userSpaceOnUse" x1="-103.27" y1="53.92" x2="-94.18" y2="80.56">
   <stop offset="0" stop-color="#e6eaf2"/>
   <stop offset="1" stop-color="#ced2d9"/>
  </linearGradient>
  <path style="fill:url(#gradient3)"
        d="M20.04 14.69C19.28 12.46 20.75 9.5 20.75 9.5C21.49 9.25 22.24 8.99 22.98 8.74C26.26 18.36 29.54 27.98 32.82 37.6C31.34 38.1 29.85 38.6 28.37 39.1C28.37 39.1 20.79 16.91 20.04 14.69V14.69V14.69z"
  />
  <linearGradient id="gradient4" gradientUnits="userSpaceOnUse" x1="-94.18" y1="80.56" x2="-87.36" y2="100.53">
   <stop offset="0" stop-color="#ffabab"/>
   <stop offset="1" stop-color="#d90000"/>
  </linearGradient>
  <path style="fill:none; stroke:url(#gradient4); stroke-width:4.6585"
        d="M41.03 39.77C43.49 38.94 46.49 41.23 47.75 44.92C49 48.59 48.03 52.25 45.57 53.08C43.11 53.91 40.09 51.61 38.84 47.94C37.58 44.25 38.57 40.59 41.03 39.77V39.77V39.77z"
  />
  <linearGradient id="gradient5" gradientUnits="userSpaceOnUse" x1="-94.18" y1="80.56" x2="-87.36" y2="100.53">
   <stop offset="0" stop-color="#ffabab"/>
   <stop offset="1" stop-color="#d90000"/>
  </linearGradient>
  <path style="fill:url(#gradient5)"
        d="M28.37 39.1C29.88 43.53 35.1 44.25 36.6 48.69C38.09 48.18 39.58 47.68 41.07 47.18C39.55 42.74 34.34 42.03 32.82 37.6C31.34 38.1 29.85 38.6 28.37 39.1V39.1V39.1z"
  />
  <path style="fill:#ffffff"
        d="M27.57 29.47C28.56 29.96 29.56 30.44 30.56 30.93C28.03 23.54 25.51 16.14 22.98 8.74C22.24 8.99 21.49 9.25 20.75 9.5C23.02 16.16 25.29 22.81 27.57 29.47V29.47V29.47z"
  />
 </g>
</svg>
