<?xml version="1.0" encoding="UTF-8" standalone="yes"?>
<svg version="1.1" width="64" height="64" color-interpolation="linearRGB"
     xmlns:svg="http://www.w3.org/2000/svg" xmlns="http://www.w3.org/2000/svg">
 <g>
  <path style="fill:none; stroke:#000000; stroke-opacity:0.4; stroke-width:4.5208; stroke-linecap:round; stroke-linejoin:round"
        d="M55.56 53.33C40.33 53.33 25.1 53.33 9.86 53.33C9.86 42.76 9.86 32.2 9.86 21.63C25.1 21.63 40.33 21.63 55.56 21.63C55.56 32.2 55.56 42.76 55.56 53.33V53.33V53.33z
           M9.86 21.63C9.86 18.82 9.86 16.01 9.86 13.19C14.68 13.19 19.48 13.19 24.29 13.19C24.29 16.01 24.29 18.82 24.29 21.63C19.48 21.63 14.68 21.63 9.86 21.63V21.63V21.63z"
        transform="matrix(1.052,0,0,1.0929,-3.2442,-7.7913)"
  />
  <path style="fill:none; stroke:#bf5000; stroke-width:4.6163; stroke-linecap:round; stroke-linejoin:round"
        d="M7.46 19.71C7.46 16.84 7.46 13.96 7.46 11.07C12.36 11.07 17.27 11.07 22.18 11.07C22.18 13.96 22.18 16.84 22.18 19.71C17.27 19.71 12.36 19.71 7.46 19.71V19.71V19.71z"
        transform="matrix(1.052,0,0,1.0929,-3.2442,-7.7913)"
  />
  <path style="fill:#ffd400"
        d="M7.46 19.71C7.46 16.84 7.46 13.96 7.46 11.07C12.36 11.07 17.27 11.07 22.18 11.07C22.18 13.96 22.18 16.84 22.18 19.71C17.27 19.71 12.36 19.71 7.46 19.71V19.71V19.71z"
        transform="matrix(1.052,0,0,1.0929,-3.2442,-7.7913)"
  />
  <path style="fill:none; stroke:#545454; stroke-width:4.6163; stroke-linecap:round; stroke-linejoin:round"
        d="M60 60C44.45 60 22.54 60 7 60C7 49.2 7 30.8 7 20C22.54 20 44.45 20 60 20C60 30.8 60 60 60 60z"
        transform="matrix(1.052,0,0,1.0929,-3.2442,-7.7913)"
  />
  <path style="fill:none; stroke:#bf5000; stroke-width:3.9916; stroke-linecap:round; stroke-linejoin:round"
        d="M26.51 16.89C26.51 14.76 26.51 12.64 26.51 10.51C31.2 10.51 35.88 10.51 40.58 10.51C40.58 12.64 40.58 14.76 40.58 16.89C35.88 16.89 31.2 16.89 26.51 16.89V16.89V16.89z"
        transform="matrix(1.052,0,0,1.0929,-3.2442,-7.7913)"
  />
  <path style="fill:#ffd400"
        d="M25.73 19.71C25.73 16.84 25.73 13.96 25.73 11.07C30.64 11.07 35.55 11.07 40.45 11.07C40.45 13.96 40.45 16.84 40.45 19.71C35.55 19.71 30.64 19.71 25.73 19.71V19.71V19.71z"
        transform="matrix(1.052,0,0,1.0929,-3.2442,-7.7913)"
  />
  <linearGradient id="gradient0" gradientUnits="userSpaceOnUse" x1="7.45" y1="20.79" x2="54.08" y2="20.79">
   <stop offset="0.7947" stop-color="#ffffff"/>
   <stop offset="1" stop-color="#e6e1dc"/>
  </linearGradient>
  <path style="fill:url(#gradient0)"
        d="M60 60C44.45 60 22.54 60 7 60C7 49.2 7.46 30.52 7.46 19.71C23 19.71 44.45 20 60 20C60 30.8 60 60 60 60z"
        transform="matrix(1.052,0,0,1.0929,-3.2442,-7.7913)"
  />
 </g>
</svg>
