<?xml version="1.0" encoding="UTF-8" standalone="yes"?>
<svg version="1.1" width="64" height="64" color-interpolation="linearRGB"
     xmlns:svg="http://www.w3.org/2000/svg" xmlns="http://www.w3.org/2000/svg">
 <g>
  <path style="fill:none; stroke:#000000; stroke-opacity:0.4; stroke-width:6.1742; stroke-linecap:round; stroke-linejoin:round"
        d="M18.26 10.03C30.48 10.03 42.7 10.03 54.91 10.03C54.91 25.63 54.91 41.25 54.91 56.85C42.7 56.85 30.48 56.85 18.26 56.85C18.26 41.25 18.26 25.63 18.26 10.03V10.03V10.03V10.03V10.03z"
        transform="matrix(1,0,0,1,-2,1)"
  />
  <path style="fill:none; stroke:#000080; stroke-width:6.1742; stroke-linecap:round; stroke-linejoin:round"
        d="M15.2 6.93C27.42 6.93 39.64 6.93 51.87 6.93C51.87 22.53 51.87 38.13 51.87 53.73C39.64 53.73 27.42 53.73 15.2 53.73C15.2 38.13 15.2 22.53 15.2 6.93V6.93V6.93V6.93V6.93z"
        transform="matrix(1,0,0,1,-2,1)"
  />
  <linearGradient id="gradient0" gradientUnits="userSpaceOnUse" x1="186.22" y1="6.93" x2="186.22" y2="53.73">
   <stop offset="0" stop-color="#ffffff"/>
   <stop offset="1" stop-color="#d9d9ff"/>
  </linearGradient>
  <path style="fill:url(#gradient0)"
        d="M15.2 6.93C27.42 6.93 39.64 6.93 51.87 6.93C51.87 22.53 51.87 38.13 51.87 53.73C39.64 53.73 27.42 53.73 15.2 53.73C15.2 38.13 15.2 22.53 15.2 6.93V6.93V6.93V6.93V6.93z"
        transform="matrix(1,0,0,1,-2,1)"
  />
  <path style="fill:#000080"
        d="M21.33 13.15C29.47 13.15 37.61 13.15 45.76 13.15C45.76 14.19 45.76 15.23 45.76 16.27C37.61 16.27 29.47 16.27 21.33 16.27C21.33 15.23 21.33 14.19 21.33 13.15V13.15V13.15V13.15V13.15z
           M21.33 22.53C28.44 22.53 35.57 22.53 42.69 22.53C42.69 23.56 42.69 24.59 42.69 25.63C35.57 25.63 28.44 25.63 21.33 25.63C21.33 24.59 21.33 23.56 21.33 22.53V22.53V22.53V22.53V22.53z"
        transform="matrix(1,0,0,1,-2,1)"
  />
  <path style="fill:#000080"
        d="M21.33 41.23C28.44 41.23 35.57 41.23 42.69 41.23C42.69 42.27 42.69 43.32 42.69 44.36C35.57 44.36 28.44 44.36 21.33 44.36C21.33 43.32 21.33 42.27 21.33 41.23V41.23V41.23V41.23V41.23z
           M21.33 31.88C29.47 31.88 37.61 31.88 45.76 31.88C45.76 32.92 45.76 33.96 45.76 34.99C37.61 34.99 29.47 34.99 21.33 34.99C21.33 33.96 21.33 32.92 21.33 31.88V31.88V31.88V31.88V31.88z"
        transform="matrix(1,0,0,1,-2,1)"
  />
 </g>
</svg>
