<?xml version="1.0" encoding="UTF-8" standalone="yes"?>
<svg version="1.1" width="64" height="64" color-interpolation="linearRGB"
     xmlns:svg="http://www.w3.org/2000/svg" xmlns="http://www.w3.org/2000/svg">
 <g>
  <path style="fill:none; stroke:#000000; stroke-opacity:0.4; stroke-width:5.7746; stroke-linecap:round; stroke-linejoin:round"
        d="M15.09 33.48L23.54 36.43L40.45 54.16L60.18 33.48L37.63 9.84L15.09 33.48z
           M54.54 27.57L60.18 21.66L51.73 6.89L43.27 15.75L54.54 27.57z
           M16.5 27.57L12.27 32V34.96L16.5 36.43V60.07C16.5 60.07 6.63 42.34 6.63 36.43C6.63 30.53 10.86 27.57 16.5 27.57z"
        transform="matrix(0.8712,0,0,0.8707,4.1198,4.1386)"
  />
  <path style="fill:none; stroke:#004080; stroke-width:5.7746; stroke-linecap:round; stroke-linejoin:round"
        d="M51.73 24.62L57.36 18.71L48.91 3.93L40.45 12.8L51.73 24.62z
           M43.27 15.75L48.91 9.84L53.14 17.23L48.91 21.66L43.27 15.75z"
        transform="matrix(0.8712,0,0,0.8707,4.1198,4.1386)"
  />
  <path style="fill:#ffffff"
        d="M51.73 24.62L57.36 18.71L48.91 3.93L40.45 12.8L51.73 24.62z
           M43.27 15.75L48.91 9.84L53.14 17.23L48.91 21.66L43.27 15.75z"
        transform="matrix(0.8712,0,0,0.8707,4.1198,4.1386)"
  />
  <path style="fill:none; stroke:#004080; stroke-width:5.7746; stroke-linecap:round; stroke-linejoin:round"
        d="M12.27 30.53L20.72 33.48L37.63 51.21L57.36 30.53L34.82 6.89L12.27 30.53z"
        transform="matrix(0.8712,0,0,0.8707,4.1198,4.1386)"
  />
  <path style="fill:#ffffff"
        d="M17.91 24.62H51.73L34.82 6.89L17.91 24.62z"
        transform="matrix(0.8712,0,0,0.8707,4.1198,4.1386)"
  />
  <linearGradient id="gradient0" gradientUnits="userSpaceOnUse" x1="181.37" y1="24.6" x2="181.37" y2="51.19">
   <stop offset="0" stop-color="#abd5ff"/>
   <stop offset="1" stop-color="#006cd9"/>
  </linearGradient>
  <path style="fill:url(#gradient0)"
        d="M12.27 30.53L20.72 33.48L37.63 51.21L57.36 30.53L51.73 24.62H17.91L12.27 30.53z"
        transform="matrix(0.8712,0,0,0.8707,4.1198,4.1386)"
  />
  <path style="fill:none; stroke:#004080; stroke-width:5.7746; stroke-linecap:round; stroke-linejoin:round"
        d="M13.68 24.62L9.45 29.05V32L13.68 33.48V57.12C13.68 57.12 3.81 39.39 3.81 33.48C3.81 27.57 8.04 24.62 13.68 24.62z"
        transform="matrix(0.8712,0,0,0.8707,4.1198,4.1386)"
  />
  <linearGradient id="gradient1" gradientUnits="userSpaceOnUse" x1="181.37" y1="24.6" x2="181.37" y2="51.19">
   <stop offset="0" stop-color="#abd5ff"/>
   <stop offset="1" stop-color="#006cd9"/>
  </linearGradient>
  <path style="fill:url(#gradient1)"
        d="M13.68 24.62L9.45 29.05V32L13.68 33.48V57.12C13.68 57.12 3.81 39.39 3.81 33.48C3.81 27.57 8.04 24.62 13.68 24.62z"
        transform="matrix(0.8712,0,0,0.8707,4.1198,4.1386)"
  />
 </g>
</svg>
