<?xml version="1.0" encoding="UTF-8" standalone="yes"?>
<svg version="1.1" width="64" height="64" color-interpolation="linearRGB"
     xmlns:svg="http://www.w3.org/2000/svg" xmlns="http://www.w3.org/2000/svg">
 <g>
  <path style="fill:none; stroke:#010101; stroke-opacity:0.4117; stroke-width:3.5; stroke-linecap:round; stroke-linejoin:round"
        d="M31.85 24.86C30.05 24.88 28.18 25.22 26.66 25.81C24.31 26.96 22.07 29.26 20.91 31.71C20.03 33.57 19.98 33.86 19.98 37.02C19.98 40.91 20.45 42.97 22.12 46.46C23.56 49.47 25.56 52.09 27.78 53.89C29.71 55.45 29.91 55.53 30.72 54.94C31.54 54.34 31.08 53.31 29.42 52.04C27.62 50.66 25.68 48.17 24.37 45.55C22.22 41.26 21.68 35.95 23.08 32.91C24.1 30.71 25.65 29.06 27.63 28.09C30.01 26.92 33.48 26.92 35.86 28.09C38.7 29.48 40.52 32.02 41.16 35.5C41.55 37.58 42.13 38.27 43.01 37.7C43.42 37.44 43.51 37 43.47 35.41C43.38 31.57 40.68 27.7 36.74 25.77C35.42 25.12 33.66 24.84 31.85 24.86L31.85 24.86V24.86z
           M32.04 19.35C30.75 19.32 29.43 19.45 28.12 19.72C21.87 21.03 16.65 26.08 14.98 32.45C14.09 35.83 14.5 41.34 15.96 45.76C16.4 47.07 16.61 47.35 17.24 47.42C18.68 47.59 18.82 46.9 17.96 43.92C15.49 35.39 17.62 28.13 23.73 24.17C29.79 20.26 38.11 21.41 42.84 26.83C45.81 30.22 47.44 35.96 46.14 38.46C45.29 40.11 43.2 41.11 41.49 40.68C40.24 40.36 38.76 38.83 38.57 37.65C37.9 33.49 36.96 31.86 34.57 30.75C32.52 29.8 30.82 29.83 28.82 30.84C26.96 31.78 25.53 33.69 25.24 35.62C25.13 36.32 25.18 37.82 25.34 38.97C26.35 46.08 31.44 51.71 38.43 53.44C39.31 53.66 40.75 53.81 41.63 53.78C42.16 53.77 42.7 53.75 43.23 53.73C44.13 53.27 44.18 52.22 43.23 51.7C42.48 51.58 41.72 51.47 40.97 51.35C38.12 50.92 36.94 50.54 34.98 49.44C30.73 47.04 27.68 41.85 27.68 37C27.68 34.86 28.49 33.61 30.37 32.83C31.74 32.26 31.76 32.26 33.12 32.83C34.85 33.54 35.68 34.74 35.89 36.81C36.29 40.62 38.93 43.12 42.55 43.12C45.45 43.12 47.9 41.24 48.77 38.33C49.61 35.48 48.47 30.71 46.08 27.07C42.91 22.25 37.66 19.44 32.04 19.35V19.35V19.35z
           M31.75 14.05C25.67 14.04 19.59 16.45 15.14 21.26C13.41 23.12 11.4 26.18 11.4 26.93C11.4 27.81 11.76 28.3 12.42 28.3C12.94 28.3 13.46 27.74 14.71 25.86C17.5 21.67 21.13 18.88 25.79 17.34C29.41 16.16 33.64 16.3 37.71 17.34C42.97 19.07 47.48 22.92 49.95 27.79C50.49 28.85 50.81 29.17 51.34 29.17C52.24 29.17 52.77 28.49 52.53 27.66C52.13 26.3 50 23.03 48.38 21.29C43.92 16.47 37.84 14.05 31.75 14.05C31.75 14.05 31.75 14.05 31.75 14.05V14.05z
           M31.89 8.71C27.28 8.69 23.33 9.55 19.74 11.35C18.54 11.95 18.36 12.16 18.43 12.8C18.59 14.12 19.27 14.25 21.29 13.35C25.04 11.66 26.87 11.3 31.6 11.3C37.04 11.29 39.04 11.76 43.49 14.07C44.26 14.46 46.68 16.33 47.58 15.33C48.48 14.43 48.01 13.69 45.7 12.38C41.15 9.79 37.18 8.74 31.89 8.71V8.71V8.71z
           M39.89 48.25C34.92 47.16 31.09 42.79 30.66 37.7C30.53 36.09 30.57 35.88 31.13 35.58C32.19 35.02 32.8 35.61 33.01 37.42C33.55 41.95 36.88 45.37 41.37 45.99C43.56 46.29 44.27 47.13 43.21 48.19C42.68 48.72 42.09 48.73 39.89 48.25C39.89 48.25 39.89 48.25 39.89 48.25V48.25z"
        transform="matrix(1.0894,0,0,1.14,-0.863,-1.9756)"
  />
  <path style="fill:none; stroke:#4e2f02; stroke-width:3.5; stroke-linecap:round; stroke-linejoin:round"
        d="M31.85 24.86C30.05 24.88 28.18 25.22 26.66 25.81C24.31 26.96 22.07 29.26 20.91 31.71C20.03 33.57 19.98 33.86 19.98 37.02C19.98 40.91 20.45 42.97 22.12 46.46C23.56 49.47 25.56 52.09 27.78 53.89C29.71 55.45 29.91 55.53 30.72 54.94C31.54 54.34 31.08 53.31 29.42 52.04C27.62 50.66 25.68 48.17 24.37 45.55C22.22 41.26 21.68 35.95 23.08 32.91C24.1 30.71 25.65 29.06 27.63 28.09C30.01 26.92 33.48 26.92 35.86 28.09C38.7 29.48 40.52 32.02 41.16 35.5C41.55 37.58 42.13 38.27 43.01 37.7C43.42 37.44 43.51 37 43.47 35.41C43.38 31.57 40.68 27.7 36.74 25.77C35.42 25.12 33.66 24.84 31.85 24.86L31.85 24.86V24.86z
           M32.04 19.35C30.75 19.32 29.43 19.45 28.12 19.72C21.87 21.03 16.65 26.08 14.98 32.45C14.09 35.83 14.5 41.34 15.96 45.76C16.4 47.07 16.61 47.35 17.24 47.42C18.68 47.59 18.82 46.9 17.96 43.92C15.49 35.39 17.62 28.13 23.73 24.17C29.79 20.26 38.11 21.41 42.84 26.83C45.81 30.22 47.44 35.96 46.14 38.46C45.29 40.11 43.2 41.11 41.49 40.68C40.24 40.36 38.76 38.83 38.57 37.65C37.9 33.49 36.96 31.86 34.57 30.75C32.52 29.8 30.82 29.83 28.82 30.84C26.96 31.78 25.53 33.69 25.24 35.62C25.13 36.32 25.18 37.82 25.34 38.97C26.35 46.08 31.44 51.71 38.43 53.44C39.31 53.66 40.75 53.81 41.63 53.78C42.16 53.77 42.7 53.75 43.23 53.73C44.13 53.27 44.18 52.22 43.23 51.7C42.48 51.58 41.72 51.47 40.97 51.35C38.12 50.92 36.94 50.54 34.98 49.44C30.73 47.04 27.68 41.85 27.68 37C27.68 34.86 28.49 33.61 30.37 32.83C31.74 32.26 31.76 32.26 33.12 32.83C34.85 33.54 35.68 34.74 35.89 36.81C36.29 40.62 38.93 43.12 42.55 43.12C45.45 43.12 47.9 41.24 48.77 38.33C49.61 35.48 48.47 30.71 46.08 27.07C42.91 22.25 37.66 19.44 32.04 19.35V19.35V19.35z
           M31.75 14.05C25.67 14.04 19.59 16.45 15.14 21.26C13.41 23.12 11.4 26.18 11.4 26.93C11.4 27.81 11.76 28.3 12.42 28.3C12.94 28.3 13.46 27.74 14.71 25.86C17.5 21.67 21.13 18.88 25.79 17.34C29.41 16.16 33.64 16.3 37.71 17.34C42.97 19.07 47.48 22.92 49.95 27.79C50.49 28.85 50.81 29.17 51.34 29.17C52.24 29.17 52.77 28.49 52.53 27.66C52.13 26.3 50 23.03 48.38 21.29C43.92 16.47 37.84 14.05 31.75 14.05C31.75 14.05 31.75 14.05 31.75 14.05V14.05z
           M31.89 8.71C27.28 8.69 23.33 9.55 19.74 11.35C18.54 11.95 18.36 12.16 18.43 12.8C18.59 14.12 19.27 14.25 21.29 13.35C25.04 11.66 26.87 11.3 31.6 11.3C37.04 11.29 39.04 11.76 43.49 14.07C44.26 14.46 46.68 16.33 47.58 15.33C48.48 14.43 48.01 13.69 45.7 12.38C41.15 9.79 37.18 8.74 31.89 8.71V8.71V8.71z
           M39.89 48.25C34.92 47.16 31.09 42.79 30.66 37.7C30.53 36.09 30.57 35.88 31.13 35.58C32.19 35.02 32.8 35.61 33.01 37.42C33.55 41.95 36.88 45.37 41.37 45.99C43.56 46.29 44.27 47.13 43.21 48.19C42.68 48.72 42.09 48.73 39.89 48.25C39.89 48.25 39.89 48.25 39.89 48.25V48.25z"
        transform="matrix(1.0894,0,0,1.14,-2.863,-3.9756)"
  />
  <linearGradient id="gradient0" gradientUnits="userSpaceOnUse" x1="68.99" y1="7.02" x2="69.66" y2="49.02">
   <stop offset="0" stop-color="#ffffff"/>
   <stop offset="1" stop-color="#ffc14b"/>
  </linearGradient>
  <path style="fill:url(#gradient0)"
        d="M31.85 24.86C30.05 24.88 28.18 25.22 26.66 25.81C24.31 26.96 22.07 29.26 20.91 31.71C20.03 33.57 19.98 33.86 19.98 37.02C19.98 40.91 20.45 42.97 22.12 46.46C23.56 49.47 25.56 52.09 27.78 53.89C29.71 55.45 29.91 55.53 30.72 54.94C31.54 54.34 31.08 53.31 29.42 52.04C27.62 50.66 25.68 48.17 24.37 45.55C22.22 41.26 21.68 35.95 23.08 32.91C24.1 30.71 25.65 29.06 27.63 28.09C30.01 26.92 33.48 26.92 35.86 28.09C38.7 29.48 40.52 32.02 41.16 35.5C41.55 37.58 42.13 38.27 43.01 37.7C43.42 37.44 43.51 37 43.47 35.41C43.38 31.57 40.68 27.7 36.74 25.77C35.42 25.12 33.66 24.84 31.85 24.86L31.85 24.86V24.86z
           M32.04 19.35C30.75 19.32 29.43 19.45 28.12 19.72C21.87 21.03 16.65 26.08 14.98 32.45C14.09 35.83 14.5 41.34 15.96 45.76C16.4 47.07 16.61 47.35 17.24 47.42C18.68 47.59 18.82 46.9 17.96 43.92C15.49 35.39 17.62 28.13 23.73 24.17C29.79 20.26 38.11 21.41 42.84 26.83C45.81 30.22 47.44 35.96 46.14 38.46C45.29 40.11 43.2 41.11 41.49 40.68C40.24 40.36 38.76 38.83 38.57 37.65C37.9 33.49 36.96 31.86 34.57 30.75C32.52 29.8 30.82 29.83 28.82 30.84C26.96 31.78 25.53 33.69 25.24 35.62C25.13 36.32 25.18 37.82 25.34 38.97C26.35 46.08 31.44 51.71 38.43 53.44C39.31 53.66 40.75 53.81 41.63 53.78C42.16 53.77 42.7 53.75 43.23 53.73C44.13 53.27 44.18 52.22 43.23 51.7C42.48 51.58 41.72 51.47 40.97 51.35C38.12 50.92 36.94 50.54 34.98 49.44C30.73 47.04 27.68 41.85 27.68 37C27.68 34.86 28.49 33.61 30.37 32.83C31.74 32.26 31.76 32.26 33.12 32.83C34.85 33.54 35.68 34.74 35.89 36.81C36.29 40.62 38.93 43.12 42.55 43.12C45.45 43.12 47.9 41.24 48.77 38.33C49.61 35.48 48.47 30.71 46.08 27.07C42.91 22.25 37.66 19.44 32.04 19.35V19.35V19.35z
           M31.75 14.05C25.67 14.04 19.59 16.45 15.14 21.26C13.41 23.12 11.4 26.18 11.4 26.93C11.4 27.81 11.76 28.3 12.42 28.3C12.94 28.3 13.46 27.74 14.71 25.86C17.5 21.67 21.13 18.88 25.79 17.34C29.41 16.16 33.64 16.3 37.71 17.34C42.97 19.07 47.48 22.92 49.95 27.79C50.49 28.85 50.81 29.17 51.34 29.17C52.24 29.17 52.77 28.49 52.53 27.66C52.13 26.3 50 23.03 48.38 21.29C43.92 16.47 37.84 14.05 31.75 14.05C31.75 14.05 31.75 14.05 31.75 14.05V14.05z
           M31.89 8.71C27.28 8.69 23.33 9.55 19.74 11.35C18.54 11.95 18.36 12.16 18.43 12.8C18.59 14.12 19.27 14.25 21.29 13.35C25.04 11.66 26.87 11.3 31.6 11.3C37.04 11.29 39.04 11.76 43.49 14.07C44.26 14.46 46.68 16.33 47.58 15.33C48.48 14.43 48.01 13.69 45.7 12.38C41.15 9.79 37.18 8.74 31.89 8.71V8.71V8.71z
           M39.89 48.25C34.92 47.16 31.09 42.79 30.66 37.7C30.53 36.09 30.57 35.88 31.13 35.58C32.19 35.02 32.8 35.61 33.01 37.42C33.55 41.95 36.88 45.37 41.37 45.99C43.56 46.29 44.27 47.13 43.21 48.19C42.68 48.72 42.09 48.73 39.89 48.25C39.89 48.25 39.89 48.25 39.89 48.25V48.25z"
        transform="matrix(1.0894,0,0,1.14,-2.863,-3.9756)"
  />
 </g>
</svg>
