<?xml version="1.0" encoding="UTF-8" standalone="yes"?>
<svg version="1.1" width="64" height="64" color-interpolation="linearRGB"
     xmlns:svg="http://www.w3.org/2000/svg" xmlns="http://www.w3.org/2000/svg">
 <g>
  <path style="fill:#000000; fill-opacity:0.4"
        d="M6 4V60H10V4H6z"
        transform="matrix(1.25,0,0,1.0357,0.4999,0.8571)"
  />
  <path style="fill:none; stroke:#010101; stroke-width:3"
        d="M6 4V60H10V4H6z"
  />
  <linearGradient id="gradient0" gradientUnits="userSpaceOnUse" x1="15.52" y1="-62.83" x2="45.15" y2="-56.15">
   <stop offset="0" stop-color="#754603"/>
   <stop offset="0.1149" stop-color="#bd7105"/>
   <stop offset="1" stop-color="#754603"/>
  </linearGradient>
  <path style="fill:url(#gradient0)"
        d="M6 4V60H10V4H6z"
  />
  <path style="fill:none; stroke:#000000; stroke-opacity:0.4; stroke-width:4.9548; stroke-linecap:round; stroke-linejoin:round"
        d="M55.47 33.2L13 9.88V56.52L55.47 33.2z"
        transform="matrix(1.06,0,0,0.6115,-0.4819,1.9242)"
  />
  <path style="fill:none; stroke:#005900; stroke-width:4.9548; stroke-linecap:round; stroke-linejoin:round"
        d="M52.99 30.75L10.5 7.42V54.06L52.99 30.75z"
        transform="matrix(1.06,0,0,0.6115,-0.4819,1.9242)"
  />
  <linearGradient id="gradient1" gradientUnits="userSpaceOnUse" x1="165.44" y1="7.42" x2="165.44" y2="54.06">
   <stop offset="0" stop-color="#80ff80"/>
   <stop offset="1" stop-color="#00b200"/>
  </linearGradient>
  <path style="fill:url(#gradient1)"
        d="M52.99 30.75L10.5 7.42V54.06L52.99 30.75z"
        transform="matrix(1.06,0,0,0.6115,-0.4819,1.9242)"
  />
 </g>
</svg>
