<?xml version="1.0" encoding="UTF-8" standalone="yes"?>
<svg version="1.1" width="64" height="64" color-interpolation="linearRGB"
     xmlns:svg="http://www.w3.org/2000/svg" xmlns="http://www.w3.org/2000/svg">
 <g>
  <path style="fill:none; stroke:#010101; stroke-opacity:0.4705; stroke-width:4; stroke-linejoin:round"
        d="M29 26C26 23 23 23 19 23C15 23 8 25 8 25C8 25 12 16 18 16C24 16 25 19 29 26z
           M29 26C40 16 48 24 47 36C39 33 34 27 29 26z
           M29 26C31 23 34 21 37 17C40 13 38 8 38 8C36 11 31 11 29 14C27 17 28 22 29 26z
           M29 26C25 26 21 31 23 36C29 34 32 30 29 26z"
        transform="matrix(1.3221,0,0,1.3254,-3.9401,8.6436)"
  />
  <path style="fill:none; stroke:#010101; stroke-width:4; stroke-linejoin:round"
        d="M29 26C26 23 23 23 19 23C15 23 8 25 8 25C8 25 12 16 18 16C24 16 25 19 29 26z
           M29 26C40 16 48 24 47 36C39 33 34 27 29 26z
           M29 26C31 23 34 21 37 17C40 13 38 8 38 8C36 11 31 11 29 14C27 17 28 22 29 26z
           M29 26C25 26 21 31 23 36C29 34 32 30 29 26z"
        transform="matrix(1.3221,0,0,1.3254,-6.9401,5.6436)"
  />
  <radialGradient id="gradient0" gradientUnits="userSpaceOnUse" cx="0" cy="0" r="64" gradientTransform="matrix(0.2351,0.1404,-0.0741,0.1242,30.1597,27.0328)">
   <stop offset="0" stop-color="#2d593d"/>
   <stop offset="1" stop-color="#43bf75"/>
  </radialGradient>
  <path style="fill:url(#gradient0)"
        d="M29 26C26 23 23 23 19 23C15 23 8 25 8 25C8 25 12 16 18 16C24 16 25 19 29 26z
           M29 26C40 16 48 24 47 36C39 33 34 27 29 26z
           M29 26C31 23 34 21 37 17C40 13 38 8 38 8C36 11 31 11 29 14C27 17 28 22 29 26z
           M29 26C25 26 21 31 23 36C29 34 32 30 29 26z"
        transform="matrix(1.3221,0,0,1.3254,-6.9401,5.6436)"
  />
  <path style="fill:none; stroke:#010101; stroke-width:2"
        d="M20 11C20 11 27 18 29 25C37 25 44 22 44 22"
        transform="matrix(1.3221,0,0,1.3254,-6.9401,5.6436)"
  />
  <path style="fill:none; stroke:#010101; stroke-width:3.9999; stroke-linejoin:round"
        d="M45.7 20.06L50.63 18.77L46.57 21.86C46.57 21.86 51.45 25.04 47.85 26.79C44.26 28.54 41.58 27.61 39.84 24.01C38.09 20.42 39.01 17.74 42.61 16C46.21 14.25 45.7 20.06 45.7 20.06z"
        transform="matrix(1.3221,0,0,1.3254,-6.9401,5.6436)"
  />
  <path style="fill:none; stroke:#010101; stroke-width:3.9997; stroke-linejoin:round"
        d="M16.6 7.75L14.55 3.08L18.24 6.6C18.24 6.6 20.61 1.28 22.9 4.55C25.2 7.83 24.71 10.61 21.44 12.91C18.16 15.21 15.38 14.72 13.08 11.44C10.78 8.17 16.6 7.75 16.6 7.75z"
        transform="matrix(1.3221,0,0,1.3254,-6.9401,5.6436)"
  />
  <radialGradient id="gradient1" gradientUnits="userSpaceOnUse" cx="0" cy="0" r="64" gradientTransform="matrix(0.0511,-0.0358,0.0806,0.115,16.2749,5.5454)">
   <stop offset="0" stop-color="#fff159"/>
   <stop offset="0.8266" stop-color="#ff0606"/>
   <stop offset="1" stop-color="#d80505"/>
  </radialGradient>
  <path style="fill:url(#gradient1)"
        d="M16.6 7.75L14.55 3.08L18.24 6.6C18.24 6.6 20.61 1.28 22.9 4.55C25.2 7.83 24.71 10.61 21.44 12.91C18.16 15.21 15.38 14.72 13.08 11.44C10.78 8.17 16.6 7.75 16.6 7.75z"
        transform="matrix(1.3221,0,0,1.3254,-6.9401,5.6436)"
  />
  <radialGradient id="gradient2" gradientUnits="userSpaceOnUse" cx="0" cy="0" r="64" gradientTransform="matrix(0.0273,0.0562,-0.1263,0.0613,47.9369,20.0877)">
   <stop offset="0" stop-color="#fff159"/>
   <stop offset="0.8266" stop-color="#ff0606"/>
   <stop offset="1" stop-color="#d80505"/>
  </radialGradient>
  <path style="fill:url(#gradient2)"
        d="M45.7 20.06L50.63 18.77L46.57 21.86C46.57 21.86 51.45 25.04 47.85 26.79C44.26 28.54 41.58 27.61 39.84 24.01C38.09 20.42 39.01 17.74 42.61 16C46.21 14.25 45.7 20.06 45.7 20.06z"
        transform="matrix(1.3221,0,0,1.3254,-6.9401,5.6436)"
  />
 </g>
</svg>
