<?xml version="1.0" encoding="UTF-8" standalone="yes"?>
<svg version="1.1" width="64" height="64" color-interpolation="linearRGB"
     xmlns:svg="http://www.w3.org/2000/svg" xmlns="http://www.w3.org/2000/svg">
 <g>
  <path style="fill:none; stroke:#010101; stroke-opacity:0.4705; stroke-width:5.295; stroke-linejoin:round"
        d="M34.4 43.1C30.43 39.12 26.46 39.12 21.17 39.12C15.89 39.12 6.63 41.77 6.63 41.77C6.63 41.77 11.92 29.85 19.85 29.85C27.79 29.85 29.11 33.82 34.4 43.1z
           M34.4 43.1C48.94 29.85 59.52 40.45 58.19 56.35C47.62 52.38 41.01 44.42 34.4 43.1z
           M34.4 43.1C37.04 39.12 41.01 36.47 44.97 31.17C48.94 25.87 46.29 19.24 46.29 19.24C43.65 23.22 37.04 23.22 34.4 27.19C31.75 31.17 33.07 37.8 34.4 43.1z
           M34.4 43.1C29.11 43.1 23.82 49.73 26.46 56.35C34.4 53.7 38.36 48.4 34.4 43.1z"
        transform="matrix(0.9025,0,0,0.9421,3.0992,1.413)"
  />
  <path style="fill:none; stroke:#010101; stroke-width:5.295; stroke-linejoin:round"
        d="M31.4 40.1C27.43 36.12 23.46 36.12 18.17 36.12C12.89 36.12 3.63 38.77 3.63 38.77C3.63 38.77 8.92 26.85 16.85 26.85C24.79 26.85 26.11 30.82 31.4 40.1z
           M31.4 40.1C45.94 26.85 56.52 37.45 55.19 53.35C44.62 49.38 38.01 41.42 31.4 40.1z
           M31.4 40.1C34.04 36.12 38.01 33.47 41.97 28.17C45.94 22.87 43.29 16.24 43.29 16.24C40.65 20.22 34.04 20.22 31.4 24.19C28.75 28.17 30.07 34.8 31.4 40.1z
           M31.4 40.1C26.11 40.1 20.82 46.73 23.46 53.35C31.4 50.7 35.36 45.4 31.4 40.1z"
        transform="matrix(0.9025,0,0,0.9421,3.0992,1.413)"
  />
  <radialGradient id="gradient0" gradientUnits="userSpaceOnUse" cx="0" cy="0" r="64" gradientTransform="matrix(0.3108,0.186,-0.0979,0.1646,32.934,41.4728)">
   <stop offset="0" stop-color="#2d593d"/>
   <stop offset="1" stop-color="#43bf75"/>
  </radialGradient>
  <path style="fill:url(#gradient0)"
        d="M31.4 40.1C27.43 36.12 23.46 36.12 18.17 36.12C12.89 36.12 3.63 38.77 3.63 38.77C3.63 38.77 8.92 26.85 16.85 26.85C24.79 26.85 26.11 30.82 31.4 40.1z
           M31.4 40.1C45.94 26.85 56.52 37.45 55.19 53.35C44.62 49.38 38.01 41.42 31.4 40.1z
           M31.4 40.1C34.04 36.12 38.01 33.47 41.97 28.17C45.94 22.87 43.29 16.24 43.29 16.24C40.65 20.22 34.04 20.22 31.4 24.19C28.75 28.17 30.07 34.8 31.4 40.1z
           M31.4 40.1C26.11 40.1 20.82 46.73 23.46 53.35C31.4 50.7 35.36 45.4 31.4 40.1z"
        transform="matrix(0.9025,0,0,0.9421,3.0992,1.413)"
  />
  <path style="fill:none; stroke:#010101; stroke-width:2.6475"
        d="M19.5 20.22C19.5 20.22 28.75 29.5 31.4 38.77C41.97 38.77 51.23 34.8 51.23 34.8"
        transform="matrix(0.9025,0,0,0.9421,3.0992,1.413)"
  />
  <path style="fill:none; stroke:#010101; stroke-width:5.2948; stroke-linejoin:round"
        d="M53.47 32.23L59.99 30.52L54.63 34.61C54.63 34.61 61.08 38.83 56.32 41.15C51.57 43.47 48.03 42.23 45.73 37.46C43.41 32.7 44.63 29.15 49.39 26.85C54.15 24.53 53.47 32.23 53.47 32.23z"
        transform="matrix(0.9025,0,0,0.9421,3.0992,1.413)"
  />
  <path style="fill:none; stroke:#010101; stroke-width:5.2946; stroke-linejoin:round"
        d="M15 15.91L12.29 9.72L17.17 14.39C17.17 14.39 20.3 7.34 23.33 11.67C26.37 16.02 25.72 19.7 21.4 22.75C17.06 25.8 13.39 25.15 10.35 20.8C7.31 16.47 15 15.91 15 15.91z"
        transform="matrix(0.9025,0,0,0.9421,3.0992,1.413)"
  />
  <radialGradient id="gradient1" gradientUnits="userSpaceOnUse" cx="0" cy="0" r="64" gradientTransform="matrix(0.0675,-0.0474,0.1065,0.1524,14.5769,12.9934)">
   <stop offset="0" stop-color="#fff159"/>
   <stop offset="0.8266" stop-color="#ff0606"/>
   <stop offset="1" stop-color="#d80505"/>
  </radialGradient>
  <path style="fill:url(#gradient1)"
        d="M15 15.91L12.29 9.72L17.17 14.39C17.17 14.39 20.3 7.34 23.33 11.67C26.37 16.02 25.72 19.7 21.4 22.75C17.06 25.8 13.39 25.15 10.35 20.8C7.31 16.47 15 15.91 15 15.91z"
        transform="matrix(0.9025,0,0,0.9421,3.0992,1.413)"
  />
  <radialGradient id="gradient2" gradientUnits="userSpaceOnUse" cx="0" cy="0" r="64" gradientTransform="matrix(0.036,0.0744,-0.1669,0.0812,56.4372,32.2678)">
   <stop offset="0" stop-color="#fff159"/>
   <stop offset="0.8266" stop-color="#ff0606"/>
   <stop offset="1" stop-color="#d80505"/>
  </radialGradient>
  <path style="fill:url(#gradient2)"
        d="M53.47 32.23L59.99 30.52L54.63 34.61C54.63 34.61 61.08 38.83 56.32 41.15C51.57 43.47 48.03 42.23 45.73 37.46C43.41 32.7 44.63 29.15 49.39 26.85C54.15 24.53 53.47 32.23 53.47 32.23z"
        transform="matrix(0.9025,0,0,0.9421,3.0992,1.413)"
  />
 </g>
</svg>
