<?xml version="1.0" encoding="UTF-8" standalone="yes"?>
<svg version="1.1" width="64" height="64" color-interpolation="linearRGB"
     xmlns:svg="http://www.w3.org/2000/svg" xmlns="http://www.w3.org/2000/svg">
 <g>
  <path style="fill:none; stroke:#000000; stroke-opacity:0.4; stroke-width:5.0001; stroke-linecap:round; stroke-linejoin:round"
        d="M12.48 54.48H54.99L52.49 11.99H42.49L39.99 16.99H14.99L12.48 54.48z
           M12.47 54.48L9.97 29.48H57.49L54.99 54.48H12.47z"
  />
  <path style="fill:none; stroke:#bf5000; stroke-width:5.0001; stroke-linecap:round; stroke-linejoin:round"
        d="M9.99 51.98H52.49L49.99 9.49H39.99L37.49 14.49H12.48L9.99 51.98z"
  />
  <path style="fill:#ffc800"
        d="M9.99 51.98H52.49L49.99 9.49H39.99L37.49 14.49H12.48L9.99 51.98z"
  />
  <path style="fill:none; stroke:#bf5000; stroke-width:5.0001; stroke-linecap:round; stroke-linejoin:round"
        d="M9.97 51.98L7.47 26.98H54.99L52.49 51.98H9.97z"
  />
  <linearGradient id="gradient0" gradientUnits="userSpaceOnUse" x1="165" y1="29.48" x2="165" y2="54.48">
   <stop offset="0" stop-color="#ffea80"/>
   <stop offset="1" stop-color="#ffbb00"/>
  </linearGradient>
  <path style="fill:url(#gradient0)"
        d="M9.97 51.98L7.47 26.98H54.99L52.49 51.98H9.97z"
  />
  <path style="fill:none; stroke:#000000; stroke-opacity:0.4; stroke-width:4; stroke-linecap:round; stroke-linejoin:round"
        d="M23 4C12.5 4 4 12.5 4 23C4 33.48 12.5 42 23 42C33.48 42 42 33.48 42 23C42 12.5 33.48 4 23 4z"
        transform="matrix(0.5681,0,0,0.5909,37.9998,37.9998)"
  />
  <path style="fill:none; stroke:#004080; stroke-width:8; stroke-linecap:round; stroke-linejoin:round"
        d="M21 2C10.5 2 2 10.5 2 21C2 31.48 10.5 40 21 40C31.48 40 40 31.48 40 21C40 10.5 31.48 2 21 2z"
        transform="matrix(0.5681,0,0,0.5909,37.9998,36.9998)"
  />
  <linearGradient id="gradient1" gradientUnits="userSpaceOnUse" x1="128" y1="1.99" x2="128" y2="40">
   <stop offset="0" stop-color="#abd5ff"/>
   <stop offset="1" stop-color="#006cd9"/>
  </linearGradient>
  <path style="fill:url(#gradient1)"
        d="M21 2C10.5 2 2 10.5 2 21C2 31.48 10.5 40 21 40C31.48 40 40 31.48 40 21C40 10.5 31.48 2 21 2z"
        transform="matrix(0.5681,0,0,0.5909,37.9998,36.9998)"
  />
  <path style="fill:#ffffff"
        d="M34 16L25 15L21 6L17 15L9 16L14 23L13 32L21 28L29 32L28 23L34 16z"
        transform="matrix(0.5681,0,0,0.5909,37.9998,36.9998)"
  />
 </g>
</svg>
