<?xml version="1.0" encoding="UTF-8" standalone="yes"?>
<svg version="1.1" width="64" height="64" color-interpolation="linearRGB"
     xmlns:svg="http://www.w3.org/2000/svg" xmlns="http://www.w3.org/2000/svg">
 <g>
  <path style="fill:none; stroke:#000000; stroke-opacity:0.4; stroke-width:2.9807"
        d="M61.99 35.57H53.56C49.66 35.57 46.54 39.05 46.54 43.42V46.57C46.54 50.9 49.66 54.42 53.56 54.42H61.99
           M21.26 35.57V54.42H14.23C10.34 54.42 7.21 50.9 7.21 46.57V43.42C7.21 39.05 10.34 35.57 14.23 35.57H21.26z
           M26.87 15.14V54.42H33.9C37.78 54.42 40.92 50.9 40.92 46.57V43.42C40.92 39.05 37.78 35.57 33.9 35.57H26.87"
        transform="matrix(0.983,0,0,1,1.0493,0)"
  />
  <path style="fill:none; stroke:#000000; stroke-width:2.9807"
        d="M59.18 32.42H50.75C46.85 32.42 43.73 35.91 43.73 40.28V43.42C43.73 47.76 46.85 51.28 50.75 51.28H59.18
           M18.45 32.42V51.28H11.42C7.53 51.28 4.4 47.76 4.4 43.42V40.28C4.4 35.91 7.53 32.42 11.42 32.42H18.45z
           M24.07 12V51.28H31.09C34.97 51.28 38.11 47.76 38.11 43.42V40.28C38.11 35.91 34.97 32.42 31.09 32.42H24.07"
        transform="matrix(0.983,0,0,1,1.0493,0)"
  />
  <path style="fill:none; stroke:#000000; stroke-opacity:0.4; stroke-width:4; stroke-linejoin:round"
        d="M44 7H60L52 15L44 7z"
  />
  <path style="fill:none; stroke:#005900; stroke-width:4; stroke-linejoin:round"
        d="M42 5H58L50 13L42 5z"
  />
  <linearGradient id="gradient0" gradientUnits="userSpaceOnUse" x1="158" y1="5" x2="158" y2="13">
   <stop offset="0" stop-color="#80ff80"/>
   <stop offset="1" stop-color="#00b200"/>
  </linearGradient>
  <path style="fill:url(#gradient0)"
        d="M42 5H58L50 13L42 5z"
  />
 </g>
</svg>
