<?xml version="1.0" encoding="UTF-8" standalone="yes"?>
<svg version="1.1" width="64" height="64" color-interpolation="linearRGB"
     xmlns:svg="http://www.w3.org/2000/svg" xmlns="http://www.w3.org/2000/svg">
 <g>
  <path style="fill:#000000; fill-opacity:0.4235"
        d="M27.97 10.76C27.97 10.76 13.6 10.76 13.6 26.62C16.47 20.29 19.35 17.11 27.95 17.11C27.92 51.84 19.36 54.22 19.36 59.77C23.67 63.43 30.4 61.4 30.9 54.22C31.84 41.85 32.77 29.47 33.7 17.11C37.52 17.11 41.34 17.11 45.16 17.11C44.23 29.54 43.29 41.98 42.36 54.41C42.36 63.93 53.84 63.93 56.72 54.41C57.68 51.24 58.65 48.06 59.61 44.88C56.72 51.24 48.09 60.77 48.36 51.08C49.21 39.75 50.06 28.43 50.91 17.11C53.81 17.11 56.71 17.11 59.61 17.11C59.61 14.99 59.61 12.87 59.61 10.76C49.06 10.76 38.52 10.76 27.97 10.76V10.76V10.76z
           M27.97 10.76C27.97 10.76 13.6 10.76 13.6 26.62C16.47 20.29 19.35 17.11 27.95 17.11C27.92 51.84 19.36 54.22 19.36 59.77C23.67 63.43 30.4 61.4 30.9 54.22C31.84 41.85 32.77 29.47 33.7 17.11C37.52 17.11 41.34 17.11 45.16 17.11C44.23 29.54 43.29 41.98 42.36 54.41C42.36 63.93 53.84 63.93 56.72 54.41C57.68 51.24 58.65 48.06 59.61 44.88C56.72 51.24 48.09 60.77 48.36 51.08C49.21 39.75 50.06 28.43 50.91 17.11C53.81 17.11 56.71 17.11 59.61 17.11C59.61 14.99 59.61 12.87 59.61 10.76C49.06 10.76 38.52 10.76 27.97 10.76V10.76V10.76z"
        transform="matrix(0.9634,0,0,0.9652,1.1768,1.1389)"
  />
  <path style="fill:none; stroke:#000080; stroke-width:5.517; stroke-linecap:round; stroke-linejoin:round"
        d="M21.97 6.76C21.97 6.76 7.59 6.76 7.59 22.62C10.47 16.29 13.35 13.1 21.95 13.1C21.92 47.84 13.35 50.22 13.35 55.77C17.67 59.43 24.4 57.4 24.9 50.22C25.84 37.85 26.77 25.47 27.7 13.1C31.52 13.1 35.34 13.1 39.16 13.1C38.23 25.54 37.29 37.98 36.36 50.41C36.36 59.93 47.84 59.93 50.72 50.41C51.68 47.24 52.65 44.06 53.61 40.88C50.72 47.24 42.09 56.77 42.36 47.08C43.21 35.75 44.06 24.43 44.91 13.1C47.81 13.1 50.71 13.1 53.61 13.1C53.61 10.99 53.61 8.87 53.61 6.76C43.06 6.76 32.52 6.76 21.97 6.76V6.76V6.76z"
        transform="matrix(0.9634,0,0,0.9652,1.1768,1.1389)"
  />
  <linearGradient id="gradient0" gradientUnits="userSpaceOnUse" x1="128" y1="6" x2="128" y2="40">
   <stop offset="0" stop-color="#ffffff"/>
   <stop offset="0.998" stop-color="#d9d9ff"/>
  </linearGradient>
  <path style="fill:url(#gradient0)"
        d="M21.97 6.76C21.97 6.76 7.59 6.76 7.59 22.62C10.47 16.29 13.35 13.1 21.95 13.1C21.92 47.84 13.35 50.22 13.35 55.77C17.67 59.43 24.4 57.4 24.9 50.22C25.84 37.85 26.77 25.47 27.7 13.1C31.52 13.1 35.34 13.1 39.16 13.1C38.23 25.54 37.29 37.98 36.36 50.41C36.36 59.93 47.84 59.93 50.72 50.41C51.68 47.24 52.65 44.06 53.61 40.88C50.72 47.24 42.09 56.77 42.36 47.08C43.21 35.75 44.06 24.43 44.91 13.1C47.81 13.1 50.71 13.1 53.61 13.1C53.61 10.99 53.61 8.87 53.61 6.76C43.06 6.76 32.52 6.76 21.97 6.76V6.76V6.76z"
        transform="matrix(0.9634,0,0,0.9652,1.1768,1.1389)"
  />
 </g>
</svg>
