<?xml version="1.0" encoding="UTF-8" standalone="yes"?>
<svg version="1.1" width="64" height="64" color-interpolation="linearRGB"
     xmlns:svg="http://www.w3.org/2000/svg" xmlns="http://www.w3.org/2000/svg">
 <g>
  <path style="fill:none; stroke:#003f80; stroke-width:4; stroke-linecap:round; stroke-linejoin:round"
        d="M34.9 35.52C38.63 36.82 41.65 38.53 41.59 41.52C41.47 45.58 38.29 47 34.9 47.48C34.9 43.5 34.9 39.51 34.9 35.52V35.52V35.52z
           M29.09 33.78C29.62 33.92 30.05 34.05 30.6 34.19C31.07 34.32 31.53 34.47 32 34.61C32 38.96 32 43.32 32 47.68C31.56 47.69 31.09 47.73 30.68 47.73C30.13 47.72 29.62 47.69 29.09 47.67C29.09 43.04 29.09 38.41 29.09 33.78V33.78V33.78z
           M26.18 16.75C26.18 20.63 26.18 24.5 26.18 28.38C22.61 27.11 19.32 25.2 19.42 22.01C19.24 18.98 22.34 17.38 26.18 16.75V16.75V16.75z
           M30.36 16.43C30.8 16.43 31.41 16.45 32 16.48C32 21.04 32 25.6 32 30.15C31.54 30 31.25 29.88 30.77 29.72C30.25 29.59 29.65 29.41 29.09 29.26C29.09 24.99 29.09 20.73 29.09 16.47C29.51 16.45 29.93 16.43 30.36 16.43V16.43V16.43z
           M26.18 5.81C26.18 7.88 26.18 9.95 26.18 12.01C23.33 12.42 20.91 13.17 19.01 14.34C16.07 16.13 14.6 18.87 14.6 22.57C14.59 28.96 19.13 31.07 26.18 33C26.18 37.84 26.18 42.68 26.18 47.52C22.77 47.23 19.65 46.59 16.35 45.18C15.75 46.5 15.14 47.81 14.54 49.13C16.18 50 18.4 50.76 21.2 51.41C22.78 51.77 24.43 51.99 26.18 52.15C26.18 54.16 26.18 56.17 26.18 58.18C27.15 58.18 28.12 58.18 29.09 58.18C29.09 56.21 29.09 54.25 29.09 52.29C29.58 52.3 30 52.36 30.52 52.36C31 52.35 31.5 52.31 32 52.29C32 54.25 32 56.21 32 58.18C32.96 58.18 33.93 58.18 34.9 58.18C34.9 56.12 34.9 54.07 34.9 52.01C40.71 51.18 46.48 48.51 46.42 41.28C46.22 35.96 42.92 33.99 34.9 31.17C34.9 26.37 34.9 21.57 34.9 16.76C37.53 17.11 40.73 17.85 44.28 19.62C45.04 18.12 45.79 16.63 46.54 15.13C44.94 14.27 41.21 12.9 38.84 12.39C37.58 12.12 36.26 11.94 34.9 11.81C34.9 9.81 34.9 7.81 34.9 5.81C33.93 5.81 32.96 5.81 32 5.81C32 7.77 32 9.72 32 11.67C31.73 11.67 31.48 11.63 31.21 11.63C30.46 11.63 29.79 11.69 29.09 11.73C29.09 9.76 29.09 7.78 29.09 5.81C28.12 5.81 27.15 5.81 26.18 5.81V5.81V5.81z"
  />
  <path style="fill:none; stroke:#010101; stroke-opacity:0.4; stroke-width:4; stroke-linecap:round; stroke-linejoin:round"
        d="M34.9 35.52C38.63 36.82 41.65 38.53 41.59 41.52C41.47 45.58 38.29 47 34.9 47.48C34.9 43.5 34.9 39.51 34.9 35.52V35.52V35.52z
           M29.09 33.78C29.62 33.92 30.05 34.05 30.6 34.19C31.07 34.32 31.53 34.47 32 34.61C32 38.96 32 43.32 32 47.68C31.56 47.69 31.09 47.73 30.68 47.73C30.13 47.72 29.62 47.69 29.09 47.67C29.09 43.04 29.09 38.41 29.09 33.78V33.78V33.78z
           M26.18 16.75C26.18 20.63 26.18 24.5 26.18 28.38C22.61 27.11 19.32 25.2 19.42 22.01C19.24 18.98 22.34 17.38 26.18 16.75V16.75V16.75z
           M30.36 16.43C30.8 16.43 31.41 16.45 32 16.48C32 21.04 32 25.6 32 30.15C31.54 30 31.25 29.88 30.77 29.72C30.25 29.59 29.65 29.41 29.09 29.26C29.09 24.99 29.09 20.73 29.09 16.47C29.51 16.45 29.93 16.43 30.36 16.43V16.43V16.43z
           M26.18 5.81C26.18 7.88 26.18 9.95 26.18 12.01C23.33 12.42 20.91 13.17 19.01 14.34C16.07 16.13 14.6 18.87 14.6 22.57C14.59 28.96 19.13 31.07 26.18 33C26.18 37.84 26.18 42.68 26.18 47.52C22.77 47.23 19.65 46.59 16.35 45.18C15.75 46.5 15.14 47.81 14.54 49.13C16.18 50 18.4 50.76 21.2 51.41C22.78 51.77 24.43 51.99 26.18 52.15C26.18 54.16 26.18 56.17 26.18 58.18C27.15 58.18 28.12 58.18 29.09 58.18C29.09 56.21 29.09 54.25 29.09 52.29C29.58 52.3 30 52.36 30.52 52.36C31 52.35 31.5 52.31 32 52.29C32 54.25 32 56.21 32 58.18C32.96 58.18 33.93 58.18 34.9 58.18C34.9 56.12 34.9 54.07 34.9 52.01C40.71 51.18 46.48 48.51 46.42 41.28C46.22 35.96 42.92 33.99 34.9 31.17C34.9 26.37 34.9 21.57 34.9 16.76C37.53 17.11 40.73 17.85 44.28 19.62C45.04 18.12 45.79 16.63 46.54 15.13C44.94 14.27 41.21 12.9 38.84 12.39C37.58 12.12 36.26 11.94 34.9 11.81C34.9 9.81 34.9 7.81 34.9 5.81C33.93 5.81 32.96 5.81 32 5.81C32 7.77 32 9.72 32 11.67C31.73 11.67 31.48 11.63 31.21 11.63C30.46 11.63 29.79 11.69 29.09 11.73C29.09 9.76 29.09 7.78 29.09 5.81C28.12 5.81 27.15 5.81 26.18 5.81V5.81V5.81z"
        transform="matrix(1,0,0,1,2,2)"
  />
  <linearGradient id="gradient0" gradientUnits="userSpaceOnUse" x1="180.89" y1="6.53" x2="180.89" y2="54.88">
   <stop offset="0" stop-color="#abd5ff"/>
   <stop offset="1" stop-color="#006cd9"/>
  </linearGradient>
  <path style="fill:url(#gradient0)"
        d="M34.9 35.52C38.63 36.82 41.65 38.53 41.59 41.52C41.47 45.58 38.29 47 34.9 47.48C34.9 43.5 34.9 39.51 34.9 35.52V35.52V35.52z
           M29.09 33.78C29.62 33.92 30.05 34.05 30.6 34.19C31.07 34.32 31.53 34.47 32 34.61C32 38.96 32 43.32 32 47.68C31.56 47.69 31.09 47.73 30.68 47.73C30.13 47.72 29.62 47.69 29.09 47.67C29.09 43.04 29.09 38.41 29.09 33.78V33.78V33.78z
           M26.18 16.75C26.18 20.63 26.18 24.5 26.18 28.38C22.61 27.11 19.32 25.2 19.42 22.01C19.24 18.98 22.34 17.38 26.18 16.75V16.75V16.75z
           M30.36 16.43C30.8 16.43 31.41 16.45 32 16.48C32 21.04 32 25.6 32 30.15C31.54 30 31.25 29.88 30.77 29.72C30.25 29.59 29.65 29.41 29.09 29.26C29.09 24.99 29.09 20.73 29.09 16.47C29.51 16.45 29.93 16.43 30.36 16.43V16.43V16.43z
           M26.18 5.81C26.18 7.88 26.18 9.95 26.18 12.01C23.33 12.42 20.91 13.17 19.01 14.34C16.07 16.13 14.6 18.87 14.6 22.57C14.59 28.96 19.13 31.07 26.18 33C26.18 37.84 26.18 42.68 26.18 47.52C22.77 47.23 19.65 46.59 16.35 45.18C15.75 46.5 15.14 47.81 14.54 49.13C16.18 50 18.4 50.76 21.2 51.41C22.78 51.77 24.43 51.99 26.18 52.15C26.18 54.16 26.18 56.17 26.18 58.18C27.15 58.18 28.12 58.18 29.09 58.18C29.09 56.21 29.09 54.25 29.09 52.29C29.58 52.3 30 52.36 30.52 52.36C31 52.35 31.5 52.31 32 52.29C32 54.25 32 56.21 32 58.18C32.96 58.18 33.93 58.18 34.9 58.18C34.9 56.12 34.9 54.07 34.9 52.01C40.71 51.18 46.48 48.51 46.42 41.28C46.22 35.96 42.92 33.99 34.9 31.17C34.9 26.37 34.9 21.57 34.9 16.76C37.53 17.11 40.73 17.85 44.28 19.62C45.04 18.12 45.79 16.63 46.54 15.13C44.94 14.27 41.21 12.9 38.84 12.39C37.58 12.12 36.26 11.94 34.9 11.81C34.9 9.81 34.9 7.81 34.9 5.81C33.93 5.81 32.96 5.81 32 5.81C32 7.77 32 9.72 32 11.67C31.73 11.67 31.48 11.63 31.21 11.63C30.46 11.63 29.79 11.69 29.09 11.73C29.09 9.76 29.09 7.78 29.09 5.81C28.12 5.81 27.15 5.81 26.18 5.81V5.81V5.81z"
  />
 </g>
</svg>
