<?xml version="1.0" encoding="UTF-8" standalone="yes"?>
<svg version="1.1" width="64" height="64" color-interpolation="linearRGB"
     xmlns:svg="http://www.w3.org/2000/svg" xmlns="http://www.w3.org/2000/svg">
 <g>
  <path style="fill:none; stroke:#000000; stroke-opacity:0.4; stroke-width:11.2832; stroke-linecap:round; stroke-linejoin:round"
        d="M15.05 43.25L33.4 9.42L51.75 43.25L44.69 33.38H22.12
           M9.42 57.35H57.39"
        transform="matrix(0.8711,0,0,0.871,4.1238,4.1238)"
  />
  <path style="fill:none; stroke:#545454; stroke-width:11.2832; stroke-linecap:round; stroke-linejoin:round"
        d="M12.23 40.43L30.58 6.6L48.92 40.43L41.87 30.57H19.3
           M6.6 54.53H54.57"
        transform="matrix(0.8711,0,0,0.871,4.1238,4.1238)"
  />
  <linearGradient id="gradient0" gradientUnits="userSpaceOnUse" x1="181.55" y1="3.76" x2="181.55" y2="57.35">
   <stop offset="0" stop-color="#ffffff"/>
   <stop offset="1" stop-color="#e5e5e5"/>
  </linearGradient>
  <path style="fill:none; stroke:url(#gradient0); stroke-width:5.6416; stroke-linecap:round; stroke-linejoin:round"
        d="M12.23 40.43L30.58 6.6L48.92 40.43L41.87 30.57H19.3
           M6.6 54.53H54.57"
        transform="matrix(0.8711,0,0,0.871,4.1238,4.1238)"
  />
 </g>
</svg>
