<?xml version="1.0" encoding="UTF-8" standalone="yes"?>
<svg version="1.1" width="64" height="64" color-interpolation="linearRGB"
     xmlns:svg="http://www.w3.org/2000/svg" xmlns="http://www.w3.org/2000/svg">
 <g>
  <path style="fill:none; stroke:#000000; stroke-width:8"
        d="M29.09 16.68C29.09 16.68 10.9 16.68 10.9 44.48C14.54 33.37 18.17 27.81 29.05 27.8C29.01 88.61 18.19 92.81 18.18 102.51C23.63 108.92 32.16 105.37 32.79 92.78L36.34 27.8H50.83L47.27 93.13C47.27 109.81 61.81 109.81 65.45 93.13L69.09 76.45C65.45 87.57 54.54 104.25 54.86 87.28L58.1 27.8H69.09V16.68H29.09z"
        transform="matrix(0.7906,0,0,0.5711,-1.0116,-2.7638)"
  />
  <linearGradient id="gradient0" gradientUnits="userSpaceOnUse" x1="128" y1="4" x2="128" y2="40">
   <stop offset="0" stop-color="#808080"/>
   <stop offset="1" stop-color="#545454"/>
  </linearGradient>
  <path style="fill:url(#gradient0)"
        d="M29.09 16.68C29.09 16.68 10.9 16.68 10.9 44.48C14.54 33.37 18.17 27.81 29.05 27.8C29.01 88.61 18.19 92.81 18.18 102.51C23.63 108.92 32.16 105.37 32.79 92.78L36.34 27.8H50.83L47.27 93.13C47.27 109.81 61.81 109.81 65.45 93.13L69.09 76.45C65.45 87.57 54.54 104.25 54.86 87.28L58.1 27.8H69.09V16.68H29.09z"
        transform="matrix(0.7906,0,0,0.5711,-1.0116,-2.7638)"
  />
 </g>
</svg>
