<?xml version="1.0" encoding="UTF-8" standalone="yes"?>
<svg version="1.1" width="64" height="64" color-interpolation="linearRGB"
     xmlns:svg="http://www.w3.org/2000/svg" xmlns="http://www.w3.org/2000/svg">
 <g>
  <path style="fill:none; stroke:#000000; stroke-opacity:0.4; stroke-width:11.6467; stroke-linecap:round; stroke-linejoin:round"
        d="M43.99 48.91H22.99
           M43.99 9.43L33.49 17.89L22.99 9.43
           M16.99 57.37L33.49 29.17L49.99 57.37"
        transform="matrix(0.8106,0,0,0.8716,6.5576,4.1054)"
  />
  <path style="fill:none; stroke:#545454; stroke-width:11.6467; stroke-linecap:round; stroke-linejoin:round"
        d="M40.99 46.09H19.99
           M40.99 6.61L30.49 15.07L19.99 6.61
           M13.99 54.55L30.49 26.35L46.99 54.55"
        transform="matrix(0.8106,0,0,0.8716,6.5576,4.1054)"
  />
  <linearGradient id="gradient0" gradientUnits="userSpaceOnUse" x1="189.5" y1="3.77" x2="189.5" y2="17.89">
   <stop offset="0" stop-color="#ffffff"/>
   <stop offset="1" stop-color="#e5e5e5"/>
  </linearGradient>
  <path style="fill:none; stroke:url(#gradient0); stroke-width:5.8233; stroke-linecap:round; stroke-linejoin:round"
        d="M40.99 6.61L30.49 15.07L19.99 6.61"
        transform="matrix(0.8106,0,0,0.8716,6.5576,4.1054)"
  />
  <linearGradient id="gradient1" gradientUnits="userSpaceOnUse" x1="191" y1="23.53" x2="191" y2="57.37">
   <stop offset="0" stop-color="#ffffff"/>
   <stop offset="1" stop-color="#e5e5e5"/>
  </linearGradient>
  <path style="fill:none; stroke:url(#gradient1); stroke-width:5.8233; stroke-linecap:round; stroke-linejoin:round"
        d="M40.99 46.09H19.99
           M13.99 54.55L30.49 26.35L46.99 54.55"
        transform="matrix(0.8106,0,0,0.8716,6.5576,4.1054)"
  />
 </g>
</svg>
