<?xml version="1.0" encoding="UTF-8" standalone="yes"?>
<svg version="1.1" width="64" height="64" color-interpolation="linearRGB"
     xmlns:svg="http://www.w3.org/2000/svg" xmlns="http://www.w3.org/2000/svg">
 <g>
  <path style="fill:none; stroke:#000000; stroke-opacity:0.4; stroke-width:4; stroke-linecap:round; stroke-linejoin:round"
        d="M4 6H42"
        transform="matrix(1.4109,0,0,1.4761,0.9597,-1.9523)"
  />
  <path style="fill:none; stroke:#000000; stroke-width:4; stroke-linecap:round; stroke-linejoin:round"
        d="M2 4H40"
        transform="matrix(1.4109,0,0,1.4761,0.9597,-1.9523)"
  />
  <path style="fill:none; stroke:#000000; stroke-opacity:0.4; stroke-width:4; stroke-linecap:round; stroke-linejoin:round"
        d="M4 18H42"
        transform="matrix(1.4109,0,0,1.4761,0.9597,-1.9523)"
  />
  <path style="fill:none; stroke:#000000; stroke-width:4; stroke-linecap:round; stroke-linejoin:round"
        d="M2 16H40"
        transform="matrix(1.4109,0,0,1.4761,0.9597,-1.9523)"
  />
  <path style="fill:none; stroke:#000000; stroke-opacity:0.4; stroke-width:4; stroke-linecap:round; stroke-linejoin:round"
        d="M4 30H42"
        transform="matrix(1.4109,0,0,1.4761,0.9597,-1.9523)"
  />
  <path style="fill:none; stroke:#000000; stroke-width:4; stroke-linecap:round; stroke-linejoin:round"
        d="M2 28H40"
        transform="matrix(1.4109,0,0,1.4761,0.9597,-1.9523)"
  />
  <path style="fill:none; stroke:#000000; stroke-opacity:0.4; stroke-width:4; stroke-linecap:round; stroke-linejoin:round"
        d="M4 42H42"
        transform="matrix(1.4109,0,0,1.4761,0.9597,-1.9523)"
  />
  <path style="fill:none; stroke:#000000; stroke-width:4; stroke-linecap:round; stroke-linejoin:round"
        d="M2 40H40"
        transform="matrix(1.4109,0,0,1.4761,0.9597,-1.9523)"
  />
 </g>
</svg>
