<?xml version="1.0" encoding="UTF-8" standalone="yes"?>
<svg version="1.1" width="64" height="64" color-interpolation="linearRGB"
     xmlns:svg="http://www.w3.org/2000/svg" xmlns="http://www.w3.org/2000/svg">
 <g>
  <path style="fill:none; stroke:#000000; stroke-opacity:0.4; stroke-width:2.701"
        d="M7.14 55.99V46.76C7.14 44.12 12.66 23.01 14.04 23.01C15.42 23.01 20.95 44.12 20.95 46.76V55.99
           M59.61 29.6C59.61 25.95 56.5 23.01 52.71 23.01C48.87 23.01 45.8 25.95 45.8 29.6V48.08C45.8 51.72 48.87 54.67 52.71 54.67C56.5 54.67 59.61 51.72 59.61 48.08
           M40.28 45.44C40.28 41.77 37.19 38.84 33.37 38.84C37.19 38.84 40.28 35.88 40.28 32.24V29.6C40.28 25.95 37.19 23.01 33.37 23.01H26.47V54.67H33.37C37.19 54.67 40.28 51.72 40.28 48.08V45.44z
           M27.85 38.84H33.37
           M8.52 46.76H19.57"
        transform="matrix(0.9827,0,0,1,1.0523,0)"
  />
  <path style="fill:none; stroke:#000000; stroke-width:2.701"
        d="M4.38 53.35V44.12C4.38 41.48 9.9 20.37 11.28 20.37C12.66 20.37 18.18 41.48 18.18 44.12V53.35
           M56.85 26.96C56.85 23.31 53.74 20.37 49.95 20.37C46.11 20.37 43.04 23.31 43.04 26.96V45.44C43.04 49.08 46.11 52.03 49.95 52.03C53.74 52.03 56.85 49.08 56.85 45.44
           M37.52 42.8C37.52 39.13 34.42 36.2 30.61 36.2C34.42 36.2 37.52 33.24 37.52 29.6V26.96C37.52 23.31 34.42 20.37 30.61 20.37H23.71V52.03H30.61C34.42 52.03 37.52 49.08 37.52 45.44V42.8z
           M5.76 44.12H16.8
           M25.09 36.2H30.61"
        transform="matrix(0.9827,0,0,1,1.0523,0)"
  />
  <path style="fill:none; stroke:#000000; stroke-opacity:0.4; stroke-width:3.9996; stroke-linejoin:round"
        d="M58.01 14.9L42.01 14.96L49.99 6.93L58.01 14.9z"
  />
  <path style="fill:none; stroke:#005900; stroke-width:3.9996; stroke-linejoin:round"
        d="M56.01 12.9L40.02 12.96L47.99 4.93L56.01 12.9z"
  />
  <linearGradient id="gradient0" gradientUnits="userSpaceOnUse" x1="-59.96" y1="13.32" x2="-59.99" y2="5.32">
   <stop offset="0" stop-color="#80ff80"/>
   <stop offset="1" stop-color="#00b200"/>
  </linearGradient>
  <path style="fill:url(#gradient0)"
        d="M56.01 12.9L40.02 12.96L47.99 4.93L56.01 12.9z"
  />
 </g>
</svg>
