<?xml version="1.0" encoding="UTF-8" standalone="yes"?>
<svg version="1.1" width="64" height="64" color-interpolation="linearRGB"
     xmlns:svg="http://www.w3.org/2000/svg" xmlns="http://www.w3.org/2000/svg">
 <g>
  <path style="fill:none; stroke:#000000; stroke-opacity:0.4; stroke-width:4; stroke-linecap:round; stroke-linejoin:round"
        d="M8 6C5.78 6 4 7.79 4 10C4 12.2 5.78 14 8 14C10.19 14 12 12.2 12 10C12 7.79 10.19 6 8 6z"
        transform="matrix(1.41,0,0,1.4761,1.0004,-1.9517)"
  />
  <path style="fill:none; stroke:#004080; stroke-width:4; stroke-linecap:round; stroke-linejoin:round"
        d="M6 4C3.78 4 2 5.79 2 8C2 10.2 3.78 12 6 12C8.19 12 10 10.2 10 8C10 5.79 8.19 4 6 4z"
        transform="matrix(1.41,0,0,1.4761,1.0004,-1.9517)"
  />
  <linearGradient id="gradient0" gradientUnits="userSpaceOnUse" x1="128" y1="4" x2="128" y2="12">
   <stop offset="0" stop-color="#abd5ff"/>
   <stop offset="1" stop-color="#006cd9"/>
  </linearGradient>
  <path style="fill:url(#gradient0)"
        d="M6 4C3.78 4 2 5.79 2 8C2 10.2 3.78 12 6 12C8.19 12 10 10.2 10 8C10 5.79 8.19 4 6 4z"
        transform="matrix(1.41,0,0,1.4761,1.0004,-1.9517)"
  />
  <path style="fill:none; stroke:#000000; stroke-opacity:0.4; stroke-width:4; stroke-linecap:round; stroke-linejoin:round"
        d="M8 20C5.78 20 4 21.79 4 24C4 26.2 5.78 28 8 28C10.19 28 12 26.2 12 24C12 21.79 10.19 20 8 20z"
        transform="matrix(1.41,0,0,1.4761,1.0004,-1.9517)"
  />
  <path style="fill:none; stroke:#004080; stroke-width:4; stroke-linecap:round; stroke-linejoin:round"
        d="M6 18C3.78 18 2 19.79 2 22C2 24.2 3.78 26 6 26C8.19 26 10 24.2 10 22C10 19.79 8.19 18 6 18z"
        transform="matrix(1.41,0,0,1.4761,1.0004,-1.9517)"
  />
  <linearGradient id="gradient1" gradientUnits="userSpaceOnUse" x1="128" y1="18" x2="128" y2="26">
   <stop offset="0" stop-color="#abd5ff"/>
   <stop offset="1" stop-color="#006cd9"/>
  </linearGradient>
  <path style="fill:url(#gradient1)"
        d="M6 18C3.78 18 2 19.79 2 22C2 24.2 3.78 26 6 26C8.19 26 10 24.2 10 22C10 19.79 8.19 18 6 18z"
        transform="matrix(1.41,0,0,1.4761,1.0004,-1.9517)"
  />
  <path style="fill:none; stroke:#000000; stroke-opacity:0.4; stroke-width:4; stroke-linecap:round; stroke-linejoin:round"
        d="M8 34C5.78 34 4 35.79 4 38C4 40.2 5.78 42 8 42C10.19 42 12 40.2 12 38C12 35.79 10.19 34 8 34z"
        transform="matrix(1.41,0,0,1.4761,1.0004,-1.9517)"
  />
  <path style="fill:none; stroke:#004080; stroke-width:4; stroke-linecap:round; stroke-linejoin:round"
        d="M6 32C3.78 32 2 33.79 2 36C2 38.2 3.78 40 6 40C8.19 40 10 38.2 10 36C10 33.79 8.19 32 6 32z"
        transform="matrix(1.41,0,0,1.4761,1.0004,-1.9517)"
  />
  <linearGradient id="gradient2" gradientUnits="userSpaceOnUse" x1="128" y1="32" x2="128" y2="40">
   <stop offset="0" stop-color="#abd5ff"/>
   <stop offset="1" stop-color="#006cd9"/>
  </linearGradient>
  <path style="fill:url(#gradient2)"
        d="M6 32C3.78 32 2 33.79 2 36C2 38.2 3.78 40 6 40C8.19 40 10 38.2 10 36C10 33.79 8.19 32 6 32z"
        transform="matrix(1.41,0,0,1.4761,1.0004,-1.9517)"
  />
  <path style="fill:none; stroke:#000000; stroke-opacity:0.4; stroke-width:8; stroke-linecap:round; stroke-linejoin:round"
        d="M18 10H40"
        transform="matrix(1.41,0,0,1.4761,1.0004,-1.9517)"
  />
  <path style="fill:none; stroke:#545454; stroke-width:8; stroke-linecap:round; stroke-linejoin:round"
        d="M16 8H38"
        transform="matrix(1.41,0,0,1.4761,1.0004,-1.9517)"
  />
  <linearGradient id="gradient3" gradientUnits="userSpaceOnUse" x1="128" y1="6" x2="128" y2="10">
   <stop offset="0" stop-color="#ffffff"/>
   <stop offset="1" stop-color="#e5e5e5"/>
  </linearGradient>
  <path style="fill:none; stroke:url(#gradient3); stroke-width:4; stroke-linecap:round; stroke-linejoin:round"
        d="M16 8H38"
        transform="matrix(1.41,0,0,1.4761,1.0004,-1.9517)"
  />
  <path style="fill:none; stroke:#000000; stroke-opacity:0.4; stroke-width:8; stroke-linecap:round; stroke-linejoin:round"
        d="M18 24H40"
        transform="matrix(1.41,0,0,1.4761,1.0004,-1.9517)"
  />
  <path style="fill:none; stroke:#545454; stroke-width:8; stroke-linecap:round; stroke-linejoin:round"
        d="M16 22H38"
        transform="matrix(1.41,0,0,1.4761,1.0004,-1.9517)"
  />
  <linearGradient id="gradient4" gradientUnits="userSpaceOnUse" x1="128" y1="20" x2="128" y2="24">
   <stop offset="0" stop-color="#ffffff"/>
   <stop offset="1" stop-color="#e5e5e5"/>
  </linearGradient>
  <path style="fill:none; stroke:url(#gradient4); stroke-width:4; stroke-linecap:round; stroke-linejoin:round"
        d="M16 22H38"
        transform="matrix(1.41,0,0,1.4761,1.0004,-1.9517)"
  />
  <path style="fill:none; stroke:#000000; stroke-opacity:0.4; stroke-width:8; stroke-linecap:round; stroke-linejoin:round"
        d="M18 38H40"
        transform="matrix(1.41,0,0,1.4761,1.0004,-1.9517)"
  />
  <path style="fill:none; stroke:#545454; stroke-width:8; stroke-linecap:round; stroke-linejoin:round"
        d="M16 36H38"
        transform="matrix(1.41,0,0,1.4761,1.0004,-1.9517)"
  />
  <linearGradient id="gradient5" gradientUnits="userSpaceOnUse" x1="128" y1="34" x2="128" y2="38">
   <stop offset="0" stop-color="#ffffff"/>
   <stop offset="1" stop-color="#e5e5e5"/>
  </linearGradient>
  <path style="fill:none; stroke:url(#gradient5); stroke-width:4; stroke-linecap:round; stroke-linejoin:round"
        d="M16 36H38"
        transform="matrix(1.41,0,0,1.4761,1.0004,-1.9517)"
  />
 </g>
</svg>
