<?xml version="1.0" encoding="UTF-8" standalone="yes"?>
<svg version="1.1" width="64" height="64" color-interpolation="linearRGB"
     xmlns:svg="http://www.w3.org/2000/svg" xmlns="http://www.w3.org/2000/svg">
 <g>
  <path style="fill:none; stroke:#000000; stroke-opacity:0.4; stroke-width:4; stroke-linecap:round; stroke-linejoin:round"
        d="M42 4H4
           M12 12H34
           M8 20H38
           M4 34H11.56V38L20 34L11.56 30V34
           M42 34H34.41V30L26 34L34.41 38V34"
        transform="matrix(1.4109,0,0,1.5507,0.9597,1)"
  />
  <path style="fill:none; stroke:#000000; stroke-width:4; stroke-linecap:round; stroke-linejoin:round"
        d="M40 2H2
           M10 10H32
           M6 18H36
           M2 32H9.56V36L18 32L9.56 28V32
           M40 32H32.41V28L24 32L32.41 36V32"
        transform="matrix(1.4109,0,0,1.5507,0.9597,1)"
  />
 </g>
</svg>
