<?xml version="1.0" encoding="UTF-8" standalone="yes"?>
<svg version="1.1" width="64" height="64" color-interpolation="linearRGB"
     xmlns:svg="http://www.w3.org/2000/svg" xmlns="http://www.w3.org/2000/svg">
 <g>
  <path style="fill:none; stroke:#000000; stroke-opacity:0.4431; stroke-width:4"
        d="M7.55 18.8V20.84H13.47L20.12 48.49C20.2 48.9 20.62 49.24 21.12 49.27C21.62 49.31 22.09 49.06 22.29 48.68L35.68 20.84H54.34V25.92H56.61V19.81C56.61 19.26 56.11 18.8 55.47 18.8H34.93C34.47 18.8 34.06 19.04 33.88 19.42L21.6 44.93L15.51 19.61C15.38 19.12 14.93 18.8 14.39 18.8H7.55z"
        transform="matrix(1,0,0,1,3,4)"
  />
  <path style="fill:none; stroke:#04209c; stroke-width:7.0862; stroke-linejoin:round"
        d="M7.55 18.8V20.84H13.47L20.12 48.49C20.2 48.9 20.62 49.24 21.12 49.27C21.62 49.31 22.09 49.06 22.29 48.68L35.68 20.84H54.34V25.92H56.61V19.81C56.61 19.26 56.11 18.8 55.47 18.8H34.93C34.47 18.8 34.06 19.04 33.88 19.42L21.6 44.93L15.51 19.61C15.38 19.12 14.93 18.8 14.39 18.8H7.55z"
  />
  <linearGradient id="gradient0" gradientUnits="userSpaceOnUse" x1="57.2" y1="6.34" x2="56.52" y2="44.86">
   <stop offset="0" stop-color="#abd5ff"/>
   <stop offset="1" stop-color="#045cb6"/>
  </linearGradient>
  <path style="fill:url(#gradient0)"
        d="M7.55 18.8V20.84H13.47L20.12 48.49C20.2 48.9 20.62 49.24 21.12 49.27C21.62 49.31 22.09 49.06 22.29 48.68L35.68 20.84H54.34V25.92H56.61V19.81C56.61 19.26 56.11 18.8 55.47 18.8H34.93C34.47 18.8 34.06 19.04 33.88 19.42L21.6 44.93L15.51 19.61C15.38 19.12 14.93 18.8 14.39 18.8H7.55z"
  />
 </g>
</svg>
