<?xml version="1.0" encoding="UTF-8" standalone="yes"?>
<svg version="1.1" width="64" height="64" color-interpolation="linearRGB"
     xmlns:svg="http://www.w3.org/2000/svg" xmlns="http://www.w3.org/2000/svg">
 <g>
  <path style="fill:none; stroke:#000000; stroke-opacity:0.4; stroke-width:4; stroke-linecap:round; stroke-linejoin:round"
        d="M4 12H42"
        transform="matrix(1.4109,0,0,1.6,0.9597,-3.8)"
  />
  <path style="fill:none; stroke:#000000; stroke-width:4; stroke-linecap:round; stroke-linejoin:round"
        d="M2 10H40"
        transform="matrix(1.4109,0,0,1.6,0.9597,-3.8)"
  />
  <path style="fill:none; stroke:#000000; stroke-opacity:0.4; stroke-width:4; stroke-linecap:round; stroke-linejoin:round"
        d="M4 20H42"
        transform="matrix(1.4109,0,0,1.6,0.9597,-3.8)"
  />
  <path style="fill:none; stroke:#000000; stroke-width:4; stroke-linecap:round; stroke-linejoin:round"
        d="M2 18H40"
        transform="matrix(1.4109,0,0,1.6,0.9597,-3.8)"
  />
  <path style="fill:none; stroke:#000000; stroke-opacity:0.4; stroke-width:4; stroke-linecap:round; stroke-linejoin:round"
        d="M4 28H42"
        transform="matrix(1.4109,0,0,1.6,0.9597,-3.8)"
  />
  <path style="fill:none; stroke:#000000; stroke-width:4; stroke-linecap:round; stroke-linejoin:round"
        d="M2 26H40"
        transform="matrix(1.4109,0,0,1.6,0.9597,-3.8)"
  />
  <path style="fill:none; stroke:#000000; stroke-opacity:0.4; stroke-width:4; stroke-linecap:round; stroke-linejoin:round"
        d="M4 36H42"
        transform="matrix(1.4109,0,0,1.6,0.9597,-3.8)"
  />
  <path style="fill:none; stroke:#000000; stroke-width:4; stroke-linecap:round; stroke-linejoin:round"
        d="M2 34H40"
        transform="matrix(1.4109,0,0,1.6,0.9597,-3.8)"
  />
 </g>
</svg>
