<?xml version="1.0" encoding="UTF-8" standalone="yes"?>
<svg version="1.1" width="64" height="64" color-interpolation="linearRGB"
     xmlns:svg="http://www.w3.org/2000/svg" xmlns="http://www.w3.org/2000/svg">
 <g>
  <path style="fill:none; stroke:#000000; stroke-opacity:0.4; stroke-width:10.188; stroke-linecap:round; stroke-linejoin:round"
        d="M11.61 54.9L28.19 24.33L44.74 54.9L38.37 45.98H18.01
           M47.29 26.88V11.59
           M54.93 19.23H39.65"
        transform="matrix(1.0178,0,0,1.0535,-0.0716,-3.2115)"
  />
  <path style="fill:none; stroke:#545454; stroke-width:10.188; stroke-linecap:round; stroke-linejoin:round"
        d="M9.07 52.35L25.65 21.78L42.19 52.35L35.83 43.43H15.46
           M44.74 24.33V9.04
           M52.38 16.68H37.1"
        transform="matrix(1.0178,0,0,1.0535,-0.0716,-3.2115)"
  />
  <linearGradient id="gradient0" gradientUnits="userSpaceOnUse" x1="166.99" y1="19.23" x2="166.99" y2="54.9">
   <stop offset="0" stop-color="#ffffff"/>
   <stop offset="1" stop-color="#e5e5e5"/>
  </linearGradient>
  <path style="fill:none; stroke:url(#gradient0); stroke-width:5.0939; stroke-linecap:round; stroke-linejoin:round"
        d="M9.07 52.35L25.65 21.78L42.19 52.35L35.83 43.43H15.46"
        transform="matrix(1.0178,0,0,1.0535,-0.0716,-3.2115)"
  />
  <linearGradient id="gradient1" gradientUnits="userSpaceOnUse" x1="168.26" y1="6.48" x2="168.26" y2="26.88">
   <stop offset="0" stop-color="#ffffff"/>
   <stop offset="1" stop-color="#e5e5e5"/>
  </linearGradient>
  <path style="fill:none; stroke:url(#gradient1); stroke-width:5.0939; stroke-linecap:round; stroke-linejoin:round"
        d="M52.38 16.68H37.1
           M44.74 24.33V9.04"
        transform="matrix(1.0178,0,0,1.0535,-0.0716,-3.2115)"
  />
 </g>
</svg>
