<?xml version="1.0" encoding="UTF-8" standalone="yes"?>
<svg version="1.1" width="64" height="64" color-interpolation="linearRGB"
     xmlns:svg="http://www.w3.org/2000/svg" xmlns="http://www.w3.org/2000/svg">
 <g>
  <path style="fill:#000000; fill-opacity:0.4274"
        d="M21.98 6.76C21.98 6.76 7.6 6.76 7.6 22.63C10.48 16.29 13.35 13.11 21.95 13.11C21.92 47.84 13.36 50.23 13.36 55.77C17.67 59.44 24.41 57.41 24.91 50.22L27.71 13.11H39.17L36.36 50.42C36.36 59.94 47.85 59.94 50.73 50.42L53.61 40.89C50.73 47.24 42.1 56.77 42.36 47.08L44.92 13.11H53.61V6.76H21.98z
           M21.98 6.76C21.98 6.76 7.6 6.76 7.6 22.63C10.48 16.29 13.35 13.11 21.95 13.11C21.92 47.84 13.36 50.23 13.36 55.77C17.67 59.44 24.41 57.41 24.91 50.22L27.71 13.11H39.17L36.36 50.42C36.36 59.94 47.85 59.94 50.73 50.42L53.61 40.89C50.73 47.24 42.1 56.77 42.36 47.08L44.92 13.11H53.61V6.76H21.98z"
        transform="matrix(1,0,0,1,6,4)"
  />
  <path style="fill:none; stroke:#000000; stroke-width:5.5171"
        d="M21.98 6.76C21.98 6.76 7.6 6.76 7.6 22.63C10.48 16.29 13.35 13.11 21.95 13.11C21.92 47.84 13.36 50.23 13.36 55.77C17.67 59.44 24.41 57.41 24.91 50.22L27.71 13.11H39.17L36.36 50.42C36.36 59.94 47.85 59.94 50.73 50.42L53.61 40.89C50.73 47.24 42.1 56.77 42.36 47.08L44.92 13.11H53.61V6.76H21.98z"
  />
  <linearGradient id="gradient0" gradientUnits="userSpaceOnUse" x1="100.18" y1="-0.47" x2="100.18" y2="20.08">
   <stop offset="0" stop-color="#808080"/>
   <stop offset="1" stop-color="#545454"/>
  </linearGradient>
  <path style="fill:url(#gradient0)"
        d="M21.98 6.76C21.98 6.76 7.6 6.76 7.6 22.63C10.48 16.29 13.35 13.11 21.95 13.11C21.92 47.84 13.36 50.23 13.36 55.77C17.67 59.44 24.41 57.41 24.91 50.22L27.71 13.11H39.17L36.36 50.42C36.36 59.94 47.85 59.94 50.73 50.42L53.61 40.89C50.73 47.24 42.1 56.77 42.36 47.08L44.92 13.11H53.61V6.76H21.98z"
  />
 </g>
</svg>
