<?xml version="1.0" encoding="UTF-8" standalone="yes"?>
<svg version="1.1" width="64" height="64" color-interpolation="linearRGB"
     xmlns:svg="http://www.w3.org/2000/svg" xmlns="http://www.w3.org/2000/svg">
 <g>
  <path style="fill:none; stroke:#000000; stroke-opacity:0.4; stroke-width:2"
        d="M44 15H38C35.22 15 33 17.22 33 20V22C33 24.76 35.22 27 38 27H44
           M15 15V27H10C7.23 27 5 24.76 5 22V20C5 17.22 7.23 15 10 15H15z
           M19 2V27H24C26.76 27 29 24.76 29 22V20C29 17.22 26.76 15 24 15H19"
        transform="matrix(1.4047,0,0,1.5714,0.1904,12)"
  />
  <path style="fill:none; stroke:#000000; stroke-width:2"
        d="M42 13H36C33.22 13 31 15.22 31 18V20C31 22.76 33.22 25 36 25H42
           M13 13V25H8C5.23 25 3 22.76 3 20V18C3 15.22 5.23 13 8 13H13z
           M17 0V25H22C24.76 25 27 22.76 27 20V18C27 15.22 24.76 13 22 13H17"
        transform="matrix(1.4047,0,0,1.5714,0.1904,12)"
  />
  <path style="fill:none; stroke:#000000; stroke-opacity:0.4; stroke-width:4; stroke-linejoin:round"
        d="M14 34H30L22 42L14 34z"
        transform="matrix(1,0,0,1,30,-27)"
  />
  <path style="fill:none; stroke:#005900; stroke-width:4; stroke-linejoin:round"
        d="M12 32H28L20 40L12 32z"
        transform="matrix(1,0,0,1,30,-27)"
  />
  <linearGradient id="gradient0" gradientUnits="userSpaceOnUse" x1="128" y1="32" x2="128" y2="40">
   <stop offset="0" stop-color="#80ff80"/>
   <stop offset="1" stop-color="#00b200"/>
  </linearGradient>
  <path style="fill:url(#gradient0)"
        d="M12 32H28L20 40L12 32z"
        transform="matrix(1,0,0,1,30,-27)"
  />
 </g>
</svg>
