<?xml version="1.0" encoding="UTF-8" standalone="yes"?>
<svg version="1.1" width="64" height="64" color-interpolation="linearRGB"
     xmlns:svg="http://www.w3.org/2000/svg" xmlns="http://www.w3.org/2000/svg">
 <g>
  <path style="fill:none; stroke:#000000; stroke-opacity:0.3921; stroke-width:4"
        d="M45.09 37.81C49.1 37.81 52.36 41.07 52.36 45.09C52.36 49.1 49.1 52.36 45.09 52.36C41.07 52.36 37.81 49.1 37.81 45.09C37.81 41.07 41.07 37.81 45.09 37.81V37.81V37.81z
           M45.09 34.9C39.46 34.9 34.9 39.46 34.9 45.09C34.9 50.71 39.46 55.27 45.09 55.27C50.71 55.27 55.27 50.71 55.27 45.09C55.27 39.46 50.71 34.9 45.09 34.9V34.9V34.9z
           M18.9 14.54C22.92 14.54 26.18 17.8 26.18 21.81C26.18 25.83 22.92 29.09 18.9 29.09C14.89 29.09 11.63 25.83 11.63 21.81C11.63 17.8 14.89 14.54 18.9 14.54V14.54V14.54z
           M18.9 11.63C13.28 11.63 8.72 16.19 8.72 21.81C8.72 27.44 13.28 32 18.9 32C24.53 32 29.09 27.44 29.09 21.81C29.09 16.19 24.53 11.63 18.9 11.63V11.63V11.63z
           M47.94 7.59C36.3 23.11 24.67 38.62 13.03 54.14C13.58 54.55 14.14 54.97 14.69 55.38C15.03 55.65 15.38 55.91 15.72 56.18C15.73 56.17 15.73 56.17 15.73 56.17C15.84 56.25 15.95 56.32 16.05 56.4C27.69 40.89 39.32 25.37 50.96 9.86C50.51 9.52 50.05 9.18 49.6 8.84C49.15 8.49 48.71 8.15 48.27 7.81C48.26 7.82 48.26 7.82 48.26 7.83C48.15 7.75 48.04 7.67 47.94 7.59V7.59z"
        transform="matrix(1,0,0,1,1,3)"
  />
  <path style="fill:none; stroke:#003f80; stroke-width:4"
        d="M45.09 37.81C49.1 37.81 52.36 41.07 52.36 45.09C52.36 49.1 49.1 52.36 45.09 52.36C41.07 52.36 37.81 49.1 37.81 45.09C37.81 41.07 41.07 37.81 45.09 37.81V37.81V37.81z
           M45.09 34.9C39.46 34.9 34.9 39.46 34.9 45.09C34.9 50.71 39.46 55.27 45.09 55.27C50.71 55.27 55.27 50.71 55.27 45.09C55.27 39.46 50.71 34.9 45.09 34.9V34.9V34.9z
           M18.9 14.54C22.92 14.54 26.18 17.8 26.18 21.81C26.18 25.83 22.92 29.09 18.9 29.09C14.89 29.09 11.63 25.83 11.63 21.81C11.63 17.8 14.89 14.54 18.9 14.54V14.54V14.54z
           M18.9 11.63C13.28 11.63 8.72 16.19 8.72 21.81C8.72 27.44 13.28 32 18.9 32C24.53 32 29.09 27.44 29.09 21.81C29.09 16.19 24.53 11.63 18.9 11.63V11.63V11.63z
           M47.94 7.59C36.3 23.11 24.67 38.62 13.03 54.14C13.58 54.55 14.14 54.97 14.69 55.38C15.03 55.65 15.38 55.91 15.72 56.18C15.73 56.17 15.73 56.17 15.73 56.17C15.84 56.25 15.95 56.32 16.05 56.4C27.69 40.89 39.32 25.37 50.96 9.86C50.51 9.52 50.05 9.18 49.6 8.84C49.15 8.49 48.71 8.15 48.27 7.81C48.26 7.82 48.26 7.82 48.26 7.83C48.15 7.75 48.04 7.67 47.94 7.59V7.59z"
  />
  <linearGradient id="gradient0" gradientUnits="userSpaceOnUse" x1="148.62" y1="12.54" x2="148.62" y2="48.6">
   <stop offset="0" stop-color="#abd5ff"/>
   <stop offset="1" stop-color="#006cd9"/>
  </linearGradient>
  <path style="fill:url(#gradient0)"
        d="M45.09 37.81C49.1 37.81 52.36 41.07 52.36 45.09C52.36 49.1 49.1 52.36 45.09 52.36C41.07 52.36 37.81 49.1 37.81 45.09C37.81 41.07 41.07 37.81 45.09 37.81V37.81V37.81z
           M45.09 34.9C39.46 34.9 34.9 39.46 34.9 45.09C34.9 50.71 39.46 55.27 45.09 55.27C50.71 55.27 55.27 50.71 55.27 45.09C55.27 39.46 50.71 34.9 45.09 34.9V34.9V34.9z
           M18.9 14.54C22.92 14.54 26.18 17.8 26.18 21.81C26.18 25.83 22.92 29.09 18.9 29.09C14.89 29.09 11.63 25.83 11.63 21.81C11.63 17.8 14.89 14.54 18.9 14.54V14.54V14.54z
           M18.9 11.63C13.28 11.63 8.72 16.19 8.72 21.81C8.72 27.44 13.28 32 18.9 32C24.53 32 29.09 27.44 29.09 21.81C29.09 16.19 24.53 11.63 18.9 11.63V11.63V11.63z
           M47.94 7.59C36.3 23.11 24.67 38.62 13.03 54.14C13.58 54.55 14.14 54.97 14.69 55.38C15.03 55.65 15.38 55.91 15.72 56.18C15.73 56.17 15.73 56.17 15.73 56.17C15.84 56.25 15.95 56.32 16.05 56.4C27.69 40.89 39.32 25.37 50.96 9.86C50.51 9.52 50.05 9.18 49.6 8.84C49.15 8.49 48.71 8.15 48.27 7.81C48.26 7.82 48.26 7.82 48.26 7.83C48.15 7.75 48.04 7.67 47.94 7.59V7.59z"
  />
 </g>
</svg>
