<?xml version="1.0" encoding="UTF-8" standalone="yes"?>
<svg version="1.1" width="64" height="64" color-interpolation="linearRGB"
     xmlns:svg="http://www.w3.org/2000/svg" xmlns="http://www.w3.org/2000/svg">
 <g>
  <path style="fill:none; stroke:#003f80; stroke-width:3.028; stroke-linecap:round; stroke-linejoin:round"
        d="M11.34 18.04H5.43
           M2.47 8.74L8.38 2.54V18.04"
        transform="matrix(0.8714,0,0,0.8707,4.1238,4.1383)"
  />
  <path style="fill:none; stroke:#003f80; stroke-width:3.028; stroke-linecap:round; stroke-linejoin:round"
        d="M11.34 39.74H2.47C2.47 35.09 11.34 31.99 11.34 28.89C11.34 25.79 9.86 24.24 6.9 24.24C3.95 24.24 2.47 25.79 2.47 28.89"
        transform="matrix(0.8714,0,0,0.8707,4.1238,4.1383)"
  />
  <path style="fill:none; stroke:#003f80; stroke-width:3.028; stroke-linecap:round; stroke-linejoin:round"
        d="M2.47 45.94H11.34C11.34 48.44 5.43 52.14 5.43 52.14C5.43 52.14 11.34 53.69 11.34 56.79C11.34 59.89 9.86 61.44 6.9 61.44C3.95 61.44 2.47 59.89 2.47 56.79"
        transform="matrix(0.8714,0,0,0.8707,4.1238,4.1383)"
  />
  <path style="fill:none; stroke:#000000; stroke-opacity:0.4; stroke-width:12.1122; stroke-linecap:round; stroke-linejoin:round"
        d="M24.63 13.39H57.13"
        transform="matrix(0.8714,0,0,0.8707,4.1238,4.1383)"
  />
  <path style="fill:none; stroke:#545454; stroke-width:12.1122; stroke-linecap:round; stroke-linejoin:round"
        d="M21.68 10.29H54.18"
        transform="matrix(0.8714,0,0,0.8707,4.1238,4.1383)"
  />
  <linearGradient id="gradient0" gradientUnits="userSpaceOnUse" x1="187.13" y1="7.19" x2="187.13" y2="13.39">
   <stop offset="0" stop-color="#ffffff"/>
   <stop offset="1" stop-color="#e5e5e5"/>
  </linearGradient>
  <path style="fill:none; stroke:url(#gradient0); stroke-width:6.0561; stroke-linecap:round; stroke-linejoin:round"
        d="M21.68 10.29H54.18"
        transform="matrix(0.8714,0,0,0.8707,4.1238,4.1383)"
  />
  <path style="fill:none; stroke:#000000; stroke-opacity:0.4; stroke-width:12.1122; stroke-linecap:round; stroke-linejoin:round"
        d="M24.63 35.09H57.13"
        transform="matrix(0.8714,0,0,0.8707,4.1238,4.1383)"
  />
  <path style="fill:none; stroke:#545454; stroke-width:12.1122; stroke-linecap:round; stroke-linejoin:round"
        d="M21.68 31.99H54.18"
        transform="matrix(0.8714,0,0,0.8707,4.1238,4.1383)"
  />
  <linearGradient id="gradient1" gradientUnits="userSpaceOnUse" x1="187.13" y1="28.89" x2="187.13" y2="35.09">
   <stop offset="0" stop-color="#ffffff"/>
   <stop offset="1" stop-color="#e5e5e5"/>
  </linearGradient>
  <path style="fill:none; stroke:url(#gradient1); stroke-width:6.0561; stroke-linecap:round; stroke-linejoin:round"
        d="M21.68 31.99H54.18"
        transform="matrix(0.8714,0,0,0.8707,4.1238,4.1383)"
  />
  <path style="fill:none; stroke:#000000; stroke-opacity:0.4; stroke-width:12.1122; stroke-linecap:round; stroke-linejoin:round"
        d="M24.63 56.79H57.13"
        transform="matrix(0.8714,0,0,0.8707,4.1238,4.1383)"
  />
  <path style="fill:none; stroke:#545454; stroke-width:12.1122; stroke-linecap:round; stroke-linejoin:round"
        d="M21.68 53.69H54.18"
        transform="matrix(0.8714,0,0,0.8707,4.1238,4.1383)"
  />
  <linearGradient id="gradient2" gradientUnits="userSpaceOnUse" x1="187.13" y1="50.59" x2="187.13" y2="56.79">
   <stop offset="0" stop-color="#ffffff"/>
   <stop offset="1" stop-color="#e5e5e5"/>
  </linearGradient>
  <path style="fill:none; stroke:url(#gradient2); stroke-width:6.0561; stroke-linecap:round; stroke-linejoin:round"
        d="M21.68 53.69H54.18"
        transform="matrix(0.8714,0,0,0.8707,4.1238,4.1383)"
  />
 </g>
</svg>
