<?xml version="1.0" encoding="UTF-8" standalone="yes"?>
<svg version="1.1" width="64" height="64" color-interpolation="linearRGB"
     xmlns:svg="http://www.w3.org/2000/svg" xmlns="http://www.w3.org/2000/svg">
 <g>
  <path style="fill:none; stroke:#000000; stroke-opacity:0.4; stroke-width:8; stroke-linecap:round; stroke-linejoin:round"
        d="M5.98 40L19 16L32 40L27 33H11
           M40 12H28"
        transform="matrix(1.4099,0,0,1.6318,1.0022,-8.791)"
  />
  <path style="fill:none; stroke:#545454; stroke-width:8; stroke-linecap:round; stroke-linejoin:round"
        d="M3.99 38L17 14L30 38L25 31H9
           M38 10H26"
        transform="matrix(1.4099,0,0,1.6318,1.0022,-8.791)"
  />
  <linearGradient id="gradient0" gradientUnits="userSpaceOnUse" x1="128" y1="12" x2="128" y2="40">
   <stop offset="0" stop-color="#ffffff"/>
   <stop offset="1" stop-color="#e5e5e5"/>
  </linearGradient>
  <path style="fill:none; stroke:url(#gradient0); stroke-width:4; stroke-linecap:round; stroke-linejoin:round"
        d="M3.99 38L17 14L30 38L25 31H9"
        transform="matrix(1.4099,0,0,1.6318,1.0022,-8.791)"
  />
  <linearGradient id="gradient1" gradientUnits="userSpaceOnUse" x1="129" y1="8" x2="129" y2="12">
   <stop offset="0" stop-color="#ffffff"/>
   <stop offset="1" stop-color="#e5e5e5"/>
  </linearGradient>
  <path style="fill:none; stroke:url(#gradient1); stroke-width:4; stroke-linecap:round; stroke-linejoin:round"
        d="M38 10H26"
        transform="matrix(1.4099,0,0,1.6318,1.0022,-8.791)"
  />
 </g>
</svg>
