<?xml version="1.0" encoding="UTF-8" standalone="yes"?>
<svg version="1.1" width="64" height="64" color-interpolation="linearRGB"
     xmlns:svg="http://www.w3.org/2000/svg" xmlns="http://www.w3.org/2000/svg">
 <g>
  <path style="fill:none; stroke:#000000; stroke-opacity:0.4; stroke-width:12.1991; stroke-linecap:round; stroke-linejoin:round"
        d="M9.43 56.48L27.79 17.31L46.11 56.48L39.06 45.05H16.51
           M57.39 10.79H40.47"
        transform="matrix(0.9047,0,0,0.8528,3.0509,7.2101)"
  />
  <path style="fill:none; stroke:#545454; stroke-width:12.1991; stroke-linecap:round; stroke-linejoin:round"
        d="M6.62 53.21L24.97 14.05L43.29 53.21L36.24 41.79H13.69
           M54.57 7.52H37.65"
        transform="matrix(0.9047,0,0,0.8528,3.0509,7.2101)"
  />
  <linearGradient id="gradient0" gradientUnits="userSpaceOnUse" x1="181.46" y1="10.79" x2="181.46" y2="56.48">
   <stop offset="0" stop-color="#ffffff"/>
   <stop offset="1" stop-color="#e5e5e5"/>
  </linearGradient>
  <path style="fill:none; stroke:url(#gradient0); stroke-width:6.0995; stroke-linecap:round; stroke-linejoin:round"
        d="M6.62 53.21L24.97 14.05L43.29 53.21L36.24 41.79H13.69"
        transform="matrix(0.9047,0,0,0.8528,3.0509,7.2101)"
  />
  <linearGradient id="gradient1" gradientUnits="userSpaceOnUse" x1="182.87" y1="4.26" x2="182.87" y2="10.79">
   <stop offset="0" stop-color="#ffffff"/>
   <stop offset="1" stop-color="#e5e5e5"/>
  </linearGradient>
  <path style="fill:none; stroke:url(#gradient1); stroke-width:6.0995; stroke-linecap:round; stroke-linejoin:round"
        d="M54.57 7.52H37.65"
        transform="matrix(0.9047,0,0,0.8528,3.0509,7.2101)"
  />
 </g>
</svg>
