<?xml version="1.0" encoding="UTF-8" standalone="yes"?>
<svg version="1.1" width="64" height="64" color-interpolation="linearRGB"
     xmlns:svg="http://www.w3.org/2000/svg" xmlns="http://www.w3.org/2000/svg">
 <g>
  <path style="fill:#939393; fill-opacity:0.5098"
        d="M7 58L59 8L63 13L11 63L7 58z"
        transform="matrix(-0.0022,0.9999,-0.9999,-0.0022,71.3551,-2.4542)"
  />
  <path style="fill:none; stroke:#939393; stroke-opacity:0.8823; stroke-width:3.3689; stroke-linecap:round; stroke-linejoin:round"
        d="M3.69 2.92H60.29V60.2H3.69V2.92z"
        transform="matrix(-0.002,0.9039,-0.9028,-0.002,61.2239,3.557)"
  />
  <path style="fill:#8c8181; fill-opacity:0.8"
        d="M4.92 30H59.04V33.2H4.92V30z"
        transform="matrix(-0.002,0.9039,-0.9028,-0.002,61.2239,3.557)"
  />
  <path style="fill:#8c8181; fill-opacity:0.8"
        d="M30.63 4.44H33.34V58.77H30.63V4.44z"
        transform="matrix(-0.002,0.9039,-0.9028,-0.002,61.2239,3.557)"
  />
  <path style="fill:#fcaf3e"
        d="M62 7L58 3L1 58L5 62L62 7z"
        transform="matrix(-0.002,0.9039,-0.9028,-0.002,61.2239,3.557)"
  />
  <path style="fill:none; stroke:#ce5c00; stroke-width:3"
        d="M61.47 8.82C62.2 8.12 62.71 7.49 62.64 7.42L57.64 2.27C57.56 2.19 56.92 2.69 56.2 3.39L1.33 56.47C0.61 57.16 0.09 57.8 0.16 57.87L5.16 63.02C5.24 63.1 5.89 62.59 6.61 61.9L61.47 8.82z"
        transform="matrix(-0.002,0.9039,-0.9028,-0.002,61.2239,3.557)"
  />
 </g>
</svg>
