<?xml version="1.0" encoding="UTF-8" standalone="yes"?>
<svg version="1.1" width="64" height="64" color-interpolation="linearRGB"
     xmlns:svg="http://www.w3.org/2000/svg" xmlns="http://www.w3.org/2000/svg">
 <g>
  <path style="fill:none; stroke:#003f80; stroke-width:2; stroke-linecap:round; stroke-linejoin:round"
        d="M9 13H5
           M3 7L7 3V13"
        transform="matrix(1.4773,0,0,1.5499,-1.9546,-2.0999)"
  />
  <path style="fill:none; stroke:#003f80; stroke-width:2; stroke-linecap:round; stroke-linejoin:round"
        d="M9 27H3C3 24 9 22 9 20C9 18 8 17 6 17C4 17 3 18 3 20"
        transform="matrix(1.4773,0,0,1.5499,-1.9546,-2.0999)"
  />
  <path style="fill:none; stroke:#003f80; stroke-width:2; stroke-linecap:round; stroke-linejoin:round"
        d="M3 31H9C9 32.61 5 35 5 35C5 35 9 36 9 38C9 40 8 41 6 41C4 41 3 40 3 38"
        transform="matrix(1.4773,0,0,1.5499,-1.9546,-2.0999)"
  />
  <path style="fill:none; stroke:#000000; stroke-opacity:0.4; stroke-width:8; stroke-linecap:round; stroke-linejoin:round"
        d="M18 10H40"
        transform="matrix(1.4773,0,0,1.5499,-1.9546,-2.0999)"
  />
  <path style="fill:none; stroke:#545454; stroke-width:8; stroke-linecap:round; stroke-linejoin:round"
        d="M16 8H38"
        transform="matrix(1.4773,0,0,1.5499,-1.9546,-2.0999)"
  />
  <linearGradient id="gradient0" gradientUnits="userSpaceOnUse" x1="128" y1="6" x2="128" y2="10">
   <stop offset="0" stop-color="#ffffff"/>
   <stop offset="1" stop-color="#e5e5e5"/>
  </linearGradient>
  <path style="fill:none; stroke:url(#gradient0); stroke-width:4; stroke-linecap:round; stroke-linejoin:round"
        d="M16 8H38"
        transform="matrix(1.4773,0,0,1.5499,-1.9546,-2.0999)"
  />
  <path style="fill:none; stroke:#000000; stroke-opacity:0.4; stroke-width:8; stroke-linecap:round; stroke-linejoin:round"
        d="M18 24H40"
        transform="matrix(1.4773,0,0,1.5499,-1.9546,-2.0999)"
  />
  <path style="fill:none; stroke:#545454; stroke-width:8; stroke-linecap:round; stroke-linejoin:round"
        d="M16 22H38"
        transform="matrix(1.4773,0,0,1.5499,-1.9546,-2.0999)"
  />
  <linearGradient id="gradient1" gradientUnits="userSpaceOnUse" x1="128" y1="20" x2="128" y2="24">
   <stop offset="0" stop-color="#ffffff"/>
   <stop offset="1" stop-color="#e5e5e5"/>
  </linearGradient>
  <path style="fill:none; stroke:url(#gradient1); stroke-width:4; stroke-linecap:round; stroke-linejoin:round"
        d="M16 22H38"
        transform="matrix(1.4773,0,0,1.5499,-1.9546,-2.0999)"
  />
  <path style="fill:none; stroke:#000000; stroke-opacity:0.4; stroke-width:8; stroke-linecap:round; stroke-linejoin:round"
        d="M18 38H40"
        transform="matrix(1.4773,0,0,1.5499,-1.9546,-2.0999)"
  />
  <path style="fill:none; stroke:#545454; stroke-width:8; stroke-linecap:round; stroke-linejoin:round"
        d="M16 36H38"
        transform="matrix(1.4773,0,0,1.5499,-1.9546,-2.0999)"
  />
  <linearGradient id="gradient2" gradientUnits="userSpaceOnUse" x1="128" y1="34" x2="128" y2="38">
   <stop offset="0" stop-color="#ffffff"/>
   <stop offset="1" stop-color="#e5e5e5"/>
  </linearGradient>
  <path style="fill:none; stroke:url(#gradient2); stroke-width:4; stroke-linecap:round; stroke-linejoin:round"
        d="M16 36H38"
        transform="matrix(1.4773,0,0,1.5499,-1.9546,-2.0999)"
  />
 </g>
</svg>
