<?xml version="1.0" encoding="UTF-8" standalone="yes"?>
<svg version="1.1" width="64" height="64" color-interpolation="linearRGB"
     xmlns:svg="http://www.w3.org/2000/svg" xmlns="http://www.w3.org/2000/svg">
 <g>
  <path style="fill:none; stroke:#000000; stroke-opacity:0.4; stroke-width:4; stroke-linecap:round; stroke-linejoin:round"
        d="M42 4H4
           M4 12H42
           M4 20H42
           M20 34H12.42V30L4 34L12.42 38V34
           M26 34H33.56V38L42 34L33.56 30V34"
        transform="matrix(1.409,0,0,1.5507,1,1)"
  />
  <path style="fill:none; stroke:#000000; stroke-width:4; stroke-linecap:round; stroke-linejoin:round"
        d="M40 2H2
           M2 10H40
           M2 18H40
           M18 32H10.42V28L2 32L10.42 36V32
           M24 32H31.56V36L40 32L31.56 28V32"
        transform="matrix(1.409,0,0,1.5507,1,1)"
  />
 </g>
</svg>
