<?xml version="1.0" encoding="UTF-8" standalone="yes"?>
<svg version="1.1" width="64" height="64" color-interpolation="linearRGB"
     xmlns:svg="http://www.w3.org/2000/svg" xmlns="http://www.w3.org/2000/svg">
 <g>
  <path style="fill:none; stroke:#000000; stroke-opacity:0.4; stroke-width:4"
        d="M49.79 26.26C49.79 18.48 44.74 11.6 37.32 9.27C29.9 6.94 21.83 9.71 17.39 16.09C12.95 22.48 13.17 31.01 17.94 37.15C18.65 38.13 23.21 44.46 25.35 49.67C29.77 49.67 34.2 49.67 38.63 49.67C40.61 44.84 44.67 39.05 45.82 37.45C48.39 34.28 49.79 30.33 49.79 26.26V26.26V26.26z
           M28.49 59.44C28.56 61.38 30.15 62.92 32.09 62.92C34.03 62.92 35.62 61.38 35.68 59.44C33.29 59.44 30.89 59.44 28.49 59.44V59.44z
           M24.44 52.89C29.52 52.89 34.6 52.89 39.67 52.89
           M24.44 56.04C29.52 56.04 34.6 56.04 39.67 56.04
           M38.63 49.67C34.2 49.67 29.77 49.67 25.34 49.67C25.34 51.86 25.34 54.05 25.34 56.24C25.34 58.01 26.46 59.44 27.84 59.44C30.6 59.44 33.36 59.44 36.13 59.44C37.51 59.44 38.63 58.01 38.63 56.24C38.63 54.05 38.63 51.86 38.63 49.67V49.67z
           M28.49 59.44C28.56 61.38 30.15 62.92 32.09 62.92C34.03 62.92 35.62 61.38 35.68 59.44C33.29 59.44 30.89 59.44 28.49 59.44V59.44z"
        transform="matrix(0.9117,0,0,0.9088,5.5719,2.9164)"
  />
  <path style="fill:none; stroke:#bf5000; stroke-width:5.5; stroke-linecap:round; stroke-linejoin:round"
        d="M49.79 26.26C49.79 18.48 44.74 11.6 37.32 9.27C29.9 6.94 21.83 9.71 17.39 16.09C12.95 22.48 13.17 31.01 17.94 37.15C18.65 38.13 23.21 44.46 25.35 49.67C29.77 49.67 34.2 49.67 38.63 49.67C40.61 44.84 44.67 39.05 45.82 37.45C48.39 34.28 49.79 30.33 49.79 26.26V26.26V26.26z
           M43.42 6.46C43.89 5.47 44.35 4.49 44.82 3.5
           M51.21 12.79C52.13 12.21 53.06 11.64 53.99 11.06
           M20.57 6.46C20.1 5.47 19.64 4.49 19.17 3.5
           M12.78 12.79C11.86 12.21 10.93 11.64 10 11.06
           M32 4.35C32 3.26 32 2.17 32 1.08"
        transform="matrix(0.9117,0,0,0.9088,2.8368,1.0986)"
  />
  <path style="fill:none; stroke:#545454; stroke-width:6"
        d="M38.63 49.67C34.2 49.67 29.77 49.67 25.34 49.67C25.34 51.86 25.34 54.05 25.34 56.24C25.34 58.01 26.46 59.44 27.84 59.44C30.6 59.44 33.36 59.44 36.13 59.44C37.51 59.44 38.63 58.01 38.63 56.24C38.63 54.05 38.63 51.86 38.63 49.67V49.67z"
        transform="matrix(0.9117,0,0,0.9088,2.8368,1.0986)"
  />
  <linearGradient id="gradient0" gradientUnits="userSpaceOnUse" x1="128" y1="1.99" x2="128" y2="39.99">
   <stop offset="0" stop-color="#ffffff"/>
   <stop offset="1" stop-color="#e5e5e5"/>
  </linearGradient>
  <path style="fill:url(#gradient0)"
        d="M38.63 49.67C34.2 49.67 29.77 49.67 25.34 49.67C25.34 51.86 25.34 54.05 25.34 56.24C25.34 58.01 26.46 59.44 27.84 59.44C30.6 59.44 33.36 59.44 36.13 59.44C37.51 59.44 38.63 58.01 38.63 56.24C38.63 54.05 38.63 51.86 38.63 49.67V49.67z"
        transform="matrix(0.9117,0,0,0.9088,2.8368,1.0986)"
  />
  <linearGradient id="gradient1" gradientUnits="userSpaceOnUse" x1="44.13" y1="12.17" x2="44.13" y2="38.7">
   <stop offset="0" stop-color="#ffff80"/>
   <stop offset="1" stop-color="#ffd400"/>
  </linearGradient>
  <path style="fill:url(#gradient1)"
        d="M49.79 26.26C49.79 18.48 44.74 11.6 37.32 9.27C29.9 6.94 21.83 9.71 17.39 16.09C12.95 22.48 13.17 31.01 17.94 37.15C18.65 38.13 23.21 44.46 25.35 49.67C29.77 49.67 34.2 49.67 38.63 49.67C40.61 44.84 44.67 39.05 45.82 37.45C48.39 34.28 49.79 30.33 49.79 26.26V26.26V26.26z"
        transform="matrix(0.9117,0,0,0.9088,2.8368,1.0986)"
  />
  <path style="fill:none; stroke:#545454; stroke-width:1"
        d="M24.44 52.89C29.52 52.89 34.6 52.89 39.67 52.89
           M24.44 56.04C29.52 56.04 34.6 56.04 39.67 56.04"
        transform="matrix(0.9117,0,0,0.9088,2.8368,1.0986)"
  />
  <path style="fill:#000000"
        d="M28.49 59.44C28.56 61.38 30.15 62.92 32.09 62.92C34.03 62.92 35.62 61.38 35.68 59.44C33.29 59.44 30.89 59.44 28.49 59.44V59.44z"
        transform="matrix(1.1653,0,0,0.9088,-5.3028,2.9164)"
  />
  <path style="fill:none; stroke:#000000; stroke-width:2"
        d="M29.31 49.67C29.31 49.67 30.03 35.15 26.6 31.8C23.65 28.91 21.61 32.39 23.43 34.42C25.03 36.2 31.98 36.09 31.98 36.09
           M34.66 49.67C34.66 49.67 33.94 35.15 37.37 31.8C40.31 28.91 42.36 32.39 40.54 34.43C38.94 36.2 31.98 36.09 31.98 36.09"
        transform="matrix(0.9117,0,0,0.9088,2.8368,1.0986)"
  />
  <linearGradient id="gradient2" gradientUnits="userSpaceOnUse" x1="44.13" y1="12.17" x2="44.13" y2="38.7">
   <stop offset="0" stop-color="#ffff80"/>
   <stop offset="1" stop-color="#ffd400"/>
  </linearGradient>
  <path style="fill:none; stroke:url(#gradient2); stroke-width:2"
        d="M32 4.35C32 3.26 32 2.17 32 1.08
           M43.42 6.46C43.89 5.47 44.35 4.49 44.82 3.5
           M51.21 12.79C52.13 12.21 53.06 11.64 53.99 11.06
           M20.57 6.46C20.1 5.47 19.64 4.49 19.17 3.5
           M12.78 12.79C11.86 12.21 10.93 11.64 10 11.06"
        transform="matrix(0.9117,0,0,0.9088,2.8368,1.0986)"
  />
 </g>
</svg>
