<?xml version="1.0" encoding="UTF-8" standalone="yes"?>
<svg version="1.1" width="64" height="64" color-interpolation="linearRGB"
     xmlns:svg="http://www.w3.org/2000/svg" xmlns="http://www.w3.org/2000/svg">
 <g>
  <path style="fill:none; stroke:#000000; stroke-opacity:0.4; stroke-width:5"
        d="M32 25C23.16 25 16 32.16 16 41C16 49.83 23.16 57 32 57C40.83 57 48 49.83 48 41C48 32.16 40.83 25 32 25z
           M35 26L45 5L52 12L41 28L35 26z
           M29 26L19 5L12 12L24 29L29 26z
           M25 4H39L36 11H28L25 4z"
        transform="matrix(1,0,0,1,2,2)"
  />
  <path style="fill:none; stroke:#003f80; stroke-width:4"
        d="M35 26L45 5L52 12L41 28L35 26z
           M29 26L19 5L12 12L24 29L29 26z
           M25 4H39L36 11H28L25 4z"
  />
  <linearGradient id="gradient0" gradientUnits="userSpaceOnUse" x1="51.79" y1="2.8" x2="51.8" y2="27.82">
   <stop offset="0" stop-color="#b3d8ff"/>
   <stop offset="1" stop-color="#006cd9"/>
  </linearGradient>
  <path style="fill:url(#gradient0)"
        d="M35 26L45 5L52 12L41 28L35 26z
           M29 26L19 5L12 12L24 29L29 26z
           M25 4H39L36 11H28L25 4z"
  />
  <path style="fill:none; stroke:#bf5000; stroke-width:5"
        d="M32 25C23.16 25 16 32.16 16 41C16 49.83 23.16 57 32 57C40.83 57 48 49.83 48 41C48 32.16 40.83 25 32 25z"
  />
  <linearGradient id="gradient1" gradientUnits="userSpaceOnUse" x1="68.29" y1="17.97" x2="70.6" y2="44.25">
   <stop offset="0" stop-color="#fefff8"/>
   <stop offset="1" stop-color="#ffd400"/>
  </linearGradient>
  <path style="fill:url(#gradient1)"
        d="M32 25C23.16 25 16 32.16 16 41C16 49.83 23.16 57 32 57C40.83 57 48 49.83 48 41C48 32.16 40.83 25 32 25z"
  />
  <path style="fill:none; stroke:#000000; stroke-opacity:0.4; stroke-width:3; stroke-linecap:round"
        d="M29 36L32 33V48
           M29 50H35"
        transform="matrix(1,0,0,1,-1,-1)"
  />
  <path style="fill:none; stroke:#bf5000; stroke-width:3; stroke-linecap:round"
        d="M29 36L32 33V48
           M29 50H35"
  />
 </g>
</svg>
