<?xml version="1.0" encoding="UTF-8" standalone="yes"?>
<svg version="1.1" width="64" height="64" color-interpolation="linearRGB"
     xmlns:svg="http://www.w3.org/2000/svg" xmlns="http://www.w3.org/2000/svg">
 <g>
  <path style="fill:none; stroke:#010101; stroke-opacity:0.345; stroke-width:5"
        d="M34.9 17.45C34.3 18.73 33.7 20 33.1 21.28C31.76 21.48 30.42 21.69 29.09 21.89C30.06 22.89 31.03 23.88 32 24.88C31.77 26.28 31.54 27.68 31.31 29.09C32.51 28.42 33.71 27.76 34.9 27.1C36.1 27.76 37.3 28.42 38.5 29.09C38.27 27.68 38.04 26.28 37.81 24.88C38.78 23.88 39.75 22.89 40.72 21.89C39.38 21.69 38.04 21.48 36.71 21.28C36.1 20 35.5 18.73 34.9 17.45V17.45V17.45z
           M34.9 14.54C39.74 14.54 43.63 18.43 43.63 23.27C43.63 28.1 39.74 32 34.9 32C30.07 32 26.18 28.1 26.18 23.27C26.18 18.43 30.07 14.54 34.9 14.54V14.54V14.54z
           M34.9 11.63C28.46 11.63 23.27 16.82 23.27 23.27C23.27 27.58 25.62 31.29 29.09 33.3C29.09 41.59 29.09 49.89 29.09 58.18C31.03 56.24 32.96 54.3 34.9 52.36C36.84 54.3 38.78 56.24 40.72 58.18C40.72 49.89 40.72 41.59 40.72 33.3C44.19 31.29 46.54 27.58 46.54 23.27C46.54 16.82 41.35 11.63 34.9 11.63V11.63V11.63z"
        transform="matrix(1.033,0,0,1.0344,-1.62,-2.2112)"
  />
  <path style="fill:none; stroke:#010101; stroke-width:5"
        d="M34.9 17.45C34.3 18.73 33.7 20 33.1 21.28C31.76 21.48 30.42 21.69 29.09 21.89C30.06 22.89 31.03 23.88 32 24.88C31.77 26.28 31.54 27.68 31.31 29.09C32.51 28.42 33.71 27.76 34.9 27.1C36.1 27.76 37.3 28.42 38.5 29.09C38.27 27.68 38.04 26.28 37.81 24.88C38.78 23.88 39.75 22.89 40.72 21.89C39.38 21.69 38.04 21.48 36.71 21.28C36.1 20 35.5 18.73 34.9 17.45V17.45V17.45z
           M34.9 14.54C39.74 14.54 43.63 18.43 43.63 23.27C43.63 28.1 39.74 32 34.9 32C30.07 32 26.18 28.1 26.18 23.27C26.18 18.43 30.07 14.54 34.9 14.54V14.54V14.54z
           M34.9 11.63C28.46 11.63 23.27 16.82 23.27 23.27C23.27 27.58 25.62 31.29 29.09 33.3C29.09 41.59 29.09 49.89 29.09 58.18C31.03 56.24 32.96 54.3 34.9 52.36C36.84 54.3 38.78 56.24 40.72 58.18C40.72 49.89 40.72 41.59 40.72 33.3C44.19 31.29 46.54 27.58 46.54 23.27C46.54 16.82 41.35 11.63 34.9 11.63V11.63V11.63z"
        transform="matrix(1.033,0,0,1.0344,-3.6861,-5.3145)"
  />
  <linearGradient id="gradient0" gradientUnits="userSpaceOnUse" x1="167.43" y1="7.42" x2="167.43" y2="54.09">
   <stop offset="0" stop-color="#ffff80"/>
   <stop offset="1" stop-color="#ffd500"/>
  </linearGradient>
  <path style="fill:url(#gradient0)"
        d="M34.9 11.63C28.46 11.63 23.27 16.82 23.27 23.27C23.27 27.58 25.62 31.29 29.09 33.3C29.09 41.59 29.09 49.89 29.09 58.18C31.03 56.24 32.96 54.3 34.9 52.36C36.84 54.3 38.78 56.24 40.72 58.18C40.72 49.89 40.72 41.59 40.72 33.3C44.19 31.29 46.54 27.58 46.54 23.27C46.54 16.82 41.35 11.63 34.9 11.63V11.63V11.63z
           M34.9 14.54C39.74 14.54 43.63 18.43 43.63 23.27C43.63 28.1 39.74 32 34.9 32C30.07 32 26.18 28.1 26.18 23.27C26.18 18.43 30.07 14.54 34.9 14.54V14.54V14.54z
           M34.9 17.45C34.3 18.73 33.7 20 33.1 21.28C31.76 21.48 30.42 21.69 29.09 21.89C30.06 22.89 31.03 23.88 32 24.88C31.77 26.28 31.54 27.68 31.31 29.09C32.51 28.42 33.71 27.76 34.9 27.1C36.1 27.76 37.3 28.42 38.5 29.09C38.27 27.68 38.04 26.28 37.81 24.88C38.78 23.88 39.75 22.89 40.72 21.89C39.38 21.69 38.04 21.48 36.71 21.28C36.1 20 35.5 18.73 34.9 17.45V17.45V17.45z"
        transform="matrix(1.033,0,0,1.0344,-3.6861,-5.3145)"
  />
  <linearGradient id="gradient1" gradientUnits="userSpaceOnUse" x1="162.06" y1="7.43" x2="162.06" y2="54.08">
   <stop offset="0" stop-color="#ffabab"/>
   <stop offset="1" stop-color="#d90000"/>
  </linearGradient>
  <path style="fill:url(#gradient1)"
        d="M29.09 33.3C29.09 41.59 29.09 49.89 29.09 58.18C31.03 56.24 32.96 54.3 34.9 52.36C36.84 54.3 38.78 56.24 40.72 58.18C40.72 49.89 40.72 41.59 40.72 33.3C40 32 38 31 34 31C30 31 29.04 33.16 29.09 33.3z"
        transform="matrix(1.033,0,0,1.0344,-3.6861,-5.3145)"
  />
 </g>
</svg>
