<?xml version="1.0" encoding="UTF-8" standalone="yes"?>
<svg version="1.1" width="64" height="64" color-interpolation="linearRGB"
     xmlns:svg="http://www.w3.org/2000/svg" xmlns="http://www.w3.org/2000/svg">
 <g>
  <path style="fill:none; stroke:#010101; stroke-opacity:0.5686; stroke-width:4"
        d="M32.02 1.9C42.02 1.9 50.13 10.02 50.13 20.03C50.13 30.04 42.02 38.15 32.02 38.15C22.01 38.15 13.89 30.04 13.89 20.03C13.89 10.02 22.01 1.9 32.02 1.9V1.9V1.9z"
        transform="matrix(1.3976,0,0,1.3976,-10.7314,6.0358)"
  />
  <path style="fill:none; stroke:#161616; stroke-width:4"
        d="M32.02 1.9C42.02 1.9 50.13 10.02 50.13 20.03C50.13 30.04 42.02 38.15 32.02 38.15C22.01 38.15 13.89 30.04 13.89 20.03C13.89 10.02 22.01 1.9 32.02 1.9V1.9V1.9z"
        transform="matrix(1.3976,0,0,1.3976,-12.7314,4.0358)"
  />
  <radialGradient id="gradient0" gradientUnits="userSpaceOnUse" cx="0" cy="0" r="64" gradientTransform="matrix(0,-0.3803,-0.3803,0,23.5321,21.0147)">
   <stop offset="0.1931" stop-color="#33ffff"/>
   <stop offset="0.7878" stop-color="#0066ff"/>
   <stop offset="1" stop-color="#0034cc"/>
  </radialGradient>
  <path style="fill:url(#gradient0)"
        d="M32.02 1.9C42.02 1.9 50.13 10.02 50.13 20.03C50.13 30.04 42.02 38.15 32.02 38.15C22.01 38.15 13.89 30.04 13.89 20.03C13.89 10.02 22.01 1.9 32.02 1.9V1.9V1.9z"
        transform="matrix(1.3976,0,0,1.3976,-12.7314,4.0358)"
  />
  <radialGradient id="gradient1" gradientUnits="userSpaceOnUse" cx="0" cy="0" r="64" gradientTransform="matrix(0,-0.3803,-0.3803,0,23.5321,17.0147)">
   <stop offset="0.33" stop-color="#09b4b6"/>
   <stop offset="0.85" stop-color="#033784"/>
   <stop offset="1" stop-color="#051d61"/>
  </radialGradient>
  <path style="fill:url(#gradient1)"
        d="M47.33 10.32C44.65 6.09 40.22 3.1 35.29 2.2C34.22 2 33.11 1.9 32.02 1.9C26.94 1.9 22.01 4.09 18.6 7.86C14.98 11.84 13.31 17.3 14.09 22.62C14.5 25.12 14.75 25.87 15.4 27.28C17.22 31.44 20.62 34.83 24.79 36.65C29.54 38.72 35.09 38.63 39.77 36.4C39.58 35.54 38.84 35.5 38.11 35.43C38.08 35.43 38.05 35.43 38.02 35.43C38.11 35.45 38.2 35.47 38.29 35.5C37.7 35.36 37.18 35.63 36.63 35.79C36 35.97 35.34 35.88 34.7 35.81C33.41 35.66 31.84 35.41 30.77 36.34C30.7 36.34 30.64 36.34 30.64 36.34C30.57 36.34 30.5 36.34 30.43 36.34C30.43 36.34 27.95 36.34 27.43 36.34C26.9 35.97 26.42 35.86 25.95 35.83C25.92 35.79 25.7 35.56 25.7 35.56C25.57 35.4 25.46 35.31 25.29 35.25C24.92 35.13 24.56 35.01 24.2 34.88C23.82 34.75 23.44 34.61 23.06 34.47C22.96 34.43 22.87 34.43 22.77 34.41C22.75 34.38 22.76 34.33 22.72 34.29C22.64 34.15 22.56 34.03 22.47 33.9C22.14 33.31 21.78 32.74 21.09 32.59C21.18 32.22 21.04 31.89 20.94 31.54C20.81 31.14 20.79 30.72 20.8 30.31C20.81 30.19 20.82 30.07 20.84 29.95C20.87 29.45 20.9 28.95 20.82 28.45C21.62 27.55 21.8 26.64 21.73 25.47C21.73 25.33 21.72 25.19 21.71 25.04C21.71 24.42 21.71 24.34 21.92 24.06C21.95 24.02 21.99 23.97 22.03 23.93C22.59 23.19 23.47 21.7 22.29 21.04C21.31 20.51 20.34 19.98 19.36 19.45C19.36 19.45 18.97 19.28 18.93 19.25V19.22C18.9 18.37 18.61 17.77 17.92 17.26L17.73 17.12C17.73 17.12 17.48 16.79 17.48 16.79C17.24 16.5 17 16.21 16.76 15.92C16.29 15.47 15.85 15.34 15.44 15.31C15.42 15.22 15.36 15.14 15.31 15.07C16.35 14.64 16.82 13.5 17.22 12.53C17.46 11.97 17.67 11.35 18.1 10.89C18.48 10.47 18.85 10.1 18.75 9.47C19.56 9.14 20.31 8.72 21.03 8.31C21.06 8.28 21.09 8.27 21.12 8.25C21.6 7.95 22.09 7.65 22.56 7.36C23.57 6.76 24.04 5.94 24.37 4.82C24.98 4.88 25.54 4.73 25.95 4.51C26.73 4.98 28.01 5.01 28.67 4.32C28.7 4.32 28.81 4.3 28.94 4.3C28.55 5.09 28.94 6.17 29.8 6.5C29.84 6.53 29.85 6.61 29.88 6.63C29.71 6.69 29.54 6.76 29.54 6.76C29.28 7.05 29.01 7.36 28.75 7.65C28.56 8.21 28.75 8.77 29.02 9.27C29.03 9.28 29.04 9.35 29.04 9.35C29.05 9.44 29.09 9.59 29.13 9.75C29.05 9.85 28.97 9.93 28.97 9.93C28.18 10.89 26.88 11.11 26.53 12.46C26.51 12.52 26.49 12.57 26.47 12.64C26.06 13.17 25.96 13.81 26.34 14.39C26.29 14.47 26.27 14.53 26.27 14.53C25.94 15.14 25.65 15.82 25.85 16.51C26.04 17.18 26.59 17.67 27.1 18.1C27.6 18.53 28.11 18.96 28.73 19.2C29.46 19.48 30.29 19.43 31.04 19.23C31.29 19.15 31.55 19.07 31.8 19C32.15 18.87 32.52 18.7 32.9 18.73C33.31 18.78 33.61 19.1 33.91 19.36C33.38 20.71 34.4 22.06 35.02 23.23C35.02 23.23 35.15 23.46 35.2 23.54C34.45 24.89 34.36 26.39 35.52 27.54C35.55 27.57 35.59 27.62 35.63 27.65C35.61 28.77 35.65 30.72 37.06 31.06C38.52 31.4 39.97 30.6 40.86 29.5C40.97 29.36 41.09 29.22 41.2 29.09C41.3 29.01 41.39 28.94 41.49 28.87C41.79 28.64 42.13 28.38 42.31 28.04C42.49 27.69 42.5 27.25 42.75 26.92C42.75 26.92 42.75 26.92 42.75 26.93C42.79 27.62 43.45 28.12 44.13 28.01C44.97 27.87 45.47 26.96 45.81 26.28C45.86 26.18 45.92 26.07 45.97 25.97C45.98 25.95 45.99 25.93 46 25.9C46.41 25.2 46.72 24.3 46.2 23.56C45.75 22.93 44.86 22.76 44.25 23.29C44.25 23.07 44.25 22.87 44.25 22.87C44.27 22.44 44.27 22.01 44.29 21.57C44.31 21.38 44.72 20.98 44.93 20.77C45.01 20.7 45.08 20.62 45.15 20.55C45.23 20.48 45.31 20.42 45.38 20.35C45.84 19.95 46.29 19.51 46.45 18.89C46.54 18.63 46.49 18.2 46.5 17.92C46.5 17.85 46.5 17.78 46.5 17.71C46.5 17.68 46.5 17.65 46.5 17.62C46.56 17.03 46.47 16.43 46 16.02C46.52 15.69 46.9 15.15 47.06 14.47C47.09 14.52 47.15 14.65 47.15 14.65C47.31 14.96 47.5 15.31 47.84 15.64C47.79 16.38 48.06 17.09 48.38 17.73C48.72 18.37 48.79 19.09 48.77 19.79C48.78 20.03 48.79 20.27 48.79 20.51C48.81 20.87 48.86 21.27 48.75 21.63C48.66 21.97 48.49 22.29 48.4 22.62C48.18 23.4 48.11 24.22 48.11 25.04C48 25.7 48.38 26.34 48.93 26.54C50.97 21.23 50.38 15.14 47.33 10.32V10.32V10.32z"
        transform="matrix(1.3976,0,0,1.3976,-12.7314,4.0358)"
  />
  <radialGradient id="gradient2" gradientUnits="userSpaceOnUse" cx="0" cy="0" r="64" gradientTransform="matrix(0,0.4477,-0.4477,0,26.4916,10.4363)">
   <stop offset="0" stop-color="#ffffff"/>
   <stop offset="0.2991" stop-color="#00ff00"/>
   <stop offset="0.5643" stop-color="#00b200"/>
   <stop offset="1" stop-color="#008000"/>
  </radialGradient>
  <path style="fill:url(#gradient2)"
        d="M20.89 33.66C20.76 33.77 20.62 33.93 20.45 33.97C20.9 34.36 21.39 34.72 21.89 35.06C21.51 34.63 21.37 34.02 20.89 33.66
           M22.76 5.76C23.07 5.25 23.28 4.67 23.42 4.07C21.34 5.19 19.48 6.73 17.98 8.56C18.89 8.27 19.72 7.76 20.54 7.26C20.95 7.03 21.35 6.78 21.73 6.53C22.06 6.32 22.54 6.09 22.76 5.76
           M37.83 36.54C36.38 37.56 34.16 36.65 32.52 36.83C32.15 36.86 31.79 36.93 31.51 37.2C31.12 37.52 30.95 37.47 30.43 37.47C29.31 37.47 28.2 37.47 27.1 37.47C29.5 38.13 32.04 38.31 34.5 37.97C35.68 37.81 36.84 37.54 37.97 37.16C38.06 37.13 38.9 36.68 38.59 36.58C38.36 36.49 38.06 36.63 37.83 36.54
           M45.06 24.05C44.72 24.45 44.29 24.76 44.04 25.21C43.74 25.73 43.88 26.36 43.88 26.93C44.45 26.67 44.7 25.92 44.99 25.42C45.2 25.04 45.65 24.31 45.06 24.05
           M40.16 8.14C39.9 8.18 39.91 7.75 39.72 7.65C39.38 7.46 38.97 7.67 38.68 7.84C37.68 8.38 37.97 7.25 38.18 6.69C38.2 6.61 38.84 6.71 38.95 6.71C39.27 6.65 39.77 6.51 40.02 6.8C40.27 7.09 40.45 7.36 40.74 7.61C41.09 7.94 40.43 8.11 40.16 8.14
           M50.11 18.94C49.84 16.17 49.04 13.43 47.68 11C46.99 9.76 46.15 8.6 45.16 7.57C44.68 7.05 44.18 6.57 43.63 6.13C43.47 5.98 43.29 5.73 43.06 5.86C42.84 5.98 42.68 5.57 42.74 5.42C40.36 3.68 37.58 2.52 34.66 2.09C35.09 2.39 35.61 2.35 36.06 2.54C36.22 2.6 36.7 2.86 36.31 2.99C35.58 3.24 34.74 2.94 33.97 2.99C33.5 3.02 33.29 3.19 33.25 3.67C33.22 3.93 33.15 4.44 33.25 4.69C33.36 4.98 34.27 4.61 34.4 4.46C34.63 4.19 34.36 3.6 34.99 3.78C35.22 4.26 35.7 5.61 34.65 5.26C34.4 5.17 33.9 4.73 33.63 4.86C33.61 4.88 33.56 5.21 33.54 5.25C33.45 5.4 33.29 5.51 33.11 5.57C32.36 5.76 31.84 5.88 31.56 6.67C31.44 7.07 31.45 7.3 31.02 7.46C30.7 7.57 30.34 7.63 30.03 7.78C29.61 7.98 29.89 8.53 30.05 8.81C30.17 9.02 30.14 9.48 30.36 9.6C30.98 9.97 31.71 8.56 31.97 8.23C32.31 7.78 32.7 7.9 33.18 7.73C33.4 7.67 33.68 7.11 33.91 7.19C34.7 7.5 34.93 8.43 35.04 9.15C35.29 9.15 35.13 8.56 35.65 8.69C35.27 8.27 35 7.71 34.93 7.13C35.5 7.5 35.88 7.88 36.06 8.52C36.24 9.14 36.52 9.48 37.04 8.85C37.16 8.72 37.34 7.88 37.61 8.13C37.84 8.32 37.84 9.01 37.5 9.1C37.7 9.27 37.97 9.19 38.2 9.14C38.52 9.06 38.7 9.07 39 9.19C39.36 9.32 39.72 9.38 40.09 9.39C40.47 9.42 40.68 9.76 40.84 10.03C41.31 10.81 38.52 10.48 38.38 10.47C38.04 10.46 37.65 10.46 37.34 10.57C37.11 10.68 36.93 11 36.63 10.89C36.31 10.8 36.02 10.51 35.75 10.32C35.36 10.07 34.97 9.85 34.56 9.67C33.86 9.35 33.09 9.17 32.34 9.31C31.98 9.39 31.64 9.55 31.36 9.77C31.01 10.02 30.62 9.8 30.29 10.15C29.76 10.69 29.38 11.35 28.69 11.69C28.39 11.84 28.05 11.96 27.86 12.21C27.64 12.47 27.64 12.81 27.51 13.1C27.37 13.39 27.07 13.52 27.31 13.85C27.53 14.14 27.59 14.38 27.44 14.72C27.22 15.22 26.64 15.9 27.06 16.45C27.46 17 28.18 17.53 28.7 17.92C29.31 18.37 30.06 18.31 30.76 18.13C31.39 17.96 32.04 17.65 32.72 17.61C33.56 17.54 34.2 18.07 34.79 18.61C35.18 18.95 35.33 19.1 35.02 19.59C34.7 20.14 34.9 20.54 35.16 21.09C35.43 21.62 35.72 22.17 36 22.69C36.13 22.92 36.31 23.12 36.4 23.37C36.52 23.64 36.34 23.8 36.2 24.04C35.93 24.53 35.75 25.07 35.75 25.63C35.75 26.26 36.04 26.46 36.43 26.87C36.79 27.22 36.77 27.87 36.75 28.34C36.7 28.98 36.9 29.44 37.27 29.95C37.86 29.97 38.45 29.94 38.99 29.69C39.63 29.37 39.91 28.78 40.4 28.29C40.86 27.84 41.33 27.79 41.47 27.11C41.63 26.29 42.06 25.97 42.65 25.47C43.18 25.02 43.11 24.36 43.13 23.71C43.15 22.97 43.06 22.17 43.15 21.43C43.25 20.76 43.9 20.21 44.34 19.77C44.68 19.43 45.22 19.1 45.34 18.61C45.41 18.35 45.36 18 45.36 17.71C45.36 17.52 45.43 17.19 45.34 17C45.09 16.47 44.02 16.98 43.9 16.51C43.81 16.21 43.84 16.27 44.02 16.09C44.25 15.89 44.02 15.68 43.84 15.57C43.31 15.27 42.9 15.06 42.52 14.56C42.15 14.09 41.86 13.56 41.56 13.05C41.5 12.92 40.79 11.51 41.2 11.64C41.65 11.78 42.06 12.31 42.38 12.65C42.9 13.23 43.4 13.89 43.72 14.6C43.74 14.68 44.06 14.86 44.13 14.92C44.38 15.1 44.65 15.23 44.95 15.22C45.66 15.15 46 14.52 46.06 13.88C46.13 13.01 45.45 13.18 44.93 12.77C44.65 12.53 44.45 12.21 44.22 11.92C44.06 11.75 43.66 11.47 43.81 11.18C44.11 10.98 44.22 11.17 44.52 11.34C44.86 11.55 45.22 11.72 45.61 11.85C46 11.97 46.59 11.85 46.93 12.11C47.15 12.27 47.29 12.64 47.43 12.85C47.66 13.21 47.88 13.56 48.06 13.93C48.36 14.52 48.43 14.9 49.13 15.11C48.7 15.85 49.13 16.7 49.47 17.36C49.88 18.15 49.91 18.93 49.9 19.8C49.9 20.61 50.09 21.53 49.72 22.28C49.33 23.1 49.25 24.2 49.25 25.12C49.25 25.06 49.27 24.98 49.31 24.94C49.27 25.01 49.15 25.46 49.25 25.48C49.43 25.53 49.74 23.81 49.77 23.62C50.09 22.09 50.2 20.51 50.11 18.94
           M17.62 9.8C17.69 9.56 17.54 9.47 17.39 9.32C16.34 10.77 15.48 12.39 14.89 14.09C16.29 13 16.19 10.89 17.62 9.8
           M30.63 5.82C30.95 5.84 31.31 6.05 31.62 5.92C32.13 5.73 31.64 4.96 31.44 4.75C31.29 4.59 30.56 3.86 30.7 4.51C30.79 4.94 31.17 5.53 30.63 5.82
           M26.02 3.13C26.36 3.35 26.38 3.57 26.82 3.66C27.13 3.72 27.62 3.78 27.86 3.52C28.44 2.93 29.34 3.35 30.02 2.94C30.55 2.6 31.01 1.94 31.7 1.94C32.13 1.92 32.4 2.2 32.75 2.39C33.22 2.65 33.59 2.16 34.02 2.01C30.69 1.64 27.27 2.22 24.21 3.67C24.89 3.86 25.5 3.53 26.02 3.13
           M19.57 28.17C19.87 27.78 20.26 27.45 20.47 27.02C20.73 26.46 20.59 25.63 20.59 25.04C20.59 24.36 20.59 23.96 21.02 23.38C21.32 22.95 21.65 22.59 21.75 22.04C20.78 21.51 19.8 20.96 18.82 20.45C18.57 20.31 18.01 20.15 17.87 19.87C17.71 19.47 17.87 18.97 17.69 18.61C17.54 18.31 17.1 18.12 16.87 17.86C16.57 17.5 16.34 17.07 15.98 16.75C15.64 16.44 15.32 16.29 14.89 16.52C14.43 16.78 14.46 16.06 14.4 15.76C14.28 16.27 14.18 16.79 14.1 17.3C14.52 17.3 14.47 17.43 14.47 17.82C14.48 18.22 14.5 18.62 14.52 19.04C14.59 19.2 14.53 19.29 14.36 19.29C14.31 19.31 14.27 19.34 14.21 19.36C14.1 19.44 14.03 19.43 13.98 19.32C13.82 19.31 13.93 21.1 13.94 21.25C13.98 21.81 13.93 23.63 14.76 23.36C15.18 23.64 15.11 24.35 15.4 24.76C15.75 25.25 16.19 25.5 16.37 26.11C16.54 26.72 16.54 27.37 16.64 28.01C16.78 28.79 17.2 29.07 17.79 29.55C17.93 30.37 18.17 30.88 18.71 31.52C18.96 31.79 19.21 32.08 19.45 32.38C19.69 32.68 19.79 32.68 20.04 32.34C19.72 31.7 19.63 30.96 19.68 30.26C19.71 29.57 19.87 28.8 19.57 28.17"
        transform="matrix(1.3976,0,0,1.3976,-12.7314,4.0358)"
  />
 </g>
</svg>
