<?xml version="1.0" encoding="UTF-8" standalone="yes"?>
<svg version="1.1" width="64" height="64" color-interpolation="linearRGB"
     xmlns:svg="http://www.w3.org/2000/svg" xmlns="http://www.w3.org/2000/svg">
 <g>
  <path style="fill:none; stroke:#010101; stroke-width:4"
        d="M28 2C13.64 2 2 13.64 2 28C2 42.34 13.64 54 28 54C42.34 54 54 42.34 54 28C54 13.64 42.34 2 28 2z"
        transform="matrix(1.0531,0,0,1.0755,2.0677,2.0182)"
  />
  <radialGradient id="gradient0" gradientUnits="userSpaceOnUse" cx="0" cy="0" r="64" gradientTransform="matrix(0.5396,0,0,0.5396,19.5286,19.4461)">
   <stop offset="0" stop-color="#d9ecff"/>
   <stop offset="0.7655" stop-color="#007fff"/>
   <stop offset="1" stop-color="#0061bf"/>
  </radialGradient>
  <path style="fill:url(#gradient0)"
        d="M28 2C13.64 2 2 13.64 2 28C2 42.34 13.64 54 28 54C42.34 54 54 42.34 54 28C54 13.64 42.34 2 28 2z"
        transform="matrix(1.0531,0,0,1.0755,2.0677,2.0182)"
  />
  <radialGradient id="gradient1" gradientUnits="userSpaceOnUse" cx="0" cy="0" r="64" gradientTransform="matrix(0.4771,0,0,0.4771,28.163,28.0804)">
   <stop offset="0.7178" stop-color="#ffffff" stop-opacity="0.7803"/>
   <stop offset="0.9926" stop-color="#ffffff" stop-opacity="0"/>
  </radialGradient>
  <path style="fill:url(#gradient1)"
        d="M38.95 52.9C49.86 59.43 62.68 39.75 40.02 14.03C17.37 -11.67 6.57 4.32 8.72 8.64C6.42 4.46 17.37 -8.88 38.95 14.97C60.54 38.86 49.81 59.38 38.95 52.9z"
        transform="matrix(1.0531,0,0,1.0755,2.0677,2.0182)"
  />
  <radialGradient id="gradient2" gradientUnits="userSpaceOnUse" cx="0" cy="0" r="64" gradientTransform="matrix(0.4771,0,0,0.4771,28.163,28.0804)">
   <stop offset="0.7178" stop-color="#ffffff" stop-opacity="0.7803"/>
   <stop offset="0.9926" stop-color="#ffffff" stop-opacity="0"/>
  </radialGradient>
  <path style="fill:url(#gradient2)"
        d="M9.81 47.5C3.86 58.36 18.44 52.9 34.63 33.47C50.81 14.03 54.06 -1.05 44.34 6.48C54.13 -1.05 48.52 14.43 33.4 32.52C18.29 50.59 3.94 58.56 9.81 47.5z"
        transform="matrix(1.0531,0,0,1.0755,2.0677,2.0182)"
  />
  <radialGradient id="gradient3" gradientUnits="userSpaceOnUse" cx="0" cy="0" r="64" gradientTransform="matrix(0.4771,0,0,0.4771,28.163,28.0804)">
   <stop offset="0.7178" stop-color="#ffffff" stop-opacity="0.7803"/>
   <stop offset="0.9926" stop-color="#ffffff" stop-opacity="0"/>
  </radialGradient>
  <path style="fill:url(#gradient3)"
        d="M53.16 18.2C62.7 24.03 61.61 44.27 29.23 48.58C-3.13 52.9 -4.21 33.47 1.17 29.14C-4.21 33.59 -1.24 51.54 29.1 47.22C59.45 42.91 62.43 23.88 53.16 18.2z"
        transform="matrix(1.0531,0,0,1.0755,2.0677,2.0182)"
  />
 </g>
</svg>
