<?xml version="1.0" encoding="UTF-8" standalone="yes"?>
<svg version="1.1" width="64" height="64" color-interpolation="linearRGB"
     xmlns:svg="http://www.w3.org/2000/svg" xmlns="http://www.w3.org/2000/svg">
 <g>
  <path style="fill:none; stroke:#010101; stroke-width:4.2574"
        d="M31.55 4.16C16.43 4.16 4.17 16.68 4.17 32.13C4.17 47.55 16.43 60.09 31.55 60.09C46.65 60.09 58.93 47.55 58.93 32.13C58.93 16.68 46.65 4.16 31.55 4.16z"
        transform="matrix(0.8727,0,0,0.9007,4.0917,3.1738)"
  />
  <radialGradient id="gradient0" gradientUnits="userSpaceOnUse" cx="0" cy="0" r="64" gradientTransform="matrix(0.5682,0,0,0.5803,22.6332,22.9324)">
   <stop offset="0" stop-color="#d9ecff"/>
   <stop offset="0.7655" stop-color="#007fff"/>
   <stop offset="1" stop-color="#0061bf"/>
  </radialGradient>
  <path style="fill:url(#gradient0)"
        d="M31.55 4.16C16.43 4.16 4.17 16.68 4.17 32.13C4.17 47.55 16.43 60.09 31.55 60.09C46.65 60.09 58.93 47.55 58.93 32.13C58.93 16.68 46.65 4.16 31.55 4.16z"
        transform="matrix(0.8727,0,0,0.9007,4.0917,3.1738)"
  />
  <radialGradient id="gradient1" gradientUnits="userSpaceOnUse" cx="0" cy="0" r="64" gradientTransform="matrix(0.5024,0,0,0.5131,31.7261,32.2186)">
   <stop offset="0.7178" stop-color="#ffffff" stop-opacity="0.7803"/>
   <stop offset="0.9926" stop-color="#ffffff" stop-opacity="0"/>
  </radialGradient>
  <path style="fill:url(#gradient1)"
        d="M43.08 58.91C54.57 65.93 68.07 44.76 44.21 17.1C20.36 -10.53 8.98 6.66 11.25 11.31C8.82 6.81 20.36 -7.53 43.08 18.11C65.82 43.81 54.52 65.88 43.08 58.91z"
        transform="matrix(0.8727,0,0,0.9007,4.0917,3.1738)"
  />
  <radialGradient id="gradient2" gradientUnits="userSpaceOnUse" cx="0" cy="0" r="64" gradientTransform="matrix(0.5024,0,0,0.5131,31.7261,32.2186)">
   <stop offset="0.7178" stop-color="#ffffff" stop-opacity="0.7803"/>
   <stop offset="0.9926" stop-color="#ffffff" stop-opacity="0"/>
  </radialGradient>
  <path style="fill:url(#gradient2)"
        d="M12.39 53.1C6.13 64.78 21.48 58.91 38.53 38.01C55.57 17.1 58.99 0.88 48.76 8.98C59.07 0.88 53.16 17.53 37.24 36.99C21.32 56.42 6.21 64.99 12.39 53.1z"
        transform="matrix(0.8727,0,0,0.9007,4.0917,3.1738)"
  />
  <radialGradient id="gradient3" gradientUnits="userSpaceOnUse" cx="0" cy="0" r="64" gradientTransform="matrix(0.5024,0,0,0.5131,31.7261,32.2186)">
   <stop offset="0.7178" stop-color="#ffffff" stop-opacity="0.7803"/>
   <stop offset="0.9926" stop-color="#ffffff" stop-opacity="0"/>
  </radialGradient>
  <path style="fill:url(#gradient3)"
        d="M58.05 21.59C68.09 27.86 66.94 49.63 32.84 54.26C-1.22 58.91 -2.36 38.01 3.29 33.35C-2.36 38.14 0.76 57.44 32.71 52.8C64.67 48.16 67.81 27.7 58.05 21.59z"
        transform="matrix(0.8727,0,0,0.9007,4.0917,3.1738)"
  />
 </g>
</svg>
