<?xml version="1.0" encoding="UTF-8" standalone="yes"?>
<svg version="1.1" width="64" height="64" color-interpolation="linearRGB"
     xmlns:svg="http://www.w3.org/2000/svg" xmlns="http://www.w3.org/2000/svg">
 <g>
  <path style="fill:none; stroke:#000000; stroke-opacity:0.4; stroke-width:5.636; stroke-linecap:round; stroke-linejoin:round"
        d="M26.36 46.08V60.17L48.9 34.81V60.17H60.17V6.63H48.9V31.99L26.36 6.63V20.72H6.63V46.08H26.36z"
        transform="matrix(0.8701,0,0,0.8701,4.1783,4.1783)"
  />
  <path style="fill:none; stroke:#005900; stroke-width:5.636; stroke-linecap:round; stroke-linejoin:round"
        d="M23.54 43.27V57.36L46.08 31.99V57.36H57.36V3.81H46.08V29.18L23.54 3.81V17.9H3.81V43.27H23.54z"
        transform="matrix(0.8873,0,0,0.8873,4.1126,4.1126)"
  />
  <linearGradient id="gradient0" gradientUnits="userSpaceOnUse" x1="181.35" y1="3.8" x2="181.35" y2="57.36">
   <stop offset="0" stop-color="#80ff80"/>
   <stop offset="1" stop-color="#00b300"/>
  </linearGradient>
  <path style="fill:url(#gradient0)"
        d="M23.54 43.27V57.36L46.08 31.99V57.36H57.36V3.81H46.08V29.18L23.54 3.81V17.9H3.81V43.27H23.54z"
        transform="matrix(0.8873,0,0,0.8873,4.1126,4.1126)"
  />
 </g>
</svg>
