<?xml version="1.0" encoding="UTF-8" standalone="yes"?>
<svg version="1.1" width="64" height="64" color-interpolation="linearRGB"
     xmlns:svg="http://www.w3.org/2000/svg" xmlns="http://www.w3.org/2000/svg">
 <g>
  <path style="fill:none; stroke:#000000; stroke-opacity:0.4; stroke-width:4.91; stroke-linecap:round; stroke-linejoin:round"
        d="M56.55 33.21C48.36 25.44 40.18 17.67 32 9.89C32 16.85 32 23.8 32 30.76C24.63 23.8 17.26 16.85 9.9 9.89C9.9 25.44 9.9 40.99 9.9 56.54C17.26 49.58 24.63 42.63 32 35.67C32 42.63 32 49.58 32 56.54C40.18 48.77 48.36 40.99 56.55 33.21V33.21V33.21z"
  />
  <path style="fill:none; stroke:#005900; stroke-width:4.91; stroke-linecap:round; stroke-linejoin:round"
        d="M54.09 30.76C45.91 22.98 37.73 15.21 29.54 7.44C29.54 14.39 29.54 21.35 29.54 28.3C22.18 21.35 14.81 14.39 7.44 7.44C7.44 22.99 7.44 38.54 7.44 54.09C14.81 47.13 22.18 40.17 29.54 33.21C29.54 40.17 29.54 47.13 29.54 54.09C37.73 46.31 45.91 38.53 54.09 30.76V30.76V30.76z"
  />
  <linearGradient id="gradient0" gradientUnits="userSpaceOnUse" x1="51.04" y1="17.99" x2="51.23" y2="42.58">
   <stop offset="0" stop-color="#80ff80"/>
   <stop offset="1" stop-color="#00b200"/>
  </linearGradient>
  <path style="fill:url(#gradient0)"
        d="M54.09 30.76C45.91 22.98 37.73 15.21 29.54 7.44C29.54 14.39 29.54 21.35 29.54 28.3C22.18 21.35 14.81 14.39 7.44 7.44C7.44 22.99 7.44 38.54 7.44 54.09C14.81 47.13 22.18 40.17 29.54 33.21C29.54 40.17 29.54 47.13 29.54 54.09C37.73 46.31 45.91 38.53 54.09 30.76V30.76V30.76z"
  />
 </g>
</svg>
