<?xml version="1.0" encoding="UTF-8" standalone="yes"?>
<svg version="1.1" width="64" height="64" color-interpolation="linearRGB"
     xmlns:svg="http://www.w3.org/2000/svg" xmlns="http://www.w3.org/2000/svg">
 <g>
  <path style="fill:#010101; fill-opacity:0.349"
        d="M7.8 10.72C7.8 26.23 7.8 41.75 7.8 57.27C21.38 57.27 34.95 57.27 48.54 57.27C52.41 49.5 56.29 41.75 60.18 34C56.29 26.23 52.41 18.47 48.54 10.72C34.95 10.72 21.38 10.72 7.8 10.72
           M23.6 22.36C23.6 22.93 23.6 23.51 23.6 24.07C21.54 24.07 21.51 24.78 21.51 27.29C21.51 28.28 21.51 29.27 21.51 30.26C21.51 31.46 21.14 33.26 19.39 34C21.14 34.75 21.51 36.54 21.51 37.75C21.51 38.74 21.51 39.72 21.51 40.68C21.51 43.2 21.54 43.9 23.6 43.9C23.6 44.47 23.6 45.06 23.6 45.63C20.5 45.63 19.2 44.61 19.2 41.97C19.2 40.79 19.2 39.61 19.2 38.43C19.2 36.81 19.13 34.93 17.43 34.93C17.13 34.93 16.84 34.93 16.54 34.93C16.54 34.31 16.54 33.68 16.54 33.05C16.84 33.05 17.13 33.05 17.43 33.05C19.13 33.05 19.2 31.18 19.2 29.55C19.2 28.37 19.2 27.19 19.2 26.01C19.2 23.37 20.5 22.36 23.6 22.36
           M32.72 22.36C35.83 22.36 37.15 23.37 37.15 26.01C37.15 27.19 37.15 28.37 37.15 29.55C37.15 31.18 37.27 33.05 38.95 33.05C39.24 33.05 39.52 33.05 39.81 33.05C39.81 33.68 39.81 34.31 39.81 34.93C39.52 34.93 39.24 34.93 38.95 34.93C37.27 34.93 37.15 36.81 37.15 38.43C37.15 39.61 37.15 40.79 37.15 41.97C37.15 44.61 35.83 45.63 32.72 45.63C32.72 45.06 32.72 44.47 32.72 43.9C34.79 43.9 34.84 43.2 34.84 40.68C34.84 39.72 34.84 38.74 34.84 37.75C34.84 36.54 35.2 34.75 36.95 34C35.2 33.26 34.84 31.46 34.84 30.26C34.84 29.27 34.84 28.28 34.84 27.29C34.84 24.78 34.79 24.07 32.72 24.07C32.72 23.51 32.72 22.93 32.72 22.36"
        transform="matrix(1.0763,0,0,1.0859,-1.5965,-1.9211)"
  />
  <path style="fill:#010101"
        d="M5.8 8.72C5.8 24.23 5.8 39.75 5.8 55.27C19.38 55.27 32.95 55.27 46.54 55.27C50.41 47.5 54.29 39.75 58.18 32C54.29 24.23 50.41 16.47 46.54 8.72C32.95 8.72 19.38 8.72 5.8 8.72
           M21.6 20.36C21.6 20.93 21.6 21.51 21.6 22.07C19.54 22.07 19.51 22.78 19.51 25.29C19.51 26.28 19.51 27.27 19.51 28.26C19.51 29.46 19.14 31.26 17.39 32C19.14 32.75 19.51 34.54 19.51 35.75C19.51 36.74 19.51 37.72 19.51 38.68C19.51 41.2 19.54 41.9 21.6 41.9C21.6 42.47 21.6 43.06 21.6 43.63C18.5 43.63 17.2 42.61 17.2 39.97C17.2 38.79 17.2 37.61 17.2 36.43C17.2 34.81 17.13 32.93 15.43 32.93C15.13 32.93 14.84 32.93 14.53 32.93C14.53 32.31 14.53 31.68 14.53 31.05C14.84 31.05 15.13 31.05 15.43 31.05C17.13 31.05 17.2 29.18 17.2 27.55C17.2 26.37 17.2 25.19 17.2 24.01C17.2 21.37 18.5 20.36 21.6 20.36
           M30.72 20.36C33.83 20.36 35.15 21.37 35.15 24.01C35.15 25.19 35.15 26.37 35.15 27.55C35.15 29.18 35.27 31.05 36.95 31.05C37.24 31.05 37.52 31.05 37.81 31.05C37.81 31.68 37.81 32.31 37.81 32.93C37.52 32.93 37.24 32.93 36.95 32.93C35.27 32.93 35.15 34.81 35.15 36.43C35.15 37.61 35.15 38.79 35.15 39.97C35.15 42.61 33.83 43.63 30.72 43.63C30.72 43.06 30.72 42.47 30.72 41.9C32.79 41.9 32.84 41.2 32.84 38.68C32.84 37.72 32.84 36.74 32.84 35.75C32.84 34.54 33.2 32.75 34.95 32C33.2 31.26 32.84 29.46 32.84 28.26C32.84 27.27 32.84 26.28 32.84 25.29C32.84 22.78 32.79 22.07 30.72 22.07C30.72 21.51 30.72 20.93 30.72 20.36"
        transform="matrix(1.1145,0,0,1.1288,-3.6656,-4.1239)"
  />
  <path style="fill:#ffffff"
        d="M11 16C20.66 16.33 30.33 16.66 40 17C40.33 26.66 40.66 36.33 41 46C31.66 46.33 22.33 46.66 13 47C12.33 36.66 11.66 26.33 11 16V16V16z"
        transform="matrix(1,0,0,1,-1,1)"
  />
  <linearGradient id="gradient0" gradientUnits="userSpaceOnUse" x1="71.76" y1="16.57" x2="71.66" y2="52.66">
   <stop offset="0" stop-color="#d6d6d6"/>
   <stop offset="1" stop-color="#5c5c5c"/>
  </linearGradient>
  <path style="fill:url(#gradient0)"
        d="M5.8 8.72C5.8 24.23 5.8 39.75 5.8 55.27C19.38 55.27 32.95 55.27 46.54 55.27C50.41 47.5 54.29 39.75 58.18 32C54.29 24.23 50.41 16.47 46.54 8.72C32.95 8.72 19.38 8.72 5.8 8.72
           M21.6 20.36C21.6 20.93 21.6 21.51 21.6 22.07C19.54 22.07 19.51 22.78 19.51 25.29C19.51 26.28 19.51 27.27 19.51 28.26C19.51 29.46 19.14 31.26 17.39 32C19.14 32.75 19.51 34.54 19.51 35.75C19.51 36.74 19.51 37.72 19.51 38.68C19.51 41.2 19.54 41.9 21.6 41.9C21.6 42.47 21.6 43.06 21.6 43.63C18.5 43.63 17.2 42.61 17.2 39.97C17.2 38.79 17.2 37.61 17.2 36.43C17.2 34.81 17.13 32.93 15.43 32.93C15.13 32.93 14.84 32.93 14.53 32.93C14.53 32.31 14.53 31.68 14.53 31.05C14.84 31.05 15.13 31.05 15.43 31.05C17.13 31.05 17.2 29.18 17.2 27.55C17.2 26.37 17.2 25.19 17.2 24.01C17.2 21.37 18.5 20.36 21.6 20.36
           M30.72 20.36C33.83 20.36 35.15 21.37 35.15 24.01C35.15 25.19 35.15 26.37 35.15 27.55C35.15 29.18 35.27 31.05 36.95 31.05C37.24 31.05 37.52 31.05 37.81 31.05C37.81 31.68 37.81 32.31 37.81 32.93C37.52 32.93 37.24 32.93 36.95 32.93C35.27 32.93 35.15 34.81 35.15 36.43C35.15 37.61 35.15 38.79 35.15 39.97C35.15 42.61 33.83 43.63 30.72 43.63C30.72 43.06 30.72 42.47 30.72 41.9C32.79 41.9 32.84 41.2 32.84 38.68C32.84 37.72 32.84 36.74 32.84 35.75C32.84 34.54 33.2 32.75 34.95 32C33.2 31.26 32.84 29.46 32.84 28.26C32.84 27.27 32.84 26.28 32.84 25.29C32.84 22.78 32.79 22.07 30.72 22.07C30.72 21.51 30.72 20.93 30.72 20.36"
  />
 </g>
</svg>
