<?xml version="1.0" encoding="UTF-8" standalone="yes"?>
<svg version="1.1" width="64" height="64" color-interpolation="linearRGB"
     xmlns:svg="http://www.w3.org/2000/svg" xmlns="http://www.w3.org/2000/svg">
 <g>
  <path style="fill:#010101; fill-opacity:0.345"
        d="M63.17 7.71C63.17 25.23 63.17 42.74 63.17 60.26C48.04 60.26 32.91 60.26 17.78 60.26C13.45 51.5 9.13 42.74 4.8 33.99C9.13 25.23 13.45 16.47 17.78 7.71C32.91 7.71 48.04 7.71 63.17 7.71
           M45.57 20.85C45.57 21.5 45.57 22.15 45.57 22.8C47.87 22.8 47.9 23.59 47.9 26.43C47.9 27.54 47.9 28.66 47.9 29.77C47.9 31.13 48.3 33.16 50.25 34.01C48.3 34.84 47.9 36.87 47.9 38.24C47.9 39.35 47.9 40.45 47.9 41.55C47.9 44.39 47.9 45.18 45.57 45.18C45.57 45.83 45.57 46.48 45.57 47.12C49.03 47.12 50.48 45.97 50.48 43C50.48 41.67 50.48 40.33 50.48 39C50.48 37.17 50.54 35.04 52.45 35.04C52.78 35.04 53.11 35.04 53.44 35.04C53.44 34.34 53.44 33.63 53.44 32.93C53.11 32.93 52.78 32.93 52.45 32.93C50.54 32.93 50.48 30.81 50.48 28.98C50.48 27.65 50.48 26.31 50.48 24.97C50.48 22.01 49.03 20.85 45.57 20.85
           M35.4 20.85C31.94 20.85 30.47 22.01 30.47 24.97C30.47 26.31 30.47 27.65 30.47 28.98C30.47 30.81 30.34 32.93 28.45 32.93C28.14 32.93 27.82 32.93 27.51 32.93C27.51 33.63 27.51 34.34 27.51 35.04C27.82 35.04 28.14 35.04 28.45 35.04C30.34 35.04 30.47 37.17 30.47 39C30.47 40.33 30.47 41.67 30.47 43C30.47 45.97 31.94 47.12 35.4 47.12C35.4 46.48 35.4 45.83 35.4 45.18C33.09 45.18 33.03 44.39 33.03 41.55C33.03 40.45 33.03 39.35 33.03 38.24C33.03 36.87 32.63 34.84 30.69 34.01C32.63 33.16 33.03 31.13 33.03 29.77C33.03 28.66 33.03 27.54 33.03 26.43C33.03 23.59 33.09 22.8 35.4 22.8C35.4 22.15 35.4 21.5 35.4 20.85"
  />
  <path style="fill:#010101"
        d="M61.17 5.71C61.17 23.23 61.17 40.74 61.17 58.26C46.04 58.26 30.91 58.26 15.78 58.26C11.45 49.5 7.13 40.74 2.8 31.99C7.13 23.23 11.45 14.47 15.78 5.71C30.91 5.71 46.04 5.71 61.17 5.71
           M43.57 18.85C43.57 19.5 43.57 20.15 43.57 20.8C45.87 20.8 45.9 21.59 45.9 24.43C45.9 25.54 45.9 26.66 45.9 27.77C45.9 29.13 46.3 31.16 48.25 32.01C46.3 32.84 45.9 34.87 45.9 36.24C45.9 37.35 45.9 38.45 45.9 39.55C45.9 42.39 45.9 43.18 43.57 43.18C43.57 43.83 43.57 44.48 43.57 45.12C47.03 45.12 48.48 43.97 48.48 41C48.48 39.67 48.48 38.33 48.48 37C48.48 35.17 48.54 33.04 50.45 33.04C50.78 33.04 51.11 33.04 51.44 33.04C51.44 32.34 51.44 31.63 51.44 30.93C51.11 30.93 50.78 30.93 50.45 30.93C48.54 30.93 48.48 28.81 48.48 26.98C48.48 25.65 48.48 24.31 48.48 22.97C48.48 20.01 47.03 18.85 43.57 18.85
           M33.4 18.85C29.94 18.85 28.47 20.01 28.47 22.97C28.47 24.31 28.47 25.65 28.47 26.98C28.47 28.81 28.34 30.93 26.45 30.93C26.14 30.93 25.82 30.93 25.51 30.93C25.51 31.63 25.51 32.34 25.51 33.04C25.82 33.04 26.14 33.04 26.45 33.04C28.34 33.04 28.47 35.17 28.47 37C28.47 38.33 28.47 39.67 28.47 41C28.47 43.97 29.94 45.12 33.4 45.12C33.4 44.48 33.4 43.83 33.4 43.18C31.09 43.18 31.03 42.39 31.03 39.55C31.03 38.45 31.03 37.35 31.03 36.24C31.03 34.87 30.63 32.84 28.69 32.01C30.63 31.16 31.03 29.13 31.03 27.77C31.03 26.66 31.03 25.54 31.03 24.43C31.03 21.59 31.09 20.8 33.4 20.8C33.4 20.15 33.4 19.5 33.4 18.85"
  />
  <path style="fill:#ffffff"
        d="M22 17C31.65 17.32 41.33 17.65 51 18C51.33 27.65 51.65 37.33 52 47C42.65 47.33 33.33 47.65 24 48C23.32 37.65 22.65 27.32 22 17V17V17V17V17z"
  />
  <linearGradient id="gradient0" gradientUnits="userSpaceOnUse" x1="87.14" y1="-12.88" x2="87.61" y2="47.11">
   <stop offset="0" stop-color="#ffffff"/>
   <stop offset="1" stop-color="#808080"/>
  </linearGradient>
  <path style="fill:url(#gradient0)"
        d="M58.18 8.72C58.18 24.23 58.18 39.75 58.18 55.27C44.59 55.27 31.03 55.27 17.45 55.27C13.56 47.5 9.68 39.75 5.8 32C9.68 24.23 13.56 16.47 17.45 8.72C31.03 8.72 44.59 8.72 58.18 8.72
           M42.38 20.36C42.38 20.93 42.38 21.51 42.38 22.07C44.45 22.07 44.47 22.78 44.47 25.29C44.47 26.28 44.47 27.27 44.47 28.26C44.47 29.45 44.84 31.26 46.59 32C44.84 32.75 44.47 34.54 44.47 35.75C44.47 36.74 44.47 37.72 44.47 38.68C44.47 41.2 44.47 41.9 42.38 41.9C42.38 42.47 42.38 43.06 42.38 43.63C45.49 43.63 46.79 42.61 46.79 39.97C46.79 38.79 46.79 37.61 46.79 36.43C46.79 34.81 46.84 32.93 48.56 32.93C48.86 32.93 49.15 32.93 49.45 32.93C49.45 32.31 49.45 31.68 49.45 31.05C49.15 31.05 48.86 31.05 48.56 31.05C46.84 31.05 46.79 29.18 46.79 27.55C46.79 26.37 46.79 25.19 46.79 24.01C46.79 21.37 45.49 20.36 42.38 20.36
           M33.25 20.36C30.15 20.36 28.84 21.37 28.84 24.01C28.84 25.19 28.84 26.37 28.84 27.55C28.84 29.18 28.71 31.05 27.03 31.05C26.75 31.05 26.45 31.05 26.18 31.05C26.18 31.68 26.18 32.31 26.18 32.93C26.45 32.93 26.75 32.93 27.03 32.93C28.71 32.93 28.84 34.81 28.84 36.43C28.84 37.61 28.84 38.79 28.84 39.97C28.84 42.61 30.15 43.63 33.25 43.63C33.25 43.06 33.25 42.47 33.25 41.9C31.19 41.9 31.13 41.2 31.13 38.68C31.13 37.72 31.13 36.74 31.13 35.75C31.13 34.54 30.78 32.75 29.04 32C30.78 31.26 31.13 29.45 31.13 28.26C31.13 27.27 31.13 26.28 31.13 25.29C31.13 22.78 31.19 22.07 33.25 22.07C33.25 21.51 33.25 20.93 33.25 20.36"
  />
 </g>
</svg>
