<?xml version="1.0" encoding="UTF-8" standalone="yes"?>
<svg version="1.1" width="64" height="64" color-interpolation="linearRGB"
     xmlns:svg="http://www.w3.org/2000/svg" xmlns="http://www.w3.org/2000/svg">
 <g>
  <path style="fill:none; stroke:#000000; stroke-opacity:0.4; stroke-width:5.636; stroke-linecap:round; stroke-linejoin:round"
        d="M46.08 40.45H60.17L34.81 17.9H60.17V6.63H6.63V17.9H31.99L6.63 40.45H20.72V60.17H46.08V40.45z"
        transform="matrix(0.8709,0,0,0.8709,4.129,4.129)"
  />
  <path style="fill:none; stroke:#005900; stroke-width:5.636; stroke-linecap:round; stroke-linejoin:round"
        d="M43.27 37.63H57.36L31.99 15.08H57.36V3.81H3.81V15.08H29.18L3.81 37.63H17.9V57.35H43.27V37.63z"
        transform="matrix(0.8709,0,0,0.8709,4.129,4.129)"
  />
  <linearGradient id="gradient0" gradientUnits="userSpaceOnUse" x1="181.35" y1="3.8" x2="181.35" y2="57.35">
   <stop offset="0" stop-color="#80ff80"/>
   <stop offset="1" stop-color="#00b300"/>
  </linearGradient>
  <path style="fill:url(#gradient0)"
        d="M43.27 37.63H57.36L31.99 15.08H57.36V3.81H3.81V15.08H29.18L3.81 37.63H17.9V57.35H43.27V37.63z"
        transform="matrix(0.8709,0,0,0.8709,4.129,4.129)"
  />
 </g>
</svg>
