<?xml version="1.0" encoding="UTF-8" standalone="yes"?>
<svg version="1.1" width="64" height="64" color-interpolation="linearRGB"
     xmlns:svg="http://www.w3.org/2000/svg" xmlns="http://www.w3.org/2000/svg">
 <g>
  <path style="fill:none; stroke:#000000; stroke-opacity:0.4; stroke-width:4.91; stroke-linecap:round; stroke-linejoin:round"
        d="M9.88 33.21C18.07 40.99 26.25 48.77 34.44 56.54C34.44 49.58 34.44 42.63 34.44 35.67C41.8 42.63 49.17 49.58 56.53 56.54C56.53 40.99 56.53 25.44 56.53 9.89C49.17 16.85 41.8 23.8 34.44 30.76C34.44 23.8 34.44 16.85 34.44 9.89C26.25 17.67 18.07 25.44 9.88 33.21V33.21V33.21z"
        transform="matrix(-0.0021,0.9999,-0.9999,-0.0021,69.091,-0.9626)"
  />
  <path style="fill:none; stroke:#005900; stroke-width:4.91; stroke-linecap:round; stroke-linejoin:round"
        d="M7.43 30.76C15.61 38.53 23.8 46.31 31.98 54.09C31.98 47.13 31.98 40.17 31.98 33.21C39.35 40.17 46.71 47.13 54.07 54.09C54.07 38.54 54.07 22.99 54.07 7.44C46.71 14.39 39.35 21.35 31.98 28.3C31.98 21.35 31.98 14.39 31.98 7.44C23.8 15.21 15.61 22.98 7.43 30.76V30.76V30.76z"
        transform="matrix(-0.0021,0.9999,-0.9999,-0.0021,64.091,0.0373)"
  />
  <linearGradient id="gradient0" gradientUnits="userSpaceOnUse" x1="13.5" y1="18.95" x2="38.08" y2="17.88">
   <stop offset="0" stop-color="#80ff80"/>
   <stop offset="1" stop-color="#00b200"/>
  </linearGradient>
  <path style="fill:url(#gradient0)"
        d="M7.43 30.76C15.61 38.53 23.8 46.31 31.98 54.09C31.98 47.13 31.98 40.17 31.98 33.21C39.35 40.17 46.71 47.13 54.07 54.09C54.07 38.54 54.07 22.99 54.07 7.44C46.71 14.39 39.35 21.35 31.98 28.3C31.98 21.35 31.98 14.39 31.98 7.44C23.8 15.21 15.61 22.98 7.43 30.76V30.76V30.76z"
        transform="matrix(-0.0021,0.9999,-0.9999,-0.0021,64.091,0.0373)"
  />
 </g>
</svg>
