<?xml version="1.0" encoding="UTF-8" standalone="yes"?>
<svg version="1.1" width="64" height="64" color-interpolation="linearRGB"
     xmlns:svg="http://www.w3.org/2000/svg" xmlns="http://www.w3.org/2000/svg">
 <g>
  <path style="fill:#010101; fill-opacity:0.396"
        d="M12 25C12 25 7.25 19.25 5.11 18.39C4.03 17.96 2 18 2 19C2 21.23 3.1 20.7 4.19 21.92C5.9 23.85 8 26 11 32C11 32 15 34 19 34C23.53 34 28 32 28 32C28 32 29.54 28.26 30 26C31 21 32 16 32 12C32 11.47 31.45 11.6 31 13C30 16 28.65 20 28 20C27 20 29 7 27 6C25.2 5.09 24 18 22 18C21 18 23.29 2 21 2C19 2 17.88 18.44 17 18C15 17 13 4 11 4C10.22 4 10 5 10 8C10 10 10.72 12.63 11 14C12 19 12 25 12 25z"
        transform="matrix(1.7533,0,0,1.9185,4.6562,0.7706)"
  />
  <path style="fill:none; stroke:#804100; stroke-width:4; stroke-linejoin:round"
        d="M28 32C28 32 29.54 28.26 30 26C31 21 32 16 32 12C32 11.47 31.45 11.6 31 13C30 16 28.65 20 28 20C27 20 29 7 27 6C25.2 5.09 24 18 22 18C21 18 23.29 2 21 2C19 2 17.88 18.44 17 18C15 17 13 4 11 4C10.22 4 10 5 10 8C10 10 10.72 12.63 11 14C12 19 12 25 12 25C12 25 7.25 19.25 5.11 18.39C4.03 17.96 2 18 2 19C2 21.23 3.1 20.7 4.19 21.92C5.9 23.85 8 26 11 32"
        transform="matrix(1.5895,0,0,1.7935,4.0011,1.0206)"
  />
  <radialGradient id="gradient0" gradientUnits="userSpaceOnUse" cx="0" cy="0" r="64" gradientTransform="matrix(0.4776,-0.34,0.4725,0.6636,19.236,23.8556)">
   <stop offset="0" stop-color="#fff2d9"/>
   <stop offset="1" stop-color="#ffd499"/>
  </radialGradient>
  <path style="fill:url(#gradient0)"
        d="M12 25C12 25 7.25 19.25 5.11 18.39C4.03 17.96 2 18 2 19C2 21.23 3.1 20.7 4.19 21.92C5.9 23.85 8 26 11 32C11 32 15 34 19 34C23.53 34 28 32 28 32C28 32 29.54 28.26 30 26C31 21 32 16 32 12C32 11.47 31.45 11.6 31 13C30 16 28.65 20 28 20C27 20 29 7 27 6C25.2 5.09 24 18 22 18C21 18 23.29 2 21 2C19 2 17.88 18.44 17 18C15 17 13 4 11 4C10.22 4 10 5 10 8C10 10 10.72 12.63 11 14C12 19 12 25 12 25z"
        transform="matrix(1.5895,0,0,1.7935,4.0011,1.0206)"
  />
 </g>
</svg>
