<?xml version="1.0" encoding="UTF-8" standalone="yes"?>
<svg version="1.1" width="64" height="64" color-interpolation="linearRGB"
     xmlns:svg="http://www.w3.org/2000/svg" xmlns="http://www.w3.org/2000/svg">
 <g>
  <path style="fill:#010101; fill-opacity:0.396"
        d="M25.69 48.73C25.69 48.73 17.36 37.7 13.61 36.05C11.72 35.22 8.16 35.3 8.16 37.22C8.16 41.5 10.09 40.48 12 42.82C15 46.52 18.68 50.65 23.94 62.16C23.94 62.16 30.95 65.99 37.96 65.99C45.91 65.99 53.74 62.16 53.74 62.16C53.74 62.16 56.44 54.98 57.25 50.65C59 41.05 60.76 31.46 60.76 23.79C60.76 22.77 59.79 23.02 59 25.71C57.25 31.46 54.88 39.14 53.74 39.14C51.99 39.14 55.5 14.2 51.99 12.28C48.83 10.53 46.73 35.3 43.22 35.3C41.47 35.3 45.49 4.6 41.47 4.6C37.96 4.6 36 36.14 34.46 35.3C30.95 33.38 27.44 8.44 23.94 8.44C22.57 8.44 22.18 10.36 22.18 16.11C22.18 19.95 23.45 25 23.94 27.62C25.69 37.22 25.69 48.73 25.69 48.73z"
        transform="matrix(0.8771,0,0,0.8456,3.4656,4.1859)"
  />
  <path style="fill:none; stroke:#804100; stroke-width:6.7782; stroke-linejoin:round"
        d="M48.5 58.41C48.5 58.41 50.95 51.7 51.68 47.65C53.27 38.68 54.86 29.71 54.86 22.54C54.86 21.59 53.99 21.82 53.27 24.33C51.68 29.71 49.54 36.89 48.5 36.89C46.91 36.89 50.09 13.57 46.91 11.78C44.05 10.14 42.14 33.3 38.97 33.3C37.38 33.3 41.02 4.6 37.38 4.6C34.2 4.6 32.42 34.09 31.02 33.3C27.84 31.51 24.66 8.19 21.48 8.19C20.24 8.19 19.89 9.98 19.89 15.36C19.89 18.95 21.04 23.67 21.48 26.12C23.07 35.09 23.07 45.85 23.07 45.85C23.07 45.85 15.52 35.54 12.12 34C10.4 33.23 7.18 33.3 7.18 35.09C7.18 39.09 8.92 38.14 10.66 40.33C13.37 43.79 16.71 47.65 21.48 58.41"
        transform="matrix(0.8771,0,0,0.8456,3.4656,4.1859)"
  />
  <radialGradient id="gradient0" gradientUnits="userSpaceOnUse" cx="0" cy="0" r="64" gradientTransform="matrix(0.7591,-0.6097,0.751,1.1901,34.5767,43.8056)">
   <stop offset="0" stop-color="#fff2d9"/>
   <stop offset="1" stop-color="#ffd499"/>
  </radialGradient>
  <path style="fill:url(#gradient0)"
        d="M23.07 45.85C23.07 45.85 15.52 35.54 12.12 34C10.4 33.23 7.18 33.3 7.18 35.09C7.18 39.09 8.92 38.14 10.66 40.33C13.37 43.79 16.71 47.65 21.48 58.41C21.48 58.41 27.84 61.99 34.2 61.99C41.4 61.99 48.5 58.41 48.5 58.41C48.5 58.41 50.95 51.7 51.68 47.65C53.27 38.68 54.86 29.71 54.86 22.54C54.86 21.59 53.99 21.82 53.27 24.33C51.68 29.71 49.54 36.89 48.5 36.89C46.91 36.89 50.09 13.57 46.91 11.78C44.05 10.14 42.14 33.3 38.97 33.3C37.38 33.3 41.02 4.6 37.38 4.6C34.2 4.6 32.42 34.09 31.02 33.3C27.84 31.51 24.66 8.19 21.48 8.19C20.24 8.19 19.89 9.98 19.89 15.36C19.89 18.95 21.04 23.67 21.48 26.12C23.07 35.09 23.07 45.85 23.07 45.85z"
        transform="matrix(0.8771,0,0,0.8456,3.4656,4.1859)"
  />
 </g>
</svg>
