<?xml version="1.0" encoding="UTF-8" standalone="yes"?>
<svg version="1.1" width="64" height="64" color-interpolation="linearRGB"
     xmlns:svg="http://www.w3.org/2000/svg" xmlns="http://www.w3.org/2000/svg">
 <g>
  <path style="fill:none; stroke:#010101; stroke-opacity:0.4352; stroke-width:5.6364; stroke-linecap:round; stroke-linejoin:round"
        d="M22.13 13.68L27.76 20.72C27.76 20.72 34.81 10.86 40.45 17.9C46.08 24.95 27.76 27.77 27.76 34.81V40.45H37.63V36.22C37.63 30.58 50.31 30.58 50.31 20.72C50.31 12.27 43.26 6.63 34.81 6.63C26.35 6.63 22.13 13.68 22.13 13.68z
           M33.4 48.9C30.29 48.9 27.76 51.42 27.76 54.54C27.76 57.64 30.29 60.17 33.4 60.17C36.5 60.17 39.04 57.64 39.04 54.54C39.04 51.42 36.5 48.9 33.4 48.9z"
        transform="matrix(0.9031,0,0,0.9032,3.0985,3.0967)"
  />
  <path style="fill:none; stroke:#004080; stroke-width:5.6364; stroke-linecap:round; stroke-linejoin:round"
        d="M19.31 10.86L24.94 17.9C24.94 17.9 31.99 8.04 37.63 15.09C43.26 22.13 24.94 24.95 24.94 31.99V37.63H34.81V33.4C34.81 27.77 47.49 27.77 47.49 17.9C47.49 9.45 40.45 3.81 31.99 3.81C23.54 3.81 19.31 10.86 19.31 10.86z
           M30.58 46.08C27.47 46.08 24.94 48.61 24.94 51.72C24.94 54.82 27.47 57.36 30.58 57.36C33.68 57.36 36.22 54.82 36.22 51.72C36.22 48.61 33.68 46.08 30.58 46.08z"
        transform="matrix(0.9031,0,0,0.9032,3.0985,3.0967)"
  />
  <linearGradient id="gradient0" gradientUnits="userSpaceOnUse" x1="196.87" y1="3.81" x2="196.87" y2="57.34">
   <stop offset="0" stop-color="#abd5ff"/>
   <stop offset="1" stop-color="#006cd9"/>
  </linearGradient>
  <path style="fill:url(#gradient0)"
        d="M19.31 10.86L24.94 17.9C24.94 17.9 31.99 8.04 37.63 15.09C43.26 22.13 24.94 24.95 24.94 31.99V37.63H34.81V33.4C34.81 27.77 47.49 27.77 47.49 17.9C47.49 9.45 40.45 3.81 31.99 3.81C23.54 3.81 19.31 10.86 19.31 10.86z
           M30.58 46.08C27.47 46.08 24.94 48.61 24.94 51.72C24.94 54.82 27.47 57.36 30.58 57.36C33.68 57.36 36.22 54.82 36.22 51.72C36.22 48.61 33.68 46.08 30.58 46.08z"
        transform="matrix(0.9031,0,0,0.9032,3.0985,3.0967)"
  />
  <path style="fill:none; stroke:#010101; stroke-opacity:0.4352; stroke-width:5.6364; stroke-linecap:round; stroke-linejoin:round"
        d="M46.08 36.93L48.9 40.45C48.9 40.45 52.42 35.52 55.24 39.04C58.06 42.56 48.9 43.97 48.9 47.49V50.31H53.83V48.2C53.83 45.38 60.18 45.38 60.18 40.45C60.18 36.22 56.65 33.4 52.42 33.4C48.2 33.4 46.08 36.93 46.08 36.93z
           M51.72 54.54C50.16 54.54 48.9 55.8 48.9 57.36C48.9 58.91 50.16 60.17 51.72 60.17C53.27 60.17 54.54 58.91 54.54 57.36C54.54 55.8 53.27 54.54 51.72 54.54z"
        transform="matrix(0.9031,0,0,0.9032,3.0985,3.0967)"
  />
  <path style="fill:none; stroke:#004080; stroke-width:5.6364; stroke-linecap:round; stroke-linejoin:round"
        d="M43.26 34.11L46.08 37.63C46.08 37.63 49.61 32.7 52.42 36.22C55.24 39.74 46.08 41.15 46.08 44.68V47.49H51.02V45.38C51.02 42.56 57.36 42.56 57.36 37.63C57.36 33.4 53.83 30.59 49.61 30.59C45.38 30.59 43.26 34.11 43.26 34.11z
           M48.9 51.72C47.34 51.72 46.08 52.98 46.08 54.54C46.08 56.09 47.34 57.36 48.9 57.36C50.45 57.36 51.72 56.09 51.72 54.54C51.72 52.98 50.45 51.72 48.9 51.72z"
        transform="matrix(0.9031,0,0,0.9032,3.0985,3.0967)"
  />
  <linearGradient id="gradient1" gradientUnits="userSpaceOnUse" x1="132.04" y1="30.59" x2="132.04" y2="57.35">
   <stop offset="0" stop-color="#abd5ff"/>
   <stop offset="1" stop-color="#006cd9"/>
  </linearGradient>
  <path style="fill:url(#gradient1)"
        d="M43.26 34.11L46.08 37.63C46.08 37.63 49.61 32.7 52.42 36.22C55.24 39.74 46.08 41.15 46.08 44.68V47.49H51.02V45.38C51.02 42.56 57.36 42.56 57.36 37.63C57.36 33.4 53.83 30.59 49.61 30.59C45.38 30.59 43.26 34.11 43.26 34.11z
           M48.9 51.72C47.34 51.72 46.08 52.98 46.08 54.54C46.08 56.09 47.34 57.36 48.9 57.36C50.45 57.36 51.72 56.09 51.72 54.54C51.72 52.98 50.45 51.72 48.9 51.72z"
        transform="matrix(0.9031,0,0,0.9032,3.0985,3.0967)"
  />
  <path style="fill:none; stroke:#010101; stroke-opacity:0.4352; stroke-width:5.6364; stroke-linecap:round; stroke-linejoin:round"
        d="M6.62 24.24L9.44 27.77C9.44 27.77 12.97 22.84 15.78 26.36C18.6 29.88 9.44 31.29 9.44 34.81V37.63H14.37V35.52C14.37 32.7 20.72 32.7 20.72 27.77C20.72 23.54 17.19 20.72 12.97 20.72C8.74 20.72 6.62 24.24 6.62 24.24z
           M12.26 41.86C10.7 41.86 9.44 43.12 9.44 44.67C9.44 46.22 10.7 47.49 12.26 47.49C13.81 47.49 15.08 46.22 15.08 44.67C15.08 43.12 13.81 41.86 12.26 41.86z"
        transform="matrix(0.9031,0,0,0.9032,3.0985,3.0967)"
  />
  <path style="fill:none; stroke:#004080; stroke-width:5.6364; stroke-linecap:round; stroke-linejoin:round"
        d="M3.81 21.43L6.62 24.95C6.62 24.95 10.15 20.02 12.97 23.54C15.78 27.06 6.62 28.47 6.62 31.99V34.81H11.56V32.7C11.56 29.88 17.9 29.88 17.9 24.95C17.9 20.72 14.37 17.9 10.15 17.9C5.92 17.9 3.81 21.43 3.81 21.43z
           M9.44 39.04C7.89 39.04 6.62 40.3 6.62 41.86C6.62 43.41 7.89 44.67 9.44 44.67C10.99 44.67 12.26 43.41 12.26 41.86C12.26 40.3 10.99 39.04 9.44 39.04z"
        transform="matrix(0.9031,0,0,0.9032,3.0985,3.0967)"
  />
  <linearGradient id="gradient2" gradientUnits="userSpaceOnUse" x1="92.59" y1="17.9" x2="92.59" y2="44.67">
   <stop offset="0" stop-color="#abd5ff"/>
   <stop offset="1" stop-color="#006cd9"/>
  </linearGradient>
  <path style="fill:url(#gradient2)"
        d="M3.81 21.43L6.62 24.95C6.62 24.95 10.15 20.02 12.97 23.54C15.78 27.06 6.62 28.47 6.62 31.99V34.81H11.56V32.7C11.56 29.88 17.9 29.88 17.9 24.95C17.9 20.72 14.37 17.9 10.15 17.9C5.92 17.9 3.81 21.43 3.81 21.43z
           M9.44 39.04C7.89 39.04 6.62 40.3 6.62 41.86C6.62 43.41 7.89 44.67 9.44 44.67C10.99 44.67 12.26 43.41 12.26 41.86C12.26 40.3 10.99 39.04 9.44 39.04z"
        transform="matrix(0.9031,0,0,0.9032,3.0985,3.0967)"
  />
 </g>
</svg>
