<?xml version="1.0" encoding="UTF-8" standalone="yes"?>
<svg version="1.1" width="64" height="64" color-interpolation="linearRGB"
     xmlns:svg="http://www.w3.org/2000/svg" xmlns="http://www.w3.org/2000/svg">
 <g>
  <path style="fill:none; stroke:#010101; stroke-opacity:0.4627; stroke-width:4"
        d="M30.24 5.75C43.96 5.75 54.74 16.52 54.74 30.25C54.74 43.98 43.96 54.76 30.24 54.76C16.51 54.76 5.74 43.98 5.74 30.25C5.74 16.52 16.51 5.75 30.24 5.75z
           M9.54 49.78C7.67 46.83 11.36 44.49 11.36 44.49C11.97 44.09 13.53 45.18 14.47 46.66C15.4 48.14 15.73 50 15.11 50.39C15.11 50.39 11.42 52.74 9.54 49.78z
           M9.79 49.63C7.91 46.67 12.34 43.86 12.34 43.86C13.09 43.39 14.76 44.4 15.7 45.88C16.64 47.36 16.83 49.3 16.09 49.77C16.09 49.77 11.67 52.58 9.79 49.63z
           M53.91 43.43C51.44 45.9 48.34 42.81 48.34 42.81C47.83 42.3 48.55 40.54 49.79 39.3C51.02 38.07 52.78 37.34 53.3 37.86C53.3 37.86 56.38 40.96 53.91 43.43z
           M53.71 43.23C51.23 45.7 47.52 41.99 47.52 41.99C46.9 41.37 47.52 39.51 48.76 38.28C50 37.04 51.85 36.42 52.47 37.04C52.47 37.04 56.18 40.75 53.71 43.23z
           M30.24 5.75C43.96 5.75 54.74 16.52 54.74 30.25C54.74 43.98 43.96 54.76 30.24 54.76C16.51 54.76 5.74 43.98 5.74 30.25C5.74 16.52 16.51 5.75 30.24 5.75z
           M9.24 17.12C11.87 17.12 17.99 18.87 19.74 17.12C21.49 15.37 20.62 11.87 17.99 9.25
           M31.99 21.5C31.99 23.25 35.49 24.13 38.12 25.88C40.74 27.63 44.24 32.88 45.99 32.88C48.61 32.88 48.61 24.13 48.61 21.5H31.99z
           M23.24 54.76H28.49C31.12 54.76 34.62 52.14 26.74 39.88H23.24
           M38.82 58.2C35.64 59.67 33.81 55.7 33.81 55.7C33.51 55.03 34.79 53.64 36.38 52.91C37.97 52.17 39.87 52.1 40.17 52.77C40.17 52.77 42 56.74 38.82 58.2z
           M38.69 57.94C35.52 59.4 33.32 54.64 33.32 54.64C32.95 53.84 34.18 52.31 35.76 51.58C37.35 50.85 39.31 50.91 39.67 51.71C39.67 51.71 41.88 56.47 38.69 57.94z
           M25.02 17.18C26.74 14.5 30.24 11 32.87 9.25L34.57 10.05C31.99 11.87 28.49 15.37 26.74 18L25.02 17.18z
           M25.02 16.3C26.74 13.62 30.24 10.12 32.87 8.37L34.57 9.18C31.99 11 28.49 14.5 26.74 17.12L25.02 16.3z
           M26.99 51.42C29.14 49.27 27.58 43.4 22.63 38.45C17.68 33.49 11.82 31.93 9.66 34.09C8.59 35.16 7.68 38.55 7.68 38.55C7.3 41.41 9.31 45.58 12.41 48.67C15.51 51.77 19.67 53.78 22.53 53.41C22.53 53.41 25.91 52.5 26.99 51.42z
           M28.19 50.21C30.67 47.73 29.44 41.55 24.49 36.59C19.53 31.64 13.35 30.4 10.87 32.88C9.64 34.11 8.4 37.83 8.4 37.83C7.78 40.92 9.64 45.26 12.73 48.36C15.82 51.44 20.15 53.3 23.25 52.69C23.25 52.69 26.96 51.44 28.19 50.21z
           M21.39 39.69C25.54 43.84 26.91 49.02 24.49 51.44C22.07 53.87 16.88 52.5 12.73 48.36C8.57 44.19 7.21 39.02 9.64 36.59C12.06 34.17 17.23 35.52 21.39 39.69z
           M21.39 39.69C22.76 41.06 23.76 42.55 24.49 44.02C18.3 36.59 11.49 35.97 9.64 37.83C7.78 39.69 8.4 41.55 8.4 41.55C7.91 39.51 8.47 37.76 9.64 36.59C12.06 34.17 17.23 35.52 21.39 39.69z
           M13.17 25.87C10.26 25.87 10.26 30.25 13.17 30.25C16.09 30.25 16.09 25.87 13.17 25.87z"
        transform="matrix(1.0046,0,0,0.9999,1.8602,2)"
  />
  <path style="fill:none; stroke:#010101; stroke-width:3.5004"
        d="M30.24 5.75C43.96 5.75 54.74 16.52 54.74 30.25C54.74 43.98 43.96 54.76 30.24 54.76C16.51 54.76 5.74 43.98 5.74 30.25C5.74 16.52 16.51 5.75 30.24 5.75z"
  />
  <path style="fill:none; stroke:#010101; stroke-width:3.2216"
        d="M9.54 49.78C7.67 46.83 11.36 44.49 11.36 44.49C11.97 44.09 13.53 45.18 14.47 46.66C15.4 48.14 15.73 50 15.11 50.39C15.11 50.39 11.42 52.74 9.54 49.78z"
  />
  <radialGradient id="gradient0" gradientUnits="userSpaceOnUse" cx="0" cy="0" r="64" gradientTransform="matrix(0.0585,0.0923,-0.0806,0.0512,12.8227,44.6069)">
   <stop offset="0" stop-color="#ffacac"/>
   <stop offset="1" stop-color="#d04e4e"/>
  </radialGradient>
  <path style="fill:url(#gradient0)"
        d="M9.79 49.63C7.91 46.67 12.34 43.86 12.34 43.86C13.09 43.39 14.76 44.4 15.7 45.88C16.64 47.36 16.83 49.3 16.09 49.77C16.09 49.77 11.67 52.58 9.79 49.63z"
  />
  <path style="fill:none; stroke:#010101; stroke-width:3.2217"
        d="M53.91 43.43C51.44 45.9 48.34 42.81 48.34 42.81C47.83 42.3 48.55 40.54 49.79 39.3C51.02 38.07 52.78 37.34 53.3 37.86C53.3 37.86 56.38 40.96 53.91 43.43z"
  />
  <path style="fill:#a72323"
        d="M53.71 43.23C51.23 45.7 47.52 41.99 47.52 41.99C46.9 41.37 47.52 39.51 48.76 38.28C50 37.04 51.85 36.42 52.47 37.04C52.47 37.04 56.18 40.75 53.71 43.23z"
  />
  <radialGradient id="gradient1" gradientUnits="userSpaceOnUse" cx="0" cy="0" r="64" gradientTransform="matrix(0.5468,0,0,0.547,19.7481,19.7553)">
   <stop offset="0.0026" stop-color="#ffffff"/>
   <stop offset="0.4947" stop-color="#ffacac"/>
   <stop offset="1" stop-color="#d04e4e"/>
  </radialGradient>
  <path style="fill:url(#gradient1)"
        d="M30.24 5.75C43.96 5.75 54.74 16.52 54.74 30.25C54.74 43.98 43.96 54.76 30.24 54.76C16.51 54.76 5.74 43.98 5.74 30.25C5.74 16.52 16.51 5.75 30.24 5.75z"
  />
  <path style="fill:#010101; fill-opacity:0.4627"
        d="M9.24 17.12C11.87 17.12 17.99 18.87 19.74 17.12C21.49 15.37 20.62 11.87 17.99 9.25
           M31.99 21.5C31.99 23.25 35.49 24.13 38.12 25.88C40.74 27.63 44.24 32.88 45.99 32.88C48.61 32.88 48.61 24.13 48.61 21.5H31.99z
           M23.24 54.76H28.49C31.12 54.76 34.62 52.14 26.74 39.88H23.24"
  />
  <path style="fill:none; stroke:#010101; stroke-width:3.2218"
        d="M38.82 58.2C35.64 59.67 33.81 55.7 33.81 55.7C33.51 55.03 34.79 53.64 36.38 52.91C37.97 52.17 39.87 52.1 40.17 52.77C40.17 52.77 42 56.74 38.82 58.2z"
  />
  <radialGradient id="gradient2" gradientUnits="userSpaceOnUse" cx="0" cy="0" r="64" gradientTransform="matrix(0.0993,-0.0457,0.0399,0.0868,34.1246,54.2784)">
   <stop offset="0" stop-color="#ffacac"/>
   <stop offset="1" stop-color="#d04e4e"/>
  </radialGradient>
  <path style="fill:url(#gradient2)"
        d="M38.69 57.94C35.52 59.4 33.32 54.64 33.32 54.64C32.95 53.84 34.18 52.31 35.76 51.58C37.35 50.85 39.31 50.91 39.67 51.71C39.67 51.71 41.88 56.47 38.69 57.94z"
  />
  <path style="fill:none; stroke:#d96969; stroke-width:3.5004"
        d="M25.02 16.3C26.74 13.62 30.24 10.12 32.87 8.37L34.57 9.18C31.99 11 28.49 14.5 26.74 17.12L25.02 16.3z"
  />
  <path style="fill:#010101"
        d="M25.02 17.18C26.74 14.5 30.24 11 32.87 9.25L34.57 10.05C31.99 11.87 28.49 15.37 26.74 18L25.02 17.18z"
  />
  <path style="fill:none; stroke:#010101; stroke-width:3.2798"
        d="M26.99 51.42C29.14 49.27 27.58 43.4 22.63 38.45C17.68 33.49 11.82 31.93 9.66 34.09C8.59 35.16 7.68 38.55 7.68 38.55C7.3 41.41 9.31 45.58 12.41 48.67C15.51 51.77 19.67 53.78 22.53 53.41C22.53 53.41 25.91 52.5 26.99 51.42z"
  />
  <radialGradient id="gradient3" gradientUnits="userSpaceOnUse" cx="0" cy="0" r="64" gradientTransform="matrix(0.1452,0.2941,-0.2071,0.1024,14.7251,33.681)">
   <stop offset="0" stop-color="#ffdfdf"/>
   <stop offset="0.4947" stop-color="#ffacac"/>
   <stop offset="1" stop-color="#d04e4e"/>
  </radialGradient>
  <path style="fill:url(#gradient3)"
        d="M28.19 50.21C30.67 47.73 29.44 41.55 24.49 36.59C19.53 31.64 13.35 30.4 10.87 32.88C9.64 34.11 8.4 37.83 8.4 37.83C7.78 40.92 9.64 45.26 12.73 48.36C15.82 51.44 20.15 53.3 23.25 52.69C23.25 52.69 26.96 51.44 28.19 50.21z"
  />
  <linearGradient id="gradient4" gradientUnits="userSpaceOnUse" x1="37.04" y1="38.55" x2="32.74" y2="59.11">
   <stop offset="0" stop-color="#ffacac"/>
   <stop offset="1" stop-color="#d96969"/>
  </linearGradient>
  <path style="fill:url(#gradient4)"
        d="M21.39 39.69C25.54 43.84 26.91 49.02 24.49 51.44C22.07 53.87 16.88 52.5 12.73 48.36C8.57 44.19 7.21 39.02 9.64 36.59C12.06 34.17 17.23 35.52 21.39 39.69z"
  />
  <path style="fill:#ffffff"
        d="M21.39 39.69C22.76 41.06 23.76 42.55 24.49 44.02C18.3 36.59 11.49 35.97 9.64 37.83C7.78 39.69 8.4 41.55 8.4 41.55C7.91 39.51 8.47 37.76 9.64 36.59C12.06 34.17 17.23 35.52 21.39 39.69z"
  />
  <path style="fill:#010101"
        d="M13.17 25.87C10.26 25.87 10.26 30.25 13.17 30.25C16.09 30.25 16.09 25.87 13.17 25.87z"
  />
  <path style="fill:#010101"
        d="M28.49 32C24.99 32 24.99 37.26 28.49 37.26C31.99 37.26 31.99 32 28.49 32z"
  />
  <path style="fill:none; stroke:#010101; stroke-width:3.5004"
        d="M17.12 15.37C17.99 14.5 17.99 10.12 16.24 10.12L12.74 9.25C9.24 9.25 7.49 9.25 7.49 11C7.49 12.75 8.37 16.25 9.24 17.12
           M44.24 27.63C45.12 27.63 46.86 25.88 46.86 22.38C46.86 19.75 44.24 18 42.49 18C38.03 18 32.87 18.87 33.74 21.5"
  />
  <path style="fill:#ffacac"
        d="M17.99 16.25C17.99 15.37 17.99 10.12 16.24 10.12L12.74 9.25C9.24 9.25 7.49 9.25 7.49 11C7.49 9.25 17.99 15.37 17.99 16.25z
           M31.99 21.5C31.99 20.63 46.86 21.5 46.86 22.38C46.86 19.75 44.24 18 42.49 18C38.03 18 31.99 18.87 31.99 21.5z"
  />
  <path style="fill:#d96969"
        d="M9.24 17.12C10.12 17.12 10.99 16.25 12.74 16.25H17.99C17.99 15.37 7.49 9.25 7.49 11C7.49 12.75 8.37 16.25 9.24 17.12z
           M31.99 21.5C31.99 23.25 36.37 23.25 38.99 25C41.62 26.75 42.49 29.38 44.24 29.38C45.12 29.38 46.86 25.88 46.86 22.38C46.86 21.5 31.99 20.63 31.99 21.5z"
  />
  <path style="fill:#ffffff"
        d="M17.99 16.25C17.99 15.37 7.49 9.25 7.49 11C8.37 7.5 17.12 14.5 17.99 16.25z
           M31.99 21.5C33.74 20.63 46.86 19.75 46.86 22.38C46.86 21.5 31.99 20.63 31.99 21.5z"
  />
  <linearGradient id="gradient5" gradientUnits="userSpaceOnUse" x1="16.78" y1="36.59" x2="19.66" y2="39.92">
   <stop offset="0" stop-color="#a72323"/>
   <stop offset="0.4496" stop-color="#ffacac"/>
   <stop offset="1" stop-color="#ffffff"/>
  </linearGradient>
  <path style="fill:none; stroke:url(#gradient5); stroke-width:0.7329"
        d="M13.17 40.67C11.05 39.92 11.05 44.45 13.17 45.2C15.31 45.96 15.31 41.43 13.17 40.67z"
  />
  <linearGradient id="gradient6" gradientUnits="userSpaceOnUse" x1="24.17" y1="39.52" x2="27.72" y2="43.38">
   <stop offset="0" stop-color="#a72323"/>
   <stop offset="0.4496" stop-color="#ffacac"/>
   <stop offset="1" stop-color="#ffffff"/>
  </linearGradient>
  <path style="fill:none; stroke:url(#gradient6); stroke-width:0.8751"
        d="M19.74 44.26C17.12 43.38 17.12 48.64 19.74 49.51C22.37 50.39 22.37 45.13 19.74 44.26z"
  />
 </g>
</svg>
