<?xml version="1.0" encoding="UTF-8" standalone="yes"?>
<svg version="1.1" width="64" height="64" color-interpolation="linearRGB"
     xmlns:svg="http://www.w3.org/2000/svg" xmlns="http://www.w3.org/2000/svg">
 <g>
  <path style="fill:none; stroke:#000000; stroke-opacity:0.4; stroke-width:5"
        d="M22.04 14.39H54.84L67.19 40L54.84 65.61H22.04L9.6 39.99L22.04 14.39z"
        transform="matrix(0.8871,0,0,0.9098,0.8322,-2.8826)"
  />
  <linearGradient id="gradient0" gradientUnits="userSpaceOnUse" x1="162.06" y1="27.08" x2="162.06" y2="54.08">
   <stop offset="0" stop-color="#80ff80"/>
   <stop offset="1" stop-color="#00b200"/>
  </linearGradient>
  <path style="fill:url(#gradient0)"
        d="M24.41 17.6H52.44L63.75 39.92L52.44 62.4L24.41 62.38L13.14 40.07L24.41 17.6z"
        transform="matrix(0.9662,0,0,0.9991,-5.207,-8.4538)"
  />
  <path style="fill:none; stroke:#005900; stroke-width:4"
        d="M22.04 14.39H54.84L67.19 40L54.84 65.61H22.04L9.6 39.99L22.04 14.39z"
        transform="matrix(0.8871,0,0,0.9098,-2.1677,-4.8826)"
  />
 </g>
</svg>
