<?xml version="1.0" encoding="UTF-8" standalone="yes"?>
<svg version="1.1" width="64" height="64" color-interpolation="linearRGB"
     xmlns:svg="http://www.w3.org/2000/svg" xmlns="http://www.w3.org/2000/svg">
 <g>
  <path style="fill:#000000; fill-opacity:0.4117"
        d="M40.41 6.65C45.08 6.65 48.78 10.3 48.78 14.95C48.78 19.59 45.08 23.24 40.41 23.24C35.72 23.24 32.04 19.59 32.04 14.95C32.04 10.3 35.72 6.65 40.41 6.65z
           M38.73 36.52C47.1 39.83 50.45 44.81 55.47 53.11L47.1 56.42C45.43 53.11 38.73 44.81 32.04 44.81C27.02 49.79 18.65 54.76 10.28 54.76L8.6 46.47C8.6 46.47 25.34 44.81 25.34 34.86C25.34 26.56 32.04 21.58 32.04 21.58L38.73 26.56C42.08 28.22 55.47 26.56 55.47 26.56V33.2C52.12 34.86 38.73 34.86 38.73 34.86V36.52z
           M40.41 6.65C45.08 6.65 48.78 10.3 48.78 14.95C48.78 19.59 45.08 23.24 40.41 23.24C35.72 23.24 32.04 19.59 32.04 14.95C32.04 10.3 35.72 6.65 40.41 6.65z
           M38.73 36.52C47.1 39.83 50.45 44.81 55.47 53.11L47.1 56.42C45.43 53.11 38.73 44.81 32.04 44.81C27.02 49.79 18.65 54.76 10.28 54.76L8.6 46.47C8.6 46.47 25.34 44.81 25.34 34.86C25.34 26.56 32.04 21.58 32.04 21.58L38.73 26.56C42.08 28.22 55.47 26.56 55.47 26.56V33.2C52.12 34.86 38.73 34.86 38.73 34.86V36.52z
           M40.41 6.65C45.08 6.65 48.78 10.3 48.78 14.95C48.78 19.59 45.08 23.24 40.41 23.24C35.72 23.24 32.04 19.59 32.04 14.95C32.04 10.3 35.72 6.65 40.41 6.65z
           M38.73 36.52C47.1 39.83 50.45 44.81 55.47 53.11L47.1 56.42C45.43 53.11 38.73 44.81 32.04 44.81C27.02 49.79 18.65 54.76 10.28 54.76L8.6 46.47C8.6 46.47 25.34 44.81 25.34 34.86C25.34 26.56 32.04 21.58 32.04 21.58L38.73 26.56C42.08 28.22 55.47 26.56 55.47 26.56V33.2C52.12 34.86 38.73 34.86 38.73 34.86V36.52z"
        transform="matrix(1,0,0,1,3,4)"
  />
  <path style="fill:none; stroke:#010101; stroke-width:3.3328"
        d="M38.73 36.52C47.1 39.83 50.45 44.81 55.47 53.11L47.1 56.42C45.43 53.11 38.73 44.81 32.04 44.81C27.02 49.79 18.65 54.76 10.28 54.76L8.6 46.47C8.6 46.47 25.34 44.81 25.34 34.86C25.34 26.56 32.04 21.58 32.04 21.58L38.73 26.56C42.08 28.22 55.47 26.56 55.47 26.56V33.2C52.12 34.86 38.73 34.86 38.73 34.86V36.52z"
  />
  <path style="fill:none; stroke:#010101; stroke-width:3.3328"
        d="M40.41 6.65C45.08 6.65 48.78 10.3 48.78 14.95C48.78 19.59 45.08 23.24 40.41 23.24C35.72 23.24 32.04 19.59 32.04 14.95C32.04 10.3 35.72 6.65 40.41 6.65z"
  />
  <radialGradient id="gradient0" gradientUnits="userSpaceOnUse" cx="0" cy="0" r="64" gradientTransform="matrix(0.4707,0,0,0.4665,25.3474,24.9078)">
   <stop offset="0.5" stop-color="#ffff00"/>
   <stop offset="1" stop-color="#ffcc00"/>
  </radialGradient>
  <path style="fill:url(#gradient0)"
        d="M38.73 36.52C47.1 39.83 50.45 44.81 55.47 53.11L47.1 56.42C45.43 53.11 38.73 44.81 32.04 44.81C27.02 49.79 18.65 54.76 10.28 54.76L8.6 46.47C8.6 46.47 25.34 44.81 25.34 34.86C25.34 26.56 32.04 21.58 32.04 21.58L38.73 26.56C42.08 28.22 55.47 26.56 55.47 26.56V33.2C52.12 34.86 38.73 34.86 38.73 34.86V36.52z"
  />
  <radialGradient id="gradient1" gradientUnits="userSpaceOnUse" cx="0" cy="0" r="64" gradientTransform="matrix(0.183,0,0,0.1814,37.064,11.6358)">
   <stop offset="0.4866" stop-color="#ffff00"/>
   <stop offset="1" stop-color="#ffcc00"/>
  </radialGradient>
  <path style="fill:url(#gradient1)"
        d="M40.41 6.65C45.08 6.65 48.78 10.3 48.78 14.95C48.78 19.59 45.08 23.24 40.41 23.24C35.72 23.24 32.04 19.59 32.04 14.95C32.04 10.3 35.72 6.65 40.41 6.65z"
  />
  <radialGradient id="gradient2" gradientUnits="userSpaceOnUse" cx="0" cy="0" r="64" gradientTransform="matrix(0.147,0.1208,-0.335,0.4004,30.6274,26.0511)">
   <stop offset="0.4785" stop-color="#ffffff" stop-opacity="0.8196"/>
   <stop offset="1" stop-color="#ffffff" stop-opacity="0"/>
  </radialGradient>
  <path style="fill:url(#gradient2)"
        d="M38.73 36.52C47.1 39.83 50.45 44.81 55.47 53.11L47.1 56.42C45.43 53.11 38.73 44.81 32.04 44.81C27.02 49.79 18.65 54.76 10.28 54.76L8.6 46.47C8.6 46.47 25.34 44.81 25.34 34.86C25.34 26.56 32.04 21.58 32.04 21.58L38.73 26.56C42.08 28.22 55.47 26.56 55.47 26.56V33.2C52.12 34.86 38.73 34.86 38.73 34.86V36.52z"
  />
  <radialGradient id="gradient3" gradientUnits="userSpaceOnUse" cx="0" cy="0" r="64" gradientTransform="matrix(0.2615,0,0,0.2592,32.0427,6.6588)">
   <stop offset="0.4785" stop-color="#ffffff" stop-opacity="0.8196"/>
   <stop offset="1" stop-color="#ffffff" stop-opacity="0"/>
  </radialGradient>
  <path style="fill:url(#gradient3)"
        d="M40.41 6.65C45.08 6.65 48.78 10.3 48.78 14.95C48.78 19.59 45.08 23.24 40.41 23.24C35.72 23.24 32.04 19.59 32.04 14.95C32.04 10.3 35.72 6.65 40.41 6.65z"
  />
 </g>
</svg>
