<?xml version="1.0" encoding="UTF-8" standalone="yes"?>
<svg version="1.1" width="64" height="64" color-interpolation="linearRGB"
     xmlns:svg="http://www.w3.org/2000/svg" xmlns="http://www.w3.org/2000/svg">
 <g>
  <path style="fill:#000000; fill-opacity:0.4274"
        d="M32 6.73C18.3 6.73 6.74 16.77 6.74 26.41C6.74 36.06 15.16 42.7 26.94 45.26C26.94 47.82 25.26 52.11 21.06 56.39C21.06 56.39 36.21 53.81 36.21 42.7C48 42.7 57.29 37.12 57.27 26.41C57.25 15.7 45.71 6.73 32 6.73z
           M39.83 42.17C47.67 38.63 53.77 29.78 52.9 20.9C58.13 27.12 53.77 41.29 39.83 42.17z
           M32 6.73C18.3 6.73 6.74 16.77 6.74 26.41C6.74 36.03 15.13 42.67 26.94 45.23C26.94 47.8 25.25 52.09 21.05 56.36C21.05 56.36 35.36 56.36 37.88 45.23C49.67 43.52 57.27 37.1 57.25 26.41C57.23 15.7 45.69 6.73 32 6.73z"
        transform="matrix(1,0,0,1,3,4)"
  />
  <path style="fill:none; stroke:#405680; stroke-width:3.5127"
        d="M32 6.73C18.3 6.73 6.74 16.77 6.74 26.41C6.74 36.06 15.16 42.7 26.94 45.26C26.94 47.82 25.26 52.11 21.06 56.39C21.06 56.39 36.21 53.81 36.21 42.7C48 42.7 57.29 37.12 57.27 26.41C57.25 15.7 45.71 6.73 32 6.73z"
  />
  <radialGradient id="gradient0" gradientUnits="userSpaceOnUse" cx="0" cy="0" r="64" gradientTransform="matrix(0.6123,0,0,0.4493,18.9325,16.9448)">
   <stop offset="0.4959" stop-color="#ffffff"/>
   <stop offset="1" stop-color="#e5e1da"/>
  </radialGradient>
  <path style="fill:url(#gradient0)"
        d="M32 6.73C18.3 6.73 6.74 16.77 6.74 26.41C6.74 36.03 15.13 42.67 26.94 45.23C26.94 47.8 25.25 52.09 21.05 56.36C21.05 56.36 35.36 56.36 37.88 45.23C49.67 43.52 57.27 37.1 57.25 26.41C57.23 15.7 45.69 6.73 32 6.73z"
  />
  <path style="fill:#678ed6; fill-opacity:0.5803"
        d="M39.83 42.17C47.67 38.63 53.77 29.78 52.9 20.9C58.13 27.12 53.77 41.29 39.83 42.17z"
  />
  <path style="fill:none; stroke:#678ed6; stroke-opacity:0.5803; stroke-width:1.7563"
        d="M12.83 23.58H21.54
           M16.32 18.27V32.43C16.32 34.21 17.84 35.09 18.93 35.09C19.99 35.09 21.54 34.21 21.54 32.43"
  />
  <path style="fill:none; stroke:#678ed6; stroke-opacity:0.5803; stroke-width:1.7563"
        d="M32 35.98V27.12C32 25.35 31.12 24.47 29.38 24.47H26.77C25.03 24.47 24.16 25.35 24.16 27.12
           M32 28.89H26.77C25.03 28.89 24.16 29.78 24.16 31.55V32.43C24.16 34.21 25.03 35.09 26.77 35.09C28.51 35.09 32 34.21 32 34.21"
  />
  <path style="fill:none; stroke:#678ed6; stroke-opacity:0.5803; stroke-width:1.7563"
        d="M36.35 18.27V35.98"
  />
  <path style="fill:none; stroke:#678ed6; stroke-opacity:0.5803; stroke-width:1.7563"
        d="M48.54 35.09L42.45 28.89L48.54 22.7
           M40.71 18.27V35.98"
  />
  <linearGradient id="gradient1" gradientUnits="userSpaceOnUse" x1="-79.03" y1="34.64" x2="-79.03" y2="16.92">
   <stop offset="0" stop-color="#336699"/>
   <stop offset="1" stop-color="#6699cc"/>
  </linearGradient>
  <path style="fill:none; stroke:url(#gradient1); stroke-width:1.7563"
        d="M11.96 22.7H20.67
           M15.45 17.38V31.55C15.45 33.32 16.97 34.21 18.06 34.21C19.12 34.21 20.67 33.32 20.67 31.55"
  />
  <linearGradient id="gradient2" gradientUnits="userSpaceOnUse" x1="-79.03" y1="35.75" x2="-79.03" y2="22.45">
   <stop offset="0" stop-color="#cc0000"/>
   <stop offset="1" stop-color="#ff0000"/>
  </linearGradient>
  <path style="fill:none; stroke:url(#gradient2); stroke-width:1.7563"
        d="M31.12 35.09V26.24C31.12 24.47 30.25 23.58 28.51 23.58H25.9C24.16 23.58 23.29 24.47 23.29 26.24
           M31.12 28.01H25.9C24.16 28.01 23.29 28.89 23.29 30.66V31.55C23.29 33.32 24.16 34.21 25.9 34.21C27.64 34.21 31.12 33.32 31.12 33.32"
  />
  <linearGradient id="gradient3" gradientUnits="userSpaceOnUse" x1="-83.38" y1="34.64" x2="-83.38" y2="16.92">
   <stop offset="0" stop-color="#ff9900"/>
   <stop offset="1" stop-color="#fbff00"/>
  </linearGradient>
  <path style="fill:none; stroke:url(#gradient3); stroke-width:1.7563"
        d="M35.48 17.38V35.09"
  />
  <linearGradient id="gradient4" gradientUnits="userSpaceOnUse" x1="-79.03" y1="34.64" x2="-79.03" y2="16.92">
   <stop offset="0" stop-color="#006600"/>
   <stop offset="1" stop-color="#00cc00"/>
  </linearGradient>
  <path style="fill:none; stroke:url(#gradient4); stroke-width:1.7563"
        d="M47.67 34.21L41.58 28.01L47.67 21.81
           M39.83 17.38V35.09"
  />
 </g>
</svg>
