<?xml version="1.0" encoding="UTF-8" standalone="yes"?>
<svg version="1.1" width="64" height="64" color-interpolation="linearRGB"
     xmlns:svg="http://www.w3.org/2000/svg" xmlns="http://www.w3.org/2000/svg">
 <g>
  <path style="fill:#000000; fill-opacity:0.2745"
        d="M44 40.7L40 42.64H52V54.25C48 60.05 40 60.05 34 60.05C22 60.05 12 46.51 12 32.96C12 19.41 22 5.86 34 5.86C40 5.86 48 7.8 51.44 18.04L48 23.28L60 15.54C54 3.93 42 3.93 34 3.93C18 3.93 4 15.54 4 32.96C4 50.38 18 61.99 34 61.99C48 61.99 60 58.12 60.04 54.25L60 42.64L62 40.7H44z"
        transform="matrix(0.8999,0,0,0.8999,3.2,3.1997)"
  />
  <linearGradient id="gradient0" gradientUnits="userSpaceOnUse" x1="-131.99" y1="60.05" x2="-131.99" y2="1.99">
   <stop offset="0" stop-color="#0033cc"/>
   <stop offset="0.99" stop-color="#3366ff"/>
  </linearGradient>
  <path style="fill:url(#gradient0)"
        d="M42 38.77L38 40.7H50V52.31C46 58.12 38 58.12 32 58.12C20 58.12 10 44.57 10 31.02C10 17.48 20 3.93 32 3.93C38 3.93 46 5.86 49.44 16.1L46 21.35L58 13.6C52 1.99 40 1.99 32 1.99C16 1.99 2 13.6 2 31.02C2 48.44 16 60.05 32 60.05C46 60.05 58 56.18 58.04 52.31L58 40.7L60 38.77H42z"
        transform="matrix(0.8999,0,0,0.8999,3.2,3.1997)"
  />
 </g>
</svg>
