<?xml version="1.0" encoding="UTF-8" standalone="yes"?>
<svg version="1.1" width="64" height="64" color-interpolation="linearRGB"
     xmlns:svg="http://www.w3.org/2000/svg" xmlns="http://www.w3.org/2000/svg">
 <g>
  <path style="fill:none; stroke:#010101; stroke-width:3.9999"
        d="M9.23 30.5C5.98 31.17 3.9 34.34 4.55 37.58C5.21 40.83 8.38 42.93 11.63 42.25C14.88 41.59 32 32 32 32C32 32 12.48 29.84 9.23 30.5z"
        transform="matrix(0.9005,0,0,0.8839,3.1816,3.2119)"
  />
  <path style="fill:none; stroke:#010101; stroke-width:3.9999"
        d="M30.5 54.75C31.17 58 34.34 60.09 37.58 59.43C40.83 58.77 42.93 55.61 42.25 52.36C41.59 49.11 32 31.98 32 31.98C32 31.98 29.84 51.5 30.5 54.75z"
        transform="matrix(0.9005,0,0,0.8839,3.1816,3.2119)"
  />
  <path style="fill:none; stroke:#010101; stroke-width:3.9999"
        d="M54.75 33.49C58 32.81 60.09 29.64 59.43 26.4C58.77 23.15 55.61 21.05 52.36 21.72C49.11 22.38 31.98 31.98 31.98 31.98C31.98 31.98 51.5 34.15 54.75 33.49z"
        transform="matrix(0.9005,0,0,0.8839,3.1816,3.2119)"
  />
  <path style="fill:none; stroke:#010101; stroke-width:3.9999"
        d="M33.49 9.23C32.81 5.98 29.64 3.9 26.4 4.55C23.15 5.21 21.05 8.38 21.72 11.63C22.38 14.88 31.98 32 31.98 32C31.98 32 34.15 12.48 33.49 9.23z"
        transform="matrix(0.9005,0,0,0.8839,3.1816,3.2119)"
  />
  <path style="fill:none; stroke:#010101; stroke-width:3.9997"
        d="M46.2 52.18C50.36 54.93 55.93 53.79 58.68 49.65C61.43 45.5 60.29 39.93 56.13 37.18C52 34.43 32 32 32 32C32 32 42.06 49.45 46.2 52.18z"
        transform="matrix(0.9005,0,0,0.8839,3.1816,3.2119)"
  />
  <path style="fill:none; stroke:#010101; stroke-width:3.9997"
        d="M11.8 46.2C9.05 50.36 10.18 55.93 14.34 58.68C18.48 61.43 24.05 60.29 26.8 56.13C29.54 52 31.98 32 31.98 32C31.98 32 14.53 42.06 11.8 46.2z"
        transform="matrix(0.9005,0,0,0.8839,3.1816,3.2119)"
  />
  <path style="fill:none; stroke:#010101; stroke-width:3.9997"
        d="M17.78 11.8C13.63 9.05 8.05 10.18 5.3 14.34C2.55 18.48 3.69 24.05 7.84 26.8C11.98 29.54 31.98 31.98 31.98 31.98C31.98 31.98 21.92 14.53 17.78 11.8z"
        transform="matrix(0.9005,0,0,0.8839,3.1816,3.2119)"
  />
  <path style="fill:none; stroke:#010101; stroke-width:3.9997"
        d="M52.18 17.78C54.93 13.63 53.79 8.05 49.65 5.3C45.5 2.55 39.93 3.69 37.18 7.84C34.43 11.98 32 31.98 32 31.98C32 31.98 49.45 21.92 52.18 17.78z"
        transform="matrix(0.9005,0,0,0.8839,3.1816,3.2119)"
  />
  <radialGradient id="gradient0" gradientUnits="userSpaceOnUse" cx="0" cy="0" r="64" gradientTransform="matrix(-0.0249,-0.1224,0.2754,-0.056,20.2425,34.3945)">
   <stop offset="0" stop-color="#c00505"/>
   <stop offset="1" stop-color="#ff0606"/>
  </radialGradient>
  <path style="fill:url(#gradient0)"
        d="M9.23 30.5C5.98 31.17 3.9 34.34 4.55 37.58C5.21 40.83 8.38 42.93 11.63 42.25C14.88 41.59 32 32 32 32C32 32 12.48 29.84 9.23 30.5z"
        transform="matrix(0.9005,0,0,0.8839,3.1816,3.2119)"
  />
  <radialGradient id="gradient1" gradientUnits="userSpaceOnUse" cx="0" cy="0" r="64" gradientTransform="matrix(-0.1224,0.0249,-0.056,-0.2754,34.3945,43.7574)">
   <stop offset="0" stop-color="#049d04"/>
   <stop offset="1" stop-color="#05c205"/>
  </radialGradient>
  <path style="fill:url(#gradient1)"
        d="M30.5 54.75C31.17 58 34.34 60.09 37.58 59.43C40.83 58.77 42.93 55.61 42.25 52.36C41.59 49.11 32 31.98 32 31.98C32 31.98 29.84 51.5 30.5 54.75z"
        transform="matrix(0.9005,0,0,0.8839,3.1816,3.2119)"
  />
  <radialGradient id="gradient2" gradientUnits="userSpaceOnUse" cx="0" cy="0" r="64" gradientTransform="matrix(0.0249,0.1224,-0.2754,0.056,43.7574,29.6054)">
   <stop offset="0" stop-color="#049d04"/>
   <stop offset="1" stop-color="#05c205"/>
  </radialGradient>
  <path style="fill:url(#gradient2)"
        d="M54.75 33.49C58 32.81 60.09 29.64 59.43 26.4C58.77 23.15 55.61 21.05 52.36 21.72C49.11 22.38 31.98 31.98 31.98 31.98C31.98 31.98 51.5 34.15 54.75 33.49z"
        transform="matrix(0.9005,0,0,0.8839,3.1816,3.2119)"
  />
  <radialGradient id="gradient3" gradientUnits="userSpaceOnUse" cx="0" cy="0" r="64" gradientTransform="matrix(0.1224,-0.0249,0.056,0.2754,29.6054,20.2425)">
   <stop offset="0" stop-color="#049d04"/>
   <stop offset="1" stop-color="#05c205"/>
  </radialGradient>
  <path style="fill:url(#gradient3)"
        d="M33.49 9.23C32.81 5.98 29.64 3.9 26.4 4.55C23.15 5.21 21.05 8.38 21.72 11.63C22.38 14.88 31.98 32 31.98 32C31.98 32 34.15 12.48 33.49 9.23z"
        transform="matrix(0.9005,0,0,0.8839,3.1816,3.2119)"
  />
  <radialGradient id="gradient4" gradientUnits="userSpaceOnUse" cx="0" cy="0" r="64" gradientTransform="matrix(-0.0688,0.1041,-0.2344,-0.1551,42.0097,38.6226)">
   <stop offset="0" stop-color="#049d04"/>
   <stop offset="1" stop-color="#05c205"/>
  </radialGradient>
  <path style="fill:url(#gradient4)"
        d="M46.2 52.18C50.36 54.93 55.93 53.79 58.68 49.65C61.43 45.5 60.29 39.93 56.13 37.18C52 34.43 32 32 32 32C32 32 42.06 49.45 46.2 52.18z"
        transform="matrix(0.9005,0,0,0.8839,3.1816,3.2119)"
  />
  <radialGradient id="gradient5" gradientUnits="userSpaceOnUse" cx="0" cy="0" r="64" gradientTransform="matrix(-0.1041,-0.0688,0.1551,-0.2344,25.377,42.0097)">
   <stop offset="0" stop-color="#049d04"/>
   <stop offset="1" stop-color="#05c205"/>
  </radialGradient>
  <path style="fill:url(#gradient5)"
        d="M11.8 46.2C9.05 50.36 10.18 55.93 14.34 58.68C18.48 61.43 24.05 60.29 26.8 56.13C29.54 52 31.98 32 31.98 32C31.98 32 14.53 42.06 11.8 46.2z"
        transform="matrix(0.9005,0,0,0.8839,3.1816,3.2119)"
  />
  <radialGradient id="gradient6" gradientUnits="userSpaceOnUse" cx="0" cy="0" r="64" gradientTransform="matrix(0.0688,-0.1041,0.2344,0.1551,21.9901,25.377)">
   <stop offset="0" stop-color="#049d04"/>
   <stop offset="1" stop-color="#05c205"/>
  </radialGradient>
  <path style="fill:url(#gradient6)"
        d="M17.78 11.8C13.63 9.05 8.05 10.18 5.3 14.34C2.55 18.48 3.69 24.05 7.84 26.8C11.98 29.54 31.98 31.98 31.98 31.98C31.98 31.98 21.92 14.53 17.78 11.8z"
        transform="matrix(0.9005,0,0,0.8839,3.1816,3.2119)"
  />
  <radialGradient id="gradient7" gradientUnits="userSpaceOnUse" cx="0" cy="0" r="64" gradientTransform="matrix(0.1041,0.0688,-0.1551,0.2344,38.6226,21.9901)">
   <stop offset="0" stop-color="#049d04"/>
   <stop offset="1" stop-color="#05c205"/>
  </radialGradient>
  <path style="fill:url(#gradient7)"
        d="M52.18 17.78C54.93 13.63 53.79 8.05 49.65 5.3C45.5 2.55 39.93 3.69 37.18 7.84C34.43 11.98 32 31.98 32 31.98C32 31.98 49.45 21.92 52.18 17.78z"
        transform="matrix(0.9005,0,0,0.8839,3.1816,3.2119)"
  />
  <radialGradient id="gradient8" gradientUnits="userSpaceOnUse" cx="0" cy="0" r="64" gradientTransform="matrix(0.1562,0,0,0.1562,30,30)">
   <stop offset="0" stop-color="#ffffff"/>
   <stop offset="0.4812" stop-color="#f0ff06"/>
   <stop offset="1" stop-color="#ffde00"/>
  </radialGradient>
  <path style="fill:url(#gradient8)"
        d="M32 24C36.47 24 40 27.52 40 32C40 36.47 36.47 40 32 40C27.52 40 24 36.47 24 32C24 27.52 27.52 24 32 24z"
        transform="matrix(0.9005,0,0,0.8839,3.1816,3.2119)"
  />
 </g>
</svg>
