<?xml version="1.0" encoding="UTF-8" standalone="yes"?>
<svg version="1.1" width="64" height="64" color-interpolation="linearRGB"
     xmlns:svg="http://www.w3.org/2000/svg" xmlns="http://www.w3.org/2000/svg">
 <g>
  <path style="fill:#000000; fill-opacity:0.4196"
        d="M11.49 30.17C8.56 30.76 6.69 33.56 7.27 36.42C7.87 39.3 10.72 41.15 13.65 40.55C16.58 39.97 31.99 31.49 31.99 31.49C31.99 31.49 14.41 29.58 11.49 30.17z
           M30.64 51.6C31.25 54.47 34.1 56.32 37.02 55.74C39.94 55.15 41.84 52.36 41.22 49.49C40.63 46.62 31.99 31.47 31.99 31.47C31.99 31.47 30.05 48.73 30.64 51.6z
           M52.48 32.81C55.41 32.21 57.29 29.41 56.69 26.54C56.1 23.67 53.25 21.81 50.33 22.41C47.4 22.99 31.97 31.47 31.97 31.47C31.97 31.47 49.55 33.39 52.48 32.81z
           M33.33 11.37C32.72 8.49 29.87 6.65 26.95 7.23C24.02 7.81 22.13 10.61 22.74 13.49C23.33 16.36 31.97 31.49 31.97 31.49C31.97 31.49 33.93 14.24 33.33 11.37z
           M13.8 44.04C11.33 47.72 12.34 52.64 16.09 55.07C19.82 57.5 24.83 56.5 27.31 52.82C29.78 49.17 31.97 31.49 31.97 31.49C31.97 31.49 16.26 40.38 13.8 44.04z
           M44.78 49.33C48.53 51.76 53.54 50.75 56.02 47.09C58.49 43.42 57.47 38.5 53.72 36.07C50 33.64 31.99 31.49 31.99 31.49C31.99 31.49 41.05 46.92 44.78 49.33z
           M19.19 13.64C15.45 11.21 10.43 12.21 7.95 15.88C5.47 19.54 6.5 24.46 10.24 26.9C13.96 29.32 31.97 31.47 31.97 31.47C31.97 31.47 22.92 16.05 19.19 13.64z
           M50.16 18.92C52.64 15.25 51.61 10.32 47.89 7.89C44.15 5.46 39.13 6.47 36.66 10.14C34.18 13.8 31.99 31.47 31.99 31.47C31.99 31.47 47.71 22.58 50.16 18.92z
           M11.49 30.17C8.56 30.76 6.69 33.56 7.27 36.42C7.87 39.3 10.72 41.15 13.65 40.55C16.58 39.97 31.99 31.49 31.99 31.49C31.99 31.49 14.41 29.58 11.49 30.17z
           M30.64 51.6C31.25 54.47 34.1 56.32 37.02 55.74C39.94 55.15 41.84 52.36 41.22 49.49C40.63 46.62 31.99 31.47 31.99 31.47C31.99 31.47 30.05 48.73 30.64 51.6z
           M52.48 32.81C55.41 32.21 57.29 29.41 56.69 26.54C56.1 23.67 53.25 21.81 50.33 22.41C47.4 22.99 31.97 31.47 31.97 31.47C31.97 31.47 49.55 33.39 52.48 32.81z
           M33.33 11.37C32.72 8.49 29.87 6.65 26.95 7.23C24.02 7.81 22.13 10.61 22.74 13.49C23.33 16.36 31.97 31.49 31.97 31.49C31.97 31.49 33.93 14.24 33.33 11.37z
           M44.78 49.33C48.53 51.76 53.54 50.75 56.02 47.09C58.49 43.42 57.47 38.5 53.72 36.07C50 33.64 31.99 31.49 31.99 31.49C31.99 31.49 41.05 46.92 44.78 49.33z
           M13.8 44.04C11.33 47.72 12.34 52.64 16.09 55.07C19.82 57.5 24.83 56.5 27.31 52.82C29.78 49.17 31.97 31.49 31.97 31.49C31.97 31.49 16.26 40.38 13.8 44.04z
           M19.19 13.64C15.45 11.21 10.43 12.21 7.95 15.88C5.47 19.54 6.5 24.46 10.24 26.9C13.96 29.32 31.97 31.47 31.97 31.47C31.97 31.47 22.92 16.05 19.19 13.64z
           M50.16 18.92C52.64 15.25 51.61 10.32 47.89 7.89C44.15 5.46 39.13 6.47 36.66 10.14C34.18 13.8 31.99 31.47 31.99 31.47C31.99 31.47 47.71 22.58 50.16 18.92z"
        transform="matrix(1,0,0,1,4,4)"
  />
  <path style="fill:none; stroke:#010101; stroke-width:3.5688"
        d="M11.49 30.17C8.56 30.76 6.69 33.56 7.27 36.42C7.87 39.3 10.72 41.15 13.65 40.55C16.58 39.97 31.99 31.49 31.99 31.49C31.99 31.49 14.41 29.58 11.49 30.17z"
  />
  <path style="fill:none; stroke:#010101; stroke-width:3.5688"
        d="M30.64 51.6C31.25 54.47 34.1 56.32 37.02 55.74C39.94 55.15 41.84 52.36 41.22 49.49C40.63 46.62 31.99 31.47 31.99 31.47C31.99 31.47 30.05 48.73 30.64 51.6z"
  />
  <path style="fill:none; stroke:#010101; stroke-width:3.5688"
        d="M52.48 32.81C55.41 32.21 57.29 29.41 56.69 26.54C56.1 23.67 53.25 21.81 50.33 22.41C47.4 22.99 31.97 31.47 31.97 31.47C31.97 31.47 49.55 33.39 52.48 32.81z"
  />
  <path style="fill:none; stroke:#010101; stroke-width:3.5688"
        d="M33.33 11.37C32.72 8.49 29.87 6.65 26.95 7.23C24.02 7.81 22.13 10.61 22.74 13.49C23.33 16.36 31.97 31.49 31.97 31.49C31.97 31.49 33.93 14.24 33.33 11.37z"
  />
  <path style="fill:none; stroke:#010101; stroke-width:3.5686"
        d="M44.78 49.33C48.53 51.76 53.54 50.75 56.02 47.09C58.49 43.42 57.47 38.5 53.72 36.07C50 33.64 31.99 31.49 31.99 31.49C31.99 31.49 41.05 46.92 44.78 49.33z"
  />
  <path style="fill:none; stroke:#010101; stroke-width:3.5686"
        d="M13.8 44.04C11.33 47.72 12.34 52.64 16.09 55.07C19.82 57.5 24.83 56.5 27.31 52.82C29.78 49.17 31.97 31.49 31.97 31.49C31.97 31.49 16.26 40.38 13.8 44.04z"
  />
  <path style="fill:none; stroke:#010101; stroke-width:3.5686"
        d="M19.19 13.64C15.45 11.21 10.43 12.21 7.95 15.88C5.47 19.54 6.5 24.46 10.24 26.9C13.96 29.32 31.97 31.47 31.97 31.47C31.97 31.47 22.92 16.05 19.19 13.64z"
  />
  <path style="fill:none; stroke:#010101; stroke-width:3.5686"
        d="M50.16 18.92C52.64 15.25 51.61 10.32 47.89 7.89C44.15 5.46 39.13 6.47 36.66 10.14C34.18 13.8 31.99 31.47 31.99 31.47C31.99 31.47 47.71 22.58 50.16 18.92z"
  />
  <radialGradient id="gradient0" gradientUnits="userSpaceOnUse" cx="0" cy="0" r="64" gradientTransform="matrix(-0.0224,-0.1081,0.2479,-0.0494,21.4099,33.6131)">
   <stop offset="0" stop-color="#c00505"/>
   <stop offset="1" stop-color="#ff0606"/>
  </radialGradient>
  <path style="fill:url(#gradient0)"
        d="M11.49 30.17C8.56 30.76 6.69 33.56 7.27 36.42C7.87 39.3 10.72 41.15 13.65 40.55C16.58 39.97 31.99 31.49 31.99 31.49C31.99 31.49 14.41 29.58 11.49 30.17z"
  />
  <radialGradient id="gradient1" gradientUnits="userSpaceOnUse" cx="0" cy="0" r="64" gradientTransform="matrix(-0.1102,0.022,-0.0504,-0.2434,34.1538,41.889)">
   <stop offset="0" stop-color="#049d04"/>
   <stop offset="1" stop-color="#05c205"/>
  </radialGradient>
  <path style="fill:url(#gradient1)"
        d="M30.64 51.6C31.25 54.47 34.1 56.32 37.02 55.74C39.94 55.15 41.84 52.36 41.22 49.49C40.63 46.62 31.99 31.47 31.99 31.47C31.99 31.47 30.05 48.73 30.64 51.6z"
  />
  <radialGradient id="gradient2" gradientUnits="userSpaceOnUse" cx="0" cy="0" r="64" gradientTransform="matrix(0.0224,0.1081,-0.2479,0.0494,42.5851,29.3801)">
   <stop offset="0" stop-color="#049d04"/>
   <stop offset="1" stop-color="#05c205"/>
  </radialGradient>
  <path style="fill:url(#gradient2)"
        d="M52.48 32.81C55.41 32.21 57.29 29.41 56.69 26.54C56.1 23.67 53.25 21.81 50.33 22.41C47.4 22.99 31.97 31.47 31.97 31.47C31.97 31.47 49.55 33.39 52.48 32.81z"
  />
  <radialGradient id="gradient3" gradientUnits="userSpaceOnUse" cx="0" cy="0" r="64" gradientTransform="matrix(0.1102,-0.022,0.0504,0.2434,29.8412,21.1042)">
   <stop offset="0" stop-color="#049d04"/>
   <stop offset="1" stop-color="#05c205"/>
  </radialGradient>
  <path style="fill:url(#gradient3)"
        d="M33.33 11.37C32.72 8.49 29.87 6.65 26.95 7.23C24.02 7.81 22.13 10.61 22.74 13.49C23.33 16.36 31.97 31.49 31.97 31.49C31.97 31.49 33.93 14.24 33.33 11.37z"
  />
  <radialGradient id="gradient4" gradientUnits="userSpaceOnUse" cx="0" cy="0" r="64" gradientTransform="matrix(-0.0619,0.092,-0.211,-0.137,41.0113,37.3504)">
   <stop offset="0" stop-color="#049d04"/>
   <stop offset="1" stop-color="#05c205"/>
  </radialGradient>
  <path style="fill:url(#gradient4)"
        d="M44.78 49.33C48.53 51.76 53.54 50.75 56.02 47.09C58.49 43.42 57.47 38.5 53.72 36.07C50 33.64 31.99 31.49 31.99 31.49C31.99 31.49 41.05 46.92 44.78 49.33z"
  />
  <radialGradient id="gradient5" gradientUnits="userSpaceOnUse" cx="0" cy="0" r="64" gradientTransform="matrix(-0.0937,-0.0608,0.1396,-0.2071,26.0335,40.3442)">
   <stop offset="0" stop-color="#049d04"/>
   <stop offset="1" stop-color="#05c205"/>
  </radialGradient>
  <path style="fill:url(#gradient5)"
        d="M13.8 44.04C11.33 47.72 12.34 52.64 16.09 55.07C19.82 57.5 24.83 56.5 27.31 52.82C29.78 49.17 31.97 31.49 31.97 31.49C31.97 31.49 16.26 40.38 13.8 44.04z"
  />
  <radialGradient id="gradient6" gradientUnits="userSpaceOnUse" cx="0" cy="0" r="64" gradientTransform="matrix(0.0619,-0.092,0.211,0.137,22.9836,25.6426)">
   <stop offset="0" stop-color="#049d04"/>
   <stop offset="1" stop-color="#05c205"/>
  </radialGradient>
  <path style="fill:url(#gradient6)"
        d="M19.19 13.64C15.45 11.21 10.43 12.21 7.95 15.88C5.47 19.54 6.5 24.46 10.24 26.9C13.96 29.32 31.97 31.47 31.97 31.47C31.97 31.47 22.92 16.05 19.19 13.64z"
  />
  <radialGradient id="gradient7" gradientUnits="userSpaceOnUse" cx="0" cy="0" r="64" gradientTransform="matrix(0.0937,0.0608,-0.1396,0.2071,37.9612,22.6489)">
   <stop offset="0" stop-color="#049d04"/>
   <stop offset="1" stop-color="#05c205"/>
  </radialGradient>
  <path style="fill:url(#gradient7)"
        d="M50.16 18.92C52.64 15.25 51.61 10.32 47.89 7.89C44.15 5.46 39.13 6.47 36.66 10.14C34.18 13.8 31.99 31.47 31.99 31.47C31.99 31.47 47.71 22.58 50.16 18.92z"
  />
  <radialGradient id="gradient8" gradientUnits="userSpaceOnUse" cx="0" cy="0" r="64" gradientTransform="matrix(0.1406,0,0,0.138,30.1965,29.7289)">
   <stop offset="0" stop-color="#ffffff"/>
   <stop offset="0.4812" stop-color="#f0ff06"/>
   <stop offset="1" stop-color="#ffde00"/>
  </radialGradient>
  <path style="fill:url(#gradient8)"
        d="M31.99 24.42C36.02 24.42 39.2 27.53 39.2 31.49C39.2 35.44 36.02 38.56 31.99 38.56C27.96 38.56 24.79 35.44 24.79 31.49C24.79 27.53 27.96 24.42 31.99 24.42z"
  />
 </g>
</svg>
