<?xml version="1.0" encoding="UTF-8" standalone="yes"?>
<svg version="1.1" width="64" height="64" color-interpolation="linearRGB"
     xmlns:svg="http://www.w3.org/2000/svg" xmlns="http://www.w3.org/2000/svg">
 <g>
  <path style="fill:none; stroke:#000000; stroke-opacity:0.4; stroke-width:5.636; stroke-linecap:round; stroke-linejoin:round"
        d="M43.25 40.45H23.54C14.18 40.45 6.63 49.25 6.63 60.16H60.16C60.16 49.25 52.58 40.45 43.25 40.45z
           M33.4 6.63C24.84 6.63 17.89 13.56 17.89 22.12C17.89 30.67 24.84 37.63 33.4 37.63C41.93 37.63 48.9 30.67 48.9 22.12C48.9 13.56 41.93 6.63 33.4 6.63z"
        transform="matrix(0.8846,0,0,0.8846,3.2665,3.2664)"
  />
  <path style="fill:none; stroke:#000000; stroke-width:3; stroke-linecap:round; stroke-linejoin:round"
        d="M40.45 37.63H20.71C11.36 37.63 3.8 46.43 3.8 57.36H57.34C57.34 46.43 49.75 37.63 40.45 37.63z
           M30.57 3.8C22.02 3.8 15.07 10.75 15.07 19.3C15.07 27.85 22.02 34.81 30.57 34.81C39.11 34.81 46.08 27.85 46.08 19.3C46.08 10.75 39.11 3.8 30.57 3.8z"
        transform="matrix(0.8846,0,0,0.8846,3.2665,3.2664)"
  />
 </g>
</svg>
