<?xml version="1.0" encoding="UTF-8" standalone="yes"?>
<svg version="1.1" width="64" height="64" color-interpolation="linearRGB"
     xmlns:svg="http://www.w3.org/2000/svg" xmlns="http://www.w3.org/2000/svg">
 <g>
  <path style="fill:#cc0000"
        d="M31 49C31 49 28 50 25 50C22 50 16 46 15 45C14 44 15 43 16 44C17 45 23 50 25 50
           M31 56C31 56 30 56 26 56C21 56 16 53 14 51C13 50 15 50 16 51C18 53 23 56 26 56
           M32 61C32 61 29 63 26 63C23 63 15 60 14 58C13 56 14 55 15 57C16 59 23 63 26 63
           M36 59C36 59 35 50 37 47C39 44 43 41 45 39C47 37 52 32 52 28C52 24 51 18 49 15C47 12 42 7 39 6C36 5 31 4 27 4C23 4 17 7 14 10C12 12 12 6 15 4C18 2 23 1 26 1C29 1 36 2 39 3C42 4 48 10 50 13C52 16 54 22 54 27C54 32 51 36 48 39C45 42 42 43 38 47C34.45 50.52 36 59 36 59z"
        transform="matrix(0.8791,0,0,0.887,3.5232,3.1129)"
  />
  <path style="fill:#ffb400"
        d="M24 28C24 28 23 28 21 29C19 30 22 35.22 22 36C22 37 20 37 20 36C20 35 20 31.52 20 31C20 30 22 28 24 28C26 28 27 32 27 32C27 32 29 29 31 29C33 29 33 31 33 33C33 35 31 38 30 39C29 40 28 39 29 38C30 37 32 36 32 32C32 27 27 32 27 32"
        transform="matrix(0.8791,0,0,0.887,3.5232,3.1129)"
  />
 </g>
</svg>
