<?xml version="1.0" encoding="UTF-8" standalone="yes"?>
<svg version="1.1" width="64" height="64" color-interpolation="linearRGB"
     xmlns:svg="http://www.w3.org/2000/svg" xmlns="http://www.w3.org/2000/svg">
 <g>
  <path style="fill:none; stroke:#000000; stroke-opacity:0.4705; stroke-width:2"
        d="M30.77 46.57C30.77 46.57 28.13 47.46 25.5 47.46C22.86 47.46 17.58 43.91 16.7 43.02C15.83 42.14 16.7 41.25 17.58 42.14C18.46 43.02 23.74 47.46 25.5 47.46
           M30.77 52.78C30.77 52.78 29.89 52.78 26.37 52.78C21.98 52.78 17.58 50.12 15.83 48.34C14.95 47.46 16.7 47.46 17.58 48.34C19.34 50.12 23.74 52.78 26.37 52.78
           M31.65 57.21C31.65 57.21 29.01 58.99 26.37 58.99C23.74 58.99 16.7 56.33 15.83 54.55C14.95 52.78 15.83 51.89 16.7 53.67C17.58 55.44 23.74 58.99 26.37 58.99
           M35.17 55.44C35.17 55.44 34.29 47.46 36.04 44.8C37.8 42.14 41.32 39.47 43.08 37.7C44.84 35.93 49.23 31.49 49.23 27.94C49.23 24.4 48.35 19.07 46.59 16.41C44.84 13.75 40.44 9.32 37.8 8.43C35.17 7.54 30.77 6.66 27.25 6.66C23.74 6.66 18.46 9.32 15.83 11.98C14.07 13.75 14.07 8.43 16.7 6.66C19.34 4.88 23.74 3.99 26.37 3.99C29.01 3.99 35.17 4.88 37.8 5.77C40.44 6.66 45.72 11.98 47.47 14.64C49.23 17.3 50.99 22.62 50.99 27.06C50.99 31.49 48.35 35.04 45.72 37.7C43.08 40.36 40.44 41.25 36.92 44.8C33.8 47.92 35.17 55.44 35.17 55.44z
           M24.62 27.94C24.62 27.94 23.74 27.94 21.98 28.83C20.22 29.72 22.86 34.35 22.86 35.04C22.86 35.93 21.1 35.93 21.1 35.04C21.1 34.15 21.1 31.07 21.1 30.6C21.1 29.72 22.86 27.94 24.62 27.94C26.37 27.94 27.25 31.49 27.25 31.49C27.25 31.49 29.01 28.83 30.77 28.83C32.53 28.83 32.53 30.6 32.53 32.38C32.53 34.15 30.77 36.81 29.89 37.7C29.01 38.59 28.13 37.7 29.01 36.81C29.89 35.93 31.65 35.04 31.65 31.49C31.65 27.06 27.25 31.49 27.25 31.49"
        transform="matrix(1,0,0,0.983,3,2.0422)"
  />
  <path style="fill:#cc0000"
        d="M30.77 46.57C30.77 46.57 28.13 47.46 25.5 47.46C22.86 47.46 17.58 43.91 16.7 43.02C15.83 42.14 16.7 41.25 17.58 42.14C18.46 43.02 23.74 47.46 25.5 47.46
           M30.77 52.78C30.77 52.78 29.89 52.78 26.37 52.78C21.98 52.78 17.58 50.12 15.83 48.34C14.95 47.46 16.7 47.46 17.58 48.34C19.34 50.12 23.74 52.78 26.37 52.78
           M31.65 57.21C31.65 57.21 29.01 58.99 26.37 58.99C23.74 58.99 16.7 56.33 15.83 54.55C14.95 52.78 15.83 51.89 16.7 53.67C17.58 55.44 23.74 58.99 26.37 58.99
           M35.17 55.44C35.17 55.44 34.29 47.46 36.04 44.8C37.8 42.14 41.32 39.47 43.08 37.7C44.84 35.93 49.23 31.49 49.23 27.94C49.23 24.4 48.35 19.07 46.59 16.41C44.84 13.75 40.44 9.32 37.8 8.43C35.17 7.54 30.77 6.66 27.25 6.66C23.74 6.66 18.46 9.32 15.83 11.98C14.07 13.75 14.07 8.43 16.7 6.66C19.34 4.88 23.74 3.99 26.37 3.99C29.01 3.99 35.17 4.88 37.8 5.77C40.44 6.66 45.72 11.98 47.47 14.64C49.23 17.3 50.99 22.62 50.99 27.06C50.99 31.49 48.35 35.04 45.72 37.7C43.08 40.36 40.44 41.25 36.92 44.8C33.8 47.92 35.17 55.44 35.17 55.44z"
  />
  <path style="fill:#ffb400"
        d="M24.62 27.94C24.62 27.94 23.74 27.94 21.98 28.83C20.22 29.72 22.86 34.35 22.86 35.04C22.86 35.93 21.1 35.93 21.1 35.04C21.1 34.15 21.1 31.07 21.1 30.6C21.1 29.72 22.86 27.94 24.62 27.94C26.37 27.94 27.25 31.49 27.25 31.49C27.25 31.49 29.01 28.83 30.77 28.83C32.53 28.83 32.53 30.6 32.53 32.38C32.53 34.15 30.77 36.81 29.89 37.7C29.01 38.59 28.13 37.7 29.01 36.81C29.89 35.93 31.65 35.04 31.65 31.49C31.65 27.06 27.25 31.49 27.25 31.49"
  />
 </g>
</svg>
