<?xml version="1.0" encoding="UTF-8" standalone="yes"?>
<svg version="1.1" width="64" height="64" color-interpolation="linearRGB"
     xmlns:svg="http://www.w3.org/2000/svg" xmlns="http://www.w3.org/2000/svg">
 <g>
  <path style="fill:none; stroke:#000000; stroke-opacity:0.4; stroke-width:4.9081; stroke-linecap:round; stroke-linejoin:round"
        d="M33.2 9.89C25.76 9.89 19.7 15.93 19.7 23.38C19.7 30.81 25.76 36.9 33.2 36.9C40.65 36.9 46.7 30.81 46.7 23.38C46.7 15.93 40.65 9.89 33.2 9.89V9.89V9.89V9.89V9.89V9.89V9.89z
           M41.79 39.34C36.06 39.34 30.35 39.34 24.62 39.34C16.45 39.34 9.89 47.02 9.89 56.52C25.44 56.52 40.97 56.52 56.52 56.52C56.52 47.02 49.9 39.34 41.79 39.34V39.34V39.34V39.34V39.34V39.34V39.34z"
  />
  <path style="fill:none; stroke:#000000; stroke-width:4.9081; stroke-linecap:round; stroke-linejoin:round"
        d="M30.76 7.44C23.29 7.44 17.26 13.47 17.26 20.94C17.26 28.37 23.29 34.43 30.76 34.43C38.18 34.43 44.25 28.37 44.25 20.94C44.25 13.47 38.18 7.44 30.76 7.44V7.44V7.44V7.44V7.44V7.44V7.44z
           M39.34 36.9C33.61 36.9 27.88 36.9 22.17 36.9C14.02 36.9 7.44 44.56 7.44 54.08C22.96 54.08 38.52 54.08 54.06 54.08C54.06 44.56 47.45 36.9 39.34 36.9V36.9V36.9V36.9V36.9V36.9V36.9z"
  />
  <linearGradient id="gradient0" gradientUnits="userSpaceOnUse" x1="93.98" y1="32.08" x2="93.98" y2="59.79">
   <stop offset="0" stop-color="#ababab"/>
   <stop offset="1" stop-color="#363636"/>
  </linearGradient>
  <path style="fill:url(#gradient0)"
        d="M30.76 7.44C23.29 7.44 17.26 13.47 17.26 20.94C17.26 28.37 23.29 34.43 30.76 34.43C38.18 34.43 44.25 28.37 44.25 20.94C44.25 13.47 38.18 7.44 30.76 7.44V7.44V7.44V7.44V7.44V7.44V7.44z
           M39.34 36.9C33.61 36.9 27.88 36.9 22.17 36.9C14.02 36.9 7.44 44.56 7.44 54.08C22.96 54.08 38.52 54.08 54.06 54.08C54.06 44.56 47.45 36.9 39.34 36.9V36.9V36.9V36.9V36.9V36.9V36.9z"
  />
  <path style="fill:#141414"
        d=""
  />
  <path style="fill:none; stroke:#800000; stroke-width:4.1999; stroke-linecap:round; stroke-linejoin:bevel"
        d="M6 54C7.32 55.33 8.65 56.65 10 58C26 42 42 26 58 10C56.65 8.65 55.33 7.32 54 6C38 22 22 38 6 54V54V54V54V54z"
  />
  <linearGradient id="gradient1" gradientUnits="userSpaceOnUse" x1="162.05" y1="7.43" x2="162.05" y2="54.08">
   <stop offset="0" stop-color="#ffabab"/>
   <stop offset="1" stop-color="#d90000"/>
  </linearGradient>
  <path style="fill:url(#gradient1)"
        d="M6 54C7.32 55.33 8.65 56.65 10 58C26 42 42 26 58 10C56.65 8.65 55.33 7.32 54 6C38 22 22 38 6 54V54V54V54V54z"
  />
 </g>
</svg>
