<?xml version="1.0" encoding="UTF-8" standalone="yes"?>
<svg version="1.1" width="64" height="64" color-interpolation="linearRGB"
     xmlns:svg="http://www.w3.org/2000/svg" xmlns="http://www.w3.org/2000/svg">
 <g>
  <path style="fill:#000000; fill-opacity:0.4156"
        d="M36.91 45.48C36.91 45.48 42.37 49.81 45.1 49.81C47.83 49.81 53.29 42.89 53.29 37.69C53.29 29.9 46.92 27.31 40.55 27.31C34.19 27.31 30.55 28.17 30.55 28.17L36.91 45.48z
           M36.91 44.62C36.91 44.62 36.91 52.41 35.09 53.27C33.28 54.14 26.91 48.95 23.27 43.75C19.63 38.56 21.45 33.37 23.27 31.63C25.09 29.9 29.64 29.04 29.64 29.04L36.91 44.62z
           M48.74 11.73C53.29 11.73 55.11 22.11 54.2 27.31C53.29 32.5 51.47 39.42 46.92 40.29C42.37 41.16 36 39.42 36 39.42L30.55 27.31C30.55 27.31 31.46 22.98 36 18.65C38.73 16.05 44.19 11.73 48.74 11.73z
           M30.55 35.96C28.73 30.77 26.91 26.44 28.73 25.57C30.55 24.71 31.46 29.04 34.19 34.23C36.91 39.42 36.91 45.48 36.91 45.48C36.91 45.48 32.37 41.16 30.55 35.96z
           M33.28 39.42C33.28 39.42 32.37 42.02 29.64 42.89C24.18 43.75 17.81 36.83 15.99 35.1C12.35 31.63 5.08 20.38 8.72 18.65C13.26 16.92 28.73 27.31 28.73 27.31L33.28 39.42z
           M36.91 45.48C36.91 45.48 42.37 49.81 45.1 49.81C47.83 49.81 53.29 42.89 53.29 37.69C53.29 29.9 46.92 27.31 40.55 27.31C34.19 27.31 30.55 28.17 30.55 28.17L36.91 45.48z
           M36.91 44.62C36.91 44.62 36.91 52.41 35.09 53.27C33.28 54.14 26.91 48.95 23.27 43.75C19.63 38.56 21.45 33.37 23.27 31.63C25.09 29.9 29.64 29.04 29.64 29.04L36.91 44.62z
           M48.74 11.73C53.29 11.73 55.11 22.11 54.2 27.31C53.29 32.5 51.47 39.42 46.92 40.29C42.37 41.16 36 39.42 36 39.42L30.55 27.31C30.55 27.31 31.46 22.98 36 18.65C38.73 16.05 44.19 11.73 48.74 11.73z
           M33.28 39.42C33.28 39.42 32.37 42.02 29.64 42.89C24.18 43.75 17.81 36.83 15.99 35.1C12.35 31.63 5.08 20.38 8.72 18.65C13.26 16.92 28.73 27.31 28.73 27.31L33.28 39.42z
           M30.55 35.96C28.73 30.77 26.91 26.44 28.73 25.57C30.55 24.71 31.46 29.04 34.19 34.23C36.91 39.42 36.91 45.48 36.91 45.48C36.91 45.48 32.37 41.16 30.55 35.96z
           M36.91 45.48C36.91 45.48 42.37 49.81 45.1 49.81C47.83 49.81 53.29 42.89 53.29 37.69C53.29 29.9 46.92 27.31 40.55 27.31C34.19 27.31 30.55 28.17 30.55 28.17L36.91 45.48z
           M36.91 44.62C36.91 44.62 36.91 52.41 35.09 53.27C33.28 54.14 26.91 48.95 23.27 43.75C19.63 38.56 21.45 33.37 23.27 31.63C25.09 29.9 29.64 29.04 29.64 29.04L36.91 44.62z
           M30.55 35.96C28.73 30.77 26.91 26.44 28.73 25.57C30.55 24.71 31.46 29.04 34.19 34.23C36.91 39.42 36.91 45.48 36.91 45.48C36.91 45.48 32.37 41.16 30.55 35.96z
           M33.28 35.1C31.46 31.63 28.73 25.57 28.73 25.57C28.73 25.57 29.64 32.5 31.46 35.96C33.28 39.42 36.91 45.48 36.91 45.48C36.91 45.48 35.09 38.56 33.28 35.1z
           M33.28 39.42C33.28 39.42 32.37 42.02 29.64 42.89C24.18 43.75 17.81 36.83 15.99 35.1C12.35 31.63 5.08 20.38 8.72 18.65C13.26 16.92 28.73 27.31 28.73 27.31L33.28 39.42z"
        transform="matrix(1,0,0,1,4,5)"
  />
  <path style="fill:none; stroke:#010101; stroke-width:3.5514"
        d="M36.91 45.48C36.91 45.48 42.37 49.81 45.1 49.81C47.83 49.81 53.29 42.89 53.29 37.69C53.29 29.9 46.92 27.31 40.55 27.31C34.19 27.31 30.55 28.17 30.55 28.17L36.91 45.48z
           M36.91 44.62C36.91 44.62 36.91 52.41 35.09 53.27C33.28 54.14 26.91 48.95 23.27 43.75C19.63 38.56 21.45 33.37 23.27 31.63C25.09 29.9 29.64 29.04 29.64 29.04L36.91 44.62z
           M48.74 11.73C53.29 11.73 55.11 22.11 54.2 27.31C53.29 32.5 51.47 39.42 46.92 40.29C42.37 41.16 36 39.42 36 39.42L30.55 27.31C30.55 27.31 31.46 22.98 36 18.65C38.73 16.05 44.19 11.73 48.74 11.73z
           M33.28 39.42C33.28 39.42 32.37 42.02 29.64 42.89C24.18 43.75 17.81 36.83 15.99 35.1C12.35 31.63 5.08 20.38 8.72 18.65C13.26 16.92 28.73 27.31 28.73 27.31L33.28 39.42z
           M30.55 35.96C28.73 30.77 26.91 26.44 28.73 25.57C30.55 24.71 31.46 29.04 34.19 34.23C36.91 39.42 36.91 45.48 36.91 45.48C36.91 45.48 32.37 41.16 30.55 35.96z"
  />
  <path style="fill:#ffffff"
        d="M36.91 45.48C36.91 45.48 42.37 49.81 45.1 49.81C47.83 49.81 53.29 42.89 53.29 37.69C53.29 29.9 46.92 27.31 40.55 27.31C34.19 27.31 30.55 28.17 30.55 28.17L36.91 45.48z
           M36.91 44.62C36.91 44.62 36.91 52.41 35.09 53.27C33.28 54.14 26.91 48.95 23.27 43.75C19.63 38.56 21.45 33.37 23.27 31.63C25.09 29.9 29.64 29.04 29.64 29.04L36.91 44.62z
           M48.74 11.73C53.29 11.73 55.11 22.11 54.2 27.31C53.29 32.5 51.47 39.42 46.92 40.29C42.37 41.16 36 39.42 36 39.42L30.55 27.31C30.55 27.31 31.46 22.98 36 18.65C38.73 16.05 44.19 11.73 48.74 11.73z
           M33.28 39.42C33.28 39.42 32.37 42.02 29.64 42.89C24.18 43.75 17.81 36.83 15.99 35.1C12.35 31.63 5.08 20.38 8.72 18.65C13.26 16.92 28.73 27.31 28.73 27.31L33.28 39.42z
           M30.55 35.96C28.73 30.77 26.91 26.44 28.73 25.57C30.55 24.71 31.46 29.04 34.19 34.23C36.91 39.42 36.91 45.48 36.91 45.48C36.91 45.48 32.37 41.16 30.55 35.96z"
  />
  <linearGradient id="gradient0" gradientUnits="userSpaceOnUse" x1="41.83" y1="49.94" x2="41.83" y2="26.99">
   <stop offset="0" stop-color="#ff9c00" stop-opacity="0.8039"/>
   <stop offset="0.33" stop-color="#ffcc00" stop-opacity="0.7882"/>
   <stop offset="1" stop-color="#ff9c00" stop-opacity="0.8196"/>
  </linearGradient>
  <path style="fill:url(#gradient0)"
        d="M36.91 45.48C36.91 45.48 42.37 49.81 45.1 49.81C47.83 49.81 53.29 42.89 53.29 37.69C53.29 29.9 46.92 27.31 40.55 27.31C34.19 27.31 30.55 28.17 30.55 28.17L36.91 45.48z"
  />
  <linearGradient id="gradient1" gradientUnits="userSpaceOnUse" x1="39.43" y1="49.06" x2="22.59" y2="33.03">
   <stop offset="0" stop-color="#339933" stop-opacity="0.8156"/>
   <stop offset="0.4" stop-color="#66cc66" stop-opacity="0.8196"/>
   <stop offset="0.6" stop-color="#66cc66" stop-opacity="0.8274"/>
   <stop offset="1" stop-color="#669966" stop-opacity="0.8627"/>
  </linearGradient>
  <path style="fill:url(#gradient1)"
        d="M36.91 44.62C36.91 44.62 36.91 52.41 35.09 53.27C33.28 54.14 26.91 48.95 23.27 43.75C19.63 38.56 21.45 33.37 23.27 31.63C25.09 29.9 29.64 29.04 29.64 29.04L36.91 44.62z"
  />
  <linearGradient id="gradient2" gradientUnits="userSpaceOnUse" x1="30.5" y1="26.2" x2="54.44" y2="26.2">
   <stop offset="0.25" stop-color="#ff9732" stop-opacity="0.7568"/>
   <stop offset="1" stop-color="#cc3400" stop-opacity="0.7843"/>
  </linearGradient>
  <path style="fill:url(#gradient2)"
        d="M48.74 11.73C53.29 11.73 55.11 22.11 54.2 27.31C53.29 32.5 51.47 39.42 46.92 40.29C42.37 41.16 36 39.42 36 39.42L30.55 27.31C30.55 27.31 31.46 22.98 36 18.65C38.73 16.05 44.19 11.73 48.74 11.73z"
  />
  <linearGradient id="gradient3" gradientUnits="userSpaceOnUse" x1="23.83" y1="24.38" x2="15.96" y2="37.39">
   <stop offset="0" stop-color="#006499" stop-opacity="0.7411"/>
   <stop offset="0.75" stop-color="#3397cc" stop-opacity="0.7686"/>
  </linearGradient>
  <path style="fill:url(#gradient3)"
        d="M33.28 39.42C33.28 39.42 32.37 42.02 29.64 42.89C24.18 43.75 17.81 36.83 15.99 35.1C12.35 31.63 5.08 20.38 8.72 18.65C13.26 16.92 28.73 27.31 28.73 27.31L33.28 39.42z"
  />
  <path style="fill:#666699"
        d="M30.55 35.96C28.73 30.77 26.91 26.44 28.73 25.57C30.55 24.71 31.46 29.04 34.19 34.23C36.91 39.42 36.91 45.48 36.91 45.48C36.91 45.48 32.37 41.16 30.55 35.96z"
  />
  <path style="fill:#b3b3d0"
        d="M33.28 35.1C31.46 31.63 28.73 25.57 28.73 25.57C28.73 25.57 29.64 32.5 31.46 35.96C33.28 39.42 36.91 45.48 36.91 45.48C36.91 45.48 35.09 38.56 33.28 35.1z"
  />
 </g>
</svg>
