<?xml version="1.0" encoding="UTF-8" standalone="yes"?>
<svg version="1.1" width="64" height="64" color-interpolation="linearRGB"
     xmlns:svg="http://www.w3.org/2000/svg" xmlns="http://www.w3.org/2000/svg">
 <g>
  <path style="fill:#000101; fill-opacity:0.3921"
        d="M32.1 16.84C34.08 16.84 35.82 17.07 37.28 17.51C38.74 17.96 39.97 18.57 40.94 19.31C41.92 20.07 42.65 20.87 43.1 21.71C43.56 22.55 43.8 23.39 43.8 24.2C43.8 24.98 43.49 25.69 42.89 26.31C42.28 26.94 41.51 27.26 40.6 27.26C39.78 27.26 39.14 27.06 38.69 26.67C38.28 26.3 37.85 25.74 37.37 24.93C36.82 23.89 36.14 23.07 35.38 22.5C34.63 21.93 33.38 21.65 31.67 21.65C30.08 21.65 28.79 21.97 27.82 22.59C26.9 23.18 26.44 23.88 26.44 24.69C26.44 25.19 26.59 25.6 26.89 25.96C27.2 26.34 27.65 26.67 28.21 26.95C28.79 27.24 29.4 27.47 30 27.63C30.62 27.8 31.65 28.05 33.07 28.38C34.87 28.76 36.52 29.18 37.98 29.64C39.46 30.11 40.74 30.68 41.78 31.35C42.84 32.04 43.68 32.91 44.28 33.96C44.88 35.01 45.18 36.31 45.18 37.81C45.18 39.62 44.66 41.26 43.63 42.7C42.6 44.13 41.09 45.27 39.12 46.07C37.17 46.87 34.84 47.28 32.18 47.28C28.99 47.28 26.32 46.72 24.23 45.63C22.74 44.84 21.51 43.77 20.57 42.44C19.63 41.1 19.15 39.76 19.15 38.48C19.15 37.68 19.47 36.98 20.08 36.42C20.69 35.85 21.47 35.56 22.4 35.56C23.16 35.56 23.82 35.79 24.35 36.23C24.86 36.66 25.3 37.29 25.65 38.11C26.05 39 26.48 39.75 26.93 40.34C27.37 40.9 27.99 41.38 28.79 41.76C29.6 42.13 30.68 42.32 32.02 42.32C33.85 42.32 35.36 41.94 36.49 41.18C37.59 40.43 38.13 39.54 38.13 38.44C38.13 37.58 37.85 36.9 37.27 36.37C36.67 35.81 35.87 35.38 34.9 35.08C33.9 34.77 32.53 34.44 30.84 34.09C28.53 33.6 26.57 33.02 25.02 32.37C23.43 31.7 22.14 30.77 21.2 29.61C20.25 28.44 19.77 26.96 19.77 25.23C19.77 23.57 20.27 22.09 21.27 20.8C22.27 19.52 23.71 18.53 25.58 17.85C27.42 17.18 29.62 16.84 32.1 16.84V16.84V16.84z
           M21.6 8.72C14.49 8.72 8.72 14.41 8.72 21.42C8.72 23.76 9.37 25.95 10.5 27.84C10.2 29.26 10.04 30.73 10.04 32.24C10.04 44.33 19.98 54.13 32.24 54.13C33.63 54.13 34.99 54 36.31 53.76C38.12 54.72 40.19 55.27 42.39 55.27C49.5 55.27 55.27 49.59 55.27 42.57C55.27 40.55 54.78 38.64 53.93 36.94C54.26 35.42 54.44 33.85 54.44 32.24C54.44 20.15 44.51 10.35 32.25 10.35C30.95 10.35 29.68 10.46 28.44 10.67C26.46 9.44 24.12 8.72 21.6 8.72V8.72V8.72z"
        transform="matrix(1.0761,0,0,1.0761,-0.4359,-0.4359)"
  />
  <path style="fill:#ffffff"
        d="M32 16C23.16 16 16 23.16 16 32C16 40.83 23.16 48 32 48C40.83 48 48 40.83 48 32C48 23.16 40.83 16 32 16z"
        transform="matrix(1.0761,0,0,1.0761,-2.4359,-2.4359)"
  />
  <path style="fill:#011964"
        d="M32.1 16.84C34.08 16.84 35.82 17.07 37.28 17.51C38.74 17.96 39.97 18.57 40.94 19.31C41.92 20.07 42.65 20.87 43.1 21.71C43.56 22.55 43.8 23.39 43.8 24.2C43.8 24.98 43.49 25.69 42.89 26.31C42.28 26.94 41.51 27.26 40.6 27.26C39.78 27.26 39.14 27.06 38.69 26.67C38.28 26.3 37.85 25.74 37.37 24.93C36.82 23.89 36.14 23.07 35.38 22.5C34.63 21.93 33.38 21.65 31.67 21.65C30.08 21.65 28.79 21.97 27.82 22.59C26.9 23.18 26.44 23.88 26.44 24.69C26.44 25.19 26.59 25.6 26.89 25.96C27.2 26.34 27.65 26.67 28.21 26.95C28.79 27.24 29.4 27.47 30 27.63C30.62 27.8 31.65 28.05 33.07 28.38C34.87 28.76 36.52 29.18 37.98 29.64C39.46 30.11 40.74 30.68 41.78 31.35C42.84 32.04 43.68 32.91 44.28 33.96C44.88 35.01 45.18 36.31 45.18 37.81C45.18 39.62 44.66 41.26 43.63 42.7C42.6 44.13 41.09 45.27 39.12 46.07C37.17 46.87 34.84 47.28 32.18 47.28C28.99 47.28 26.32 46.72 24.23 45.63C22.74 44.84 21.51 43.77 20.57 42.44C19.63 41.1 19.15 39.76 19.15 38.48C19.15 37.68 19.47 36.98 20.08 36.42C20.69 35.85 21.47 35.56 22.4 35.56C23.16 35.56 23.82 35.79 24.35 36.23C24.86 36.66 25.3 37.29 25.65 38.11C26.05 39 26.48 39.75 26.93 40.34C27.37 40.9 27.99 41.38 28.79 41.76C29.6 42.13 30.68 42.32 32.02 42.32C33.85 42.32 35.36 41.94 36.49 41.18C37.59 40.43 38.13 39.54 38.13 38.44C38.13 37.58 37.85 36.9 37.27 36.37C36.67 35.81 35.87 35.38 34.9 35.08C33.9 34.77 32.53 34.44 30.84 34.09C28.53 33.6 26.57 33.02 25.02 32.37C23.43 31.7 22.14 30.77 21.2 29.61C20.25 28.44 19.77 26.96 19.77 25.23C19.77 23.57 20.27 22.09 21.27 20.8C22.27 19.52 23.71 18.53 25.58 17.85C27.42 17.18 29.62 16.84 32.1 16.84V16.84V16.84z
           M21.6 8.72C14.49 8.72 8.72 14.41 8.72 21.42C8.72 23.76 9.37 25.95 10.5 27.84C10.2 29.26 10.04 30.73 10.04 32.24C10.04 44.33 19.98 54.13 32.24 54.13C33.63 54.13 34.99 54 36.31 53.76C38.12 54.72 40.19 55.27 42.39 55.27C49.5 55.27 55.27 49.59 55.27 42.57C55.27 40.55 54.78 38.64 53.93 36.94C54.26 35.42 54.44 33.85 54.44 32.24C54.44 20.15 44.51 10.35 32.25 10.35C30.95 10.35 29.68 10.46 28.44 10.67C26.46 9.44 24.12 8.72 21.6 8.72V8.72V8.72z"
        transform="matrix(1.0761,0,0,1.0761,-2.4359,-2.4359)"
  />
  <radialGradient id="gradient0" gradientUnits="userSpaceOnUse" cx="0" cy="0" r="64" gradientTransform="matrix(-0.4554,-0.809,-0.5944,0.3346,47.233,22.5705)">
   <stop offset="0.407" stop-color="#6dccff"/>
   <stop offset="1" stop-color="#3593c4"/>
  </radialGradient>
  <path style="fill:url(#gradient0)"
        d="M32.1 16.84C34.08 16.84 35.82 17.07 37.28 17.51C38.74 17.96 39.97 18.57 40.94 19.31C41.92 20.07 42.65 20.87 43.1 21.71C43.56 22.55 43.8 23.39 43.8 24.2C43.8 24.98 43.49 25.69 42.89 26.31C42.28 26.94 41.51 27.26 40.6 27.26C39.78 27.26 39.14 27.06 38.69 26.67C38.28 26.3 37.85 25.74 37.37 24.93C36.82 23.89 36.14 23.07 35.38 22.5C34.63 21.93 33.38 21.65 31.67 21.65C30.08 21.65 28.79 21.97 27.82 22.59C26.9 23.18 26.44 23.88 26.44 24.69C26.44 25.19 26.59 25.6 26.89 25.96C27.2 26.34 27.65 26.67 28.21 26.95C28.79 27.24 29.4 27.47 30 27.63C30.62 27.8 31.65 28.05 33.07 28.38C34.87 28.76 36.52 29.18 37.98 29.64C39.46 30.11 40.74 30.68 41.78 31.35C42.84 32.04 43.68 32.91 44.28 33.96C44.88 35.01 45.18 36.31 45.18 37.81C45.18 39.62 44.66 41.26 43.63 42.7C42.6 44.13 41.09 45.27 39.12 46.07C37.17 46.87 34.84 47.28 32.18 47.28C28.99 47.28 26.32 46.72 24.23 45.63C22.74 44.84 21.51 43.77 20.57 42.44C19.63 41.1 19.15 39.76 19.15 38.48C19.15 37.68 19.47 36.98 20.08 36.42C20.69 35.85 21.47 35.56 22.4 35.56C23.16 35.56 23.82 35.79 24.35 36.23C24.86 36.66 25.3 37.29 25.65 38.11C26.05 39 26.48 39.75 26.93 40.34C27.37 40.9 27.99 41.38 28.79 41.76C29.6 42.13 30.68 42.32 32.02 42.32C33.85 42.32 35.36 41.94 36.49 41.18C37.59 40.43 38.13 39.54 38.13 38.44C38.13 37.58 37.85 36.9 37.27 36.37C36.67 35.81 35.87 35.38 34.9 35.08C33.9 34.77 32.53 34.44 30.84 34.09C28.53 33.6 26.57 33.02 25.02 32.37C23.43 31.7 22.14 30.77 21.2 29.61C20.25 28.44 19.77 26.96 19.77 25.23C19.77 23.57 20.27 22.09 21.27 20.8C22.27 19.52 23.71 18.53 25.58 17.85C27.42 17.18 29.62 16.84 32.1 16.84V16.84V16.84z
           M21.6 8.72C14.49 8.72 8.72 14.41 8.72 21.42C8.72 23.76 9.37 25.95 10.5 27.84C10.2 29.26 10.04 30.73 10.04 32.24C10.04 44.33 19.98 54.13 32.24 54.13C33.63 54.13 34.99 54 36.31 53.76C38.12 54.72 40.19 55.27 42.39 55.27C49.5 55.27 55.27 49.59 55.27 42.57C55.27 40.55 54.78 38.64 53.93 36.94C54.26 35.42 54.44 33.85 54.44 32.24C54.44 20.15 44.51 10.35 32.25 10.35C30.95 10.35 29.68 10.46 28.44 10.67C26.46 9.44 24.12 8.72 21.6 8.72V8.72V8.72z"
        transform="matrix(1.0761,0,0,1.0761,-2.4359,-2.4359)"
  />
 </g>
</svg>
