<?xml version="1.0" encoding="UTF-8" standalone="yes"?>
<svg version="1.1" width="64" height="64" color-interpolation="linearRGB"
     xmlns:svg="http://www.w3.org/2000/svg" xmlns="http://www.w3.org/2000/svg">
 <g>
  <path style="fill:none; stroke:#000000; stroke-opacity:0.4; stroke-width:4; stroke-linecap:round; stroke-linejoin:round"
        d="M30 28H16C9.36 28 4 34.25 4 42H42C42 34.25 36.61 28 30 28z
           M23 4C16.92 4 12 8.92 12 15C12 21.06 16.92 26 23 26C29.06 26 34 21.06 34 15C34 8.92 29.06 4 23 4z"
        transform="matrix(1.409,0,0,1.409,0.9999,1.0001)"
  />
  <path style="fill:none; stroke:#000000; stroke-width:4; stroke-linecap:round; stroke-linejoin:round"
        d="M28 26H14C7.36 26 2 32.25 2 40H40C40 32.25 34.61 26 28 26z
           M21 2C14.92 2 10 6.92 10 13C10 19.06 14.92 24 21 24C27.06 24 32 19.06 32 13C32 6.92 27.06 2 21 2z"
        transform="matrix(1.409,0,0,1.409,0.9999,1.0001)"
  />
  <linearGradient id="gradient0" gradientUnits="userSpaceOnUse" x1="128" y1="1.99" x2="128" y2="40">
   <stop offset="0" stop-color="#ffaa00"/>
   <stop offset="1" stop-color="#fff0d5"/>
  </linearGradient>
  <path style="fill:url(#gradient0)"
        d="M28 26H14C7.36 26 2 32.25 2 40H40C40 32.25 34.61 26 28 26z
           M21 2C14.92 2 10 6.92 10 13C10 19.06 14.92 24 21 24C27.06 24 32 19.06 32 13C32 6.92 27.06 2 21 2z"
        transform="matrix(1.409,0,0,1.409,0.9999,1.0001)"
  />
 </g>
</svg>
