<?xml version="1.0" encoding="UTF-8" standalone="yes"?>
<svg version="1.1" width="64" height="64" color-interpolation="linearRGB"
     xmlns:svg="http://www.w3.org/2000/svg" xmlns="http://www.w3.org/2000/svg">
 <g>
  <path style="fill:none; stroke:#000000; stroke-opacity:0.4; stroke-width:5.636; stroke-linecap:round; stroke-linejoin:round"
        d="M43.26 40.45H23.54C14.18 40.45 6.63 49.25 6.63 60.17H60.17C60.17 49.25 52.58 40.45 43.26 40.45z
           M33.4 6.63C24.84 6.63 17.9 13.56 17.9 22.13C17.9 30.67 24.84 37.63 33.4 37.63C41.94 37.63 48.9 30.67 48.9 22.13C48.9 13.56 41.94 6.63 33.4 6.63z"
        transform="matrix(0.8709,0,0,0.8709,4.129,4.129)"
  />
  <path style="fill:none; stroke:#000000; stroke-width:5.636; stroke-linecap:round; stroke-linejoin:round"
        d="M40.45 37.63H20.72C11.37 37.63 3.81 46.44 3.81 57.36H57.35C57.35 46.44 49.76 37.63 40.45 37.63z
           M30.58 3.81C22.02 3.81 15.08 10.75 15.08 19.31C15.08 27.85 22.02 34.81 30.58 34.81C39.12 34.81 46.08 27.85 46.08 19.31C46.08 10.75 39.12 3.81 30.58 3.81z"
        transform="matrix(0.8709,0,0,0.8709,4.129,4.129)"
  />
  <linearGradient id="gradient0" gradientUnits="userSpaceOnUse" x1="181.35" y1="3.8" x2="181.35" y2="57.36">
   <stop offset="0" stop-color="#00ff00"/>
   <stop offset="1" stop-color="#187f00"/>
  </linearGradient>
  <path style="fill:url(#gradient0)"
        d="M40.45 37.63H20.72C11.37 37.63 3.81 46.44 3.81 57.36H57.35C57.35 46.44 49.76 37.63 40.45 37.63z
           M30.58 3.81C22.02 3.81 15.08 10.75 15.08 19.31C15.08 27.85 22.02 34.81 30.58 34.81C39.12 34.81 46.08 27.85 46.08 19.31C46.08 10.75 39.12 3.81 30.58 3.81z"
        transform="matrix(0.8709,0,0,0.8709,4.129,4.129)"
  />
 </g>
</svg>
