<?xml version="1.0" encoding="UTF-8" standalone="yes"?>
<svg version="1.1" width="64" height="64" color-interpolation="linearRGB"
     xmlns:svg="http://www.w3.org/2000/svg" xmlns="http://www.w3.org/2000/svg">
 <g>
  <path style="fill:none; stroke:#000000; stroke-opacity:0.4; stroke-width:4.9083; stroke-linecap:round; stroke-linejoin:round"
        d="M33.21 9.9C25.76 9.9 19.71 15.93 19.71 23.4C19.71 30.83 25.76 36.9 33.21 36.9C40.65 36.9 46.71 30.83 46.71 23.4C46.71 15.93 40.65 9.9 33.21 9.9V9.9V9.9z
           M41.8 39.35C36.07 39.35 30.35 39.35 24.62 39.35C16.47 39.35 9.9 47.02 9.9 56.53C25.44 56.53 40.98 56.53 56.53 56.53C56.53 47.02 49.92 39.35 41.8 39.35V39.35V39.35z"
  />
  <path style="fill:none; stroke:#000000; stroke-width:4.9083; stroke-linecap:round; stroke-linejoin:round"
        d="M30.76 7.44C23.3 7.44 17.26 13.49 17.26 20.94C17.26 28.38 23.3 34.44 30.76 34.44C38.19 34.44 44.26 28.38 44.26 20.94C44.26 13.49 38.19 7.44 30.76 7.44V7.44V7.44z
           M39.35 36.9C33.62 36.9 27.9 36.9 22.17 36.9C14.03 36.9 7.44 44.57 7.44 54.08C22.98 54.08 38.53 54.08 54.07 54.08C54.07 44.57 47.46 36.9 39.35 36.9V36.9V36.9z"
  />
  <linearGradient id="gradient0" gradientUnits="userSpaceOnUse" x1="94" y1="32.08" x2="94" y2="59.8">
   <stop offset="0" stop-color="#ababab"/>
   <stop offset="1" stop-color="#363636"/>
  </linearGradient>
  <path style="fill:url(#gradient0)"
        d="M30.76 7.44C23.3 7.44 17.26 13.49 17.26 20.94C17.26 28.38 23.3 34.44 30.76 34.44C38.19 34.44 44.26 28.38 44.26 20.94C44.26 13.49 38.19 7.44 30.76 7.44V7.44V7.44z
           M39.35 36.9C33.62 36.9 27.9 36.9 22.17 36.9C14.03 36.9 7.44 44.57 7.44 54.08C22.98 54.08 38.53 54.08 54.07 54.08C54.07 44.57 47.46 36.9 39.35 36.9V36.9V36.9z"
  />
 </g>
</svg>
