<?xml version="1.0" encoding="UTF-8" standalone="yes"?>
<svg version="1.1" width="64" height="64" color-interpolation="linearRGB"
     xmlns:svg="http://www.w3.org/2000/svg" xmlns="http://www.w3.org/2000/svg">
 <g>
  <path style="fill:#000000; fill-opacity:0.4431"
        d="M34.16 15.45H40.33V11.96H27.12V15.45H29.76L26.24 20.67L19.2 12.83H22.72V8.48H5.99V12.83H11.28L20.96 23.28V33.73H14.8V37.22H35.04V33.73H28.88V23.28L34.16 15.45z
           M34.16 15.45H40.33V11.96H27.12V15.45H29.76L26.24 20.67L19.2 12.83H22.72V8.48H5.99V12.83H11.28L20.96 23.28V33.73H14.8V37.22H35.04V33.73H28.88V23.28L34.16 15.45z
           M34.16 15.45H40.33V11.96H27.12V15.45H29.76L26.24 20.67L19.2 12.83H22.72V8.48H5.99V12.83H11.28L20.96 23.28V33.73H14.8V37.22H35.04V33.73H28.88V23.28L34.16 15.45z
           M42.97 4.99L50.89 6.74L46.49 33.73H42.97V4.99z
           M42.97 4.99L50.89 6.74L46.49 33.73H42.97V4.99z
           M42.97 4.99L50.89 6.74L46.49 33.73H42.97V4.99z
           M41.21 27.64C49.83 27.64 56.61 34.34 56.61 42.88C56.61 51.41 49.83 58.12 41.21 58.12C32.58 58.12 25.8 51.41 25.8 42.88C25.8 34.34 32.58 27.64 41.21 27.64z
           M41.21 27.64C49.83 27.64 56.61 34.34 56.61 42.88C56.61 51.41 49.83 58.12 41.21 58.12C32.58 58.12 25.8 51.41 25.8 42.88C25.8 34.34 32.58 27.64 41.21 27.64z
           M41.18 41.11C36.68 41.09 29.79 40.75 29.44 43.01C29.21 44.72 33.24 54.2 41.21 54.2C49.15 54.2 53.21 44.8 52.95 43.01C52.61 40.66 45.66 41.13 41.18 41.11z
           M41.18 41.11C36.68 41.09 29.79 40.75 29.44 43.01C29.21 44.72 33.24 54.2 41.21 54.2C49.15 54.2 53.21 44.8 52.95 43.01C52.61 40.66 45.66 41.13 41.18 41.11z
           M41.21 54.2C48.13 54.2 49.13 48.51 49.13 46.36H33.28C33.28 48.51 34.26 54.2 41.21 54.2z
           M29.44 43.88C29.36 44.73 29.57 45.7 30.09 46.79H52.31C52.83 45.71 53.05 44.73 52.95 43.88C52.81 42.6 50.74 42.01 41.15 42.01C31.56 42.01 29.59 42.52 29.44 43.88z
           M29.44 43.01C29.36 43.86 29.57 44.83 30.09 45.92H52.31C52.83 44.84 53.05 43.86 52.95 43.01C52.81 41.73 50.74 41.14 41.15 41.14C31.56 41.14 29.59 41.65 29.44 43.01z
           M36.81 33.3C37.78 33.3 38.57 34.44 38.57 35.91C38.57 37.37 37.78 38.52 36.81 38.52C35.82 38.52 35.04 37.37 35.04 35.91C35.04 34.44 35.82 33.3 36.81 33.3z
           M45.61 33.3C46.59 33.3 47.37 34.44 47.37 35.91C47.37 37.37 46.59 38.52 45.61 38.52C44.62 38.52 43.85 37.37 43.85 35.91C43.85 34.44 44.62 33.3 45.61 33.3z
           M27.12 44.19C27.12 35.76 34.01 28.94 42.53 28.94C46.44 28.94 50.01 30.37 52.73 32.78C49.9 29.62 45.78 27.64 41.21 27.64C32.69 27.64 25.8 34.46 25.8 42.88C25.8 47.41 27.81 51.48 30.98 54.28C28.57 51.59 27.12 48.06 27.12 44.19z"
        transform="matrix(1,0,0,1,3,3)"
  />
  <linearGradient id="gradient0" gradientUnits="userSpaceOnUse" x1="22.94" y1="37.22" x2="22.94" y2="8.48">
   <stop offset="0" stop-color="#ff6600"/>
   <stop offset="1" stop-color="#cc3300"/>
  </linearGradient>
  <path style="fill:url(#gradient0)"
        d="M34.16 15.45H40.33V11.96H27.12V15.45H29.76L26.24 20.67L19.2 12.83H22.72V8.48H5.99V12.83H11.28L20.96 23.28V33.73H14.8V37.22H35.04V33.73H28.88V23.28L34.16 15.45z"
  />
  <linearGradient id="gradient1" gradientUnits="userSpaceOnUse" x1="22.94" y1="37.21" x2="22.94" y2="8.46">
   <stop offset="0" stop-color="#cc3300"/>
   <stop offset="1" stop-color="#ff6600"/>
  </linearGradient>
  <path style="fill:url(#gradient1)"
        d="M34.16 15.45H40.33V11.96H27.12V15.45H29.76L26.24 20.67L19.2 12.83H22.72V8.48H5.99V12.83H11.28L20.96 23.28V33.73H14.8V37.22H35.04V33.73H28.88V23.28L34.16 15.45z"
  />
  <radialGradient id="gradient2" gradientUnits="userSpaceOnUse" cx="0" cy="0" r="64" gradientTransform="matrix(0.1358,0.3022,0.5457,-0.2401,7.1579,9.8945)">
   <stop offset="0" stop-color="#ffffff" stop-opacity="0.8431"/>
   <stop offset="1" stop-color="#ffffff" stop-opacity="0"/>
  </radialGradient>
  <path style="fill:url(#gradient2)"
        d="M34.16 15.45H40.33V11.96H27.12V15.45H29.76L26.24 20.67L19.2 12.83H22.72V8.48H5.99V12.83H11.28L20.96 23.28V33.73H14.8V37.22H35.04V33.73H28.88V23.28L34.16 15.45z"
  />
  <linearGradient id="gradient3" gradientUnits="userSpaceOnUse" x1="46.71" y1="33.3" x2="46.71" y2="4.56">
   <stop offset="0" stop-color="#ff6600"/>
   <stop offset="1" stop-color="#cc3300"/>
  </linearGradient>
  <path style="fill:url(#gradient3)"
        d="M42.97 4.99L50.89 6.74L46.49 33.73H42.97V4.99z"
  />
  <linearGradient id="gradient4" gradientUnits="userSpaceOnUse" x1="46.66" y1="33.29" x2="46.66" y2="4.66">
   <stop offset="0" stop-color="#cc3300"/>
   <stop offset="1" stop-color="#ff6600"/>
  </linearGradient>
  <path style="fill:url(#gradient4)"
        d="M42.97 4.99L50.89 6.74L46.49 33.73H42.97V4.99z"
  />
  <radialGradient id="gradient5" gradientUnits="userSpaceOnUse" cx="0" cy="0" r="64" gradientTransform="matrix(-0.1035,0.2799,0.111,0.0401,43.7852,5.7565)">
   <stop offset="0" stop-color="#ffffff" stop-opacity="0.8431"/>
   <stop offset="1" stop-color="#ffffff" stop-opacity="0"/>
  </radialGradient>
  <path style="fill:url(#gradient5)"
        d="M42.97 4.99L50.89 6.74L46.49 33.73H42.97V4.99z"
  />
  <linearGradient id="gradient6" gradientUnits="userSpaceOnUse" x1="29.67" y1="31.46" x2="52.72" y2="54.27">
   <stop offset="0" stop-color="#ffcb66"/>
   <stop offset="1" stop-color="#cc9900"/>
  </linearGradient>
  <path style="fill:none; stroke:url(#gradient6); stroke-width:1.7512"
        d="M41.21 27.64C49.83 27.64 56.61 34.34 56.61 42.88C56.61 51.41 49.83 58.12 41.21 58.12C32.58 58.12 25.8 51.41 25.8 42.88C25.8 34.34 32.58 27.64 41.21 27.64z"
  />
  <linearGradient id="gradient7" gradientUnits="userSpaceOnUse" x1="30.31" y1="32.09" x2="52.09" y2="53.64">
   <stop offset="0" stop-color="#ffff00"/>
   <stop offset="1" stop-color="#ffcc33"/>
  </linearGradient>
  <path style="fill:url(#gradient7)"
        d="M41.21 27.64C49.83 27.64 56.61 34.34 56.61 42.88C56.61 51.41 49.83 58.12 41.21 58.12C32.58 58.12 25.8 51.41 25.8 42.88C25.8 34.34 32.58 27.64 41.21 27.64z"
  />
  <linearGradient id="gradient8" gradientUnits="userSpaceOnUse" x1="33.7" y1="37.19" x2="48.69" y2="52.01">
   <stop offset="0" stop-color="#ffcb99"/>
   <stop offset="1" stop-color="#ff9900"/>
  </linearGradient>
  <path style="fill:none; stroke:url(#gradient8); stroke-width:1.7512"
        d="M41.18 41.11C36.68 41.09 29.79 40.75 29.44 43.01C29.21 44.72 33.24 54.2 41.21 54.2C49.15 54.2 53.21 44.8 52.95 43.01C52.61 40.66 45.66 41.13 41.18 41.11z"
  />
  <path style="fill:#000000"
        d="M41.18 41.11C36.68 41.09 29.79 40.75 29.44 43.01C29.21 44.72 33.24 54.2 41.21 54.2C49.15 54.2 53.21 44.8 52.95 43.01C52.61 40.66 45.66 41.13 41.18 41.11z"
  />
  <radialGradient id="gradient9" gradientUnits="userSpaceOnUse" cx="0" cy="0" r="64" gradientTransform="matrix(0.1237,0,0,0.1224,41.2118,52.8993)">
   <stop offset="0" stop-color="#ffcccc"/>
   <stop offset="0.455" stop-color="#ff3300"/>
   <stop offset="1" stop-color="#990000"/>
  </radialGradient>
  <path style="fill:url(#gradient9)"
        d="M41.21 54.2C48.13 54.2 49.13 48.51 49.13 46.36H33.28C33.28 48.51 34.26 54.2 41.21 54.2z"
  />
  <linearGradient id="gradient10" gradientUnits="userSpaceOnUse" x1="29.76" y1="44.84" x2="52.65" y2="44.84">
   <stop offset="0" stop-color="#333333"/>
   <stop offset="0.1" stop-color="#999999"/>
   <stop offset="0.3" stop-color="#cccccc"/>
   <stop offset="0.6998" stop-color="#cccccc"/>
   <stop offset="0.8999" stop-color="#999999"/>
   <stop offset="1" stop-color="#333333"/>
  </linearGradient>
  <path style="fill:url(#gradient10)"
        d="M29.44 43.88C29.36 44.73 29.57 45.7 30.09 46.79H52.31C52.83 45.71 53.05 44.73 52.95 43.88C52.81 42.6 50.74 42.01 41.15 42.01C31.56 42.01 29.59 42.52 29.44 43.88z"
  />
  <linearGradient id="gradient11" gradientUnits="userSpaceOnUse" x1="29.43" y1="43.53" x2="52.97" y2="43.53">
   <stop offset="0" stop-color="#666666"/>
   <stop offset="0.1" stop-color="#cccccc"/>
   <stop offset="0.3" stop-color="#ffffff"/>
   <stop offset="0.6998" stop-color="#ffffff"/>
   <stop offset="0.8999" stop-color="#cccccc"/>
   <stop offset="1" stop-color="#666666"/>
  </linearGradient>
  <path style="fill:url(#gradient11)"
        d="M29.44 43.01C29.36 43.86 29.57 44.83 30.09 45.92H52.31C52.83 44.84 53.05 43.86 52.95 43.01C52.81 41.73 50.74 41.14 41.15 41.14C31.56 41.14 29.59 41.65 29.44 43.01z"
  />
  <linearGradient id="gradient12" gradientUnits="userSpaceOnUse" x1="35.56" y1="33.8" x2="38.02" y2="38">
   <stop offset="0" stop-color="#0066ff"/>
   <stop offset="0.67" stop-color="#0066ff"/>
   <stop offset="1" stop-color="#00ffff"/>
  </linearGradient>
  <path style="fill:url(#gradient12)"
        d="M36.81 33.3C37.78 33.3 38.57 34.44 38.57 35.91C38.57 37.37 37.78 38.52 36.81 38.52C35.82 38.52 35.04 37.37 35.04 35.91C35.04 34.44 35.82 33.3 36.81 33.3z"
  />
  <linearGradient id="gradient13" gradientUnits="userSpaceOnUse" x1="44.37" y1="33.8" x2="46.82" y2="38">
   <stop offset="0" stop-color="#0066ff"/>
   <stop offset="0.67" stop-color="#0066ff"/>
   <stop offset="1" stop-color="#00ffff"/>
  </linearGradient>
  <path style="fill:url(#gradient13)"
        d="M45.61 33.3C46.59 33.3 47.37 34.44 47.37 35.91C47.37 37.37 46.59 38.52 45.61 38.52C44.62 38.52 43.85 37.37 43.85 35.91C43.85 34.44 44.62 33.3 45.61 33.3z"
  />
  <linearGradient id="gradient14" gradientUnits="userSpaceOnUse" x1="33.36" y1="29.75" x2="43.5" y2="47.13">
   <stop offset="0" stop-color="#ffffff" stop-opacity="0.8392"/>
   <stop offset="1" stop-color="#ffffff" stop-opacity="0"/>
  </linearGradient>
  <path style="fill:url(#gradient14)"
        d="M27.12 44.19C27.12 35.76 34.01 28.94 42.53 28.94C46.44 28.94 50.01 30.37 52.73 32.78C49.9 29.62 45.78 27.64 41.21 27.64C32.69 27.64 25.8 34.46 25.8 42.88C25.8 47.41 27.81 51.48 30.98 54.28C28.57 51.59 27.12 48.06 27.12 44.19z"
  />
 </g>
</svg>
