<?xml version="1.0" encoding="UTF-8" standalone="yes"?>
<svg version="1.1" width="64" height="64" color-interpolation="linearRGB"
     xmlns:svg="http://www.w3.org/2000/svg" xmlns="http://www.w3.org/2000/svg">
 <g>
  <path style="fill:#ffffff"
        d="M26.18 23.27C31.03 26.18 35.87 29.09 40.72 32C35.87 34.9 31.03 37.81 26.18 40.72C26.18 34.9 26.18 29.09 26.18 23.27V23.27V23.27z"
        transform="matrix(0.905,0,0,0.9125,3.1338,2.8866)"
  />
  <path style="fill:none; stroke:#000000; stroke-opacity:0.4; stroke-width:3"
        d="M9 12C5.77 12 3 14.77 3 18C3 27.69 3 36.3 3 46C3 49.22 5.77 52 9 52C24.51 52 38.48 52 54 52C57.22 52 61 49.22 61 46C61 36.3 61 27.69 61 18C61 14.77 57.22 12 54 12C38.48 12 9 12 9 12z"
        transform="matrix(0.905,0,0,0.9125,4.9438,4.7117)"
  />
  <linearGradient id="gradient0" gradientUnits="userSpaceOnUse" x1="162.06" y1="7.43" x2="162.06" y2="54.08">
   <stop offset="0" stop-color="#ffabab"/>
   <stop offset="1" stop-color="#d90000"/>
  </linearGradient>
  <path style="fill:url(#gradient0)"
        d="M26.18 23.27C31.03 26.18 35.87 29.09 40.72 32C35.87 34.9 31.03 37.81 26.18 40.72C26.18 34.9 26.18 29.09 26.18 23.27V23.27V23.27z
           M9 12C5.77 12 3 14.77 3 18C3 27.69 3 36.3 3 46C3 49.22 5.77 52 9 52C24.51 52 38.48 52 54 52C57.22 52 61 49.22 61 46C61 36.3 61 27.69 61 18C61 14.77 57.22 12 54 12C38.48 12 9 12 9 12z"
        transform="matrix(0.905,0,0,0.9125,3.1338,2.8866)"
  />
  <path style="fill:none; stroke:#800000; stroke-width:3.5; stroke-linecap:round; stroke-linejoin:round"
        d="M9 12C5.77 12 3 14.77 3 18C3 27.69 3 36.3 3 46C3 49.22 5.77 52 9 52C24.51 52 38.48 52 54 52C57.22 52 61 49.22 61 46C61 36.3 61 27.69 61 18C61 14.77 57.22 12 54 12C38.48 12 9 12 9 12z
           M26.18 23.27C31.03 26.18 35.87 29.09 40.72 32C35.87 34.9 31.03 37.81 26.18 40.72C26.18 34.9 26.18 29.09 26.18 23.27V23.27V23.27z"
        transform="matrix(0.905,0,0,0.9125,3.1338,2.8866)"
  />
 </g>
</svg>
