<?xml version="1.0" encoding="UTF-8" standalone="yes"?>
<svg version="1.1" width="64" height="64" color-interpolation="linearRGB"
     xmlns:svg="http://www.w3.org/2000/svg" xmlns="http://www.w3.org/2000/svg">
 <g>
  <path style="fill:#010101; fill-opacity:0.4117"
        d="M4 32C4 32 17.97 15 32 15C45.97 15 60 32 60 32C60 32 45.65 48 32 48C17.67 48 4 32 4 32z"
        transform="matrix(1.0535,0,0,1,-0.2142,6)"
  />
  <path style="fill:none; stroke:#010101; stroke-width:5"
        d="M4 32C4 32 17.97 15 32 15C45.97 15 60 32 60 32C60 32 45.65 48 32 48C17.67 48 4 32 4 32z"
  />
  <linearGradient id="gradient0" gradientUnits="userSpaceOnUse" x1="78.16" y1="16.23" x2="78.55" y2="41.13">
   <stop offset="0" stop-color="#ffffff"/>
   <stop offset="1" stop-color="#b9b9b9"/>
  </linearGradient>
  <path style="fill:url(#gradient0)"
        d="M4 32C4 32 17.97 15 32 15C45.97 15 60 32 60 32C60 32 45.65 48 32 48C17.67 48 4 32 4 32z"
  />
  <path style="fill:none; stroke:#003f80; stroke-width:4"
        d="M32 19C24 19 19 25 19 32C19 40 25 45 32 45C39 45 45 40 45 32C45 25 40 19 32 19z"
  />
  <linearGradient id="gradient1" gradientUnits="userSpaceOnUse" x1="0" y1="0" x2="64" y2="0">
   <stop offset="0" stop-color="#00aaff"/>
   <stop offset="0.0742" stop-color="#8cd3f7"/>
   <stop offset="0.1435" stop-color="#00aaff"/>
   <stop offset="0.2029" stop-color="#8cd3f7"/>
   <stop offset="0.2747" stop-color="#00aaff"/>
   <stop offset="0.3465" stop-color="#8cd3f7"/>
   <stop offset="0.4133" stop-color="#00aaff"/>
   <stop offset="0.4777" stop-color="#8cd3f7"/>
   <stop offset="0.5495" stop-color="#00aaff"/>
   <stop offset="0.6237" stop-color="#8cd3f7"/>
   <stop offset="0.7004" stop-color="#00aaff"/>
   <stop offset="0.7698" stop-color="#8cd3f7"/>
   <stop offset="0.849" stop-color="#00aaff"/>
   <stop offset="0.9257" stop-color="#8cd3f7"/>
   <stop offset="1" stop-color="#00aaff"/>
  </linearGradient>
  <path style="fill:url(#gradient1)"
        d="M32 19C24 19 19 25 19 32C19 40 25 45 32 45C39 45 45 40 45 32C45 25 40 19 32 19z"
  />
  <path style="fill:none; stroke:#800000; stroke-width:4"
        d="M32 25C28 25 25 28 25 32C25 36 28 39 32 39C36 39 39 36 39 32C39 28 36 25 32 25z"
  />
  <linearGradient id="gradient2" gradientUnits="userSpaceOnUse" x1="162.06" y1="7.43" x2="162.06" y2="54.08">
   <stop offset="0" stop-color="#ffabab"/>
   <stop offset="1" stop-color="#d90000"/>
  </linearGradient>
  <path style="fill:url(#gradient2)"
        d="M32 25C28 25 25 28 25 32C25 36 28 39 32 39C36 39 39 36 39 32C39 28 36 25 32 25z"
  />
  <path style="fill:none; stroke:#010101; stroke-opacity:0.4117; stroke-width:2"
        d="M5 25L0 20
           M14 17L10 11
           M25 12L23 6
           M39 12L41 6
           M50 18L54 12
           M59 25L63 21"
        transform="matrix(1,0,0,1,1,2)"
  />
  <path style="fill:none; stroke:#010101; stroke-width:2"
        d="M5 25L0 20
           M14 17L10 11
           M25 12L23 6
           M39 12L41 6
           M50 18L54 12
           M59 25L63 21"
  />
  <path style="fill:none; stroke:#010101; stroke-opacity:0.4117; stroke-width:2"
        d="M5 25L0 20
           M14 17L10 11
           M25 12L23 6
           M39 12L41 6
           M50 18L54 12
           M59 25L63 21"
        transform="matrix(1,0,0,-0.9976,1,65.3543)"
  />
  <path style="fill:none; stroke:#010101; stroke-width:2"
        d="M5 25L0 20
           M14 17L10 11
           M25 12L23 6
           M39 12L41 6
           M50 18L54 12
           M59 25L63 21"
        transform="matrix(1,0,0,-0.9976,0,63.3543)"
  />
 </g>
</svg>
