<?xml version="1.0" encoding="UTF-8" standalone="yes"?>
<svg version="1.1" width="64" height="64" color-interpolation="linearRGB"
     xmlns:svg="http://www.w3.org/2000/svg" xmlns="http://www.w3.org/2000/svg">
 <g>
  <path style="fill:none; stroke:#000000; stroke-opacity:0.4; stroke-width:5.8222; stroke-linecap:round; stroke-linejoin:round"
        d="M11 6.63V40.47H56V6.63H11z"
        transform="matrix(0.9628,0,0,1,2.1891,0)"
  />
  <path style="fill:none; stroke:#545454; stroke-width:5.8222; stroke-linecap:round; stroke-linejoin:round"
        d="M8 3.81V37.65H53V3.81H8z"
        transform="matrix(0.9628,0,0,1,2.1891,0)"
  />
  <linearGradient id="gradient0" gradientUnits="userSpaceOnUse" x1="191" y1="3.8" x2="191" y2="37.65">
   <stop offset="0" stop-color="#ffffff"/>
   <stop offset="1" stop-color="#e5e5e5"/>
  </linearGradient>
  <path style="fill:url(#gradient0)"
        d="M8 3.81V37.65H53V3.81H8z"
        transform="matrix(0.9628,0,0,1,2.1891,0)"
  />
  <linearGradient id="gradient1" gradientUnits="userSpaceOnUse" x1="191" y1="10.83" x2="191" y2="27.75">
   <stop offset="0" stop-color="#ff8080"/>
   <stop offset="1" stop-color="#d90000"/>
  </linearGradient>
  <path style="fill:url(#gradient1)"
        d="M23 6.63C15.5 10.86 21.5 16.5 26 19.32C30.5 22.14 35 25.85 35 27.78C35 32.01 32 34.83 27.5 34.83C23 34.83 14 24.96 14 19.32C14 13.68 14 6.63 23 6.63z
           M27.5 10.86C23 15.09 32 20.73 36.5 16.5C41 12.27 32 6.63 27.5 10.86z
           M39.5 22.14C35 26.37 44 32.01 48.5 27.78C53 23.55 44 17.91 39.5 22.14z"
        transform="matrix(0.9628,0,0,1,2.1891,0)"
  />
  <path style="fill:none; stroke:#000000; stroke-opacity:0.4; stroke-width:5.8222; stroke-linejoin:round"
        d="M20 48.92H44L32 60.2L20 48.92z"
        transform="matrix(0.9628,0,0,1,2.1891,0)"
  />
  <path style="fill:none; stroke:#005900; stroke-width:5.8222; stroke-linejoin:round"
        d="M17 46.11H41L29 57.38L17 46.11z"
        transform="matrix(0.9628,0,0,1,2.1891,0)"
  />
  <linearGradient id="gradient2" gradientUnits="userSpaceOnUse" x1="191" y1="46.11" x2="191" y2="57.38">
   <stop offset="0" stop-color="#80ff80"/>
   <stop offset="1" stop-color="#00b200"/>
  </linearGradient>
  <path style="fill:url(#gradient2)"
        d="M17 46.11H41L29 57.38L17 46.11z"
        transform="matrix(0.9628,0,0,1,2.1891,0)"
  />
 </g>
</svg>
