<?xml version="1.0" encoding="UTF-8" standalone="yes"?>
<svg version="1.1" width="64" height="64" color-interpolation="linearRGB"
     xmlns:svg="http://www.w3.org/2000/svg" xmlns="http://www.w3.org/2000/svg">
 <g>
  <path style="fill:none; stroke:#000000; stroke-opacity:0.4; stroke-width:8.5147; stroke-linecap:round; stroke-linejoin:round"
        d="M57.71 8.04H9.14V36.24H57.71V8.04z
           M31.99 8.04V36.24
           M9.14 22.14H57.71"
        transform="matrix(1.0166,0,0,0.9677,-1.0338,1.0313)"
  />
  <path style="fill:none; stroke:#004080; stroke-width:8.5147; stroke-linecap:round; stroke-linejoin:round"
        d="M54.85 5.22H6.28V33.42H54.85V5.22z
           M29.14 5.22V33.42
           M6.28 19.32H54.85"
        transform="matrix(1.0166,0,0,0.9677,-0.0338,2.0313)"
  />
  <linearGradient id="gradient0" gradientUnits="userSpaceOnUse" x1="184.84" y1="3.8" x2="184.84" y2="34.8">
   <stop offset="0" stop-color="#abd5ff"/>
   <stop offset="1" stop-color="#006cd9"/>
  </linearGradient>
  <path style="fill:none; stroke:url(#gradient0); stroke-width:2.8382"
        d="M54.85 5.22H6.28V33.42H54.85V5.22z
           M29.14 5.22V33.42
           M6.28 19.32H54.85"
        transform="matrix(1.0166,0,0,0.9677,-0.0338,2.0313)"
  />
  <path style="fill:none; stroke:#000000; stroke-opacity:0.4; stroke-width:5.6765; stroke-linejoin:round"
        d="M21.99 48.92H44.85L33.42 60.2L21.99 48.92z"
        transform="matrix(1.0166,0,0,0.9677,-0.0338,2.0313)"
  />
  <path style="fill:none; stroke:#005900; stroke-width:5.6765; stroke-linejoin:round"
        d="M19.14 46.11H41.99L30.56 57.38L19.14 46.11z"
        transform="matrix(1.0166,0,0,0.9677,-0.0338,2.0313)"
  />
  <linearGradient id="gradient1" gradientUnits="userSpaceOnUse" x1="184.84" y1="46.11" x2="184.84" y2="57.38">
   <stop offset="0" stop-color="#80ff80"/>
   <stop offset="1" stop-color="#00b200"/>
  </linearGradient>
  <path style="fill:url(#gradient1)"
        d="M19.14 46.11H41.99L30.56 57.38L19.14 46.11z"
        transform="matrix(1.0166,0,0,0.9677,-0.0338,2.0313)"
  />
 </g>
</svg>
