<?xml version="1.0" encoding="UTF-8" standalone="yes"?>
<svg version="1.1" width="64" height="64" color-interpolation="linearRGB"
     xmlns:svg="http://www.w3.org/2000/svg" xmlns="http://www.w3.org/2000/svg">
 <g>
  <path style="fill:none; stroke:#000000; stroke-opacity:0.4; stroke-width:5.7149; stroke-linecap:round; stroke-linejoin:round"
        d="M12.77 6.63V40.47H56.1V6.63H12.77z"
        transform="matrix(1.0196,0,0,0.9677,-1.1577,1.0307)"
  />
  <path style="fill:none; stroke:#545454; stroke-width:5.7149; stroke-linecap:round; stroke-linejoin:round"
        d="M9.89 3.8V37.65H53.21V3.8H9.89z"
        transform="matrix(1.0196,0,0,0.9677,-0.1381,2.0307)"
  />
  <linearGradient id="gradient0" gradientUnits="userSpaceOnUse" x1="186.08" y1="3.79" x2="186.08" y2="37.65">
   <stop offset="0" stop-color="#ffffff"/>
   <stop offset="1" stop-color="#e5e5e5"/>
  </linearGradient>
  <path style="fill:url(#gradient0)"
        d="M9.89 3.8V37.65H53.21V3.8H9.89z"
        transform="matrix(1.0196,0,0,0.9677,-0.1381,2.0307)"
  />
  <linearGradient id="gradient1" gradientUnits="userSpaceOnUse" x1="186.08" y1="10.82" x2="186.08" y2="27.75">
   <stop offset="0" stop-color="#ff8080"/>
   <stop offset="1" stop-color="#d90000"/>
  </linearGradient>
  <path style="fill:url(#gradient1)"
        d="M24.33 6.63C17.11 10.85 22.88 16.5 27.22 19.31C31.55 22.13 35.88 25.85 35.88 27.78C35.88 32 32.99 34.83 28.66 34.83C24.33 34.83 15.66 24.95 15.66 19.31C15.66 13.68 15.66 6.63 24.33 6.63z
           M28.66 10.85C24.33 15.09 32.99 20.72 37.33 16.5C41.66 12.27 32.99 6.63 28.66 10.85z
           M40.21 22.13C35.88 26.37 44.55 32 48.88 27.78C53.21 23.54 44.55 17.9 40.21 22.13z"
        transform="matrix(1.0196,0,0,0.9677,-0.1381,2.0307)"
  />
  <path style="fill:none; stroke:#000000; stroke-opacity:0.4; stroke-width:5.7149; stroke-linejoin:round"
        d="M21.44 48.91H44.55L32.99 60.2L21.44 48.91z"
        transform="matrix(1.0196,0,0,0.9677,-0.1381,2.0307)"
  />
  <path style="fill:none; stroke:#005900; stroke-width:5.7149; stroke-linejoin:round"
        d="M18.55 46.11H41.66L30.11 57.38L18.55 46.11z"
        transform="matrix(1.0196,0,0,0.9677,-0.1381,2.0307)"
  />
  <linearGradient id="gradient2" gradientUnits="userSpaceOnUse" x1="186.08" y1="46.11" x2="186.08" y2="57.38">
   <stop offset="0" stop-color="#80ff80"/>
   <stop offset="1" stop-color="#00b200"/>
  </linearGradient>
  <path style="fill:url(#gradient2)"
        d="M18.55 46.11H41.66L30.11 57.38L18.55 46.11z"
        transform="matrix(1.0196,0,0,0.9677,-0.1381,2.0307)"
  />
 </g>
</svg>
