<?xml version="1.0" encoding="UTF-8" standalone="yes"?>
<svg version="1.1" width="64" height="64" color-interpolation="linearRGB"
     xmlns:svg="http://www.w3.org/2000/svg" xmlns="http://www.w3.org/2000/svg">
 <g>
  <path style="fill:none; stroke:#000000; stroke-opacity:0.4; stroke-width:2.7902"
        d="M8.21 40.85V31.15C8.21 28.38 13.83 6.21 15.23 6.21C16.64 6.21 22.26 28.38 22.26 31.15V40.85
           M61.59 13.14C61.59 9.3 58.43 6.21 54.56 6.21C50.66 6.21 47.54 9.3 47.54 13.14V32.54C47.54 36.36 50.66 39.47 54.56 39.47C58.43 39.47 61.59 36.36 61.59 32.54
           M41.92 29.77C41.92 25.92 38.78 22.84 34.9 22.84C38.78 22.84 41.92 19.74 41.92 15.91V13.14C41.92 9.3 38.78 6.21 34.9 6.21H27.87V39.47H34.9C38.78 39.47 41.92 36.36 41.92 32.54V29.77z
           M29.28 22.84H34.9
           M9.61 31.15H20.85"
        transform="matrix(0.983,0,0,0.9671,0.0679,1.0652)"
  />
  <path style="fill:none; stroke:#000000; stroke-width:2.7902"
        d="M5.4 38.08V28.38C5.4 25.61 11.02 3.44 12.42 3.44C13.83 3.44 19.45 25.61 19.45 28.38V38.08
           M58.78 10.37C58.78 6.53 55.62 3.44 51.75 3.44C47.85 3.44 44.73 6.53 44.73 10.37V29.77C44.73 33.59 47.85 36.7 51.75 36.7C55.62 36.7 58.78 33.59 58.78 29.77
           M39.11 27C39.11 23.14 35.97 20.07 32.09 20.07C35.97 20.07 39.11 16.97 39.11 13.14V10.37C39.11 6.53 35.97 3.44 32.09 3.44H25.07V36.7H32.09C35.97 36.7 39.11 33.59 39.11 29.77V27z
           M6.8 28.38H18.04
           M26.47 20.07H32.09"
        transform="matrix(0.983,0,0,0.9671,0.0679,1.0652)"
  />
  <path style="fill:none; stroke:#000000; stroke-opacity:0.4; stroke-width:5.5805; stroke-linejoin:round"
        d="M20.85 49.16H43.33L32.09 60.25L20.85 49.16z"
        transform="matrix(0.983,0,0,0.9671,0.0679,1.0652)"
  />
  <path style="fill:none; stroke:#005900; stroke-width:5.5805; stroke-linejoin:round"
        d="M18.04 46.39H40.52L29.28 57.48L18.04 46.39z"
        transform="matrix(0.983,0,0,0.9671,0.0679,1.0652)"
  />
  <linearGradient id="gradient0" gradientUnits="userSpaceOnUse" x1="180.99" y1="46.39" x2="180.99" y2="57.48">
   <stop offset="0" stop-color="#80ff80"/>
   <stop offset="1" stop-color="#00b200"/>
  </linearGradient>
  <path style="fill:url(#gradient0)"
        d="M18.04 46.39H40.52L29.28 57.48L18.04 46.39z"
        transform="matrix(0.983,0,0,0.9671,0.0679,1.0652)"
  />
 </g>
</svg>
