<?xml version="1.0" encoding="UTF-8" standalone="yes"?>
<svg version="1.1" width="64" height="64" color-interpolation="linearRGB"
     xmlns:svg="http://www.w3.org/2000/svg" xmlns="http://www.w3.org/2000/svg">
 <g>
  <path style="fill:none; stroke:#000000; stroke-opacity:0.4; stroke-width:6; stroke-linecap:round; stroke-linejoin:round"
        d="M39 5H5V25H39V5z
           M21 5V25
           M5 15H39"
        transform="matrix(1.4285,0,0,1.4097,2,0.9999)"
  />
  <path style="fill:none; stroke:#004080; stroke-width:6; stroke-linecap:round; stroke-linejoin:round"
        d="M37 3H3V23H37V3z
           M19 3V23
           M3 13H37"
        transform="matrix(1.4285,0,0,1.4097,2,0.9999)"
  />
  <linearGradient id="gradient0" gradientUnits="userSpaceOnUse" x1="128" y1="1.99" x2="128" y2="23.98">
   <stop offset="0" stop-color="#abd5ff"/>
   <stop offset="1" stop-color="#006cd9"/>
  </linearGradient>
  <path style="fill:none; stroke:url(#gradient0); stroke-width:2"
        d="M37 3H3V23H37V3z
           M19 3V23
           M3 13H37"
        transform="matrix(1.4285,0,0,1.4097,2,0.9999)"
  />
  <path style="fill:none; stroke:#000000; stroke-opacity:0.4; stroke-width:4; stroke-linejoin:round"
        d="M14 34H30L22 42L14 34z"
        transform="matrix(1.4285,0,0,1.4097,2,0.9999)"
  />
  <path style="fill:none; stroke:#005900; stroke-width:4; stroke-linejoin:round"
        d="M12 32H28L20 40L12 32z"
        transform="matrix(1.4285,0,0,1.4097,2,0.9999)"
  />
  <linearGradient id="gradient1" gradientUnits="userSpaceOnUse" x1="128" y1="32" x2="128" y2="40">
   <stop offset="0" stop-color="#80ff80"/>
   <stop offset="1" stop-color="#00b200"/>
  </linearGradient>
  <path style="fill:url(#gradient1)"
        d="M12 32H28L20 40L12 32z"
        transform="matrix(1.4285,0,0,1.4097,2,0.9999)"
  />
 </g>
</svg>
