<?xml version="1.0" encoding="UTF-8" standalone="yes"?>
<svg version="1.1" width="64" height="64" color-interpolation="linearRGB"
     xmlns:svg="http://www.w3.org/2000/svg" xmlns="http://www.w3.org/2000/svg">
 <g>
  <path style="fill:none; stroke:#000000; stroke-opacity:0.4; stroke-width:5.8836; stroke-linecap:round; stroke-linejoin:round"
        d="M6.62 17.12V23.24H60.17V17.12H6.62z"
        transform="matrix(0.9357,0,0,0.9613,3.0556,2.4302)"
  />
  <path style="fill:none; stroke:#004080; stroke-width:5.8836; stroke-linecap:round; stroke-linejoin:round"
        d="M3.8 14.06V20.18H57.36V14.06H3.8z"
        transform="matrix(0.9357,0,0,0.9613,3.0556,2.4302)"
  />
  <linearGradient id="gradient0" gradientUnits="userSpaceOnUse" x1="181.34" y1="14.02" x2="181.34" y2="20.15">
   <stop offset="0" stop-color="#abd5ff"/>
   <stop offset="1" stop-color="#006cd9"/>
  </linearGradient>
  <path style="fill:url(#gradient0)"
        d="M3.8 14.06V20.18H57.36V14.06H3.8z"
        transform="matrix(0.9357,0,0,0.9613,3.0556,2.4302)"
  />
  <path style="fill:none; stroke:#000000; stroke-opacity:0.4; stroke-width:5.8836; stroke-linejoin:round"
        d="M20.72 47.72H43.27L31.99 59.97L20.72 47.72z"
        transform="matrix(0.9357,0,0,0.9613,3.0556,2.4302)"
  />
  <path style="fill:none; stroke:#005900; stroke-width:5.8836; stroke-linejoin:round"
        d="M17.91 44.66H40.45L29.18 56.91L17.91 44.66z"
        transform="matrix(0.9357,0,0,0.9613,3.0556,2.4302)"
  />
  <linearGradient id="gradient1" gradientUnits="userSpaceOnUse" x1="181.34" y1="44.66" x2="181.34" y2="56.91">
   <stop offset="0" stop-color="#80ff80"/>
   <stop offset="1" stop-color="#00b200"/>
  </linearGradient>
  <path style="fill:url(#gradient1)"
        d="M17.91 44.66H40.45L29.18 56.91L17.91 44.66z"
        transform="matrix(0.9357,0,0,0.9613,3.0556,2.4302)"
  />
 </g>
</svg>
