<?xml version="1.0" encoding="UTF-8" standalone="yes"?>
<svg version="1.1" width="64" height="64" color-interpolation="linearRGB"
     xmlns:svg="http://www.w3.org/2000/svg" xmlns="http://www.w3.org/2000/svg">
 <g>
  <path style="fill:none; stroke:#000000; stroke-opacity:0.4; stroke-width:4; stroke-linecap:round; stroke-linejoin:round"
        d="M3.99 14V18H42V14H3.99z"
        transform="matrix(1.4089,0,0,1.5304,1.004,-4.3047)"
  />
  <path style="fill:none; stroke:#004080; stroke-width:4; stroke-linecap:round; stroke-linejoin:round"
        d="M1.99 12V16H40V12H1.99z"
        transform="matrix(1.4089,0,0,1.5304,1.004,-4.3047)"
  />
  <linearGradient id="gradient0" gradientUnits="userSpaceOnUse" x1="128" y1="11.98" x2="128" y2="15.98">
   <stop offset="0" stop-color="#abd5ff"/>
   <stop offset="1" stop-color="#006cd9"/>
  </linearGradient>
  <path style="fill:url(#gradient0)"
        d="M1.99 12V16H40V12H1.99z"
        transform="matrix(1.4089,0,0,1.5304,1.004,-4.3047)"
  />
  <path style="fill:none; stroke:#000000; stroke-opacity:0.4; stroke-width:4; stroke-linejoin:round"
        d="M14 34H30L22 42L14 34z"
        transform="matrix(1.4089,0,0,1.5304,1.004,-4.3047)"
  />
  <path style="fill:none; stroke:#005900; stroke-width:4; stroke-linejoin:round"
        d="M12 32H28L20 40L12 32z"
        transform="matrix(1.4089,0,0,1.5304,1.004,-4.3047)"
  />
  <linearGradient id="gradient1" gradientUnits="userSpaceOnUse" x1="128" y1="32" x2="128" y2="40">
   <stop offset="0" stop-color="#80ff80"/>
   <stop offset="1" stop-color="#00b200"/>
  </linearGradient>
  <path style="fill:url(#gradient1)"
        d="M12 32H28L20 40L12 32z"
        transform="matrix(1.4089,0,0,1.5304,1.004,-4.3047)"
  />
 </g>
</svg>
