<?xml version="1.0" encoding="UTF-8" standalone="yes"?>
<svg version="1.1" width="64" height="64" color-interpolation="linearRGB"
     xmlns:svg="http://www.w3.org/2000/svg" xmlns="http://www.w3.org/2000/svg">
 <g>
  <path style="fill:none; stroke:#000000; stroke-opacity:0.4; stroke-width:6"
        d="M23.27 23.27C29.09 23.27 34.9 23.27 40.72 23.27C40.72 29.09 40.72 34.9 40.72 40.72C34.9 40.72 29.09 40.72 23.27 40.72C23.27 34.9 23.27 29.09 23.27 23.27V23.27V23.27z
           M20.36 8.72C20.36 12.6 20.36 16.48 20.36 20.36C16.48 20.36 12.6 20.36 8.72 20.36C8.72 21.33 8.72 22.3 8.72 23.27C12.6 23.27 16.48 23.27 20.36 23.27C20.36 29.09 20.36 34.9 20.36 40.72C16.48 40.72 12.6 40.72 8.72 40.72C8.72 41.69 8.72 42.66 8.72 43.63C12.6 43.63 16.48 43.63 20.36 43.63C20.36 47.51 20.36 51.39 20.36 55.27C21.33 55.27 22.3 55.27 23.27 55.27C23.27 51.39 23.27 47.51 23.27 43.63C29.09 43.63 34.9 43.63 40.72 43.63C40.72 47.51 40.72 51.39 40.72 55.27C41.69 55.27 42.66 55.27 43.63 55.27C43.63 51.39 43.63 47.51 43.63 43.63C47.51 43.63 51.39 43.63 55.27 43.63C55.27 42.66 55.27 41.69 55.27 40.72C51.39 40.72 47.51 40.72 43.63 40.72C43.63 34.9 43.63 29.09 43.63 23.27C47.51 23.27 51.39 23.27 55.27 23.27C55.27 22.3 55.27 21.33 55.27 20.36C51.39 20.36 47.51 20.36 43.63 20.36C43.63 16.48 43.63 12.6 43.63 8.72C42.66 8.72 41.69 8.72 40.72 8.72C40.72 12.6 40.72 16.48 40.72 20.36C34.9 20.36 29.09 20.36 23.27 20.36C23.27 16.48 23.27 12.6 23.27 8.72C22.3 8.72 21.33 8.72 20.36 8.72V8.72V8.72z"
        transform="matrix(1.0366,0,0,1.036,0.8633,1.9018)"
  />
  <path style="fill:none; stroke:#005900; stroke-width:6"
        d="M23.27 23.27C29.09 23.27 34.9 23.27 40.72 23.27C40.72 29.09 40.72 34.9 40.72 40.72C34.9 40.72 29.09 40.72 23.27 40.72C23.27 34.9 23.27 29.09 23.27 23.27V23.27V23.27z
           M20.36 8.72C20.36 12.6 20.36 16.48 20.36 20.36C16.48 20.36 12.6 20.36 8.72 20.36C8.72 21.33 8.72 22.3 8.72 23.27C12.6 23.27 16.48 23.27 20.36 23.27C20.36 29.09 20.36 34.9 20.36 40.72C16.48 40.72 12.6 40.72 8.72 40.72C8.72 41.69 8.72 42.66 8.72 43.63C12.6 43.63 16.48 43.63 20.36 43.63C20.36 47.51 20.36 51.39 20.36 55.27C21.33 55.27 22.3 55.27 23.27 55.27C23.27 51.39 23.27 47.51 23.27 43.63C29.09 43.63 34.9 43.63 40.72 43.63C40.72 47.51 40.72 51.39 40.72 55.27C41.69 55.27 42.66 55.27 43.63 55.27C43.63 51.39 43.63 47.51 43.63 43.63C47.51 43.63 51.39 43.63 55.27 43.63C55.27 42.66 55.27 41.69 55.27 40.72C51.39 40.72 47.51 40.72 43.63 40.72C43.63 34.9 43.63 29.09 43.63 23.27C47.51 23.27 51.39 23.27 55.27 23.27C55.27 22.3 55.27 21.33 55.27 20.36C51.39 20.36 47.51 20.36 43.63 20.36C43.63 16.48 43.63 12.6 43.63 8.72C42.66 8.72 41.69 8.72 40.72 8.72C40.72 12.6 40.72 16.48 40.72 20.36C34.9 20.36 29.09 20.36 23.27 20.36C23.27 16.48 23.27 12.6 23.27 8.72C22.3 8.72 21.33 8.72 20.36 8.72V8.72V8.72z"
        transform="matrix(1.0366,0,0,1.036,-1.2099,-1.2062)"
  />
  <linearGradient id="gradient0" gradientUnits="userSpaceOnUse" x1="162.06" y1="7.43" x2="162.06" y2="54.08">
   <stop offset="0" stop-color="#80ff80"/>
   <stop offset="1" stop-color="#00b300"/>
  </linearGradient>
  <path style="fill:url(#gradient0)"
        d="M23.27 23.27C29.09 23.27 34.9 23.27 40.72 23.27C40.72 29.09 40.72 34.9 40.72 40.72C34.9 40.72 29.09 40.72 23.27 40.72C23.27 34.9 23.27 29.09 23.27 23.27V23.27V23.27z
           M20.36 8.72C20.36 12.6 20.36 16.48 20.36 20.36C16.48 20.36 12.6 20.36 8.72 20.36C8.72 21.33 8.72 22.3 8.72 23.27C12.6 23.27 16.48 23.27 20.36 23.27C20.36 29.09 20.36 34.9 20.36 40.72C16.48 40.72 12.6 40.72 8.72 40.72C8.72 41.69 8.72 42.66 8.72 43.63C12.6 43.63 16.48 43.63 20.36 43.63C20.36 47.51 20.36 51.39 20.36 55.27C21.33 55.27 22.3 55.27 23.27 55.27C23.27 51.39 23.27 47.51 23.27 43.63C29.09 43.63 34.9 43.63 40.72 43.63C40.72 47.51 40.72 51.39 40.72 55.27C41.69 55.27 42.66 55.27 43.63 55.27C43.63 51.39 43.63 47.51 43.63 43.63C47.51 43.63 51.39 43.63 55.27 43.63C55.27 42.66 55.27 41.69 55.27 40.72C51.39 40.72 47.51 40.72 43.63 40.72C43.63 34.9 43.63 29.09 43.63 23.27C47.51 23.27 51.39 23.27 55.27 23.27C55.27 22.3 55.27 21.33 55.27 20.36C51.39 20.36 47.51 20.36 43.63 20.36C43.63 16.48 43.63 12.6 43.63 8.72C42.66 8.72 41.69 8.72 40.72 8.72C40.72 12.6 40.72 16.48 40.72 20.36C34.9 20.36 29.09 20.36 23.27 20.36C23.27 16.48 23.27 12.6 23.27 8.72C22.3 8.72 21.33 8.72 20.36 8.72V8.72V8.72z"
        transform="matrix(1.0366,0,0,1.036,-1.2099,-1.2062)"
  />
 </g>
</svg>
