<?xml version="1.0" encoding="UTF-8" standalone="yes"?>
<svg version="1.1" width="64" height="64" color-interpolation="linearRGB"
     xmlns:svg="http://www.w3.org/2000/svg" xmlns="http://www.w3.org/2000/svg">
 <g>
  <path style="fill:none; stroke:#000000; stroke-opacity:0.4; stroke-width:4.1767; stroke-linecap:round; stroke-linejoin:round"
        d="M49.42 50.56C49.42 38.1 49.42 25.64 49.42 13.18
           M7.87 37.37C7.87 34.07 7.87 30.77 7.87 27.47
           M50.41 39.56C50.41 39.56 54.37 39.56 54.37 32.97C54.37 26.37 50.41 26.37 50.41 26.37C50.41 30.77 50.41 35.17 50.41 39.56V39.56V39.56z
           M20.73 41.76C20.73 41.76 16.98 48.78 23.7 51.66C36.56 57.15 35.57 46.16 35.57 46.16
           M13.81 25.27C25.68 22.34 37.55 19.41 49.42 16.48C49.42 27.11 49.42 37.73 49.42 48.36C37.55 45.43 25.68 42.5 13.81 39.56C13.81 34.8 13.81 30.04 13.81 25.27V25.27V25.27z"
        transform="matrix(1,0,0,1,3,2)"
  />
  <path style="fill:none; stroke:#800000; stroke-width:7.8688"
        d="M47.49 37C47.49 37 51.35 37 51.35 31C51.35 25 47.49 25 47.49 25C47.49 29 47.49 33 47.49 37V37V37z"
        transform="matrix(1,0,0,1,3,2)"
  />
  <linearGradient id="gradient0" gradientUnits="userSpaceOnUse" x1="162.05" y1="7.43" x2="162.05" y2="54.08">
   <stop offset="0" stop-color="#ffabab"/>
   <stop offset="1" stop-color="#d90000"/>
  </linearGradient>
  <path style="fill:none; stroke:url(#gradient0); stroke-width:2.9507"
        d="M47.49 37C47.49 37 51.35 37 51.35 31C51.35 25 47.49 25 47.49 25C47.49 29 47.49 33 47.49 37V37V37z"
        transform="matrix(1,0,0,1,3,2)"
  />
  <path style="fill:none; stroke:#800000; stroke-width:6.8852"
        d="M18.47 39C18.47 39 14.79 45.38 21.37 48C33.95 53 32.98 43 32.98 43"
        transform="matrix(1,0,0,1,3,2)"
  />
  <linearGradient id="gradient1" gradientUnits="userSpaceOnUse" x1="162.05" y1="7.43" x2="162.05" y2="54.08">
   <stop offset="0" stop-color="#ffabab"/>
   <stop offset="1" stop-color="#d90000"/>
  </linearGradient>
  <path style="fill:none; stroke:url(#gradient1); stroke-width:1.9672"
        d="M18.47 39C18.47 39 14.79 45.38 21.37 48C33.95 53 32.98 43 32.98 43"
        transform="matrix(1,0,0,1,3,2)"
  />
  <path style="fill:none; stroke:#800000; stroke-width:5.9015; stroke-linecap:round; stroke-linejoin:round"
        d="M11.7 24C23.31 21.33 34.91 18.66 46.52 16C46.52 25.66 46.52 35.33 46.52 45C34.91 42.33 23.31 39.66 11.7 37C11.7 32.66 11.7 28.33 11.7 24V24V24z"
        transform="matrix(1,0,0,1,3,2)"
  />
  <linearGradient id="gradient2" gradientUnits="userSpaceOnUse" x1="162.05" y1="7.43" x2="162.05" y2="54.08">
   <stop offset="0" stop-color="#ffabab"/>
   <stop offset="1" stop-color="#d90000"/>
  </linearGradient>
  <path style="fill:url(#gradient2)"
        d="M11.7 24C23.31 21.33 34.91 18.66 46.52 16C46.52 25.66 46.52 35.33 46.52 45C34.91 42.33 23.31 39.66 11.7 37C11.7 32.66 11.7 28.33 11.7 24V24V24z"
        transform="matrix(1,0,0,1,3,2)"
  />
  <path style="fill:none; stroke:#800000; stroke-width:6.8852; stroke-linecap:round; stroke-linejoin:round"
        d="M46.52 47C46.52 35.66 46.52 24.33 46.52 13
           M5.9 35C5.9 32 5.9 29 5.9 26"
        transform="matrix(1,0,0,1,3,2)"
  />
  <linearGradient id="gradient3" gradientUnits="userSpaceOnUse" x1="162.05" y1="7.43" x2="162.05" y2="54.08">
   <stop offset="0" stop-color="#ffabab"/>
   <stop offset="1" stop-color="#d90000"/>
  </linearGradient>
  <path style="fill:none; stroke:url(#gradient3); stroke-width:1.9672; stroke-linecap:round; stroke-linejoin:round"
        d="M46.52 47C46.52 35.66 46.52 24.33 46.52 13
           M5.9 35C5.9 32 5.9 29 5.9 26"
        transform="matrix(1,0,0,1,3,2)"
  />
 </g>
</svg>
