<?xml version="1.0" encoding="UTF-8" standalone="yes"?>
<svg version="1.1" width="64" height="64" color-interpolation="linearRGB"
     xmlns:svg="http://www.w3.org/2000/svg" xmlns="http://www.w3.org/2000/svg">
 <g>
  <path style="fill:none; stroke:#000000; stroke-opacity:0.4; stroke-width:6.2177"
        d="M21.96 10.93C21.96 14.95 21.96 18.97 21.96 22.99C17.94 22.99 13.92 22.99 9.9 22.99C9.9 23.99 9.9 25 9.9 26C13.92 26 17.94 26 21.96 26C21.96 32.03 21.96 38.05 21.96 44.08C17.94 44.08 13.92 44.08 9.9 44.08C9.9 45.09 9.9 46.09 9.9 47.1C13.92 47.1 17.94 47.1 21.96 47.1C21.96 51.12 21.96 55.14 21.96 59.16C22.97 59.16 23.97 59.16 24.98 59.16C24.98 55.14 24.98 51.12 24.98 47.1C31.01 47.1 37.04 47.1 43.07 47.1C43.07 51.12 43.07 55.14 43.07 59.16C44.07 59.16 45.08 59.16 46.09 59.16C46.09 55.14 46.09 51.12 46.09 47.1C50.11 47.1 54.13 47.1 58.15 47.1C58.15 46.09 58.15 45.09 58.15 44.08C54.13 44.08 50.11 44.08 46.09 44.08C46.09 38.05 46.09 32.03 46.09 26C50.11 26 54.13 26 58.15 26C58.15 25 58.15 23.99 58.15 22.99C54.13 22.99 50.11 22.99 46.09 22.99C46.09 18.97 46.09 14.95 46.09 10.93C45.08 10.93 44.07 10.93 43.07 10.93C43.07 14.95 43.07 18.97 43.07 22.99C37.04 22.99 31.01 22.99 24.98 22.99C24.98 18.97 24.98 14.95 24.98 10.93C23.97 10.93 22.97 10.93 21.96 10.93V10.93V10.93V10.93V10.93z
           M24.98 26C31.01 26 37.04 26 43.07 26C43.07 32.03 43.07 38.05 43.07 44.08C37.04 44.08 31.01 44.08 24.98 44.08C24.98 38.05 24.98 32.03 24.98 26V26V26V26V26z"
  />
  <path style="fill:none; stroke:#800000; stroke-width:6.2177"
        d="M19.89 7.82C19.89 11.84 19.89 15.86 19.89 19.88C15.87 19.88 11.85 19.88 7.82 19.88C7.82 20.89 7.82 21.89 7.82 22.9C11.85 22.9 15.87 22.9 19.89 22.9C19.89 28.93 19.89 34.95 19.89 40.97C15.87 40.97 11.85 40.97 7.82 40.97C7.82 41.98 7.82 42.98 7.82 43.99C11.85 43.99 15.87 43.99 19.89 43.99C19.89 48.01 19.89 52.03 19.89 56.05C20.9 56.05 21.9 56.05 22.91 56.05C22.91 52.03 22.91 48.01 22.91 43.99C28.94 43.99 34.96 43.99 41 43.99C41 48.01 41 52.03 41 56.05C42 56.05 43.01 56.05 44.01 56.05C44.01 52.03 44.01 48.01 44.01 43.99C48.03 43.99 52.06 43.99 56.08 43.99C56.08 42.98 56.08 41.98 56.08 40.97C52.06 40.97 48.03 40.97 44.01 40.97C44.01 34.95 44.01 28.93 44.01 22.9C48.03 22.9 52.06 22.9 56.08 22.9C56.08 21.89 56.08 20.89 56.08 19.88C52.06 19.88 48.03 19.88 44.01 19.88C44.01 15.86 44.01 11.84 44.01 7.82C43.01 7.82 42 7.82 41 7.82C41 11.84 41 15.86 41 19.88C34.96 19.88 28.94 19.88 22.91 19.88C22.91 15.86 22.91 11.84 22.91 7.82C21.9 7.82 20.9 7.82 19.89 7.82V7.82V7.82V7.82V7.82z
           M22.91 22.9C28.94 22.9 34.96 22.9 41 22.9C41 28.93 41 34.95 41 40.97C34.96 40.97 28.94 40.97 22.91 40.97C22.91 34.95 22.91 28.93 22.91 22.9V22.9V22.9V22.9V22.9z"
  />
  <linearGradient id="gradient0" gradientUnits="userSpaceOnUse" x1="162.06" y1="7.43" x2="162.06" y2="54.08">
   <stop offset="0" stop-color="#ffabab"/>
   <stop offset="1" stop-color="#d90000"/>
  </linearGradient>
  <path style="fill:url(#gradient0)"
        d="M19.89 7.82C19.89 11.84 19.89 15.86 19.89 19.88C15.87 19.88 11.85 19.88 7.82 19.88C7.82 20.89 7.82 21.89 7.82 22.9C11.85 22.9 15.87 22.9 19.89 22.9C19.89 28.93 19.89 34.95 19.89 40.97C15.87 40.97 11.85 40.97 7.82 40.97C7.82 41.98 7.82 42.98 7.82 43.99C11.85 43.99 15.87 43.99 19.89 43.99C19.89 48.01 19.89 52.03 19.89 56.05C20.9 56.05 21.9 56.05 22.91 56.05C22.91 52.03 22.91 48.01 22.91 43.99C28.94 43.99 34.96 43.99 41 43.99C41 48.01 41 52.03 41 56.05C42 56.05 43.01 56.05 44.01 56.05C44.01 52.03 44.01 48.01 44.01 43.99C48.03 43.99 52.06 43.99 56.08 43.99C56.08 42.98 56.08 41.98 56.08 40.97C52.06 40.97 48.03 40.97 44.01 40.97C44.01 34.95 44.01 28.93 44.01 22.9C48.03 22.9 52.06 22.9 56.08 22.9C56.08 21.89 56.08 20.89 56.08 19.88C52.06 19.88 48.03 19.88 44.01 19.88C44.01 15.86 44.01 11.84 44.01 7.82C43.01 7.82 42 7.82 41 7.82C41 11.84 41 15.86 41 19.88C34.96 19.88 28.94 19.88 22.91 19.88C22.91 15.86 22.91 11.84 22.91 7.82C21.9 7.82 20.9 7.82 19.89 7.82V7.82V7.82V7.82V7.82z
           M22.91 22.9C28.94 22.9 34.96 22.9 41 22.9C41 28.93 41 34.95 41 40.97C34.96 40.97 28.94 40.97 22.91 40.97C22.91 34.95 22.91 28.93 22.91 22.9V22.9V22.9V22.9V22.9z"
  />
 </g>
</svg>
