<?xml version="1.0" encoding="UTF-8" standalone="yes"?>
<svg version="1.1" width="64" height="64" color-interpolation="linearRGB"
     xmlns:svg="http://www.w3.org/2000/svg" xmlns="http://www.w3.org/2000/svg">
 <g>
  <path style="fill:none; stroke:#010101; stroke-opacity:0.4313; stroke-width:5.0905; stroke-linecap:round; stroke-linejoin:round"
        d="M23.08 15.45C24.77 17.57 26.47 19.69 28.16 21.81C28.16 21.81 34.53 12.9 39.62 19.26C44.71 25.63 28.16 28.17 28.16 34.53C28.16 36.23 28.16 37.93 28.16 39.63C31.13 39.63 34.11 39.63 37.08 39.63C37.08 38.35 37.08 37.08 37.08 35.81C37.08 30.71 48.53 30.71 48.53 21.81C48.53 14.17 42.16 9.08 34.53 9.08C26.89 9.08 23.08 15.45 23.08 15.45V15.45V15.45z
           M30.71 44.71C27.9 44.71 25.62 47 25.62 49.81C25.62 52.61 27.9 54.9 30.71 54.9C33.51 54.9 35.8 52.61 35.8 49.81C35.8 47 33.51 44.71 30.71 44.71V44.71V44.71z"
        transform="matrix(1.0613,0,0,1.0561,-12.1347,-1.2607)"
  />
  <path style="fill:none; stroke:#004080; stroke-width:5.0905; stroke-linecap:round; stroke-linejoin:round"
        d="M30.71 44.71C27.9 44.71 25.62 47 25.62 49.81C25.62 52.61 27.9 54.9 30.71 54.9C33.51 54.9 35.8 52.61 35.8 49.81C35.8 47 33.51 44.71 30.71 44.71V44.71V44.71z
           M20.53 12.9C22.23 15.02 23.92 17.14 25.62 19.26C25.62 19.26 31.98 10.35 37.08 16.72C42.16 23.08 25.62 25.63 25.62 31.99C25.62 33.68 25.62 35.38 25.62 37.08C28.59 37.08 31.56 37.08 34.53 37.08C34.53 35.81 34.53 34.53 34.53 33.26C34.53 28.17 45.98 28.17 45.98 19.26C45.98 11.63 39.62 6.53 31.98 6.53C24.35 6.53 20.53 12.9 20.53 12.9V12.9V12.9z"
        transform="matrix(1.0613,0,0,1.0561,-11.1045,-0.224)"
  />
  <linearGradient id="gradient0" gradientUnits="userSpaceOnUse" x1="180.89" y1="6.53" x2="180.89" y2="54.88">
   <stop offset="0" stop-color="#abd5ff"/>
   <stop offset="1" stop-color="#006cd9"/>
  </linearGradient>
  <path style="fill:url(#gradient0)"
        d="M30.71 44.71C27.9 44.71 25.62 47 25.62 49.81C25.62 52.61 27.9 54.9 30.71 54.9C33.51 54.9 35.8 52.61 35.8 49.81C35.8 47 33.51 44.71 30.71 44.71V44.71V44.71z
           M20.53 12.9C22.23 15.02 23.92 17.14 25.62 19.26C25.62 19.26 31.98 10.35 37.08 16.72C42.16 23.08 25.62 25.63 25.62 31.99C25.62 33.68 25.62 35.38 25.62 37.08C28.59 37.08 31.56 37.08 34.53 37.08C34.53 35.81 34.53 34.53 34.53 33.26C34.53 28.17 45.98 28.17 45.98 19.26C45.98 11.63 39.62 6.53 31.98 6.53C24.35 6.53 20.53 12.9 20.53 12.9V12.9V12.9z"
        transform="matrix(1.0613,0,0,1.0561,-11.1045,-0.224)"
  />
  <path style="fill:none; stroke:#000000; stroke-opacity:0.4; stroke-width:4.9627; stroke-linecap:round; stroke-linejoin:round"
        d="M46.73 13.99C41 19.82 35.26 25.65 29.53 31.49C26.25 28.15 22.98 24.82 19.7 21.49C16.43 24.82 13.15 28.15 9.88 31.49C16.43 38.16 22.98 44.82 29.53 51.49C38.54 42.33 47.55 33.16 56.55 23.99C53.28 20.65 50 17.32 46.73 13.99V13.99V13.99z"
        transform="matrix(0.5178,0,0,0.5312,32.4237,34.2637)"
  />
  <path style="fill:none; stroke:#005900; stroke-width:9; stroke-linecap:round; stroke-linejoin:round"
        d="M44.27 11.49C38.54 17.32 32.81 23.15 27.07 28.99C23.8 25.66 20.52 22.33 17.25 18.99C13.97 22.33 10.7 25.66 7.42 28.99C13.97 35.66 20.52 42.32 27.07 48.99C36.08 39.82 45.09 30.66 54.1 21.49C50.82 18.16 47.55 14.82 44.27 11.49V11.49V11.49z"
        transform="matrix(0.5178,0,0,0.5312,32.4237,33.2637)"
  />
  <linearGradient id="gradient1" gradientUnits="userSpaceOnUse" x1="162.2" y1="11.48" x2="162.2" y2="48.99">
   <stop offset="0" stop-color="#80ff80"/>
   <stop offset="1" stop-color="#00b300"/>
  </linearGradient>
  <path style="fill:url(#gradient1)"
        d="M44.27 11.49C38.54 17.32 32.81 23.15 27.07 28.99C23.8 25.66 20.52 22.33 17.25 18.99C13.97 22.33 10.7 25.66 7.42 28.99C13.97 35.66 20.52 42.32 27.07 48.99C36.08 39.82 45.09 30.66 54.1 21.49C50.82 18.16 47.55 14.82 44.27 11.49V11.49V11.49z"
        transform="matrix(0.5178,0,0,0.5312,32.4237,33.2637)"
  />
 </g>
</svg>
