<?xml version="1.0" encoding="UTF-8" standalone="yes"?>
<svg version="1.1" width="64" height="64" color-interpolation="linearRGB"
     xmlns:svg="http://www.w3.org/2000/svg" xmlns="http://www.w3.org/2000/svg">
 <g>
  <path style="fill:#000000; fill-opacity:0.4156"
        d="M35 46.99C24.5 46.99 16 49.9 16 53.49C16 57.08 24.5 59.99 35 59.99C45.48 59.99 54 57.08 54 53.49C54 49.9 45.48 46.99 35 46.99V46.99V46.99z"
  />
  <path style="fill:#000000; fill-opacity:0.4156"
        d="M44 38C32.95 38 24 40.68 24 44C24 47.31 32.95 50 44 50C55.03 50 64 47.31 64 44C64 40.68 55.03 38 44 38V38V38z"
  />
  <path style="fill:none; stroke:#000000; stroke-width:3.3896"
        d="M31.55 33.02C25.61 29.63 17.1 27.91 11.13 32.11C8.57 33.78 6.85 37.16 6.85 39.69C6.83 43.91 8.51 47.28 11.06 50.66C10.2 52.35 8.5 52.34 6.8 51.5C9.35 53.19 11.89 54.05 13.61 53.2C15.3 54.9 17.85 55.75 19.55 56.6C22.1 57.46 25.5 58.32 28.9 58.32C34.01 58.34 38.28 56.67 40 52.46C43.43 44.88 37.5 36.42 31.55 33.02V33.02V33.02V33.02V33.02z"
  />
  <radialGradient id="gradient0" gradientUnits="userSpaceOnUse" cx="0" cy="0" r="64" gradientTransform="matrix(-0.6568,-0.3883,0.1995,-0.3375,18.7504,36.3183)">
   <stop offset="0" stop-color="#ffcece"/>
   <stop offset="1" stop-color="#c10505"/>
  </radialGradient>
  <path style="fill:url(#gradient0)"
        d="M31.52 33C25.56 29.62 17.04 27.93 11.09 32.15C8.53 33.84 6.83 37.22 6.83 39.75C6.83 43.96 8.53 47.34 11.09 50.71C10.23 52.4 8.53 52.4 6.83 51.56C9.38 53.25 11.94 54.09 13.64 53.25C15.34 54.93 17.9 55.78 19.6 56.62C22.15 57.46 25.56 58.31 28.96 58.31C34.07 58.31 38.33 56.62 40.03 52.4C43.44 44.81 37.48 36.37 31.52 33V33V33V33V33z"
  />
  <path style="fill:#000000; fill-opacity:0.4156"
        d="M31.52 33C29.81 32.15 28.11 30.47 25.59 30.52C21.3 30.47 25.56 36.37 29.81 40.59C34.07 44.81 39.18 49.03 40.88 47.34C40.88 41.43 35.77 35.53 31.52 33V33V33V33V33z"
  />
  <path style="fill:none; stroke:#000000; stroke-width:1.6949; stroke-linecap:square"
        d="M17.9 44.81C16.19 44.81 13.64 43.96 13.64 43.96C13.64 43.96 16.19 48.18 17.9 49.03
           M21.3 45.65C23.86 45.65 24.71 49.03 22.15 49.03C24.71 50.71 23.86 54.09 20.45 51.56"
  />
  <path style="fill:none; stroke:#000000; stroke-width:3.3899"
        d="M51.1 37.22C54.67 35.41 57.91 33 57.91 27.93C57.91 21.45 53.65 14.7 47.69 11.31C40.88 7.1 30.67 6.26 24.71 10.47C20.26 13.61 19.6 19.5 21.3 23.72C23.86 31.31 33.22 36.37 40.88 38.06C43.44 38.9 46.45 38.77 48.54 38.06C50.25 42.28 52.8 45.65 56.42 46.66C54.5 45.65 52.12 41.32 51.1 37.22V37.22V37.22V37.22V37.22z"
  />
  <radialGradient id="gradient1" gradientUnits="userSpaceOnUse" cx="0" cy="0" r="64" gradientTransform="matrix(-0.3715,-0.2196,0.133,-0.2249,30.7504,13.3183)">
   <stop offset="0" stop-color="#ffcece"/>
   <stop offset="0.7063" stop-color="#fb6c6c"/>
   <stop offset="1" stop-color="#d52e2e"/>
  </radialGradient>
  <path style="fill:url(#gradient1)"
        d="M51.1 37.22C54.67 35.41 57.91 33 57.91 27.93C57.91 21.45 53.65 14.7 47.69 11.31C40.88 7.1 30.67 6.26 24.71 10.47C20.26 13.61 19.6 19.5 21.3 23.72C23.86 31.31 33.22 36.37 40.88 38.06C43.44 38.9 46.45 38.77 48.54 38.06C50.25 42.28 52.8 45.65 56.42 46.66C54.5 45.65 52.12 41.32 51.1 37.22V37.22V37.22V37.22V37.22z"
  />
  <path style="fill:none; stroke:#000000; stroke-width:1.6949; stroke-linecap:square"
        d="M30.67 25.4C31.8 25.96 32.93 26.53 34.07 27.09
           M26.41 20.86C26.41 21.14 26.41 21.42 26.41 21.71
           M26.72 25.29C26.78 25.67 26.83 26.07 26.88 26.46
           M36.62 23.72C36.62 23.72 38.33 27.09 38.33 29.62C38.33 32.15 36.62 33 36.62 33"
  />
 </g>
</svg>
