<?xml version="1.0" encoding="UTF-8" standalone="yes"?>
<svg version="1.1" width="64" height="64" color-interpolation="linearRGB"
     xmlns:svg="http://www.w3.org/2000/svg" xmlns="http://www.w3.org/2000/svg">
 <g>
  <path style="fill:none; stroke:#000000; stroke-opacity:0.4; stroke-width:4; stroke-linejoin:round"
        d="M34 4C34 9.33 34 14.66 34 20C36.66 17.33 39.33 14.66 42 12C39.33 9.33 36.66 6.66 34 4V4V4z"
        transform="matrix(0.9506,0,0,1,19.1665,22)"
  />
  <path style="fill:none; stroke:#000000; stroke-opacity:0.4; stroke-width:8; stroke-linecap:round; stroke-linejoin:round"
        d="M51 34C51 34 48 34 42 34C36 34 21 18 15 18C9 18 7 18 7 18"
        transform="matrix(0.9506,0,0,1,3.0049,0)"
  />
  <path style="fill:none; stroke:#000000; stroke-opacity:0.4; stroke-width:8; stroke-linecap:round; stroke-linejoin:round"
        d="M49 12C49 12 44 12 38 12C32 12 21 28 15 28C9 28 6 28 6 28"
        transform="matrix(0.9506,0,0,1,2.0542,22)"
  />
  <path style="fill:none; stroke:#800000; stroke-width:8; stroke-linecap:round; stroke-linejoin:round"
        d="M49 12C49 12 44 12 38 12C32 12 21 28 15 28C9 28 6 28 6 28"
        transform="matrix(0.9506,0,0,1,2.0542,20)"
  />
  <linearGradient id="gradient0" gradientUnits="userSpaceOnUse" x1="128" y1="1.98" x2="128" y2="39.99">
   <stop offset="0" stop-color="#ff8080"/>
   <stop offset="1" stop-color="#d90000"/>
  </linearGradient>
  <path style="fill:none; stroke:url(#gradient0); stroke-width:4; stroke-linecap:round; stroke-linejoin:round"
        d="M49 12C49 12 44 12 38 12C32 12 21 28 15 28C9 28 6 28 6 28"
        transform="matrix(0.9506,0,0,1,2.0542,20)"
  />
  <path style="fill:none; stroke:#005900; stroke-width:4; stroke-linejoin:round"
        d="M32 2C32 7.33 32 12.66 32 18C34.66 15.33 37.33 12.66 40 10C37.33 7.33 34.66 4.66 32 2V2V2z"
        transform="matrix(0.9506,0,0,1,20.1172,22)"
  />
  <path style="fill:none; stroke:#005900; stroke-width:8; stroke-linecap:round; stroke-linejoin:round"
        d="M51 34C51 34 48 34 42 34C36 34 21 18 15 18C9 18 7 18 7 18"
        transform="matrix(0.9506,0,0,1,1.1035,-2)"
  />
  <linearGradient id="gradient1" gradientUnits="userSpaceOnUse" x1="128" y1="1.99" x2="128" y2="39.99">
   <stop offset="0" stop-color="#80ff80"/>
   <stop offset="1" stop-color="#00b200"/>
  </linearGradient>
  <path style="fill:none; stroke:url(#gradient1); stroke-width:4; stroke-linecap:round; stroke-linejoin:round"
        d="M51 34C51 34 48 34 42 34C36 34 21 18 15 18C9 18 7 18 7 18"
        transform="matrix(0.9506,0,0,1,1.1035,-2)"
  />
  <linearGradient id="gradient2" gradientUnits="userSpaceOnUse" x1="128" y1="1.99" x2="128" y2="39.99">
   <stop offset="0" stop-color="#80ff80"/>
   <stop offset="1" stop-color="#00b200"/>
  </linearGradient>
  <path style="fill:url(#gradient2)"
        d="M32 2C32 7.33 32 12.66 32 18C34.66 15.33 37.33 12.66 40 10C37.33 7.33 34.66 4.66 32 2V2V2z"
        transform="matrix(0.9506,0,0,1,20.1172,22)"
  />
 </g>
</svg>
