<?xml version="1.0" encoding="UTF-8" standalone="yes"?>
<svg version="1.1" width="64" height="64" color-interpolation="linearRGB"
     xmlns:svg="http://www.w3.org/2000/svg" xmlns="http://www.w3.org/2000/svg">
 <g>
  <path style="fill:#010101; fill-opacity:0.3921"
        d="M20.25 24.22C22.61 28.64 32.42 45.95 32.42 45.95C32.42 45.95 20.6 39.02 17.06 39.02C15.28 39.02 12.46 39.78 12.46 41.78C12.46 44.22 15.53 43.99 17.77 45.27C21.3 47.26 29.35 49.41 33.95 58.07C33.95 58.07 43.16 59.81 47.77 58.07C54.35 55.56 58.51 52.88 58.51 52.88C58.51 52.88 58.51 37.79 58.51 33.83C58.51 30.66 53.76 24.98 52.37 25.17C49.92 25.43 54.97 31.26 53.18 31.26C51.41 31.26 47.83 21.71 44.31 21.71C40.77 21.71 46.11 29.29 44.33 29.29C42.57 29.29 37.46 21.71 33.95 21.71C30.88 21.71 37.23 30.36 35.49 30.36C34.52 30.36 30.17 28.51 26.63 22.75C24.14 18.68 20.69 11.32 16.79 11.32C13.01 11.32 17.88 19.84 20.25 24.22V24.22V24.22z"
  />
  <path style="fill:none; stroke:#804100; stroke-width:6.5452; stroke-linejoin:round"
        d="M54.09 50.04C54.09 50.04 54.09 34.96 54.09 30.99C54.09 27.82 49.34 22.14 47.95 22.33C45.5 22.59 50.55 28.43 48.75 28.43C46.98 28.43 43.41 18.87 39.89 18.87C36.35 18.87 41.68 26.45 39.91 26.45C38.14 26.45 33.04 18.87 29.53 18.87C26.46 18.87 32.81 27.53 31.07 27.53C30.09 27.53 25.75 25.67 22.2 19.91C19.72 15.84 16.27 8.48 12.36 8.48C8.59 8.48 13.45 17 15.82 21.38C18.19 25.8 28 43.12 28 43.12C28 43.12 16.18 36.19 12.64 36.19C10.86 36.19 8.04 36.95 8.04 38.94C8.04 41.38 11.11 41.15 13.35 42.43C16.88 44.42 24.93 46.57 29.53 55.23"
  />
  <radialGradient id="gradient0" gradientUnits="userSpaceOnUse" cx="0" cy="0" r="64" gradientTransform="matrix(0.3537,0.6326,-0.4867,0.3464,21.1069,25.2405)">
   <stop offset="0" stop-color="#fff2d9"/>
   <stop offset="1" stop-color="#ffd499"/>
  </radialGradient>
  <path style="fill:url(#gradient0)"
        d="M15.82 21.38C18.19 25.8 28 43.12 28 43.12C28 43.12 16.18 36.19 12.64 36.19C10.86 36.19 8.04 36.95 8.04 38.94C8.04 41.38 11.11 41.15 13.35 42.43C16.88 44.42 24.93 46.57 29.53 55.23C29.53 55.23 38.74 56.97 43.35 55.23C49.93 52.72 54.09 50.04 54.09 50.04C54.09 50.04 54.09 34.96 54.09 30.99C54.09 27.82 49.34 22.14 47.95 22.33C45.5 22.59 50.55 28.43 48.75 28.43C46.98 28.43 43.41 18.87 39.89 18.87C36.35 18.87 41.68 26.45 39.91 26.45C38.14 26.45 33.04 18.87 29.53 18.87C26.46 18.87 32.81 27.53 31.07 27.53C30.09 27.53 25.75 25.67 22.2 19.91C19.72 15.84 16.27 8.48 12.36 8.48C8.59 8.48 13.45 17 15.82 21.38V21.38V21.38z"
  />
  <path style="fill:none; stroke:#000000; stroke-opacity:0.4; stroke-width:4.9112; stroke-linecap:round; stroke-linejoin:round"
        d="M56.54 19.71C53.27 16.43 50 13.16 46.72 9.89C42.22 14.39 37.72 18.89 33.21 23.39C28.71 18.89 24.21 14.39 19.71 9.89C16.43 13.16 13.16 16.43 9.89 19.71C14.39 24.21 18.89 28.71 23.39 33.21C18.89 37.72 14.39 42.22 9.89 46.72C13.16 50 16.43 53.27 19.71 56.54C24.21 52.04 28.71 47.54 33.21 43.04C37.72 47.54 42.22 52.04 46.72 56.54C50 53.27 53.27 50 56.54 46.72C52.04 42.22 47.54 37.72 43.04 33.21C47.54 28.71 52.04 24.21 56.54 19.71V19.71V19.71z"
        transform="matrix(0.4986,0,0,0.4986,33.5396,33.5396)"
  />
  <path style="fill:none; stroke:#800000; stroke-width:10; stroke-linecap:round; stroke-linejoin:round"
        d="M54.09 17.25C50.81 13.98 47.54 10.71 44.27 7.43C39.76 11.93 35.26 16.43 30.76 20.94C26.26 16.43 21.75 11.93 17.25 7.43C13.98 10.71 10.71 13.98 7.43 17.25C11.93 21.75 16.43 26.26 20.94 30.76C16.43 35.26 11.93 39.76 7.43 44.27C10.71 47.54 13.98 50.81 17.25 54.09C21.75 49.59 26.26 45.09 30.76 40.59C35.26 45.09 39.76 49.59 44.27 54.09C47.54 50.81 50.81 47.54 54.09 44.27C49.59 39.76 45.09 35.26 40.59 30.76C45.09 26.26 49.59 21.75 54.09 17.25V17.25V17.25z"
        transform="matrix(0.4986,0,0,0.4986,33.5396,33.5396)"
  />
  <linearGradient id="gradient1" gradientUnits="userSpaceOnUse" x1="162.14" y1="12.34" x2="162.14" y2="54.09">
   <stop offset="0" stop-color="#ffabab"/>
   <stop offset="1" stop-color="#d90000"/>
  </linearGradient>
  <path style="fill:url(#gradient1)"
        d="M54.09 17.25C50.81 13.98 47.54 10.71 44.27 7.43C39.76 11.93 35.26 16.43 30.76 20.94C26.26 16.43 21.75 11.93 17.25 7.43C13.98 10.71 10.71 13.98 7.43 17.25C11.93 21.75 16.43 26.26 20.94 30.76C16.43 35.26 11.93 39.76 7.43 44.27C10.71 47.54 13.98 50.81 17.25 54.09C21.75 49.59 26.26 45.09 30.76 40.59C35.26 45.09 39.76 49.59 44.27 54.09C47.54 50.81 50.81 47.54 54.09 44.27C49.59 39.76 45.09 35.26 40.59 30.76C45.09 26.26 49.59 21.75 54.09 17.25V17.25V17.25z"
        transform="matrix(0.4986,0,0,0.4986,33.5396,33.5396)"
  />
 </g>
</svg>
