<?xml version="1.0" encoding="UTF-8" standalone="yes"?>
<svg version="1.1" width="64" height="64" color-interpolation="linearRGB"
     xmlns:svg="http://www.w3.org/2000/svg" xmlns="http://www.w3.org/2000/svg">
 <g>
  <path style="fill:none; stroke:#000000; stroke-opacity:0.4; stroke-width:5.636; stroke-linecap:round; stroke-linejoin:round"
        d="M6.63 6.63V12.27L29.18 37.63L31.98 60.16H34.81L37.63 37.63L60.16 12.27V6.63H6.63z"
        transform="matrix(0.873,0,0,0.873,4.1259,4.1259)"
  />
  <path style="fill:none; stroke:#800000; stroke-width:5.636; stroke-linejoin:round"
        d="M3.8 3.8V9.44L26.36 34.81L29.18 57.36H31.98L34.81 34.81L57.36 9.44V3.8H3.8z"
        transform="matrix(0.873,0,0,0.873,4.1259,4.1259)"
  />
  <linearGradient id="gradient0" gradientUnits="userSpaceOnUse" x1="181.35" y1="3.79" x2="181.35" y2="57.36">
   <stop offset="0" stop-color="#ffabab"/>
   <stop offset="1" stop-color="#d90000"/>
  </linearGradient>
  <path style="fill:url(#gradient0)"
        d="M3.8 3.8V9.44L26.36 34.81L29.18 57.36H31.98L34.81 34.81L57.36 9.44V3.8H3.8z"
        transform="matrix(0.873,0,0,0.873,4.1259,4.1259)"
  />
  <path style="fill:#ffffff; fill-opacity:0.6862"
        d="M52.35 34.9H45.08V45.08H34.9V52.35H45.08V62.53H52.35V52.35H62.53V45.08H52.35V34.9z"
        transform="matrix(0.873,0,0,0.873,4.1259,4.1259)"
  />
  <path style="fill:none; stroke:#000000; stroke-opacity:0.4; stroke-width:2.9081; stroke-linecap:round; stroke-linejoin:round"
        d="M52.35 34.9H45.08V45.08H34.9V52.35H45.08V62.53H52.35V52.35H62.53V45.08H52.35V34.9z"
        transform="matrix(0.873,0,0,0.873,4.1259,4.1259)"
  />
  <path style="fill:none; stroke:#005900; stroke-width:2.9081; stroke-linecap:round; stroke-linejoin:round"
        d="M50.9 33.44H43.63V43.63H33.44V50.9H43.63V61.08H50.9V50.9H61.08V43.63H50.9V33.44z"
        transform="matrix(0.873,0,0,0.873,4.1259,4.1259)"
  />
  <linearGradient id="gradient1" gradientUnits="userSpaceOnUse" x1="125.06" y1="33.44" x2="125.06" y2="61.08">
   <stop offset="0" stop-color="#80ff80"/>
   <stop offset="1" stop-color="#00b300"/>
  </linearGradient>
  <path style="fill:url(#gradient1)"
        d="M50.9 33.44H43.63V43.63H33.44V50.9H43.63V61.08H50.9V50.9H61.08V43.63H50.9V33.44z"
        transform="matrix(0.873,0,0,0.873,4.1259,4.1259)"
  />
 </g>
</svg>
