<?xml version="1.0" encoding="UTF-8" standalone="yes"?>
<svg version="1.1" width="64" height="64" color-interpolation="linearRGB"
     xmlns:svg="http://www.w3.org/2000/svg" xmlns="http://www.w3.org/2000/svg">
 <g>
  <path style="fill:none; stroke:#003f80; stroke-width:2.6375; stroke-linecap:round; stroke-linejoin:round"
        d="M14 19.84H8.85
           M6.27 11.74L11.42 6.34V19.84"
  />
  <path style="fill:none; stroke:#003f80; stroke-width:2.6375; stroke-linecap:round; stroke-linejoin:round"
        d="M14 38.73H6.27C6.27 34.69 14 31.99 14 29.29C14 26.59 12.71 25.24 10.13 25.24C7.56 25.24 6.27 26.59 6.27 29.29"
  />
  <path style="fill:none; stroke:#000000; stroke-opacity:0.4; stroke-width:10.5503; stroke-linecap:round; stroke-linejoin:round"
        d="M25.58 15.79H53.9"
  />
  <path style="fill:none; stroke:#545454; stroke-width:10.5503; stroke-linecap:round; stroke-linejoin:round"
        d="M23.01 13.09H51.33"
  />
  <linearGradient id="gradient0" gradientUnits="userSpaceOnUse" x1="167.18" y1="10.39" x2="167.18" y2="15.79">
   <stop offset="0" stop-color="#ffffff"/>
   <stop offset="1" stop-color="#e5e5e5"/>
  </linearGradient>
  <path style="fill:none; stroke:url(#gradient0); stroke-width:5.2751; stroke-linecap:round; stroke-linejoin:round"
        d="M23.01 13.09H51.33"
  />
  <path style="fill:none; stroke:#000000; stroke-opacity:0.4; stroke-width:10.5503; stroke-linecap:round; stroke-linejoin:round"
        d="M25.58 34.69H53.9"
  />
  <path style="fill:none; stroke:#545454; stroke-width:10.5503; stroke-linecap:round; stroke-linejoin:round"
        d="M23.01 31.99H51.33"
  />
  <linearGradient id="gradient1" gradientUnits="userSpaceOnUse" x1="167.18" y1="29.29" x2="167.18" y2="34.69">
   <stop offset="0" stop-color="#ffffff"/>
   <stop offset="1" stop-color="#e5e5e5"/>
  </linearGradient>
  <path style="fill:none; stroke:url(#gradient1); stroke-width:5.2751; stroke-linecap:round; stroke-linejoin:round"
        d="M23.01 31.99H51.33"
  />
  <path style="fill:none; stroke:#000000; stroke-opacity:0.4; stroke-width:10.5503; stroke-linecap:round; stroke-linejoin:round"
        d="M25.58 53.58H53.9"
  />
  <path style="fill:none; stroke:#545454; stroke-width:10.5503; stroke-linecap:round; stroke-linejoin:round"
        d="M23.01 50.88H51.33"
  />
  <linearGradient id="gradient2" gradientUnits="userSpaceOnUse" x1="167.18" y1="48.18" x2="167.18" y2="53.58">
   <stop offset="0" stop-color="#ffffff"/>
   <stop offset="1" stop-color="#e5e5e5"/>
  </linearGradient>
  <path style="fill:none; stroke:url(#gradient2); stroke-width:5.2751; stroke-linecap:round; stroke-linejoin:round"
        d="M23.01 50.88H51.33"
  />
 </g>
</svg>
