<?xml version="1.0" encoding="UTF-8" standalone="yes"?>
<svg version="1.1" width="64" height="64" color-interpolation="linearRGB"
     xmlns:svg="http://www.w3.org/2000/svg" xmlns="http://www.w3.org/2000/svg">
 <g>
  <path style="fill:none; stroke:#000000; stroke-width:3; stroke-linejoin:round"
        d="M2 38V58H22V38H2z"
        transform="matrix(2.2913,0,0,2.2913,-0.037,-73.4423)"
  />
  <linearGradient id="gradient0" gradientUnits="userSpaceOnUse" x1="32.95" y1="22.29" x2="47.52" y2="46.09">
   <stop offset="0" stop-color="#5c64f5"/>
   <stop offset="1" stop-color="#2905c3"/>
  </linearGradient>
  <path style="fill:url(#gradient0)"
        d="M2 38V58H22V38H2z"
        transform="matrix(2.2913,0,0,2.2913,-0.037,-73.4423)"
  />
  <path style="fill:#f1f1f1"
        d="M4 38V46C4 47 6 48 6 48C5 48 19 48 19 48V38H4z"
        transform="matrix(2.2913,0,0,2.2913,-0.037,-73.4423)"
  />
  <path style="fill:none; stroke:#000000; stroke-width:3; stroke-linejoin:round"
        d="M14 36V46H24L21 43L26 38L22 34L17 39L14 36z"
        transform="matrix(-2.2913,0,-0,-2.2913,91.6158,109.8634)"
  />
  <linearGradient id="gradient1" gradientUnits="userSpaceOnUse" x1="34.2" y1="14.38" x2="45.54" y2="25.65">
   <stop offset="0" stop-color="#adff89"/>
   <stop offset="1" stop-color="#21ce21"/>
  </linearGradient>
  <path style="fill:url(#gradient1)"
        d="M14 36V46H24L21 43L26 38L22 34L17 39L14 36z"
        transform="matrix(-2.2913,0,-0,-2.2913,91.6158,109.8634)"
  />
  <linearGradient id="gradient2" gradientUnits="userSpaceOnUse" x1="35.2" y1="27.64" x2="45.41" y2="41.2">
   <stop offset="0" stop-color="#9c9c9c"/>
   <stop offset="1" stop-color="#cccccc"/>
  </linearGradient>
  <path style="fill:url(#gradient2)"
        d="M4 58V52L5 50H17L18 52V58H11.98L12 53H8L7.98 58H4z"
        transform="matrix(2.2913,0,0,2.2913,-0.037,-73.4423)"
  />
 </g>
</svg>
