<?xml version="1.0" encoding="UTF-8" standalone="yes"?>
<svg version="1.1" width="64" height="64" color-interpolation="linearRGB"
     xmlns:svg="http://www.w3.org/2000/svg" xmlns="http://www.w3.org/2000/svg">
 <g>
  <path style="fill:none; stroke:#000000; stroke-opacity:0.4; stroke-width:4.9083; stroke-linecap:round; stroke-linejoin:round"
        d="M56.53 56.53V9.9H9.9V56.53H56.53z"
        transform="matrix(0.8178,0,0,0.8023,11.7431,1.0318)"
  />
  <path style="fill:none; stroke:#000000; stroke-width:6; stroke-linecap:round; stroke-linejoin:round"
        d="M54.08 54.08V7.44H7.44V54.08H54.08z"
        transform="matrix(0.8178,0,0,0.8023,11.7431,1.0318)"
  />
  <linearGradient id="gradient0" gradientUnits="userSpaceOnUse" x1="162.06" y1="7.43" x2="162.06" y2="54.08">
   <stop offset="0" stop-color="#808080"/>
   <stop offset="1" stop-color="#282828"/>
  </linearGradient>
  <path style="fill:url(#gradient0)"
        d="M54.08 54.08V7.44H7.44V54.08H54.08z"
        transform="matrix(0.8178,0,0,0.8023,11.7431,1.0318)"
  />
  <path style="fill:none; stroke:#000000; stroke-opacity:0.4; stroke-width:5; stroke-linecap:round; stroke-linejoin:round"
        d="M56.53 56.53V9.9H9.9V56.53H56.53z"
        transform="matrix(0.8178,0,0,0.8023,6.3569,6.316)"
  />
  <path style="fill:none; stroke:#000000; stroke-width:6; stroke-linecap:round; stroke-linejoin:round"
        d="M54.08 54.08V7.44H7.44V54.08H54.08z"
        transform="matrix(0.8178,0,0,0.8023,6.3569,6.316)"
  />
  <linearGradient id="gradient1" gradientUnits="userSpaceOnUse" x1="162.06" y1="7.43" x2="162.06" y2="54.08">
   <stop offset="0" stop-color="#808080"/>
   <stop offset="1" stop-color="#282828"/>
  </linearGradient>
  <path style="fill:url(#gradient1)"
        d="M54.08 54.08V7.44H7.44V54.08H54.08z"
        transform="matrix(0.8178,0,0,0.8023,6.3569,6.316)"
  />
  <path style="fill:none; stroke:#000000; stroke-opacity:0.4; stroke-width:4.9083; stroke-linecap:round; stroke-linejoin:round"
        d="M56.53 56.53V9.9H9.9V56.53H56.53z"
        transform="matrix(0.8178,0,0,0.8023,0.9707,12.657)"
  />
  <path style="fill:none; stroke:#000000; stroke-width:6; stroke-linecap:round; stroke-linejoin:round"
        d="M54.08 54.08V7.44H7.44V54.08H54.08z"
        transform="matrix(0.8178,0,0,0.8023,0.9707,12.657)"
  />
  <linearGradient id="gradient2" gradientUnits="userSpaceOnUse" x1="162.06" y1="7.43" x2="162.06" y2="54.08">
   <stop offset="0" stop-color="#808080"/>
   <stop offset="1" stop-color="#282828"/>
  </linearGradient>
  <path style="fill:url(#gradient2)"
        d="M54.08 54.08V7.44H7.44V54.08H54.08z"
        transform="matrix(0.8178,0,0,0.8023,0.9707,12.657)"
  />
 </g>
</svg>
