<?xml version="1.0" encoding="UTF-8" standalone="yes"?>
<svg version="1.1" width="64" height="64" color-interpolation="linearRGB"
     xmlns:svg="http://www.w3.org/2000/svg" xmlns="http://www.w3.org/2000/svg">
 <g>
  <path style="fill:none; stroke:#000000; stroke-opacity:0.4; stroke-width:4.9548; stroke-linecap:round; stroke-linejoin:round"
        d="M55.47 33.2L13 9.88V56.52L55.47 33.2z"
        transform="matrix(0.8397,0,0,0.7965,11.2852,-0.992)"
  />
  <path style="fill:none; stroke:#005900; stroke-width:4.9548; stroke-linecap:round; stroke-linejoin:round"
        d="M52.99 30.75L10.5 7.42V54.06L52.99 30.75z"
        transform="matrix(0.8397,0,0,0.7965,11.2852,-0.992)"
  />
  <linearGradient id="gradient0" gradientUnits="userSpaceOnUse" x1="165.44" y1="7.42" x2="165.44" y2="54.06">
   <stop offset="0" stop-color="#80ff80"/>
   <stop offset="1" stop-color="#00b200"/>
  </linearGradient>
  <path style="fill:url(#gradient0)"
        d="M52.99 30.75L10.5 7.42V54.06L52.99 30.75z"
        transform="matrix(0.8397,0,0,0.7965,11.2852,-0.992)"
  />
  <path style="fill:none; stroke:#000000; stroke-opacity:0.4; stroke-width:4.9548; stroke-linecap:round; stroke-linejoin:round"
        d="M55.47 33.2L13 9.88V56.52L55.47 33.2z"
        transform="matrix(0.8397,0,0,0.8335,7.2852,4.8246)"
  />
  <path style="fill:none; stroke:#005900; stroke-width:4.9548; stroke-linecap:round; stroke-linejoin:round"
        d="M52.99 30.75L10.5 7.42V54.06L52.99 30.75z"
        transform="matrix(0.8397,0,0,0.8335,7.2852,4.8246)"
  />
  <linearGradient id="gradient1" gradientUnits="userSpaceOnUse" x1="165.44" y1="7.42" x2="165.44" y2="54.06">
   <stop offset="0" stop-color="#80ff80"/>
   <stop offset="1" stop-color="#00b200"/>
  </linearGradient>
  <path style="fill:url(#gradient1)"
        d="M52.99 30.75L10.5 7.42V54.06L52.99 30.75z"
        transform="matrix(0.8397,0,0,0.8335,7.2852,4.8246)"
  />
  <path style="fill:none; stroke:#000000; stroke-opacity:0.4; stroke-width:4.9548; stroke-linecap:round; stroke-linejoin:round"
        d="M55.47 33.2L13 9.88V56.52L55.47 33.2z"
        transform="matrix(0.8397,0,0,0.8335,3.2852,12.8246)"
  />
  <path style="fill:none; stroke:#005900; stroke-width:4.9548; stroke-linecap:round; stroke-linejoin:round"
        d="M52.99 30.75L10.5 7.42V54.06L52.99 30.75z"
        transform="matrix(0.8397,0,0,0.8335,3.2852,12.8246)"
  />
  <linearGradient id="gradient2" gradientUnits="userSpaceOnUse" x1="165.44" y1="7.42" x2="165.44" y2="54.06">
   <stop offset="0" stop-color="#80ff80"/>
   <stop offset="1" stop-color="#00b200"/>
  </linearGradient>
  <path style="fill:url(#gradient2)"
        d="M52.99 30.75L10.5 7.42V54.06L52.99 30.75z"
        transform="matrix(0.8397,0,0,0.8335,3.2852,12.8246)"
  />
 </g>
</svg>
