<?xml version="1.0" encoding="UTF-8" standalone="yes"?>
<svg version="1.1" width="64" height="64" color-interpolation="linearRGB"
     xmlns:svg="http://www.w3.org/2000/svg" xmlns="http://www.w3.org/2000/svg">
 <g>
  <path style="fill:none; stroke:#000000; stroke-opacity:0.4; stroke-width:9.8187; stroke-linecap:round; stroke-linejoin:round"
        d="M29.54 12.35C20.04 12.35 12.35 20.04 12.35 29.54C12.35 39.03 20.04 46.72 29.54 46.72C39.03 46.72 46.72 39.03 46.72 29.54C46.72 20.04 39.03 12.35 29.54 12.35V12.35V12.35z
           M54.09 54.09C52.04 52.04 49.99 49.99 47.95 47.95"
  />
  <path style="fill:none; stroke:#545454; stroke-width:9.8187; stroke-linecap:round; stroke-linejoin:round"
        d="M27.08 9.9C17.58 9.9 9.9 17.58 9.9 27.08C9.9 36.57 17.58 44.26 27.08 44.26C36.57 44.26 44.26 36.57 44.26 27.08C44.26 17.58 36.57 9.9 27.08 9.9V9.9V9.9z
           M51.63 51.63C49.58 49.58 47.54 47.54 45.49 45.49"
  />
  <linearGradient id="gradient0" gradientUnits="userSpaceOnUse" x1="162.1" y1="7.43" x2="162.1" y2="54.09">
   <stop offset="0" stop-color="#ffffff"/>
   <stop offset="1" stop-color="#e5e5e5"/>
  </linearGradient>
  <path style="fill:none; stroke:url(#gradient0); stroke-width:4.9093; stroke-linecap:round"
        d="M27.08 9.9C17.58 9.9 9.9 17.58 9.9 27.08C9.9 36.57 17.58 44.26 27.08 44.26C36.57 44.26 44.26 36.57 44.26 27.08C44.26 17.58 36.57 9.9 27.08 9.9V9.9V9.9z
           M51.63 51.63C49.58 49.58 47.54 47.54 45.49 45.49"
  />
  <path style="fill:none; stroke:#215ace; stroke-width:4.9093"
        d="M27.08 14.81C20.3 14.81 14.81 20.3 14.81 27.08C14.81 33.86 20.3 39.36 27.08 39.36C33.86 39.36 39.36 33.86 39.36 27.08C39.36 20.3 33.86 14.81 27.08 14.81V14.81V14.81z"
  />
  <radialGradient id="gradient1" gradientUnits="userSpaceOnUse" cx="0" cy="0" r="64" gradientTransform="matrix(0,0.1916,-0.1916,0,23.4103,23.4103)">
   <stop offset="0" stop-color="#ffffff"/>
   <stop offset="1" stop-color="#bdeafa"/>
  </radialGradient>
  <path style="fill:url(#gradient1)"
        d="M27.08 14.81C20.3 14.81 14.81 20.3 14.81 27.08C14.81 33.86 20.3 39.36 27.08 39.36C33.86 39.36 39.36 33.86 39.36 27.08C39.36 20.3 33.86 14.81 27.08 14.81V14.81V14.81z"
  />
  <path style="fill:#215ace"
        d="M24.62 29.54C22.99 29.54 21.36 29.54 19.72 29.54C19.72 27.9 19.72 26.26 19.72 24.62C21.36 24.62 22.99 24.62 24.62 24.62C24.62 22.99 24.62 21.36 24.62 19.72C26.26 19.72 27.9 19.72 29.54 19.72C29.54 21.36 29.54 22.99 29.54 24.62C31.17 24.62 32.81 24.62 34.45 24.62C34.45 26.26 34.45 27.9 34.45 29.54C32.81 29.54 31.17 29.54 29.54 29.54C29.54 31.17 29.54 32.81 29.54 34.45C27.9 34.45 26.26 34.45 24.62 34.45C24.62 32.81 24.62 31.17 24.62 29.54V29.54V29.54z"
        transform="matrix(0.451,0.48,-0.4333,0.5055,31.6098,-0.1108)"
  />
  <path style="fill:#215ace"
        d="M19.85 26.39C19.17 26.39 18.49 26.39 17.81 26.39C17.81 25.49 17.81 24.58 17.81 23.68C17.81 23.68 19.85 23.68 19.85 18.26C20.83 18.17 21.8 18.07 22.78 17.98C22.78 22.59 22.78 27.21 22.78 31.83C23.58 31.83 24.39 31.83 25.19 31.83C25.19 32.54 25.19 33.25 25.19 33.96C22.78 33.96 20.37 33.96 17.96 33.96C17.91 33.24 17.86 32.53 17.81 31.82C18.49 31.82 19.17 31.82 19.85 31.82C19.85 30.01 19.85 28.2 19.85 26.39V26.39V26.39z"
        transform="matrix(1,0,0,1,2,0)"
  />
 </g>
</svg>
