<?xml version="1.0" encoding="UTF-8" standalone="yes"?>
<svg version="1.1" width="64" height="64" color-interpolation="linearRGB"
     xmlns:svg="http://www.w3.org/2000/svg" xmlns="http://www.w3.org/2000/svg">
 <g>
  <path style="fill:none; stroke:#000000; stroke-opacity:0.4; stroke-width:4.2345; stroke-linecap:round; stroke-linejoin:round"
        d="M8.4 7.83C19.93 7.83 31.45 7.83 42.98 7.83C42.98 20.05 42.98 32.27 42.98 44.49C31.45 44.49 19.93 44.49 8.4 44.49C8.4 32.27 8.4 20.05 8.4 7.83V7.83V7.83V7.83V7.83z"
  />
  <path style="fill:none; stroke:#930303; stroke-width:5.1753; stroke-linecap:round; stroke-linejoin:round"
        d="M6.09 5.9C17.63 5.9 29.15 5.9 40.68 5.9C40.68 18.12 40.68 30.34 40.68 42.56C29.15 42.56 17.63 42.56 6.09 42.56C6.09 30.34 6.09 18.12 6.09 5.9V5.9V5.9V5.9V5.9z"
  />
  <linearGradient id="gradient0" gradientUnits="userSpaceOnUse" x1="78.99" y1="14.85" x2="79.17" y2="54.14">
   <stop offset="0" stop-color="#ffb3b3"/>
   <stop offset="1" stop-color="#ff0606"/>
  </linearGradient>
  <path style="fill:url(#gradient0)"
        d="M6.09 5.9C17.63 5.9 29.15 5.9 40.68 5.9C40.68 18.12 40.68 30.34 40.68 42.56C29.15 42.56 17.63 42.56 6.09 42.56C6.09 30.34 6.09 18.12 6.09 5.9V5.9V5.9V5.9V5.9z"
  />
  <path style="fill:none; stroke:#000000; stroke-opacity:0.4; stroke-width:4.2345; stroke-linecap:round; stroke-linejoin:round"
        d="M15.74 14.16C27.27 14.16 38.79 14.16 50.32 14.16C50.32 26.37 50.32 38.6 50.32 50.81C38.79 50.81 27.27 50.81 15.74 50.81C15.74 38.6 15.74 26.37 15.74 14.16V14.16V14.16V14.16V14.16z"
  />
  <path style="fill:none; stroke:#005900; stroke-width:5.1753; stroke-linecap:round; stroke-linejoin:round"
        d="M13.44 12.22C24.97 12.22 36.49 12.22 48.02 12.22C48.02 24.45 48.02 36.66 48.02 48.89C36.49 48.89 24.97 48.89 13.44 48.89C13.44 36.66 13.44 24.45 13.44 12.22V12.22V12.22V12.22V12.22z"
  />
  <linearGradient id="gradient1" gradientUnits="userSpaceOnUse" x1="149.45" y1="18.03" x2="149.45" y2="39.24">
   <stop offset="0" stop-color="#80ff80"/>
   <stop offset="1" stop-color="#00b200"/>
  </linearGradient>
  <path style="fill:url(#gradient1)"
        d="M13.44 12.22C24.97 12.22 36.49 12.22 48.02 12.22C48.02 24.45 48.02 36.66 48.02 48.89C36.49 48.89 24.97 48.89 13.44 48.89C13.44 36.66 13.44 24.45 13.44 12.22V12.22V12.22V12.22V12.22z"
  />
  <path style="fill:none; stroke:#000000; stroke-opacity:0.4; stroke-width:4.2345; stroke-linecap:round; stroke-linejoin:round"
        d="M23.09 21.38C34.62 21.38 46.14 21.38 57.67 21.38C57.67 33.6 57.67 45.82 57.67 58.04C46.14 58.04 34.62 58.04 23.09 58.04C23.09 45.82 23.09 33.6 23.09 21.38V21.38V21.38V21.38V21.38z"
  />
  <path style="fill:none; stroke:#000080; stroke-width:5.1753; stroke-linecap:round; stroke-linejoin:round"
        d="M20.79 19.45C32.32 19.45 43.84 19.45 55.37 19.45C55.37 31.67 55.37 43.89 55.37 56.11C43.84 56.11 32.32 56.11 20.79 56.11C20.79 43.89 20.79 31.67 20.79 19.45V19.45V19.45V19.45V19.45z"
  />
  <linearGradient id="gradient2" gradientUnits="userSpaceOnUse" x1="156.8" y1="19.45" x2="156.8" y2="56.11">
   <stop offset="0" stop-color="#ffffff"/>
   <stop offset="1" stop-color="#d9d9ff"/>
  </linearGradient>
  <path style="fill:url(#gradient2)"
        d="M20.79 19.45C32.32 19.45 43.84 19.45 55.37 19.45C55.37 31.67 55.37 43.89 55.37 56.11C43.84 56.11 32.32 56.11 20.79 56.11C20.79 43.89 20.79 31.67 20.79 19.45V19.45V19.45V19.45V19.45z"
  />
  <path style="fill:none; stroke:#000000; stroke-opacity:0.4; stroke-width:4.9475; stroke-linecap:round; stroke-linejoin:round"
        d="M32.77 56.55C24.87 48.38 16.96 40.21 9.05 32.04C13.22 32.04 17.38 32.04 21.54 32.04C21.54 24.69 21.54 17.33 21.54 9.97C29.03 9.97 36.52 9.97 44.01 9.97C44.01 17.33 44.01 24.69 44.01 32.04C48.17 32.04 52.33 32.04 56.5 32.04C48.59 40.21 40.68 48.38 32.77 56.55V56.55V56.55z"
        transform="matrix(-0.5386,0.0015,-0.0016,-0.587,57.3945,58.9612)"
  />
  <path style="fill:none; stroke:#bf5000; stroke-width:8; stroke-linecap:round; stroke-linejoin:round"
        d="M30.27 54.1C22.37 45.93 14.46 37.76 6.56 29.59C10.72 29.59 14.88 29.59 19.04 29.59C19.04 22.23 19.04 14.88 19.04 7.52C26.53 7.52 34.02 7.52 41.51 7.52C41.51 14.88 41.51 22.23 41.51 29.59C45.67 29.59 49.84 29.59 54 29.59C46.09 37.76 38.18 45.93 30.27 54.1V54.1V54.1z"
        transform="matrix(-0.5386,0.0015,-0.0016,-0.587,54.3945,55.9612)"
  />
  <linearGradient id="gradient3" gradientUnits="userSpaceOnUse" x1="86.45" y1="55.16" x2="86.75" y2="8.58">
   <stop offset="0" stop-color="#fbdd73"/>
   <stop offset="1" stop-color="#d58e03"/>
  </linearGradient>
  <path style="fill:url(#gradient3)"
        d="M30.27 54.1C22.37 45.93 14.46 37.76 6.56 29.59C10.72 29.59 14.88 29.59 19.04 29.59C19.04 22.23 19.04 14.88 19.04 7.52C26.53 7.52 34.02 7.52 41.51 7.52C41.51 14.88 41.51 22.23 41.51 29.59C45.67 29.59 49.84 29.59 54 29.59C46.09 37.76 38.18 45.93 30.27 54.1V54.1V54.1z"
        transform="matrix(-0.5386,0.0015,-0.0016,-0.587,54.3945,55.9612)"
  />
 </g>
</svg>
