<?xml version="1.0" encoding="UTF-8" standalone="yes"?>
<svg version="1.1" width="64" height="64" color-interpolation="linearRGB"
     xmlns:svg="http://www.w3.org/2000/svg" xmlns="http://www.w3.org/2000/svg">
 <g>
  <path style="fill:none; stroke:#000000; stroke-opacity:0.4; stroke-width:4.2345; stroke-linecap:round; stroke-linejoin:round"
        d="M8.4 7.83C19.93 7.83 31.45 7.83 42.98 7.83C42.98 20.05 42.98 32.27 42.98 44.49C31.45 44.49 19.93 44.49 8.4 44.49C8.4 32.27 8.4 20.05 8.4 7.83V7.83V7.83V7.83V7.83z"
  />
  <path style="fill:none; stroke:#930303; stroke-width:5.1753; stroke-linecap:round; stroke-linejoin:round"
        d="M6.09 5.9C17.63 5.9 29.15 5.9 40.68 5.9C40.68 18.12 40.68 30.34 40.68 42.56C29.15 42.56 17.63 42.56 6.09 42.56C6.09 30.34 6.09 18.12 6.09 5.9V5.9V5.9V5.9V5.9z"
  />
  <linearGradient id="gradient0" gradientUnits="userSpaceOnUse" x1="78.99" y1="14.85" x2="79.17" y2="54.14">
   <stop offset="0" stop-color="#ffb3b3"/>
   <stop offset="1" stop-color="#ff0606"/>
  </linearGradient>
  <path style="fill:url(#gradient0)"
        d="M6.09 5.9C17.63 5.9 29.15 5.9 40.68 5.9C40.68 18.12 40.68 30.34 40.68 42.56C29.15 42.56 17.63 42.56 6.09 42.56C6.09 30.34 6.09 18.12 6.09 5.9V5.9V5.9V5.9V5.9z"
  />
  <path style="fill:none; stroke:#000000; stroke-opacity:0.4; stroke-width:4.2345; stroke-linecap:round; stroke-linejoin:round"
        d="M15.74 14.16C27.27 14.16 38.79 14.16 50.32 14.16C50.32 26.37 50.32 38.6 50.32 50.81C38.79 50.81 27.27 50.81 15.74 50.81C15.74 38.6 15.74 26.37 15.74 14.16V14.16V14.16V14.16V14.16z"
  />
  <path style="fill:none; stroke:#005900; stroke-width:5.1753; stroke-linecap:round; stroke-linejoin:round"
        d="M13.44 12.22C24.97 12.22 36.49 12.22 48.02 12.22C48.02 24.45 48.02 36.66 48.02 48.89C36.49 48.89 24.97 48.89 13.44 48.89C13.44 36.66 13.44 24.45 13.44 12.22V12.22V12.22V12.22V12.22z"
  />
  <linearGradient id="gradient1" gradientUnits="userSpaceOnUse" x1="149.45" y1="18.03" x2="149.45" y2="39.24">
   <stop offset="0" stop-color="#80ff80"/>
   <stop offset="1" stop-color="#00b200"/>
  </linearGradient>
  <path style="fill:url(#gradient1)"
        d="M13.44 12.22C24.97 12.22 36.49 12.22 48.02 12.22C48.02 24.45 48.02 36.66 48.02 48.89C36.49 48.89 24.97 48.89 13.44 48.89C13.44 36.66 13.44 24.45 13.44 12.22V12.22V12.22V12.22V12.22z"
  />
  <path style="fill:none; stroke:#000000; stroke-opacity:0.4; stroke-width:4.2345; stroke-linecap:round; stroke-linejoin:round"
        d="M23.09 21.38C34.62 21.38 46.14 21.38 57.67 21.38C57.67 33.6 57.67 45.82 57.67 58.04C46.14 58.04 34.62 58.04 23.09 58.04C23.09 45.82 23.09 33.6 23.09 21.38V21.38V21.38V21.38V21.38z"
  />
  <path style="fill:none; stroke:#000080; stroke-width:5.1753; stroke-linecap:round; stroke-linejoin:round"
        d="M20.79 19.45C32.32 19.45 43.84 19.45 55.37 19.45C55.37 31.67 55.37 43.89 55.37 56.11C43.84 56.11 32.32 56.11 20.79 56.11C20.79 43.89 20.79 31.67 20.79 19.45V19.45V19.45V19.45V19.45z"
  />
  <linearGradient id="gradient2" gradientUnits="userSpaceOnUse" x1="156.8" y1="19.45" x2="156.8" y2="56.11">
   <stop offset="0" stop-color="#ffffff"/>
   <stop offset="1" stop-color="#d9d9ff"/>
  </linearGradient>
  <path style="fill:url(#gradient2)"
        d="M20.79 19.45C32.32 19.45 43.84 19.45 55.37 19.45C55.37 31.67 55.37 43.89 55.37 56.11C43.84 56.11 32.32 56.11 20.79 56.11C20.79 43.89 20.79 31.67 20.79 19.45V19.45V19.45V19.45V19.45z"
  />
  <path style="fill:none; stroke:#000000; stroke-opacity:0.4; stroke-width:4.9083; stroke-linecap:round; stroke-linejoin:round"
        d="M39.35 9.9C35.26 9.9 31.17 9.9 27.08 9.9C27.08 15.63 27.08 21.35 27.08 27.08C21.35 27.08 15.63 27.08 9.9 27.08C9.9 31.17 9.9 35.26 9.9 39.35C15.63 39.35 21.35 39.35 27.08 39.35C27.08 45.08 27.08 50.8 27.08 56.53C31.17 56.53 35.26 56.53 39.35 56.53C39.35 50.8 39.35 45.08 39.35 39.35C45.08 39.35 50.8 39.35 56.53 39.35C56.53 35.26 56.53 31.17 56.53 27.08C50.8 27.08 45.08 27.08 39.35 27.08C39.35 21.35 39.35 15.63 39.35 9.9V9.9V9.9z"
        transform="matrix(0.5369,0,0,0.5184,21.3118,22.4043)"
  />
  <path style="fill:none; stroke:#005900; stroke-width:9; stroke-linecap:round; stroke-linejoin:round"
        d="M36.9 7.44C32.81 7.44 28.72 7.44 24.62 7.44C24.62 13.17 24.62 18.9 24.62 24.62C18.9 24.62 13.17 24.62 7.44 24.62C7.44 28.72 7.44 32.81 7.44 36.9C13.17 36.9 18.9 36.9 24.62 36.9C24.62 42.62 24.62 48.35 24.62 54.08C28.72 54.08 32.81 54.08 36.9 54.08C36.9 48.35 36.9 42.62 36.9 36.9C42.62 36.9 48.35 36.9 54.08 36.9C54.08 32.81 54.08 28.72 54.08 24.62C48.35 24.62 42.62 24.62 36.9 24.62C36.9 18.9 36.9 13.17 36.9 7.44V7.44V7.44z"
        transform="matrix(0.5369,0,0,0.5184,21.3118,22.4043)"
  />
  <linearGradient id="gradient3" gradientUnits="userSpaceOnUse" x1="162.06" y1="7.43" x2="162.06" y2="54.08">
   <stop offset="0" stop-color="#80ff80"/>
   <stop offset="1" stop-color="#00b300"/>
  </linearGradient>
  <path style="fill:url(#gradient3)"
        d="M36.9 7.44C32.81 7.44 28.72 7.44 24.62 7.44C24.62 13.17 24.62 18.9 24.62 24.62C18.9 24.62 13.17 24.62 7.44 24.62C7.44 28.72 7.44 32.81 7.44 36.9C13.17 36.9 18.9 36.9 24.62 36.9C24.62 42.62 24.62 48.35 24.62 54.08C28.72 54.08 32.81 54.08 36.9 54.08C36.9 48.35 36.9 42.62 36.9 36.9C42.62 36.9 48.35 36.9 54.08 36.9C54.08 32.81 54.08 28.72 54.08 24.62C48.35 24.62 42.62 24.62 36.9 24.62C36.9 18.9 36.9 13.17 36.9 7.44V7.44V7.44z"
        transform="matrix(0.5369,0,0,0.5184,21.3118,22.4043)"
  />
 </g>
</svg>
