<?xml version="1.0" encoding="UTF-8" standalone="yes"?>
<svg version="1.1" width="64" height="64" color-interpolation="linearRGB"
     xmlns:svg="http://www.w3.org/2000/svg" xmlns="http://www.w3.org/2000/svg">
 <g>
  <path style="fill:none; stroke:#000000; stroke-opacity:0.4; stroke-width:4.2344; stroke-linecap:round; stroke-linejoin:round"
        d="M8.39 7.82C19.93 7.82 31.45 7.82 42.97 7.82C42.97 20.04 42.97 32.27 42.97 44.49C31.45 44.49 19.93 44.49 8.39 44.49C8.39 32.27 8.39 20.04 8.39 7.82V7.82V7.82V7.82V7.82V7.82V7.82z"
  />
  <path style="fill:none; stroke:#930303; stroke-width:5.1753; stroke-linecap:round; stroke-linejoin:round"
        d="M6.09 5.9C17.62 5.9 29.14 5.9 40.68 5.9C40.68 18.12 40.68 30.34 40.68 42.56C29.14 42.56 17.62 42.56 6.09 42.56C6.09 30.34 6.09 18.12 6.09 5.9V5.9V5.9V5.9V5.9V5.9V5.9z"
  />
  <linearGradient id="gradient0" gradientUnits="userSpaceOnUse" x1="78.99" y1="14.85" x2="79.17" y2="54.14">
   <stop offset="0" stop-color="#ffb3b3"/>
   <stop offset="1" stop-color="#ff0606"/>
  </linearGradient>
  <path style="fill:url(#gradient0)"
        d="M6.09 5.9C17.62 5.9 29.14 5.9 40.68 5.9C40.68 18.12 40.68 30.34 40.68 42.56C29.14 42.56 17.62 42.56 6.09 42.56C6.09 30.34 6.09 18.12 6.09 5.9V5.9V5.9V5.9V5.9V5.9V5.9z"
  />
  <path style="fill:none; stroke:#000000; stroke-opacity:0.4; stroke-width:4.2344; stroke-linecap:round; stroke-linejoin:round"
        d="M15.73 14.15C27.27 14.15 38.79 14.15 50.31 14.15C50.31 26.37 50.31 38.59 50.31 50.81C38.79 50.81 27.27 50.81 15.73 50.81C15.73 38.59 15.73 26.37 15.73 14.15V14.15V14.15V14.15V14.15V14.15V14.15z"
  />
  <path style="fill:none; stroke:#005900; stroke-width:5.1753; stroke-linecap:round; stroke-linejoin:round"
        d="M13.43 12.22C24.96 12.22 36.49 12.22 48.02 12.22C48.02 24.45 48.02 36.65 48.02 48.88C36.49 48.88 24.96 48.88 13.43 48.88C13.43 36.65 13.43 24.45 13.43 12.22V12.22V12.22V12.22V12.22V12.22V12.22z"
  />
  <linearGradient id="gradient1" gradientUnits="userSpaceOnUse" x1="149.44" y1="18.03" x2="149.44" y2="39.24">
   <stop offset="0" stop-color="#80ff80"/>
   <stop offset="1" stop-color="#00b200"/>
  </linearGradient>
  <path style="fill:url(#gradient1)"
        d="M13.43 12.22C24.96 12.22 36.49 12.22 48.02 12.22C48.02 24.45 48.02 36.65 48.02 48.88C36.49 48.88 24.96 48.88 13.43 48.88C13.43 36.65 13.43 24.45 13.43 12.22V12.22V12.22V12.22V12.22V12.22V12.22z"
  />
  <path style="fill:none; stroke:#000000; stroke-opacity:0.4; stroke-width:4.2344; stroke-linecap:round; stroke-linejoin:round"
        d="M23.09 21.37C34.61 21.37 46.13 21.37 57.66 21.37C57.66 33.59 57.66 45.81 57.66 58.04C46.13 58.04 34.61 58.04 23.09 58.04C23.09 45.81 23.09 33.59 23.09 21.37V21.37V21.37V21.37V21.37V21.37V21.37z"
  />
  <path style="fill:none; stroke:#000080; stroke-width:5.1753; stroke-linecap:round; stroke-linejoin:round"
        d="M20.79 19.45C32.31 19.45 43.84 19.45 55.36 19.45C55.36 31.67 55.36 43.88 55.36 56.11C43.84 56.11 32.31 56.11 20.79 56.11C20.79 43.88 20.79 31.67 20.79 19.45V19.45V19.45V19.45V19.45V19.45V19.45z"
  />
  <linearGradient id="gradient2" gradientUnits="userSpaceOnUse" x1="156.8" y1="19.44" x2="156.8" y2="56.11">
   <stop offset="0" stop-color="#ffffff"/>
   <stop offset="1" stop-color="#d9d9ff"/>
  </linearGradient>
  <path style="fill:url(#gradient2)"
        d="M20.79 19.45C32.31 19.45 43.84 19.45 55.36 19.45C55.36 31.67 55.36 43.88 55.36 56.11C43.84 56.11 32.31 56.11 20.79 56.11C20.79 43.88 20.79 31.67 20.79 19.45V19.45V19.45V19.45V19.45V19.45V19.45z"
  />
  <path style="fill:none; stroke:#bf5000; stroke-width:4; stroke-linecap:round; stroke-linejoin:round"
        d="M24 50V53H52V50H24z"
  />
  <linearGradient id="gradient3" gradientUnits="userSpaceOnUse" x1="109.45" y1="23.75" x2="109.45" y2="51.09">
   <stop offset="0" stop-color="#fbdd73"/>
   <stop offset="1" stop-color="#d58e03"/>
  </linearGradient>
  <path style="fill:url(#gradient3)"
        d="M24 50V53H52V50H24z"
  />
  <path style="fill:none; stroke:#000000; stroke-opacity:0.4; stroke-width:2.7847; stroke-linecap:round; stroke-linejoin:round"
        d="M38.83 52.53C34.58 47.74 30.32 42.94 26.06 38.14C28.3 38.14 30.54 38.14 32.78 38.14C32.78 33.83 32.78 29.51 32.78 25.19C36.82 25.19 40.85 25.19 44.89 25.19C44.89 29.51 44.89 33.83 44.89 38.14C47.13 38.14 49.37 38.14 51.62 38.14C47.36 42.94 43.1 47.74 38.83 52.53V52.53V52.53V52.53V52.53z"
        transform="matrix(0.9672,0,0,0.8766,1.737,2.6446)"
  />
  <path style="fill:none; stroke:#bf5000; stroke-width:5; stroke-linecap:round; stroke-linejoin:round"
        d="M37.49 51.09C33.23 46.3 28.97 41.5 24.71 36.71C26.96 36.71 29.2 36.71 31.44 36.71C31.44 32.39 31.44 28.07 31.44 23.75C35.47 23.75 39.51 23.75 43.54 23.75C43.54 28.07 43.54 32.39 43.54 36.71C45.78 36.71 48.03 36.71 50.27 36.71C46.01 41.5 41.75 46.3 37.49 51.09V51.09V51.09V51.09V51.09z"
        transform="matrix(0.9672,0,0,0.8766,1.737,2.6446)"
  />
  <linearGradient id="gradient4" gradientUnits="userSpaceOnUse" x1="109.45" y1="23.75" x2="109.45" y2="51.09">
   <stop offset="0" stop-color="#fbdd73"/>
   <stop offset="1" stop-color="#d58e03"/>
  </linearGradient>
  <path style="fill:url(#gradient4)"
        d="M37.49 51.09C33.23 46.3 28.97 41.5 24.71 36.71C26.96 36.71 29.2 36.71 31.44 36.71C31.44 32.39 31.44 28.07 31.44 23.75C35.47 23.75 39.51 23.75 43.54 23.75C43.54 28.07 43.54 32.39 43.54 36.71C45.78 36.71 48.03 36.71 50.27 36.71C46.01 41.5 41.75 46.3 37.49 51.09V51.09V51.09V51.09V51.09z"
        transform="matrix(0.9672,0,0,0.8766,1.737,2.6446)"
  />
 </g>
</svg>
