<?xml version="1.0" encoding="UTF-8" standalone="yes"?>
<svg version="1.1" width="64" height="64" color-interpolation="linearRGB"
     xmlns:svg="http://www.w3.org/2000/svg" xmlns="http://www.w3.org/2000/svg">
 <g>
  <path style="fill:none; stroke:#010101; stroke-opacity:0.4313; stroke-width:4; stroke-linecap:round; stroke-linejoin:round"
        d="M32 11.63C37.4 11.63 42.58 13.78 46.39 17.6C50.21 21.41 52.36 26.59 52.36 32C52.36 37.4 50.21 42.58 46.39 46.39C42.58 50.21 37.4 52.36 32 52.36C26.59 52.36 21.41 50.21 17.6 46.39C13.78 42.58 11.63 37.4 11.63 32C11.63 26.59 13.78 21.41 17.6 17.6C21.41 13.78 26.59 11.63 32 11.63V11.63V11.63z
           M32 8.72C25.82 8.72 19.9 11.17 15.54 15.54C11.17 19.9 8.72 25.82 8.72 31.99C8.72 38.17 11.17 44.09 15.54 48.45C19.9 52.82 25.82 55.27 32 55.27C38.17 55.27 44.09 52.82 48.45 48.45C52.82 44.09 55.27 38.17 55.27 31.99C55.27 25.82 52.82 19.9 48.45 15.54C44.09 11.17 38.17 8.72 31.99 8.72C31.99 8.72 31.99 8.72 32 8.72V8.72z"
        transform="matrix(1.1187,0,0,1.1187,-2.7985,-1.7985)"
  />
  <path style="fill:none; stroke:#010101; stroke-opacity:0.4313; stroke-width:4.0999; stroke-linecap:round; stroke-linejoin:round"
        d="M32 17.45C28.14 17.45 24.44 18.98 21.71 21.71C18.98 24.44 17.45 28.14 17.45 31.99C17.45 35.85 18.98 39.55 21.71 42.28C24.44 45.01 28.14 46.54 32 46.54C35.85 46.54 39.55 45 42.27 42.27C41.59 41.59 40.9 40.9 40.22 40.22C38.04 42.4 35.08 43.63 32 43.63C28.91 43.63 25.95 42.41 23.77 40.22C21.58 38.04 20.36 35.08 20.36 32C20.36 28.91 21.58 25.95 23.77 23.77C25.95 21.58 28.91 20.36 32 20.36C35.08 20.36 38.04 21.59 40.22 23.77C40.9 23.09 41.59 22.4 42.27 21.72C39.55 18.99 35.85 17.45 32 17.45V17.45V17.45z"
        transform="matrix(0.9796,0,0,0.9978,1.3509,1.0695)"
  />
  <path style="fill:none; stroke:#003f80; stroke-width:4; stroke-linecap:round; stroke-linejoin:round"
        d="M32 11.63C37.4 11.63 42.58 13.78 46.39 17.6C50.21 21.41 52.36 26.59 52.36 32C52.36 37.4 50.21 42.58 46.39 46.39C42.58 50.21 37.4 52.36 32 52.36C26.59 52.36 21.41 50.21 17.6 46.39C13.78 42.58 11.63 37.4 11.63 32C11.63 26.59 13.78 21.41 17.6 17.6C21.41 13.78 26.59 11.63 32 11.63V11.63V11.63z
           M32 8.72C25.82 8.72 19.9 11.17 15.54 15.54C11.17 19.9 8.72 25.82 8.72 31.99C8.72 38.17 11.17 44.09 15.54 48.45C19.9 52.82 25.82 55.27 32 55.27C38.17 55.27 44.09 52.82 48.45 48.45C52.82 44.09 55.27 38.17 55.27 31.99C55.27 25.82 52.82 19.9 48.45 15.54C44.09 11.17 38.17 8.72 31.99 8.72C31.99 8.72 31.99 8.72 32 8.72V8.72z"
        transform="matrix(1.1187,0,0,1.1187,-3.7985,-3.7985)"
  />
  <linearGradient id="gradient0" gradientUnits="userSpaceOnUse" x1="179.45" y1="6.63" x2="179.45" y2="56.71">
   <stop offset="0" stop-color="#abd5ff"/>
   <stop offset="1" stop-color="#006cd9"/>
  </linearGradient>
  <path style="fill:url(#gradient0)"
        d="M32 11.63C37.4 11.63 42.58 13.78 46.39 17.6C50.21 21.41 52.36 26.59 52.36 32C52.36 37.4 50.21 42.58 46.39 46.39C42.58 50.21 37.4 52.36 32 52.36C26.59 52.36 21.41 50.21 17.6 46.39C13.78 42.58 11.63 37.4 11.63 32C11.63 26.59 13.78 21.41 17.6 17.6C21.41 13.78 26.59 11.63 32 11.63V11.63V11.63z
           M32 8.72C25.82 8.72 19.9 11.17 15.54 15.54C11.17 19.9 8.72 25.82 8.72 31.99C8.72 38.17 11.17 44.09 15.54 48.45C19.9 52.82 25.82 55.27 32 55.27C38.17 55.27 44.09 52.82 48.45 48.45C52.82 44.09 55.27 38.17 55.27 31.99C55.27 25.82 52.82 19.9 48.45 15.54C44.09 11.17 38.17 8.72 31.99 8.72C31.99 8.72 31.99 8.72 32 8.72V8.72z"
        transform="matrix(1.1187,0,0,1.1187,-3.7985,-3.7985)"
  />
  <path style="fill:none; stroke:#003f80; stroke-width:4.0999; stroke-linecap:round; stroke-linejoin:round"
        d="M32 17.45C28.14 17.45 24.44 18.98 21.71 21.71C18.98 24.44 17.45 28.14 17.45 31.99C17.45 35.85 18.98 39.55 21.71 42.28C24.44 45.01 28.14 46.54 32 46.54C35.85 46.54 39.55 45 42.27 42.27C41.59 41.59 40.9 40.9 40.22 40.22C38.04 42.4 35.08 43.63 32 43.63C28.91 43.63 25.95 42.41 23.77 40.22C21.58 38.04 20.36 35.08 20.36 32C20.36 28.91 21.58 25.95 23.77 23.77C25.95 21.58 28.91 20.36 32 20.36C35.08 20.36 38.04 21.59 40.22 23.77C40.9 23.09 41.59 22.4 42.27 21.72C39.55 18.99 35.85 17.45 32 17.45V17.45V17.45z"
        transform="matrix(0.9796,0,0,0.9978,0.3509,0.0695)"
  />
  <linearGradient id="gradient1" gradientUnits="userSpaceOnUse" x1="179.45" y1="6.63" x2="179.45" y2="56.71">
   <stop offset="0" stop-color="#abd5ff"/>
   <stop offset="1" stop-color="#006cd9"/>
  </linearGradient>
  <path style="fill:url(#gradient1)"
        d="M32 17.45C28.14 17.45 24.44 18.98 21.71 21.71C18.98 24.44 17.45 28.14 17.45 31.99C17.45 35.85 18.98 39.55 21.71 42.28C24.44 45.01 28.14 46.54 32 46.54C35.85 46.54 39.55 45 42.27 42.27C41.59 41.59 40.9 40.9 40.22 40.22C38.04 42.4 35.08 43.63 32 43.63C28.91 43.63 25.95 42.41 23.77 40.22C21.58 38.04 20.36 35.08 20.36 32C20.36 28.91 21.58 25.95 23.77 23.77C25.95 21.58 28.91 20.36 32 20.36C35.08 20.36 38.04 21.59 40.22 23.77C40.9 23.09 41.59 22.4 42.27 21.72C39.55 18.99 35.85 17.45 32 17.45V17.45V17.45z"
        transform="matrix(0.9796,0,0,0.9978,0.3509,0.0695)"
  />
 </g>
</svg>
