<?xml version="1.0" encoding="UTF-8" standalone="yes"?>
<svg version="1.1" width="64" height="64" color-interpolation="linearRGB"
     xmlns:svg="http://www.w3.org/2000/svg" xmlns="http://www.w3.org/2000/svg">
 <g>
  <path style="fill:none; stroke:#010101; stroke-opacity:0.3882; stroke-width:4.5"
        d="M46.39 17.6C48.42 19.63 50 22.08 51.01 24.77C51.01 24.77 51.02 24.78 51.02 24.78C51.04 24.84 51.06 24.9 51.08 24.96C51.91 26.95 52.12 28.98 52.31 31.05C52.33 31.37 52.35 31.68 52.35 32C52.35 32.04 52.35 32.08 52.35 32.12C52.15 42.43 44.81 50.1 35.03 52.11C34.66 52.16 34.29 52.23 33.91 52.26C33.51 52.29 33.12 52.31 32.72 52.32C32.48 52.33 32.24 52.36 32 52.36C31.95 52.36 31.91 52.35 31.86 52.35C29.47 52.39 27.22 51.79 25.01 51.09C24.87 51.04 24.74 51 24.61 50.94C24.11 50.75 23.62 50.53 23.14 50.3C21.09 49.32 19.21 48 17.6 46.39C27.2 36.79 36.79 27.2 46.39 17.6V17.6V17.6z
           M32 8.72C19.14 8.72 8.72 19.14 8.72 32C8.72 37.89 10.92 43.26 14.54 47.36C15.15 48.14 15.99 48.83 16.63 49.45C20.73 53.07 26.1 55.27 32 55.27C44.85 55.27 55.27 44.85 55.27 32C55.27 26.1 53.07 20.73 49.45 16.63C49.13 16.26 48.8 15.89 48.45 15.54C48.09 15.21 47.72 14.87 47.36 14.54C43.26 10.92 37.89 8.72 32 8.72V8.72V8.72z"
        transform="matrix(-0.9999,-0.0061,0.0061,-0.9999,65.8017,67.1969)"
  />
  <path style="fill:none; stroke:#000000; stroke-width:4.5"
        d="M46.39 17.6C48.42 19.63 50 22.08 51.01 24.77C51.01 24.77 51.02 24.78 51.02 24.78C51.04 24.84 51.06 24.9 51.08 24.96C51.91 26.95 52.12 28.98 52.31 31.05C52.33 31.37 52.35 31.68 52.35 32C52.35 32.04 52.35 32.08 52.35 32.12C52.15 42.43 44.81 50.1 35.03 52.11C34.66 52.16 34.29 52.23 33.91 52.26C33.51 52.29 33.12 52.31 32.72 52.32C32.48 52.33 32.24 52.36 32 52.36C31.95 52.36 31.91 52.35 31.86 52.35C29.47 52.39 27.22 51.79 25.01 51.09C24.87 51.04 24.74 51 24.61 50.94C24.11 50.75 23.62 50.53 23.14 50.3C21.09 49.32 19.21 48 17.6 46.39C27.2 36.79 36.79 27.2 46.39 17.6V17.6V17.6z
           M32 8.72C19.14 8.72 8.72 19.14 8.72 32C8.72 37.89 10.92 43.26 14.54 47.36C15.15 48.14 15.99 48.83 16.63 49.45C20.73 53.07 26.1 55.27 32 55.27C44.85 55.27 55.27 44.85 55.27 32C55.27 26.1 53.07 20.73 49.45 16.63C49.13 16.26 48.8 15.89 48.45 15.54C48.09 15.21 47.72 14.87 47.36 14.54C43.26 10.92 37.89 8.72 32 8.72V8.72V8.72z"
        transform="matrix(-0.9999,-0.0061,0.0061,-0.9999,63.8017,64.1969)"
  />
  <linearGradient id="gradient0" gradientUnits="userSpaceOnUse" x1="12.8" y1="57.93" x2="12.21" y2="24.06">
   <stop offset="0" stop-color="#ababab"/>
   <stop offset="1" stop-color="#414141"/>
  </linearGradient>
  <path style="fill:url(#gradient0)"
        d="M46.39 17.6C48.42 19.63 50 22.08 51.01 24.77C51.01 24.77 51.02 24.78 51.02 24.78C51.04 24.84 51.06 24.9 51.08 24.96C51.91 26.95 52.12 28.98 52.31 31.05C52.33 31.37 52.35 31.68 52.35 32C52.35 32.04 52.35 32.08 52.35 32.12C52.15 42.43 44.81 50.1 35.03 52.11C34.66 52.16 34.29 52.23 33.91 52.26C33.51 52.29 33.12 52.31 32.72 52.32C32.48 52.33 32.24 52.36 32 52.36C31.95 52.36 31.91 52.35 31.86 52.35C29.47 52.39 27.22 51.79 25.01 51.09C24.87 51.04 24.74 51 24.61 50.94C24.11 50.75 23.62 50.53 23.14 50.3C21.09 49.32 19.21 48 17.6 46.39C27.2 36.79 36.79 27.2 46.39 17.6V17.6V17.6z
           M32 8.72C19.14 8.72 8.72 19.14 8.72 32C8.72 37.89 10.92 43.26 14.54 47.36C15.15 48.14 15.99 48.83 16.63 49.45C20.73 53.07 26.1 55.27 32 55.27C44.85 55.27 55.27 44.85 55.27 32C55.27 26.1 53.07 20.73 49.45 16.63C49.13 16.26 48.8 15.89 48.45 15.54C48.09 15.21 47.72 14.87 47.36 14.54C43.26 10.92 37.89 8.72 32 8.72V8.72V8.72z"
        transform="matrix(-0.9999,-0.0061,0.0061,-0.9999,63.8017,64.1969)"
  />
 </g>
</svg>
