<?xml version="1.0" encoding="UTF-8" standalone="yes"?>
<svg version="1.1" width="64" height="64" color-interpolation="linearRGB"
     xmlns:svg="http://www.w3.org/2000/svg" xmlns="http://www.w3.org/2000/svg">
 <g>
  <path style="fill:none; stroke:#000000; stroke-opacity:0.4; stroke-width:5"
        d="M17.64 59.73C43.37 60.07 58.17 37.28 37.62 16.37C40.93 12.95 44.24 9.52 47.55 6.1L16.58 6.05C16.6 16.47 16.61 26.88 16.63 37.29L26.78 27.17C43.5 43.07 31.76 55.73 16.87 55.64C15.43 55.63 14.79 59.86 17.64 59.73V59.73V59.73z"
        transform="matrix(0.9054,0,0,0.9329,6.055,2.1712)"
  />
  <path style="fill:none; stroke:#005900; stroke-width:5"
        d="M17.64 59.73C43.37 60.07 58.17 37.28 37.62 16.37C40.93 12.95 44.24 9.52 47.55 6.1L16.58 6.05C16.6 16.47 16.61 26.88 16.63 37.29L26.78 27.17C43.5 43.07 31.76 55.73 16.87 55.64C15.43 55.63 14.79 59.86 17.64 59.73V59.73V59.73z"
        transform="matrix(0.9054,0,0,0.9329,4.2442,1.2383)"
  />
  <linearGradient id="gradient0" gradientUnits="userSpaceOnUse" x1="162.06" y1="7.43" x2="162.06" y2="54.08">
   <stop offset="0" stop-color="#80ff80"/>
   <stop offset="1" stop-color="#00b300"/>
  </linearGradient>
  <path style="fill:url(#gradient0)"
        d="M17.64 59.73C43.37 60.07 58.17 37.28 37.62 16.37C40.93 12.95 44.24 9.52 47.55 6.1L16.58 6.05C16.6 16.47 16.61 26.88 16.63 37.29L26.78 27.17C43.5 43.07 31.76 55.73 16.87 55.64C15.43 55.63 14.79 59.86 17.64 59.73V59.73V59.73z"
        transform="matrix(0.9054,0,0,0.9329,4.2442,1.2383)"
  />
 </g>
</svg>
