<?xml version="1.0" encoding="UTF-8" standalone="yes"?>
<svg version="1.1" width="64" height="64" color-interpolation="linearRGB"
     xmlns:svg="http://www.w3.org/2000/svg" xmlns="http://www.w3.org/2000/svg">
 <g>
  <path style="fill:none; stroke:#000000; stroke-opacity:0.4; stroke-width:5.636; stroke-linecap:round; stroke-linejoin:round"
        d="M40.45 6.63H26.36V26.36H6.63V40.45H26.36V60.17H40.45V40.45H60.17V26.36H40.45V6.63z"
        transform="matrix(0.8709,0,0,0.8709,4.129,4.129)"
  />
  <path style="fill:none; stroke:#005900; stroke-width:5.636; stroke-linecap:round; stroke-linejoin:round"
        d="M37.63 3.81H23.54V23.54H3.81V37.63H23.54V57.36H37.63V37.63H57.36V23.54H37.63V3.81z"
        transform="matrix(0.8709,0,0,0.8709,4.129,4.129)"
  />
  <linearGradient id="gradient0" gradientUnits="userSpaceOnUse" x1="181.35" y1="3.8" x2="181.35" y2="57.36">
   <stop offset="0" stop-color="#80ff80"/>
   <stop offset="1" stop-color="#00b300"/>
  </linearGradient>
  <path style="fill:url(#gradient0)"
        d="M37.63 3.81H23.54V23.54H3.81V37.63H23.54V57.36H37.63V37.63H57.36V23.54H37.63V3.81z"
        transform="matrix(0.8709,0,0,0.8709,4.129,4.129)"
  />
 </g>
</svg>
