<?xml version="1.0" encoding="UTF-8" standalone="yes"?>
<svg version="1.1" width="64" height="64" color-interpolation="linearRGB"
     xmlns:svg="http://www.w3.org/2000/svg" xmlns="http://www.w3.org/2000/svg">
 <g>
  <path style="fill:none; stroke:#000000; stroke-opacity:0.4; stroke-width:4.9082; stroke-linecap:round; stroke-linejoin:round"
        d="M41.79 39.34C36.06 39.34 30.35 39.34 24.62 39.34C16.46 39.34 9.89 47.02 9.89 56.52C25.44 56.52 40.97 56.52 56.52 56.52C56.52 47.02 49.91 39.34 41.79 39.34V39.34V39.34V39.34V39.34z
           M33.2 9.89C25.76 9.89 19.7 15.93 19.7 23.39C19.7 30.82 25.76 36.9 33.2 36.9C40.65 36.9 46.7 30.82 46.7 23.39C46.7 15.93 40.65 9.89 33.2 9.89V9.89V9.89V9.89V9.89z"
  />
  <path style="fill:none; stroke:#000000; stroke-width:4.9082; stroke-linecap:round; stroke-linejoin:round"
        d="M39.34 36.9C33.61 36.9 27.89 36.9 22.17 36.9C14.02 36.9 7.44 44.56 7.44 54.08C22.97 54.08 38.52 54.08 54.06 54.08C54.06 44.56 47.45 36.9 39.34 36.9V36.9V36.9V36.9V36.9z
           M30.76 7.44C23.29 7.44 17.26 13.48 17.26 20.94C17.26 28.37 23.29 34.43 30.76 34.43C38.18 34.43 44.25 28.37 44.25 20.94C44.25 13.48 38.18 7.44 30.76 7.44V7.44V7.44V7.44V7.44z"
  />
  <linearGradient id="gradient0" gradientUnits="userSpaceOnUse" x1="93.99" y1="32.08" x2="93.99" y2="59.79">
   <stop offset="0" stop-color="#ababab"/>
   <stop offset="1" stop-color="#363636"/>
  </linearGradient>
  <path style="fill:url(#gradient0)"
        d="M39.34 36.9C33.61 36.9 27.89 36.9 22.17 36.9C14.02 36.9 7.44 44.56 7.44 54.08C22.97 54.08 38.52 54.08 54.06 54.08C54.06 44.56 47.45 36.9 39.34 36.9V36.9V36.9V36.9V36.9z
           M30.76 7.44C23.29 7.44 17.26 13.48 17.26 20.94C17.26 28.37 23.29 34.43 30.76 34.43C38.18 34.43 44.25 28.37 44.25 20.94C44.25 13.48 38.18 7.44 30.76 7.44V7.44V7.44V7.44V7.44z"
  />
  <path style="fill:none; stroke:#000000; stroke-opacity:0.4; stroke-width:4.9083; stroke-linecap:round; stroke-linejoin:round"
        d="M39.35 9.9C35.26 9.9 31.17 9.9 27.08 9.9C27.08 15.63 27.08 21.35 27.08 27.08C21.35 27.08 15.63 27.08 9.9 27.08C9.9 31.17 9.9 35.26 9.9 39.35C15.63 39.35 21.35 39.35 27.08 39.35C27.08 45.08 27.08 50.8 27.08 56.53C31.17 56.53 35.26 56.53 39.35 56.53C39.35 50.8 39.35 45.08 39.35 39.35C45.08 39.35 50.8 39.35 56.53 39.35C56.53 35.26 56.53 31.17 56.53 27.08C50.8 27.08 45.08 27.08 39.35 27.08C39.35 21.35 39.35 15.63 39.35 9.9V9.9V9.9z"
        transform="matrix(0.5925,0,0,0.611,28.0344,26.9419)"
  />
  <path style="fill:none; stroke:#005900; stroke-width:9; stroke-linecap:round; stroke-linejoin:round"
        d="M36.9 7.44C32.81 7.44 28.72 7.44 24.62 7.44C24.62 13.17 24.62 18.9 24.62 24.62C18.9 24.62 13.17 24.62 7.44 24.62C7.44 28.72 7.44 32.81 7.44 36.9C13.17 36.9 18.9 36.9 24.62 36.9C24.62 42.62 24.62 48.35 24.62 54.08C28.72 54.08 32.81 54.08 36.9 54.08C36.9 48.35 36.9 42.62 36.9 36.9C42.62 36.9 48.35 36.9 54.08 36.9C54.08 32.81 54.08 28.72 54.08 24.62C48.35 24.62 42.62 24.62 36.9 24.62C36.9 18.9 36.9 13.17 36.9 7.44V7.44V7.44z"
        transform="matrix(0.5925,0,0,0.611,28.0344,26.9419)"
  />
  <linearGradient id="gradient1" gradientUnits="userSpaceOnUse" x1="162.06" y1="7.43" x2="162.06" y2="54.08">
   <stop offset="0" stop-color="#80ff80"/>
   <stop offset="1" stop-color="#00b300"/>
  </linearGradient>
  <path style="fill:url(#gradient1)"
        d="M36.9 7.44C32.81 7.44 28.72 7.44 24.62 7.44C24.62 13.17 24.62 18.9 24.62 24.62C18.9 24.62 13.17 24.62 7.44 24.62C7.44 28.72 7.44 32.81 7.44 36.9C13.17 36.9 18.9 36.9 24.62 36.9C24.62 42.62 24.62 48.35 24.62 54.08C28.72 54.08 32.81 54.08 36.9 54.08C36.9 48.35 36.9 42.62 36.9 36.9C42.62 36.9 48.35 36.9 54.08 36.9C54.08 32.81 54.08 28.72 54.08 24.62C48.35 24.62 42.62 24.62 36.9 24.62C36.9 18.9 36.9 13.17 36.9 7.44V7.44V7.44z"
        transform="matrix(0.5925,0,0,0.611,28.0344,26.9419)"
  />
 </g>
</svg>
