<?xml version="1.0" encoding="UTF-8" standalone="yes"?>
<svg version="1.1" width="64" height="64" color-interpolation="linearRGB"
     xmlns:svg="http://www.w3.org/2000/svg" xmlns="http://www.w3.org/2000/svg">
 <g>
  <path style="fill:none; stroke:#000000; stroke-opacity:0.4; stroke-width:6"
        d="M10 36L36 10
           M23 5C13.05 5 5 13.05 5 23C5 32.94 13.05 41 23 41C32.94 41 41 32.94 41 23C41 13.05 32.94 5 23 5z"
        transform="matrix(1.409,0,0,1.409,1.0001,1.0001)"
  />
  <path style="fill:none; stroke:#800000; stroke-width:6"
        d="M8 34L34 8
           M21 3C11.05 3 3 11.05 3 21C3 30.94 11.05 39 21 39C30.94 39 39 30.94 39 21C39 11.05 30.94 3 21 3z"
        transform="matrix(1.409,0,0,1.409,1.0001,1.0001)"
  />
  <linearGradient id="gradient0" gradientUnits="userSpaceOnUse" x1="128" y1="1.99" x2="128" y2="40">
   <stop offset="0" stop-color="#ffabab"/>
   <stop offset="1" stop-color="#d90000"/>
  </linearGradient>
  <path style="fill:none; stroke:url(#gradient0); stroke-width:2"
        d="M21 3C11.05 3 3 11.05 3 21C3 30.94 11.05 39 21 39C30.94 39 39 30.94 39 21C39 11.05 30.94 3 21 3z
           M8 34L34 8"
        transform="matrix(1.409,0,0,1.409,1.0001,1.0001)"
  />
  <path style="fill:none; stroke:#000000; stroke-opacity:0.4; stroke-width:6; stroke-linecap:round; stroke-linejoin:round"
        d="M25 27V19L31 27V19
           M15 19V25C15 26 16 27 17 27H19C20.05 27 21 26 21 25V19
           M5 25C5 26 6 27 7 27H9C10 27 11 26 11 25V19
           M35 27V19
           M41 19L35 23L41 27"
        transform="matrix(1.409,0,0,1.409,1.0001,1.0001)"
  />
  <path style="fill:none; stroke:#545454; stroke-width:6; stroke-linecap:round; stroke-linejoin:round"
        d="M23 25V17L29 25V17
           M13 17V23C13 24 14 25 15 25H17C18.05 25 19 24 19 23V17
           M3 23C3 24 4 25 5 25H7C8 25 9 24 9 23V17
           M39 17L33 21L39 25
           M33 25V17"
        transform="matrix(1.409,0,0,1.409,1.0001,1.0001)"
  />
  <linearGradient id="gradient1" gradientUnits="userSpaceOnUse" x1="124" y1="16" x2="124" y2="26">
   <stop offset="0" stop-color="#ffffff"/>
   <stop offset="1" stop-color="#e5e5e5"/>
  </linearGradient>
  <path style="fill:none; stroke:url(#gradient1); stroke-width:2; stroke-linecap:round; stroke-linejoin:round"
        d="M23 25V17L29 25V17
           M13 17V23C13 24 14 25 15 25H17C18.05 25 19 24 19 23V17
           M3 23C3 24 4 25 5 25H7C8 25 9 24 9 23V17
           M33 25V17
           M39 17L33 21L39 25"
        transform="matrix(1.409,0,0,1.409,1.0001,1.0001)"
  />
 </g>
</svg>
