<?xml version="1.0" encoding="UTF-8" standalone="yes"?>
<svg version="1.1" width="64" height="64" color-interpolation="linearRGB"
     xmlns:svg="http://www.w3.org/2000/svg" xmlns="http://www.w3.org/2000/svg">
 <g>
  <path style="fill:none; stroke:#000000; stroke-width:9.3331; stroke-linecap:round; stroke-linejoin:round"
        d="M11.54 25.65L29.14 8.62C31.66 6.18 40.88 2.13 50.09 11.05C59.31 19.97 55.13 28.9 52.61 31.33L26.63 56.49C24.95 58.12 11.54 59.73 9.03 57.3C6.5 54.87 8.18 41.89 9.86 40.26L28.3 22.41C29.97 20.79 34.17 19.97 37.52 23.22C40.88 26.47 40.04 30.53 38.35 32.15L28.3 41.89"
        transform="matrix(0.9477,0,0,0.8716,2.1609,4.1127)"
  />
  <linearGradient id="gradient0" gradientUnits="userSpaceOnUse" x1="142.1" y1="0.69" x2="142.09" y2="61.56">
   <stop offset="0" stop-color="#dae7f5"/>
   <stop offset="0.4826" stop-color="#758596"/>
   <stop offset="1" stop-color="#dae7f5"/>
  </linearGradient>
  <path style="fill:none; stroke:url(#gradient0); stroke-width:4.6664; stroke-linecap:round; stroke-linejoin:round"
        d="M11.54 25.65L29.14 8.62C31.66 6.18 40.88 2.13 50.09 11.05C59.31 19.97 55.13 28.9 52.61 31.33L26.63 56.49C24.95 58.12 11.54 59.73 9.03 57.3C6.5 54.87 8.18 41.89 9.86 40.26L28.3 22.41C29.97 20.79 34.17 19.97 37.52 23.22C40.88 26.47 40.04 30.53 38.35 32.15L28.3 41.89"
        transform="matrix(0.9477,0,0,0.8716,2.1609,4.1127)"
  />
  <path style="fill:none; stroke:#ffffff; stroke-width:2.291; stroke-linecap:round; stroke-linejoin:round"
        d="M10.86 24.68L27.83 8.27C30.26 5.91 39.23 2.09 48.45 11.02C57.66 19.95 53.72 28.63 51.3 30.98L26.26 55.21C24.65 56.79 11.52 58.14 9 55.71C6.48 53.27 7.89 40.56 9.5 38.99L27.27 21.78C28.88 20.22 32.98 19.5 36.34 22.75C39.68 26 38.95 29.97 37.32 31.53L27.64 40.9"
        transform="matrix(0.9477,0,0,0.8716,2.1609,4.1127)"
  />
 </g>
</svg>
