<?xml version="1.0" encoding="UTF-8" standalone="yes"?>
<svg version="1.1" width="64" height="64" color-interpolation="linearRGB"
     xmlns:svg="http://www.w3.org/2000/svg" xmlns="http://www.w3.org/2000/svg">
 <g>
  <path style="fill:none; stroke:#000000; stroke-opacity:0.4; stroke-width:4; stroke-linecap:round; stroke-linejoin:round"
        d="M4 10H42V38H4V10z"
        transform="matrix(1.409,0,0,1.5294,1,-2.1764)"
  />
  <path style="fill:none; stroke:#bf5000; stroke-width:4; stroke-linecap:round; stroke-linejoin:round"
        d="M2 8H40V36H2V8z"
        transform="matrix(1.409,0,0,1.5294,1,-2.1764)"
  />
  <linearGradient id="gradient0" gradientUnits="userSpaceOnUse" x1="128" y1="8" x2="128" y2="36">
   <stop offset="0" stop-color="#ffff80"/>
   <stop offset="1" stop-color="#ffd400"/>
  </linearGradient>
  <path style="fill:url(#gradient0)"
        d="M2 8H40V36H2V8z"
        transform="matrix(1.409,0,0,1.5294,1,-2.1764)"
  />
  <path style="fill:#bf5000"
        d="M40 7.98L21 21L2 7.98L21 25L40 7.98z
           M40 36L28 18L26 20L40 36z
           M16 20L14 18L2 36L16 20z"
        transform="matrix(1.409,0,0,1.5294,1,-2.1764)"
  />
  <path style="fill:none; stroke:#000000; stroke-opacity:0.4; stroke-width:5.7033; stroke-linecap:round; stroke-linejoin:round"
        d="M60.12 27.77L41.37 24.95L32.72 6.63L24.06 24.95L6.75 27.77L18.29 41.86L15.41 60.18L32.72 51.72L50.03 60.18L47.14 41.86L60.12 27.77z"
        transform="matrix(0.5635,0,0,0.5487,28.4626,29.436)"
  />
  <path style="fill:none; stroke:#bf5000; stroke-width:5.7033; stroke-linecap:round; stroke-linejoin:round"
        d="M57.24 24.95L38.49 22.13L29.83 3.81L21.18 22.13L3.87 24.95L15.41 39.04L12.52 57.36L29.83 48.9L47.14 57.36L44.26 39.04L57.24 24.95z"
        transform="matrix(0.5635,0,0,0.5487,28.4626,29.436)"
  />
  <linearGradient id="gradient1" gradientUnits="userSpaceOnUse" x1="184.17" y1="3.8" x2="184.17" y2="57.36">
   <stop offset="0" stop-color="#ffff80"/>
   <stop offset="1" stop-color="#ffd500"/>
  </linearGradient>
  <path style="fill:url(#gradient1)"
        d="M57.24 24.95L38.49 22.13L29.83 3.81L21.18 22.13L3.87 24.95L15.41 39.04L12.52 57.36L29.83 48.9L47.14 57.36L44.26 39.04L57.24 24.95z"
        transform="matrix(0.5635,0,0,0.5487,28.4626,29.436)"
  />
 </g>
</svg>
