<?xml version="1.0" encoding="UTF-8" standalone="yes"?>
<svg version="1.1" width="64" height="64" color-interpolation="linearRGB"
     xmlns:svg="http://www.w3.org/2000/svg" xmlns="http://www.w3.org/2000/svg">
 <g>
  <path style="fill:none; stroke:#000000; stroke-opacity:0.4; stroke-width:5.0488; stroke-linecap:round; stroke-linejoin:round"
        d="M9.89 16.18C25.44 16.18 40.99 16.18 56.54 16.18C56.54 28.25 56.54 40.32 56.54 52.39C40.99 52.39 25.44 52.39 9.89 52.39C9.89 40.32 9.89 28.25 9.89 16.18V16.18V16.18z"
  />
  <path style="fill:none; stroke:#bf5000; stroke-width:5.0488; stroke-linecap:round; stroke-linejoin:round"
        d="M7.43 13.59C22.98 13.59 38.54 13.59 54.09 13.59C54.09 25.66 54.09 37.73 54.09 49.8C38.54 49.8 22.98 49.8 7.43 49.8C7.43 37.73 7.43 25.66 7.43 13.59V13.59V13.59z"
  />
  <linearGradient id="gradient0" gradientUnits="userSpaceOnUse" x1="162.14" y1="13.59" x2="162.14" y2="49.8">
   <stop offset="0" stop-color="#ffff80"/>
   <stop offset="1" stop-color="#ffd400"/>
  </linearGradient>
  <path style="fill:url(#gradient0)"
        d="M7.43 13.59C22.98 13.59 38.54 13.59 54.09 13.59C54.09 25.66 54.09 37.73 54.09 49.8C38.54 49.8 22.98 49.8 7.43 49.8C7.43 37.73 7.43 25.66 7.43 13.59V13.59V13.59z"
  />
  <path style="fill:#bf5000"
        d="M24.62 29.11C23.8 28.25 22.98 27.39 22.16 26.53C17.25 34.28 12.34 42.04 7.43 49.8C13.16 42.9 18.89 36.01 24.62 29.11V29.11V29.11z
           M54.09 49.8C49.18 42.04 44.27 34.28 39.36 26.53C38.54 27.39 37.72 28.25 36.9 29.11C42.63 36.01 48.36 42.9 54.09 49.8V49.8V49.8z
           M54.09 13.57C46.31 19.18 38.53 24.79 30.76 30.41C22.98 24.79 15.2 19.18 7.43 13.57C15.2 20.9 22.98 28.24 30.76 35.57C38.53 28.24 46.31 20.9 54.09 13.57V13.57V13.57z"
  />
  <path style="fill:none; stroke:#000000; stroke-opacity:0.4; stroke-width:4.9083; stroke-linecap:round; stroke-linejoin:round"
        d="M39.35 9.9C35.26 9.9 31.17 9.9 27.08 9.9C27.08 15.63 27.08 21.35 27.08 27.08C21.35 27.08 15.63 27.08 9.9 27.08C9.9 31.17 9.9 35.26 9.9 39.35C15.63 39.35 21.35 39.35 27.08 39.35C27.08 45.08 27.08 50.8 27.08 56.53C31.17 56.53 35.26 56.53 39.35 56.53C39.35 50.8 39.35 45.08 39.35 39.35C45.08 39.35 50.8 39.35 56.53 39.35C56.53 35.26 56.53 31.17 56.53 27.08C50.8 27.08 45.08 27.08 39.35 27.08C39.35 21.35 39.35 15.63 39.35 9.9V9.9V9.9z"
        transform="matrix(0.4999,0,0,0.4999,34.4968,34.4968)"
  />
  <path style="fill:none; stroke:#005900; stroke-width:8; stroke-linecap:round; stroke-linejoin:round"
        d="M36.9 7.44C32.81 7.44 28.72 7.44 24.62 7.44C24.62 13.17 24.62 18.9 24.62 24.62C18.9 24.62 13.17 24.62 7.44 24.62C7.44 28.72 7.44 32.81 7.44 36.9C13.17 36.9 18.9 36.9 24.62 36.9C24.62 42.62 24.62 48.35 24.62 54.08C28.72 54.08 32.81 54.08 36.9 54.08C36.9 48.35 36.9 42.62 36.9 36.9C42.62 36.9 48.35 36.9 54.08 36.9C54.08 32.81 54.08 28.72 54.08 24.62C48.35 24.62 42.62 24.62 36.9 24.62C36.9 18.9 36.9 13.17 36.9 7.44V7.44V7.44z"
        transform="matrix(0.4999,0,0,0.4999,34.4968,34.4968)"
  />
  <linearGradient id="gradient1" gradientUnits="userSpaceOnUse" x1="162.06" y1="7.43" x2="162.06" y2="54.08">
   <stop offset="0" stop-color="#80ff80"/>
   <stop offset="1" stop-color="#00b300"/>
  </linearGradient>
  <path style="fill:url(#gradient1)"
        d="M36.9 7.44C32.81 7.44 28.72 7.44 24.62 7.44C24.62 13.17 24.62 18.9 24.62 24.62C18.9 24.62 13.17 24.62 7.44 24.62C7.44 28.72 7.44 32.81 7.44 36.9C13.17 36.9 18.9 36.9 24.62 36.9C24.62 42.62 24.62 48.35 24.62 54.08C28.72 54.08 32.81 54.08 36.9 54.08C36.9 48.35 36.9 42.62 36.9 36.9C42.62 36.9 48.35 36.9 54.08 36.9C54.08 32.81 54.08 28.72 54.08 24.62C48.35 24.62 42.62 24.62 36.9 24.62C36.9 18.9 36.9 13.17 36.9 7.44V7.44V7.44z"
        transform="matrix(0.4999,0,0,0.4999,34.4968,34.4968)"
  />
 </g>
</svg>
