<?xml version="1.0" encoding="UTF-8" standalone="yes"?>
<svg version="1.1" width="64" height="64" color-interpolation="linearRGB"
     xmlns:svg="http://www.w3.org/2000/svg" xmlns="http://www.w3.org/2000/svg">
 <g>
  <path style="fill:none; stroke:#000000; stroke-opacity:0.4; stroke-width:5.7185; stroke-linecap:round; stroke-linejoin:round"
        d="M6.63 16.5H60.17V57.09H6.63V16.5z"
        transform="matrix(0.8711,0,0,0.8618,4.1235,4.2818)"
  />
  <path style="fill:none; stroke:#bf5000; stroke-width:5.7185; stroke-linecap:round; stroke-linejoin:round"
        d="M3.81 13.6H57.36V54.2H3.81V13.6z"
        transform="matrix(0.8711,0,0,0.8618,4.1235,4.2818)"
  />
  <linearGradient id="gradient0" gradientUnits="userSpaceOnUse" x1="181.35" y1="13.6" x2="181.35" y2="54.2">
   <stop offset="0" stop-color="#ffff80"/>
   <stop offset="1" stop-color="#ffd400"/>
  </linearGradient>
  <path style="fill:url(#gradient0)"
        d="M3.81 13.6H57.36V54.2H3.81V13.6z"
        transform="matrix(0.8711,0,0,0.8618,4.1235,4.2818)"
  />
  <path style="fill:#bf5000"
        d="M57.36 13.57L30.58 32.45L3.81 13.57L30.58 38.25L57.36 13.57z
           M57.36 54.2L40.45 28.1L37.63 31L57.36 54.2z
           M23.54 31L20.72 28.1L3.81 54.2L23.54 31z"
        transform="matrix(0.8711,0,0,0.8618,4.1235,4.2818)"
  />
  <path style="fill:none; stroke:#800000; stroke-width:5.7185; stroke-linejoin:round"
        d="M43.27 4.9L46.08 33.9H51.72L54.54 4.9H43.27z
           M46.08 42.59V48.4H51.72V42.59H46.08z"
        transform="matrix(0.8711,0,0,0.8618,4.1235,4.2818)"
  />
  <path style="fill:none; stroke:#000000; stroke-opacity:0.4; stroke-width:5.7185; stroke-linejoin:round"
        d="M46.08 7.8L48.9 36.79H54.54L57.36 7.8H46.08z
           M48.9 45.5V51.29H54.54V45.5H48.9z"
        transform="matrix(0.8711,0,0,0.8618,4.1235,4.2818)"
  />
  <linearGradient id="gradient1" gradientUnits="userSpaceOnUse" x1="181.35" y1="4.88" x2="181.35" y2="48.4">
   <stop offset="0" stop-color="#ffabab"/>
   <stop offset="1" stop-color="#ef2929"/>
  </linearGradient>
  <path style="fill:url(#gradient1)"
        d="M43.27 4.9L46.08 33.9H51.72L54.54 4.9H43.27z
           M46.08 42.59V48.4H51.72V42.59H46.08z"
        transform="matrix(0.8711,0,0,0.8618,4.1235,4.2818)"
  />
 </g>
</svg>
