<?xml version="1.0" encoding="UTF-8" standalone="yes"?>
<svg version="1.1" width="64" height="64" color-interpolation="linearRGB"
     xmlns:svg="http://www.w3.org/2000/svg" xmlns="http://www.w3.org/2000/svg">
 <g>
  <path style="fill:none; stroke:#000000; stroke-opacity:0.4; stroke-width:5.0493; stroke-linecap:round; stroke-linejoin:round"
        d="M9.89 16.18H56.54V52.38H9.89V16.18z"
  />
  <path style="fill:none; stroke:#bf5000; stroke-width:5.0493; stroke-linecap:round; stroke-linejoin:round"
        d="M7.42 13.59H54.09V49.79H7.42V13.59z"
  />
  <linearGradient id="gradient0" gradientUnits="userSpaceOnUse" x1="162.13" y1="13.59" x2="162.13" y2="49.79">
   <stop offset="0" stop-color="#ffff80"/>
   <stop offset="1" stop-color="#ffd400"/>
  </linearGradient>
  <path style="fill:url(#gradient0)"
        d="M7.42 13.59H54.09V49.79H7.42V13.59z"
  />
  <path style="fill:#bf5000"
        d="M54.09 13.56L30.76 30.4L7.42 13.56L30.76 35.56L54.09 13.56z
           M54.09 49.79L39.36 26.53L36.9 29.11L54.09 49.79z
           M24.62 29.11L22.15 26.53L7.42 49.79L24.62 29.11z"
  />
  <path style="fill:#000000; fill-opacity:0.4"
        d="M37.24 33.75V62.99H39.74V33.75H37.24z"
  />
  <path style="fill:none; stroke:#643c02; stroke-width:5; stroke-linecap:round; stroke-linejoin:bevel"
        d="M36.24 33.25V61.48H38.24V33.25H36.24z"
  />
  <linearGradient id="gradient1" gradientUnits="userSpaceOnUse" x1="41" y1="-0.43" x2="55.8" y2="2.93">
   <stop offset="0" stop-color="#754603"/>
   <stop offset="0.1149" stop-color="#bd7105"/>
   <stop offset="1" stop-color="#754603"/>
  </linearGradient>
  <path style="fill:url(#gradient1)"
        d="M36.24 33.25V61.48H38.24V33.25H36.24z"
  />
  <path style="fill:none; stroke:#000000; stroke-opacity:0.4; stroke-width:2.1516; stroke-linecap:round; stroke-linejoin:round"
        d="M62.38 42.44L39.89 35.25V49.62L62.38 42.44z"
  />
  <path style="fill:none; stroke:#005900; stroke-width:6; stroke-linecap:round; stroke-linejoin:round"
        d="M61.06 41.68L38.56 34.49V48.87L61.06 41.68z"
  />
  <linearGradient id="gradient2" gradientUnits="userSpaceOnUse" x1="120.62" y1="34.49" x2="120.62" y2="48.87">
   <stop offset="0" stop-color="#80ff80"/>
   <stop offset="1" stop-color="#00b200"/>
  </linearGradient>
  <path style="fill:url(#gradient2)"
        d="M61.06 41.68L38.56 34.49V48.87L61.06 41.68z"
  />
 </g>
</svg>
