<?xml version="1.0" encoding="UTF-8" standalone="yes"?>
<svg version="1.1" width="64" height="64" color-interpolation="linearRGB"
     xmlns:svg="http://www.w3.org/2000/svg" xmlns="http://www.w3.org/2000/svg">
 <g>
  <path style="fill:#000000; fill-opacity:0.4274"
        d="M13.09 26.46L29.77 11.62C32.16 9.49 40.9 5.96 49.63 13.74C58.36 21.51 54.4 29.3 52.01 31.41L27.39 53.34C25.8 54.77 13.09 56.17 10.71 54.05C8.32 51.93 9.91 40.62 11.5 39.2L28.98 23.64C30.56 22.23 34.54 21.51 37.71 24.35C40.9 27.18 40.1 30.72 38.5 32.13L28.98 40.62
           M13.09 26.46L29.77 11.62C32.16 9.49 40.9 5.96 49.63 13.74C58.36 21.51 54.4 29.3 52.01 31.41L27.39 53.34C25.8 54.77 13.09 56.17 10.71 54.05C8.32 51.93 9.91 40.62 11.5 39.2L28.98 23.64C30.56 22.23 34.54 21.51 37.71 24.35C40.9 27.18 40.1 30.72 38.5 32.13L28.98 40.62"
        transform="matrix(1,0,0,1,5,5)"
  />
  <path style="fill:none; stroke:#000000; stroke-width:8.4972; stroke-linecap:round; stroke-linejoin:round"
        d="M13.09 26.46L29.77 11.62C32.16 9.49 40.9 5.96 49.63 13.74C58.36 21.51 54.4 29.3 52.01 31.41L27.39 53.34C25.8 54.77 13.09 56.17 10.71 54.05C8.32 51.93 9.91 40.62 11.5 39.2L28.98 23.64C30.56 22.23 34.54 21.51 37.71 24.35C40.9 27.18 40.1 30.72 38.5 32.13L28.98 40.62"
  />
  <linearGradient id="gradient0" gradientUnits="userSpaceOnUse" x1="136.82" y1="4.71" x2="136.81" y2="57.76">
   <stop offset="0" stop-color="#dae7f5"/>
   <stop offset="0.4826" stop-color="#758596"/>
   <stop offset="1" stop-color="#dae7f5"/>
  </linearGradient>
  <path style="fill:none; stroke:url(#gradient0); stroke-width:4.2485; stroke-linecap:round; stroke-linejoin:round"
        d="M13.09 26.46L29.77 11.62C32.16 9.49 40.9 5.96 49.63 13.74C58.36 21.51 54.4 29.3 52.01 31.41L27.39 53.34C25.8 54.77 13.09 56.17 10.71 54.05C8.32 51.93 9.91 40.62 11.5 39.2L28.98 23.64C30.56 22.23 34.54 21.51 37.71 24.35C40.9 27.18 40.1 30.72 38.5 32.13L28.98 40.62"
  />
  <path style="fill:none; stroke:#ffffff; stroke-width:2.0858; stroke-linecap:round; stroke-linejoin:round"
        d="M12.45 25.62L28.53 11.32C30.83 9.26 39.33 5.93 48.07 13.71C56.8 21.5 53.07 29.06 50.77 31.11L27.04 52.23C25.52 53.61 13.07 54.78 10.69 52.66C8.3 50.54 9.63 39.46 11.16 38.09L28 23.09C29.53 21.73 33.41 21.1 36.6 23.94C39.76 26.77 39.07 30.23 37.52 31.59L28.35 39.76"
  />
 </g>
</svg>
