<?xml version="1.0" encoding="UTF-8" standalone="yes"?>
<svg version="1.1" width="64" height="64" color-interpolation="linearRGB"
     xmlns:svg="http://www.w3.org/2000/svg" xmlns="http://www.w3.org/2000/svg">
 <g>
  <path style="fill:none; stroke:#000000; stroke-opacity:0.4; stroke-width:4; stroke-linecap:round; stroke-linejoin:round"
        d="M4 4H34V26H4V4z"
        transform="matrix(1.2732,0,0,1.2728,4,4)"
  />
  <path style="fill:none; stroke:#bf5000; stroke-width:4; stroke-linecap:round; stroke-linejoin:round"
        d="M2 2H32V24H2V2z"
        transform="matrix(1.2732,0,0,1.2728,4,4)"
  />
  <linearGradient id="gradient0" gradientUnits="userSpaceOnUse" x1="120" y1="1.99" x2="120" y2="24">
   <stop offset="0" stop-color="#ffff80"/>
   <stop offset="1" stop-color="#ffd400"/>
  </linearGradient>
  <path style="fill:url(#gradient0)"
        d="M2 2H32V24H2V2z"
        transform="matrix(1.2732,0,0,1.2728,4,4)"
  />
  <path style="fill:#bf5000"
        d="M32 2L17 12L2 2L17 15L32 2z
           M32 24L22 10L20 11L32 24z
           M14 11L12 10L2 24.1L14 11z"
        transform="matrix(1.2732,0,0,1.2728,4,4)"
  />
  <path style="fill:none; stroke:#000000; stroke-opacity:0.4; stroke-width:4; stroke-linecap:round; stroke-linejoin:round"
        d="M32 42L42 33L32 24V42z
           M24 36V42L34 33L24 24V30C16.26 30 10 27.3 10 24C10 30.62 16.26 36 24 36z"
        transform="matrix(1.2732,0,0,1.2728,4,4)"
  />
  <path style="fill:none; stroke:#545454; stroke-width:4; stroke-linecap:round; stroke-linejoin:round"
        d="M30 40L40 31L30 22V40z"
        transform="matrix(1.2732,0,0,1.2728,4,4)"
  />
  <linearGradient id="gradient1" gradientUnits="userSpaceOnUse" x1="128" y1="22" x2="128" y2="40">
   <stop offset="0" stop-color="#ffffff"/>
   <stop offset="1" stop-color="#e5e5e5"/>
  </linearGradient>
  <path style="fill:url(#gradient1)"
        d="M30 40L40 31L30 22V40z"
        transform="matrix(1.2732,0,0,1.2728,4,4)"
  />
  <path style="fill:none; stroke:#003f80; stroke-width:4; stroke-linecap:round; stroke-linejoin:round"
        d="M22 34V40L32 31L22 22V28C14.26 28 8 25.3 8 22C8 28.62 14.26 34 22 34z"
        transform="matrix(1.2732,0,0,1.2728,4,4)"
  />
  <linearGradient id="gradient2" gradientUnits="userSpaceOnUse" x1="128" y1="22" x2="128" y2="40">
   <stop offset="0" stop-color="#abd5ff"/>
   <stop offset="1" stop-color="#006cd9"/>
  </linearGradient>
  <path style="fill:url(#gradient2)"
        d="M22 34V40L32 31L22 22V28C14.26 28 8 25.3 8 22C8 28.62 14.26 34 22 34z"
        transform="matrix(1.2732,0,0,1.2728,4,4)"
  />
 </g>
</svg>
