<?xml version="1.0" encoding="UTF-8" standalone="yes"?>
<svg version="1.1" width="64" height="64" color-interpolation="linearRGB"
     xmlns:svg="http://www.w3.org/2000/svg" xmlns="http://www.w3.org/2000/svg">
 <g>
  <path style="fill:#100000"
        d="M1.25 31.79C1.25 48.59 14.92 62.26 31.72 62.26C48.52 62.26 62.19 48.59 62.19 31.79C62.19 14.99 48.52 1.32 31.72 1.32C14.92 1.32 1.25 14.99 1.25 31.79z"
        transform="matrix(1.0328,0,0,1.0328,-1.041,-1.0434)"
  />
  <linearGradient id="gradient0" gradientUnits="userSpaceOnUse" x1="31.72" y1="60.28" x2="31.72" y2="3.3">
   <stop offset="0" stop-color="#10a3ec"/>
   <stop offset="1" stop-color="#0c7ab1"/>
  </linearGradient>
  <path style="fill:url(#gradient0)"
        d="M31.72 3.3C15.99 3.3 3.23 16.06 3.23 31.79C3.23 47.52 15.99 60.28 31.72 60.28C47.45 60.28 60.21 47.52 60.21 31.79C60.21 16.06 47.45 3.3 31.72 3.3z"
  />
  <path style="fill:#a7e0fd"
        d="M17.4 9.5C17.94 8.63 18.29 7.61 18.5 6.59C18.42 6.59 17.61 7.15 17.53 7.15C15.3 8.61 11.45 11.05 9.87 13.62C9.75 13.74 9.62 13.86 9.5 13.98C10.74 13.91 16.98 10.17 17.4 9.5z
           M9.38 15.8V15.44C9.18 15.24 8.98 15.04 8.77 14.83C7.31 17.34 5.5 19.69 4.64 22.84C7.27 21.32 6.7 17.86 9.38 15.8z
           M35.24 14.41L36.13 14.85L36.26 14.28L35.24 14.41z
           M29.72 9.58C30.33 9.62 31.02 10.24 31.38 9.62C31.55 9.27 31.67 9.08 31.5 8.65C31.27 8.27 30.37 7.17 29.9 7.03C29.34 7.43 30.93 8.92 29.72 9.58z
           M22.51 5.37C22.88 5.62 22.83 5.49 23 5.98C23.5 6.22 24.35 6.26 25.18 6.22C26.52 4.63 27.05 5.99 28.71 5.13C29.32 4.65 29.92 4.16 30.53 3.68C31.72 3.14 32.75 3.92 33.33 4.4C34.38 4.23 34.39 3.73 35.39 3.55C34.02 2.97 31.34 3.28 29.56 3.31C28.59 3.43 27.61 3.55 26.64 3.68C24.28 4.18 21.31 4.83 19.59 6.1H19.35C20.75 6.74 21.87 5.87 22.51 5.37z
           M52.29 38.12C51.6 38.97 50.16 39.87 50.46 41.27V42.6C51.15 42.29 52.97 39.12 52.77 38.48C52.56 38.19 52.65 38.27 52.29 38.12z
           M34.94 12.47L34.65 12.36V12.61L34.69 12.79H34.98L34.94 12.47z
           M12.42 44.55C12.95 43.86 13.47 43.17 14 42.48V38.24C14.26 37.46 15.27 36.38 15.7 35.69C15.74 35.45 15.78 35.21 15.82 34.96C13.79 33.84 11.75 32.71 9.75 31.69C9.67 30.96 9.58 30.23 9.5 29.51C7.6 28.44 7.66 26.92 5.98 26.11C5.46 26.01 5.31 26.33 4.64 26.47C4.37 25.95 4.41 24.97 4.16 24.29C3.95 25.18 3.75 26.07 3.55 26.96V27.57H4.4C4.44 28.58 4.48 29.59 4.52 30.6C4.28 30.68 4.03 30.76 3.79 30.84C3.65 30.58 3.59 30.77 3.57 30.98C3.57 30.97 3.58 30.97 3.59 30.96C3.57 31.51 3.54 31.23 3.57 30.98C2.6 31.69 3.72 37.19 4.52 37.15C4.64 37.11 4.76 37.07 4.88 37.03C5.01 37.11 5.13 37.19 5.25 37.27C5.83 40.39 6.35 39.1 7.19 40.79C7.78 41.96 7.63 44.3 8.17 45.52C8.65 45.92 9.14 46.32 9.63 46.73C9.71 47.21 9.79 47.7 9.87 48.18C10.5 49.35 11.84 50.48 12.54 51.58H12.79C12.91 51.42 13.03 51.26 13.15 51.09C11.99 48.67 13 45.82 12.42 44.55z
           M40.98 57.64C38.72 59.25 34.52 57.33 31.38 58.37C31.14 58.61 30.9 58.86 30.65 59.1H24.09C23.85 58.86 23.6 58.61 23.36 58.37C22.75 58.33 22.14 58.29 21.54 58.25C21.25 57.93 20.97 57.6 20.69 57.28C19.1 56.63 17.49 56.43 16.19 55.46C15.69 55.09 15.28 53.76 14.49 53.16C14.02 53.51 14 53.68 13.39 53.64C13.91 54.68 15.25 55.2 16.19 55.82C20.21 58.5 30.55 62.25 40.42 59.1C42.02 58.58 42.48 57.66 42.28 57.72C41.92 57.56 41.35 57.8 40.98 57.64z
           M34.48 13.97L34.73 13.78L35.11 13.9V13.14L34.72 12.97L34.44 13.25L34.48 13.97z
           M49.74 9.62C49.34 9.32 49.47 9.52 49.01 9.74C48.64 9.28 48.47 9.35 48.72 8.81C46.31 7.48 41.6 4.12 35.76 3.55C36.58 4.27 37.19 4.08 38.43 4.53C38.59 4.65 38.76 4.77 38.92 4.89V5.01C38.02 5.71 35.46 4.85 34.2 5.3C33.64 5.6 33.93 7.12 33.76 7.82C34.04 8.15 35.53 7.74 35.73 7.35C35.89 7.35 35.42 6.08 36.53 6.4C36.77 6.88 37.12 7.72 37.09 8.53C36.93 8.65 36.77 8.77 36.61 8.89C36.38 8.72 35.71 8.78 35.55 8.53C35.44 8.31 34 7.81 34.42 8.28C34.39 8.41 34.35 8.52 34.31 8.61C33.63 10.11 31.63 7.94 30.96 11.91C30.15 12.07 29.27 12.61 28.46 12.77C28.29 14.01 29.01 14.07 29.19 15.32C29.17 15.74 30.08 15.52 30.04 15.32C31.93 14.39 31.33 12.47 33.71 12.61C34.49 12.14 34.11 12.32 34.66 11.68C36.03 12.03 36.46 13.72 36.64 14.81C36.92 14.81 36.65 13.85 37.58 14.09C36.54 12.97 36.46 11.65 36.46 11.65C36.46 11.65 38.04 12.61 38.31 13.74C38.48 15.3 39.1 15.13 39.75 14.34C40.03 14.04 40.19 13.61 40.3 13.12C41.05 12.93 41.01 14.58 40.47 14.71C41 15.2 42.16 14.35 42.68 14.83C44.7 15.68 44.68 14.4 45.84 16.41C44.86 17.79 42.09 16.43 40.25 17.02C39.8 17.16 39.82 17.5 39.16 17.62C37.32 16.31 33.44 13.5 30.65 15.93H30.16C29.4 15.52 28.76 17.29 27.13 18.59C25.57 19.45 25.21 19.09 24.82 21.14C24 21.8 24.44 21.92 24.94 22.72C24.74 24.27 23.78 24.15 23.96 26.11C24.98 27 25.99 27.89 27 28.78C29.74 29.82 31.92 27.62 33.81 28.05C35.07 28.34 36.08 29.53 36.97 30.24C36.84 31.07 36.36 31.19 36.24 31.93C36.15 32.5 38.56 36.71 38.92 37.39C38.37 38.04 37.15 40.32 38.06 41.88C38.39 42.16 38.71 42.44 39.04 42.73C39.92 45.26 38.4 45.06 40.13 47.34C44.8 47.51 43.49 44.98 46.45 43.82C47.15 39.97 48.27 41.4 49.25 39.33C49.29 37.47 49.33 35.61 49.37 33.75C49.89 32.3 52.03 30.86 52.77 29.51V26.96C52.21 26.66 51.54 26.56 50.58 26.6C50.5 26.36 50.42 26.11 50.34 25.87C51.73 25.19 49.77 24.54 49.61 24.54C48.43 23.66 46.29 20.43 45.96 18.72C46.04 18.67 46.13 18.63 46.21 18.59C47.38 19.14 49.67 22.14 50.22 23.32C50.17 22.91 51.83 25.73 53.62 23.32C54.26 20.25 53.37 21.47 52.04 20.41C51.47 19.73 50.9 19.04 50.34 18.35V17.99C50.46 17.91 50.58 17.83 50.7 17.75C51.86 18.52 53.32 19.36 55.2 19.32C55.95 20.5 57.18 22.23 57.51 23.57C58.03 23.73 58.15 23.97 58.67 24.13C58.43 24.54 58.6 24.86 58.36 25.26C58.53 26.73 59.44 27.88 59.81 28.99C59.81 31.05 59.98 33.67 59.9 34.36C59.82 35.05 59.49 35.57 59.21 35.94C59.21 37.07 58.84 38.65 58.84 39.78C59.15 38.85 58.6 40.53 58.93 40.34C63.16 30 57.03 14.35 49.74 9.62z
           M44.64 13.23C44.19 13.3 44.25 12.53 44.09 12.53C42.91 11.66 41.4 14.08 41.08 12.36C41.16 12.32 41.49 10.89 41.58 10.85C42.75 11.4 44.08 10.27 44.63 11.45C44.67 11.77 45.73 12.41 45.77 12.73C45.69 12.82 45.08 13.17 44.64 13.23z
           M28.88 7.76C28.56 7.8 28.59 8.3 28.59 8.3L28.89 8.82C28.89 8.82 28.91 9.06 29.27 8.95C29.63 8.84 29.41 8.22 29.41 8.22C29.41 8.22 29.2 7.73 28.88 7.76z"
  />
  <linearGradient id="gradient1" gradientUnits="userSpaceOnUse" x1="10.78" y1="12.45" x2="30.76" y2="32.43">
   <stop offset="0" stop-color="#ffffff"/>
   <stop offset="1" stop-color="#ffffff" stop-opacity="0"/>
  </linearGradient>
  <path style="fill:url(#gradient1)"
        d="M31.13 3.59C15.8 3.59 3.37 16.03 3.37 31.36C3.37 73.69 64.68 3.59 31.13 3.59z"
  />
 </g>
</svg>
