<?xml version="1.0" encoding="UTF-8" standalone="yes"?>
<svg version="1.1" width="64" height="64" color-interpolation="linearRGB"
     xmlns:svg="http://www.w3.org/2000/svg" xmlns="http://www.w3.org/2000/svg">
 <g>
  <path style="fill:#100000"
        d="M0.25 31.78C0.25 49.14 14.36 63.25 31.71 63.25C49.07 63.25 63.18 49.14 63.18 31.78C63.18 14.43 49.07 0.31 31.71 0.31C14.36 0.31 0.25 14.43 0.25 31.78z"
        transform="matrix(0.857,0,0,0.857,5.0357,5.0457)"
  />
  <linearGradient id="gradient0" gradientUnits="userSpaceOnUse" x1="31.71" y1="60.27" x2="31.71" y2="3.29">
   <stop offset="0" stop-color="#10a3ec"/>
   <stop offset="1" stop-color="#0c7ab1"/>
  </linearGradient>
  <path style="fill:url(#gradient0)"
        d="M31.71 3.29C15.98 3.29 3.23 16.05 3.23 31.79C3.23 47.52 15.98 60.27 31.71 60.27C47.45 60.27 60.2 47.52 60.2 31.79C60.2 16.05 47.45 3.29 31.71 3.29z"
        transform="matrix(0.857,0,0,0.857,5.0357,5.0457)"
  />
  <path style="fill:#a7e0fd"
        d="M17.39 9.5C17.94 8.63 18.29 7.61 18.5 6.59C18.42 6.59 17.61 7.15 17.53 7.15C15.3 8.6 11.44 11.05 9.86 13.61C9.75 13.73 9.61 13.85 9.5 13.97C10.73 13.9 16.97 10.17 17.39 9.5z
           M9.38 15.8V15.43C9.18 15.23 8.97 15.03 8.77 14.82C7.3 17.34 5.5 19.69 4.63 22.84C7.26 21.31 6.69 17.86 9.38 15.8z
           M35.24 14.4L36.13 14.85L36.25 14.27L35.24 14.4z
           M29.71 9.57C30.32 9.61 31.02 10.23 31.37 9.61C31.54 9.27 31.67 9.07 31.5 8.64C31.27 8.27 30.37 7.17 29.89 7.03C29.34 7.42 30.93 8.92 29.71 9.57z
           M22.51 5.36C22.87 5.61 22.82 5.48 23 5.98C23.5 6.21 24.35 6.26 25.18 6.21C26.52 4.63 27.04 5.98 28.7 5.13C29.31 4.65 29.92 4.15 30.53 3.68C31.71 3.14 32.75 3.92 33.33 4.4C34.38 4.23 34.38 3.73 35.38 3.54C34.02 2.97 31.34 3.27 29.55 3.3C28.59 3.43 27.61 3.54 26.63 3.68C24.28 4.17 21.3 4.82 19.59 6.09H19.35C20.75 6.73 21.87 5.86 22.51 5.36z
           M52.29 38.11C51.59 38.97 50.15 39.86 50.45 41.27V42.59C51.15 42.29 52.97 39.11 52.77 38.47C52.56 38.18 52.65 38.27 52.29 38.11z
           M34.93 12.47L34.65 12.35V12.6L34.68 12.78H34.97L34.93 12.47z
           M12.42 44.54C12.94 43.86 13.47 43.16 14 42.47V38.24C14.26 37.45 15.27 36.38 15.69 35.68C15.73 35.45 15.77 35.2 15.81 34.95C13.78 33.84 11.75 32.7 9.75 31.69C9.67 30.95 9.57 30.22 9.5 29.51C7.59 28.44 7.65 26.92 5.98 26.11C5.46 26.01 5.3 26.32 4.63 26.46C4.36 25.95 4.4 24.96 4.15 24.29C3.95 25.18 3.75 26.06 3.54 26.95V27.56H4.4C4.44 28.57 4.48 29.59 4.51 30.6C4.28 30.68 4.03 30.76 3.78 30.84C3.65 30.57 3.58 30.77 3.56 30.97C3.56 30.96 3.57 30.96 3.58 30.95C3.56 31.51 3.53 31.22 3.56 30.97C2.59 31.69 3.72 37.18 4.51 37.15C4.63 37.11 4.76 37.06 4.88 37.02C5.01 37.11 5.13 37.18 5.25 37.27C5.82 40.38 6.34 39.09 7.19 40.79C7.78 41.95 7.63 44.29 8.17 45.52C8.64 45.91 9.14 46.31 9.63 46.72C9.71 47.2 9.78 47.7 9.86 48.18C10.5 49.34 11.84 50.47 12.53 51.58H12.78C12.9 51.41 13.02 51.25 13.14 51.09C11.98 48.66 13 45.81 12.42 44.54z
           M40.97 57.63C38.72 59.25 34.52 57.33 31.37 58.36C31.13 58.61 30.89 58.86 30.64 59.09H24.09C23.85 58.86 23.6 58.61 23.36 58.36C22.75 58.33 22.13 58.29 21.54 58.25C21.25 57.93 20.96 57.59 20.69 57.27C19.1 56.63 17.48 56.43 16.19 55.45C15.68 55.09 15.27 53.75 14.48 53.15C14.02 53.5 14 53.68 13.39 53.63C13.9 54.68 15.25 55.2 16.19 55.81C20.2 58.5 30.54 62.25 40.41 59.09C42.02 58.58 42.47 57.65 42.27 57.72C41.91 57.56 41.34 57.79 40.97 57.63z
           M34.47 13.97L34.72 13.77L35.11 13.89V13.14L34.72 12.97L34.43 13.25L34.47 13.97z
           M49.74 9.61C49.34 9.31 49.47 9.52 49 9.73C48.63 9.27 48.47 9.35 48.72 8.81C46.31 7.48 41.59 4.11 35.75 3.54C36.58 4.26 37.18 4.07 38.43 4.53C38.59 4.65 38.75 4.76 38.91 4.88V5.01C38.02 5.71 35.45 4.84 34.2 5.3C33.63 5.59 33.93 7.11 33.75 7.82C34.04 8.14 35.52 7.73 35.72 7.34C35.88 7.34 35.41 6.07 36.52 6.4C36.77 6.88 37.11 7.71 37.09 8.52C36.93 8.64 36.77 8.77 36.61 8.89C36.38 8.72 35.7 8.77 35.54 8.52C35.43 8.31 34 7.8 34.41 8.27C34.38 8.4 34.34 8.52 34.31 8.6C33.63 10.1 31.62 7.94 30.95 11.9C30.14 12.06 29.27 12.6 28.45 12.77C28.29 14.01 29.01 14.06 29.19 15.31C29.17 15.73 30.07 15.52 30.04 15.31C31.93 14.39 31.32 12.47 33.7 12.6C34.49 12.14 34.11 12.31 34.65 11.68C36.02 12.02 36.45 13.72 36.63 14.81C36.91 14.81 36.65 13.85 37.58 14.09C36.54 12.97 36.45 11.64 36.45 11.64C36.45 11.64 38.04 12.6 38.31 13.73C38.47 15.3 39.09 15.13 39.75 14.34C40.02 14.03 40.18 13.6 40.29 13.11C41.04 12.93 41 14.57 40.47 14.71C41 15.19 42.15 14.35 42.68 14.82C44.7 15.68 44.68 14.39 45.84 16.4C44.86 17.79 42.09 16.43 40.25 17.02C39.79 17.15 39.81 17.5 39.15 17.62C37.31 16.3 33.43 13.5 30.64 15.93H30.15C29.39 15.52 28.76 17.29 27.12 18.59C25.56 19.45 25.2 19.09 24.81 21.13C24 21.79 24.44 21.92 24.94 22.71C24.73 24.27 23.78 24.14 23.95 26.11C24.97 27 25.98 27.88 27 28.78C29.73 29.81 31.92 27.62 33.81 28.04C35.06 28.34 36.08 29.53 36.97 30.23C36.84 31.06 36.36 31.19 36.24 31.93C36.15 32.5 38.56 36.7 38.91 37.38C38.36 38.04 37.15 40.31 38.06 41.88C38.38 42.15 38.7 42.43 39.04 42.72C39.91 45.25 38.4 45.06 40.13 47.34C44.79 47.5 43.49 44.97 46.45 43.81C47.15 39.97 48.27 41.4 49.25 39.33C49.29 37.47 49.33 35.61 49.36 33.75C49.88 32.29 52.02 30.86 52.77 29.51V26.95C52.2 26.65 51.54 26.55 50.58 26.6C50.5 26.36 50.41 26.11 50.34 25.87C51.72 25.19 49.77 24.54 49.61 24.54C48.43 23.65 46.29 20.43 45.95 18.71C46.04 18.67 46.13 18.62 46.2 18.59C47.38 19.13 49.66 22.13 50.22 23.31C50.16 22.9 51.83 25.72 53.61 23.31C54.25 20.25 53.36 21.46 52.04 20.4C51.47 19.72 50.9 19.04 50.34 18.35V17.98C50.45 17.9 50.58 17.82 50.7 17.75C51.86 18.52 53.31 19.36 55.2 19.31C55.95 20.5 57.18 22.22 57.5 23.56C58.02 23.72 58.15 23.96 58.66 24.12C58.43 24.54 58.59 24.86 58.36 25.26C58.52 26.72 59.43 27.87 59.81 28.98C59.81 31.04 59.97 33.66 59.9 34.36C59.81 35.04 59.49 35.56 59.2 35.93C59.2 37.06 58.84 38.65 58.84 39.77C59.15 38.84 58.59 40.52 58.93 40.34C63.15 30 57.02 14.35 49.74 9.61z
           M44.63 13.22C44.18 13.3 44.25 12.52 44.09 12.52C42.9 11.65 41.4 14.07 41.08 12.35C41.15 12.31 41.49 10.89 41.58 10.85C42.75 11.39 44.08 10.27 44.63 11.44C44.66 11.77 45.72 12.4 45.77 12.72C45.68 12.81 45.08 13.17 44.63 13.22z
           M28.87 7.76C28.55 7.8 28.59 8.3 28.59 8.3L28.88 8.81C28.88 8.81 28.9 9.06 29.27 8.94C29.62 8.84 29.4 8.22 29.4 8.22C29.4 8.22 29.2 7.73 28.87 7.76z"
        transform="matrix(0.857,0,0,0.857,5.0357,5.0457)"
  />
  <linearGradient id="gradient1" gradientUnits="userSpaceOnUse" x1="10.77" y1="12.44" x2="30.76" y2="32.43">
   <stop offset="0" stop-color="#ffffff"/>
   <stop offset="1" stop-color="#ffffff" stop-opacity="0"/>
  </linearGradient>
  <path style="fill:url(#gradient1)"
        d="M31.12 3.58C15.8 3.58 3.36 16.03 3.36 31.36C3.36 73.69 64.68 3.58 31.12 3.58z"
        transform="matrix(0.857,0,0,0.857,5.0357,5.0457)"
  />
 </g>
</svg>
