<?xml version="1.0" encoding="UTF-8" standalone="yes"?>
<svg version="1.1" width="64" height="64" color-interpolation="linearRGB"
     xmlns:svg="http://www.w3.org/2000/svg" xmlns="http://www.w3.org/2000/svg">
 <g>
  <path style="fill:#000000; fill-opacity:0.4509"
        d="M5.24 32.28C5.24 47.15 17.34 59.25 32.21 59.25C47.08 59.25 59.18 47.15 59.18 32.28C59.18 17.41 47.08 5.31 32.21 5.31C17.34 5.31 5.24 17.41 5.24 32.28z"
        transform="matrix(1,0,0,1,3,3)"
  />
  <path style="fill:#100000"
        d="M5.24 32.28C5.24 47.15 17.34 59.25 32.21 59.25C47.08 59.25 59.18 47.15 59.18 32.28C59.18 17.41 47.08 5.31 32.21 5.31C17.34 5.31 5.24 17.41 5.24 32.28z"
  />
  <linearGradient id="gradient0" gradientUnits="userSpaceOnUse" x1="32.21" y1="56.69" x2="32.21" y2="7.86">
   <stop offset="0" stop-color="#10a3ec"/>
   <stop offset="1" stop-color="#0c7ab1"/>
  </linearGradient>
  <path style="fill:url(#gradient0)"
        d="M32.21 7.86C18.73 7.86 7.8 18.8 7.8 32.28C7.8 45.77 18.73 56.69 32.21 56.69C45.7 56.69 56.62 45.77 56.62 32.28C56.62 18.8 45.7 7.86 32.21 7.86z"
  />
  <path style="fill:#a7e0fd"
        d="M19.93 13.18C20.41 12.44 20.71 11.56 20.89 10.69C20.82 10.69 20.12 11.17 20.05 11.17C18.14 12.41 14.83 14.51 13.48 16.7C13.39 16.81 13.27 16.91 13.17 17.01C14.23 16.95 19.57 13.76 19.93 13.18z
           M13.07 18.58V18.26C12.9 18.09 12.72 17.92 12.55 17.74C11.29 19.9 9.74 21.92 9 24.61C11.25 23.3 10.76 20.35 13.07 18.58z
           M35.23 17.38L35.99 17.77L36.1 17.27L35.23 17.38z
           M30.49 13.24C31.01 13.28 31.61 13.81 31.91 13.28C32.06 12.99 32.17 12.81 32.03 12.45C31.83 12.13 31.06 11.19 30.65 11.07C30.18 11.4 31.54 12.69 30.49 13.24z
           M24.32 9.63C24.63 9.85 24.59 9.74 24.74 10.17C25.17 10.36 25.9 10.41 26.61 10.36C27.76 9.01 28.2 10.17 29.63 9.44C30.15 9.03 30.67 8.6 31.19 8.19C32.21 7.73 33.1 8.4 33.59 8.81C34.49 8.67 34.49 8.24 35.35 8.07C34.19 7.59 31.89 7.84 30.36 7.87C29.53 7.98 28.69 8.07 27.85 8.19C25.84 8.61 23.28 9.17 21.82 10.26H21.61C22.81 10.81 23.77 10.06 24.32 9.63z
           M49.84 37.7C49.24 38.44 48.01 39.2 48.27 40.41V41.54C48.87 41.28 50.43 38.56 50.25 38.01C50.07 37.76 50.15 37.84 49.84 37.7z
           M34.97 15.73L34.73 15.62V15.84L34.75 15.99H35L34.97 15.73z
           M15.67 43.21C16.12 42.63 16.57 42.03 17.03 41.44V37.81C17.25 37.14 18.12 36.22 18.48 35.62C18.51 35.42 18.55 35.21 18.58 34.99C16.84 34.04 15.1 33.06 13.39 32.2C13.32 31.56 13.23 30.94 13.17 30.33C11.54 29.41 11.59 28.11 10.16 27.42C9.71 27.33 9.57 27.6 9 27.72C8.77 27.28 8.8 26.43 8.59 25.86C8.42 26.62 8.24 27.37 8.06 28.14V28.66H8.8C8.84 29.53 8.87 30.4 8.9 31.26C8.7 31.33 8.48 31.4 8.27 31.47C8.16 31.24 8.1 31.41 8.08 31.58C8.08 31.57 8.09 31.57 8.1 31.56C8.08 32.04 8.06 31.8 8.08 31.58C7.25 32.2 8.22 36.9 8.9 36.88C9 36.84 9.11 36.8 9.21 36.77C9.32 36.84 9.43 36.9 9.53 36.98C10.02 39.65 10.46 38.54 11.19 40C11.7 40.99 11.57 43 12.03 44.05C12.44 44.39 12.86 44.73 13.28 45.08C13.35 45.49 13.41 45.92 13.48 46.33C14.03 47.33 15.18 48.29 15.77 49.24H15.98C16.09 49.1 16.19 48.96 16.29 48.82C15.3 46.74 16.17 44.3 15.67 43.21z
           M40.14 54.43C38.21 55.82 34.61 54.17 31.91 55.06C31.71 55.27 31.5 55.48 31.29 55.68H25.68C25.47 55.48 25.26 55.27 25.05 55.06C24.53 55.03 24 55 23.49 54.96C23.24 54.69 22.99 54.4 22.76 54.12C21.4 53.57 20.01 53.4 18.91 52.56C18.47 52.25 18.12 51.1 17.44 50.59C17.05 50.89 17.03 51.04 16.51 51C16.94 51.9 18.1 52.35 18.91 52.87C22.34 55.18 31.2 58.39 39.66 55.68C41.04 55.24 41.43 54.45 41.26 54.51C40.95 54.37 40.46 54.57 40.14 54.43z
           M34.57 17.01L34.79 16.84L35.12 16.94V16.3L34.79 16.16L34.54 16.4L34.57 17.01z
           M47.66 13.28C47.32 13.02 47.43 13.2 47.02 13.38C46.71 12.99 46.57 13.05 46.78 12.59C44.72 11.45 40.67 8.56 35.67 8.07C36.38 8.69 36.89 8.53 37.97 8.92C38.1 9.03 38.24 9.12 38.38 9.22V9.33C37.61 9.93 35.41 9.19 34.34 9.58C33.85 9.83 34.11 11.13 33.95 11.74C34.2 12.02 35.47 11.67 35.64 11.33C35.78 11.33 35.38 10.24 36.33 10.53C36.54 10.94 36.83 11.65 36.82 12.34C36.68 12.45 36.54 12.56 36.41 12.66C36.21 12.51 35.63 12.56 35.49 12.34C35.39 12.16 34.17 11.73 34.52 12.13C34.49 12.24 34.46 12.34 34.43 12.41C33.85 13.7 32.13 11.85 31.55 15.24C30.86 15.38 30.12 15.84 29.41 15.98C29.28 17.05 29.89 17.09 30.05 18.16C30.03 18.52 30.8 18.34 30.77 18.16C32.39 17.37 31.87 15.73 33.91 15.84C34.59 15.44 34.26 15.59 34.73 15.05C35.9 15.34 36.27 16.8 36.42 17.73C36.66 17.73 36.44 16.91 37.24 17.12C36.35 16.16 36.27 15.02 36.27 15.02C36.27 15.02 37.63 15.84 37.86 16.81C38 18.15 38.53 18.01 39.1 17.33C39.33 17.06 39.46 16.7 39.56 16.28C40.2 16.12 40.17 17.53 39.71 17.65C40.17 18.06 41.15 17.34 41.61 17.74C43.34 18.48 43.32 17.37 44.32 19.1C43.48 20.29 41.1 19.12 39.52 19.63C39.13 19.74 39.15 20.04 38.58 20.14C37.01 19.01 33.68 16.61 31.29 18.69H30.87C30.22 18.34 29.68 19.86 28.27 20.97C26.94 21.71 26.63 21.4 26.29 23.15C25.6 23.71 25.98 23.83 26.4 24.5C26.22 25.84 25.41 25.73 25.56 27.42C26.43 28.18 27.3 28.93 28.17 29.71C30.51 30.59 32.39 28.71 34.01 29.07C35.08 29.33 35.95 30.35 36.71 30.95C36.6 31.66 36.19 31.77 36.09 32.4C36.01 32.89 38.08 36.49 38.38 37.08C37.91 37.64 36.87 39.59 37.65 40.93C37.92 41.16 38.2 41.4 38.49 41.65C39.23 43.82 37.94 43.66 39.42 45.61C43.42 45.75 42.3 43.58 44.84 42.59C45.44 39.29 46.4 40.52 47.24 38.75C47.27 37.15 47.31 35.56 47.33 33.96C47.78 32.71 49.61 31.49 50.25 30.33V28.14C49.77 27.88 49.2 27.79 48.38 27.84C48.31 27.63 48.23 27.42 48.17 27.21C49.35 26.63 47.68 26.07 47.55 26.07C46.54 25.31 44.7 22.55 44.41 21.08C44.49 21.04 44.56 21 44.62 20.97C45.64 21.44 47.59 24.01 48.07 25.02C48.02 24.67 49.45 27.08 50.97 25.02C51.52 22.39 50.76 23.43 49.63 22.52C49.14 21.94 48.65 21.36 48.17 20.77V20.45C48.27 20.38 48.38 20.31 48.48 20.25C49.47 20.91 50.72 21.63 52.34 21.59C52.98 22.61 54.03 24.08 54.31 25.23C54.75 25.37 54.87 25.57 55.3 25.71C55.11 26.07 55.24 26.35 55.05 26.69C55.18 27.94 55.96 28.93 56.29 29.88C56.29 31.64 56.42 33.89 56.37 34.49C56.29 35.07 56.01 35.52 55.77 35.83C55.77 36.8 55.46 38.16 55.46 39.12C55.72 38.33 55.24 39.77 55.53 39.61C59.15 30.75 53.9 17.34 47.66 13.28z
           M43.28 16.37C42.89 16.44 42.95 15.77 42.82 15.77C41.8 15.02 40.51 17.1 40.24 15.62C40.3 15.59 40.59 14.37 40.66 14.34C41.67 14.8 42.81 13.84 43.28 14.84C43.3 15.13 44.21 15.67 44.26 15.94C44.18 16.02 43.66 16.33 43.28 16.37z
           M29.77 11.69C29.5 11.73 29.53 12.15 29.53 12.15L29.78 12.59C29.78 12.59 29.8 12.81 30.12 12.7C30.42 12.62 30.23 12.09 30.23 12.09C30.23 12.09 30.06 11.67 29.77 11.69z"
  />
  <linearGradient id="gradient1" gradientUnits="userSpaceOnUse" x1="14.26" y1="15.7" x2="31.39" y2="32.83">
   <stop offset="0" stop-color="#ffffff"/>
   <stop offset="1" stop-color="#ffffff" stop-opacity="0"/>
  </linearGradient>
  <path style="fill:url(#gradient1)"
        d="M31.7 8.11C18.57 8.11 7.91 18.78 7.91 31.92C7.91 68.19 60.46 8.11 31.7 8.11z"
  />
 </g>
</svg>
