<?xml version="1.0" encoding="UTF-8" standalone="yes"?>
<svg version="1.1" width="64" height="64" color-interpolation="linearRGB"
     xmlns:svg="http://www.w3.org/2000/svg" xmlns="http://www.w3.org/2000/svg">
 <g>
  <path style="fill:none; stroke:#000000; stroke-opacity:0.4; stroke-width:4; stroke-linecap:round; stroke-linejoin:round"
        d="M34 4V22L4 4V42L34 24V42H42V4H34z"
        transform="matrix(1.409,0,0,1.409,1,1)"
  />
  <path style="fill:none; stroke:#000000; stroke-width:4; stroke-linecap:round; stroke-linejoin:round"
        d="M32 2V20L2 2V40L32 22V40H40V2H32z"
        transform="matrix(1.409,0,0,1.409,1,1)"
  />
  <linearGradient id="gradient0" gradientUnits="userSpaceOnUse" x1="128" y1="1.99" x2="128" y2="40">
   <stop offset="0" stop-color="#808080"/>
   <stop offset="1" stop-color="#282828"/>
  </linearGradient>
  <path style="fill:url(#gradient0)"
        d="M32 2V20L2 2V40L32 22V40H40V2H32z"
        transform="matrix(1.409,0,0,1.409,1,1)"
  />
 </g>
</svg>
