<?xml version="1.0" encoding="UTF-8" standalone="yes"?>
<svg version="1.1" width="64" height="64" color-interpolation="linearRGB"
     xmlns:svg="http://www.w3.org/2000/svg" xmlns="http://www.w3.org/2000/svg">
 <g>
  <path style="fill:none; stroke:#000000; stroke-opacity:0.4; stroke-width:5.6385; stroke-linecap:round; stroke-linejoin:round"
        d="M60.2 33.4L32.01 6.62V30.58L6.63 6.62V60.19L32.01 36.22V60.19L60.2 33.4z"
        transform="matrix(0.8708,0,0,0.8708,4.1292,4.133)"
  />
  <path style="fill:none; stroke:#000000; stroke-width:5.6385; stroke-linecap:round; stroke-linejoin:round"
        d="M57.38 30.58L29.19 3.8V27.76L3.81 3.8V57.37L29.19 33.4V57.37L57.38 30.58z"
        transform="matrix(0.8708,0,0,0.8708,4.1292,4.133)"
  />
  <linearGradient id="gradient0" gradientUnits="userSpaceOnUse" x1="181.44" y1="3.79" x2="181.44" y2="57.37">
   <stop offset="0" stop-color="#808080"/>
   <stop offset="1" stop-color="#282828"/>
  </linearGradient>
  <path style="fill:url(#gradient0)"
        d="M57.38 30.58L29.19 3.8V27.76L3.81 3.8V57.37L29.19 33.4V57.37L57.38 30.58z"
        transform="matrix(0.8708,0,0,0.8708,4.1292,4.133)"
  />
 </g>
</svg>
