<?xml version="1.0" encoding="UTF-8" standalone="yes"?>
<svg version="1.1" width="64" height="64" color-interpolation="linearRGB"
     xmlns:svg="http://www.w3.org/2000/svg" xmlns="http://www.w3.org/2000/svg">
 <g>
  <path style="fill:none; stroke:#000000; stroke-opacity:0.4; stroke-width:10; stroke-linecap:round; stroke-linejoin:round"
        d="M35.91 18.96C37.83 21.1 39 23.9 39 27C39 33.62 33.62 39 27 39H19C12.36 39 7 33.62 7 27C7 20.37 12.36 15 19 15"
        transform="matrix(1.3863,0,0,1.3335,2.0002,1.3233)"
  />
  <path style="fill:none; stroke:#000000; stroke-opacity:0.4; stroke-width:4; stroke-linejoin:round"
        d="M19 5.98L28 14.98L19 23.98V5.98z"
        transform="matrix(1.3863,0,0,1.3335,2.0002,1.3233)"
  />
  <path style="fill:none; stroke:#000000; stroke-width:4; stroke-linejoin:round"
        d="M17 3.99L26 12.98L17 21.98V3.99z"
        transform="matrix(1.3863,0,0,1.3335,2.0002,1.3233)"
  />
  <path style="fill:none; stroke:#000000; stroke-width:10; stroke-linecap:round; stroke-linejoin:round"
        d="M33.91 16.96C35.83 19.1 37 21.9 37 25C37 31.62 31.62 37 25 37H17C10.36 37 5 31.62 5 25C5 18.37 10.36 13 17 13"
        transform="matrix(1.3863,0,0,1.3335,2.0002,1.3233)"
  />
  <linearGradient id="gradient0" gradientUnits="userSpaceOnUse" x1="128" y1="4" x2="128" y2="40">
   <stop offset="0" stop-color="#808080"/>
   <stop offset="1" stop-color="#545454"/>
  </linearGradient>
  <path style="fill:none; stroke:url(#gradient0); stroke-width:6; stroke-linecap:round; stroke-linejoin:round"
        d="M33.91 16.96C35.83 19.1 37 21.9 37 25C37 31.62 31.62 37 25 37H17C10.36 37 5 31.62 5 25C5 18.37 10.36 13 17 13"
        transform="matrix(1.3863,0,0,1.3335,2.0002,1.3233)"
  />
  <linearGradient id="gradient1" gradientUnits="userSpaceOnUse" x1="128" y1="4" x2="128" y2="40">
   <stop offset="0" stop-color="#808080"/>
   <stop offset="1" stop-color="#545454"/>
  </linearGradient>
  <path style="fill:url(#gradient1)"
        d="M17 3.99L26 12.98L17 21.98V3.99z"
        transform="matrix(1.3863,0,0,1.3335,2.0002,1.3233)"
  />
 </g>
</svg>
