<?xml version="1.0" encoding="UTF-8" standalone="yes"?>
<svg version="1.1" width="64" height="64" color-interpolation="linearRGB"
     xmlns:svg="http://www.w3.org/2000/svg" xmlns="http://www.w3.org/2000/svg">
 <g>
  <path style="fill:none; stroke:#000000; stroke-opacity:0.4; stroke-width:5.636; stroke-linecap:round; stroke-linejoin:round"
        d="M33.4 6.63C18.61 6.63 6.63 18.61 6.63 33.4C6.63 48.17 18.61 60.17 33.4 60.17C48.17 60.17 60.17 48.17 60.17 33.4C60.17 18.61 48.17 6.63 33.4 6.63z"
        transform="matrix(0.8709,0,0,0.8709,4.129,4.129)"
  />
  <path style="fill:none; stroke:#800000; stroke-width:5.636"
        d="M30.58 3.81C15.79 3.81 3.81 15.79 3.81 30.58C3.81 45.35 15.79 57.36 30.58 57.36C45.35 57.36 57.36 45.35 57.36 30.58C57.36 15.79 45.35 3.81 30.58 3.81z"
        transform="matrix(0.8709,0,0,0.8709,4.129,4.129)"
  />
  <linearGradient id="gradient0" gradientUnits="userSpaceOnUse" x1="181.35" y1="3.8" x2="181.35" y2="57.36">
   <stop offset="0" stop-color="#ffabab"/>
   <stop offset="1" stop-color="#d90000"/>
  </linearGradient>
  <path style="fill:url(#gradient0)"
        d="M30.58 3.81C15.79 3.81 3.81 15.79 3.81 30.58C3.81 45.35 15.79 57.36 30.58 57.36C45.35 57.36 57.36 45.35 57.36 30.58C57.36 15.79 45.35 3.81 30.58 3.81z"
        transform="matrix(0.8709,0,0,0.8709,4.129,4.129)"
  />
 </g>
</svg>
