<?xml version="1.0" encoding="UTF-8" standalone="yes"?>
<svg version="1.1" width="64" height="64" color-interpolation="linearRGB"
     xmlns:svg="http://www.w3.org/2000/svg" xmlns="http://www.w3.org/2000/svg">
 <g>
  <path style="fill:none; stroke:#000000; stroke-opacity:0.4; stroke-width:5.5192; stroke-linecap:round; stroke-linejoin:round"
        d="M27.6 6.63H11.39V60.17H27.6V6.63z"
        transform="matrix(0.8337,0,0,0.8707,4.9878,4.1368)"
  />
  <path style="fill:none; stroke:#005900; stroke-width:5.5192; stroke-linecap:round; stroke-linejoin:round"
        d="M24.89 3.81H8.69V57.36H24.89V3.81z"
        transform="matrix(0.8337,0,0,0.8707,4.9878,4.1368)"
  />
  <linearGradient id="gradient0" gradientUnits="userSpaceOnUse" x1="176.09" y1="3.8" x2="176.09" y2="57.36">
   <stop offset="0" stop-color="#80ff80"/>
   <stop offset="1" stop-color="#00b200"/>
  </linearGradient>
  <path style="fill:url(#gradient0)"
        d="M24.89 3.81H8.69V57.36H24.89V3.81z"
        transform="matrix(0.8337,0,0,0.8707,4.9878,4.1368)"
  />
  <path style="fill:none; stroke:#000000; stroke-opacity:0.4; stroke-width:5.5192; stroke-linecap:round; stroke-linejoin:round"
        d="M57.29 6.63H41.09V60.17H57.29V6.63z"
        transform="matrix(0.8337,0,0,0.8707,4.9878,4.1368)"
  />
  <path style="fill:none; stroke:#005900; stroke-width:5.5192; stroke-linecap:round; stroke-linejoin:round"
        d="M54.59 3.81H38.4V57.36H54.59V3.81z"
        transform="matrix(0.8337,0,0,0.8707,4.9878,4.1368)"
  />
  <linearGradient id="gradient1" gradientUnits="userSpaceOnUse" x1="205.8" y1="3.8" x2="205.8" y2="57.36">
   <stop offset="0" stop-color="#80ff80"/>
   <stop offset="1" stop-color="#00b200"/>
  </linearGradient>
  <path style="fill:url(#gradient1)"
        d="M54.59 3.81H38.4V57.36H54.59V3.81z"
        transform="matrix(0.8337,0,0,0.8707,4.9878,4.1368)"
  />
 </g>
</svg>
