<?xml version="1.0" encoding="UTF-8" standalone="yes"?>
<svg version="1.1" width="64" height="64" color-interpolation="linearRGB"
     xmlns:svg="http://www.w3.org/2000/svg" xmlns="http://www.w3.org/2000/svg">
 <g>
  <path style="fill:none; stroke:#000000; stroke-opacity:0.4; stroke-width:1.7684; stroke-linecap:round; stroke-linejoin:round"
        d="M50.69 26.29C46.05 26.29 42.29 30.05 42.29 34.69C42.29 39.33 46.05 43.09 50.69 43.09C55.33 43.09 59.09 39.33 59.09 34.69C59.09 30.05 55.33 26.29 50.69 26.29V26.29V26.29z"
  />
  <path style="fill:none; stroke:#000000; stroke-width:4.6838"
        d="M49.03 24.63C44.39 24.63 40.63 28.39 40.63 33.03C40.63 37.66 44.39 41.43 49.03 41.43C53.66 41.43 57.43 37.66 57.43 33.03C57.43 28.39 53.66 24.63 49.03 24.63V24.63V24.63z"
  />
  <linearGradient id="gradient0" gradientUnits="userSpaceOnUse" x1="59.95" y1="28.58" x2="59.95" y2="40.01">
   <stop offset="0" stop-color="#808080"/>
   <stop offset="1" stop-color="#545454"/>
  </linearGradient>
  <path style="fill:url(#gradient0)"
        d="M49.03 24.63C44.39 24.63 40.63 28.39 40.63 33.03C40.63 37.66 44.39 41.43 49.03 41.43C53.66 41.43 57.43 37.66 57.43 33.03C57.43 28.39 53.66 24.63 49.03 24.63V24.63V24.63z"
  />
  <path style="fill:none; stroke:#000000; stroke-opacity:0.4; stroke-width:3.5924; stroke-linecap:round; stroke-linejoin:round"
        d="M35.53 35.41C31.67 39.17 27.82 42.93 23.96 46.69C23.96 44.34 23.96 41.99 23.96 39.64C18.04 39.64 12.13 39.64 6.21 39.64C6.21 36.58 6.21 33.53 6.21 30.47C12.13 30.47 18.04 30.47 23.96 30.47C23.96 28.12 23.96 25.77 23.96 23.42C27.82 27.41 31.67 31.41 35.53 35.41V35.41V35.41z"
  />
  <path style="fill:none; stroke:#000000; stroke-width:4.8002; stroke-linecap:round; stroke-linejoin:round"
        d="M34.76 33.29C30.9 37.05 27.04 40.82 23.19 44.58C23.19 42.23 23.19 39.87 23.19 37.52C17.27 37.52 11.35 37.52 5.44 37.52C5.44 34.47 5.44 31.41 5.44 28.35C11.35 28.35 17.27 28.35 23.19 28.35C23.19 26 23.19 23.65 23.19 21.3C27.04 25.3 30.9 29.29 34.76 33.29V33.29V33.29z"
  />
  <linearGradient id="gradient1" gradientUnits="userSpaceOnUse" x1="47.93" y1="24.41" x2="47.93" y2="46.79">
   <stop offset="0" stop-color="#808080"/>
   <stop offset="1" stop-color="#545454"/>
  </linearGradient>
  <path style="fill:url(#gradient1)"
        d="M34.76 33.29C30.9 37.05 27.04 40.82 23.19 44.58C23.19 42.23 23.19 39.87 23.19 37.52C17.27 37.52 11.35 37.52 5.44 37.52C5.44 34.47 5.44 31.41 5.44 28.35C11.35 28.35 17.27 28.35 23.19 28.35C23.19 26 23.19 23.65 23.19 21.3C27.04 25.3 30.9 29.29 34.76 33.29V33.29V33.29z"
  />
 </g>
</svg>
