<?xml version="1.0" encoding="UTF-8" standalone="yes"?>
<svg version="1.1" width="64" height="64" color-interpolation="linearRGB"
     xmlns:svg="http://www.w3.org/2000/svg" xmlns="http://www.w3.org/2000/svg">
 <g>
  <path style="fill:#000000; fill-opacity:0.4"
        d="M22.97 3C11.93 3 2.99 11.93 2.99 23C2.99 34.02 11.93 43 22.97 43C34.02 43 43 34.02 43 23C43 11.93 34.02 3 22.97 3z
           M27 23C27 25.2 25.2 27 23 27C20.78 27 19 25.2 19 23C19 20.78 20.78 19 23 19C25.2 19 27 20.78 27 23z"
        transform="matrix(1.3022,0,0,1.3023,4.003,4)"
  />
  <linearGradient id="gradient0" gradientUnits="userSpaceOnUse" x1="128" y1="1.99" x2="128" y2="40">
   <stop offset="0" stop-color="#808080"/>
   <stop offset="1" stop-color="#282828"/>
  </linearGradient>
  <path style="fill:url(#gradient0)"
        d="M20.97 1C9.93 1 0.99 9.93 0.99 21C0.99 32.02 9.93 41 20.97 41C32.02 41 41 32.02 41 21C41 9.93 32.02 1 20.97 1z
           M25 21C25 23.2 23.2 25 21 25C18.78 25 17 23.2 17 21C17 18.78 18.78 17 21 17C23.2 17 25 18.78 25 21z"
        transform="matrix(1.3022,0,0,1.3023,4.003,4)"
  />
  <path style="fill:none; stroke:#000000; stroke-width:2; stroke-linecap:round; stroke-linejoin:round"
        d="M20.97 1C9.93 1 0.99 9.93 0.99 21C0.99 32.02 9.93 41 20.97 41C32.02 41 41 32.02 41 21C41 9.93 32.02 1 20.97 1z
           M25 21C25 23.2 23.2 25 21 25C18.78 25 17 23.2 17 21C17 18.78 18.78 17 21 17C23.2 17 25 18.78 25 21z"
        transform="matrix(1.3022,0,0,1.3023,4.003,4)"
  />
  <linearGradient id="gradient1" gradientUnits="userSpaceOnUse" x1="128" y1="1.99" x2="128" y2="40">
   <stop offset="0" stop-color="#ffffff"/>
   <stop offset="1" stop-color="#e5e5e5"/>
  </linearGradient>
  <path style="fill:url(#gradient1)"
        d="M28 21H39C39 26 36.84 30.34 33.56 33.58L26 26C27.22 24.76 28 23 28 21z
           M14 21H3C3 16 5.15 11.64 8.43 8.42L16 16C14.76 17.22 14 19 14 21z"
        transform="matrix(1.3022,0,0,1.3023,4.003,4)"
  />
 </g>
</svg>
