<?xml version="1.0" encoding="UTF-8" standalone="yes"?>
<svg version="1.1" width="64" height="64" color-interpolation="linearRGB"
     xmlns:svg="http://www.w3.org/2000/svg" xmlns="http://www.w3.org/2000/svg">
 <g>
  <path style="fill:none; stroke:#000000; stroke-opacity:0.4; stroke-width:4; stroke-linecap:round; stroke-linejoin:round"
        d="M42 23L22 4V21L4 4V42L22 25V42L42 23z"
        transform="matrix(1.4097,0,0,1.4096,1,0.9874)"
  />
  <path style="fill:none; stroke:#000000; stroke-width:4; stroke-linecap:round; stroke-linejoin:round"
        d="M40 21L20 2V19L2 2V40L20 23V40L40 21z"
        transform="matrix(1.4097,0,0,1.4096,1,0.9874)"
  />
  <linearGradient id="gradient0" gradientUnits="userSpaceOnUse" x1="128" y1="1.99" x2="128" y2="40">
   <stop offset="0" stop-color="#808080"/>
   <stop offset="1" stop-color="#282828"/>
  </linearGradient>
  <path style="fill:url(#gradient0)"
        d="M40 21L20 2V19L2 2V40L20 23V40L40 21z"
        transform="matrix(1.4097,0,0,1.4096,1,0.9874)"
  />
 </g>
</svg>
