<?xml version="1.0" encoding="UTF-8" standalone="yes"?>
<svg version="1.1" width="64" height="64" color-interpolation="linearRGB"
     xmlns:svg="http://www.w3.org/2000/svg" xmlns="http://www.w3.org/2000/svg">
 <g>
  <path style="fill:none; stroke:#010101; stroke-opacity:0.5019; stroke-width:8"
        d="M4 60H60L32 4L4 60z"
        transform="matrix(0.8559,0,0,0.8559,6.11,6.9319)"
  />
  <path style="fill:none; stroke:#674502; stroke-width:8"
        d="M4 60H60L32 4L4 60z"
        transform="matrix(0.8559,0,0,0.8559,3.11,4.9319)"
  />
  <path style="fill:#ffa21d"
        d="M4 60H60L32 4L4 60z"
        transform="matrix(0.8559,0,0,0.8559,3.11,4.9319)"
  />
  <path style="fill:none; stroke:#da8700; stroke-width:4"
        d="M4 60H60L32 4L4 60z"
        transform="matrix(0.8559,0,0,0.8559,3.11,4.9319)"
  />
  <path style="fill:#da8700"
        d="M32 47C29.78 47 28 48.54 28 50.5C28 52.43 29.78 54 32 54C34.2 54 36 52.43 36 50.5C36 48.54 34.2 47 32 47z
           M37 24L34 42V45H30V42L27 24H37z"
        transform="matrix(0.8559,0,0,0.8559,3.11,4.9319)"
  />
  <path style="fill:#ffffff"
        d="M32 47C29.78 47 28 48.54 28 50.5C28 52.43 29.78 54 32 54C34.2 54 36 52.43 36 50.5C36 48.54 34.2 47 32 47z
           M37 24L34 42V45H30V42L27 24H37z"
        transform="matrix(0.8559,0,0,0.8559,3.11,4.9319)"
  />
 </g>
</svg>
