<?xml version="1.0" encoding="UTF-8" standalone="yes"?>
<svg version="1.1" width="64" height="64" color-interpolation="linearRGB"
     xmlns:svg="http://www.w3.org/2000/svg" xmlns="http://www.w3.org/2000/svg">
 <g>
  <path style="fill:none; stroke:#000000; stroke-opacity:0.4; stroke-width:4; stroke-linecap:round; stroke-linejoin:round"
        d="M29 5L18 4V28H20V15L28 17L29 5z
           M12 20C7.57 20 4 23.57 4 28C4 32.4 7.57 36 12 36C16.4 36 20 32.4 20 28C20 23.57 16.4 20 12 20z"
        transform="matrix(1.6775,0,0,1.6317,6.0007,0.9937)"
  />
  <path style="fill:none; stroke:#000000; stroke-width:4; stroke-linecap:round; stroke-linejoin:round"
        d="M10 18C5.57 18 2 21.57 2 26C2 30.4 5.57 34 10 34C14.4 34 18 30.4 18 26C18 21.57 14.4 18 10 18z
           M26 3L16 2V26H18V12L25 14L26 3z"
        transform="matrix(1.6775,0,0,1.6317,6.0007,0.9937)"
  />
  <linearGradient id="gradient0" gradientUnits="userSpaceOnUse" x1="128" y1="1.99" x2="128" y2="40">
   <stop offset="0" stop-color="#808080"/>
   <stop offset="1" stop-color="#282828"/>
  </linearGradient>
  <path style="fill:url(#gradient0)"
        d="M10 18C5.57 18 2 21.57 2 26C2 30.4 5.57 34 10 34C14.4 34 18 30.4 18 26C18 21.57 14.4 18 10 18z
           M26 3L16 2V26H18V12L25 14L26 3z"
        transform="matrix(1.6775,0,0,1.6317,6.0007,0.9937)"
  />
 </g>
</svg>
