<?xml version="1.0" encoding="UTF-8" standalone="yes"?>
<svg version="1.1" width="64" height="64" color-interpolation="linearRGB"
     xmlns:svg="http://www.w3.org/2000/svg" xmlns="http://www.w3.org/2000/svg">
 <g>
  <path style="fill:#000000; fill-opacity:0.4078"
        d="M17.57 45.62L6.72 56.49
           M31.13 15.7L22.09 24.77C18.47 28.39 15.76 43.8 15.76 43.8L19.38 47.43C19.38 47.43 32.94 42.9 36.55 39.27L45.59 30.21L31.13 15.7z
           M52.37 11.62L53.27 10.72L49.21 6.64L47.99 7.23L46.49 5.73L43.78 8.45L42.88 7.54L36.41 14.01L31.8 16.36L43.78 28.39L56.44 15.7L52.37 11.62z
           M16.67 44.71L5.82 55.59
           M17.57 45.62L6.72 56.49
           M18.47 46.52L7.63 57.4
           M42.88 7.54L32.94 17.52L40.17 24.77L50.11 14.8L42.88 7.54z
           M46.49 5.73L43.78 8.45L51.01 15.7L53.73 12.98L46.49 5.73z
           M53.73 12.98L51.01 15.7L50.11 14.8L40.17 24.77L43.78 28.39L56.44 15.7L53.73 12.98z
           M49.21 13.89L51.92 11.17L48.3 7.54L45.59 10.26L49.21 13.89z
           M41.97 13.87L35.65 20.23L37.46 22.05L43.78 15.7L44.69 16.61L48.3 12.98L44.69 9.36L41.07 12.98L41.97 13.87z
           M53.27 10.72L52.82 10.26L43.78 14.8V15.25L51.92 11.17L52.37 11.62L53.27 10.72z
           M40.17 11.17L43.78 14.8V15.25L40.17 11.62V11.17z
           M49.21 6.64L40.17 11.17L43.78 14.8L52.82 10.26L49.21 6.64z
           M42.88 10.72L31.8 16.36L33.6 18.18L44.69 12.53L42.88 10.72z
           M33.6 18.18L33.89 18.48L44.69 12.98V12.53L33.6 18.18z
           M31.13 15.7L22.09 24.77C18.47 28.39 15.76 43.8 15.76 43.8L17.57 45.62C17.57 45.62 27.51 37.46 31.13 33.83L40.17 24.77L31.13 15.7z
           M40.17 24.77L31.13 33.83C27.51 37.46 17.57 45.62 17.57 45.62L19.38 47.43C19.38 47.43 32.94 42.9 36.55 39.27L45.59 30.21L40.17 24.77z
           M38.36 26.58C37.46 27.49 32.03 27.49 27.51 23.86C29.32 25.67 32.03 25.67 33.84 25.67C35.65 25.67 38.36 24.77 39.26 23.86L41.98 26.58C41.07 27.49 38.36 26.58 38.36 26.58z
           M27.51 14.8C26.61 15.7 25.7 17.52 25.7 18.42C25.7 19.33 25.7 22.05 27.51 23.86C29.32 25.67 32.03 25.67 33.84 25.67C35.65 25.67 38.36 24.77 39.26 23.86L28.97 13.64L27.51 14.8z
           M16.73 41.89L20.93 45.69L17.57 40.36L22.61 44.93L17.57 38.08L24.3 44.17L18.41 36.56L25.98 43.41
           M18.41 34.28L27.66 42.65L19.25 32.76L29.34 41.89
           M58.95 44.73L54.96 40.93L49.48 46.16L44 40.93L40.02 44.73L45.5 49.96L40.02 55.19L44 58.99L49.48 53.76L54.96 58.99L58.95 55.19L53.47 49.96L58.95 44.73z
           M57.95 43.78L53.97 39.98L48.49 45.21L43 39.98L39.02 43.78L44.5 49.01L39.02 54.24L43 58.04L48.49 52.82L53.97 58.04L57.95 54.24L52.48 49.01L57.95 43.78z
           M57.95 43.78L53.97 39.98L48.49 45.21L43 39.98L39.02 43.78L44.5 49.01L39.02 54.24L43 58.04L48.49 52.82L53.97 58.04L57.95 54.24L52.48 49.01L57.95 43.78z"
        transform="matrix(1,0,0,1,2,3)"
  />
  <linearGradient id="gradient0" gradientUnits="userSpaceOnUse" x1="25.95" y1="61" x2="18.19" y2="68.33">
   <stop offset="0" stop-color="#000000"/>
   <stop offset="1" stop-color="#000000" stop-opacity="0"/>
  </linearGradient>
  <path style="fill:none; stroke:url(#gradient0); stroke-width:7.2416"
        d="M17.57 45.62L6.72 56.49"
  />
  <path style="fill:none; stroke:#000000; stroke-width:3.6208"
        d="M31.13 15.7L22.09 24.77C18.47 28.39 15.76 43.8 15.76 43.8L19.38 47.43C19.38 47.43 32.94 42.9 36.55 39.27L45.59 30.21L31.13 15.7z"
  />
  <path style="fill:none; stroke:#000000; stroke-width:3.6208"
        d="M52.37 11.62L53.27 10.72L49.21 6.64L47.99 7.23L46.49 5.73L43.78 8.45L42.88 7.54L36.41 14.01L31.8 16.36L43.78 28.39L56.44 15.7L52.37 11.62z"
  />
  <linearGradient id="gradient1" gradientUnits="userSpaceOnUse" x1="25.05" y1="60.09" x2="17.29" y2="67.43">
   <stop offset="0" stop-color="#ffcc00"/>
   <stop offset="1" stop-color="#ffcc00" stop-opacity="0"/>
  </linearGradient>
  <path style="fill:none; stroke:url(#gradient1); stroke-width:1.8104"
        d="M16.67 44.71L5.82 55.59"
  />
  <linearGradient id="gradient2" gradientUnits="userSpaceOnUse" x1="25.95" y1="61" x2="18.19" y2="68.33">
   <stop offset="0" stop-color="#ff7e00"/>
   <stop offset="1" stop-color="#ff7e00" stop-opacity="0"/>
  </linearGradient>
  <path style="fill:none; stroke:url(#gradient2); stroke-width:1.8104"
        d="M17.57 45.62L6.72 56.49"
  />
  <linearGradient id="gradient3" gradientUnits="userSpaceOnUse" x1="26.85" y1="61.91" x2="19.1" y2="69.24">
   <stop offset="0" stop-color="#ca5a00"/>
   <stop offset="1" stop-color="#ca5a00" stop-opacity="0"/>
  </linearGradient>
  <path style="fill:none; stroke:url(#gradient3); stroke-width:1.8104"
        d="M18.47 46.52L7.63 57.4"
  />
  <linearGradient id="gradient4" gradientUnits="userSpaceOnUse" x1="39.28" y1="24.51" x2="40.9" y2="18.43">
   <stop offset="0" stop-color="#b2b2b2"/>
   <stop offset="1" stop-color="#e5e5e5"/>
  </linearGradient>
  <path style="fill:url(#gradient4)"
        d="M42.88 7.54L32.94 17.52L40.17 24.77L50.11 14.8L42.88 7.54z"
  />
  <linearGradient id="gradient5" gradientUnits="userSpaceOnUse" x1="47.66" y1="14.8" x2="48.45" y2="11.82">
   <stop offset="0" stop-color="#b2b2b2"/>
   <stop offset="1" stop-color="#e5e5e5"/>
  </linearGradient>
  <path style="fill:url(#gradient5)"
        d="M46.49 5.73L43.78 8.45L51.01 15.7L53.73 12.98L46.49 5.73z"
  />
  <linearGradient id="gradient6" gradientUnits="userSpaceOnUse" x1="40.17" y1="20.69" x2="56.44" y2="20.69">
   <stop offset="0" stop-color="#6f8793"/>
   <stop offset="0.3253" stop-color="#6a7883"/>
   <stop offset="0.6509" stop-color="#a4b2bd"/>
   <stop offset="1" stop-color="#7c8a94"/>
  </linearGradient>
  <path style="fill:url(#gradient6)"
        d="M53.73 12.98L51.01 15.7L50.11 14.8L40.17 24.77L43.78 28.39L56.44 15.7L53.73 12.98z"
  />
  <linearGradient id="gradient7" gradientUnits="userSpaceOnUse" x1="47.99" y1="13.56" x2="48.55" y2="11.49">
   <stop offset="0" stop-color="#404040"/>
   <stop offset="1" stop-color="#808080"/>
  </linearGradient>
  <path style="fill:url(#gradient7)"
        d="M49.21 13.89L51.92 11.17L48.3 7.54L45.59 10.26L49.21 13.89z"
  />
  <linearGradient id="gradient8" gradientUnits="userSpaceOnUse" x1="40.3" y1="22.81" x2="41.64" y2="17.85">
   <stop offset="0" stop-color="#404040"/>
   <stop offset="1" stop-color="#808080"/>
  </linearGradient>
  <path style="fill:url(#gradient8)"
        d="M41.97 13.87L35.65 20.23L37.46 22.05L43.78 15.7L44.69 16.61L48.3 12.98L44.69 9.36L41.07 12.98L41.97 13.87z"
  />
  <linearGradient id="gradient9" gradientUnits="userSpaceOnUse" x1="43.78" y1="12.76" x2="53.27" y2="12.76">
   <stop offset="0" stop-color="#bfbfbf"/>
   <stop offset="1" stop-color="#8c8c8c"/>
  </linearGradient>
  <path style="fill:url(#gradient9)"
        d="M53.27 10.72L52.82 10.26L43.78 14.8V15.25L51.92 11.17L52.37 11.62L53.27 10.72z"
  />
  <path style="fill:#afafaf"
        d="M40.17 11.17L43.78 14.8V15.25L40.17 11.62V11.17z"
  />
  <linearGradient id="gradient10" gradientUnits="userSpaceOnUse" x1="41.98" y1="13.89" x2="41.98" y2="9.36">
   <stop offset="0" stop-color="#cccccc"/>
   <stop offset="1" stop-color="#ffffff"/>
  </linearGradient>
  <path style="fill:url(#gradient10)"
        d="M49.21 6.64L40.17 11.17L43.78 14.8L52.82 10.26L49.21 6.64z"
  />
  <linearGradient id="gradient11" gradientUnits="userSpaceOnUse" x1="38.23" y1="18.19" x2="38.23" y2="10.72">
   <stop offset="0" stop-color="#cccccc"/>
   <stop offset="1" stop-color="#ffffff"/>
  </linearGradient>
  <path style="fill:url(#gradient11)"
        d="M42.88 10.72L31.8 16.36L33.6 18.18L44.69 12.53L42.88 10.72z"
  />
  <linearGradient id="gradient12" gradientUnits="userSpaceOnUse" x1="33.61" y1="15.5" x2="44.69" y2="15.5">
   <stop offset="0" stop-color="#808080"/>
   <stop offset="1" stop-color="#a3a3a3"/>
  </linearGradient>
  <path style="fill:url(#gradient12)"
        d="M33.6 18.18L33.89 18.48L44.69 12.98V12.53L33.6 18.18z"
  />
  <linearGradient id="gradient13" gradientUnits="userSpaceOnUse" x1="28.67" y1="34.42" x2="33.96" y2="40.77">
   <stop offset="0" stop-color="#ff8000"/>
   <stop offset="1" stop-color="#b60d04"/>
  </linearGradient>
  <path style="fill:url(#gradient13)"
        d="M40.17 24.77L31.13 33.83C27.51 37.46 17.57 45.62 17.57 45.62L19.38 47.43C19.38 47.43 32.94 42.9 36.55 39.27L45.59 30.21L40.17 24.77z"
  />
  <linearGradient id="gradient14" gradientUnits="userSpaceOnUse" x1="24.29" y1="18.54" x2="34.04" y2="22.56">
   <stop offset="0" stop-color="#ffde00"/>
   <stop offset="1" stop-color="#ffa200"/>
  </linearGradient>
  <path style="fill:url(#gradient14)"
        d="M31.13 15.7L22.09 24.77C18.47 28.39 15.76 43.8 15.76 43.8L17.57 45.62C17.57 45.62 27.51 37.46 31.13 33.83L40.17 24.77L31.13 15.7z"
  />
  <linearGradient id="gradient15" gradientUnits="userSpaceOnUse" x1="30.45" y1="20.91" x2="39.04" y2="29.53">
   <stop offset="0" stop-color="#ffae00"/>
   <stop offset="0.749" stop-color="#e05d00"/>
   <stop offset="1" stop-color="#990000"/>
  </linearGradient>
  <path style="fill:url(#gradient15)"
        d="M38.36 26.58C37.46 27.49 32.03 27.49 27.51 23.86C29.32 25.67 32.03 25.67 33.84 25.67C35.65 25.67 38.36 24.77 39.26 23.86L41.98 26.58C41.07 27.49 38.36 26.58 38.36 26.58z"
  />
  <radialGradient id="gradient16" gradientUnits="userSpaceOnUse" cx="0" cy="0" r="64" gradientTransform="matrix(0.1276,0,0,0.0996,30.2287,17.5203)">
   <stop offset="0.3528" stop-color="#ffca00"/>
   <stop offset="0.7098" stop-color="#ff8a00"/>
   <stop offset="0.9921" stop-color="#ca4700"/>
  </radialGradient>
  <path style="fill:url(#gradient16)"
        d="M27.51 14.8C26.61 15.7 25.7 17.52 25.7 18.42C25.7 19.33 25.7 22.05 27.51 23.86C29.32 25.67 32.03 25.67 33.84 25.67C35.65 25.67 38.36 24.77 39.26 23.86L28.97 13.64L27.51 14.8z"
  />
  <linearGradient id="gradient17" gradientUnits="userSpaceOnUse" x1="28.71" y1="24.97" x2="36.7" y2="32.19">
   <stop offset="0" stop-color="#ffc105"/>
   <stop offset="0.7566" stop-color="#c05405"/>
   <stop offset="1" stop-color="#720303"/>
  </linearGradient>
  <path style="fill:none; stroke:url(#gradient17); stroke-width:0.8016"
        d="M16.73 41.89L20.93 45.69L17.57 40.36L22.61 44.93L17.57 38.08L24.3 44.17L18.41 36.56L25.98 43.41
           M18.41 34.28L27.66 42.65L19.25 32.76L29.34 41.89"
  />
  <path style="fill:none; stroke:#000000; stroke-opacity:0.4; stroke-width:1.9478; stroke-linecap:round; stroke-linejoin:round"
        d="M58.95 44.73L54.96 40.93L49.48 46.16L44 40.93L40.02 44.73L45.5 49.96L40.02 55.19L44 58.99L49.48 53.76L54.96 58.99L58.95 55.19L53.47 49.96L58.95 44.73z"
  />
  <path style="fill:none; stroke:#800000; stroke-width:1.9478; stroke-linecap:round; stroke-linejoin:round"
        d="M57.95 43.78L53.97 39.98L48.49 45.21L43 39.98L39.02 43.78L44.5 49.01L39.02 54.24L43 58.04L48.49 52.82L53.97 58.04L57.95 54.24L52.48 49.01L57.95 43.78z"
  />
  <linearGradient id="gradient18" gradientUnits="userSpaceOnUse" x1="101.8" y1="41.88" x2="101.8" y2="58.04">
   <stop offset="0" stop-color="#ffabab"/>
   <stop offset="1" stop-color="#d90000"/>
  </linearGradient>
  <path style="fill:url(#gradient18)"
        d="M57.95 43.78L53.97 39.98L48.49 45.21L43 39.98L39.02 43.78L44.5 49.01L39.02 54.24L43 58.04L48.49 52.82L53.97 58.04L57.95 54.24L52.48 49.01L57.95 43.78z"
  />
 </g>
</svg>
