<?xml version="1.0" encoding="UTF-8" standalone="yes"?>
<svg version="1.1" width="64" height="64" color-interpolation="linearRGB"
     xmlns:svg="http://www.w3.org/2000/svg" xmlns="http://www.w3.org/2000/svg">
 <g>
  <path style="fill:none; stroke:#000000; stroke-opacity:0.4; stroke-width:4"
        d="M26.53 18.74C29.1 16.17 31.67 13.6 34.24 11.03C35.68 9.59 37.6 8.8 39.63 8.8C41.67 8.8 43.58 9.59 45.02 11.03C45.74 11.74 46.45 12.45 47.16 13.16C50.64 9.68 54.12 6.21 57.59 2.73C58.82 3.95 60.04 5.17 61.26 6.4C57.78 9.87 54.31 13.35 50.83 16.83C51.54 17.54 52.25 18.25 52.96 18.97C55.93 21.94 55.93 26.77 52.96 29.75C50.39 32.32 47.82 34.89 45.25 37.46C39.01 31.22 32.77 24.98 26.53 18.74V18.74V18.74z
           M57.59 1.6C54.12 5.07 50.64 8.55 47.16 12.03C46.64 11.51 46.11 10.99 45.59 10.46C43.94 8.82 41.79 8 39.63 8C37.48 8 35.32 8.82 33.68 10.46C30.92 13.22 28.16 15.98 25.4 18.74C32.01 25.36 38.63 31.98 45.25 38.59C48.01 35.83 50.77 33.07 53.53 30.31C56.82 27.02 56.82 21.69 53.53 18.4C53 17.88 52.48 17.36 51.96 16.83C55.44 13.35 58.92 9.87 62.4 6.4C60.79 4.8 59.2 3.2 57.59 1.6V1.6V1.6V1.6z
           M57.59 3.86C58.44 4.7 59.29 5.55 60.13 6.4C57.03 9.5 53.93 12.6 50.83 15.7C50.45 16.08 50.07 16.45 49.7 16.83C50.07 17.21 50.45 17.59 50.83 17.96C51.35 18.49 51.87 19.01 52.4 19.53C55.06 22.19 55.06 26.52 52.4 29.18C50.01 31.56 47.63 33.95 45.25 36.33C39.39 30.47 33.52 24.6 27.66 18.74C30.04 16.36 32.43 13.98 34.81 11.59C36.1 10.3 37.81 9.6 39.63 9.6C41.46 9.6 43.17 10.3 44.46 11.59C44.98 12.12 45.5 12.64 46.03 13.16C46.4 13.54 46.78 13.92 47.16 14.29C47.54 13.92 47.91 13.54 48.29 13.16C51.39 10.06 54.49 6.96 57.59 3.86
           M19.97 21.92C21.07 20.81 22.18 19.71 23.28 18.61C24.31 17.58 25.63 16.99 26.9 16.99C27.79 16.99 28.57 17.29 29.13 17.85C34.8 23.52 40.47 29.19 46.14 34.86C47.54 36.26 47.2 38.89 45.38 40.71C44.28 41.81 43.17 42.92 42.07 44.02C34.7 36.65 27.34 29.28 19.97 21.92V21.92V21.92z
           M26.9 16.19C25.48 16.19 23.93 16.82 22.71 18.04C21.42 19.34 20.13 20.63 18.84 21.92C26.58 29.66 34.33 37.4 42.07 45.15C43.37 43.86 44.66 42.57 45.95 41.28C48.09 39.14 48.43 36.01 46.71 34.29C41.04 28.62 35.37 22.95 29.7 17.28C28.96 16.55 27.96 16.19 26.9 16.19V16.19V16.19V16.19z
           M26.9 17.79C27.37 17.79 28.05 17.9 28.57 18.42C34.24 24.09 39.9 29.75 45.57 35.42C46.65 36.5 46.3 38.66 44.81 40.15C43.9 41.06 43.91 41.08 43 42C36 35.01 28.99 27.98 22 21C22.91 20.08 22.93 20.09 23.84 19.18C24.71 18.31 25.85 17.79 26.9 17.79
           M2.73 57.59C6.21 54.12 9.68 50.64 13.16 47.16C12.45 46.45 11.74 45.74 11.03 45.02C8.06 42.05 8.06 37.22 11.03 34.24C13.6 31.67 16.17 29.1 18.74 26.53C24.98 32.77 31.22 39.01 37.46 45.25C34.89 47.82 32.32 50.39 29.75 52.96C28.31 54.4 26.39 55.2 24.36 55.2C22.32 55.2 20.41 54.4 18.97 52.96C18.25 52.25 17.54 51.54 16.83 50.83C13.35 54.31 9.87 57.78 6.4 61.26C5.17 60.04 3.95 58.82 2.73 57.59V57.59V57.59z
           M18.74 25.4C15.98 28.16 13.22 30.92 10.46 33.68C7.17 36.97 7.17 42.3 10.46 45.59C10.99 46.11 11.51 46.64 12.03 47.16C8.55 50.64 5.07 54.12 1.6 57.59C3.2 59.2 4.8 60.79 6.4 62.4C9.87 58.92 13.35 55.44 16.83 51.96C17.35 52.48 17.88 53 18.4 53.53C20.05 55.17 22.2 56 24.36 56C26.51 56 28.67 55.17 30.31 53.53C33.07 50.77 35.83 48.01 38.59 45.25C31.98 38.63 25.36 32.01 18.74 25.4V25.4V25.4V25.4z
           M18.74 27.66C24.6 33.52 30.47 39.39 36.33 45.25C33.95 47.63 31.56 50.01 29.18 52.4C27.89 53.68 26.18 54.4 24.36 54.4C22.53 54.4 20.82 53.69 19.53 52.4C19.01 51.87 18.49 51.35 17.96 50.83C17.59 50.45 17.21 50.07 16.83 49.7C16.45 50.07 16.08 50.45 15.7 50.83C12.6 53.93 9.5 57.03 6.4 60.13C5.55 59.29 4.7 58.44 3.86 57.59C6.96 54.49 10.06 51.39 13.16 48.29C13.54 47.91 13.92 47.54 14.29 47.16C13.92 46.78 13.54 46.4 13.16 46.03C12.64 45.5 12.12 44.98 11.59 44.46C8.93 41.8 8.93 37.47 11.59 34.81C13.98 32.43 16.36 30.04 18.74 27.66
           M37.32 47.13C36.37 47.13 35.5 46.78 34.86 46.14C29.19 40.47 23.52 34.8 17.85 29.13C16.45 27.73 16.54 25.35 18.06 23.83C18.98 22.91 19.07 22.92 20 22C27.36 29.36 34.63 36.63 42 44C41.07 44.92 41.09 45.01 40.17 45.93C39.4 46.7 38.36 47.13 37.32 47.13V47.13V47.13V47.13z
           M20.82 19.93C19.71 21.04 18.61 22.15 17.5 23.26C15.66 25.1 15.57 27.98 17.28 29.7C22.95 35.37 28.62 41.04 34.29 46.71C35.12 47.53 36.2 47.93 37.32 47.93C38.53 47.93 39.77 47.45 40.73 46.49C41.84 45.38 42.95 44.28 44.06 43.17C36.31 35.42 28.57 27.68 20.82 19.93V19.93V19.93V19.93z
           M20.82 22.2C27.81 29.19 34.8 36.18 41.79 43.17C41.06 43.9 40.33 44.63 39.6 45.36C38.98 45.98 38.15 46.33 37.32 46.33C36.59 46.33 35.92 46.06 35.42 45.57C29.75 39.9 24.09 34.23 18.42 28.56C17.32 27.47 17.42 25.6 18.63 24.39C19.36 23.66 20.09 22.93 20.82 22.2"
        transform="matrix(0.8814,0,0,0.8438,4.7357,7.1837)"
  />
  <path style="fill:none; stroke:#bf5000; stroke-width:4"
        d="M57.59 1.6C54.12 5.07 50.64 8.55 47.16 12.03C46.64 11.51 46.11 10.99 45.59 10.46C43.94 8.82 41.79 8 39.63 8C37.48 8 35.32 8.82 33.68 10.46C30.92 13.22 28.16 15.98 25.4 18.74C32.01 25.36 38.63 31.98 45.25 38.59C48.01 35.83 50.77 33.07 53.53 30.31C56.82 27.02 56.82 21.69 53.53 18.4C53 17.88 52.48 17.36 51.96 16.83C55.44 13.35 58.92 9.87 62.4 6.4C60.79 4.8 59.2 3.2 57.59 1.6V1.6V1.6V1.6z
           M57.59 3.86C58.44 4.7 59.29 5.55 60.13 6.4C57.03 9.5 53.93 12.6 50.83 15.7C50.45 16.08 50.07 16.45 49.7 16.83C50.07 17.21 50.45 17.59 50.83 17.96C51.35 18.49 51.87 19.01 52.4 19.53C55.06 22.19 55.06 26.52 52.4 29.18C50.01 31.56 47.63 33.95 45.25 36.33C39.39 30.47 33.52 24.6 27.66 18.74C30.04 16.36 32.43 13.98 34.81 11.59C36.1 10.3 37.81 9.6 39.63 9.6C41.46 9.6 43.17 10.3 44.46 11.59C44.98 12.12 45.5 12.64 46.03 13.16C46.4 13.54 46.78 13.92 47.16 14.29C47.54 13.92 47.91 13.54 48.29 13.16C51.39 10.06 54.49 6.96 57.59 3.86"
        transform="matrix(0.8814,0,0,0.8438,3.8543,3.8082)"
  />
  <linearGradient id="gradient0" gradientUnits="userSpaceOnUse" x1="44.13" y1="12.17" x2="44.13" y2="38.7">
   <stop offset="0" stop-color="#ffff80"/>
   <stop offset="1" stop-color="#ffd400"/>
  </linearGradient>
  <path style="fill:url(#gradient0)"
        d="M26.53 18.74C29.1 16.17 31.67 13.6 34.24 11.03C35.68 9.59 37.6 8.8 39.63 8.8C41.67 8.8 43.58 9.59 45.02 11.03C45.74 11.74 46.45 12.45 47.16 13.16C50.64 9.68 54.12 6.21 57.59 2.73C58.82 3.95 60.04 5.17 61.26 6.4C57.78 9.87 54.31 13.35 50.83 16.83C51.54 17.54 52.25 18.25 52.96 18.97C55.93 21.94 55.93 26.77 52.96 29.75C50.39 32.32 47.82 34.89 45.25 37.46C39.01 31.22 32.77 24.98 26.53 18.74V18.74V18.74z"
        transform="matrix(0.8814,0,0,0.8438,3.8543,3.8082)"
  />
  <path style="fill:none; stroke:#bf5000; stroke-width:4"
        d="M26.9 16.19C25.48 16.19 23.93 16.82 22.71 18.04C21.42 19.34 20.13 20.63 18.84 21.92C26.58 29.66 34.33 37.4 42.07 45.15C43.37 43.86 44.66 42.57 45.95 41.28C48.09 39.14 48.43 36.01 46.71 34.29C41.04 28.62 35.37 22.95 29.7 17.28C28.96 16.55 27.96 16.19 26.9 16.19V16.19V16.19V16.19z
           M26.9 17.79C27.37 17.79 28.05 17.9 28.57 18.42C34.24 24.09 39.9 29.75 45.57 35.42C46.65 36.5 46.3 38.66 44.81 40.15C43.9 41.06 43.91 41.08 43 42C36 35.01 28.99 27.98 22 21C22.91 20.08 22.93 20.09 23.84 19.18C24.71 18.31 25.85 17.79 26.9 17.79"
        transform="matrix(0.8814,0,0,0.8438,3.8543,3.8082)"
  />
  <linearGradient id="gradient1" gradientUnits="userSpaceOnUse" x1="44.13" y1="12.17" x2="44.13" y2="38.7">
   <stop offset="0" stop-color="#ffff80"/>
   <stop offset="1" stop-color="#ffd400"/>
  </linearGradient>
  <path style="fill:url(#gradient1)"
        d="M19.97 21.92C21.07 20.81 22.18 19.71 23.28 18.61C24.31 17.58 25.63 16.99 26.9 16.99C27.79 16.99 28.57 17.29 29.13 17.85C34.8 23.52 40.47 29.19 46.14 34.86C47.54 36.26 47.2 38.89 45.38 40.71C44.28 41.81 43.17 42.92 42.07 44.02C34.7 36.65 27.34 29.28 19.97 21.92V21.92V21.92z"
        transform="matrix(0.8814,0,0,0.8438,3.8543,3.8082)"
  />
  <path style="fill:none; stroke:#bf5000; stroke-width:4"
        d="M18.74 25.4C15.98 28.16 13.22 30.92 10.46 33.68C7.17 36.97 7.17 42.3 10.46 45.59C10.99 46.11 11.51 46.64 12.03 47.16C8.55 50.64 5.07 54.12 1.6 57.59C3.2 59.2 4.8 60.79 6.4 62.4C9.87 58.92 13.35 55.44 16.83 51.96C17.35 52.48 17.88 53 18.4 53.53C20.05 55.17 22.2 56 24.36 56C26.51 56 28.67 55.17 30.31 53.53C33.07 50.77 35.83 48.01 38.59 45.25C31.98 38.63 25.36 32.01 18.74 25.4V25.4V25.4V25.4z
           M18.74 27.66C24.6 33.52 30.47 39.39 36.33 45.25C33.95 47.63 31.56 50.01 29.18 52.4C27.89 53.68 26.18 54.4 24.36 54.4C22.53 54.4 20.82 53.69 19.53 52.4C19.01 51.87 18.49 51.35 17.96 50.83C17.59 50.45 17.21 50.07 16.83 49.7C16.45 50.07 16.08 50.45 15.7 50.83C12.6 53.93 9.5 57.03 6.4 60.13C5.55 59.29 4.7 58.44 3.86 57.59C6.96 54.49 10.06 51.39 13.16 48.29C13.54 47.91 13.92 47.54 14.29 47.16C13.92 46.78 13.54 46.4 13.16 46.03C12.64 45.5 12.12 44.98 11.59 44.46C8.93 41.8 8.93 37.47 11.59 34.81C13.98 32.43 16.36 30.04 18.74 27.66"
        transform="matrix(0.8814,0,0,0.8438,3.8543,3.8082)"
  />
  <linearGradient id="gradient2" gradientUnits="userSpaceOnUse" x1="44.13" y1="12.17" x2="44.13" y2="38.7">
   <stop offset="0" stop-color="#ffff80"/>
   <stop offset="1" stop-color="#ffd400"/>
  </linearGradient>
  <path style="fill:url(#gradient2)"
        d="M2.73 57.59C6.21 54.12 9.68 50.64 13.16 47.16C12.45 46.45 11.74 45.74 11.03 45.02C8.06 42.05 8.06 37.22 11.03 34.24C13.6 31.67 16.17 29.1 18.74 26.53C24.98 32.77 31.22 39.01 37.46 45.25C34.89 47.82 32.32 50.39 29.75 52.96C28.31 54.4 26.39 55.2 24.36 55.2C22.32 55.2 20.41 54.4 18.97 52.96C18.25 52.25 17.54 51.54 16.83 50.83C13.35 54.31 9.87 57.78 6.4 61.26C5.17 60.04 3.95 58.82 2.73 57.59V57.59V57.59z"
        transform="matrix(0.8814,0,0,0.8438,3.8543,3.8082)"
  />
  <path style="fill:none; stroke:#bf5000; stroke-width:4"
        d="M20.82 19.93C19.71 21.04 18.61 22.15 17.5 23.26C15.66 25.1 15.57 27.98 17.28 29.7C22.95 35.37 28.62 41.04 34.29 46.71C35.12 47.53 36.2 47.93 37.32 47.93C38.53 47.93 39.77 47.45 40.73 46.49C41.84 45.38 42.95 44.28 44.06 43.17C36.31 35.42 28.57 27.68 20.82 19.93V19.93V19.93V19.93z"
        transform="matrix(0.8814,0,0,0.8438,3.8543,3.8082)"
  />
  <linearGradient id="gradient3" gradientUnits="userSpaceOnUse" x1="44.13" y1="12.17" x2="44.13" y2="38.7">
   <stop offset="0" stop-color="#ffff80"/>
   <stop offset="1" stop-color="#ffd400"/>
  </linearGradient>
  <path style="fill:url(#gradient3)"
        d="M37.32 47.13C36.37 47.13 35.5 46.78 34.86 46.14C29.19 40.47 23.52 34.8 17.85 29.13C16.45 27.73 16.54 25.35 18.06 23.83C18.98 22.91 19.07 22.92 20 22C27.36 29.36 34.63 36.63 42 44C41.07 44.92 41.09 45.01 40.17 45.93C39.4 46.7 38.36 47.13 37.32 47.13V47.13V47.13V47.13z"
        transform="matrix(0.8814,0,0,0.8438,3.8543,3.8082)"
  />
 </g>
</svg>
