<?xml version="1.0" encoding="UTF-8" standalone="yes"?>
<svg version="1.1" width="64" height="64" color-interpolation="linearRGB"
     xmlns:svg="http://www.w3.org/2000/svg" xmlns="http://www.w3.org/2000/svg">
 <g>
  <path style="fill:none; stroke:#bf5000; stroke-width:3"
        d="M34.64 15.69C34.26 16.06 33.88 16.44 33.51 16.82C30.49 19.83 27.48 22.85 24.46 25.86C24.09 26.24 23.71 26.61 23.33 26.99C23.71 27.37 24.09 27.75 24.46 28.12C25.06 28.72 25.67 29.33 26.27 29.93C26.64 30.3 27.02 30.68 27.4 31.06C27.78 30.68 28.15 30.3 28.53 29.93C31.54 26.91 34.56 23.9 37.57 20.88C37.95 20.51 38.33 20.13 38.7 19.75C38.33 19.37 37.95 19 37.57 18.62C36.97 18.02 36.37 17.42 35.77 16.82C35.39 16.44 35.02 16.06 34.64 15.69V15.69V15.69V15.69z
           M34.64 17.95C35.24 18.55 35.84 19.15 36.44 19.75C33.43 22.77 30.41 25.78 27.4 28.79C26.8 28.19 26.2 27.59 25.6 26.99C28.61 23.98 31.62 20.96 34.64 17.95"
        transform="matrix(0.8796,0,0,0.8796,3.8521,3.8521)"
  />
  <linearGradient id="gradient0" gradientUnits="userSpaceOnUse" x1="43.6" y1="24.37" x2="49.65" y2="31.93">
   <stop offset="0" stop-color="#ffffff"/>
   <stop offset="1" stop-color="#b8b8b8"/>
  </linearGradient>
  <path style="fill:url(#gradient0)"
        d="M24.46 26.99C27.86 23.6 31.25 20.21 34.64 16.82C35.62 17.8 36.6 18.77 37.57 19.75C34.18 23.14 30.79 26.54 27.4 29.93C26.42 28.95 25.44 27.97 24.46 26.99V26.99z"
        transform="matrix(0.8796,0,0,0.8796,3.8521,3.8521)"
  />
  <path style="fill:none; stroke:#bf5000; stroke-width:3"
        d="M44.24 25.29C43.86 25.66 43.48 26.04 43.11 26.42C40.09 29.43 37.08 32.45 34.06 35.46C33.69 35.84 33.31 36.21 32.93 36.59C33.31 36.97 33.69 37.35 34.06 37.72C34.66 38.32 35.27 38.93 35.87 39.53C36.24 39.9 36.62 40.28 37 40.66C37.38 40.28 37.75 39.9 38.13 39.53C41.14 36.51 44.16 33.5 47.17 30.48C47.55 30.11 47.93 29.73 48.3 29.35C47.93 28.97 47.55 28.6 47.17 28.22C46.57 27.62 45.97 27.02 45.37 26.42C44.99 26.04 44.62 25.66 44.24 25.29V25.29V25.29V25.29z
           M44.24 27.55C44.84 28.15 45.44 28.75 46.04 29.35C43.03 32.37 40.01 35.38 37 38.4C36.4 37.79 35.8 37.19 35.2 36.59C38.21 33.58 41.22 30.56 44.24 27.55"
        transform="matrix(0.8796,0,0,0.8796,3.8521,3.8521)"
  />
  <linearGradient id="gradient1" gradientUnits="userSpaceOnUse" x1="43.6" y1="24.37" x2="49.65" y2="31.93">
   <stop offset="0" stop-color="#ffffff"/>
   <stop offset="1" stop-color="#b8b8b8"/>
  </linearGradient>
  <path style="fill:url(#gradient1)"
        d="M34.06 36.59C37.46 33.2 40.85 29.81 44.24 26.42C45.22 27.4 46.2 28.37 47.17 29.35C43.78 32.74 40.39 36.14 37 39.53C36.02 38.55 35.04 37.57 34.06 36.59V36.59z"
        transform="matrix(0.8796,0,0,0.8796,3.8521,3.8521)"
  />
  <path style="fill:none; stroke:#bf5000; stroke-width:4"
        d="M57.59 1.6C56.17 3.02 54.75 4.44 53.33 5.86C52.8 5.34 52.28 4.82 51.75 4.29C50.11 2.65 47.95 1.83 45.8 1.83C43.64 1.83 41.49 2.65 39.84 4.29C37.08 7.05 34.32 9.81 31.56 12.57C38.18 19.19 44.8 25.81 51.41 32.42C54.17 29.66 56.93 26.9 59.69 24.14C62.98 20.86 62.98 15.52 59.69 12.23C59.17 11.71 58.65 11.19 58.12 10.66C59.55 9.24 60.97 7.82 62.4 6.4C60.79 4.8 59.2 3.2 57.59 1.6V1.6V1.6V1.6z
           M45.8 3.43C47.62 3.43 49.34 4.14 50.63 5.43C51.15 5.95 51.67 6.47 52.2 7C52.57 7.37 52.95 7.75 53.33 8.13C53.7 7.75 54.08 7.37 54.46 7C55.5 5.95 56.55 4.9 57.59 3.86C58.44 4.7 59.29 5.55 60.13 6.4C59.09 7.44 58.04 8.49 57 9.53C56.62 9.91 56.24 10.29 55.86 10.66C56.24 11.04 56.62 11.42 57 11.8C57.52 12.32 58.04 12.84 58.56 13.36C59.85 14.65 60.56 16.37 60.56 18.19C60.56 20.01 59.85 21.72 58.56 23.01C56.18 25.4 53.8 27.78 51.42 30.16C45.55 24.3 39.69 18.44 33.83 12.57C36.21 10.19 38.59 7.81 40.98 5.43C42.27 4.14 43.98 3.43 45.8 3.43"
        transform="matrix(0.8796,0,0,0.8796,3.8521,3.8521)"
  />
  <linearGradient id="gradient2" gradientUnits="userSpaceOnUse" x1="59.13" y1="12.17" x2="59.13" y2="38.7">
   <stop offset="0" stop-color="#ffff80"/>
   <stop offset="1" stop-color="#ffd400"/>
  </linearGradient>
  <path style="fill:url(#gradient2)"
        d="M32.7 12.57C35.27 10 37.84 7.43 40.41 4.86C41.85 3.42 43.76 2.63 45.8 2.63V2.63C47.84 2.63 49.75 3.42 51.19 4.86C51.9 5.57 52.61 6.28 53.32 7C54.75 5.57 56.17 4.15 57.59 2.73C58.82 3.95 60.04 5.17 61.26 6.4C59.84 7.82 58.42 9.24 57 10.66C57.71 11.38 58.42 12.09 59.13 12.8C62.1 15.77 62.1 20.6 59.13 23.58C56.56 26.15 53.99 28.72 51.42 31.29C45.18 25.05 38.94 18.81 32.7 12.57V12.57V12.57z"
        transform="matrix(0.8796,0,0,0.8796,3.8521,3.8521)"
  />
  <path style="fill:none; stroke:#bf5000; stroke-width:4"
        d="M33.06 10.02C31.64 10.02 30.1 10.66 28.88 11.88C27.59 13.17 26.3 14.46 25.01 15.75C32.75 23.49 40.5 31.24 48.24 38.98C49.53 37.69 50.82 36.4 52.11 35.11C54.25 32.97 54.59 29.84 52.87 28.13C47.2 22.46 41.53 16.79 35.87 11.12C35.13 10.38 34.13 10.02 33.06 10.02V10.02V10.02V10.02z
           M33.06 11.62C33.54 11.62 34.22 11.73 34.73 12.25C40.4 17.92 46.07 23.59 51.74 29.26C52.82 30.33 52.47 32.49 50.98 33.98C50.07 34.89 49.15 35.8 48.24 36.72C41.25 29.73 34.26 22.74 27.27 15.75C28.18 14.83 29.1 13.92 30.01 13.01C30.88 12.14 32.02 11.62 33.06 11.62"
        transform="matrix(0.8796,0,0,0.8796,3.8521,3.8521)"
  />
  <linearGradient id="gradient3" gradientUnits="userSpaceOnUse" x1="59.13" y1="12.17" x2="59.13" y2="38.7">
   <stop offset="0" stop-color="#ffff80"/>
   <stop offset="1" stop-color="#ffd400"/>
  </linearGradient>
  <path style="fill:url(#gradient3)"
        d="M26.14 15.75C27.24 14.65 28.34 13.54 29.44 12.44C30.47 11.41 31.79 10.82 33.06 10.82C33.96 10.82 34.73 11.12 35.3 11.68C40.97 17.35 46.64 23.02 52.31 28.69C53.71 30.1 53.37 32.72 51.55 34.54C50.44 35.65 49.34 36.75 48.24 37.85C40.87 30.48 33.51 23.12 26.14 15.75V15.75V15.75z"
        transform="matrix(0.8796,0,0,0.8796,3.8521,3.8521)"
  />
  <path style="fill:none; stroke:#bf5000; stroke-width:4"
        d="M12.27 31.87C9.51 34.63 6.75 37.4 3.99 40.15C0.7 43.44 0.7 48.78 3.99 52.07C4.51 52.59 5.03 53.11 5.55 53.63C4.23 54.95 2.92 56.27 1.6 57.59C3.2 59.2 4.8 60.79 6.4 62.4C7.71 61.07 9.03 59.76 10.35 58.44C10.88 58.96 11.4 59.48 11.92 60C13.57 61.65 15.72 62.47 17.88 62.47C20.03 62.47 22.19 61.65 23.84 60C26.6 57.24 29.36 54.48 32.12 51.72C25.5 45.11 18.88 38.49 12.27 31.87V31.87V31.87V31.87z
           M12.27 34.14C18.13 40 23.99 45.86 29.85 51.72C27.47 54.11 25.09 56.49 22.7 58.87C21.42 60.16 19.7 60.87 17.88 60.87C16.06 60.87 14.35 60.16 13.06 58.87C12.53 58.35 12.01 57.83 11.49 57.3C11.11 56.93 10.73 56.55 10.35 56.17C9.98 56.55 9.6 56.93 9.22 57.3C8.28 58.25 7.34 59.19 6.4 60.13C5.55 59.29 4.7 58.44 3.86 57.59C4.8 56.65 5.74 55.71 6.69 54.77C7.06 54.39 7.44 54.01 7.82 53.63C7.44 53.26 7.06 52.88 6.69 52.5C6.16 51.98 5.64 51.46 5.12 50.93C2.46 48.27 2.46 43.95 5.12 41.29C7.5 38.9 9.88 36.52 12.27 34.14"
        transform="matrix(0.8796,0,0,0.8796,3.8521,3.8521)"
  />
  <linearGradient id="gradient4" gradientUnits="userSpaceOnUse" x1="59.13" y1="12.17" x2="59.13" y2="38.7">
   <stop offset="0" stop-color="#ffff80"/>
   <stop offset="1" stop-color="#ffd400"/>
  </linearGradient>
  <path style="fill:url(#gradient4)"
        d="M17.88 61.67C15.84 61.67 13.93 60.88 12.49 59.44C11.78 58.73 11.07 58.02 10.36 57.3C9.04 58.62 7.72 59.94 6.4 61.26C5.17 60.04 3.95 58.82 2.73 57.59C4.05 56.27 5.37 54.96 6.69 53.64C5.97 52.92 5.26 52.21 4.55 51.5C1.58 48.53 1.58 43.69 4.55 40.72C7.12 38.15 9.69 35.58 12.27 33C18.5 39.24 24.74 45.48 30.98 51.72C28.41 54.29 25.84 56.87 23.27 59.44C21.83 60.88 19.92 61.67 17.88 61.67V61.67V61.67z"
        transform="matrix(0.8796,0,0,0.8796,3.8521,3.8521)"
  />
  <path style="fill:none; stroke:#bf5000; stroke-width:4"
        d="M14.35 26.41C13.24 27.52 12.13 28.63 11.02 29.74C9.18 31.57 9.09 34.45 10.81 36.17C16.48 41.84 22.15 47.51 27.82 53.18C28.64 54 29.73 54.41 30.84 54.41C32.05 54.41 33.3 53.93 34.25 52.97C35.36 51.86 36.47 50.75 37.58 49.64C29.83 41.9 22.09 34.16 14.35 26.41V26.41V26.41V26.41z
           M14.35 28.67C21.34 35.66 28.33 42.65 35.32 49.64C34.59 50.38 33.85 51.11 33.12 51.84C32.5 52.46 31.67 52.81 30.84 52.81C30.11 52.81 29.44 52.54 28.95 52.05C23.28 46.38 17.61 40.71 11.94 35.04C11.42 34.53 11.15 33.82 11.18 33.05C11.21 32.24 11.55 31.47 12.15 30.87C12.88 30.14 13.61 29.4 14.35 28.67"
        transform="matrix(0.8796,0,0,0.8796,3.8521,3.8521)"
  />
  <linearGradient id="gradient5" gradientUnits="userSpaceOnUse" x1="59.13" y1="12.17" x2="59.13" y2="38.7">
   <stop offset="0" stop-color="#ffff80"/>
   <stop offset="1" stop-color="#ffd400"/>
  </linearGradient>
  <path style="fill:url(#gradient5)"
        d="M30.84 53.61C29.9 53.61 29.02 53.26 28.38 52.62C22.71 46.95 17.04 41.28 11.37 35.61C9.97 34.2 10.07 31.82 11.59 30.3C12.51 29.38 13.43 28.46 14.35 27.54C21.71 34.91 29.08 42.28 36.45 49.64C35.53 50.56 34.61 51.48 33.69 52.4C32.92 53.17 31.88 53.61 30.84 53.61V53.61V53.61V53.61z"
        transform="matrix(0.8796,0,0,0.8796,3.8521,3.8521)"
  />
 </g>
</svg>
