<?xml version="1.0" encoding="UTF-8" standalone="yes"?>
<svg version="1.1" width="64" height="64" color-interpolation="linearRGB"
     xmlns:svg="http://www.w3.org/2000/svg" xmlns="http://www.w3.org/2000/svg">
 <g>
  <path style="fill:#000000; fill-opacity:0.4117"
        d="M5.83 46.24C5.83 47.22 11.34 49.19 16.85 52.14C22.35 55.08 23.27 58.03 27.86 58.03C32.45 58.03 37.96 49.19 43.47 44.28C48.98 39.37 55.4 33.47 55.4 33.47C56.32 32.49 58.16 31.51 58.16 27.58C58.16 23.65 50.81 16.77 48.06 12.84C45.3 8.91 42.55 6.95 42.55 6.95L39.8 9.9C38.88 8.91 34.29 6.95 34.29 6.95C34.29 6.95 29.7 14.81 24.19 18.74C18.68 22.67 11.34 24.63 11.34 26.6C11.34 29.54 10.42 29.54 16.85 36.42C11.34 40.35 5.83 42.31 5.83 46.24z"
        transform="matrix(1,0,0,1,1,6)"
  />
  <path style="fill:none; stroke:#656565; stroke-width:4.7534"
        d="M5.83 46.24C5.83 47.22 11.34 49.19 16.85 52.14C22.35 55.08 23.27 58.03 27.86 58.03C32.45 58.03 37.96 49.19 43.47 44.28C48.98 39.37 55.4 33.47 55.4 33.47C56.32 32.49 58.16 31.51 58.16 27.58C58.16 23.65 50.81 16.77 48.06 12.84C45.3 8.91 42.55 6.95 42.55 6.95L39.8 9.9C38.88 8.91 34.29 6.95 34.29 6.95C34.29 6.95 29.7 14.81 24.19 18.74C18.68 22.67 11.34 24.63 11.34 26.6C11.34 29.54 10.42 29.54 16.85 36.42C11.34 40.35 5.83 42.31 5.83 46.24z"
  />
  <radialGradient id="gradient0" gradientUnits="userSpaceOnUse" cx="0" cy="0" r="64" gradientTransform="matrix(0.1835,-0.2036,0.3056,0.3153,9.7885,43.5925)">
   <stop offset="0" stop-color="#fcfaf4"/>
   <stop offset="1" stop-color="#808076"/>
  </radialGradient>
  <path style="fill:url(#gradient0)"
        d="M5.83 46.24C5.83 47.22 11.34 49.19 16.85 52.14C22.35 55.08 23.27 58.03 27.86 58.03C32.45 58.03 37.96 49.19 43.47 44.28C48.98 39.37 55.4 33.47 55.4 33.47C56.32 32.49 58.16 31.51 58.16 27.58C58.16 23.65 50.81 16.77 48.06 12.84C45.3 8.91 42.55 6.95 42.55 6.95L39.8 9.9C38.88 8.91 34.29 6.95 34.29 6.95C34.29 6.95 29.7 14.81 24.19 18.74C18.68 22.67 11.34 24.63 11.34 26.6C11.34 29.54 10.42 29.54 16.85 36.42C11.34 40.35 5.83 42.31 5.83 46.24z"
  />
  <radialGradient id="gradient1" gradientUnits="userSpaceOnUse" cx="0" cy="0" r="64" gradientTransform="matrix(0.1835,-0.2036,0.3056,0.3153,9.7885,43.5925)">
   <stop offset="0" stop-color="#ff90aa"/>
   <stop offset="0.9843" stop-color="#6d021b"/>
  </radialGradient>
  <path style="fill:url(#gradient1)"
        d="M20.52 37.4C20.52 38.38 10.42 45.26 10.42 46.24L18.68 50.17L27.86 41.33C27.86 41.33 20.52 36.42 20.52 37.4z"
  />
  <radialGradient id="gradient2" gradientUnits="userSpaceOnUse" cx="0" cy="0" r="64" gradientTransform="matrix(0.1835,-0.2036,0.3056,0.3153,9.7885,43.5925)">
   <stop offset="0" stop-color="#acacac"/>
   <stop offset="1" stop-color="#010101"/>
  </radialGradient>
  <path style="fill:none; stroke:url(#gradient2); stroke-width:1.9013"
        d="M29.7 44.28L22.35 52.14
           M32.45 47.22L26.03 54.1"
  />
  <radialGradient id="gradient3" gradientUnits="userSpaceOnUse" cx="0" cy="0" r="64" gradientTransform="matrix(0.3309,-0.2044,0.0413,0.0766,32.4963,9.6596)">
   <stop offset="0.3294" stop-color="#e2e2d7"/>
   <stop offset="1" stop-color="#949490"/>
  </radialGradient>
  <path style="fill:url(#gradient3)"
        d="M11.34 26.6C11.34 24.53 18.68 22.67 24.19 18.74C29.7 14.81 34.29 6.95 34.29 6.95C34.29 6.95 39.8 8.91 40.71 10.88C41.63 12.84 45.3 9.9 48.06 12.84L16.85 36.42C10.42 29.54 11.34 29.54 11.34 26.6z"
  />
  <radialGradient id="gradient4" gradientUnits="userSpaceOnUse" cx="0" cy="0" r="64" gradientTransform="matrix(0.4361,-0.3486,0.2083,0.2987,33.3439,22.8827)">
   <stop offset="0.3294" stop-color="#fcfbf4"/>
   <stop offset="1" stop-color="#bfbfb0"/>
  </radialGradient>
  <path style="fill:url(#gradient4)"
        d="M11.34 26.6C13.17 26.6 23.27 20.7 31.53 15.79C39.8 10.88 42.55 6.95 42.55 6.95C42.55 6.95 45.3 8.91 48.06 12.84C50.81 16.77 58.16 23.65 58.16 27.58C58.16 29.54 56.32 32.49 55.4 33.47C55.4 33.47 48.98 39.37 43.47 44.28C37.96 49.19 32.45 58.03 27.86 58.03C23.27 58.03 16.85 52.14 16.85 52.14L6.75 46.24C6.75 46.24 13.17 49.19 17.76 52.14C22.35 55.08 26.03 57.05 27.86 57.05C29.7 57.05 30.62 54.1 29.7 52.14C26.94 47.22 22.35 42.31 16.85 36.42C10.42 29.54 11.34 29.54 11.34 26.6z"
  />
  <radialGradient id="gradient5" gradientUnits="userSpaceOnUse" cx="0" cy="0" r="64" gradientTransform="matrix(0.4361,-0.3486,0.2083,0.2987,33.3439,22.8827)">
   <stop offset="0.3294" stop-color="#acacac"/>
   <stop offset="1" stop-color="#4a4a4a"/>
  </radialGradient>
  <path style="fill:none; stroke:url(#gradient5); stroke-width:1.9013"
        d="M41.63 29.54L35.21 35.44
           M41.63 35.44L37.96 39.37
           M32.45 37.4L26.03 42.31
           M46.22 37.4L40.71 43.29
           M36.12 41.33L29.7 47.22
           M37.04 47.22L32.45 52.14"
  />
  <radialGradient id="gradient6" gradientUnits="userSpaceOnUse" cx="0" cy="0" r="64" gradientTransform="matrix(0.4361,-0.3486,0.2083,0.2987,33.3439,22.8827)">
   <stop offset="0.3294" stop-color="#89bbff"/>
   <stop offset="1" stop-color="#0552bb"/>
  </radialGradient>
  <path style="fill:none; stroke:url(#gradient6); stroke-width:1.9013"
        d="M17.76 32.49H20.52L21.44 29.54H24.19L25.11 27.58
           M44.39 14.81L43.47 16.77H41.63V18.74H39.8"
  />
  <radialGradient id="gradient7" gradientUnits="userSpaceOnUse" cx="0" cy="0" r="64" gradientTransform="matrix(0.4361,-0.3486,0.2083,0.2987,33.3439,22.8827)">
   <stop offset="0.3294" stop-color="#acacac"/>
   <stop offset="1" stop-color="#4a4a4a"/>
  </radialGradient>
  <path style="fill:url(#gradient7)"
        d="M29.7 29.54C29.7 28.56 26.94 24.63 26.03 24.63C26.94 23.65 35.21 18.74 36.12 18.74C37.04 18.74 38.88 21.68 38.88 22.67C38.88 23.65 30.62 29.54 29.7 29.54z"
  />
  <radialGradient id="gradient8" gradientUnits="userSpaceOnUse" cx="0" cy="0" r="64" gradientTransform="matrix(0.4361,-0.3486,0.2083,0.2987,33.3439,22.8827)">
   <stop offset="0.3294" stop-color="#89bbff"/>
   <stop offset="1" stop-color="#0552bb"/>
  </radialGradient>
  <path style="fill:url(#gradient8)"
        d="M43.47 27.58C45.3 28.56 48.98 34.45 48.98 36.42C49.89 36.42 56.32 31.51 56.32 28.56C56.32 26.6 53.57 20.7 50.81 20.7C49.89 20.7 43.47 27.58 43.47 27.58z"
  />
 </g>
</svg>
