<?xml version="1.0" encoding="UTF-8" standalone="yes"?>
<svg version="1.1" width="64" height="64" color-interpolation="linearRGB"
     xmlns:svg="http://www.w3.org/2000/svg" xmlns="http://www.w3.org/2000/svg">
 <g>
  <path style="fill:none; stroke:#000000; stroke-opacity:0.4117; stroke-width:3"
        d="M11.55 31.62V33.54H17.46L24.12 59.72C24.21 60.13 24.62 60.43 25.12 60.47C25.62 60.52 26.09 60.27 26.29 59.9L39.68 33.54H58.34V38.36H60.61V32.59C60.61 32.04 60.11 31.62 59.47 31.62H38.93C38.47 31.62 38.06 31.85 37.88 32.2L25.6 56.36L19.51 32.36C19.37 31.94 18.93 31.62 18.38 31.62H11.55z"
  />
  <path style="fill:none; stroke:#000000; stroke-opacity:0.4117; stroke-width:3"
        d="M8.1 22.19V7.78H11.31V9.59C11.31 9.59 13.35 7.78 15.56 7.78C16.68 7.78 20.87 7.78 20.87 11.39C20.87 14.09 20.87 22.19 20.87 22.19H17.68C17.68 22.19 17.68 15.89 17.68 13.18C17.68 11.39 16.29 10.47 14.5 10.47C12.71 10.47 11.31 12.93 11.31 14.09C11.31 15.89 11.31 22.19 11.31 22.19H8.1z"
  />
  <path style="fill:none; stroke:#003f80; stroke-width:6.8909; stroke-linejoin:round"
        d="M8.55 27.62V29.54H14.47L21.12 55.72C21.21 56.13 21.62 56.43 22.12 56.47C22.62 56.52 23.09 56.27 23.29 55.9L36.68 29.54H55.34V34.36H57.61V28.59C57.61 28.04 57.11 27.62 56.47 27.62H35.93C35.47 27.62 35.06 27.85 34.88 28.2L22.6 52.36L16.51 28.37C16.37 27.94 15.93 27.62 15.39 27.62H8.55z"
  />
  <linearGradient id="gradient0" gradientUnits="userSpaceOnUse" x1="116.25" y1="28.32" x2="116.25" y2="53.34">
   <stop offset="0" stop-color="#abd5ff"/>
   <stop offset="1" stop-color="#006cd9"/>
  </linearGradient>
  <path style="fill:url(#gradient0)"
        d="M8.55 27.62V29.54H14.47L21.12 55.72C21.21 56.13 21.62 56.43 22.12 56.47C22.62 56.52 23.09 56.27 23.29 55.9L36.68 29.54H55.34V34.36H57.61V28.59C57.61 28.04 57.11 27.62 56.47 27.62H35.93C35.47 27.62 35.06 27.85 34.88 28.2L22.6 52.36L16.51 28.37C16.37 27.94 15.93 27.62 15.39 27.62H8.55z"
  />
  <path style="fill:none; stroke:#003f80; stroke-width:5.1999"
        d="M6.11 20.19V5.78H9.31V7.59C9.31 7.59 11.35 5.78 13.56 5.78C14.68 5.78 18.87 5.78 18.87 9.39C18.87 12.09 18.87 20.19 18.87 20.19H15.68C15.68 20.19 15.68 13.89 15.68 11.18C15.68 9.39 14.27 8.47 12.5 8.47C10.71 8.47 9.31 10.93 9.31 12.09C9.31 13.89 9.31 20.19 9.31 20.19H6.11z"
  />
  <linearGradient id="gradient1" gradientUnits="userSpaceOnUse" x1="116.25" y1="28.32" x2="116.25" y2="53.34">
   <stop offset="0" stop-color="#abd5ff"/>
   <stop offset="1" stop-color="#006cd9"/>
  </linearGradient>
  <path style="fill:url(#gradient1)"
        d="M6.11 20.19V5.78H9.31V7.59C9.31 7.59 11.35 5.78 13.56 5.78C14.68 5.78 18.87 5.78 18.87 9.39C18.87 12.09 18.87 20.19 18.87 20.19H15.68C15.68 20.19 15.68 13.89 15.68 11.18C15.68 9.39 14.27 8.47 12.5 8.47C10.71 8.47 9.31 10.93 9.31 12.09C9.31 13.89 9.31 20.19 9.31 20.19H6.11z"
  />
 </g>
</svg>
