<?xml version="1.0" encoding="UTF-8" standalone="yes"?>
<svg version="1.1" width="64" height="64" color-interpolation="linearRGB"
     xmlns:svg="http://www.w3.org/2000/svg" xmlns="http://www.w3.org/2000/svg">
 <g>
  <path style="fill:none; stroke:#000000; stroke-opacity:0.4; stroke-width:5.6446; stroke-linecap:round; stroke-linejoin:round"
        d="M37.72 6.62L60.33 29.17L37.72 51.72V6.62z"
        transform="matrix(0.871,0,0,0.8709,4.1313,4.131)"
  />
  <path style="fill:none; stroke:#000000; stroke-opacity:0.4; stroke-width:16.9338; stroke-linecap:square"
        d="M12.29 54.54V51.72C12.29 39.26 22.42 29.17 34.9 29.17"
        transform="matrix(0.871,0,0,0.8709,4.1313,4.131)"
  />
  <path style="fill:none; stroke:#800000; stroke-width:5.6446; stroke-linecap:round; stroke-linejoin:round"
        d="M34.91 3.8L57.52 26.35L34.91 48.9V3.8z"
        transform="matrix(0.871,0,0,0.8709,4.1313,4.131)"
  />
  <path style="fill:none; stroke:#800000; stroke-width:16.9338; stroke-linecap:square"
        d="M9.48 51.72V48.9C9.48 36.44 19.61 26.35 32.09 26.35"
        transform="matrix(0.871,0,0,0.8709,4.1313,4.131)"
  />
  <linearGradient id="gradient0" gradientUnits="userSpaceOnUse" x1="-120.5" y1="3.78" x2="-120.5" y2="57.34">
   <stop offset="0" stop-color="#ffabab"/>
   <stop offset="1" stop-color="#d90000"/>
  </linearGradient>
  <path style="fill:url(#gradient0)"
        d="M34.91 3.8L57.52 26.35L34.91 48.9V3.8z"
        transform="matrix(0.871,0,0,0.8709,4.1313,4.131)"
  />
  <linearGradient id="gradient1" gradientUnits="userSpaceOnUse" x1="-120.5" y1="3.78" x2="-120.5" y2="57.34">
   <stop offset="0" stop-color="#ffabab"/>
   <stop offset="1" stop-color="#d90000"/>
  </linearGradient>
  <path style="fill:none; stroke:url(#gradient1); stroke-width:11.2892; stroke-linecap:square"
        d="M9.48 51.72V48.9C9.48 36.44 19.61 26.35 32.09 26.35"
        transform="matrix(0.871,0,0,0.8709,4.1313,4.131)"
  />
 </g>
</svg>
