<?xml version="1.0" encoding="UTF-8" standalone="yes"?>
<svg version="1.1" width="64" height="64" color-interpolation="linearRGB"
     xmlns:svg="http://www.w3.org/2000/svg" xmlns="http://www.w3.org/2000/svg">
 <g>
  <path style="fill:none; stroke:#000000; stroke-opacity:0.4; stroke-width:5.6381; stroke-linecap:round; stroke-linejoin:round"
        d="M29.16 6.62L6.61 29.17L29.16 51.72V6.62z"
        transform="matrix(0.8708,0,0,0.8709,4.138,4.1314)"
  />
  <path style="fill:none; stroke:#000000; stroke-opacity:0.4; stroke-width:16.9146; stroke-linecap:square"
        d="M54.54 54.54V51.72C54.54 39.26 44.43 29.17 31.98 29.17"
        transform="matrix(0.8708,0,0,0.8709,4.138,4.1314)"
  />
  <path style="fill:none; stroke:#800000; stroke-width:5.6381; stroke-linecap:round; stroke-linejoin:round"
        d="M26.34 3.8L3.79 26.35L26.34 48.9V3.8z"
        transform="matrix(0.8708,0,0,0.8709,4.138,4.1314)"
  />
  <path style="fill:none; stroke:#800000; stroke-width:16.9146; stroke-linecap:square"
        d="M51.72 51.72V48.9C51.72 36.44 41.61 26.35 29.16 26.35"
        transform="matrix(0.8708,0,0,0.8709,4.138,4.1314)"
  />
  <linearGradient id="gradient0" gradientUnits="userSpaceOnUse" x1="181.41" y1="3.78" x2="181.41" y2="57.34">
   <stop offset="0" stop-color="#ffabab"/>
   <stop offset="1" stop-color="#d90000"/>
  </linearGradient>
  <path style="fill:url(#gradient0)"
        d="M26.34 3.8L3.79 26.35L26.34 48.9V3.8z"
        transform="matrix(0.8708,0,0,0.8709,4.138,4.1314)"
  />
  <linearGradient id="gradient1" gradientUnits="userSpaceOnUse" x1="181.41" y1="3.78" x2="181.41" y2="57.34">
   <stop offset="0" stop-color="#ffabab"/>
   <stop offset="1" stop-color="#d90000"/>
  </linearGradient>
  <path style="fill:none; stroke:url(#gradient1); stroke-width:11.2763; stroke-linecap:square"
        d="M51.72 51.72V48.9C51.72 36.44 41.61 26.35 29.16 26.35"
        transform="matrix(0.8708,0,0,0.8709,4.138,4.1314)"
  />
 </g>
</svg>
