<?xml version="1.0" encoding="UTF-8" standalone="yes"?>
<svg version="1.1" width="64" height="64" color-interpolation="linearRGB"
     xmlns:svg="http://www.w3.org/2000/svg" xmlns="http://www.w3.org/2000/svg">
 <g>
  <path style="fill:none; stroke:#800000; stroke-width:5.636"
        d="M17.9 3.81H3.81V57.36H17.9V3.81z"
        transform="matrix(0.8283,0,0,0.5072,6.9363,25.0993)"
  />
  <path style="fill:none; stroke:#004080; stroke-width:5.636"
        d="M38 24L23.54 23.54V57.36H37.63L38 24z"
        transform="matrix(0.8283,0,0,1.3221,7.9053,-23.9444)"
  />
  <linearGradient id="gradient0" gradientUnits="userSpaceOnUse" x1="181.35" y1="23.54" x2="181.35" y2="57.36">
   <stop offset="0" stop-color="#abd5ff"/>
   <stop offset="1" stop-color="#006cd9"/>
  </linearGradient>
  <path style="fill:url(#gradient0)"
        d="M37.63 23.54H23.54V57.36H37.63V23.54z"
        transform="matrix(0.8283,0,0,1.397,7.9053,-26.9721)"
  />
  <path style="fill:none; stroke:#005900; stroke-width:5.636"
        d="M57.36 40.45H43.27V57.36H57.36V40.45z"
        transform="matrix(0.8283,0,0,0.8731,8.8743,3.0796)"
  />
  <linearGradient id="gradient1" gradientUnits="userSpaceOnUse" x1="181.35" y1="40.45" x2="181.35" y2="57.35">
   <stop offset="0" stop-color="#80ff80"/>
   <stop offset="1" stop-color="#00b200"/>
  </linearGradient>
  <path style="fill:url(#gradient1)"
        d="M57.36 40.45H43.27V57.36H57.36V40.45z"
        transform="matrix(0.8283,0,0,0.8731,8.8743,3.0796)"
  />
  <linearGradient id="gradient2" gradientUnits="userSpaceOnUse" x1="181.35" y1="3.8" x2="181.35" y2="57.36">
   <stop offset="0" stop-color="#ffabab"/>
   <stop offset="1" stop-color="#d90000"/>
  </linearGradient>
  <path style="fill:url(#gradient2)"
        d="M17.9 3.81H3.81V57.36H17.9V3.81z"
        transform="matrix(0.8283,0,0,0.4687,6.9363,26.2775)"
  />
  <path style="fill:none; stroke:#000000; stroke-width:1"
        d="M4 64V1"
        transform="matrix(1.938,0,0,0.9686,-2.4101,0.0313)"
  />
  <path style="fill:none; stroke:#000000; stroke-width:1"
        d="M4 64V1"
        transform="matrix(-0.0091,1.9731,-0.9536,-0.0045,63.0205,49.8508)"
  />
  <path style="fill:#000000"
        d="M1 10L5 1L9 10L5 7L1 10z"
        transform="matrix(1.3081,0,0,1.3533,-0.9081,-0.3533)"
  />
  <path style="fill:#000000"
        d="M1 10L5 1L9 10L5 7L1 10z"
        transform="matrix(-0.0104,1.3287,-1.3323,-0.0107,64.3718,51.6875)"
  />
 </g>
</svg>
