<?xml version="1.0" encoding="UTF-8" standalone="yes"?>
<svg version="1.1" width="64" height="64" color-interpolation="linearRGB"
     xmlns:svg="http://www.w3.org/2000/svg" xmlns="http://www.w3.org/2000/svg">
 <g>
  <path style="fill:none; stroke:#000000; stroke-opacity:0.4; stroke-width:4.9604; stroke-linecap:round; stroke-linejoin:round"
        d="M6 10C18.48 10 45.5 10 58 10C58 25.55 58 40.44 58 56C45.5 56 18.48 56 6 56C6 40.44 6 10 6 10z"
        transform="matrix(1,0,0,1,2,2)"
  />
  <path style="fill:none; stroke:#000080; stroke-width:4.9604; stroke-linecap:round; stroke-linejoin:round"
        d="M6 10C18.48 10 45.5 10 58 10C58 25.55 58 40.44 58 56C45.5 56 18.48 56 6 56C6 40.44 6 10 6 10z"
  />
  <linearGradient id="gradient0" gradientUnits="userSpaceOnUse" x1="164.88" y1="7.42" x2="164.88" y2="54.09">
   <stop offset="0" stop-color="#ffffff"/>
   <stop offset="1" stop-color="#d9d9ff"/>
  </linearGradient>
  <path style="fill:url(#gradient0)"
        d="M6 10C18.48 10 45.5 10 58 10C58 25.55 58 40.44 58 56C45.5 56 18.48 56 6 56C6 40.44 6 10 6 10z"
  />
  <path style="fill:none; stroke:#000080; stroke-width:3"
        d="M32 10V57"
  />
 </g>
</svg>
