<?xml version="1.0" encoding="UTF-8" standalone="yes"?>
<svg version="1.1" width="64" height="64" color-interpolation="linearRGB"
     xmlns:svg="http://www.w3.org/2000/svg" xmlns="http://www.w3.org/2000/svg">
 <g>
  <path style="fill:none; stroke:#000000; stroke-opacity:0.4; stroke-width:8; stroke-linecap:round"
        d="M56 58L46 10
           M34 58C34 42 34 26 34 10
           M12 58L22 10
           M13 16C29 16 39 16 55 16
           M10 34C26 34 42 34 58 34
           M7 52C22.65 52 45.33 52 61 52"
        transform="matrix(0.9373,0,0,0.9322,2.0689,2.2034)"
  />
  <path style="fill:none; stroke:#bf5000; stroke-width:8; stroke-linecap:round"
        d="M10 34C26 34 42 34 58 34
           M13 16C29 16 39 16 55 16
           M12 58L22 10
           M34 58C34 42 34 26 34 10
           M56 58L46 10
           M7 52C22.65 52 45.33 52 61 52"
        transform="matrix(0.9373,0,0,0.9322,0.1943,-0.5931)"
  />
  <linearGradient id="gradient0" gradientUnits="userSpaceOnUse" x1="44.13" y1="12.17" x2="44.13" y2="38.7">
   <stop offset="0" stop-color="#ffff80"/>
   <stop offset="1" stop-color="#ffd400"/>
  </linearGradient>
  <path style="fill:none; stroke:url(#gradient0); stroke-width:2.5; stroke-linecap:round; stroke-linejoin:round"
        d="M10 34C26 34 42 34 58 34
           M13 16C29 16 39 16 55 16
           M12 58L22 10
           M34 58C34 42 34 26 34 10
           M56 58L46 10
           M7 52C22.65 52 45.33 52 61 52"
        transform="matrix(0.9373,0,0,0.9322,0.1943,-0.5931)"
  />
 </g>
</svg>
