<?xml version="1.0" encoding="UTF-8" standalone="yes"?>
<svg version="1.1" width="64" height="64" color-interpolation="linearRGB"
     xmlns:svg="http://www.w3.org/2000/svg" xmlns="http://www.w3.org/2000/svg">
 <g>
  <path style="fill:none; stroke:#000000; stroke-opacity:0.4; stroke-width:4.8583; stroke-linecap:round; stroke-linejoin:round"
        d="M8.06 26.82H18.35L38.91 9.73V59.11L18.35 42.02H8.06V26.82z"
  />
  <path style="fill:none; stroke:#000000; stroke-width:4.7469; stroke-linecap:round; stroke-linejoin:round"
        d="M7 23.62H17L37 6.82V55.34L17 38.56H7V23.62z"
  />
  <linearGradient id="gradient0" gradientUnits="userSpaceOnUse" x1="163.05" y1="8.17" x2="163.05" y2="51.7">
   <stop offset="0" stop-color="#808080"/>
   <stop offset="1" stop-color="#282828"/>
  </linearGradient>
  <path style="fill:url(#gradient0)"
        d="M7 23.62H17L37 6.82V55.34L17 38.56H7V23.62z"
  />
  <path style="fill:none; stroke:#000000; stroke-opacity:0.4; stroke-width:12.2709"
        d="M19.71 46.71L46.71 19.71
           M33.21 13.58C22.37 13.58 13.58 22.37 13.58 33.21C13.58 44.05 22.37 52.85 33.21 52.85C44.05 52.85 52.85 44.05 52.85 33.21C52.85 22.37 44.05 13.58 33.21 13.58z"
        transform="matrix(0.3871,0,0,0.3888,40.1263,19.0529)"
  />
  <path style="fill:none; stroke:#800000; stroke-width:17"
        d="M17.27 44.26L44.26 17.27
           M30.76 11.13C19.91 11.13 11.13 19.91 11.13 30.76C11.13 41.6 19.91 50.39 30.76 50.39C41.6 50.39 50.39 41.6 50.39 30.76C50.39 19.91 41.6 11.13 30.76 11.13z"
        transform="matrix(0.3871,0,0,0.3888,40.1263,19.0529)"
  />
  <linearGradient id="gradient1" gradientUnits="userSpaceOnUse" x1="162.06" y1="7.43" x2="162.06" y2="54.08">
   <stop offset="0" stop-color="#ffabab"/>
   <stop offset="1" stop-color="#d90000"/>
  </linearGradient>
  <path style="fill:none; stroke:url(#gradient1); stroke-width:7.3625"
        d="M30.76 11.13C19.91 11.13 11.13 19.91 11.13 30.76C11.13 41.6 19.91 50.39 30.76 50.39C41.6 50.39 50.39 41.6 50.39 30.76C50.39 19.91 41.6 11.13 30.76 11.13z
           M17.27 44.26L44.26 17.27"
        transform="matrix(0.3871,0,0,0.3888,40.1263,19.0529)"
  />
 </g>
</svg>
