<?xml version="1.0" encoding="UTF-8" standalone="yes"?>
<svg version="1.1" width="64" height="64" color-interpolation="linearRGB"
     xmlns:svg="http://www.w3.org/2000/svg" xmlns="http://www.w3.org/2000/svg">
 <g>
  <path style="fill:#000000; fill-opacity:0.4235"
        d="M25.06 2.55C20.44 2.55 16.69 6.32 16.69 10.94C16.69 13.1 17.54 15.05 18.87 16.54H5.51C3.96 16.54 2.71 17.79 2.71 19.32V31.04C3.58 30.71 4.51 30.51 5.51 30.51C10.14 30.51 13.89 34.27 13.89 38.9C13.89 43.52 10.14 47.29 5.51 47.29C4.51 47.29 3.58 47.08 2.71 46.75V58.47C2.71 60 3.96 61.25 5.51 61.25H17.2C16.89 60.38 16.69 59.45 16.69 58.47C16.69 53.84 20.44 50.08 25.06 50.08C29.7 50.08 33.45 53.84 33.45 58.47C33.45 59.45 33.25 60.38 32.93 61.25H44.63C46.18 61.25 47.43 60 47.43 58.47V45.09C48.91 46.43 50.86 47.29 53.02 47.29C57.65 47.29 61.4 43.52 61.4 38.9C61.4 34.27 57.65 30.51 53.02 30.51C50.86 30.51 48.91 31.35 47.43 32.7V19.32C47.43 17.79 46.18 16.54 44.63 16.54H31.28C32.61 15.05 33.45 13.1 33.45 10.94C33.45 6.32 29.7 2.55 25.06 2.55z"
        transform="matrix(0.9148,0,0,0.9158,5.2308,5.1552)"
  />
  <linearGradient id="gradient0" gradientUnits="userSpaceOnUse" x1="126.08" y1="-2.21" x2="130.02" y2="38.58">
   <stop offset="0" stop-color="#80ff80"/>
   <stop offset="1" stop-color="#00b300"/>
  </linearGradient>
  <path style="fill:url(#gradient0)"
        d="M25.06 2.55C20.44 2.55 16.69 6.32 16.69 10.94C16.69 13.1 17.54 15.05 18.87 16.54H5.51C3.96 16.54 2.71 17.79 2.71 19.32V31.04C3.58 30.71 4.51 30.51 5.51 30.51C10.14 30.51 13.89 34.27 13.89 38.9C13.89 43.52 10.14 47.29 5.51 47.29C4.51 47.29 3.58 47.08 2.71 46.75V58.47C2.71 60 3.96 61.25 5.51 61.25H17.2C16.89 60.38 16.69 59.45 16.69 58.47C16.69 53.84 20.44 50.08 25.06 50.08C29.7 50.08 33.45 53.84 33.45 58.47C33.45 59.45 33.25 60.38 32.93 61.25H44.63C46.18 61.25 47.43 60 47.43 58.47V45.09C48.91 46.43 50.86 47.29 53.02 47.29C57.65 47.29 61.4 43.52 61.4 38.9C61.4 34.27 57.65 30.51 53.02 30.51C50.86 30.51 48.91 31.35 47.43 32.7V19.32C47.43 17.79 46.18 16.54 44.63 16.54H31.28C32.61 15.05 33.45 13.1 33.45 10.94C33.45 6.32 29.7 2.55 25.06 2.55z"
        transform="matrix(0.9027,0,0,0.8872,3.1176,3.1194)"
  />
  <path style="fill:none; stroke:#177f00; stroke-width:3; stroke-linecap:round"
        d="M25.06 2.55C20.44 2.55 16.69 6.32 16.69 10.94C16.69 13.1 17.54 15.05 18.87 16.54H5.51C3.96 16.54 2.71 17.79 2.71 19.32V31.04C3.58 30.71 4.51 30.51 5.51 30.51C10.14 30.51 13.89 34.27 13.89 38.9C13.89 43.52 10.14 47.29 5.51 47.29C4.51 47.29 3.58 47.08 2.71 46.75V58.47C2.71 60 3.96 61.25 5.51 61.25H17.2C16.89 60.38 16.69 59.45 16.69 58.47C16.69 53.84 20.44 50.08 25.06 50.08C29.7 50.08 33.45 53.84 33.45 58.47C33.45 59.45 33.25 60.38 32.93 61.25H44.63C46.18 61.25 47.43 60 47.43 58.47V45.09C48.91 46.43 50.86 47.29 53.02 47.29C57.65 47.29 61.4 43.52 61.4 38.9C61.4 34.27 57.65 30.51 53.02 30.51C50.86 30.51 48.91 31.35 47.43 32.7V19.32C47.43 17.79 46.18 16.54 44.63 16.54H31.28C32.61 15.05 33.45 13.1 33.45 10.94C33.45 6.32 29.7 2.55 25.06 2.55z"
        transform="matrix(0.9027,0,0,0.8872,3.1176,3.1194)"
  />
 </g>
</svg>
