<?xml version="1.0" encoding="UTF-8" standalone="yes"?>
<svg version="1.1" width="64" height="64" color-interpolation="linearRGB"
     xmlns:svg="http://www.w3.org/2000/svg" xmlns="http://www.w3.org/2000/svg">
 <g>
  <linearGradient id="gradient0" gradientUnits="userSpaceOnUse" x1="126.09" y1="-2.21" x2="130.02" y2="38.58">
   <stop offset="0" stop-color="#80ff80"/>
   <stop offset="1" stop-color="#00b300"/>
  </linearGradient>
  <path style="fill:url(#gradient0)"
        d="M25.07 2.56C20.44 2.56 16.69 6.32 16.69 10.95C16.69 13.11 17.54 15.05 18.87 16.54H5.51C3.96 16.54 2.71 17.79 2.71 19.33V31.04C3.59 30.72 4.51 30.51 5.51 30.51C10.14 30.51 13.89 34.27 13.89 38.9C13.89 43.53 10.14 47.29 5.51 47.29C4.51 47.29 3.59 47.08 2.71 46.76V58.47C2.71 60.01 3.96 61.26 5.51 61.26H17.21C16.9 60.38 16.69 59.46 16.69 58.47C16.69 53.84 20.44 50.08 25.07 50.08C29.7 50.08 33.46 53.84 33.46 58.47C33.46 59.46 33.25 60.38 32.94 61.26H44.64C46.19 61.26 47.44 60.01 47.44 58.47V45.1C48.92 46.44 50.87 47.29 53.03 47.29C57.66 47.29 61.41 43.53 61.41 38.9C61.41 34.27 57.66 30.51 53.03 30.51C50.87 30.51 48.92 31.35 47.44 32.7V19.33C47.44 17.79 46.19 16.54 44.64 16.54H31.28C32.62 15.05 33.46 13.11 33.46 10.95C33.46 6.32 29.7 2.56 25.07 2.56z"
  />
  <path style="fill:none; stroke:#177f00; stroke-width:3; stroke-linecap:round"
        d="M25.07 2.56C20.44 2.56 16.69 6.32 16.69 10.95C16.69 13.11 17.54 15.05 18.87 16.54H5.51C3.96 16.54 2.71 17.79 2.71 19.33V31.04C3.59 30.72 4.51 30.51 5.51 30.51C10.14 30.51 13.89 34.27 13.89 38.9C13.89 43.53 10.14 47.29 5.51 47.29C4.51 47.29 3.59 47.08 2.71 46.76V58.47C2.71 60.01 3.96 61.26 5.51 61.26H17.21C16.9 60.38 16.69 59.46 16.69 58.47C16.69 53.84 20.44 50.08 25.07 50.08C29.7 50.08 33.46 53.84 33.46 58.47C33.46 59.46 33.25 60.38 32.94 61.26H44.64C46.19 61.26 47.44 60.01 47.44 58.47V45.1C48.92 46.44 50.87 47.29 53.03 47.29C57.66 47.29 61.41 43.53 61.41 38.9C61.41 34.27 57.66 30.51 53.03 30.51C50.87 30.51 48.92 31.35 47.44 32.7V19.33C47.44 17.79 46.19 16.54 44.64 16.54H31.28C32.62 15.05 33.46 13.11 33.46 10.95C33.46 6.32 29.7 2.56 25.07 2.56z"
  />
 </g>
</svg>
