<?xml version="1.0" encoding="UTF-8" standalone="yes"?>
<svg version="1.1" width="64" height="64" color-interpolation="linearRGB"
     xmlns:svg="http://www.w3.org/2000/svg" xmlns="http://www.w3.org/2000/svg">
 <g>
  <path style="fill:#000000; fill-opacity:0.3411"
        d="M40 36C26.73 36 16 40.91 16 47C16 53.06 26.73 58 40 58C53.25 58 64 53.06 64 47C64 40.91 53.25 36 40 36z"
        transform="matrix(1.1666,0,0,2.5,-12.6666,-83)"
  />
  <path style="fill:none; stroke:#000000; stroke-width:4"
        d="M28 6C15.84 6 6 15.84 6 28C6 40.15 15.84 50 28 50C40.15 50 50 40.15 50 28C50 15.84 40.15 6 28 6z"
        transform="matrix(1.1666,0,0,1.1666,-0.6666,-0.6666)"
  />
  <radialGradient id="gradient0" gradientUnits="userSpaceOnUse" cx="0" cy="0" r="64" gradientTransform="matrix(0.4427,0,0,-0.4427,23.5321,21.0146)">
   <stop offset="0.1931" stop-color="#32e4ff"/>
   <stop offset="0.7878" stop-color="#0066ff"/>
   <stop offset="1" stop-color="#0034cc"/>
  </radialGradient>
  <path style="fill:url(#gradient0)"
        d="M28 6C15.84 6 6 15.84 6 28C6 40.15 15.84 50 28 50C40.15 50 50 40.15 50 28C50 15.84 40.15 6 28 6z"
        transform="matrix(1.1666,0,0,1.1666,-0.6666,-0.6666)"
  />
  <radialGradient id="gradient1" gradientUnits="userSpaceOnUse" cx="0" cy="0" r="64" gradientTransform="matrix(0.4558,0,0,-0.4558,17.8412,24.4122)">
   <stop offset="0.33" stop-color="#09b4b6"/>
   <stop offset="0.85" stop-color="#033784"/>
   <stop offset="1" stop-color="#051d61"/>
  </radialGradient>
  <path style="fill:url(#gradient1)"
        d="M46.36 16.39C43.15 11.32 37.85 7.74 31.94 6.65C30.65 6.42 29.33 6.3 28.01 6.3C21.92 6.3 16.01 8.91 11.92 13.43C7.6 18.2 5.59 24.76 6.52 31.14C7.01 34.12 7.31 35.02 8.1 36.71C10.28 41.7 14.36 45.76 19.34 47.94C25.04 50.43 31.69 50.32 37.3 47.66C37.07 46.61 36.19 46.58 35.31 46.49H35.21L35.53 46.57C34.83 46.41 34.2 46.72 33.55 46.91C32.79 47.14 32 47.03 31.24 46.95C29.69 46.77 27.79 46.47 26.51 47.57C26.44 47.57 26.37 47.57 26.37 47.57H26.1C26.1 47.57 23.13 47.57 22.51 47.57C21.89 47.13 21.3 47.01 20.73 46.96C20.7 46.93 20.45 46.64 20.45 46.64C20.29 46.46 20.16 46.35 19.94 46.28L18.64 45.83L17.28 45.33C17.16 45.29 17.04 45.28 16.92 45.27C16.9 45.22 16.91 45.16 16.87 45.12L16.58 44.65C16.18 43.95 15.74 43.26 14.91 43.09C15.02 42.63 14.86 42.25 14.73 41.82C14.59 41.35 14.55 40.85 14.57 40.36L14.61 39.92C14.66 39.31 14.69 38.71 14.6 38.11C15.56 37.05 15.77 35.96 15.69 34.55L15.66 34.04C15.66 33.28 15.66 33.19 15.9 32.86L16.04 32.7C16.71 31.81 17.77 30.02 16.36 29.24L12.84 27.33C12.84 27.33 12.38 27.12 12.32 27.09V27.06C12.3 26.03 11.94 25.31 11.11 24.7L10.89 24.55C10.89 24.53 10.59 24.14 10.59 24.14L9.72 23.1C9.16 22.57 8.63 22.4 8.15 22.36C8.11 22.27 8.05 22.17 7.99 22.09C9.23 21.57 9.8 20.19 10.28 19.04C10.57 18.36 10.81 17.63 11.32 17.08C11.79 16.56 12.22 16.12 12.1 15.36C13.09 14.98 13.99 14.48 14.84 13.97L14.96 13.9L16.68 12.83C17.89 12.11 18.45 11.13 18.84 9.8C19.58 9.87 20.24 9.69 20.75 9.43C21.68 9.99 23.2 10.02 24 9.19C24.03 9.19 24.17 9.18 24.32 9.17C23.86 10.11 24.32 11.42 25.36 11.8C25.4 11.85 25.41 11.94 25.46 11.97C25.25 12.04 25.05 12.11 25.05 12.11L24.09 13.19C23.88 13.85 24.09 14.54 24.41 15.12C24.43 15.15 24.44 15.22 24.44 15.22C24.46 15.34 24.5 15.51 24.56 15.7C24.46 15.82 24.37 15.91 24.37 15.91C23.41 17.08 21.86 17.34 21.43 18.95L21.37 19.16C20.88 19.8 20.76 20.57 21.2 21.27C21.15 21.36 21.12 21.44 21.12 21.44C20.72 22.16 20.39 22.99 20.61 23.8C20.84 24.61 21.5 25.19 22.11 25.71C22.71 26.22 23.32 26.75 24.08 27.04C24.95 27.37 25.94 27.3 26.84 27.07L27.76 26.79C28.18 26.64 28.61 26.43 29.07 26.48C29.56 26.52 29.93 26.91 30.29 27.22C29.64 28.85 30.88 30.47 31.61 31.87C31.61 31.87 31.77 32.15 31.82 32.23C30.92 33.86 30.83 35.66 32.21 37.02L32.34 37.17C32.33 38.5 32.36 40.85 34.06 41.26C35.8 41.66 37.55 40.69 38.61 39.37L39.03 38.88L39.36 38.62C39.73 38.35 40.13 38.04 40.35 37.64C40.56 37.2 40.59 36.68 40.88 36.28V36.29C40.92 37.13 41.71 37.73 42.53 37.59C43.53 37.42 44.15 36.34 44.55 35.51L44.73 35.15L44.78 35.07C45.27 34.22 45.63 33.15 45.01 32.27C44.47 31.5 43.41 31.29 42.68 31.93C42.68 31.68 42.68 31.44 42.68 31.44L42.72 29.88C42.74 29.65 43.23 29.17 43.5 28.91L43.76 28.66L44.04 28.41C44.59 27.93 45.12 27.4 45.31 26.67C45.43 26.36 45.36 25.83 45.38 25.49L45.37 25.25L45.38 25.13C45.44 24.43 45.33 23.71 44.77 23.21C45.4 22.83 45.85 22.18 46.05 21.37C46.09 21.43 46.16 21.58 46.16 21.58C46.34 21.94 46.57 22.38 46.97 22.76C46.91 23.66 47.24 24.5 47.63 25.28C48.03 26.04 48.11 26.89 48.1 27.75L48.12 28.6C48.15 29.04 48.2 29.51 48.08 29.95C47.97 30.36 47.75 30.73 47.65 31.14C47.38 32.07 47.31 33.06 47.31 34.03C47.18 34.82 47.63 35.59 48.28 35.84C50.74 29.47 50.02 22.16 46.36 16.39z"
        transform="matrix(1.1666,0,0,1.1666,-0.6666,-0.6666)"
  />
  <radialGradient id="gradient2" gradientUnits="userSpaceOnUse" cx="0" cy="0" r="64" gradientTransform="matrix(0.5366,0,0,0.5366,21.3889,16.5266)">
   <stop offset="0" stop-color="#d5ffd5"/>
   <stop offset="0.2991" stop-color="#6eff6e"/>
   <stop offset="0.5665" stop-color="#1ebc1e"/>
   <stop offset="1" stop-color="#04b204"/>
  </radialGradient>
  <path style="fill:url(#gradient2)"
        d="M13.1 37.78C13.45 37.31 13.91 36.93 14.18 36.4C14.49 35.74 14.31 34.75 14.31 34.04C14.31 33.21 14.31 32.74 14.82 32.05C15.2 31.53 15.59 31.09 15.7 30.43C14.54 29.8 13.37 29.15 12.2 28.53C11.9 28.37 11.22 28.18 11.06 27.83C10.87 27.36 11.06 26.76 10.83 26.32C10.67 25.97 10.13 25.73 9.86 25.42C9.5 24.99 9.22 24.49 8.8 24.09C8.39 23.72 8 23.54 7.49 23.81C6.93 24.13 6.96 23.27 6.9 22.9C6.76 23.51 6.63 24.14 6.53 24.76C7.03 24.76 6.97 24.91 6.99 25.38C7 25.86 7.01 26.34 7.03 26.83C7.12 27.04 7.06 27.15 6.85 27.15C6.79 27.17 6.73 27.19 6.66 27.22C6.54 27.31 6.46 27.3 6.4 27.18C6.21 27.17 6.34 29.3 6.35 29.48C6.4 30.17 6.33 32.35 7.32 32.01C7.84 32.36 7.75 33.2 8.1 33.69C8.51 34.28 9.04 34.58 9.25 35.31C9.45 36.05 9.47 36.83 9.59 37.59C9.74 38.53 10.26 38.87 10.95 39.45C11.12 40.43 11.41 41.04 12.07 41.79C12.37 42.13 12.67 42.47 12.94 42.83C13.23 43.2 13.36 43.19 13.65 42.79C13.28 42.02 13.17 41.14 13.22 40.28C13.27 39.47 13.45 38.55 13.1 37.78
           M20.82 7.76C21.23 8.04 21.26 8.3 21.79 8.4C22.16 8.47 22.74 8.55 23.02 8.24C23.72 7.52 24.8 8.04 25.61 7.54C26.26 7.14 26.8 6.34 27.64 6.34C28.15 6.33 28.47 6.65 28.89 6.88C29.45 7.19 29.9 6.6 30.42 6.43C26.42 5.99 22.32 6.67 18.66 8.41C19.48 8.65 20.2 8.26 20.82 7.76
           M26.36 10.99C26.73 11.01 27.17 11.28 27.54 11.12C28.14 10.88 27.57 9.97 27.32 9.71C27.14 9.51 26.27 8.65 26.44 9.42C26.55 9.93 26.99 10.64 26.36 10.99
           M10.76 15.76C10.83 15.48 10.67 15.38 10.49 15.2C9.22 16.93 8.2 18.86 7.49 20.9C9.17 19.59 9.04 17.08 10.76 15.76
           M49.7 26.72C49.38 23.39 48.42 20.12 46.78 17.2C45.96 15.71 44.95 14.32 43.77 13.09C43.2 12.47 42.59 11.9 41.94 11.36C41.74 11.19 41.52 10.89 41.24 11.05C40.99 11.18 40.79 10.7 40.86 10.51C38.02 8.42 34.68 7.04 31.19 6.53C31.69 6.88 32.33 6.84 32.87 7.07C33.06 7.14 33.62 7.45 33.17 7.6C32.28 7.9 31.27 7.54 30.36 7.6C29.8 7.64 29.53 7.84 29.49 8.41C29.46 8.72 29.38 9.33 29.5 9.63C29.63 9.98 30.71 9.55 30.88 9.36C31.15 9.03 30.82 8.34 31.57 8.55C31.85 9.12 32.43 10.75 31.18 10.32C30.86 10.21 30.28 9.69 29.94 9.85C29.92 9.86 29.86 10.26 29.83 10.3C29.72 10.5 29.53 10.63 29.32 10.69C28.43 10.93 27.79 11.06 27.47 12.02C27.32 12.49 27.33 12.77 26.81 12.95C26.43 13.09 26 13.17 25.63 13.35C25.12 13.59 25.47 14.25 25.66 14.58C25.79 14.82 25.77 15.39 26.02 15.53C26.78 15.96 27.65 14.28 27.96 13.89C28.37 13.35 28.84 13.48 29.4 13.29C29.66 13.21 30.01 12.53 30.29 12.64C31.22 13 31.5 14.12 31.64 14.99C31.94 14.99 31.75 14.28 32.37 14.44C31.91 13.94 31.58 13.27 31.51 12.57C32.18 13 32.65 13.47 32.87 14.22C33.07 14.97 33.42 15.39 34.03 14.63C34.18 14.48 34.4 13.47 34.72 13.76C35 14 35 14.81 34.58 14.92C34.82 15.14 35.15 15.04 35.43 14.97C35.81 14.87 36.03 14.9 36.39 15.04C36.81 15.2 37.25 15.26 37.7 15.28C38.14 15.3 38.39 15.71 38.6 16.05C39.16 16.97 35.8 16.59 35.63 16.57C35.23 16.55 34.77 16.55 34.4 16.69C34.11 16.81 33.9 17.2 33.55 17.08C33.17 16.96 32.82 16.61 32.48 16.39C32.03 16.09 31.55 15.82 31.06 15.6C30.23 15.23 29.29 15 28.39 15.18C27.97 15.28 27.57 15.46 27.22 15.72C26.8 16.03 26.34 15.76 25.94 16.19C25.3 16.84 24.86 17.63 24.02 18.04C23.67 18.2 23.26 18.35 23.02 18.65C22.77 18.96 22.77 19.38 22.6 19.73C22.45 20.06 22.09 20.23 22.38 20.63C22.63 20.97 22.7 21.25 22.52 21.66C22.27 22.27 21.57 23.08 22.08 23.74C22.56 24.39 23.41 25.02 24.04 25.49C24.77 26.03 25.67 25.97 26.5 25.76C27.27 25.55 28.05 25.18 28.85 25.12C29.86 25.05 30.62 25.68 31.33 26.32C31.8 26.74 31.98 26.91 31.62 27.49C31.22 28.17 31.46 28.64 31.79 29.29C32.11 29.94 32.46 30.59 32.79 31.21C32.95 31.49 33.15 31.74 33.27 32.03C33.42 32.36 33.19 32.55 33.03 32.84C32.71 33.42 32.48 34.08 32.48 34.75C32.49 35.49 32.84 35.74 33.31 36.22C33.74 36.65 33.72 37.42 33.68 37.98C33.62 38.76 33.86 39.3 34.32 39.91C35.01 39.95 35.73 39.9 36.37 39.6C37.14 39.23 37.48 38.51 38.07 37.92C38.61 37.38 39.17 37.34 39.34 36.51C39.53 35.54 40.05 35.15 40.75 34.55C41.4 34 41.32 33.21 41.34 32.44C41.35 31.56 41.26 30.59 41.36 29.7C41.47 28.9 42.25 28.25 42.79 27.71C43.19 27.3 43.85 26.91 43.99 26.32C44.07 26.01 44 25.59 44 25.25C44 25.01 44.09 24.62 43.98 24.39C43.69 23.77 42.4 24.38 42.25 23.8C42.16 23.45 42.18 23.51 42.41 23.3C42.67 23.06 42.41 22.82 42.18 22.69C41.56 22.32 41.05 22.08 40.6 21.46C40.17 20.9 39.81 20.28 39.46 19.65C39.37 19.5 38.54 17.81 39.03 17.96C39.57 18.14 40.06 18.78 40.43 19.19C41.06 19.88 41.65 20.66 42.05 21.51C42.06 21.62 42.46 21.84 42.54 21.9C42.83 22.11 43.15 22.28 43.52 22.26C44.37 22.18 44.78 21.42 44.84 20.65C44.92 19.61 44.12 19.82 43.5 19.33C43.15 19.04 42.91 18.65 42.63 18.3C42.46 18.1 41.98 17.76 42.14 17.43C42.5 17.19 42.65 17.4 42.99 17.6C43.4 17.86 43.85 18.07 44.3 18.22C44.78 18.37 45.49 18.23 45.9 18.54C46.15 18.72 46.33 19.16 46.49 19.43C46.77 19.85 47.02 20.28 47.25 20.72C47.6 21.42 47.69 21.88 48.53 22.14C48 23.01 48.52 24.03 48.93 24.82C49.42 25.78 49.47 26.7 49.46 27.76C49.44 28.72 49.67 29.82 49.23 30.72C48.76 31.7 48.66 33.03 48.66 34.12C48.68 34.06 48.7 33.97 48.74 33.91C48.69 33.99 48.54 34.54 48.68 34.57C48.88 34.61 49.25 32.56 49.3 32.32C49.68 30.49 49.8 28.6 49.7 26.72
           M37.78 13.78C37.46 13.83 37.48 13.3 37.25 13.18C36.83 12.97 36.35 13.22 35.99 13.41C34.81 14.06 35.14 12.7 35.39 12.04C35.43 11.94 36.2 12.07 36.32 12.05C36.71 12 37.3 11.83 37.61 12.17C37.9 12.51 38.13 12.83 38.46 13.15C38.89 13.53 38.09 13.75 37.78 13.78
           M43.64 32.85C43.25 33.33 42.72 33.69 42.42 34.24C42.06 34.87 42.24 35.61 42.24 36.29C42.91 35.98 43.21 35.08 43.56 34.48C43.81 34.04 44.36 33.16 43.64 32.85
           M34.98 47.81C33.24 49.05 30.59 47.94 28.62 48.16C28.18 48.21 27.75 48.29 27.4 48.6C26.94 49 26.74 48.93 26.1 48.93C24.77 48.93 23.44 48.93 22.11 48.93C24.99 49.73 28.03 49.95 31 49.54C32.4 49.35 33.8 49.02 35.14 48.57C35.25 48.53 36.27 47.99 35.9 47.86C35.61 47.75 35.25 47.93 34.98 47.81
           M16.91 10.93C17.29 10.3 17.53 9.61 17.7 8.9C15.21 10.24 12.99 12.09 11.19 14.28C12.28 13.92 13.28 13.31 14.26 12.73C14.74 12.44 15.22 12.15 15.69 11.85C16.08 11.6 16.66 11.32 16.91 10.93
           M14.68 44.37C14.51 44.5 14.36 44.68 14.14 44.73C14.69 45.2 15.28 45.63 15.88 46.04C15.41 45.53 15.24 44.8 14.68 44.37"
        transform="matrix(1.1666,0,0,1.1666,-0.6666,-0.6666)"
  />
 </g>
</svg>
