<?xml version="1.0" encoding="UTF-8" standalone="yes"?>
<svg version="1.1" width="64" height="64" color-interpolation="linearRGB"
     xmlns:svg="http://www.w3.org/2000/svg" xmlns="http://www.w3.org/2000/svg">
 <g>
  <path style="fill:none; stroke:#000000; stroke-opacity:0.4; stroke-width:2.5945; stroke-linecap:round; stroke-linejoin:round"
        d="M17.13 34.66C17.13 34.66 7.53 44.2 7.53 49.7C7.53 55.2 11.83 59.66 17.13 59.66C22.42 59.66 26.72 55.2 26.72 49.7C26.72 44.2 17.13 34.66 17.13 34.66z"
        transform="matrix(1,0,0,1.0724,1,-3.4179)"
  />
  <path style="fill:none; stroke:#004080; stroke-width:4.6274; stroke-linejoin:round"
        d="M15.85 33.34C15.85 33.34 6.26 42.88 6.26 48.38C6.26 53.88 10.55 58.34 15.85 58.34C21.14 58.34 25.44 53.88 25.44 48.38C25.44 42.88 15.85 33.34 15.85 33.34z"
  />
  <linearGradient id="gradient0" gradientUnits="userSpaceOnUse" x1="84.25" y1="33.33" x2="84.25" y2="58.34">
   <stop offset="0" stop-color="#abd5ff"/>
   <stop offset="1" stop-color="#006cd9"/>
  </linearGradient>
  <path style="fill:url(#gradient0)"
        d="M15.85 33.34C15.85 33.34 6.26 42.88 6.26 48.38C6.26 53.88 10.55 58.34 15.85 58.34C21.14 58.34 25.44 53.88 25.44 48.38C25.44 42.88 15.85 33.34 15.85 33.34z"
  />
  <path style="fill:#ffffff; fill-opacity:0.6862"
        d="M15.85 34.66C15.85 34.66 7.53 43.74 7.53 48.47C7.53 53.19 11.25 57.03 15.85 57.03H15.84C12.67 57.03 10.08 53.19 10.08 48.47C10.08 43.74 15.85 34.66 15.85 34.66z"
  />
  <path style="fill:none; stroke:#000000; stroke-opacity:0.4; stroke-width:2.5945; stroke-linecap:round; stroke-linejoin:round"
        d="M49.13 29.66C49.13 29.66 39.53 39.2 39.53 44.7C39.53 50.2 43.83 54.66 49.13 54.66C54.42 54.66 58.72 50.2 58.72 44.7C58.72 39.2 49.13 29.66 49.13 29.66z"
        transform="matrix(1,0,0,1,1,1)"
  />
  <path style="fill:none; stroke:#004080; stroke-width:4.6274; stroke-linejoin:round"
        d="M47.85 28.34C47.85 28.34 38.26 37.88 38.26 43.38C38.26 48.88 42.55 53.34 47.85 53.34C53.14 53.34 57.44 48.88 57.44 43.38C57.44 37.88 47.85 28.34 47.85 28.34z"
  />
  <linearGradient id="gradient1" gradientUnits="userSpaceOnUse" x1="116.25" y1="28.33" x2="116.25" y2="53.34">
   <stop offset="0" stop-color="#abd5ff"/>
   <stop offset="1" stop-color="#006cd9"/>
  </linearGradient>
  <path style="fill:url(#gradient1)"
        d="M47.85 28.34C47.85 28.34 38.26 37.88 38.26 43.38C38.26 48.88 42.55 53.34 47.85 53.34C53.14 53.34 57.44 48.88 57.44 43.38C57.44 37.88 47.85 28.34 47.85 28.34z"
  />
  <path style="fill:#ffffff; fill-opacity:0.6862"
        d="M47.85 29.66C47.85 29.66 39.53 38.74 39.53 43.47C39.53 48.19 43.25 52.03 47.85 52.03H47.84C44.67 52.03 42.08 48.19 42.08 43.47C42.08 38.74 47.85 29.66 47.85 29.66z"
  />
  <path style="fill:none; stroke:#000000; stroke-opacity:0.4; stroke-width:2.5945; stroke-linecap:round; stroke-linejoin:round"
        d="M31.13 7.66C31.13 7.66 21.53 17.2 21.53 22.7C21.53 28.2 25.83 32.66 31.13 32.66C36.42 32.66 40.72 28.2 40.72 22.7C40.72 17.2 31.13 7.66 31.13 7.66z"
        transform="matrix(1,0,0,1,1,1)"
  />
  <path style="fill:none; stroke:#004080; stroke-width:4.6274; stroke-linejoin:round"
        d="M29.85 6.34C29.85 6.34 20.26 15.88 20.26 21.38C20.26 26.88 24.55 31.34 29.85 31.34C35.14 31.34 39.44 26.88 39.44 21.38C39.44 15.88 29.85 6.34 29.85 6.34z"
  />
  <linearGradient id="gradient2" gradientUnits="userSpaceOnUse" x1="98.25" y1="6.33" x2="98.25" y2="31.34">
   <stop offset="0" stop-color="#abd5ff"/>
   <stop offset="1" stop-color="#006cd9"/>
  </linearGradient>
  <path style="fill:url(#gradient2)"
        d="M29.85 6.34C29.85 6.34 20.26 15.88 20.26 21.38C20.26 26.88 24.55 31.34 29.85 31.34C35.14 31.34 39.44 26.88 39.44 21.38C39.44 15.88 29.85 6.34 29.85 6.34z"
  />
  <path style="fill:#ffffff; fill-opacity:0.6862"
        d="M29.85 7.66C29.85 7.66 21.53 16.74 21.53 21.47C21.53 26.19 25.25 30.03 29.85 30.03H29.84C26.67 30.03 24.08 26.19 24.08 21.47C24.08 16.74 29.85 7.66 29.85 7.66z"
  />
 </g>
</svg>
