<?xml version="1.0" encoding="UTF-8" standalone="yes"?>
<svg version="1.1" width="64" height="64" color-interpolation="linearRGB"
     xmlns:svg="http://www.w3.org/2000/svg" xmlns="http://www.w3.org/2000/svg">
 <g>
  <path style="fill:none; stroke:#000000; stroke-opacity:0.4; stroke-width:4.5957"
        d="M22.02 57.89C45.32 58.21 58.72 36.94 40.11 17.44C43.11 14.25 46.1 11.05 49.1 7.86C39.76 7.84 30.41 7.83 21.06 7.81C21.08 17.53 21.09 27.24 21.11 36.95C24.17 33.81 27.23 30.66 30.3 27.51C45.43 42.35 34.81 54.16 21.32 54.07C20.02 54.06 19.44 58.01 22.02 57.89V57.89V57.89V57.89V57.89z"
        transform="matrix(1,0,0,1,-13,0)"
  />
  <path style="fill:none; stroke:#005900; stroke-width:4.5957"
        d="M20.21 56.96C43.51 57.27 56.91 36.01 38.3 16.5C41.3 13.31 44.29 10.11 47.29 6.92C37.94 6.91 28.6 6.89 19.25 6.88C19.27 16.6 19.28 26.31 19.3 36.02C22.36 32.87 25.42 29.73 28.49 26.58C43.62 41.41 32.99 53.22 19.51 53.14C18.21 53.13 17.63 57.08 20.21 56.96V56.96V56.96V56.96V56.96z"
        transform="matrix(1,0,0,1,-13,0)"
  />
  <linearGradient id="gradient0" gradientUnits="userSpaceOnUse" x1="150.97" y1="8.16" x2="150.97" y2="51.68">
   <stop offset="0" stop-color="#80ff80"/>
   <stop offset="1" stop-color="#00b300"/>
  </linearGradient>
  <path style="fill:url(#gradient0)"
        d="M20.21 56.96C43.51 57.27 56.91 36.01 38.3 16.5C41.3 13.31 44.29 10.11 47.29 6.92C37.94 6.91 28.6 6.89 19.25 6.88C19.27 16.6 19.28 26.31 19.3 36.02C22.36 32.87 25.42 29.73 28.49 26.58C43.62 41.41 32.99 53.22 19.51 53.14C18.21 53.13 17.63 57.08 20.21 56.96V56.96V56.96V56.96V56.96z"
        transform="matrix(1,0,0,1,-13,0)"
  />
  <path style="fill:none; stroke:#000000; stroke-opacity:0.4; stroke-width:4.9112; stroke-linecap:round; stroke-linejoin:round"
        d="M56.54 19.71C53.27 16.43 50 13.16 46.72 9.89C42.22 14.39 37.72 18.89 33.21 23.39C28.71 18.89 24.21 14.39 19.71 9.89C16.43 13.16 13.16 16.43 9.89 19.71C14.39 24.21 18.89 28.71 23.39 33.21C18.89 37.72 14.39 42.22 9.89 46.72C13.16 50 16.43 53.27 19.71 56.54C24.21 52.04 28.71 47.54 33.21 43.04C37.72 47.54 42.22 52.04 46.72 56.54C50 53.27 53.27 50 56.54 46.72C52.04 42.22 47.54 37.72 43.04 33.21C47.54 28.71 52.04 24.21 56.54 19.71V19.71V19.71z"
        transform="matrix(0.4615,0,0,0.4986,35.7277,33.5396)"
  />
  <path style="fill:none; stroke:#800000; stroke-width:9; stroke-linecap:round; stroke-linejoin:round"
        d="M54.09 17.25C50.81 13.98 47.54 10.71 44.27 7.43C39.76 11.93 35.26 16.43 30.76 20.94C26.26 16.43 21.75 11.93 17.25 7.43C13.98 10.71 10.71 13.98 7.43 17.25C11.93 21.75 16.43 26.26 20.94 30.76C16.43 35.26 11.93 39.76 7.43 44.27C10.71 47.54 13.98 50.81 17.25 54.09C21.75 49.59 26.26 45.09 30.76 40.59C35.26 45.09 39.76 49.59 44.27 54.09C47.54 50.81 50.81 47.54 54.09 44.27C49.59 39.76 45.09 35.26 40.59 30.76C45.09 26.26 49.59 21.75 54.09 17.25V17.25V17.25z"
        transform="matrix(0.4615,0,0,0.4986,35.7277,33.5396)"
  />
  <linearGradient id="gradient1" gradientUnits="userSpaceOnUse" x1="162.14" y1="12.34" x2="162.14" y2="54.09">
   <stop offset="0" stop-color="#ffabab"/>
   <stop offset="1" stop-color="#d90000"/>
  </linearGradient>
  <path style="fill:url(#gradient1)"
        d="M54.09 17.25C50.81 13.98 47.54 10.71 44.27 7.43C39.76 11.93 35.26 16.43 30.76 20.94C26.26 16.43 21.75 11.93 17.25 7.43C13.98 10.71 10.71 13.98 7.43 17.25C11.93 21.75 16.43 26.26 20.94 30.76C16.43 35.26 11.93 39.76 7.43 44.27C10.71 47.54 13.98 50.81 17.25 54.09C21.75 49.59 26.26 45.09 30.76 40.59C35.26 45.09 39.76 49.59 44.27 54.09C47.54 50.81 50.81 47.54 54.09 44.27C49.59 39.76 45.09 35.26 40.59 30.76C45.09 26.26 49.59 21.75 54.09 17.25V17.25V17.25z"
        transform="matrix(0.4615,0,0,0.4986,35.7277,33.5396)"
  />
 </g>
</svg>
