<?xml version="1.0" encoding="UTF-8" standalone="yes"?>
<svg version="1.1" width="64" height="64" color-interpolation="linearRGB"
     xmlns:svg="http://www.w3.org/2000/svg" xmlns="http://www.w3.org/2000/svg">
 <g>
  <path style="fill:none; stroke:#000000; stroke-opacity:0.4; stroke-width:5.6412; stroke-linecap:round; stroke-linejoin:round"
        d="M60.2 17.89L48.92 6.61L33.4 22.12L17.89 6.61L6.61 17.89L22.12 33.4L6.61 48.92L17.89 60.2L33.4 44.69L48.92 60.2L60.2 48.92L44.69 33.4L60.2 17.89z"
        transform="matrix(0.8706,0,0,0.8706,4.1381,4.1381)"
  />
  <path style="fill:none; stroke:#800000; stroke-width:5.6412; stroke-linecap:round; stroke-linejoin:round"
        d="M57.38 15.07L46.1 3.79L30.58 19.3L15.07 3.79L3.79 15.07L19.3 30.58L3.79 46.1L15.07 57.38L30.58 41.87L46.1 57.38L57.38 46.1L41.87 30.58L57.38 15.07z"
        transform="matrix(0.8706,0,0,0.8706,4.1381,4.1381)"
  />
  <linearGradient id="gradient0" gradientUnits="userSpaceOnUse" x1="181.49" y1="9.43" x2="181.49" y2="57.38">
   <stop offset="0" stop-color="#ffabab"/>
   <stop offset="1" stop-color="#d90000"/>
  </linearGradient>
  <path style="fill:url(#gradient0)"
        d="M57.38 15.07L46.1 3.79L30.58 19.3L15.07 3.79L3.79 15.07L19.3 30.58L3.79 46.1L15.07 57.38L30.58 41.87L46.1 57.38L57.38 46.1L41.87 30.58L57.38 15.07z"
        transform="matrix(0.8706,0,0,0.8706,4.1381,4.1381)"
  />
 </g>
</svg>
