<?xml version="1.0" encoding="UTF-8" standalone="yes"?>
<svg version="1.1" width="64" height="64" color-interpolation="linearRGB"
     xmlns:svg="http://www.w3.org/2000/svg" xmlns="http://www.w3.org/2000/svg">
 <g>
  <path style="fill:none; stroke:#1a171b; stroke-opacity:0.4; stroke-width:5.7519"
        d="M60.1 32.75C60.1 35.63 59.63 38.5 58.72 41.28L48.51 42.89C47.02 45.2 45.07 47.07 42.89 48.5L41.25 58.75C38.52 59.66 35.63 60.09 32.72 60.09L28.02 50.86C25.36 50.16 22.97 48.9 20.95 47.25L10.68 48.87C8.98 46.54 7.69 43.94 6.78 41.18L14.11 33.84C13.96 31.1 14.42 28.45 15.37 26.02L10.65 16.75C12.33 14.42 14.4 12.37 16.76 10.66L25.99 15.37C28.55 14.36 31.23 13.97 33.83 14.13L41.18 6.78C43.92 7.67 46.51 9.01 48.87 10.72L47.25 20.94C48.99 23.07 50.17 25.5 50.84 28.02L60.1 32.75z
           M32.79 22.73C27.21 22.73 22.73 27.21 22.73 32.79C22.73 38.34 27.21 42.86 32.79 42.86C38.34 42.86 42.86 38.34 42.86 32.79C42.86 27.21 38.34 22.73 32.79 22.73z"
        transform="matrix(0.8557,0,0,0.8557,5.0878,5.0881)"
  />
  <path style="fill:none; stroke:#545454; stroke-width:5.7519"
        d="M29.92 19.85C24.34 19.85 19.85 24.34 19.85 29.92C19.85 35.47 24.34 39.98 29.92 39.98C35.47 39.98 39.98 35.47 39.98 29.92C39.98 24.34 35.47 19.85 29.92 19.85z
           M57.23 29.87C57.23 32.75 56.75 35.63 55.85 38.4L45.64 40.01C44.14 42.33 42.2 44.2 40.01 45.62L38.37 55.87C35.64 56.78 32.75 57.21 29.85 57.21L25.14 47.98C22.48 47.29 20.1 46.02 18.07 44.37L7.8 45.99C6.11 43.67 4.81 41.06 3.9 38.3L11.24 30.97C11.08 28.22 11.54 25.58 12.49 23.14L7.77 13.87C9.46 11.54 11.53 9.5 13.88 7.79L23.12 12.49C25.68 11.48 28.35 11.09 30.95 11.25L38.3 3.9C41.05 4.8 43.64 6.13 46 7.84L44.37 18.07C46.11 20.2 47.29 22.63 47.97 25.14L57.23 29.87z"
        transform="matrix(0.8557,0,0,0.8557,5.0878,5.0881)"
  />
  <linearGradient id="gradient0" gradientUnits="userSpaceOnUse" x1="183.78" y1="5.47" x2="183.78" y2="57.24">
   <stop offset="0" stop-color="#ffffff"/>
   <stop offset="1" stop-color="#e5e5e5"/>
  </linearGradient>
  <path style="fill:url(#gradient0)"
        d="M57.23 29.87C57.23 32.75 56.75 35.63 55.85 38.4L45.64 40.01C44.14 42.33 42.2 44.2 40.01 45.62L38.37 55.87C35.64 56.78 32.75 57.21 29.85 57.21L25.14 47.98C22.48 47.29 20.1 46.02 18.07 44.37L7.8 45.99C6.11 43.67 4.81 41.06 3.9 38.3L11.24 30.97C11.08 28.22 11.54 25.58 12.49 23.14L7.77 13.87C9.46 11.54 11.53 9.5 13.88 7.79L23.12 12.49C25.68 11.48 28.35 11.09 30.95 11.25L38.3 3.9C41.05 4.8 43.64 6.13 46 7.84L44.37 18.07C46.11 20.2 47.29 22.63 47.97 25.14L57.23 29.87z
           M29.92 19.85C24.34 19.85 19.85 24.34 19.85 29.92C19.85 35.47 24.34 39.98 29.92 39.98C35.47 39.98 39.98 35.47 39.98 29.92C39.98 24.34 35.47 19.85 29.92 19.85z"
        transform="matrix(0.8557,0,0,0.8557,5.0878,5.0881)"
  />
 </g>
</svg>
