<?xml version="1.0" encoding="UTF-8" standalone="yes"?>
<svg version="1.1" width="64" height="64" color-interpolation="linearRGB"
     xmlns:svg="http://www.w3.org/2000/svg" xmlns="http://www.w3.org/2000/svg">
 <g>
  <path style="fill:none; stroke:#000000; stroke-opacity:0.4; stroke-width:5.3319; stroke-linejoin:round"
        d="M41.33 38.68C41.33 38.68 46.66 36.01 48 37.34C49.33 38.68 46.66 44.01 46.66 44.01C47.55 44.9 48.44 45.79 49.33 46.67C53.33 46.67 59.99 40.01 59.99 36.01C59.1 35.12 58.22 34.23 57.33 33.34C57.33 33.34 52 36.01 50.66 34.68C49.33 33.34 52 28.01 52 28.01C47.55 23.57 43.11 19.13 38.66 14.68C36 12.02 32 9.35 29.33 9.35C26.67 9.35 22.67 10.68 22.67 12.02C28 12.02 34.67 17.35 34.67 22.68C34.67 25.35 30.67 28.01 30.67 28.01C34.22 31.57 37.78 35.12 41.33 38.68V38.68V38.68z
           M30.67 33.34C23.56 40.01 16.45 46.67 9.34 53.34C9.34 56 12.01 60 14.67 60C21.78 52.89 28.89 45.79 36 38.68C34.22 36.9 32.44 35.12 30.67 33.34V33.34V33.34z"
  />
  <path style="fill:none; stroke:#bf5000; stroke-width:5.3319"
        d="M28 30.68C20.89 37.34 13.78 44.01 6.67 50.67C6.67 53.34 9.34 57.34 12 57.34C19.11 50.23 26.22 43.12 33.33 36.01C31.56 34.23 29.78 32.45 28 30.68V30.68V30.68z"
  />
  <linearGradient id="gradient0" gradientUnits="userSpaceOnUse" x1="174.63" y1="30.68" x2="174.63" y2="57.34">
   <stop offset="0" stop-color="#ffea80"/>
   <stop offset="1" stop-color="#ffbb00"/>
  </linearGradient>
  <path style="fill:url(#gradient0)"
        d="M28 30.68C20.89 37.34 13.78 44.01 6.67 50.67C6.67 53.34 9.34 57.34 12 57.34C19.11 50.23 26.22 43.12 33.33 36.01C31.56 34.23 29.78 32.45 28 30.68V30.68V30.68z"
  />
  <path style="fill:none; stroke:#000000; stroke-width:5.3319; stroke-linecap:round; stroke-linejoin:round"
        d="M38.66 36.01C38.66 36.01 44 33.34 45.33 34.68C46.66 36.01 44 41.34 44 41.34C44.89 42.23 45.77 43.12 46.66 44.01C50.66 44.01 57.33 37.34 57.33 33.34C56.44 32.45 55.55 31.57 54.66 30.68C54.66 30.68 49.33 33.34 48 32.01C46.66 30.68 49.33 25.35 49.33 25.35C44.89 20.9 40.44 16.46 36 12.02C33.33 9.35 29.33 6.68 26.67 6.68C24 6.68 20 8.02 20 9.35C25.33 9.35 32 14.68 32 20.01C32 22.68 28 25.35 28 25.35C31.56 28.9 35.11 32.45 38.66 36.01V36.01V36.01z"
  />
  <linearGradient id="gradient1" gradientUnits="userSpaceOnUse" x1="171.58" y1="4.08" x2="171.58" y2="43.05">
   <stop offset="0" stop-color="#808080"/>
   <stop offset="1" stop-color="#292929"/>
  </linearGradient>
  <path style="fill:url(#gradient1)"
        d="M38.66 36.01C38.66 36.01 44 33.34 45.33 34.68C46.66 36.01 44 41.34 44 41.34C44.89 42.23 45.77 43.12 46.66 44.01C50.66 44.01 57.33 37.34 57.33 33.34C56.44 32.45 55.55 31.57 54.66 30.68C54.66 30.68 49.33 33.34 48 32.01C46.66 30.68 49.33 25.35 49.33 25.35C44.89 20.9 40.44 16.46 36 12.02C33.33 9.35 29.33 6.68 26.67 6.68C24 6.68 20 8.02 20 9.35C25.33 9.35 32 14.68 32 20.01C32 22.68 28 25.35 28 25.35C31.56 28.9 35.11 32.45 38.66 36.01V36.01V36.01z"
  />
  <path style="fill:#ffffff; fill-opacity:0.2705"
        d="M55.99 34.68C54.66 34.68 46.66 42.67 46.66 44.01C50.66 44.01 57.33 37.34 57.33 33.34C56.44 32.45 55.55 31.57 54.66 30.68C54.66 30.68 49.33 33.34 48 32.01C46.66 30.68 49.33 25.35 49.33 25.35C44.89 20.9 40.44 16.46 36 12.02C33.33 9.35 29.33 6.68 26.67 6.68C24 6.68 20 8.02 20 9.35C22.67 6.68 28 8.02 30.67 9.35C33.33 10.68 37.33 14.68 38.66 17.35C36.44 19.57 34.22 21.79 32 24.01C28 28.01 30.67 30.68 34.67 26.68C36.89 24.46 39.11 22.24 41.33 20.01C43.55 22.24 45.77 24.46 48 26.68C46.66 28.01 46.66 30.68 48 32.01C49.33 33.34 51.99 33.34 53.33 32.01C54.22 32.9 55.11 33.79 55.99 34.68V34.68V34.68z"
  />
  <path style="fill:none; stroke:#000000; stroke-opacity:0.4; stroke-width:2.8637; stroke-linecap:round; stroke-linejoin:round"
        d="M40.02 36.68C47.5 36.68 54.98 36.68 62.45 36.68C62.45 45.33 62.45 53.99 62.45 62.65C54.98 62.65 47.5 62.65 40.02 62.65C40.02 53.99 40.02 45.33 40.02 36.68V36.68V36.68z"
        transform="matrix(0.8205,0,0,0.8081,11.4634,12.2952)"
  />
  <path style="fill:none; stroke:#000080; stroke-width:7; stroke-linecap:round; stroke-linejoin:round"
        d="M38.52 35.31C46 35.31 53.48 35.31 60.96 35.31C60.96 43.97 60.96 52.62 60.96 61.28C53.48 61.28 46 61.28 38.52 61.28C38.52 52.62 38.52 43.97 38.52 35.31V35.31V35.31z"
        transform="matrix(0.8205,0,0,0.8081,11.4634,12.2952)"
  />
  <linearGradient id="gradient2" gradientUnits="userSpaceOnUse" x1="129.78" y1="35.31" x2="129.78" y2="61.28">
   <stop offset="0" stop-color="#ffffff"/>
   <stop offset="1" stop-color="#d9d9ff"/>
  </linearGradient>
  <path style="fill:url(#gradient2)"
        d="M38.52 35.31C46 35.31 53.48 35.31 60.96 35.31C60.96 43.97 60.96 52.62 60.96 61.28C53.48 61.28 46 61.28 38.52 61.28C38.52 52.62 38.52 43.97 38.52 35.31V35.31V35.31z"
        transform="matrix(0.8205,0,0,0.8081,11.4634,12.2952)"
  />
  <path style="fill:none; stroke:#80d3ff; stroke-width:5.7275; stroke-linecap:square"
        d="M43.01 55.81C45.5 55.81 47.99 55.81 50.49 55.81
           M43.01 50.35C46.5 50.35 49.99 50.35 53.48 50.35
           M43.01 44.88C45.5 44.88 47.99 44.88 50.49 44.88
           M43.01 39.41C47.5 39.41 51.98 39.41 56.47 39.41"
        transform="matrix(0.8205,0,0,0.8081,11.4634,12.2952)"
  />
  <path style="fill:none; stroke:#000000; stroke-opacity:0.4; stroke-width:2.8637; stroke-linecap:round; stroke-linejoin:round"
        d="M43.01 55.81C45.5 55.81 47.99 55.81 50.49 55.81
           M43.01 50.35C46.5 50.35 49.99 50.35 53.48 50.35
           M43.01 44.88C45.5 44.88 47.99 44.88 50.49 44.88
           M43.01 39.41C47.5 39.41 51.98 39.41 56.47 39.41"
        transform="matrix(0.8205,0,0,0.8081,11.4634,12.2952)"
  />
 </g>
</svg>
