<?xml version="1.0" encoding="UTF-8" standalone="yes"?>
<svg version="1.1" width="64" height="64" color-interpolation="linearRGB"
     xmlns:svg="http://www.w3.org/2000/svg" xmlns="http://www.w3.org/2000/svg">
 <g>
  <path style="fill:none; stroke:#000000; stroke-opacity:0.4; stroke-width:8; stroke-linecap:round; stroke-linejoin:round"
        d="M40 40L32 32
           M32 19C32 11.81 26.17 6 19 6C11.81 6 6 11.81 6 19C6 26.17 11.81 32 19 32C26.17 32 32 26.17 32 19z"
        transform="matrix(1.2728,0,0,1.2728,4.0001,4.0001)"
  />
  <path style="fill:none; stroke:#000000; stroke-width:8; stroke-linecap:round; stroke-linejoin:round"
        d="M38 38L30 30
           M30 17C30 9.81 24.17 4 17 4C9.81 4 4 9.81 4 17C4 24.17 9.81 30 17 30C24.17 30 30 24.17 30 17z"
        transform="matrix(1.2728,0,0,1.2728,4.0001,4.0001)"
  />
  <linearGradient id="gradient0" gradientUnits="userSpaceOnUse" x1="128" y1="0" x2="128" y2="40">
   <stop offset="0" stop-color="#808080"/>
   <stop offset="1" stop-color="#292929"/>
  </linearGradient>
  <path style="fill:none; stroke:url(#gradient0); stroke-width:4; stroke-linecap:round"
        d="M38 38L30 30
           M30 17C30 9.81 24.17 4 17 4C9.81 4 4 9.81 4 17C4 24.17 9.81 30 17 30C24.17 30 30 24.17 30 17z"
        transform="matrix(1.2728,0,0,1.2728,4.0001,4.0001)"
  />
 </g>
</svg>
