<?xml version="1.0" encoding="UTF-8" standalone="yes"?>
<svg version="1.1" width="64" height="64" color-interpolation="linearRGB"
     xmlns:svg="http://www.w3.org/2000/svg" xmlns="http://www.w3.org/2000/svg">
 <g>
  <path style="fill:#010101; fill-opacity:0.4235"
        d="M59 10H62V24L60 26H50L24 51V64H7V54L51 10H59z"
        transform="matrix(1.0181,0,0,1.0185,-0.1272,-3.1481)"
  />
  <path style="fill:#729fcf"
        d="M12.74 51.24L51.24 12.74"
  />
  <path style="fill:none; stroke:#204a87; stroke-width:10.4994"
        d="M12.74 51.24L51.24 12.74"
  />
  <path style="fill:none; stroke:#93b6db; stroke-width:4.1997"
        d="M12.74 51.24L51.24 12.74"
  />
  <path style="fill:#babdb6"
        d="M44.24 5.74H58.24V19.73H44.24V5.74z"
  />
  <path style="fill:none; stroke:#888a85; stroke-width:3.4997; stroke-linecap:round; stroke-linejoin:round"
        d="M44.24 5.74H58.24V19.73H44.24V5.74z"
  />
  <path style="fill:none; stroke:#ffffff; stroke-width:3.4997; stroke-linecap:round"
        d="M47.74 9.24H54.74V16.24H47.74V9.24z"
  />
  <path style="fill:#babdb6"
        d="M5.74 44.24H19.74V58.23H5.74V44.24z"
  />
  <path style="fill:none; stroke:#888a85; stroke-width:3.4997; stroke-linecap:round; stroke-linejoin:round"
        d="M5.74 44.24H19.74V58.23H5.74V44.24z"
  />
  <path style="fill:none; stroke:#ffffff; stroke-width:3.4997; stroke-linecap:round"
        d="M9.24 47.74H16.24V54.74H9.24V47.74z"
  />
 </g>
</svg>
