<?xml version="1.0" encoding="UTF-8" standalone="yes"?>
<svg version="1.1" width="64" height="64" color-interpolation="linearRGB"
     xmlns:svg="http://www.w3.org/2000/svg" xmlns="http://www.w3.org/2000/svg">
 <g>
  <path style="fill:none; stroke:#204a87; stroke-width:12"
        d="M10 62V48C10 26 26 10 48 10H62"
        transform="matrix(0.875,0,0,0.8749,3.9999,4)"
  />
  <path style="fill:none; stroke:#90b4dd; stroke-width:4.8"
        d="M10 62V48C10 26 26 10 48 10H62"
        transform="matrix(0.875,0,0,0.8749,3.9999,4)"
  />
  <path style="fill:#babdb6"
        d="M46 2H62V17.99H46V2z"
        transform="matrix(0.875,0,0,0.8749,3.9999,4)"
  />
  <path style="fill:none; stroke:#888a85; stroke-width:4; stroke-linecap:round; stroke-linejoin:round"
        d="M46 2H62V17.99H46V2z"
        transform="matrix(0.875,0,0,0.8749,3.9999,4)"
  />
  <path style="fill:none; stroke:#ffffff; stroke-width:4; stroke-linecap:round"
        d="M50 6H58V14H50V6z"
        transform="matrix(0.875,0,0,0.8749,3.9999,4)"
  />
  <path style="fill:#babdb6"
        d="M2 46H18V61.99H2V46z"
        transform="matrix(0.875,0,0,0.8749,3.9999,4)"
  />
  <path style="fill:none; stroke:#888a85; stroke-width:4; stroke-linecap:round; stroke-linejoin:round"
        d="M2 46H18V61.99H2V46z"
        transform="matrix(0.875,0,0,0.8749,3.9999,4)"
  />
  <path style="fill:none; stroke:#ffffff; stroke-width:4; stroke-linecap:round"
        d="M6 50H14V58H6V50z"
        transform="matrix(0.875,0,0,0.8749,3.9999,4)"
  />
 </g>
</svg>
