<?xml version="1.0" encoding="UTF-8" standalone="yes"?>
<svg version="1.1" width="64" height="64" color-interpolation="linearRGB"
     xmlns:svg="http://www.w3.org/2000/svg" xmlns="http://www.w3.org/2000/svg">
 <g>
  <path style="fill:none; stroke:#000000; stroke-opacity:0.4; stroke-width:4.9093; stroke-linecap:round; stroke-linejoin:round"
        d="M19.7 9.89C31.98 9.89 44.25 9.89 56.53 9.89C56.53 25.43 56.53 40.98 56.53 56.52C44.25 56.52 31.98 56.52 19.7 56.52C19.7 40.98 19.7 25.43 19.7 9.89V9.89V9.89z"
        transform="matrix(0.939,0,0,0.7861,4.2479,14.3879)"
  />
  <path style="fill:none; stroke:#005900; stroke-width:6; stroke-linecap:round; stroke-linejoin:round"
        d="M17.25 7.43C29.53 7.43 41.8 7.43 54.08 7.43C54.08 22.98 54.08 38.52 54.08 54.07C41.8 54.07 29.53 54.07 17.25 54.07C17.25 38.52 17.25 22.98 17.25 7.43V7.43V7.43z"
        transform="matrix(0.939,0,0,0.7861,4.2479,14.3879)"
  />
  <linearGradient id="gradient0" gradientUnits="userSpaceOnUse" x1="162.1" y1="14.81" x2="162.1" y2="41.8">
   <stop offset="0" stop-color="#80ff80"/>
   <stop offset="1" stop-color="#00b200"/>
  </linearGradient>
  <path style="fill:url(#gradient0)"
        d="M17.25 7.43C29.53 7.43 41.8 7.43 54.08 7.43C54.08 22.98 54.08 38.52 54.08 54.07C41.8 54.07 29.53 54.07 17.25 54.07C17.25 38.52 17.25 22.98 17.25 7.43V7.43V7.43z"
        transform="matrix(0.939,0,0,0.7861,4.2479,14.3879)"
  />
  <path style="fill:none; stroke:#000000; stroke-opacity:0.4; stroke-width:4.9093; stroke-linecap:round; stroke-linejoin:round"
        d="M19.7 9.89C31.98 9.89 44.25 9.89 56.53 9.89C56.53 25.43 56.53 40.98 56.53 56.52C44.25 56.52 31.98 56.52 19.7 56.52C19.7 40.98 19.7 25.43 19.7 9.89V9.89V9.89z"
        transform="matrix(0.939,0,0,0.7861,-9.4057,0.6137)"
  />
  <path style="fill:none; stroke:#000080; stroke-width:6; stroke-linecap:round; stroke-linejoin:round"
        d="M17.25 7.43C29.53 7.43 41.8 7.43 54.08 7.43C54.08 22.98 54.08 38.52 54.08 54.07C41.8 54.07 29.53 54.07 17.25 54.07C17.25 38.52 17.25 22.98 17.25 7.43V7.43V7.43z"
        transform="matrix(0.939,0,0,0.7861,-9.4057,0.6137)"
  />
  <linearGradient id="gradient1" gradientUnits="userSpaceOnUse" x1="162.1" y1="7.43" x2="162.1" y2="54.07">
   <stop offset="0" stop-color="#ffffff"/>
   <stop offset="1" stop-color="#d9d9ff"/>
  </linearGradient>
  <path style="fill:url(#gradient1)"
        d="M17.25 7.43C29.53 7.43 41.8 7.43 54.08 7.43C54.08 22.98 54.08 38.52 54.08 54.07C41.8 54.07 29.53 54.07 17.25 54.07C17.25 38.52 17.25 22.98 17.25 7.43V7.43V7.43z"
        transform="matrix(0.939,0,0,0.7861,-9.4057,0.6137)"
  />
 </g>
</svg>
