<?xml version="1.0" encoding="UTF-8" standalone="yes"?>
<svg version="1.1" width="64" height="64" color-interpolation="linearRGB"
     xmlns:svg="http://www.w3.org/2000/svg" xmlns="http://www.w3.org/2000/svg">
 <g>
  <path style="fill:none; stroke:#000000; stroke-opacity:0.4; stroke-width:8.454; stroke-linecap:round; stroke-linejoin:round"
        d="M10.86 8.04H8.04"
        transform="matrix(0.8709,0,0,0.8709,4.129,4.129)"
  />
  <path style="fill:none; stroke:#545454; stroke-width:8.454; stroke-linecap:round; stroke-linejoin:round"
        d="M8.04 5.22H5.22"
        transform="matrix(0.8709,0,0,0.8709,4.129,4.129)"
  />
  <path style="fill:none; stroke:#ffffff; stroke-width:2.818; stroke-linecap:round; stroke-linejoin:round"
        d="M8.04 5.22H5.22"
        transform="matrix(0.8709,0,0,0.8709,4.129,4.129)"
  />
  <path style="fill:none; stroke:#000000; stroke-opacity:0.4; stroke-width:8.454; stroke-linecap:round; stroke-linejoin:round"
        d="M27.77 8.04H24.95"
        transform="matrix(0.8709,0,0,0.8709,4.129,4.129)"
  />
  <path style="fill:none; stroke:#545454; stroke-width:8.454; stroke-linecap:round; stroke-linejoin:round"
        d="M24.95 5.22H22.13"
        transform="matrix(0.8709,0,0,0.8709,4.129,4.129)"
  />
  <path style="fill:none; stroke:#ffffff; stroke-width:2.818; stroke-linecap:round; stroke-linejoin:round"
        d="M24.95 5.22H22.13"
        transform="matrix(0.8709,0,0,0.8709,4.129,4.129)"
  />
  <path style="fill:none; stroke:#000000; stroke-opacity:0.4; stroke-width:8.454; stroke-linecap:round; stroke-linejoin:round"
        d="M44.68 8.04H41.86"
        transform="matrix(0.8709,0,0,0.8709,4.129,4.129)"
  />
  <path style="fill:none; stroke:#545454; stroke-width:8.454; stroke-linecap:round; stroke-linejoin:round"
        d="M41.86 5.22H39.04"
        transform="matrix(0.8709,0,0,0.8709,4.129,4.129)"
  />
  <path style="fill:none; stroke:#ffffff; stroke-width:2.818; stroke-linecap:round; stroke-linejoin:round"
        d="M41.86 5.22H39.04"
        transform="matrix(0.8709,0,0,0.8709,4.129,4.129)"
  />
  <path style="fill:none; stroke:#000000; stroke-opacity:0.4; stroke-width:8.454; stroke-linecap:round; stroke-linejoin:round"
        d="M24.95 58.77H22.13"
        transform="matrix(0.8709,0,0,0.8709,4.129,4.129)"
  />
  <path style="fill:none; stroke:#545454; stroke-width:8.454; stroke-linecap:round; stroke-linejoin:round"
        d="M22.13 55.95H19.31"
        transform="matrix(0.8709,0,0,0.8709,4.129,4.129)"
  />
  <path style="fill:none; stroke:#ffffff; stroke-width:2.818; stroke-linecap:round; stroke-linejoin:round"
        d="M22.13 55.95H19.31"
        transform="matrix(0.8709,0,0,0.8709,4.129,4.129)"
  />
  <path style="fill:none; stroke:#000000; stroke-opacity:0.4; stroke-width:8.454; stroke-linecap:round; stroke-linejoin:round"
        d="M41.86 58.77H39.04"
        transform="matrix(0.8709,0,0,0.8709,4.129,4.129)"
  />
  <path style="fill:none; stroke:#545454; stroke-width:8.454; stroke-linecap:round; stroke-linejoin:round"
        d="M39.04 55.95H36.22"
        transform="matrix(0.8709,0,0,0.8709,4.129,4.129)"
  />
  <path style="fill:none; stroke:#ffffff; stroke-width:2.818; stroke-linecap:round; stroke-linejoin:round"
        d="M39.04 55.95H36.22"
        transform="matrix(0.8709,0,0,0.8709,4.129,4.129)"
  />
  <path style="fill:none; stroke:#000000; stroke-opacity:0.4; stroke-width:8.454; stroke-linecap:round; stroke-linejoin:round"
        d="M58.77 58.77H55.95"
        transform="matrix(0.8709,0,0,0.8709,4.129,4.129)"
  />
  <path style="fill:none; stroke:#545454; stroke-width:8.454; stroke-linecap:round; stroke-linejoin:round"
        d="M55.95 55.95H53.13"
        transform="matrix(0.8709,0,0,0.8709,4.129,4.129)"
  />
  <path style="fill:none; stroke:#ffffff; stroke-width:2.818; stroke-linecap:round; stroke-linejoin:round"
        d="M55.95 55.95H53.13"
        transform="matrix(0.8709,0,0,0.8709,4.129,4.129)"
  />
  <path style="fill:none; stroke:#000000; stroke-opacity:0.4; stroke-width:8.454; stroke-linecap:round; stroke-linejoin:round"
        d="M8.04 24.95V22.13"
        transform="matrix(0.8709,0,0,0.8709,4.129,4.129)"
  />
  <path style="fill:none; stroke:#545454; stroke-width:8.454; stroke-linecap:round; stroke-linejoin:round"
        d="M5.22 22.13V19.31"
        transform="matrix(0.8709,0,0,0.8709,4.129,4.129)"
  />
  <path style="fill:none; stroke:#ffffff; stroke-width:2.818; stroke-linecap:round; stroke-linejoin:round"
        d="M5.22 22.13V19.31"
        transform="matrix(0.8709,0,0,0.8709,4.129,4.129)"
  />
  <path style="fill:none; stroke:#000000; stroke-opacity:0.4; stroke-width:8.454; stroke-linecap:round; stroke-linejoin:round"
        d="M8.04 41.86V39.04"
        transform="matrix(0.8709,0,0,0.8709,4.129,4.129)"
  />
  <path style="fill:none; stroke:#545454; stroke-width:8.454; stroke-linecap:round; stroke-linejoin:round"
        d="M5.22 39.04V36.22"
        transform="matrix(0.8709,0,0,0.8709,4.129,4.129)"
  />
  <path style="fill:none; stroke:#ffffff; stroke-width:2.818; stroke-linecap:round; stroke-linejoin:round"
        d="M5.22 39.04V36.22"
        transform="matrix(0.8709,0,0,0.8709,4.129,4.129)"
  />
  <path style="fill:none; stroke:#000000; stroke-opacity:0.4; stroke-width:8.454; stroke-linecap:round; stroke-linejoin:round"
        d="M8.04 58.77V55.95"
        transform="matrix(0.8709,0,0,0.8709,4.129,4.129)"
  />
  <path style="fill:none; stroke:#545454; stroke-width:8.454; stroke-linecap:round; stroke-linejoin:round"
        d="M5.22 55.95V53.13"
        transform="matrix(0.8709,0,0,0.8709,4.129,4.129)"
  />
  <path style="fill:none; stroke:#ffffff; stroke-width:2.818; stroke-linecap:round; stroke-linejoin:round"
        d="M5.22 55.95V53.13"
        transform="matrix(0.8709,0,0,0.8709,4.129,4.129)"
  />
  <path style="fill:none; stroke:#000000; stroke-opacity:0.4; stroke-width:8.454; stroke-linecap:round; stroke-linejoin:round"
        d="M58.77 10.86V8.04"
        transform="matrix(0.8709,0,0,0.8709,4.129,4.129)"
  />
  <path style="fill:none; stroke:#545454; stroke-width:8.454; stroke-linecap:round; stroke-linejoin:round"
        d="M55.95 8.04V5.22"
        transform="matrix(0.8709,0,0,0.8709,4.129,4.129)"
  />
  <path style="fill:none; stroke:#ffffff; stroke-width:2.818; stroke-linecap:round; stroke-linejoin:round"
        d="M55.95 8.04V5.22"
        transform="matrix(0.8709,0,0,0.8709,4.129,4.129)"
  />
  <path style="fill:none; stroke:#000000; stroke-opacity:0.4; stroke-width:8.454; stroke-linecap:round; stroke-linejoin:round"
        d="M58.77 27.77V24.95"
        transform="matrix(0.8709,0,0,0.8709,4.129,4.129)"
  />
  <path style="fill:none; stroke:#545454; stroke-width:8.454; stroke-linecap:round; stroke-linejoin:round"
        d="M55.95 24.95V22.13"
        transform="matrix(0.8709,0,0,0.8709,4.129,4.129)"
  />
  <path style="fill:none; stroke:#ffffff; stroke-width:2.818; stroke-linecap:round; stroke-linejoin:round"
        d="M55.95 24.95V22.13"
        transform="matrix(0.8709,0,0,0.8709,4.129,4.129)"
  />
  <path style="fill:none; stroke:#000000; stroke-opacity:0.4; stroke-width:8.454; stroke-linecap:round; stroke-linejoin:round"
        d="M58.77 44.68V41.86"
        transform="matrix(0.8709,0,0,0.8709,4.129,4.129)"
  />
  <path style="fill:none; stroke:#545454; stroke-width:8.454; stroke-linecap:round; stroke-linejoin:round"
        d="M55.95 41.86V39.04"
        transform="matrix(0.8709,0,0,0.8709,4.129,4.129)"
  />
  <path style="fill:none; stroke:#ffffff; stroke-width:2.818; stroke-linecap:round; stroke-linejoin:round"
        d="M55.95 41.86V39.04"
        transform="matrix(0.8709,0,0,0.8709,4.129,4.129)"
  />
 </g>
</svg>
