<?xml version="1.0" encoding="UTF-8" standalone="yes"?>
<svg version="1.1" width="64" height="64" color-interpolation="linearRGB"
     xmlns:svg="http://www.w3.org/2000/svg" xmlns="http://www.w3.org/2000/svg">
 <g>
  <path style="fill:#010101; fill-opacity:0.4549"
        d="M11.76 57.15H30.44V24.13H11.76V57.15z"
        transform="matrix(1.0606,0,0,1.0509,-2.5483,-2.1738)"
  />
  <path style="fill:#010101; fill-opacity:0.4549"
        d="M45.72 36.98C52.87 36.98 58.48 42.54 58.48 49.64C58.48 56.7 52.87 62.28 45.72 62.28C38.58 62.28 32.95 56.7 32.95 49.64C32.95 42.54 38.58 36.98 45.72 36.98z"
        transform="matrix(1.0606,0,0,1.0509,-2.5483,-2.1738)"
  />
  <path style="fill:#010101; fill-opacity:0.4549"
        d="M27.16 37.75L39.88 7.81L53.51 37.75H27.16z"
        transform="matrix(1.0606,0,0,1.0509,-2.5483,-2.1738)"
  />
  <path style="fill:none; stroke:#000000; stroke-width:3.6054"
        d="M35.88 7.84L22.25 38.75L50.08 39.47L35.88 7.84z"
        transform="matrix(1.0606,0,0,1.0509,-2.5483,-2.1738)"
  />
  <linearGradient id="gradient0" gradientUnits="userSpaceOnUse" x1="60.54" y1="72.19" x2="39.33" y2="79.67">
   <stop offset="0" stop-color="#fff289"/>
   <stop offset="1" stop-color="#ffcd05"/>
  </linearGradient>
  <path style="fill:url(#gradient0)"
        d="M23.16 38.75L35.88 8.81L49.51 38.75H23.16z"
        transform="matrix(1.0606,0,0,1.0509,-2.5483,-2.1738)"
  />
  <path style="fill:none; stroke:#000000; stroke-width:3.4476"
        d="M44.22 35.98C50.53 35.98 55.49 40.88 55.49 47.14C55.49 53.37 50.53 58.28 44.22 58.28C37.92 58.28 32.95 53.37 32.95 47.14C32.95 40.88 37.92 35.98 44.22 35.98z"
        transform="matrix(1.0606,0,0,1.0509,-2.5483,-2.1738)"
  />
  <radialGradient id="gradient1" gradientUnits="userSpaceOnUse" cx="0" cy="0" r="64" gradientTransform="matrix(0.2166,0,0,0.2141,41.6422,44.5742)">
   <stop offset="0" stop-color="#ffebeb"/>
   <stop offset="0.4925" stop-color="#e86b06"/>
   <stop offset="1" stop-color="#bb0505"/>
  </radialGradient>
  <path style="fill:url(#gradient1)"
        d="M44.22 35.98C50.53 35.98 55.49 40.88 55.49 47.14C55.49 53.37 50.53 58.28 44.22 58.28C37.92 58.28 32.95 53.37 32.95 47.14C32.95 40.88 37.92 35.98 44.22 35.98z"
        transform="matrix(1.0606,0,0,1.0509,-2.5483,-2.1738)"
  />
  <path style="fill:none; stroke:#000000; stroke-width:3.4525"
        d="M10.76 21.13V54.15H27.44L27.71 21.18L10.76 21.13z"
        transform="matrix(1.0606,0,0,1.0509,-2.5483,-2.1738)"
  />
  <linearGradient id="gradient2" gradientUnits="userSpaceOnUse" x1="-5.18" y1="1.32" x2="10.86" y2="-4.32">
   <stop offset="0" stop-color="#bde2b7"/>
   <stop offset="1" stop-color="#40a635"/>
  </linearGradient>
  <path style="fill:url(#gradient2)"
        d="M10.76 54.15H27.44V21.13H10.76V54.15z"
        transform="matrix(1.0606,0,0,1.0509,-2.5483,-2.1738)"
  />
 </g>
</svg>
