<?xml version="1.0" encoding="UTF-8" standalone="yes"?>
<svg version="1.1" width="64" height="64" color-interpolation="linearRGB"
     xmlns:svg="http://www.w3.org/2000/svg" xmlns="http://www.w3.org/2000/svg">
 <g>
  <path style="fill:#000000; fill-opacity:0.4"
        d="M31.56 0C30.48 0 29.36 0.56 28.79 1.72C19.3 21.01 9.81 40.3 0.31 59.59C-0.68 61.64 0.8 64 3.08 64C22.37 64 41.66 64 60.95 64C63.23 64 64.71 61.59 63.68 59.55C53.87 40.26 44.07 20.97 34.27 1.67C33.72 0.56 32.63 0 31.56 0V0V0V0z
           M31.56 5.15C40.84 23.43 50.12 41.72 59.4 60C41.12 60 22.84 60 4.55 60C13.56 41.72 22.56 23.43 31.56 5.15"
        transform="matrix(0.8593,0,0,0.8281,9.0031,10)"
  />
  <linearGradient id="gradient0" gradientUnits="userSpaceOnUse" x1="162.06" y1="7.43" x2="162.06" y2="54.08">
   <stop offset="0" stop-color="#808080"/>
   <stop offset="1" stop-color="#282828"/>
  </linearGradient>
  <path style="fill:url(#gradient0)"
        d="M7 57C6 57 32 6 32 6L48 37C48 37 8 57 7 57z"
  />
  <path style="fill:#ffffff"
        d="M7 57L47 37L58 58"
  />
  <path style="fill:#000000"
        d="M31.56 0C30.48 0 29.36 0.56 28.79 1.72C19.3 21.01 9.81 40.3 0.31 59.59C-0.68 61.64 0.8 64 3.08 64C22.37 64 41.66 64 60.95 64C63.23 64 64.71 61.59 63.68 59.55C53.87 40.26 44.07 20.97 34.27 1.67C33.72 0.56 32.63 0 31.56 0V0V0V0z
           M31.56 5.15C40.84 23.43 50.12 41.72 59.4 60C41.12 60 22.84 60 4.55 60C13.56 41.72 22.56 23.43 31.56 5.15"
        transform="matrix(0.8749,0,0,0.875,4.0028,4)"
  />
 </g>
</svg>
