<?xml version="1.0" encoding="UTF-8" standalone="yes"?>
<svg version="1.1" width="64" height="64" color-interpolation="linearRGB"
     xmlns:svg="http://www.w3.org/2000/svg" xmlns="http://www.w3.org/2000/svg">
 <g>
  <path style="fill:none; stroke:#545454; stroke-width:4.8057; stroke-linecap:round; stroke-linejoin:round"
        d="M8.72 12.52C8.72 26.83 8.72 41.14 8.72 55.45C24.23 55.45 39.75 55.45 55.27 55.45C55.27 41.14 55.27 26.83 55.27 12.52C39.75 12.52 24.23 12.52 8.72 12.52V12.52V12.52V12.52z
           M38 15.55C38 28.06 38 39.91 38 52.44C28.29 52.44 21.69 52.44 12 52.44C12 39.91 12 28.06 12 15.55C12 15.55 28.29 15.55 38 15.55V15.55V15.55z"
  />
  <path style="fill:none; stroke:#bf5000; stroke-width:4.1048; stroke-linecap:round; stroke-linejoin:round"
        d="M8.48 12.18C8.48 9.98 8.48 7.78 8.48 5.59C13.48 5.59 18.48 5.59 23.5 5.59C23.5 7.78 23.5 9.98 23.5 12.18C18.48 12.18 13.48 12.18 8.48 12.18V12.18V12.18V12.18V12.18z"
  />
  <path style="fill:#ffd400"
        d="M8.48 13.65C8.48 11.14 8.48 8.62 8.48 6.11C13.48 6.11 18.48 6.11 23.5 6.11C23.5 8.62 23.5 11.14 23.5 13.65C18.48 13.65 13.48 13.65 8.48 13.65V13.65V13.65V13.65V13.65z"
  />
  <path style="fill:#ffffff"
        d="M8.72 12.52C8.72 26.83 8.72 41.14 8.72 55.45C24.23 55.45 39.75 55.45 55.27 55.45C55.27 41.14 55.27 26.83 55.27 12.52C39.75 12.52 24.23 12.52 8.72 12.52V12.52V12.52V12.52z
           M38 15.55C38 28.06 38 39.91 38 52.44C28.29 52.44 21.69 52.44 12 52.44C12 39.91 12 28.06 12 15.55C12 15.55 28.29 15.55 38 15.55V15.55V15.55z"
  />
  <path style="fill:none; stroke:#000000; stroke-opacity:0.4; stroke-width:3.151; stroke-linecap:round; stroke-linejoin:round"
        d="M47.83 35.58C43.97 31.6 40.11 27.62 36.25 23.63C35.39 24.47 34.54 25.31 33.68 26.15C33.68 26.15 42.68 35.66 42.68 35.58C42.68 35.5 33.68 43.56 33.68 43.76C33.68 44 36.89 46.9 36.89 46.9C40.54 43.13 44.18 39.35 47.83 35.58V35.58V35.58V35.58V35.58z"
        transform="matrix(1,0,0,1,-14,0)"
  />
  <path style="fill:none; stroke:#085608; stroke-width:4.5274; stroke-linecap:round; stroke-linejoin:round"
        d="M45.55 34.33C41.69 30.34 37.83 26.36 33.97 22.38C33.12 23.21 32.26 24.05 31.4 24.89C31.4 24.89 40.4 34.4 40.4 34.33C40.4 34.24 31.4 42.3 31.4 42.5C31.4 42.74 34.62 45.64 34.62 45.64C38.26 41.87 41.9 38.1 45.55 34.33V34.33V34.33V34.33V34.33z"
        transform="matrix(1,0,0,1,-14,0)"
  />
  <linearGradient id="gradient0" gradientUnits="userSpaceOnUse" x1="117.21" y1="19.5" x2="117.21" y2="48.82">
   <stop offset="0" stop-color="#80ff80"/>
   <stop offset="1" stop-color="#00b200"/>
  </linearGradient>
  <path style="fill:url(#gradient0)"
        d="M45.55 34.33C41.69 30.34 37.83 26.36 33.97 22.38C33.12 23.21 32.26 24.05 31.4 24.89C31.4 24.89 40.4 34.4 40.4 34.33C40.4 34.24 31.4 42.3 31.4 42.5C31.4 42.74 34.62 45.64 34.62 45.64C38.26 41.87 41.9 38.1 45.55 34.33V34.33V34.33V34.33V34.33z"
        transform="matrix(1,0,0,1,-14,0)"
  />
 </g>
</svg>
