<?xml version="1.0" encoding="UTF-8" standalone="yes"?>
<svg version="1.1" width="64" height="64" color-interpolation="linearRGB"
     xmlns:svg="http://www.w3.org/2000/svg" xmlns="http://www.w3.org/2000/svg">
 <g>
  <path style="fill:none; stroke:#545454; stroke-width:4.8057; stroke-linecap:round; stroke-linejoin:round"
        d="M8.72 12.52C8.72 26.83 8.72 41.14 8.72 55.45C24.23 55.45 39.75 55.45 55.27 55.45C55.27 41.14 55.27 26.83 55.27 12.52C39.75 12.52 24.23 12.52 8.72 12.52V12.52V12.52V12.52z
           M23.27 15.2C32.95 15.2 42.65 15.2 52.36 15.2C52.36 27.73 52.36 40.24 52.36 52.77C42.65 52.77 32.95 52.77 23.27 52.77C23.27 40.24 23.27 27.73 23.27 15.2V15.2V15.2V15.2z"
  />
  <path style="fill:none; stroke:#bf5000; stroke-width:4.1048; stroke-linecap:round; stroke-linejoin:round"
        d="M8.48 12.18C8.48 9.98 8.48 7.78 8.48 5.59C13.48 5.59 18.48 5.59 23.5 5.59C23.5 7.78 23.5 9.98 23.5 12.18C18.48 12.18 13.48 12.18 8.48 12.18V12.18V12.18V12.18V12.18z"
  />
  <path style="fill:#ffd400"
        d="M8.48 13.65C8.48 11.14 8.48 8.62 8.48 6.11C13.48 6.11 18.48 6.11 23.5 6.11C23.5 8.62 23.5 11.14 23.5 13.65C18.48 13.65 13.48 13.65 8.48 13.65V13.65V13.65V13.65V13.65z"
  />
  <path style="fill:#ffffff"
        d="M8.72 12.52C8.72 26.83 8.72 41.14 8.72 55.45C24.23 55.45 39.75 55.45 55.27 55.45C55.27 41.14 55.27 26.83 55.27 12.52C39.75 12.52 24.23 12.52 8.72 12.52V12.52V12.52V12.52z
           M23.27 15.2C32.95 15.2 42.65 15.2 52.36 15.2C52.36 27.73 52.36 40.24 52.36 52.77C42.65 52.77 32.95 52.77 23.27 52.77C23.27 40.24 23.27 27.73 23.27 15.2V15.2V15.2V15.2z"
  />
  <path style="fill:none; stroke:#000000; stroke-opacity:0.4; stroke-width:3.151; stroke-linecap:round; stroke-linejoin:round"
        d="M18.67 36.94C22.52 40.94 26.36 44.94 30.2 48.93C31.07 48.1 31.93 47.27 32.78 46.43C32.78 46.43 23.82 36.89 23.82 36.96C23.82 37.05 32.85 29.02 32.85 28.82C32.85 28.58 29.65 25.66 29.65 25.66C25.99 29.42 22.33 33.19 18.67 36.94V36.94V36.94V36.94V36.94z"
        transform="matrix(1,0,0,1,13,-1)"
  />
  <path style="fill:none; stroke:#085608; stroke-width:4.5274; stroke-linecap:round; stroke-linejoin:round"
        d="M17.95 34.21C21.79 38.21 25.64 42.2 29.48 46.2C30.34 45.37 31.2 44.53 32.06 43.7C32.06 43.7 23.09 34.15 23.09 34.23C23.09 34.31 32.12 26.28 32.12 26.09C32.13 25.85 28.92 22.93 28.92 22.93C25.26 26.69 21.61 30.45 17.95 34.21V34.21V34.21V34.21V34.21z"
        transform="matrix(1,0,0,1,13,-1)"
  />
  <linearGradient id="gradient0" gradientUnits="userSpaceOnUse" x1="32.75" y1="27.5" x2="32.5" y2="43.72">
   <stop offset="0" stop-color="#80ff80"/>
   <stop offset="1" stop-color="#00b200"/>
  </linearGradient>
  <path style="fill:url(#gradient0)"
        d="M17.95 34.21C21.79 38.21 25.64 42.2 29.48 46.2C30.34 45.37 31.2 44.53 32.06 43.7C32.06 43.7 23.09 34.15 23.09 34.23C23.09 34.31 32.12 26.28 32.12 26.09C32.13 25.85 28.92 22.93 28.92 22.93C25.26 26.69 21.61 30.45 17.95 34.21V34.21V34.21V34.21V34.21z"
        transform="matrix(1,0,0,1,13,-1)"
  />
 </g>
</svg>
