<?xml version="1.0" encoding="UTF-8" standalone="yes"?>
<svg version="1.1" width="64" height="64" color-interpolation="linearRGB"
     xmlns:svg="http://www.w3.org/2000/svg" xmlns="http://www.w3.org/2000/svg">
 <g>
  <path style="fill:none; stroke:#545454; stroke-width:5; stroke-linecap:round; stroke-linejoin:round"
        d="M23.27 11.63C32.96 11.63 42.66 11.63 52.36 11.63C52.36 25.21 52.36 38.78 52.36 52.36C42.66 52.36 32.96 52.36 23.27 52.36C23.27 38.78 23.27 25.21 23.27 11.63V11.63z
           M8.72 8.72C8.72 24.24 8.72 39.75 8.72 55.27C24.24 55.27 39.75 55.27 55.27 55.27C55.27 39.75 55.27 24.24 55.27 8.72C39.75 8.72 24.24 8.72 8.72 8.72V8.72z"
        transform="matrix(1,0,0,0.9223,0,4.4832)"
  />
  <path style="fill:none; stroke:#bf5000; stroke-width:4.6322; stroke-linecap:round; stroke-linejoin:round"
        d="M7.49 18.66C7.49 15.81 7.49 12.96 7.49 10.12C12.49 10.12 17.49 10.12 22.5 10.12C22.5 12.96 22.5 15.81 22.5 18.66C17.49 18.66 12.49 18.66 7.49 18.66V18.66V18.66z"
        transform="matrix(1,0,0,0.7723,1,-2.2232)"
  />
  <path style="fill:#ffd400"
        d="M7.49 18.66C7.49 15.81 7.49 12.96 7.49 10.12C12.49 10.12 17.49 10.12 22.5 10.12C22.5 12.96 22.5 15.81 22.5 18.66C17.49 18.66 12.49 18.66 7.49 18.66V18.66V18.66z"
        transform="matrix(1,0,0,0.8829,1,-2.8157)"
  />
  <path style="fill:#ffffff"
        d="M23.27 11.63C32.96 11.63 42.66 11.63 52.36 11.63C52.36 25.21 52.36 38.78 52.36 52.36C42.66 52.36 32.96 52.36 23.27 52.36C23.27 38.78 23.27 25.21 23.27 11.63V11.63z
           M8.72 8.72C8.72 24.24 8.72 39.75 8.72 55.27C24.24 55.27 39.75 55.27 55.27 55.27C55.27 39.75 55.27 24.24 55.27 8.72C39.75 8.72 24.24 8.72 8.72 8.72V8.72z"
        transform="matrix(1,0,0,0.9223,0,4.4832)"
  />
  <path style="fill:none; stroke:#000000; stroke-opacity:0.4; stroke-width:6.2638; stroke-linecap:round; stroke-linejoin:round"
        d="M36.33 33.87C28.66 25.94 21 18.02 13.34 10.1C11.63 11.77 9.93 13.43 8.23 15.1C8.23 15.1 26.11 34.02 26.11 33.87C26.11 33.7 8.23 49.74 8.23 50.13C8.23 50.61 14.61 56.39 14.61 56.39C21.85 48.88 29.09 41.37 36.33 33.87V33.87V33.87z"
        transform="matrix(0.5034,0,0,0.5027,29.5442,18.5616)"
  />
  <path style="fill:none; stroke:#085608; stroke-width:9; stroke-linecap:round; stroke-linejoin:round"
        d="M35.77 31.37C28.11 23.44 20.44 15.52 12.78 7.6C11.08 9.26 9.37 10.93 7.67 12.6C7.67 12.6 25.55 31.52 25.55 31.37C25.55 31.2 7.67 47.24 7.67 47.63C7.67 48.1 14.06 53.88 14.06 53.88C21.3 46.38 28.53 38.87 35.77 31.37V31.37V31.37z"
        transform="matrix(0.5034,0,0,0.5027,27.5442,18.5616)"
  />
  <linearGradient id="gradient0" gradientUnits="userSpaceOnUse" x1="178.13" y1="1.88" x2="178.13" y2="60.21">
   <stop offset="0" stop-color="#80ff80"/>
   <stop offset="1" stop-color="#00b200"/>
  </linearGradient>
  <path style="fill:url(#gradient0)"
        d="M35.77 31.37C28.11 23.44 20.44 15.52 12.78 7.6C11.08 9.26 9.37 10.93 7.67 12.6C7.67 12.6 25.55 31.52 25.55 31.37C25.55 31.2 7.67 47.24 7.67 47.63C7.67 48.1 14.06 53.88 14.06 53.88C21.3 46.38 28.53 38.87 35.77 31.37V31.37V31.37z"
        transform="matrix(0.5034,0,0,0.5027,27.5442,18.5616)"
  />
 </g>
</svg>
