<?xml version="1.0" encoding="UTF-8" standalone="yes"?>
<svg version="1.1" width="64" height="64" color-interpolation="linearRGB"
     xmlns:svg="http://www.w3.org/2000/svg" xmlns="http://www.w3.org/2000/svg">
 <g>
  <path style="fill:#000000; fill-opacity:0.4235"
        d="M32.05 4.99C47.2 4.99 59.11 16.82 59.11 31.89C59.11 46.95 47.2 58.8 32.05 58.8C16.9 58.8 4.99 46.95 4.99 31.89C4.99 16.82 16.9 4.99 32.05 4.99z"
        transform="matrix(1,0,0,1,3,3)"
  />
  <path style="fill:#000000"
        d="M32.05 4.99C47.2 4.99 59.11 16.82 59.11 31.89C59.11 46.95 47.2 58.8 32.05 58.8C16.9 58.8 4.99 46.95 4.99 31.89C4.99 16.82 16.9 4.99 32.05 4.99z"
  />
  <radialGradient id="gradient0" gradientUnits="userSpaceOnUse" cx="0" cy="0" r="64" gradientTransform="matrix(0.4254,0,0,0.423,22.8172,25.4072)">
   <stop offset="0.0443" stop-color="#ffffff"/>
   <stop offset="0.0988" stop-color="#fffef8"/>
   <stop offset="0.1756" stop-color="#fefbe6"/>
   <stop offset="0.2655" stop-color="#fdf6c8"/>
   <stop offset="0.3652" stop-color="#fbef9e"/>
   <stop offset="0.472" stop-color="#f9e769"/>
   <stop offset="0.4943" stop-color="#f9e55d"/>
   <stop offset="0.7221" stop-color="#f7da15"/>
   <stop offset="0.8432" stop-color="#f7d016"/>
   <stop offset="1" stop-color="#f6bc18"/>
  </radialGradient>
  <path style="fill:url(#gradient0)"
        d="M32.05 7.46C45.81 7.46 56.63 18.21 56.63 31.89C56.63 45.58 45.81 56.33 32.05 56.33C18.29 56.33 7.48 45.58 7.48 31.89C7.48 18.21 18.29 7.46 32.05 7.46z"
  />
  <path style="fill:#3e0708"
        d="M52.36 37.5C52.31 37.02 51.96 34.62 50.9 33.39C49.15 31.36 48.1 31.46 48.01 31.42C48.01 31.42 47 31.31 46.73 32.15C46.46 33.08 46.93 33.56 46.93 33.56C46.94 33.57 48.35 33.86 48.94 34.5C47.77 36.35 41.94 44.52 32.02 44.52C21.56 44.52 15.55 36.21 14.54 34.69C15.41 34.03 15.97 33.75 15.98 33.75C15.98 33.75 16.62 33.26 16.3 32.38C16.01 31.52 15.07 31.59 15.07 31.59C14.97 31.63 13.53 32.05 12.29 34.03C11.11 35.92 11.17 38.2 11.21 38.54C11.21 38.54 11.4 39.81 11.79 38.76C12.18 37.72 12.7 36.28 13.58 35.44C15.12 37.71 20.96 47.73 32.09 47.73C42.84 47.73 48.23 37.39 49.8 34.91C50.78 35.77 51.34 36.79 51.81 38.34C52.15 39.44 52.36 37.5 52.36 37.5z"
  />
  <path style="fill:#000000"
        d="M27.12 29.07C28.52 28.95 29.78 30.61 29.98 32.84C30.19 35.07 29.27 36.92 27.87 37.06C26.49 37.19 25.22 35.53 25.02 33.3C24.81 31.07 25.73 29.21 27.12 29.07z"
  />
  <path style="fill:#000000"
        d="M37.34 28.96C38.7 29.26 39.42 31.2 38.95 33.4C38.47 35.59 37.02 37.09 35.66 36.79C34.29 36.51 33.59 34.56 34.07 32.35C34.54 30.16 35.97 28.66 37.34 28.96z"
  />
 </g>
</svg>
