<?xml version="1.0" encoding="UTF-8" standalone="yes"?>
<svg version="1.1" width="64" height="64" color-interpolation="linearRGB"
     xmlns:svg="http://www.w3.org/2000/svg" xmlns="http://www.w3.org/2000/svg">
 <g>
  <path style="fill:#000000"
        d="M32.06 0.99C49.45 0.99 63.12 14.59 63.12 31.9C63.12 49.2 49.45 62.81 32.06 62.81C14.66 62.81 1 49.2 1 31.9C1 14.59 14.66 0.99 32.06 0.99z"
        transform="matrix(0.8712,0,0,0.8705,4.1287,4.1294)"
  />
  <radialGradient id="gradient0" gradientUnits="userSpaceOnUse" cx="0" cy="0" r="64" gradientTransform="matrix(0.4884,0,0,0.486,21.4515,24.4432)">
   <stop offset="0.0443" stop-color="#ffffff"/>
   <stop offset="0.0988" stop-color="#fffef8"/>
   <stop offset="0.1756" stop-color="#fefbe6"/>
   <stop offset="0.2655" stop-color="#fdf6c8"/>
   <stop offset="0.3652" stop-color="#fbef9e"/>
   <stop offset="0.472" stop-color="#f9e769"/>
   <stop offset="0.4943" stop-color="#f9e55d"/>
   <stop offset="0.7221" stop-color="#f7da15"/>
   <stop offset="0.8432" stop-color="#f7d016"/>
   <stop offset="1" stop-color="#f6bc18"/>
  </radialGradient>
  <path style="fill:url(#gradient0)"
        d="M32.06 3.83C47.85 3.83 60.27 16.18 60.27 31.9C60.27 47.62 47.85 59.97 32.06 59.97C16.26 59.97 3.85 47.62 3.85 31.9C3.85 16.18 16.26 3.83 32.06 3.83z"
        transform="matrix(0.8712,0,0,0.8705,4.1287,4.1294)"
  />
  <path style="fill:#3e0708"
        d="M55.37 38.34C55.31 37.79 54.91 35.03 53.69 33.62C51.68 31.29 50.48 31.4 50.37 31.36C50.37 31.36 49.21 31.23 48.91 32.19C48.59 33.26 49.14 33.82 49.14 33.82C49.15 33.83 50.76 34.16 51.44 34.89C50.1 37.02 43.41 46.4 32.02 46.4C20.01 46.4 13.12 36.86 11.96 35.11C12.95 34.36 13.6 34.03 13.61 34.03C13.61 34.03 14.34 33.47 13.98 32.46C13.64 31.47 12.56 31.55 12.56 31.55C12.45 31.6 10.8 32.08 9.37 34.35C8.02 36.52 8.09 39.14 8.13 39.53C8.13 39.53 8.35 40.99 8.8 39.79C9.25 38.59 9.84 36.94 10.85 35.97C12.62 38.58 19.33 50.09 32.1 50.09C44.44 50.09 50.63 38.21 52.43 35.36C53.55 36.35 54.2 37.53 54.74 39.3C55.13 40.57 55.37 38.34 55.37 38.34z"
        transform="matrix(0.8712,0,0,0.8705,4.1287,4.1294)"
  />
  <path style="fill:#000000"
        d="M26.4 28.66C28 28.52 29.45 30.42 29.68 32.99C29.92 35.55 28.86 37.68 27.26 37.83C25.67 37.98 24.22 36.08 23.98 33.52C23.74 30.95 24.8 28.82 26.4 28.66z"
        transform="matrix(0.8712,0,0,0.8705,4.1287,4.1294)"
  />
  <path style="fill:#000000"
        d="M38.13 28.53C39.69 28.87 40.51 31.1 39.97 33.63C39.42 36.15 37.76 37.87 36.2 37.53C34.63 37.2 33.82 34.96 34.37 32.43C34.91 29.91 36.56 28.19 38.13 28.53z"
        transform="matrix(0.8712,0,0,0.8705,4.1287,4.1294)"
  />
 </g>
</svg>
