<?xml version="1.0" encoding="UTF-8" standalone="yes"?>
<svg version="1.1" width="64" height="64" color-interpolation="linearRGB"
     xmlns:svg="http://www.w3.org/2000/svg" xmlns="http://www.w3.org/2000/svg">
 <g>
  <path style="fill:#000000"
        d="M29.85 0C46.56 0 59.7 13.13 59.7 29.85C59.7 46.56 46.56 59.7 29.85 59.7C13.13 59.7 0 46.56 0 29.85C0 13.13 13.13 0 29.85 0z"
        transform="matrix(1.0406,0,0,1.0354,1,0.9999)"
  />
  <radialGradient id="gradient0" gradientUnits="userSpaceOnUse" cx="0" cy="0" r="64" gradientTransform="matrix(0.4694,0,0,0.4694,19.6536,22.6418)">
   <stop offset="0.0443" stop-color="#ffffff"/>
   <stop offset="0.0989" stop-color="#fffef8"/>
   <stop offset="0.1756" stop-color="#fefbe6"/>
   <stop offset="0.2655" stop-color="#fdf6c8"/>
   <stop offset="0.3652" stop-color="#fbef9e"/>
   <stop offset="0.472" stop-color="#f9e769"/>
   <stop offset="0.4943" stop-color="#f9e55d"/>
   <stop offset="0.7221" stop-color="#f7da15"/>
   <stop offset="0.8432" stop-color="#f7d016"/>
   <stop offset="1" stop-color="#f6bc18"/>
  </radialGradient>
  <path style="fill:url(#gradient0)"
        d="M29.85 2.74C45.03 2.74 56.96 14.67 56.96 29.85C56.96 45.03 45.03 56.96 29.85 56.96C14.67 56.96 2.74 45.03 2.74 29.85C2.74 14.67 14.67 2.74 29.85 2.74z"
        transform="matrix(1.0406,0,0,1.0354,1,0.9999)"
  />
  <path style="fill:#3e0708"
        d="M52.25 36.07C52.2 35.54 51.81 32.87 50.64 31.51C48.71 29.26 47.55 29.37 47.45 29.33C47.45 29.33 46.33 29.2 46.05 30.13C45.74 31.16 46.27 31.7 46.27 31.7C46.28 31.71 47.82 32.03 48.48 32.74C47.19 34.79 40.76 43.85 29.81 43.85C18.27 43.85 11.65 34.64 10.54 32.95C11.49 32.22 12.11 31.91 12.12 31.91C12.12 31.91 12.82 31.36 12.48 30.39C12.15 29.43 11.11 29.51 11.11 29.51C11.01 29.56 9.42 30.02 8.05 32.21C6.75 34.31 6.82 36.84 6.86 37.22C6.86 37.22 7.07 38.63 7.5 37.47C7.93 36.31 8.5 34.72 9.47 33.78C11.17 36.3 17.62 47.42 29.89 47.42C41.75 47.42 47.7 35.94 49.43 33.19C50.5 34.15 51.13 35.29 51.65 37C52.02 38.22 52.25 36.07 52.25 36.07z"
        transform="matrix(1.0406,0,0,1.0354,1,0.9999)"
  />
  <path style="fill:#000000"
        d="M24.41 26.72C25.95 26.58 27.34 28.42 27.57 30.9C27.8 33.37 26.78 35.43 25.24 35.58C23.71 35.72 22.32 33.89 22.09 31.41C21.86 28.93 22.88 26.87 24.41 26.72z"
        transform="matrix(1.0406,0,0,1.0354,1,0.9999)"
  />
  <path style="fill:#000000"
        d="M35.69 26.59C37.19 26.92 37.97 29.08 37.45 31.52C36.93 33.95 35.33 35.61 33.83 35.29C32.32 34.97 31.54 32.8 32.07 30.36C32.59 27.93 34.18 26.27 35.69 26.59z"
        transform="matrix(1.0406,0,0,1.0354,1,0.9999)"
  />
 </g>
</svg>
