<?xml version="1.0" encoding="UTF-8" standalone="yes"?>
<svg version="1.1" width="64" height="64" color-interpolation="linearRGB"
     xmlns:svg="http://www.w3.org/2000/svg" xmlns="http://www.w3.org/2000/svg">
 <g>
  <path style="fill:#000000; fill-opacity:0.4078"
        d="M42 49H56V58H42V49z
           M8 49H22V58H8V49z
           M32 5C55 5 56 25 56 25V44H42V25C42 25 41.99 18 32 18V5z
           M8 44V25C8 25 9 5 32 5V18C22 18 22 25 22 25V44H8z"
        transform="matrix(1,0,0,1,4,4)"
  />
  <path style="fill:none; stroke:#003f80; stroke-width:4; stroke-linejoin:bevel"
        d="M32 5C55 5 56 25 56 25V44H42V25C42 25 41.99 18 32 18V5z
           M42 49H56V58H42V49z"
  />
  <path style="fill:none; stroke:#800000; stroke-width:4; stroke-linecap:round; stroke-linejoin:bevel"
        d="M8 44V25C8 25 9 5 32 5V18C22 18 22 25 22 25V44H8z
           M8 49H22V58H8V49z"
  />
  <linearGradient id="gradient0" gradientUnits="userSpaceOnUse" x1="162.06" y1="7.43" x2="162.06" y2="54.08">
   <stop offset="0" stop-color="#ffabab"/>
   <stop offset="1" stop-color="#d90000"/>
  </linearGradient>
  <path style="fill:url(#gradient0)"
        d="M8 44V25C8 25 9 5 32 5V18C22 18 22 25 22 25V44H8z
           M8 49H22V58H8V49z"
  />
  <linearGradient id="gradient1" gradientUnits="userSpaceOnUse" x1="153.65" y1="11.15" x2="153.65" y2="49.75">
   <stop offset="0" stop-color="#abd5ff"/>
   <stop offset="1" stop-color="#006cd9"/>
  </linearGradient>
  <path style="fill:url(#gradient1)"
        d="M32 5C55 5 56 25 56 25V44H42V25C42 25 41.99 18 32 18V5z
           M42 49H56V58H42V49z"
  />
 </g>
</svg>
