<?xml version="1.0" encoding="UTF-8" standalone="yes"?>
<svg version="1.1" width="64" height="64" color-interpolation="linearRGB"
     xmlns:svg="http://www.w3.org/2000/svg" xmlns="http://www.w3.org/2000/svg">
 <g>
  <path style="fill:#010101; fill-opacity:0.3843"
        d="M35.35 9.3C50.26 9.3 61.98 21.01 61.98 35.93C61.98 50.84 50.26 62.55 35.35 62.55C20.44 62.55 8.72 50.84 8.72 35.93C8.72 21.01 20.44 9.3 35.35 9.3z"
  />
  <path style="fill:#d2d7cf"
        d="M32.35 5.3C47.26 5.3 58.98 17.01 58.98 31.93C58.98 46.84 47.26 58.55 32.35 58.55C17.44 58.55 5.72 46.84 5.72 31.93C5.72 17.01 17.44 5.3 32.35 5.3z"
  />
  <path style="fill:none; stroke:#010101; stroke-width:2.6953; stroke-linecap:square"
        d="M32.35 5.3C47.26 5.3 58.98 17.01 58.98 31.93C58.98 46.84 47.26 58.55 32.35 58.55C17.44 58.55 5.72 46.84 5.72 31.93C5.72 17.01 17.44 5.3 32.35 5.3z"
  />
  <path style="fill:#010101; fill-opacity:0.3843"
        d="M45.66 16.94C46.6 16.94 47.33 17.68 47.33 18.63C47.33 19.57 46.6 20.31 45.66 20.31C44.73 20.31 44.01 19.57 44.01 18.63C44.01 17.68 44.73 16.94 45.66 16.94z"
  />
  <path style="fill:none; stroke:#000000; stroke-opacity:0.4745; stroke-width:1.9741; stroke-linecap:round"
        d="M45.66 16.94C46.6 16.94 47.33 17.68 47.33 18.63C47.33 19.57 46.6 20.31 45.66 20.31C44.73 20.31 44.01 19.57 44.01 18.63C44.01 17.68 44.73 16.94 45.66 16.94z"
  />
  <path style="fill:#000000; fill-opacity:0.1843"
        d="M39.09 45.17C40.03 45.17 40.77 45.92 40.77 46.86C40.77 47.8 40.03 48.54 39.09 48.54C38.15 48.54 37.41 47.8 37.41 46.86C37.41 45.92 38.15 45.17 39.09 45.17z"
  />
  <path style="fill:none; stroke:#000000; stroke-opacity:0.1843; stroke-width:3.7692; stroke-linecap:round"
        d="M39.09 45.17C40.03 45.17 40.77 45.92 40.77 46.86C40.77 47.8 40.03 48.54 39.09 48.54C38.15 48.54 37.41 47.8 37.41 46.86C37.41 45.92 38.15 45.17 39.09 45.17z"
  />
  <path style="fill:#000000; fill-opacity:0.1843"
        d="M25.66 45.24C26.61 45.24 27.36 45.98 27.36 46.93C27.36 47.87 26.61 48.61 25.66 48.61C24.72 48.61 23.98 47.87 23.98 46.93C23.98 45.98 24.72 45.24 25.66 45.24z"
  />
  <path style="fill:none; stroke:#000000; stroke-opacity:0.1843; stroke-width:3.7692; stroke-linecap:round"
        d="M25.66 45.24C26.61 45.24 27.36 45.98 27.36 46.93C27.36 47.87 26.61 48.61 25.66 48.61C24.72 48.61 23.98 47.87 23.98 46.93C23.98 45.98 24.72 45.24 25.66 45.24z"
  />
  <path style="fill:#cc0000"
        d="M43.46 43.03L40.04 37.32C43.05 35.9 44.35 31.64 46.26 25.15C48.01 28.09 52.5 38.78 43.46 43.03z"
  />
  <path style="fill:none; stroke:#010101; stroke-width:1.787; stroke-linecap:round"
        d="M43.46 43.03L40.04 37.32C43.05 35.9 44.35 31.64 46.26 25.15C48.01 28.09 52.5 38.78 43.46 43.03z"
  />
  <path style="fill:none; stroke:#333333; stroke-width:3.3289; stroke-linecap:round"
        d="M46.47 17.8L41.77 22.52"
  />
  <path style="fill:#000000; fill-opacity:0.1176"
        d="M32.35 31.93L50.66 20.28L39.01 38.59L30.68 40.26L32.35 31.93z"
  />
  <path style="fill:none; stroke:#000000; stroke-opacity:0.1176; stroke-width:1.9741"
        d="M32.35 31.93L50.66 20.28L39.01 38.59L30.68 40.26L32.35 31.93z"
  />
  <path style="fill:#333333"
        d="M22.93 41.33L18.23 46.05"
  />
  <path style="fill:none; stroke:#333333; stroke-width:3.3289; stroke-linecap:round"
        d="M22.93 41.33L18.23 46.05"
  />
  <path style="fill:none; stroke:#d2d7cf; stroke-width:3.3289; stroke-linecap:square"
        d="M32.35 8.62C45.41 8.62 55.65 18.88 55.65 31.93C55.65 44.97 45.41 55.23 32.35 55.23C19.3 55.23 9.05 44.97 9.05 31.93C9.05 18.88 19.3 8.62 32.35 8.62z"
  />
  <linearGradient id="gradient0" gradientUnits="userSpaceOnUse" x1="106.78" y1="-13.66" x2="106.78" y2="56.63">
   <stop offset="0" stop-color="#80ff80"/>
   <stop offset="1" stop-color="#00b200"/>
  </linearGradient>
  <path style="fill:url(#gradient0)"
        d="M29.02 28.6L47.33 16.94L35.69 35.25L27.36 36.92L29.02 28.6z"
  />
  <path style="fill:none; stroke:#005900; stroke-width:3.3691; stroke-linecap:square"
        d="M28 29L27 37L35 36L47 17L28 29z"
  />
  <path style="fill:#333333"
        d="M32.35 30.27C33.28 30.27 34.02 30.99 34.02 31.93C34.02 32.86 33.28 33.58 32.35 33.58C31.42 33.58 30.68 32.86 30.68 31.93C30.68 30.99 31.42 30.27 32.35 30.27z"
  />
  <path style="fill:none; stroke:#010101; stroke-width:3.3289; stroke-linecap:square"
        d="M32.35 30.27C33.28 30.27 34.02 30.99 34.02 31.93C34.02 32.86 33.28 33.58 32.35 33.58C31.42 33.58 30.68 32.86 30.68 31.93C30.68 30.99 31.42 30.27 32.35 30.27z"
  />
  <path style="fill:none; stroke:#333333; stroke-width:3.3289; stroke-linecap:round"
        d="M32.35 11.95V18.61"
  />
  <path style="fill:#333333"
        d="M19.03 31.93H12.37"
  />
  <path style="fill:none; stroke:#333333; stroke-width:3.3289; stroke-linecap:round"
        d="M19.03 31.93H12.37"
  />
  <path style="fill:#333333"
        d="M22.93 22.52L18.23 17.8"
  />
  <path style="fill:none; stroke:#333333; stroke-width:3.3289; stroke-linecap:round"
        d="M22.93 22.52L18.23 17.8"
  />
  <path style="fill:#333333"
        d="M25.66 43.57C26.61 43.57 27.36 44.32 27.36 45.26C27.36 46.2 26.61 46.94 25.66 46.94C24.72 46.94 23.98 46.2 23.98 45.26C23.98 44.32 24.72 43.57 25.66 43.57z"
  />
  <path style="fill:none; stroke:#010101; stroke-width:1.9741; stroke-linecap:round"
        d="M25.66 43.57C26.61 43.57 27.36 44.32 27.36 45.26C27.36 46.2 26.61 46.94 25.66 46.94C24.72 46.94 23.98 46.2 23.98 45.26C23.98 44.32 24.72 43.57 25.66 43.57z"
  />
  <path style="fill:#333333"
        d="M39.04 43.54C39.98 43.54 40.72 44.28 40.72 45.23C40.72 46.17 39.98 46.91 39.04 46.91C38.1 46.91 37.34 46.17 37.34 45.23C37.34 44.28 38.1 43.54 39.04 43.54z"
  />
  <path style="fill:none; stroke:#010101; stroke-width:1.9741; stroke-linecap:round"
        d="M39.04 43.54C39.98 43.54 40.72 44.28 40.72 45.23C40.72 46.17 39.98 46.91 39.04 46.91C38.1 46.91 37.34 46.17 37.34 45.23C37.34 44.28 38.1 43.54 39.04 43.54z"
  />
  <path style="fill:#010101; fill-opacity:0.3843"
        d="M19.06 43.54C20 43.54 20.76 44.28 20.76 45.23C20.76 46.17 20 46.91 19.06 46.91C18.12 46.91 17.38 46.17 17.38 45.23C17.38 44.28 18.12 43.54 19.06 43.54z"
  />
  <path style="fill:none; stroke:#000000; stroke-opacity:0.4745; stroke-width:1.9741; stroke-linecap:round"
        d="M19.06 43.54C20 43.54 20.76 44.28 20.76 45.23C20.76 46.17 20 46.91 19.06 46.91C18.12 46.91 17.38 46.17 17.38 45.23C17.38 44.28 18.12 43.54 19.06 43.54z"
  />
  <path style="fill:#010101; fill-opacity:0.3843"
        d="M12.36 30.27C13.3 30.27 14.04 31.01 14.04 31.95C14.04 32.88 13.3 33.62 12.36 33.62C11.39 33.62 10.65 32.88 10.65 31.95C10.65 31.01 11.39 30.27 12.36 30.27z"
  />
  <path style="fill:none; stroke:#000000; stroke-opacity:0.4745; stroke-width:1.9741; stroke-linecap:round"
        d="M12.36 30.27C13.3 30.27 14.04 31.01 14.04 31.95C14.04 32.88 13.3 33.62 12.36 33.62C11.39 33.62 10.65 32.88 10.65 31.95C10.65 31.01 11.39 30.27 12.36 30.27z"
  />
  <path style="fill:#010101; fill-opacity:0.3843"
        d="M19.03 16.91C19.97 16.91 20.69 17.65 20.69 18.59C20.69 19.54 19.97 20.28 19.03 20.28C18.1 20.28 17.38 19.54 17.38 18.59C17.38 17.65 18.1 16.91 19.03 16.91z"
  />
  <path style="fill:none; stroke:#000000; stroke-opacity:0.4745; stroke-width:1.9741; stroke-linecap:round"
        d="M19.03 16.91C19.97 16.91 20.69 17.65 20.69 18.59C20.69 19.54 19.97 20.28 19.03 20.28C18.1 20.28 17.38 19.54 17.38 18.59C17.38 17.65 18.1 16.91 19.03 16.91z"
  />
  <path style="fill:#010101; fill-opacity:0.3843"
        d="M32.32 10.29C33.28 10.29 34.02 11.03 34.02 11.97C34.02 12.91 33.28 13.66 32.32 13.66C31.37 13.66 30.63 12.91 30.63 11.97C30.63 11.03 31.37 10.29 32.32 10.29z"
  />
  <path style="fill:none; stroke:#000000; stroke-opacity:0.4745; stroke-width:1.9741; stroke-linecap:round"
        d="M32.32 10.29C33.28 10.29 34.02 11.03 34.02 11.97C34.02 12.91 33.28 13.66 32.32 13.66C31.37 13.66 30.63 12.91 30.63 11.97C30.63 11.03 31.37 10.29 32.32 10.29z"
  />
  <path style="fill:#333333"
        d="M52.33 30.23C53.26 30.23 53.98 30.97 53.98 31.92C53.98 32.84 53.26 33.58 52.33 33.58C51.39 33.58 50.66 32.84 50.66 31.92C50.66 30.97 51.39 30.23 52.33 30.23z"
  />
  <path style="fill:none; stroke:#000000; stroke-opacity:0.5529; stroke-width:1.9741; stroke-linecap:round"
        d="M52.33 30.23C53.26 30.23 53.98 30.97 53.98 31.92C53.98 32.84 53.26 33.58 52.33 33.58C51.39 33.58 50.66 32.84 50.66 31.92C50.66 30.97 51.39 30.23 52.33 30.23z"
  />
  <path style="fill:#333333"
        d="M45.66 43.54C46.6 43.54 47.33 44.28 47.33 45.23C47.33 46.17 46.6 46.91 45.66 46.91C44.73 46.91 44.01 46.17 44.01 45.23C44.01 44.28 44.73 43.54 45.66 43.54z"
  />
  <path style="fill:none; stroke:#000000; stroke-opacity:0.5529; stroke-width:1.9741; stroke-linecap:round"
        d="M45.66 43.54C46.6 43.54 47.33 44.28 47.33 45.23C47.33 46.17 46.6 46.91 45.66 46.91C44.73 46.91 44.01 46.17 44.01 45.23C44.01 44.28 44.73 43.54 45.66 43.54z"
  />
 </g>
</svg>
