<?xml version="1.0" encoding="UTF-8" standalone="yes"?>
<svg version="1.1" width="64" height="64" color-interpolation="linearRGB"
     xmlns:svg="http://www.w3.org/2000/svg" xmlns="http://www.w3.org/2000/svg">
 <g>
  <path style="fill:none; stroke:#000000; stroke-opacity:0.396; stroke-width:3"
        d="M10.61 21.01V23.13H16.63L23.4 52.25C23.51 52.68 23.93 53.04 24.43 53.08C24.93 53.13 25.39 52.86 25.61 52.45L39.25 23.13H58.22V28.48H60.54V22.07C60.54 21.47 60.02 21.01 59.38 21.01H38.47C38.02 21.01 37.59 21.25 37.4 21.63L24.9 48.5L18.7 21.84C18.59 21.35 18.11 21.01 17.57 21.01H10.61z"
  />
  <path style="fill:none; stroke:#003f80; stroke-width:7.3446; stroke-linejoin:round"
        d="M7.61 17.01V19.13H13.63L20.4 48.25C20.51 48.68 20.93 49.04 21.43 49.08C21.93 49.13 22.39 48.86 22.61 48.45L36.25 19.13H55.22V24.48H57.54V18.07C57.54 17.47 57.02 17.01 56.38 17.01H35.47C35.02 17.01 34.59 17.25 34.4 17.63L21.9 44.5L15.71 17.84C15.59 17.35 15.11 17.01 14.57 17.01H7.61z"
  />
  <linearGradient id="gradient0" gradientUnits="userSpaceOnUse" x1="116.25" y1="28.32" x2="116.25" y2="53.34">
   <stop offset="0" stop-color="#abd5ff"/>
   <stop offset="1" stop-color="#006cd9"/>
  </linearGradient>
  <path style="fill:url(#gradient0)"
        d="M7.61 17.01V19.13H13.63L20.4 48.25C20.51 48.68 20.93 49.04 21.43 49.08C21.93 49.13 22.39 48.86 22.61 48.45L36.25 19.13H55.22V24.48H57.54V18.07C57.54 17.47 57.02 17.01 56.38 17.01H35.47C35.02 17.01 34.59 17.25 34.4 17.63L21.9 44.5L15.71 17.84C15.59 17.35 15.11 17.01 14.57 17.01H7.61z"
  />
 </g>
</svg>
