<?xml version="1.0" encoding="UTF-8" standalone="yes"?>
<svg version="1.1" width="64" height="64" color-interpolation="linearRGB"
     xmlns:svg="http://www.w3.org/2000/svg" xmlns="http://www.w3.org/2000/svg">
 <g>
  <path style="fill:none; stroke:#000000; stroke-opacity:0.396; stroke-width:3"
        d="M7.61 17.01V19.14H13.63L20.41 48.25C20.51 48.69 20.93 49.04 21.43 49.08C21.93 49.13 22.4 48.86 22.61 48.45L36.25 19.14H55.23V24.49H57.55V18.08C57.55 17.48 57.03 17.01 56.39 17.01H35.47C35.02 17.01 34.6 17.25 34.41 17.64L21.91 44.51L15.71 17.84C15.59 17.35 15.12 17.01 14.58 17.01H7.61z"
        transform="matrix(1,0,0,1,3,4)"
  />
  <path style="fill:none; stroke:#04209c; stroke-width:7.3446; stroke-linejoin:round"
        d="M7.61 17.01V19.14H13.63L20.41 48.25C20.51 48.69 20.93 49.04 21.43 49.08C21.93 49.13 22.4 48.86 22.61 48.45L36.25 19.14H55.23V24.49H57.55V18.08C57.55 17.48 57.03 17.01 56.39 17.01H35.47C35.02 17.01 34.6 17.25 34.41 17.64L21.91 44.51L15.71 17.84C15.59 17.35 15.12 17.01 14.58 17.01H7.61z"
  />
  <linearGradient id="gradient0" gradientUnits="userSpaceOnUse" x1="58.15" y1="3.87" x2="57.46" y2="44.44">
   <stop offset="0" stop-color="#abd5ff"/>
   <stop offset="1" stop-color="#045cb6"/>
  </linearGradient>
  <path style="fill:url(#gradient0)"
        d="M7.61 17.01V19.14H13.63L20.41 48.25C20.51 48.69 20.93 49.04 21.43 49.08C21.93 49.13 22.4 48.86 22.61 48.45L36.25 19.14H55.23V24.49H57.55V18.08C57.55 17.48 57.03 17.01 56.39 17.01H35.47C35.02 17.01 34.6 17.25 34.41 17.64L21.91 44.51L15.71 17.84C15.59 17.35 15.12 17.01 14.58 17.01H7.61z"
  />
 </g>
</svg>
