<?xml version="1.0" encoding="UTF-8" standalone="yes"?>
<svg version="1.1" width="64" height="64" color-interpolation="linearRGB"
     xmlns:svg="http://www.w3.org/2000/svg" xmlns="http://www.w3.org/2000/svg">
 <g>
  <path style="fill:none; stroke:#000000; stroke-opacity:0.4; stroke-width:5"
        d="M26 10C26 13 28 15 31 15C34 15 36 13 36 10C36 7 34 5 31 5C28 5 26 7 26 10z
           M22 58V52H29V32H24V24H36V52H42V58H22z"
        transform="matrix(1,0,0,1,2,2)"
  />
  <path style="fill:none; stroke:#004080; stroke-width:5.5; stroke-linecap:round; stroke-linejoin:round"
        d="M22 58V52H29V32H24V24H36V52H42V58H22z
           M26 10C26 13 28 15 31 15C34 15 36 13 36 10C36 7 34 5 31 5C28 5 26 7 26 10z"
  />
  <linearGradient id="gradient0" gradientUnits="userSpaceOnUse" x1="92" y1="30.98" x2="92" y2="56.99">
   <stop offset="0" stop-color="#abd5ff"/>
   <stop offset="1" stop-color="#006cd9"/>
  </linearGradient>
  <path style="fill:url(#gradient0)"
        d="M22 58V52H29V32H24V24H36V52H42V58H22z
           M26 10C26 13 28 15 31 15C34 15 36 13 36 10C36 7 34 5 31 5C28 5 26 7 26 10z"
  />
 </g>
</svg>
