<?xml version="1.0" encoding="UTF-8" standalone="yes"?>
<svg version="1.1" width="64" height="64" color-interpolation="linearRGB"
     xmlns:svg="http://www.w3.org/2000/svg" xmlns="http://www.w3.org/2000/svg">
 <g>
  <path style="fill:none; stroke:#000000; stroke-opacity:0.4; stroke-width:7.2595; stroke-linecap:round; stroke-linejoin:round"
        d="M48 21C50.31 23.6 52 28.22 52 32C52 44 44 52 32 52C20 52 12 44 12 32C12 20 20 12 32 12"
        transform="matrix(1.0634,0,0,1.0634,1.4686,0.4686)"
  />
  <path style="fill:none; stroke:#000000; stroke-opacity:0.4; stroke-width:5; stroke-linecap:round; stroke-linejoin:round"
        d="M40 12C36.38 15.64 31.61 18.35 28 22C28 14.71 28 3 28 3C28 3 36.38 8.35 40 12z"
        transform="matrix(1,0,0,1,2,2)"
  />
  <path style="fill:none; stroke:#000080; stroke-width:11; stroke-linecap:round"
        d="M48 21C50.31 23.6 52 28.22 52 32C52 44 44 52 32 52C20 52 12 44 12 32C12 20 20 12 32 12"
  />
  <path style="fill:none; stroke:#000080; stroke-width:5; stroke-linecap:round; stroke-linejoin:round"
        d="M40 12C36.38 15.64 31.61 18.35 28 22C28 14.71 28 3 28 3C28 3 36.38 8.35 40 12z"
  />
  <linearGradient id="gradient0" gradientUnits="userSpaceOnUse" x1="119.65" y1="7.79" x2="119.65" y2="42.34">
   <stop offset="0" stop-color="#ffffff"/>
   <stop offset="1" stop-color="#d9d9ff"/>
  </linearGradient>
  <path style="fill:url(#gradient0)"
        d="M40 12C36.38 15.64 31.61 18.35 28 22C28 14.71 28 3 28 3C28 3 36.38 8.35 40 12z"
  />
  <linearGradient id="gradient1" gradientUnits="userSpaceOnUse" x1="119.65" y1="7.79" x2="119.65" y2="42.34">
   <stop offset="0" stop-color="#ffffff"/>
   <stop offset="1" stop-color="#d9d9ff"/>
  </linearGradient>
  <path style="fill:none; stroke:url(#gradient1); stroke-width:5; stroke-linecap:round; stroke-linejoin:round"
        d="M48 21C50.31 23.6 52 28.22 52 32C52 44 44 52 32 52C20 52 12 44 12 32C12 20 20 12 32 12"
  />
 </g>
</svg>
