<?xml version="1.0" encoding="UTF-8" standalone="yes"?>
<svg version="1.1" width="64" height="64" color-interpolation="linearRGB"
     xmlns:svg="http://www.w3.org/2000/svg" xmlns="http://www.w3.org/2000/svg">
 <g>
  <path style="fill:none; stroke:#000000; stroke-opacity:0.4; stroke-width:4; stroke-linecap:round; stroke-linejoin:round"
        d="M10.05 24.05C17.38 24.05 24.72 24.05 32.05 24.05C32.05 22.72 32.05 21.38 32.05 20.05C34.05 21.72 36.05 23.38 38.05 25.05C36.05 26.72 34.05 28.38 32.05 30.05C32.05 28.72 32.05 27.38 32.05 26.05C24.72 26.05 17.38 26.05 10.05 26.05C10.05 27.38 10.05 28.72 10.05 30.05C8.05 28.38 6.05 26.72 4.05 25.05C6.05 23.38 8.05 21.72 10.05 20.05C10.05 21.38 10.05 22.72 10.05 24.05V24.05V24.05z"
        transform="matrix(1.4739,0,0,1.5321,3.0583,-4.2406)"
  />
  <path style="fill:none; stroke:#000080; stroke-width:4; stroke-linecap:round; stroke-linejoin:round"
        d="M10.05 24.05C17.38 24.05 24.72 24.05 32.05 24.05C32.05 22.72 32.05 21.38 32.05 20.05C34.05 21.72 36.05 23.38 38.05 25.05C36.05 26.72 34.05 28.38 32.05 30.05C32.05 28.72 32.05 27.38 32.05 26.05C24.72 26.05 17.38 26.05 10.05 26.05C10.05 27.38 10.05 28.72 10.05 30.05C8.05 28.38 6.05 26.72 4.05 25.05C6.05 23.38 8.05 21.72 10.05 20.05C10.05 21.38 10.05 22.72 10.05 24.05V24.05V24.05z"
        transform="matrix(1.4739,0,0,1.5321,0.9867,-6.4259)"
  />
  <linearGradient id="gradient0" gradientUnits="userSpaceOnUse" x1="119.65" y1="7.79" x2="119.65" y2="42.34">
   <stop offset="0" stop-color="#ffffff"/>
   <stop offset="1" stop-color="#d9d9ff"/>
  </linearGradient>
  <path style="fill:url(#gradient0)"
        d="M10.05 24.05C17.38 24.05 24.72 24.05 32.05 24.05C32.05 22.72 32.05 21.38 32.05 20.05C34.05 21.72 36.05 23.38 38.05 25.05C36.05 26.72 34.05 28.38 32.05 30.05C32.05 28.72 32.05 27.38 32.05 26.05C24.72 26.05 17.38 26.05 10.05 26.05C10.05 27.38 10.05 28.72 10.05 30.05C8.05 28.38 6.05 26.72 4.05 25.05C6.05 23.38 8.05 21.72 10.05 20.05C10.05 21.38 10.05 22.72 10.05 24.05V24.05V24.05z"
        transform="matrix(1.4739,0,0,1.5321,0.9867,-6.4259)"
  />
 </g>
</svg>
