<?xml version="1.0" encoding="UTF-8" standalone="yes"?>
<svg version="1.1" width="64" height="64" color-interpolation="linearRGB"
     xmlns:svg="http://www.w3.org/2000/svg" xmlns="http://www.w3.org/2000/svg">
 <g>
  <path style="fill:none; stroke:#000000; stroke-opacity:0.4; stroke-width:5.3304; stroke-linecap:round; stroke-linejoin:round"
        d="M26.47 14.15C37.09 14.15 47.71 14.15 58.32 14.15C58.32 27.53 58.32 40.92 58.32 54.3C47.71 54.3 37.09 54.3 26.47 54.3C26.47 40.92 26.47 27.53 26.47 14.15V14.15V14.15z"
        transform="matrix(1.2007,0,0,1.1661,-22.2476,-7.4666)"
  />
  <path style="fill:none; stroke:#000080; stroke-width:5; stroke-linecap:round; stroke-linejoin:round"
        d="M23.81 11.49C34.43 11.49 45.05 11.49 55.68 11.49C55.68 24.87 55.68 38.25 55.68 51.63C45.05 51.63 34.43 51.63 23.81 51.63C23.81 38.25 23.81 24.87 23.81 11.49V11.49V11.49z"
        transform="matrix(1.2007,0,0,1.1661,-21.2476,-6.4666)"
  />
  <linearGradient id="gradient0" gradientUnits="userSpaceOnUse" x1="172.46" y1="11.49" x2="172.46" y2="51.63">
   <stop offset="0" stop-color="#ffffff"/>
   <stop offset="1" stop-color="#d9d9ff"/>
  </linearGradient>
  <path style="fill:url(#gradient0)"
        d="M23.81 11.49C34.43 11.49 45.05 11.49 55.68 11.49C55.68 24.87 55.68 38.25 55.68 51.63C45.05 51.63 34.43 51.63 23.81 51.63C23.81 38.25 23.81 24.87 23.81 11.49V11.49V11.49z"
        transform="matrix(1.2007,0,0,1.1661,-21.2476,-6.4666)"
  />
  <path style="fill:#000080"
        d="M29.14 24.87C35.32 24.87 41.51 24.87 47.7 24.87C47.7 25.75 47.7 26.64 47.7 27.53C41.51 27.53 35.32 27.53 29.14 27.53C29.14 26.64 29.14 25.75 29.14 24.87V24.87V24.87z
           M29.14 16.83C36.21 16.83 43.29 16.83 50.37 16.83C50.37 17.72 50.37 18.61 50.37 19.5C43.29 19.5 36.21 19.5 29.14 19.5C29.14 18.61 29.14 17.72 29.14 16.83V16.83V16.83z"
        transform="matrix(1.2007,0,0,1.1661,-21.2476,-6.4666)"
  />
  <path style="fill:#000080"
        d="M29.14 32.89C36.21 32.89 43.29 32.89 50.37 32.89C50.37 33.78 50.37 34.67 50.37 35.56C43.29 35.56 36.21 35.56 29.14 35.56C29.14 34.67 29.14 33.78 29.14 32.89V32.89V32.89z
           M29.14 40.91C35.32 40.91 41.51 40.91 47.7 40.91C47.7 41.8 47.7 42.7 47.7 43.59C41.51 43.59 35.32 43.59 29.14 43.59C29.14 42.7 29.14 41.8 29.14 40.91V40.91V40.91z"
        transform="matrix(1.2007,0,0,1.1661,-21.2476,-6.4666)"
  />
  <path style="fill:#000000; fill-opacity:0.5098"
        d="M11.06 45.95C9.89 49.43 8.73 52.91 7.57 56.4C11.06 55.23 14.55 54.06 18.04 52.9C15.71 50.58 13.38 48.26 11.06 45.95V45.95V45.95z
           M14.55 38.97C13.38 41.29 12.22 43.62 11.06 45.95C13.38 48.26 15.71 50.58 18.04 52.9C20.36 51.74 22.69 50.58 25.02 49.43C21.53 45.94 18.04 42.45 14.55 38.97V38.97V38.97z
           M45.93 7.57C35.47 18.03 25.01 28.5 14.55 38.97C18.04 42.45 21.53 45.94 25.02 49.43C35.47 38.96 45.94 28.5 56.4 18.04C52.9 14.55 49.42 11.06 45.93 7.57V7.57V7.57z
           M45.93 7.57C35.47 18.03 25.01 28.5 14.55 38.97C12.22 44.78 9.89 50.59 7.57 56.4C13.38 54.07 19.2 51.75 25.02 49.43C35.47 38.96 45.94 28.5 56.4 18.04C52.9 14.55 49.42 11.06 45.93 7.57V7.57V7.57z
           M48.93 11.56C38.46 22.03 28 32.5 17.54 42.97C15.21 48.78 12.88 54.59 10.56 60.4C16.38 58.07 22.2 55.75 28.02 53.43C38.47 42.96 48.94 32.5 59.4 22.04C55.9 18.54 52.42 15.05 48.93 11.56V11.56V11.56z
           M48.93 11.56C38.46 22.03 28 32.5 17.54 42.97C21.03 46.45 24.52 49.94 28.02 53.43C38.47 42.96 48.94 32.5 59.4 22.04C55.9 18.54 52.42 15.05 48.93 11.56V11.56V11.56z
           M17.54 42.97C16.38 45.29 15.22 47.62 14.06 49.95C16.38 52.26 18.71 54.58 21.04 56.9C23.36 55.74 25.69 54.58 28.02 53.43C24.52 49.94 21.03 46.45 17.54 42.97V42.97V42.97z
           M14.06 49.95C12.89 53.43 11.72 56.91 10.56 60.4C14.05 59.23 17.54 58.06 21.04 56.9C18.71 54.58 16.38 52.26 14.06 49.95V49.95V49.95z"
        transform="matrix(0.6139,0,0,0.5845,23.9332,17.0954)"
  />
  <path style="fill:none; stroke:#3c2400; stroke-width:7; stroke-linejoin:round"
        d="M45.93 7.57C35.47 18.03 25.01 28.5 14.55 38.97C12.22 44.78 9.89 50.59 7.57 56.4C13.38 54.07 19.2 51.75 25.02 49.43C35.47 38.96 45.94 28.5 56.4 18.04C52.9 14.55 49.42 11.06 45.93 7.57V7.57V7.57z"
        transform="matrix(0.6139,0,0,0.5845,23.9332,17.0954)"
  />
  <linearGradient id="gradient1" gradientUnits="userSpaceOnUse" x1="75.72" y1="-22.28" x2="84.82" y2="-13.42">
   <stop offset="0" stop-color="#ffb629"/>
   <stop offset="1" stop-color="#d85a05"/>
  </linearGradient>
  <path style="fill:url(#gradient1)"
        d="M45.93 7.57C35.47 18.03 25.01 28.5 14.55 38.97C18.04 42.45 21.53 45.94 25.02 49.43C35.47 38.96 45.94 28.5 56.4 18.04C52.9 14.55 49.42 11.06 45.93 7.57V7.57V7.57z"
        transform="matrix(0.6139,0,0,0.5845,23.9332,17.0954)"
  />
  <linearGradient id="gradient2" gradientUnits="userSpaceOnUse" x1="32.45" y1="17.94" x2="42.18" y2="25.88">
   <stop offset="0" stop-color="#ffebce"/>
   <stop offset="1" stop-color="#d3b283"/>
  </linearGradient>
  <path style="fill:url(#gradient2)"
        d="M14.55 38.97C13.38 41.29 12.22 43.62 11.06 45.95C13.38 48.26 15.71 50.58 18.04 52.9C20.36 51.74 22.69 50.58 25.02 49.43C21.53 45.94 18.04 42.45 14.55 38.97V38.97V38.97z"
        transform="matrix(0.6139,0,0,0.5845,23.9332,17.0954)"
  />
 </g>
</svg>
