<?xml version="1.0" encoding="UTF-8" standalone="yes"?>
<svg version="1.1" width="64" height="64" color-interpolation="linearRGB"
     xmlns:svg="http://www.w3.org/2000/svg" xmlns="http://www.w3.org/2000/svg">
 <g>
  <path style="fill:none; stroke:#545454; stroke-width:4.8057; stroke-linecap:round; stroke-linejoin:round"
        d="M8.72 12.52C8.72 26.83 8.72 41.14 8.72 55.45C24.23 55.45 39.75 55.45 55.27 55.45C55.27 41.14 55.27 26.83 55.27 12.52C39.75 12.52 24.23 12.52 8.72 12.52V12.52V12.52V12.52z
           M31 15C31 27.52 31 40.47 31 53C21.29 53 21.68 53 12 53C12 40.47 12 27.52 12 15C12 15 21.29 15 31 15z
           M52 15C52 27.52 52 40.47 52 53C42.29 53 42.68 53 33 53C33 40.47 33 27.52 33 15C33 15 42.29 15 52 15z"
  />
  <path style="fill:none; stroke:#bf5000; stroke-width:4.1048; stroke-linecap:round; stroke-linejoin:round"
        d="M8.48 12.18C8.48 9.98 8.48 7.78 8.48 5.59C13.48 5.59 18.48 5.59 23.5 5.59C23.5 7.78 23.5 9.98 23.5 12.18C18.48 12.18 13.48 12.18 8.48 12.18V12.18V12.18V12.18V12.18z"
  />
  <path style="fill:#ffd400"
        d="M8.48 13.65C8.48 11.14 8.48 8.62 8.48 6.11C13.48 6.11 18.48 6.11 23.5 6.11C23.5 8.62 23.5 11.14 23.5 13.65C18.48 13.65 13.48 13.65 8.48 13.65V13.65V13.65V13.65V13.65z"
  />
  <path style="fill:#ffffff"
        d="M8.72 12.52C8.72 26.83 8.72 41.14 8.72 55.45C24.23 55.45 39.75 55.45 55.27 55.45C55.27 41.14 55.27 26.83 55.27 12.52C39.75 12.52 24.23 12.52 8.72 12.52V12.52V12.52V12.52z
           M52 15C52 27.52 52 40.47 52 53C42.29 53 42.68 53 33 53C33 40.47 33 15 33 15C33 15 42.29 15 52 15z
           M31 15C31 27.52 31 40.47 31 53C21.29 53 21.68 53 12 53C12 40.47 12 15 12 15C12 15 21.29 15 31 15z"
  />
  <path style="fill:none; stroke:#000000; stroke-opacity:0.4; stroke-width:4.5212; stroke-linecap:round; stroke-linejoin:round"
        d="M59.15 37.4C51.99 44.83 44.83 52.25 37.65 59.66C36.11 58.18 34.54 56.7 32.99 55.22C32.99 55.22 46.06 42.63 46.06 42.75C46.06 42.86 8.69 43.02 8.69 42.75C8.69 42.4 8.69 36.5 8.69 36.5C25.52 36.81 42.34 37.11 59.15 37.4V37.4V37.4V37.4V37.4z"
        transform="matrix(0.5155,0,0,0.4769,15.729,20.3604)"
  />
  <path style="fill:none; stroke:#800000; stroke-width:9; stroke-linecap:round; stroke-linejoin:round"
        d="M56.27 35.18C49.11 42.61 41.95 50.02 34.79 57.45C33.24 55.97 31.68 54.47 30.12 53C30.12 53 43.2 40.41 43.2 40.52C43.2 40.65 5.82 40.81 5.82 40.52C5.82 40.18 5.82 34.29 5.82 34.29C22.64 34.59 39.47 34.88 56.27 35.18V35.18V35.18V35.18V35.18z"
        transform="matrix(0.5155,0,0,0.4769,15.729,20.3604)"
  />
  <linearGradient id="gradient0" gradientUnits="userSpaceOnUse" x1="152.57" y1="61.52" x2="152.57" y2="19.96">
   <stop offset="0" stop-color="#ffabab"/>
   <stop offset="1" stop-color="#d90000"/>
  </linearGradient>
  <path style="fill:url(#gradient0)"
        d="M56.27 35.18C49.11 42.61 41.95 50.02 34.79 57.45C33.24 55.97 31.68 54.47 30.12 53C30.12 53 43.2 40.41 43.2 40.52C43.2 40.65 5.82 40.81 5.82 40.52C5.82 40.18 5.82 34.29 5.82 34.29C22.64 34.59 39.47 34.88 56.27 35.18V35.18V35.18V35.18V35.18z"
        transform="matrix(0.5155,0,0,0.4769,15.729,20.3604)"
  />
  <path style="fill:none; stroke:#000000; stroke-opacity:0.4; stroke-width:4.4935; stroke-linecap:round; stroke-linejoin:round"
        d="M7.76 30.42C14.63 23.1 21.48 15.77 28.35 8.46C29.9 9.92 31.46 11.39 33.02 12.85C31.15 14.6 20.75 25.14 20.87 25.14C21.79 25.14 58.29 25.14 58.29 25.14C58.29 27.2 58.29 29.23 58.29 31.29C41.45 31 24.61 30.7 7.76 30.42V30.42V30.42V30.42V30.42z"
        transform="matrix(0.5155,0,0,0.4769,15.729,17.3604)"
  />
  <path style="fill:none; stroke:#095609; stroke-width:9; stroke-linecap:round; stroke-linejoin:round"
        d="M5.9 28.65C12.76 21.34 19.62 14.02 26.47 6.69C28.04 8.17 29.6 9.63 31.15 11.09C29.29 12.85 18.87 23.38 19 23.38C19.93 23.38 56.41 23.38 56.41 23.38C56.41 25.44 56.41 27.48 56.41 29.54C39.58 29.23 22.73 28.95 5.9 28.65V28.65V28.65V28.65V28.65z"
        transform="matrix(0.5155,0,0,0.4769,15.729,17.3604)"
  />
  <linearGradient id="gradient1" gradientUnits="userSpaceOnUse" x1="128.86" y1="2.68" x2="128.86" y2="43.63">
   <stop offset="0" stop-color="#80ff80"/>
   <stop offset="1" stop-color="#00b200"/>
  </linearGradient>
  <path style="fill:url(#gradient1)"
        d="M5.9 28.65C12.76 21.34 19.62 14.02 26.47 6.69C28.04 8.17 29.6 9.63 31.15 11.09C29.29 12.85 18.87 23.38 19 23.38C19.93 23.38 56.41 23.38 56.41 23.38C56.41 25.44 56.41 27.48 56.41 29.54C39.58 29.23 22.73 28.95 5.9 28.65V28.65V28.65V28.65V28.65z"
        transform="matrix(0.5155,0,0,0.4769,15.729,17.3604)"
  />
 </g>
</svg>
