<?xml version="1.0" encoding="UTF-8" standalone="yes"?>
<svg version="1.1" width="64" height="64" color-interpolation="linearRGB"
     xmlns:svg="http://www.w3.org/2000/svg" xmlns="http://www.w3.org/2000/svg">
 <g>
  <path style="fill:none; stroke:#000000; stroke-opacity:0.4; stroke-width:5.1859; stroke-linecap:round; stroke-linejoin:round"
        d="M30.72 6.54C17.36 6.54 6.54 17.36 6.54 30.72C6.54 44.06 17.36 54.9 30.72 54.9C44.06 54.9 54.9 44.06 54.9 30.72C54.9 17.36 44.06 6.54 30.72 6.54V6.54V6.54z"
        transform="matrix(1,0,0,1,2,3)"
  />
  <path style="fill:none; stroke:#800000; stroke-width:5.0907"
        d="M30.72 6.54C17.36 6.54 6.54 17.36 6.54 30.72C6.54 44.06 17.36 54.9 30.72 54.9C44.06 54.9 54.9 44.06 54.9 30.72C54.9 17.36 44.06 6.54 30.72 6.54V6.54V6.54z"
  />
  <linearGradient id="gradient0" gradientUnits="userSpaceOnUse" x1="166.9" y1="6.53" x2="166.9" y2="54.9">
   <stop offset="0" stop-color="#ffabab"/>
   <stop offset="1" stop-color="#d90000"/>
  </linearGradient>
  <path style="fill:url(#gradient0)"
        d="M30.72 6.54C17.36 6.54 6.54 17.36 6.54 30.72C6.54 44.06 17.36 54.9 30.72 54.9C44.06 54.9 54.9 44.06 54.9 30.72C54.9 17.36 44.06 6.54 30.72 6.54V6.54V6.54z"
  />
  <path style="fill:none; stroke:#800000; stroke-width:7.3612; stroke-linecap:round; stroke-linejoin:round"
        d="M22 16C22 16 14 20 14 31C14 37.99 18.68 47 31 47C42 47 47 39 47 31C47 20 39 16 39 16
           M30.49 15.59C30.49 20.42 30.49 25.26 30.49 30.1"
  />
  <linearGradient id="gradient1" gradientUnits="userSpaceOnUse" x1="89.48" y1="13.86" x2="89.48" y2="30">
   <stop offset="0" stop-color="#ffffff"/>
   <stop offset="1" stop-color="#e5e5e5"/>
  </linearGradient>
  <path style="fill:none; stroke:url(#gradient1); stroke-width:3.6806; stroke-linecap:round; stroke-linejoin:round"
        d="M22 16C22 16 14 20 14 31C14 37.99 18.68 47 31 47C42 47 47 39 47 31C47 20 39 16 39 16
           M30.49 15.59C30.49 20.42 30.49 25.26 30.49 30.1"
  />
 </g>
</svg>
