<?xml version="1.0" encoding="UTF-8" standalone="yes"?>
<svg version="1.1" width="64" height="64" color-interpolation="linearRGB"
     xmlns:svg="http://www.w3.org/2000/svg" xmlns="http://www.w3.org/2000/svg">
 <g>
  <path style="fill:none; stroke:#000000; stroke-opacity:0.4; stroke-width:4; stroke-linecap:round; stroke-linejoin:round"
        d="M21 2C10.5 2 2 10.5 2 21C2 31.48 10.5 40 21 40C31.48 40 40 31.48 40 21C40 10.5 31.48 2 21 2z"
        transform="matrix(1.2965,0,0,1.2965,6,6)"
  />
  <path style="fill:none; stroke:#800000; stroke-width:4"
        d="M21 2C10.5 2 2 10.5 2 21C2 31.48 10.5 40 21 40C31.48 40 40 31.48 40 21C40 10.5 31.48 2 21 2z"
        transform="matrix(1.2727,0,0,1.2727,4,4)"
  />
  <linearGradient id="gradient0" gradientUnits="userSpaceOnUse" x1="128" y1="1.99" x2="128" y2="40">
   <stop offset="0" stop-color="#ffabab"/>
   <stop offset="1" stop-color="#d90000"/>
  </linearGradient>
  <path style="fill:url(#gradient0)"
        d="M21 2C10.5 2 2 10.5 2 21C2 31.48 10.5 40 21 40C31.48 40 40 31.48 40 21C40 10.5 31.48 2 21 2z"
        transform="matrix(1.2727,0,0,1.2727,4,4)"
  />
  <path style="fill:none; stroke:#800000; stroke-width:8; stroke-linecap:round; stroke-linejoin:round"
        d="M31 14V30
           M40 15C40 15 43.27 16.41 47 22C49 25 49 30 49 30C49 30 49 33 48 36C46 42 41.42 45.28 40 46C34 49 31 48 31 48C31 48 28 49 22 46C18.42 44.21 17 42 15 38C13.12 34.25 13 30 13 30C13 30 12.99 25 15 22C19 16 22 15 22 15"
        transform="matrix(0.9333,0,0,0.907,1.5666,2.8931)"
  />
  <linearGradient id="gradient1" gradientUnits="userSpaceOnUse" x1="94.2" y1="12.1" x2="94.2" y2="29.89">
   <stop offset="0" stop-color="#ffffff"/>
   <stop offset="1" stop-color="#e5e5e5"/>
  </linearGradient>
  <path style="fill:none; stroke:url(#gradient1); stroke-width:4; stroke-linecap:round; stroke-linejoin:round"
        d="M31 14V30
           M40 15C40 15 43.27 16.41 47 22C49 25 49 30 49 30C49 30 49 33 48 36C46 42 41.42 45.28 40 46C34 49 31 48 31 48C31 48 28 49 22 46C18.42 44.21 17 42 15 38C13.12 34.25 13 30 13 30C13 30 12.99 25 15 22C19 16 22 15 22 15"
        transform="matrix(0.9333,0,0,0.907,1.5666,2.8931)"
  />
 </g>
</svg>
