<?xml version="1.0" encoding="UTF-8" standalone="yes"?>
<svg version="1.1" width="64" height="64" color-interpolation="linearRGB"
     xmlns:svg="http://www.w3.org/2000/svg" xmlns="http://www.w3.org/2000/svg">
 <g>
  <path style="fill:none; stroke:#000000; stroke-opacity:0.4; stroke-width:5.846; stroke-linejoin:round"
        d="M28.21 33.4C28.21 23.27 36.97 15.09 47.87 15.09C52.44 15.09 56.63 16.52 59.97 18.97C54.87 11.53 45.91 6.63 35.78 6.63C19.9 6.63 7.04 18.61 7.04 33.4C7.04 48.2 19.9 60.17 35.78 60.17C45.91 60.17 54.87 55.27 59.97 47.8C56.63 50.27 52.44 51.72 47.87 51.72C36.97 51.72 28.21 43.52 28.21 33.4"
        transform="matrix(0.8705,0,0,0.8713,4.1425,4.115)"
  />
  <path style="fill:none; stroke:#545454; stroke-width:5.846; stroke-linejoin:round"
        d="M25.19 30.58C25.19 20.45 33.95 12.27 44.85 12.27C49.42 12.27 53.6 13.7 56.95 16.16C51.85 8.72 42.88 3.81 32.75 3.81C16.87 3.81 4.02 15.79 4.02 30.58C4.02 45.38 16.87 57.36 32.75 57.36C42.88 57.36 51.85 52.45 56.95 44.97C53.6 47.45 49.42 48.9 44.85 48.9C33.95 48.9 25.19 40.7 25.19 30.58"
        transform="matrix(0.8705,0,0,0.8713,4.1425,4.115)"
  />
  <linearGradient id="gradient0" gradientUnits="userSpaceOnUse" x1="194.56" y1="3.8" x2="194.56" y2="57.36">
   <stop offset="0" stop-color="#ffffff"/>
   <stop offset="1" stop-color="#e5e5e5"/>
  </linearGradient>
  <path style="fill:url(#gradient0)"
        d="M25.19 30.58C25.19 20.45 33.95 12.27 44.85 12.27C49.42 12.27 53.6 13.7 56.95 16.16C51.85 8.72 42.88 3.81 32.75 3.81C16.87 3.81 4.02 15.79 4.02 30.58C4.02 45.38 16.87 57.36 32.75 57.36C42.88 57.36 51.85 52.45 56.95 44.97C53.6 47.45 49.42 48.9 44.85 48.9C33.95 48.9 25.19 40.7 25.19 30.58"
        transform="matrix(0.8705,0,0,0.8713,4.1425,4.115)"
  />
 </g>
</svg>
