<?xml version="1.0" encoding="UTF-8" standalone="yes"?>
<svg version="1.1" width="64" height="64" color-interpolation="linearRGB"
     xmlns:svg="http://www.w3.org/2000/svg" xmlns="http://www.w3.org/2000/svg">
 <g>
  <path style="fill:none; stroke:#000000; stroke-opacity:0.4; stroke-width:5.4572; stroke-linecap:round; stroke-linejoin:round"
        d="M6.63 18.81V8.27H23.54V18.81H6.63z
           M60.17 58.36H6.63V18.81H60.17V58.36z"
        transform="matrix(0.8697,0,0,0.8616,4.1905,3.4496)"
  />
  <path style="fill:none; stroke:#545454; stroke-width:5.4572; stroke-linecap:round; stroke-linejoin:round"
        d="M57.36 55.72H3.81V16.18H57.36V55.72z"
        transform="matrix(0.887,0,0,0.8796,4.123,3.3498)"
  />
  <path style="fill:none; stroke:#bf5000; stroke-width:5.4572; stroke-linecap:round; stroke-linejoin:round"
        d="M3.81 16.18V5.63H20.72V16.18H3.81z"
        transform="matrix(0.887,0,0,0.8796,4.123,3.3498)"
  />
  <path style="fill:#ffd400"
        d="M3.81 16.18V5.63H20.72V16.18H3.81z"
        transform="matrix(0.887,0,0,0.8796,4.123,3.3498)"
  />
  <linearGradient id="gradient0" gradientUnits="userSpaceOnUse" x1="3.81" y1="17.49" x2="57.36" y2="17.49">
   <stop offset="0.7947" stop-color="#ffffff"/>
   <stop offset="1" stop-color="#e6e1dc"/>
  </linearGradient>
  <path style="fill:url(#gradient0)"
        d="M57.36 55.72H3.81V16.18H57.36V55.72z"
        transform="matrix(0.887,0,0,0.8796,4.123,3.3498)"
  />
  <path style="fill:none; stroke:#000000; stroke-opacity:0.4; stroke-width:2.2463; stroke-linecap:round; stroke-linejoin:round"
        d="M40.97 36.1L24.02 24.42V47.78L40.97 36.1z"
        transform="matrix(0.887,0,0,0.8796,4.123,3.3498)"
  />
  <path style="fill:none; stroke:#005900; stroke-width:2.2463; stroke-linecap:round; stroke-linejoin:round"
        d="M39.97 34.87L23.02 23.19V46.55L39.97 34.87z"
        transform="matrix(0.887,0,0,0.8796,4.123,3.3498)"
  />
  <linearGradient id="gradient1" gradientUnits="userSpaceOnUse" x1="84.85" y1="23.19" x2="84.85" y2="46.55">
   <stop offset="0" stop-color="#80ff80"/>
   <stop offset="1" stop-color="#00b200"/>
  </linearGradient>
  <path style="fill:url(#gradient1)"
        d="M39.97 34.87L23.02 23.19V46.55L39.97 34.87z"
        transform="matrix(0.887,0,0,0.8796,4.123,3.3498)"
  />
 </g>
</svg>
