<?xml version="1.0" encoding="UTF-8" standalone="yes"?>
<svg version="1.1" width="64" height="64" color-interpolation="linearRGB"
     xmlns:svg="http://www.w3.org/2000/svg" xmlns="http://www.w3.org/2000/svg">
 <g>
  <path style="fill:none; stroke:#000000; stroke-opacity:0.4; stroke-width:8"
        d="M35.76 20.36C32.56 23.55 29.37 26.75 26.18 29.94C25.49 30.62 24.81 31.31 24.12 32C24.81 32.68 25.49 33.37 26.18 34.05C29.37 37.25 32.56 40.44 35.76 43.63C36.44 42.95 37.13 42.26 37.81 41.57C34.62 38.38 31.43 35.19 28.23 32C31.43 28.8 34.62 25.61 37.81 22.42C37.13 21.73 36.44 21.04 35.76 20.36V20.36V20.36z
           M32 11.63C43.28 11.63 52.36 20.71 52.36 32C52.36 43.28 43.28 52.36 32 52.36C20.71 52.36 11.63 43.28 11.63 32C11.63 20.71 20.71 11.63 32 11.63V11.63V11.63z
           M32 8.72C19.1 8.72 8.72 19.1 8.72 32C8.72 44.89 19.1 55.27 32 55.27C44.89 55.27 55.27 44.89 55.27 32C55.27 19.1 44.89 8.72 32 8.72V8.72V8.72z"
        transform="matrix(1,0,0,1,2,2)"
  />
  <path style="fill:none; stroke:#bf5000; stroke-width:7.5"
        d="M35.76 20.36C32.56 23.55 29.37 26.75 26.18 29.94C25.49 30.62 24.81 31.31 24.12 32C24.81 32.68 25.49 33.37 26.18 34.05C29.37 37.25 32.56 40.44 35.76 43.63C36.44 42.95 37.13 42.26 37.81 41.57C34.62 38.38 31.43 35.19 28.23 32C31.43 28.8 34.62 25.61 37.81 22.42C37.13 21.73 36.44 21.04 35.76 20.36V20.36V20.36z
           M32 11.63C43.28 11.63 52.36 20.71 52.36 32C52.36 43.28 43.28 52.36 32 52.36C20.71 52.36 11.63 43.28 11.63 32C11.63 20.71 20.71 11.63 32 11.63V11.63V11.63z
           M32 8.72C19.1 8.72 8.72 19.1 8.72 32C8.72 44.89 19.1 55.27 32 55.27C44.89 55.27 55.27 44.89 55.27 32C55.27 19.1 44.89 8.72 32 8.72V8.72V8.72z"
  />
  <linearGradient id="gradient0" gradientUnits="userSpaceOnUse" x1="167.43" y1="7.42" x2="167.43" y2="54.09">
   <stop offset="0" stop-color="#ffff80"/>
   <stop offset="1" stop-color="#ffd500"/>
  </linearGradient>
  <path style="fill:none; stroke:url(#gradient0); stroke-width:3"
        d="M35.76 20.36C32.56 23.55 29.37 26.75 26.18 29.94C25.49 30.62 24.81 31.31 24.12 32C24.81 32.68 25.49 33.37 26.18 34.05C29.37 37.25 32.56 40.44 35.76 43.63C36.44 42.95 37.13 42.26 37.81 41.57C34.62 38.38 31.43 35.19 28.23 32C31.43 28.8 34.62 25.61 37.81 22.42C37.13 21.73 36.44 21.04 35.76 20.36V20.36V20.36z
           M32 11.63C43.28 11.63 52.36 20.71 52.36 32C52.36 43.28 43.28 52.36 32 52.36C20.71 52.36 11.63 43.28 11.63 32C11.63 20.71 20.71 11.63 32 11.63V11.63V11.63z
           M32 8.72C19.1 8.72 8.72 19.1 8.72 32C8.72 44.89 19.1 55.27 32 55.27C44.89 55.27 55.27 44.89 55.27 32C55.27 19.1 44.89 8.72 32 8.72V8.72V8.72z"
  />
 </g>
</svg>
