<?xml version="1.0" encoding="UTF-8" standalone="yes"?>
<svg version="1.1" width="64" height="64" color-interpolation="linearRGB"
     xmlns:svg="http://www.w3.org/2000/svg" xmlns="http://www.w3.org/2000/svg">
 <g>
  <path style="fill:none; stroke:#000000; stroke-opacity:0.4; stroke-width:7.9993"
        d="M29.43 46.85C32.64 43.69 35.84 40.5 39.05 37.32C39.75 36.65 40.44 35.97 41.12 35.28C40.44 34.59 39.77 33.91 39.07 33.22C35.9 30 32.73 26.8 29.55 23.58C28.87 24.26 28.17 24.96 27.48 25.64C30.67 28.84 33.83 32.06 37.02 35.25C33.79 38.45 30.6 41.61 27.38 44.78C28.06 45.49 28.75 46.17 29.43 46.85V46.85V46.85V46.85V46.85V46.85V46.85z
           M33.13 55.6C21.87 55.54 12.82 46.42 12.88 35.13C12.94 23.86 22.08 14.82 33.35 14.88C44.65 14.94 53.67 24.07 53.61 35.34C53.55 46.64 44.43 55.66 33.13 55.6V55.6V55.6V55.6V55.6V55.6V55.6z
           M33.12 58.51C46.02 58.58 56.45 48.26 56.52 35.36C56.59 22.48 46.26 12.03 33.37 11.97C20.49 11.9 10.04 22.23 9.97 35.11C9.91 48.01 20.24 58.44 33.12 58.51V58.51V58.51V58.51V58.51V58.51V58.51z"
  />
  <path style="fill:none; stroke:#bf5000; stroke-width:7.4993"
        d="M27.42 43.86C30.63 40.7 33.83 37.51 37.04 34.33C37.74 33.66 38.43 32.98 39.11 32.29C38.43 31.6 37.76 30.92 37.06 30.24C33.89 27.01 30.72 23.81 27.54 20.6C26.86 21.27 26.16 21.97 25.47 22.65C28.66 25.85 31.82 29.07 35.01 32.26C31.78 35.46 28.59 38.62 25.37 41.79C26.05 42.5 26.74 43.18 27.42 43.86V43.86V43.86V43.86V43.86V43.86V43.86z
           M31.12 52.61C19.85 52.55 10.81 43.44 10.87 32.14C10.93 20.87 20.07 11.83 31.34 11.89C42.64 11.95 51.66 21.08 51.6 32.35C51.54 43.65 42.42 52.67 31.12 52.61V52.61V52.61V52.61V52.61V52.61V52.61z
           M31.11 55.52C44.01 55.59 54.44 45.27 54.51 32.37C54.58 19.49 44.25 9.04 31.35 8.98C18.48 8.91 8.03 19.24 7.96 32.12C7.9 45.02 18.23 55.45 31.11 55.52V55.52V55.52V55.52V55.52V55.52V55.52z"
  />
  <linearGradient id="gradient0" gradientUnits="userSpaceOnUse" x1="34.47" y1="17.43" x2="34.78" y2="64.1">
   <stop offset="0" stop-color="#ffff80"/>
   <stop offset="1" stop-color="#ffd500"/>
  </linearGradient>
  <path style="fill:none; stroke:url(#gradient0); stroke-width:2.9997"
        d="M27.42 43.86C30.63 40.7 33.83 37.51 37.04 34.33C37.74 33.66 38.43 32.98 39.11 32.29C38.43 31.6 37.76 30.92 37.06 30.24C33.89 27.01 30.72 23.81 27.54 20.6C26.86 21.27 26.16 21.97 25.47 22.65C28.66 25.85 31.82 29.07 35.01 32.26C31.78 35.46 28.59 38.62 25.37 41.79C26.05 42.5 26.74 43.18 27.42 43.86V43.86V43.86V43.86V43.86V43.86V43.86z
           M31.12 52.61C19.85 52.55 10.81 43.44 10.87 32.14C10.93 20.87 20.07 11.83 31.34 11.89C42.64 11.95 51.66 21.08 51.6 32.35C51.54 43.65 42.42 52.67 31.12 52.61V52.61V52.61V52.61V52.61V52.61V52.61z
           M31.11 55.52C44.01 55.59 54.44 45.27 54.51 32.37C54.58 19.49 44.25 9.04 31.35 8.98C18.48 8.91 8.03 19.24 7.96 32.12C7.9 45.02 18.23 55.45 31.11 55.52V55.52V55.52V55.52V55.52V55.52V55.52z"
  />
 </g>
</svg>
