<?xml version="1.0" encoding="UTF-8" standalone="yes"?>
<svg version="1.1" width="64" height="64" color-interpolation="linearRGB"
     xmlns:svg="http://www.w3.org/2000/svg" xmlns="http://www.w3.org/2000/svg">
 <g>
  <path style="fill:none; stroke:#000000; stroke-opacity:0.4; stroke-width:4.5208; stroke-linecap:round; stroke-linejoin:round"
        d="M9.87 21.64V13.2H24.3V21.64H9.87z
           M55.57 53.33H9.87V21.64H55.57V53.33z"
  />
  <path style="fill:none; stroke:#bf5000; stroke-width:4.6164; stroke-linecap:round; stroke-linejoin:round"
        d="M7.46 19.72V11.08H22.18V19.72H7.46z"
  />
  <path style="fill:#ffd400"
        d="M7.46 19.72V11.08H22.18V19.72H7.46z"
  />
  <path style="fill:none; stroke:#bf5000; stroke-width:3.9916; stroke-linecap:round; stroke-linejoin:round"
        d="M26.51 16.9V10.51H40.58V16.9H26.51z"
        transform="matrix(1.1107,0,0,0.9107,0.285,-2.2391)"
  />
  <path style="fill:#ffd400"
        d="M25.74 19.72V11.08H40.46V19.72H25.74z"
        transform="matrix(1.0352,0,0,0.9107,3.3383,-2.2391)"
  />
  <path style="fill:none; stroke:#545454; stroke-width:4.6164; stroke-linecap:round; stroke-linejoin:round"
        d="M54.08 52.12H7.46V19.72H54.08V52.12z"
  />
  <linearGradient id="gradient0" gradientUnits="userSpaceOnUse" x1="7.46" y1="20.8" x2="54.08" y2="20.8">
   <stop offset="0.7947" stop-color="#ffffff"/>
   <stop offset="1" stop-color="#e6e1dc"/>
  </linearGradient>
  <path style="fill:url(#gradient0)"
        d="M54.08 52.12H7.46V19.72H54.08V52.12z"
  />
 </g>
</svg>
