<?xml version="1.0" encoding="UTF-8" standalone="yes"?>
<svg version="1.1" width="64" height="64" color-interpolation="linearRGB"
     xmlns:svg="http://www.w3.org/2000/svg" xmlns="http://www.w3.org/2000/svg">
 <g>
  <path style="fill:none; stroke:#000000; stroke-opacity:0.4; stroke-width:4; stroke-linecap:round; stroke-linejoin:round"
        d="M36 12L30 6L20 16L10 6L4 12L14 22L4 32L10 38L20 28L30 38L36 32L26 22L36 12z"
        transform="matrix(0.8131,0,0,0.8131,14.8334,14.8334)"
  />
  <linearGradient id="gradient0" gradientUnits="userSpaceOnUse" x1="128" y1="-22" x2="128" y2="50">
   <stop offset="0" stop-color="#b4b4b4"/>
   <stop offset="1" stop-color="#7a7777"/>
  </linearGradient>
  <path style="fill:url(#gradient0)"
        d="M36 12L30 6L20 16L10 6L4 12L14 22L4 32L10 38L20 28L30 38L36 32L26 22L36 12z"
        transform="matrix(0.8131,0,0,0.8131,14.9368,14.9368)"
  />
 </g>
</svg>
