<?xml version="1.0" encoding="UTF-8" standalone="yes"?>
<svg version="1.1" width="64" height="64" color-interpolation="linearRGB"
     xmlns:svg="http://www.w3.org/2000/svg" xmlns="http://www.w3.org/2000/svg">
 <g>
  <path style="fill:none; stroke:#000000; stroke-opacity:0.4; stroke-width:5.3703; stroke-linecap:round; stroke-linejoin:round"
        d="M6.63 19.27V9.09H23.54V19.27H6.63z
           M60.17 57.45H6.63V19.27H60.17V57.45z"
        transform="matrix(0.8536,0,0,0.8467,4.2136,4.5981)"
  />
  <path style="fill:none; stroke:#bf5000; stroke-width:5.3703; stroke-linecap:round; stroke-linejoin:round"
        d="M3.81 16.72V6.54H20.72V16.72H3.81z"
        transform="matrix(0.8705,0,0,0.8653,4.1466,4.4789)"
  />
  <path style="fill:#ffd400"
        d="M3.81 16.72V6.54H20.72V16.72H3.81z"
        transform="matrix(0.8705,0,0,0.8653,4.1466,4.4789)"
  />
  <path style="fill:none; stroke:#545454; stroke-width:5.3703; stroke-linecap:round; stroke-linejoin:round"
        d="M57.36 54.9H3.81V16.72H57.36V54.9z"
        transform="matrix(0.8705,0,0,0.8653,4.1466,4.4789)"
  />
  <path style="fill:none; stroke:#bf5000; stroke-width:4.6435; stroke-linecap:round; stroke-linejoin:round"
        d="M25.69 13.39V5.87H41.85V13.39H25.69z"
        transform="matrix(0.8705,0,0,0.8653,4.1466,4.4789)"
  />
  <path style="fill:#ffd400"
        d="M24.81 16.72V6.54H41.72V16.72H24.81z"
        transform="matrix(0.8705,0,0,0.8653,4.1466,4.4789)"
  />
  <linearGradient id="gradient0" gradientUnits="userSpaceOnUse" x1="3.81" y1="17.99" x2="57.36" y2="17.99">
   <stop offset="0.7947" stop-color="#ffffff"/>
   <stop offset="1" stop-color="#e6e1dc"/>
  </linearGradient>
  <path style="fill:url(#gradient0)"
        d="M57.36 54.9H3.81V16.72H57.36V54.9z"
        transform="matrix(0.8705,0,0,0.8653,4.1466,4.4789)"
  />
  <path style="fill:none; stroke:#000000; stroke-opacity:0.4; stroke-width:3.2178; stroke-linecap:round; stroke-linejoin:round"
        d="M61.34 43.1L50.77 41.51L45.9 31.16L41.02 41.51L31.26 43.1L37.76 51.06L36.14 61.41L45.9 56.63L55.65 61.41L54.02 51.06L61.34 43.1z"
        transform="matrix(0.8705,0,0,0.8653,4.1466,4.4789)"
  />
  <path style="fill:none; stroke:#bf5000; stroke-width:3.2178; stroke-linecap:round; stroke-linejoin:round"
        d="M59.71 41.51L49.15 39.92L44.27 29.57L39.39 39.92L29.64 41.51L36.14 49.47L34.51 59.82L44.27 55.04L54.02 59.82L52.4 49.47L59.71 41.51z"
        transform="matrix(0.8705,0,0,0.8653,4.1466,4.4789)"
  />
  <linearGradient id="gradient1" gradientUnits="userSpaceOnUse" x1="131.24" y1="29.56" x2="131.24" y2="59.82">
   <stop offset="0" stop-color="#ffff80"/>
   <stop offset="1" stop-color="#ffd500"/>
  </linearGradient>
  <path style="fill:url(#gradient1)"
        d="M59.71 41.51L49.15 39.92L44.27 29.57L39.39 39.92L29.64 41.51L36.14 49.47L34.51 59.82L44.27 55.04L54.02 59.82L52.4 49.47L59.71 41.51z"
        transform="matrix(0.8705,0,0,0.8653,4.1466,4.4789)"
  />
 </g>
</svg>
