<?xml version="1.0" encoding="UTF-8" standalone="yes"?>
<svg version="1.1" width="64" height="64" color-interpolation="linearRGB"
     xmlns:svg="http://www.w3.org/2000/svg" xmlns="http://www.w3.org/2000/svg">
 <g>
  <path style="fill:none; stroke:#000000; stroke-opacity:0.4; stroke-width:4; stroke-linecap:round; stroke-linejoin:round"
        d="M4 12V4H16V12H4z
           M42 42H4V12H42V42z"
        transform="matrix(1.409,0,0,1.2727,1,4)"
  />
  <path style="fill:none; stroke:#bf5000; stroke-width:4; stroke-linecap:round; stroke-linejoin:round"
        d="M2 10V2H14V10H2z"
        transform="matrix(1.409,0,0,1.2727,1,4)"
  />
  <path style="fill:#ffd400"
        d="M2 10V2H14V10H2z"
        transform="matrix(1.409,0,0,1.2727,1,4)"
  />
  <path style="fill:none; stroke:#545454; stroke-width:4; stroke-linecap:round; stroke-linejoin:round"
        d="M40 40H2V10H40V40z"
        transform="matrix(1.409,0,0,1.2727,1,4)"
  />
  <path style="fill:none; stroke:#bf5000; stroke-width:4; stroke-linecap:round; stroke-linejoin:round"
        d="M2 10V2H14V10H2z"
        transform="matrix(1.3465,0,0,0.9393,23,4)"
  />
  <path style="fill:#ffd400"
        d="M2 10V2H14V10H2z"
        transform="matrix(1.409,0,0,1.2727,22,4)"
  />
  <linearGradient id="gradient0" gradientUnits="userSpaceOnUse" x1="2" y1="11" x2="40" y2="11">
   <stop offset="0.7947" stop-color="#ffffff"/>
   <stop offset="1" stop-color="#e6e1dc"/>
  </linearGradient>
  <path style="fill:url(#gradient0)"
        d="M40 40H2V10H40V40z"
        transform="matrix(1.409,0,0,1.2727,1,4)"
  />
  <path style="fill:none; stroke:#000000; stroke-opacity:0.4; stroke-width:5.636; stroke-linecap:round; stroke-linejoin:round"
        d="M40.45 6.63H26.36V26.36H6.63V40.45H26.36V60.17H40.45V40.45H60.17V26.36H40.45V6.63z"
        transform="matrix(0.5483,0,0,0.5483,28.4516,28.4516)"
  />
  <path style="fill:none; stroke:#005900; stroke-width:5.636; stroke-linecap:round; stroke-linejoin:round"
        d="M37.63 3.81H23.54V23.54H3.81V37.63H23.54V57.36H37.63V37.63H57.36V23.54H37.63V3.81z"
        transform="matrix(0.5483,0,0,0.5483,28.4516,28.4516)"
  />
  <linearGradient id="gradient1" gradientUnits="userSpaceOnUse" x1="181.35" y1="3.8" x2="181.35" y2="57.36">
   <stop offset="0" stop-color="#80ff80"/>
   <stop offset="1" stop-color="#00b300"/>
  </linearGradient>
  <path style="fill:url(#gradient1)"
        d="M37.63 3.81H23.54V23.54H3.81V37.63H23.54V57.36H37.63V37.63H57.36V23.54H37.63V3.81z"
        transform="matrix(0.5483,0,0,0.5483,28.4516,28.4516)"
  />
 </g>
</svg>
