<?xml version="1.0" encoding="UTF-8" standalone="yes"?>
<svg version="1.1" width="64" height="64" color-interpolation="linearRGB"
     xmlns:svg="http://www.w3.org/2000/svg" xmlns="http://www.w3.org/2000/svg">
 <g>
  <path style="fill:none; stroke:#000000; stroke-opacity:0.4; stroke-width:8.4478; stroke-linecap:round; stroke-linejoin:round"
        d="M9 24C25.45 24 37.54 24 54 24
           M31.48 8.81C31.48 17.9 31 45.9 31 55
           M8 8C8 17.09 8 46.9 8 56C24.45 56 39 56 56 56C56 46.9 56 8 56 8C56 8 24.45 8 8 8z
           M8 40H56"
        transform="matrix(1,0,0,1,2,2)"
  />
  <path style="fill:none; stroke:#004080; stroke-width:8.4478; stroke-linecap:round; stroke-linejoin:round"
        d="M9 24C25.45 24 37.54 24 54 24
           M31.48 8.81C31.48 17.9 31 45.9 31 55
           M8 8C8 17.09 8 46.9 8 56C24.45 56 39 56 56 56C56 46.9 56 8 56 8C56 8 24.45 8 8 8z
           M8 40H56"
  />
  <linearGradient id="gradient0" gradientUnits="userSpaceOnUse" x1="187.87" y1="5.7" x2="187.87" y2="35.7">
   <stop offset="0" stop-color="#abd5ff"/>
   <stop offset="1" stop-color="#006cd9"/>
  </linearGradient>
  <path style="fill:none; stroke:url(#gradient0); stroke-width:2.8159"
        d="M9 24C25.45 24 37.54 24 54 24
           M31.48 8.81C31.48 17.9 31 45.9 31 55
           M8 8C8 17.09 8 46.9 8 56C24.45 56 39 56 56 56C56 46.9 56 8 56 8C56 8 24.45 8 8 8z
           M8 40H56"
  />
  <path style="fill:none; stroke:#075607; stroke-width:5"
        d="M11 11V21H28V11H11z"
  />
  <linearGradient id="gradient1" gradientUnits="userSpaceOnUse" x1="78.43" y1="11.43" x2="78.43" y2="26.06">
   <stop offset="0" stop-color="#80ff80"/>
   <stop offset="1" stop-color="#00b200"/>
  </linearGradient>
  <path style="fill:url(#gradient1)"
        d="M11 11V21H28V11H11z"
  />
 </g>
</svg>
