<?xml version="1.0" encoding="UTF-8" standalone="yes"?>
<svg version="1.1" width="64" height="64" color-interpolation="linearRGB"
     xmlns:svg="http://www.w3.org/2000/svg" xmlns="http://www.w3.org/2000/svg">
 <g>
  <path style="fill:none; stroke:#000000; stroke-opacity:0.4; stroke-width:5.6388; stroke-linecap:round; stroke-linejoin:round"
        d="M6.61 40.47L34.79 12.27H54.54V32L26.34 60.2L6.61 40.47z"
        transform="matrix(0.8708,0,0,0.871,4.1377,4.1279)"
  />
  <path style="fill:none; stroke:#bf5000; stroke-width:5.6388; stroke-linecap:round; stroke-linejoin:round"
        d="M3.78 37.65L31.97 9.44H51.72V29.19L23.52 57.38L3.78 37.65z"
        transform="matrix(0.8708,0,0,0.871,4.1377,4.1279)"
  />
  <linearGradient id="gradient0" gradientUnits="userSpaceOnUse" x1="181.41" y1="6.61" x2="181.41" y2="54.56">
   <stop offset="0" stop-color="#ffff80"/>
   <stop offset="1" stop-color="#ffd400"/>
  </linearGradient>
  <path style="fill:url(#gradient0)"
        d="M3.78 37.65L31.97 9.44H51.72V29.19L23.52 57.38L3.78 37.65z"
        transform="matrix(0.8708,0,0,0.871,4.1377,4.1279)"
  />
  <path style="fill:none; stroke:#bf5000; stroke-width:2.8194"
        d="M46.08 12.27C44.5 12.27 43.25 13.52 43.25 15.09C43.25 16.63 44.5 17.9 46.08 17.9C47.61 17.9 48.9 16.63 48.9 15.09C48.9 13.52 47.61 12.27 46.08 12.27z"
        transform="matrix(0.8708,0,0,0.871,4.1377,4.1279)"
  />
  <path style="fill:none; stroke:#bf5000; stroke-width:2.8194; stroke-linecap:round; stroke-linejoin:round"
        d="M12.23 37.65L34.79 15.09
           M20.7 40.47L34.79 26.37
           M23.52 48.91L43.25 29.19
           M46.08 15.09C43.25 17.9 30.56 39.06 51.72 39.06C72.86 39.06 51.72 10.85 61.58 2.4"
        transform="matrix(0.8708,0,0,0.871,4.1377,4.1279)"
  />
  <path style="fill:none; stroke:#000000; stroke-opacity:0.4; stroke-width:2.9098; stroke-linecap:round; stroke-linejoin:round"
        d="M50.99 34.81H43.49V44.67H32.99V51.72H43.49V61.57H50.99V51.72H61.49V44.67H50.99V34.81z"
        transform="matrix(0.8708,0,0,0.871,4.1377,4.1279)"
  />
  <path style="fill:none; stroke:#005900; stroke-width:2.9098; stroke-linecap:round; stroke-linejoin:round"
        d="M49.49 33.4H41.99V43.26H31.49V50.31H41.99V60.17H49.49V50.31H59.99V43.26H49.49V33.4z"
        transform="matrix(0.8708,0,0,0.871,4.1377,4.1279)"
  />
  <linearGradient id="gradient1" gradientUnits="userSpaceOnUse" x1="125.98" y1="33.39" x2="125.98" y2="60.17">
   <stop offset="0" stop-color="#80ff80"/>
   <stop offset="1" stop-color="#00b300"/>
  </linearGradient>
  <path style="fill:url(#gradient1)"
        d="M49.49 33.4H41.99V43.26H31.49V50.31H41.99V60.17H49.49V50.31H59.99V43.26H49.49V33.4z"
        transform="matrix(0.8708,0,0,0.871,4.1377,4.1279)"
  />
 </g>
</svg>
