<?xml version="1.0" encoding="UTF-8" standalone="yes"?>
<svg version="1.1" width="64" height="64" color-interpolation="linearRGB"
     xmlns:svg="http://www.w3.org/2000/svg" xmlns="http://www.w3.org/2000/svg">
 <g>
  <path style="fill:#010101; fill-opacity:0.4352"
        d="M29.94 58.29C27.94 55.18 27.23 54.68 26.32 55.76C25.99 56.17 25.53 56.5 25.3 56.5C25.08 56.5 23.82 54.99 22.5 53.15C19.88 49.5 18.6 49.07 18.11 51.65C17.84 53.1 17.7 52.94 15.65 48.95C14.46 46.62 13.13 44.58 12.69 44.41C12.26 44.25 11.32 44.38 10.59 44.71C9.87 45.04 9.16 45.19 9.02 45.05C8.87 44.91 9.26 42.81 9.87 40.38C11.2 35.13 10.91 34.38 7.81 34.87C6.28 35.12 5.81 35.02 5.81 34.47C5.81 34.07 7.29 31.24 9.1 28.19C12.2 22.97 12.35 22.57 11.63 21.48C9.77 18.64 12.54 15.15 16.67 15.15C17.76 15.15 18.65 15.01 18.65 14.84C18.65 14.67 18.07 13.85 17.36 13.02C16.66 12.19 16.08 11.32 16.08 11.09C16.08 10.87 17.6 10.97 19.45 11.32C20.58 11.53 21.7 11.74 22.83 11.95C22.72 11.52 22.62 11.1 22.51 10.68C22.33 9.99 22.06 8.76 21.9 7.96C21.8 7.47 21.7 6.99 21.6 6.5C22.68 6.93 23.76 7.37 24.84 7.81C25.92 8.24 27 8.68 28.08 9.11C28.38 8.72 28.68 8.32 28.98 7.92C29.48 7.27 30.29 5.87 30.77 4.82C31.25 3.77 31.8 2.9 32 2.9C32.19 2.9 32.74 3.77 33.22 4.82C33.7 5.87 34.51 7.27 35.01 7.92C35.31 8.32 35.61 8.72 35.91 9.11C36.99 8.68 38.07 8.24 39.15 7.81C40.23 7.37 41.31 6.93 42.39 6.5C42.29 6.99 42.19 7.47 42.09 7.96C41.93 8.76 41.65 10 41.47 10.71C41.12 12.11 40.96 12.11 46.75 10.8C48.34 10.44 48.2 11.21 46.32 13.35C45.79 13.95 45.25 14.55 44.72 15.15C45.49 15.15 46.25 15.15 47.01 15.15C51.45 15.15 54.3 18.53 52.36 21.48C51.64 22.57 51.79 22.97 54.89 28.19C56.7 31.24 58.18 34.07 58.18 34.47C58.18 35.02 57.71 35.12 56.18 34.87C53.08 34.38 52.79 35.13 54.12 40.38C54.73 42.81 55.12 44.91 54.97 45.05C54.83 45.19 54.12 45.04 53.4 44.71C52.67 44.38 51.73 44.25 51.3 44.41C50.86 44.58 49.53 46.62 48.34 48.95C46.29 52.94 46.15 53.09 45.88 51.65C45.39 49.07 44.11 49.5 41.49 53.15C40.17 54.99 38.91 56.5 38.69 56.5C38.46 56.5 38 56.17 37.67 55.76C36.76 54.68 36.05 55.18 34.05 58.29C33.06 59.83 32.14 61.09 32 61.09C31.85 61.09 30.93 59.83 29.94 58.29C29.94 58.29 29.94 58.29 29.94 58.29V58.29z"
        transform="matrix(0.9346,0,0,0.9249,5.8038,5.6003)"
  />
  <path style="fill:none; stroke:#190d00; stroke-width:6; stroke-linecap:round; stroke-linejoin:round"
        d="M29.94 58.29C27.94 55.18 27.23 54.68 26.32 55.76C25.99 56.17 25.53 56.5 25.3 56.5C25.08 56.5 23.82 54.99 22.5 53.15C19.88 49.5 18.6 49.07 18.11 51.65C17.84 53.1 17.7 52.94 15.65 48.95C14.46 46.62 13.13 44.58 12.69 44.41C12.26 44.25 11.32 44.38 10.59 44.71C9.87 45.04 9.16 45.19 9.02 45.05C8.87 44.91 9.26 42.81 9.87 40.38C11.2 35.13 10.91 34.38 7.81 34.87C6.28 35.12 5.81 35.02 5.81 34.47C5.81 34.07 7.29 31.24 9.1 28.19C12.2 22.97 12.35 22.57 11.63 21.48C9.77 18.64 12.54 15.15 16.67 15.15C17.76 15.15 18.65 15.01 18.65 14.84C18.65 14.67 18.07 13.85 17.36 13.02C16.66 12.19 16.08 11.32 16.08 11.09C16.08 10.87 17.6 10.97 19.45 11.32C20.58 11.53 21.7 11.74 22.83 11.95C22.72 11.52 22.62 11.1 22.51 10.68C22.33 9.99 22.06 8.76 21.9 7.96C21.8 7.47 21.7 6.99 21.6 6.5C22.68 6.93 23.76 7.37 24.84 7.81C25.92 8.24 27 8.68 28.08 9.11C28.38 8.72 28.68 8.32 28.98 7.92C29.48 7.27 30.29 5.87 30.77 4.82C31.25 3.77 31.8 2.9 32 2.9C32.19 2.9 32.74 3.77 33.22 4.82C33.7 5.87 34.51 7.27 35.01 7.92C35.31 8.32 35.61 8.72 35.91 9.11C36.99 8.68 38.07 8.24 39.15 7.81C40.23 7.37 41.31 6.93 42.39 6.5C42.29 6.99 42.19 7.47 42.09 7.96C41.93 8.76 41.65 10 41.47 10.71C41.12 12.11 40.96 12.11 46.75 10.8C48.34 10.44 48.2 11.21 46.32 13.35C45.79 13.95 45.25 14.55 44.72 15.15C45.49 15.15 46.25 15.15 47.01 15.15C51.45 15.15 54.3 18.53 52.36 21.48C51.64 22.57 51.79 22.97 54.89 28.19C56.7 31.24 58.18 34.07 58.18 34.47C58.18 35.02 57.71 35.12 56.18 34.87C53.08 34.38 52.79 35.13 54.12 40.38C54.73 42.81 55.12 44.91 54.97 45.05C54.83 45.19 54.12 45.04 53.4 44.71C52.67 44.38 51.73 44.25 51.3 44.41C50.86 44.58 49.53 46.62 48.34 48.95C46.29 52.94 46.15 53.09 45.88 51.65C45.39 49.07 44.11 49.5 41.49 53.15C40.17 54.99 38.91 56.5 38.69 56.5C38.46 56.5 38 56.17 37.67 55.76C36.76 54.68 36.05 55.18 34.05 58.29C33.06 59.83 32.14 61.09 32 61.09C31.85 61.09 30.93 59.83 29.94 58.29C29.94 58.29 29.94 58.29 29.94 58.29V58.29z
           M17.42 11.56C21.54 11.56 24.77 14.87 24.77 19.08C24.77 23.29 21.54 26.6 17.42 26.6C13.3 26.6 10.06 23.29 10.06 19.08C10.06 14.87 13.3 11.56 17.42 11.56z
           M46.16 11.56C50.27 11.56 53.51 14.87 53.51 19.08C53.51 23.29 50.27 26.6 46.16 26.6C42.04 26.6 38.8 23.29 38.8 19.08C38.8 14.87 42.04 11.56 46.16 11.56z"
        transform="matrix(0.9186,0,0,0.8928,2.1101,3.9902)"
  />
  <linearGradient id="gradient0" gradientUnits="userSpaceOnUse" x1="73.97" y1="3.08" x2="73.91" y2="43.04">
   <stop offset="0" stop-color="#ffcf97"/>
   <stop offset="0.99" stop-color="#e28206"/>
  </linearGradient>
  <path style="fill:url(#gradient0)"
        d="M29.94 58.29C27.94 55.18 27.23 54.68 26.32 55.76C25.99 56.17 25.53 56.5 25.3 56.5C25.08 56.5 23.82 54.99 22.5 53.15C19.88 49.5 18.6 49.07 18.11 51.65C17.84 53.1 17.7 52.94 15.65 48.95C14.46 46.62 13.13 44.58 12.69 44.41C12.26 44.25 11.32 44.38 10.59 44.71C9.87 45.04 9.16 45.19 9.02 45.05C8.87 44.91 9.26 42.81 9.87 40.38C11.2 35.13 10.91 34.38 7.81 34.87C6.28 35.12 5.81 35.02 5.81 34.47C5.81 34.07 7.29 31.24 9.1 28.19C12.2 22.97 12.35 22.57 11.63 21.48C9.77 18.64 12.54 15.15 16.67 15.15C17.76 15.15 18.65 15.01 18.65 14.84C18.65 14.67 18.07 13.85 17.36 13.02C16.66 12.19 16.08 11.32 16.08 11.09C16.08 10.87 17.6 10.97 19.45 11.32C20.58 11.53 21.7 11.74 22.83 11.95C22.72 11.52 22.62 11.1 22.51 10.68C22.33 9.99 22.06 8.76 21.9 7.96C21.8 7.47 21.7 6.99 21.6 6.5C22.68 6.93 23.76 7.37 24.84 7.81C25.92 8.24 27 8.68 28.08 9.11C28.38 8.72 28.68 8.32 28.98 7.92C29.48 7.27 30.29 5.87 30.77 4.82C31.25 3.77 31.8 2.9 32 2.9C32.19 2.9 32.74 3.77 33.22 4.82C33.7 5.87 34.51 7.27 35.01 7.92C35.31 8.32 35.61 8.72 35.91 9.11C36.99 8.68 38.07 8.24 39.15 7.81C40.23 7.37 41.31 6.93 42.39 6.5C42.29 6.99 42.19 7.47 42.09 7.96C41.93 8.76 41.65 10 41.47 10.71C41.12 12.11 40.96 12.11 46.75 10.8C48.34 10.44 48.2 11.21 46.32 13.35C45.79 13.95 45.25 14.55 44.72 15.15C45.49 15.15 46.25 15.15 47.01 15.15C51.45 15.15 54.3 18.53 52.36 21.48C51.64 22.57 51.79 22.97 54.89 28.19C56.7 31.24 58.18 34.07 58.18 34.47C58.18 35.02 57.71 35.12 56.18 34.87C53.08 34.38 52.79 35.13 54.12 40.38C54.73 42.81 55.12 44.91 54.97 45.05C54.83 45.19 54.12 45.04 53.4 44.71C52.67 44.38 51.73 44.25 51.3 44.41C50.86 44.58 49.53 46.62 48.34 48.95C46.29 52.94 46.15 53.09 45.88 51.65C45.39 49.07 44.11 49.5 41.49 53.15C40.17 54.99 38.91 56.5 38.69 56.5C38.46 56.5 38 56.17 37.67 55.76C36.76 54.68 36.05 55.18 34.05 58.29C33.06 59.83 32.14 61.09 32 61.09C31.85 61.09 30.93 59.83 29.94 58.29C29.94 58.29 29.94 58.29 29.94 58.29V58.29z"
        transform="matrix(0.9346,0,0,0.9249,2.0653,2.9629)"
  />
  <linearGradient id="gradient1" gradientUnits="userSpaceOnUse" x1="73.97" y1="3.08" x2="73.91" y2="43.04">
   <stop offset="0" stop-color="#ffcf97"/>
   <stop offset="0.99" stop-color="#e28206"/>
  </linearGradient>
  <path style="fill:url(#gradient1)"
        d=""
        transform="matrix(0.9346,0,0,0.8654,1.1307,4.0014)"
  />
  <linearGradient id="gradient2" gradientUnits="userSpaceOnUse" x1="73.97" y1="3.08" x2="73.91" y2="43.04">
   <stop offset="0" stop-color="#ffcf97"/>
   <stop offset="0.99" stop-color="#e28206"/>
  </linearGradient>
  <path style="fill:url(#gradient2)"
        d="M17.42 11.56C21.54 11.56 24.77 14.87 24.77 19.08C24.77 23.29 21.54 26.6 17.42 26.6C13.3 26.6 10.06 23.29 10.06 19.08C10.06 14.87 13.3 11.56 17.42 11.56z"
        transform="matrix(0.9346,0,0,0.8654,1.1307,4.0014)"
  />
  <path style="fill:#ffe68e"
        d="M17.42 14.45C19.96 14.45 21.95 16.49 21.95 19.08C21.95 21.67 19.96 23.71 17.42 23.71C14.88 23.71 12.89 21.67 12.89 19.08C12.89 16.49 14.88 14.45 17.42 14.45z"
        transform="matrix(0.9346,0,0,0.8654,1.1307,4.0014)"
  />
  <linearGradient id="gradient3" gradientUnits="userSpaceOnUse" x1="73.97" y1="3.08" x2="73.91" y2="43.04">
   <stop offset="0" stop-color="#ffcf97"/>
   <stop offset="0.99" stop-color="#e28206"/>
  </linearGradient>
  <path style="fill:url(#gradient3)"
        d="M46.16 11.56C50.27 11.56 53.51 14.87 53.51 19.08C53.51 23.29 50.27 26.6 46.16 26.6C42.04 26.6 38.8 23.29 38.8 19.08C38.8 14.87 42.04 11.56 46.16 11.56z"
        transform="matrix(0.9346,0,0,0.8654,1.1307,4.0014)"
  />
  <path style="fill:#ffe68e"
        d="M46.16 14.45C48.69 14.45 50.69 16.49 50.69 19.08C50.69 21.67 48.69 23.71 46.16 23.71C43.62 23.71 41.63 21.67 41.63 19.08C41.63 16.49 43.62 14.45 46.16 14.45z"
        transform="matrix(0.9346,0,0,0.8654,1.1307,4.0014)"
  />
  <linearGradient id="gradient4" gradientUnits="userSpaceOnUse" x1="73.97" y1="3.08" x2="73.91" y2="43.04">
   <stop offset="0" stop-color="#ffcf97"/>
   <stop offset="0.99" stop-color="#e28206"/>
  </linearGradient>
  <path style="fill:url(#gradient4)"
        d="M32.65 14.84C44.87 14.84 54.47 22.85 54.47 33.05C54.47 43.25 44.87 51.26 32.65 51.26C20.42 51.26 10.82 43.25 10.82 33.05C10.82 22.85 20.42 14.84 32.65 14.84z"
        transform="matrix(0.9346,0,0,0.8654,1.1307,4.0014)"
  />
  <path style="fill:#ffe68e"
        d="M42.59 51.57C44.58 47.38 39.15 36.37 32.67 35.88V35.87C32.29 35.87 32.54 35.87 32.48 35.87C32.43 35.87 32.29 35.87 32.29 35.87V35.88C25.43 36.37 20.48 47.38 22.49 51.57C24.63 56.03 40.46 56.04 42.59 51.57z"
        transform="matrix(0.9346,0,0,0.8654,1.1307,4.0014)"
  />
  <path style="fill:#000000"
        d="M38.83 42.02C38.83 43.32 36.06 47.2 32.64 47.2C29.21 47.2 26.44 43.32 26.44 42.02C26.44 40.71 29.21 33.44 32.64 33.44C36.06 33.44 38.83 40.71 38.83 42.02z"
        transform="matrix(0.9346,0,0,0.8654,1.1307,4.0014)"
  />
  <path style="fill:#190d00"
        d="M38.83 42.11C38.83 43.26 26.44 43.26 26.44 42.11C26.44 40.59 29.21 33.54 32.64 33.54C36.06 33.54 38.83 40.59 38.83 42.11z"
        transform="matrix(0.9346,0,0,0.8654,1.1307,4.0014)"
  />
  <path style="fill:#190d00"
        d="M25.14 34.2C26.17 34.2 26.98 35.02 26.98 36.08C26.98 37.13 26.17 37.96 25.14 37.96C24.11 37.96 23.3 37.13 23.3 36.08C23.3 35.02 24.11 34.2 25.14 34.2z"
        transform="matrix(0.9346,0,0,0.8654,1.1307,4.0014)"
  />
  <path style="fill:#190d00"
        d="M40.22 34.2C41.25 34.2 42.06 35.02 42.06 36.08C42.06 37.13 41.25 37.96 40.22 37.96C39.19 37.96 38.38 37.13 38.38 36.08C38.38 35.02 39.19 34.2 40.22 34.2z"
        transform="matrix(0.9346,0,0,0.8654,1.1307,4.0014)"
  />
  <path style="fill:none; stroke:#000000; stroke-width:1"
        d="M38 43C38 43 42.34 41.32 45 40C47.32 38.83 50 35 50 35
           M38 45C38 45 40.83 45.48 44 45C47.33 44.48 52 42 52 42
           M37 48C37 48 39.79 47.55 45 49C48.4 49.94 52 53 52 53"
  />
  <path style="fill:none; stroke:#000000; stroke-width:1"
        d="M38 43C38 43 42.34 41.32 45 40C47.32 38.83 50 35 50 35
           M38 45C38 45 40.83 45.48 44 45C47.33 44.48 52 42 52 42
           M37 48C37 48 39.79 47.55 45 49C48.4 49.94 52 53 52 53"
        transform="matrix(-1.0776,0,0,1,66.7084,0)"
  />
 </g>
</svg>
