<?xml version="1.0" encoding="UTF-8" standalone="yes"?>
<svg version="1.1" width="64" height="64" color-interpolation="linearRGB"
     xmlns:svg="http://www.w3.org/2000/svg" xmlns="http://www.w3.org/2000/svg">
 <g>
  <path style="fill:none; stroke:#000000; stroke-opacity:0.4; stroke-width:4; stroke-linecap:round; stroke-linejoin:round"
        d="M34 42V38H26V8H36L38 14H42V4H4V14H8L10 8H20V38H12V42H34z"
        transform="matrix(0.75,0,0,0.75,4,15)"
  />
  <path style="fill:none; stroke:#000000; stroke-width:5; stroke-linecap:round; stroke-linejoin:round"
        d="M32 40V36H24V6H34L36 12H40V2H2V12H6L8 6H18V36H10V40H32z"
        transform="matrix(0.75,0,0,0.75,4,15)"
  />
  <linearGradient id="gradient0" gradientUnits="userSpaceOnUse" x1="128" y1="1.99" x2="128" y2="40">
   <stop offset="0" stop-color="#808080"/>
   <stop offset="1" stop-color="#292929"/>
  </linearGradient>
  <path style="fill:url(#gradient0)"
        d="M32 40V36H24V6H34L36 12H40V2H2V12H6L8 6H18V36H10V40H32z"
        transform="matrix(0.75,0,0,0.75,4,15)"
  />
  <path style="fill:none; stroke:#000000; stroke-width:3"
        d="M34 45V38H37V42H56V38H59V45H34z"
  />
  <linearGradient id="gradient1" gradientUnits="userSpaceOnUse" x1="128" y1="1.99" x2="128" y2="40">
   <stop offset="0" stop-color="#808080"/>
   <stop offset="1" stop-color="#292929"/>
  </linearGradient>
  <path style="fill:url(#gradient1)"
        d="M34 45V38H37V42H56V38H59V45H34z"
  />
 </g>
</svg>
