<?xml version="1.0" encoding="UTF-8" standalone="yes"?>
<svg version="1.1" width="64" height="64" color-interpolation="linearRGB"
     xmlns:svg="http://www.w3.org/2000/svg" xmlns="http://www.w3.org/2000/svg">
 <g>
  <path style="fill:none; stroke:#000000; stroke-opacity:0.4; stroke-width:5.0288; stroke-linecap:round; stroke-linejoin:round"
        d="M12 9C9.27 9 8 10.16 8 13C8 15.82 9.27 17 12 17C14.68 17 16 15.82 16 13C16 10.16 14.68 9 12 9z"
        transform="matrix(0.9243,0,0,0.9362,-0.6607,4.2861)"
  />
  <path style="fill:none; stroke:#004080; stroke-width:5.0288; stroke-linecap:round; stroke-linejoin:round"
        d="M12 9C9.27 9 8 10.16 8 13C8 15.82 9.27 17 12 17C14.68 17 16 15.82 16 13C16 10.16 14.68 9 12 9z"
        transform="matrix(0.9243,0,0,0.9362,-1.585,2.4136)"
  />
  <linearGradient id="gradient0" gradientUnits="userSpaceOnUse" x1="162.26" y1="7.57" x2="162.26" y2="17.85">
   <stop offset="0" stop-color="#abd5ff"/>
   <stop offset="1" stop-color="#006cd9"/>
  </linearGradient>
  <path style="fill:url(#gradient0)"
        d="M12 9C9.27 9 8 10.16 8 13C8 15.82 9.27 17 12 17C14.68 17 16 15.82 16 13C16 10.16 14.68 9 12 9z"
        transform="matrix(0.9243,0,0,0.9362,-1.585,2.4136)"
  />
  <path style="fill:none; stroke:#000000; stroke-opacity:0.4; stroke-width:5.0288; stroke-linecap:round; stroke-linejoin:round"
        d="M12 9C9.27 9 8 10.16 8 13C8 15.82 9.27 17 12 17C14.68 17 16 15.82 16 13C16 10.16 14.68 9 12 9z"
        transform="matrix(0.9243,0,0,0.9362,-0.6607,21.2654)"
  />
  <path style="fill:none; stroke:#004080; stroke-width:5.0288; stroke-linecap:round; stroke-linejoin:round"
        d="M12 9C9.27 9 8 10.16 8 13C8 15.82 9.27 17 12 17C14.68 17 16 15.82 16 13C16 10.16 14.68 9 12 9z"
        transform="matrix(0.9243,0,0,0.9362,-1.585,19.393)"
  />
  <linearGradient id="gradient1" gradientUnits="userSpaceOnUse" x1="162.26" y1="7.57" x2="162.26" y2="17.85">
   <stop offset="0" stop-color="#abd5ff"/>
   <stop offset="1" stop-color="#006cd9"/>
  </linearGradient>
  <path style="fill:url(#gradient1)"
        d="M12 9C9.27 9 8 10.16 8 13C8 15.82 9.27 17 12 17C14.68 17 16 15.82 16 13C16 10.16 14.68 9 12 9z"
        transform="matrix(0.9243,0,0,0.9362,-1.585,19.393)"
  />
  <path style="fill:none; stroke:#000000; stroke-opacity:0.4; stroke-width:5.0288; stroke-linecap:round; stroke-linejoin:round"
        d="M12 9C9.27 9 8 10.16 8 13C8 15.82 9.27 17 12 17C14.68 17 16 15.82 16 13C16 10.16 14.68 9 12 9z"
        transform="matrix(0.9243,0,0,0.9362,-0.6607,38.2448)"
  />
  <path style="fill:none; stroke:#004080; stroke-width:5.0288; stroke-linecap:round; stroke-linejoin:round"
        d="M12 9C9.27 9 8 10.16 8 13C8 15.82 9.27 17 12 17C14.68 17 16 15.82 16 13C16 10.16 14.68 9 12 9z"
        transform="matrix(0.9243,0,0,0.9362,-1.585,36.3724)"
  />
  <linearGradient id="gradient2" gradientUnits="userSpaceOnUse" x1="162.26" y1="7.57" x2="162.26" y2="17.85">
   <stop offset="0" stop-color="#abd5ff"/>
   <stop offset="1" stop-color="#006cd9"/>
  </linearGradient>
  <path style="fill:url(#gradient2)"
        d="M12 9C9.27 9 8 10.16 8 13C8 15.82 9.27 17 12 17C14.68 17 16 15.82 16 13C16 10.16 14.68 9 12 9z"
        transform="matrix(0.9243,0,0,0.9362,-1.585,36.3724)"
  />
  <path style="fill:none; stroke:#000000; stroke-opacity:0.4; stroke-width:4.9083; stroke-linecap:round; stroke-linejoin:round"
        d="M27.08 19.71H56.53V56.53H27.08V19.71z"
        transform="matrix(1.0815,0,0,1.0905,-2.8073,-7.3418)"
  />
  <path style="fill:none; stroke:#000080; stroke-width:4.9083; stroke-linecap:round; stroke-linejoin:round"
        d="M24.62 17.27H54.08V54.08H24.62V17.27z"
        transform="matrix(1.0815,0,0,1.0905,-2.8073,-7.3418)"
  />
  <linearGradient id="gradient3" gradientUnits="userSpaceOnUse" x1="162.06" y1="17.27" x2="162.06" y2="54.08">
   <stop offset="0" stop-color="#ffffff"/>
   <stop offset="1" stop-color="#d9d9ff"/>
  </linearGradient>
  <path style="fill:url(#gradient3)"
        d="M24.62 17.27H54.08V54.08H24.62V17.27z"
        transform="matrix(1.0815,0,0,1.0905,-2.8073,-7.3418)"
  />
  <path style="fill:#000080"
        d="M29.54 22.17H49.17V24.62H29.54V22.17z
           M29.54 29.54H46.71V31.98H29.54V29.54z"
        transform="matrix(1.0815,0,0,1.0905,-2.8073,-7.3418)"
  />
  <path style="fill:#000080"
        d="M29.54 44.25H46.71V46.71H29.54V44.25z
           M29.54 36.9H49.17V39.35H29.54V36.9z"
        transform="matrix(1.0815,0,0,1.0905,-2.8073,-7.3418)"
  />
 </g>
</svg>
