<?xml version="1.0" encoding="UTF-8" standalone="yes"?>
<svg version="1.1" width="64" height="64" color-interpolation="linearRGB"
     xmlns:svg="http://www.w3.org/2000/svg" xmlns="http://www.w3.org/2000/svg">
 <g>
  <path style="fill:none; stroke:#000000; stroke-opacity:0.4; stroke-width:8"
        d="M26 26L20 22L26 18V26z"
        transform="matrix(1.3636,0,0,1.3636,6.6908,6.7272)"
  />
  <path style="fill:none; stroke:#000000; stroke-opacity:0.4; stroke-width:8; stroke-linecap:round; stroke-linejoin:round"
        d="M29 22C34 22 38 18 38 13C38 8 34 4 29 4H4
           M4 22H12
           M4 38H30"
        transform="matrix(1.3636,0,0,1.3636,6.6908,6.7272)"
  />
  <path style="fill:none; stroke:#000080; stroke-width:8"
        d="M26 26L20 22L26 18V26z"
        transform="matrix(1.3636,0,0,1.3636,3.9635,4)"
  />
  <path style="fill:none; stroke:#000080; stroke-width:8; stroke-linecap:square; stroke-linejoin:round"
        d="M29 22C34 22 38 18 38 13C38 8 34 4 29 4H4
           M4 22H12
           M4 38H30"
        transform="matrix(1.3636,0,0,1.3636,3.9635,4)"
  />
  <linearGradient id="gradient0" gradientUnits="userSpaceOnUse" x1="128" y1="6" x2="128" y2="40">
   <stop offset="0" stop-color="#ffffff"/>
   <stop offset="1" stop-color="#d9d9ff"/>
  </linearGradient>
  <path style="fill:none; stroke:url(#gradient0); stroke-width:4; stroke-linecap:square"
        d="M29 22C34 22 38 18 38 13C38 8 34 4 29 4H4
           M4 22H12
           M4 38H30"
        transform="matrix(1.3636,0,0,1.3636,3.9635,4)"
  />
  <linearGradient id="gradient1" gradientUnits="userSpaceOnUse" x1="128" y1="6" x2="128" y2="40">
   <stop offset="0" stop-color="#ffffff"/>
   <stop offset="1" stop-color="#d9d9ff"/>
  </linearGradient>
  <path style="fill:none; stroke:url(#gradient1); stroke-width:4"
        d="M26 26L20 22L26 18V26z"
        transform="matrix(1.3636,0,0,1.3636,3.9635,4)"
  />
 </g>
</svg>
