<?xml version="1.0" encoding="UTF-8" standalone="yes"?>
<svg version="1.1" width="64" height="64" color-interpolation="linearRGB"
     xmlns:svg="http://www.w3.org/2000/svg" xmlns="http://www.w3.org/2000/svg">
 <g>
  <path style="fill:none; stroke:#000000; stroke-opacity:0.4; stroke-width:3; stroke-linecap:round; stroke-linejoin:round"
        d="M29.5 46.5C29.5 45.5 29.5 44.5 29.5 43.5C27.5 43.5 25.5 43.5 23.5 43.5C23.5 36 23.5 28.5 23.5 21C26 21 28.5 21 31 21C31.5 22.5 32 24 32.5 25.5C33.5 25.5 34.5 25.5 35.5 25.5C35.5 23 35.5 20.5 35.5 18C26 18 16.5 18 7 18C7 20.5 7 23 7 25.5C8 25.5 9 25.5 10 25.5C10.5 24 11 22.5 11.5 21C14 21 16.5 21 19 21C19 28.5 19 36 19 43.5C17 43.5 15 43.5 13 43.5C13 44.5 13 45.5 13 46.5C18.5 46.5 24 46.5 29.5 46.5V46.5V46.5z"
        transform="matrix(0.737,0,0,0.85,7.9445,5.1963)"
  />
  <path style="fill:none; stroke:#000000; stroke-width:5; stroke-linecap:round; stroke-linejoin:round"
        d="M28 45C28 44 28 43 28 42C26 42 24 42 22 42C22 34.5 22 27 22 19.5C24.5 19.5 27 19.5 29.5 19.5C30 21 30.5 22.5 31 24C32 24 33 24 34 24C34 21.5 34 19 34 16.5C24.5 16.5 15 16.5 5.5 16.5C5.5 19 5.5 21.5 5.5 24C6.5 24 7.5 24 8.5 24C9 22.5 9.5 21 10 19.5C12.5 19.5 15 19.5 17.5 19.5C17.5 27 17.5 34.5 17.5 42C15.5 42 13.5 42 11.5 42C11.5 43 11.5 44 11.5 45C17 45 22.5 45 28 45V45V45z"
        transform="matrix(0.737,0,0,0.85,7.9445,5.1963)"
  />
  <linearGradient id="gradient0" gradientUnits="userSpaceOnUse" x1="100" y1="16.49" x2="100" y2="45">
   <stop offset="0" stop-color="#808080"/>
   <stop offset="1" stop-color="#292929"/>
  </linearGradient>
  <path style="fill:url(#gradient0)"
        d="M28 45C28 44 28 43 28 42C26 42 24 42 22 42C22 34.5 22 27 22 19.5C24.5 19.5 27 19.5 29.5 19.5C30 21 30.5 22.5 31 24C32 24 33 24 34 24C34 21.5 34 19 34 16.5C24.5 16.5 15 16.5 5.5 16.5C5.5 19 5.5 21.5 5.5 24C6.5 24 7.5 24 8.5 24C9 22.5 9.5 21 10 19.5C12.5 19.5 15 19.5 17.5 19.5C17.5 27 17.5 34.5 17.5 42C15.5 42 13.5 42 11.5 42C11.5 43 11.5 44 11.5 45C17 45 22.5 45 28 45V45V45z"
        transform="matrix(0.737,0,0,0.85,7.9445,5.1963)"
  />
  <path style="fill:none; stroke:#000000; stroke-width:4"
        d="M34 45C34 42.66 34 40.33 34 38C35 38 36 38 37 38C37 39.33 37 40.66 37 42C43.33 42 49.66 42 56 42C56 40.66 56 39.33 56 38C57 38 58 38 59 38C59 40.33 59 42.66 59 45C50.66 45 42.33 45 34 45V45V45z"
        transform="matrix(0.737,0,0,0.85,7.9445,5.1963)"
  />
  <linearGradient id="gradient1" gradientUnits="userSpaceOnUse" x1="128" y1="1.98" x2="128" y2="39.99">
   <stop offset="0" stop-color="#808080"/>
   <stop offset="1" stop-color="#292929"/>
  </linearGradient>
  <path style="fill:url(#gradient1)"
        d="M34 45C34 42.66 34 40.33 34 38C35 38 36 38 37 38C37 39.33 37 40.66 37 42C43.33 42 49.66 42 56 42C56 40.66 56 39.33 56 38C57 38 58 38 59 38C59 40.33 59 42.66 59 45C50.66 45 42.33 45 34 45V45V45z"
        transform="matrix(0.737,0,0,0.85,7.9445,5.1963)"
  />
  <path style="fill:none; stroke:#000000; stroke-opacity:0.4; stroke-width:4; stroke-linecap:round; stroke-linejoin:round"
        d="M6 6V58H58V6H6z"
        transform="matrix(1,0,0,1,2,2)"
  />
  <path style="fill:none; stroke:#000000; stroke-width:4; stroke-linecap:round; stroke-linejoin:round"
        d="M6 6V58H58V6H6z"
  />
  <linearGradient id="gradient2" gradientUnits="userSpaceOnUse" x1="100" y1="16.49" x2="100" y2="45">
   <stop offset="0" stop-color="#808080"/>
   <stop offset="1" stop-color="#292929"/>
  </linearGradient>
  <path style="fill:none; stroke:url(#gradient2); stroke-width:2; stroke-linecap:round; stroke-linejoin:round"
        d="M6 6V58H58V6H6z"
  />
 </g>
</svg>
