<?xml version="1.0" encoding="UTF-8" standalone="yes"?>
<svg version="1.1" width="64" height="64" color-interpolation="linearRGB"
     xmlns:svg="http://www.w3.org/2000/svg" xmlns="http://www.w3.org/2000/svg">
 <g>
  <path style="fill:#000000; fill-opacity:0.4"
        d="M42 38C39 35 38 28 38 28C35.33 30 32.66 32 30 34C30 34 38 38 42 38V38V38z
           M22.98 4C12.5 4 3.99 11.14 3.99 20C3.99 28.81 12.5 36 22.98 36C33.47 36 42 28.81 42 20C42 11.14 33.47 4 22.98 4V4V4z"
        transform="matrix(1.4384,0,0,1.4008,0.5835,6.7691)"
  />
  <path style="fill:none; stroke:#000000; stroke-width:4; stroke-linecap:round; stroke-linejoin:round"
        d="M40 36C37 33 36 26 36 26C33.33 28 30.66 30 28 32C28 32 36 36 40 36V36V36z
           M20.98 2C10.5 2 1.99 9.14 1.99 18C1.99 26.81 10.5 34 20.98 34C31.46 34 40 26.81 40 18C40 9.14 31.46 2 20.98 2V2V2z"
        transform="matrix(1.3332,0,0,1.343,4.0034,7)"
  />
  <linearGradient id="gradient0" gradientUnits="userSpaceOnUse" x1="128" y1="1.98" x2="128" y2="39.99">
   <stop offset="0" stop-color="#ffffff"/>
   <stop offset="1" stop-color="#e5e5e5"/>
  </linearGradient>
  <path style="fill:url(#gradient0)"
        d="M40 36C37 33 36 26 36 26C33.33 28 30.66 30 28 32C28 32 36 36 40 36V36V36z
           M20.98 2C10.5 2 1.99 9.14 1.99 18C1.99 26.81 10.5 34 20.98 34C31.46 34 40 26.81 40 18C40 9.14 31.46 2 20.98 2V2V2z"
        transform="matrix(1.3332,0,0,1.343,4.0034,7)"
  />
  <path style="fill:none; stroke:#000000; stroke-width:2"
        d="M13 13C13 17 13 21 13 25C11.33 25 9.66 25 8 25C5.23 25 3 22.76 3 20C3 19.33 3 18.66 3 18C3 15.22 5.23 13 8 13C9.66 13 11.33 13 13 13V13V13z
           M42 13C40 13 38 13 36 13V13C33.22 13 31 15.22 31 18C31 18.66 31 19.33 31 20C31 22.76 33.22 25 36 25V25C38 25 40 25 42 25
           M17 0C17 8.33 17 16.66 17 25C18.66 25 20.33 25 22 25C24.76 25 27 22.76 27 20C27 19.33 27 18.66 27 18C27 15.22 24.76 13 22 13C20.33 13 18.66 13 17 13"
        transform="matrix(1,0,0,1,10,13)"
  />
 </g>
</svg>
