<?xml version="1.0" encoding="UTF-8" standalone="yes"?>
<svg version="1.1" width="64" height="64" color-interpolation="linearRGB"
     xmlns:svg="http://www.w3.org/2000/svg" xmlns="http://www.w3.org/2000/svg">
 <g>
  <path style="fill:none; stroke:#000000; stroke-opacity:0.4; stroke-width:2.7953; stroke-linecap:round; stroke-linejoin:round"
        d="M9.31 29.18C12.09 9.45 34.27 9.45 45.36 23.54C59.22 37.63 17.63 48.9 39.81 60.17"
        transform="matrix(0.8852,0,0,0.8709,4.1134,4.1304)"
  />
  <path style="fill:none; stroke:#005900; stroke-width:2.7953; stroke-linecap:round; stroke-linejoin:round"
        d="M6.54 26.36C9.31 6.63 31.49 6.63 42.58 20.72C56.45 34.81 14.86 46.08 37.04 57.36"
        transform="matrix(0.8852,0,0,0.8709,4.1134,4.1304)"
  />
  <path style="fill:none; stroke:#ffd400; stroke-width:2.7953; stroke-linecap:round; stroke-linejoin:round"
        d="M31.49 6.63L42.58 20.72L56.45 34.81
           M6.54 26.36L9.31 6.63
           M14.86 46.08L37.04 57.36"
        transform="matrix(0.8852,0,0,0.8709,4.1134,4.1304)"
  />
  <path style="fill:none; stroke:#d90000; stroke-width:2.7953"
        d="M2.38 22.13V30.58H10.7V22.13H2.38z"
        transform="matrix(0.8852,0,0,0.8709,4.1134,4.1304)"
  />
  <path style="fill:none; stroke:#d90000; stroke-width:2.7953"
        d="M38.43 16.49V24.95H46.74V16.49H38.43z"
        transform="matrix(0.8852,0,0,0.8709,4.1134,4.1304)"
  />
  <path style="fill:none; stroke:#d90000; stroke-width:2.7953"
        d="M32.88 53.13V61.58H41.2V53.13H32.88z"
        transform="matrix(0.8852,0,0,0.8709,4.1134,4.1304)"
  />
  <path style="fill:none; stroke:#d90000; stroke-width:2.7953"
        d="M9.31 2.4C7.01 2.4 5.15 4.29 5.15 6.63C5.15 8.96 7.01 10.86 9.31 10.86C11.6 10.86 13.47 8.96 13.47 6.63C13.47 4.29 11.6 2.4 9.31 2.4z"
        transform="matrix(0.8852,0,0,0.8709,4.1134,4.1304)"
  />
  <path style="fill:none; stroke:#d90000; stroke-width:2.7953"
        d="M31.49 2.4C29.19 2.4 27.34 4.29 27.34 6.63C27.34 8.96 29.19 10.86 31.49 10.86C33.78 10.86 35.65 8.96 35.65 6.63C35.65 4.29 33.78 2.4 31.49 2.4z"
        transform="matrix(0.8852,0,0,0.8709,4.1134,4.1304)"
  />
  <path style="fill:none; stroke:#d90000; stroke-width:2.7953"
        d="M56.45 30.59C54.15 30.59 52.29 32.47 52.29 34.81C52.29 37.14 54.15 39.04 56.45 39.04C58.74 39.04 60.61 37.14 60.61 34.81C60.61 32.47 58.74 30.59 56.45 30.59z"
        transform="matrix(0.8852,0,0,0.8709,4.1134,4.1304)"
  />
  <path style="fill:none; stroke:#d90000; stroke-width:2.7953"
        d="M14.86 41.86C12.56 41.86 10.7 43.75 10.7 46.08C10.7 48.41 12.56 50.31 14.86 50.31C17.15 50.31 19.02 48.41 19.02 46.08C19.02 43.75 17.15 41.86 14.86 41.86z"
        transform="matrix(0.8852,0,0,0.8709,4.1134,4.1304)"
  />
 </g>
</svg>
