<?xml version="1.0" encoding="UTF-8" standalone="yes"?>
<svg version="1.1" width="64" height="64" color-interpolation="linearRGB"
     xmlns:svg="http://www.w3.org/2000/svg" xmlns="http://www.w3.org/2000/svg">
 <g>
  <path style="fill:none; stroke:#000000; stroke-opacity:0.4; stroke-width:4; stroke-linecap:round; stroke-linejoin:round"
        d="M40 14L28 2L2 28L14 40L40 14z"
        transform="matrix(1.4103,0,0,1.4103,3.7927,3.7927)"
  />
  <path style="fill:none; stroke:#545454; stroke-width:4; stroke-linecap:round; stroke-linejoin:round"
        d="M40 14L28 2L2 28L14 40L40 14z"
        transform="matrix(1.4103,0,0,1.4103,0.972,0.972)"
  />
  <linearGradient id="gradient0" gradientUnits="userSpaceOnUse" x1="128" y1="1.99" x2="128" y2="40">
   <stop offset="0" stop-color="#abd5ff"/>
   <stop offset="1" stop-color="#006cd9"/>
  </linearGradient>
  <path style="fill:url(#gradient0)"
        d="M22 8L8 22L20 34L34 20L22 8z"
        transform="matrix(1.4103,0,0,1.4103,0.972,0.972)"
  />
  <linearGradient id="gradient1" gradientUnits="userSpaceOnUse" x1="128" y1="1.99" x2="128" y2="40">
   <stop offset="0" stop-color="#ffffff"/>
   <stop offset="1" stop-color="#e5e5e5"/>
  </linearGradient>
  <path style="fill:url(#gradient1)"
        d="M40 14L28 2L22 8L34 20L40 14z
           M8 22L2 28L14 40L20 34L8 22z"
        transform="matrix(1.4103,0,0,1.4103,0.972,0.972)"
  />
  <path style="fill:none; stroke:#000000; stroke-opacity:0.4; stroke-width:4; stroke-linecap:round; stroke-linejoin:round"
        d="M21 2C21 2 6 16.5 6 24.86C6 33.22 12.71 40 21 40C29.28 40 36 33.22 36 24.86C36 16.5 21 2 21 2z"
        transform="matrix(0.9166,0,0,0.9544,28.1666,23.9119)"
  />
  <path style="fill:none; stroke:#484848; stroke-width:4; stroke-linejoin:round"
        d="M21 2C21 2 6 16.5 6 24.86C6 33.22 12.71 40 21 40C29.28 40 36 33.22 36 24.86C36 16.5 21 2 21 2z"
        transform="matrix(0.9166,0,0,0.9544,26.3332,22.0029)"
  />
  <linearGradient id="gradient2" gradientUnits="userSpaceOnUse" x1="128" y1="1.99" x2="128" y2="40">
   <stop offset="0" stop-color="#00ff00"/>
   <stop offset="1" stop-color="#007f33"/>
  </linearGradient>
  <path style="fill:url(#gradient2)"
        d="M21 2C21 2 6 16.5 6 24.86C6 33.22 12.71 40 21 40C29.28 40 36 33.22 36 24.86C36 16.5 21 2 21 2z"
        transform="matrix(0.9166,0,0,0.9544,26.3332,22.0029)"
  />
  <path style="fill:#ffffff; fill-opacity:0.6862"
        d="M21 4C21 4 8 17.82 8 25C8 32.17 13.82 38 21 38H20.99C16.02 38 11.99 32.17 11.99 25C11.99 17.82 21 4 21 4z"
        transform="matrix(0.9166,0,0,0.9544,26.3332,22.0029)"
  />
 </g>
</svg>
