<?xml version="1.0" encoding="UTF-8" standalone="yes"?>
<svg version="1.1" width="64" height="64" color-interpolation="linearRGB"
     xmlns:svg="http://www.w3.org/2000/svg" xmlns="http://www.w3.org/2000/svg">
 <g>
  <path style="fill:none; stroke:#000000; stroke-opacity:0.4; stroke-width:3.9996; stroke-linecap:round; stroke-linejoin:round"
        d="M4.56 10.12C16.37 7.98 28.17 5.83 39.98 3.69C40.46 6.31 40.93 8.93 41.41 11.56C30.92 13.46 20.42 15.37 9.93 17.28C9.81 16.62 9.69 15.97 9.57 15.31C8.26 15.55 6.95 15.79 5.64 16.03C5.28 14.06 4.92 12.09 4.56 10.12V10.12V10.12z"
        transform="matrix(1.3456,0,0,1.3162,2.7924,4.0871)"
  />
  <path style="fill:none; stroke:#000000; stroke-width:3.9996; stroke-linecap:round; stroke-linejoin:round"
        d="M2.56 8.12C14.37 5.98 26.17 3.83 37.98 1.69C38.46 4.31 38.93 6.93 39.41 9.56C28.92 11.46 18.42 13.37 7.93 15.28C7.81 14.62 7.69 13.97 7.57 13.31C6.26 13.55 4.95 13.79 3.64 14.03C3.28 12.06 2.92 10.09 2.56 8.12V8.12V8.12z"
        transform="matrix(1.3456,0,0,1.3162,2.7924,4.0871)"
  />
  <linearGradient id="gradient0" gradientUnits="userSpaceOnUse" x1="124.54" y1="-14.04" x2="125.97" y2="-6.17">
   <stop offset="0" stop-color="#808080"/>
   <stop offset="1" stop-color="#262626"/>
  </linearGradient>
  <path style="fill:url(#gradient0)"
        d="M2.56 8.12C14.37 5.98 26.17 3.83 37.98 1.69C38.46 4.31 38.93 6.93 39.41 9.56C28.92 11.46 18.42 13.37 7.93 15.28C7.81 14.62 7.69 13.97 7.57 13.31C6.26 13.55 4.95 13.79 3.64 14.03C3.28 12.06 2.92 10.09 2.56 8.12V8.12V8.12z"
        transform="matrix(1.3456,0,0,1.3162,2.7924,4.0871)"
  />
  <linearGradient id="gradient1" gradientUnits="userSpaceOnUse" x1="124.19" y1="-16" x2="125.98" y2="-6.16">
   <stop offset="0" stop-color="#ffffff"/>
   <stop offset="1" stop-color="#e5e5e5"/>
  </linearGradient>
  <path style="fill:url(#gradient1)"
        d="M7.04 10.36C8.65 11.76 10.26 13.16 11.87 14.57C13.18 14.33 14.49 14.09 15.8 13.85C14.19 12.45 12.58 11.05 10.97 9.65C9.66 9.88 8.35 10.12 7.04 10.36V10.36V10.36z
           M14.91 8.93C16.52 10.33 18.13 11.73 19.74 13.14C21.05 12.9 22.36 12.66 23.67 12.42C22.06 11.02 20.45 9.62 18.84 8.22C17.53 8.45 16.22 8.69 14.91 8.93V8.93V8.93z
           M22.78 7.5C24.39 8.9 26 10.3 27.61 11.7C28.92 11.47 30.23 11.23 31.54 10.99C29.93 9.59 28.32 8.19 26.71 6.79C25.4 7.02 24.09 7.26 22.78 7.5V7.5V7.5z
           M30.65 6.07C32.26 7.47 33.87 8.87 35.48 10.27C36.79 10.04 38.1 9.8 39.41 9.56C37.8 8.16 36.19 6.76 34.58 5.36C33.27 5.59 31.96 5.83 30.65 6.07V6.07V6.07z"
        transform="matrix(1.3456,0,0,1.3162,2.7924,4.0871)"
  />
  <path style="fill:#000000; fill-opacity:0.4"
        d="M27 23C27 25.2 25.2 27 23 27C20.78 27 19 25.2 19 23C19 20.78 20.78 19 23 19C25.2 19 27 20.78 27 23V23V23z
           M22.97 3C11.93 3 2.99 11.93 2.99 23C2.99 34.02 11.93 43 22.97 43C34.02 43 43 34.02 43 23C43 11.93 34.02 3 22.97 3V3V3z"
        transform="matrix(1,0,0,1,11,2)"
  />
  <linearGradient id="gradient2" gradientUnits="userSpaceOnUse" x1="128" y1="1.98" x2="128" y2="39.99">
   <stop offset="0" stop-color="#808080"/>
   <stop offset="1" stop-color="#282828"/>
  </linearGradient>
  <path style="fill:url(#gradient2)"
        d="M25 21C25 23.2 23.2 25 21 25C18.78 25 17 23.2 17 21C17 18.78 18.78 17 21 17C23.2 17 25 18.78 25 21V21V21z
           M20.97 1C9.93 1 0.99 9.93 0.99 21C0.99 32.02 9.93 41 20.97 41C32.02 41 41 32.02 41 21C41 9.93 32.02 1 20.97 1V1V1z"
        transform="matrix(1,0,0,1,11,2)"
  />
  <path style="fill:none; stroke:#000000; stroke-width:2; stroke-linecap:round; stroke-linejoin:round"
        d="M25 21C25 23.2 23.2 25 21 25C18.78 25 17 23.2 17 21C17 18.78 18.78 17 21 17C23.2 17 25 18.78 25 21V21V21z
           M20.97 1C9.93 1 0.99 9.93 0.99 21C0.99 32.02 9.93 41 20.97 41C32.02 41 41 32.02 41 21C41 9.93 32.02 1 20.97 1V1V1z"
        transform="matrix(1,0,0,1,11,2)"
  />
  <linearGradient id="gradient3" gradientUnits="userSpaceOnUse" x1="128" y1="1.98" x2="128" y2="39.99">
   <stop offset="0" stop-color="#ffffff"/>
   <stop offset="1" stop-color="#e5e5e5"/>
  </linearGradient>
  <path style="fill:url(#gradient3)"
        d="M14 21C10.33 21 6.66 21 3 21C3 16 5.15 11.64 8.43 8.42C10.95 10.94 13.47 13.47 16 16C14.76 17.22 14 19 14 21V21V21z
           M28 21C31.66 21 35.33 21 39 21C39 26 36.84 30.34 33.56 33.58C31.04 31.05 28.52 28.52 26 26C27.22 24.76 28 23 28 21V21V21z"
        transform="matrix(1,0,0,1,11,2)"
  />
  <path style="fill:none; stroke:#000000; stroke-opacity:0.4; stroke-width:4; stroke-linecap:round; stroke-linejoin:round"
        d="M6 18C18 18 30 18 42 18C42 26 42 34 42 42C30 42 18 42 6 42C6 34 6 26 6 18V18V18z"
        transform="matrix(1.3456,0,0,1.3162,2.7924,4.0871)"
  />
  <path style="fill:none; stroke:#000000; stroke-width:4; stroke-linecap:round; stroke-linejoin:round"
        d="M4 16C16 16 28 16 40 16C40 24 40 32 40 40C28 40 16 40 4 40C4 32 4 24 4 16V16V16z"
        transform="matrix(1.3456,0,0,1.3162,2.7924,4.0871)"
  />
  <linearGradient id="gradient4" gradientUnits="userSpaceOnUse" x1="127.98" y1="16" x2="127.98" y2="40">
   <stop offset="0" stop-color="#808080"/>
   <stop offset="1" stop-color="#262626"/>
  </linearGradient>
  <path style="fill:url(#gradient4)"
        d="M4 16C16 16 28 16 40 16C40 24 40 32 40 40C28 40 16 40 4 40C4 32 4 24 4 16V16V16z"
        transform="matrix(1.3456,0,0,1.3162,2.7924,4.0871)"
  />
  <linearGradient id="gradient5" gradientUnits="userSpaceOnUse" x1="127.98" y1="16" x2="127.98" y2="40">
   <stop offset="0" stop-color="#ffffff"/>
   <stop offset="1" stop-color="#e5e5e5"/>
  </linearGradient>
  <path style="fill:url(#gradient5)"
        d="M8 20C9.33 18.66 10.66 17.33 12 16C13.33 16 14.66 16 16 16C14.66 17.33 13.33 18.66 12 20C10.66 20 9.33 20 8 20V20V20z
           M16 20C17.33 18.66 18.66 17.33 20 16C21.33 16 22.66 16 24 16C22.66 17.33 21.33 18.66 20 20C18.66 20 17.33 20 16 20V20V20z
           M24 20C25.33 18.66 26.66 17.33 28 16C29.33 16 30.66 16 32 16C30.66 17.33 29.33 18.66 28 20C26.66 20 25.33 20 24 20V20V20z
           M32 20C33.33 18.66 34.66 17.33 36 16C37.33 16 38.66 16 40 16C38.66 17.33 37.33 18.66 36 20C34.66 20 33.33 20 32 20V20V20z"
        transform="matrix(1.3456,0,0,1.3162,2.7924,4.0871)"
  />
  <linearGradient id="gradient6" gradientUnits="userSpaceOnUse" x1="127.98" y1="16" x2="127.98" y2="40">
   <stop offset="0" stop-color="#ffffff"/>
   <stop offset="1" stop-color="#e5e5e5"/>
  </linearGradient>
  <path style="fill:none; stroke:url(#gradient6); stroke-width:2; stroke-linecap:round"
        d="M7 33C17 33 27 33 37 33
           M22 33C22 34.33 22 35.66 22 37
           M7 27C17 27 27 27 37 27"
        transform="matrix(1.3456,0,0,1.3162,2.7924,4.0871)"
  />
  <path style="fill:#000000"
        d="M4 14C5.33 14 6.66 14 8 14C8 15.33 8 16.66 8 18C6.66 18 5.33 18 4 18C4 16.66 4 15.33 4 14V14V14z"
        transform="matrix(1.3456,0,0,1.3162,2.7924,4.0871)"
  />
  <linearGradient id="gradient7" gradientUnits="userSpaceOnUse" x1="127.98" y1="16" x2="127.98" y2="40">
   <stop offset="0" stop-color="#ffffff"/>
   <stop offset="1" stop-color="#e5e5e5"/>
  </linearGradient>
  <path style="fill:url(#gradient7)"
        d="M6 15C6.55 15 7 15.43 7 16C7 16.54 6.55 17 6 17C5.44 17 5 16.54 5 16C5 15.43 5.44 15 6 15V15V15z"
        transform="matrix(1.3456,0,0,1.3162,2.7924,4.0871)"
  />
 </g>
</svg>
