<?xml version="1.0" encoding="UTF-8" standalone="yes"?>
<svg version="1.1" width="64" height="64" color-interpolation="linearRGB"
     xmlns:svg="http://www.w3.org/2000/svg" xmlns="http://www.w3.org/2000/svg">
 <g>
  <path style="fill:none; stroke:#000000; stroke-opacity:0.4; stroke-width:8.2069; stroke-linecap:round; stroke-linejoin:round"
        d="M24.73 14.29L21.87 14.71"
        transform="matrix(0.8713,0,0,0.8315,4.1945,5.3927)"
  />
  <path style="fill:none; stroke:#545454; stroke-width:8.2069; stroke-linecap:round; stroke-linejoin:round"
        d="M21.34 12.43L18.48 12.85"
        transform="matrix(0.8713,0,0,0.8315,4.1945,5.3927)"
  />
  <path style="fill:none; stroke:#ffffff; stroke-width:2.7356; stroke-linecap:round; stroke-linejoin:round"
        d="M21.34 12.43L18.48 12.85"
        transform="matrix(0.8713,0,0,0.8315,4.1945,5.3927)"
  />
  <path style="fill:none; stroke:#000000; stroke-opacity:0.4; stroke-width:7.5934; stroke-linecap:round; stroke-linejoin:round"
        d="M45.82 15.12L42.95 14.71"
        transform="matrix(0.8713,0,0,0.8315,4.1945,5.3927)"
  />
  <path style="fill:none; stroke:#545454; stroke-width:7.5934; stroke-linecap:round; stroke-linejoin:round"
        d="M43.45 12.42L40.59 12.02"
        transform="matrix(0.8713,0,0,0.8315,4.1945,5.3927)"
  />
  <path style="fill:none; stroke:#ffffff; stroke-width:2.5311; stroke-linecap:round; stroke-linejoin:round"
        d="M43.45 12.42L40.59 12.02"
        transform="matrix(0.8713,0,0,0.8315,4.1945,5.3927)"
  />
  <path style="fill:none; stroke:#000000; stroke-opacity:0.4; stroke-width:7.5612; stroke-linecap:round; stroke-linejoin:round"
        d="M24.37 52.01L21.51 51.57"
        transform="matrix(0.8713,0,0,0.8315,4.1945,5.3927)"
  />
  <path style="fill:none; stroke:#545454; stroke-width:7.5612; stroke-linecap:round; stroke-linejoin:round"
        d="M22.07 49.29L19.21 48.84"
        transform="matrix(0.8713,0,0,0.8315,4.1945,5.3927)"
  />
  <path style="fill:none; stroke:#ffffff; stroke-width:2.5204; stroke-linecap:round; stroke-linejoin:round"
        d="M22.07 49.29L19.21 48.84"
        transform="matrix(0.8713,0,0,0.8315,4.1945,5.3927)"
  />
  <path style="fill:none; stroke:#000000; stroke-opacity:0.4; stroke-width:8.0814; stroke-linecap:round; stroke-linejoin:round"
        d="M46.44 51.34L43.54 51.58"
        transform="matrix(0.8713,0,0,0.8315,4.1945,5.3927)"
  />
  <path style="fill:none; stroke:#545454; stroke-width:8.0814; stroke-linecap:round; stroke-linejoin:round"
        d="M43.24 49.27L40.34 49.52"
        transform="matrix(0.8713,0,0,0.8315,4.1945,5.3927)"
  />
  <path style="fill:none; stroke:#ffffff; stroke-width:2.6938; stroke-linecap:round; stroke-linejoin:round"
        d="M43.24 49.27L40.34 49.52"
        transform="matrix(0.8713,0,0,0.8315,4.1945,5.3927)"
  />
  <path style="fill:none; stroke:#000000; stroke-opacity:0.4; stroke-width:7.2691; stroke-linecap:round; stroke-linejoin:round"
        d="M7.08 27.28L8.16 25.12"
        transform="matrix(0.8713,0,0,0.8315,4.1945,5.3927)"
  />
  <path style="fill:none; stroke:#545454; stroke-width:7.2691; stroke-linecap:round; stroke-linejoin:round"
        d="M5.46 24.26L6.54 22.11"
        transform="matrix(0.8713,0,0,0.8315,4.1945,5.3927)"
  />
  <path style="fill:none; stroke:#ffffff; stroke-width:2.423; stroke-linecap:round; stroke-linejoin:round"
        d="M5.46 24.26L6.54 22.11"
        transform="matrix(0.8713,0,0,0.8315,4.1945,5.3927)"
  />
  <path style="fill:none; stroke:#000000; stroke-opacity:0.4; stroke-width:8.3454; stroke-linecap:round; stroke-linejoin:round"
        d="M10.04 42.2L9.25 39.96"
        transform="matrix(0.8713,0,0,0.8315,4.1945,5.3927)"
  />
  <path style="fill:none; stroke:#545454; stroke-width:8.3454; stroke-linecap:round; stroke-linejoin:round"
        d="M6.44 40.59L5.65 38.36"
        transform="matrix(0.8713,0,0,0.8315,4.1945,5.3927)"
  />
  <path style="fill:none; stroke:#ffffff; stroke-width:2.7818; stroke-linecap:round; stroke-linejoin:round"
        d="M6.44 40.59L5.65 38.36"
        transform="matrix(0.8713,0,0,0.8315,4.1945,5.3927)"
  />
  <path style="fill:none; stroke:#000000; stroke-opacity:0.4; stroke-width:8.4199; stroke-linecap:round; stroke-linejoin:round"
        d="M59.47 26.37L58.52 24.17"
        transform="matrix(0.8713,0,0,0.8315,4.1945,5.3927)"
  />
  <path style="fill:none; stroke:#545454; stroke-width:8.4199; stroke-linecap:round; stroke-linejoin:round"
        d="M55.77 24.92L54.83 22.72"
        transform="matrix(0.8713,0,0,0.8315,4.1945,5.3927)"
  />
  <path style="fill:none; stroke:#ffffff; stroke-width:2.8066; stroke-linecap:round; stroke-linejoin:round"
        d="M55.77 24.92L54.83 22.72"
        transform="matrix(0.8713,0,0,0.8315,4.1945,5.3927)"
  />
  <path style="fill:none; stroke:#000000; stroke-opacity:0.4; stroke-width:7.3278; stroke-linecap:round; stroke-linejoin:round"
        d="M56.52 42.7L57.49 40.51"
        transform="matrix(0.8713,0,0,0.8315,4.1945,5.3927)"
  />
  <path style="fill:none; stroke:#545454; stroke-width:7.3278; stroke-linecap:round; stroke-linejoin:round"
        d="M54.74 39.74L55.71 37.55"
        transform="matrix(0.8713,0,0,0.8315,4.1945,5.3927)"
  />
  <path style="fill:none; stroke:#ffffff; stroke-width:2.4426; stroke-linecap:round; stroke-linejoin:round"
        d="M54.74 39.74L55.71 37.55"
        transform="matrix(0.8713,0,0,0.8315,4.1945,5.3927)"
  />
 </g>
</svg>
