<?xml version="1.0" encoding="UTF-8" standalone="yes"?>
<svg version="1.1" width="64" height="64" color-interpolation="linearRGB"
     xmlns:svg="http://www.w3.org/2000/svg" xmlns="http://www.w3.org/2000/svg">
 <g>
  <path style="fill:#ea03ff"
        d="M53.91 22.5C52.48 21.06 48.64 19.14 48.64 19.14C48.64 19.14 50.56 22.97 51.99 24.4C53.44 25.85 63.01 33.49 63.01 33.49C63.01 33.49 55.35 23.93 53.91 22.5z"
        transform="matrix(0.8708,0,0,0.871,4.138,4.1266)"
  />
  <path style="fill:#ea03ff"
        d="M39.55 11.97C40.98 13.4 44.82 15.32 44.82 15.32C44.82 15.32 42.9 11.5 41.47 10.07C40.02 8.62 30.45 0.99 30.45 0.99C30.45 0.99 38.11 10.54 39.55 11.97z"
        transform="matrix(0.8708,0,0,0.871,4.138,4.1266)"
  />
  <path style="fill:#ea03ff"
        d="M51.99 10.05C50.56 11.48 48.64 15.32 48.64 15.32C48.64 15.32 52.47 13.4 53.9 11.97C55.35 10.53 62.99 0.98 62.99 0.98C62.99 0.98 53.43 8.62 51.99 10.05z"
        transform="matrix(0.8708,0,0,0.871,4.138,4.1266)"
  />
  <path style="fill:#ea03ff"
        d="M45.26 11.34C45.26 12.81 46.74 15.77 46.74 15.77C46.74 15.77 48.21 12.81 48.21 11.34C48.21 9.86 46.74 1.01 46.74 1.01C46.74 1.01 45.26 9.86 45.26 11.34z"
        transform="matrix(0.8708,0,0,0.871,4.138,4.1266)"
  />
  <path style="fill:#ea03ff"
        d="M48.21 23.14C48.21 21.67 46.74 18.72 46.74 18.72C46.74 18.72 45.26 21.67 45.26 23.14C45.26 24.62 46.74 33.48 46.74 33.48C46.74 33.48 48.21 24.62 48.21 23.14z"
        transform="matrix(0.8708,0,0,0.871,4.138,4.1266)"
  />
  <path style="fill:#ea03ff"
        d="M52.64 15.77C51.17 15.77 48.21 17.24 48.21 17.24C48.21 17.24 51.17 18.72 52.64 18.72C54.12 18.72 62.98 17.24 62.98 17.24C62.98 17.24 54.12 15.77 52.64 15.77z"
        transform="matrix(0.8708,0,0,0.871,4.138,4.1266)"
  />
  <path style="fill:#ea03ff"
        d="M40.83 18.72C42.31 18.72 45.26 17.24 45.26 17.24C45.26 17.24 42.31 15.77 40.83 15.77C39.35 15.77 30.49 17.24 30.49 17.24C30.49 17.24 39.35 18.72 40.83 18.72z"
        transform="matrix(0.8708,0,0,0.871,4.138,4.1266)"
  />
  <path style="fill:#000000; fill-opacity:0.4"
        d="M6.87 55.61L14.25 62.99L48.21 29.05L40.83 21.67L6.87 55.61z"
        transform="matrix(0.8708,0,0,0.871,4.138,4.1266)"
  />
  <path style="fill:none; stroke:#000000; stroke-width:5.905; stroke-linejoin:round"
        d="M3.92 52.66L11.3 60.04L45.26 26.1L37.88 18.72L3.92 52.66z"
        transform="matrix(0.8708,0,0,0.871,4.138,4.1266)"
  />
  <linearGradient id="gradient0" gradientUnits="userSpaceOnUse" x1="126.47" y1="-73.89" x2="136.07" y2="-64.29">
   <stop offset="0" stop-color="#010101"/>
   <stop offset="0.4841" stop-color="#999999"/>
   <stop offset="1" stop-color="#010101"/>
  </linearGradient>
  <path style="fill:url(#gradient0)"
        d="M3.92 52.66L11.3 60.04L34.92 36.43L27.54 29.05L3.92 52.66z"
        transform="matrix(0.8708,0,0,0.871,4.138,4.1266)"
  />
  <linearGradient id="gradient1" gradientUnits="userSpaceOnUse" x1="126.47" y1="-73.89" x2="136.07" y2="-64.29">
   <stop offset="0" stop-color="#ffaa00"/>
   <stop offset="0.4893" stop-color="#ffffbf"/>
   <stop offset="1" stop-color="#ffaa00"/>
  </linearGradient>
  <path style="fill:url(#gradient1)"
        d="M27.54 29.05L34.92 36.43L45.26 26.1L37.88 18.72L27.54 29.05z"
        transform="matrix(0.8708,0,0,0.871,4.138,4.1266)"
  />
 </g>
</svg>
