<?xml version="1.0" encoding="UTF-8" standalone="yes"?>
<svg version="1.1" width="64" height="64" color-interpolation="linearRGB"
     xmlns:svg="http://www.w3.org/2000/svg" xmlns="http://www.w3.org/2000/svg">
 <g>
  <path style="fill:#000000; fill-opacity:0.4274"
        d="M31.99 7.99C11.45 7.99 7.71 49.85 31.99 49.85C56.27 49.85 52.52 7.99 31.99 7.99z
           M9.58 33.11H54.4
           M48.79 16.36L17.05 47.76
           M15.19 16.36L46.93 47.76
           M30.12 26.83L18.92 24.74C18.92 24.74 18.92 37.29 22.65 41.48C26.39 45.67 30.12 45.67 30.12 45.67V26.83z
           M33.86 26.83V45.67C33.86 45.67 37.59 45.67 41.33 41.48C45.06 37.29 45.06 24.74 45.06 24.74L33.86 26.83z
           M20.32 21.07C20.32 21.07 28.25 22.64 31.99 22.64C35.73 22.64 43.66 21.07 43.66 21.07C43.66 21.07 41.33 12.18 31.99 12.18C22.65 12.18 20.32 21.07 20.32 21.07z
           M24.52 26.83C20.79 26.83 20.79 35.2 24.52 35.2C30.12 35.2 30.12 26.83 24.52 26.83z
           M39.46 31.02C33.86 31.02 33.86 39.39 39.46 39.39C43.19 39.39 43.19 31.02 39.46 31.02z"
        transform="matrix(1,0,0,1,2,3)"
  />
  <path style="fill:#000000"
        d="M31.99 7.99C11.45 7.99 7.71 49.85 31.99 49.85C56.27 49.85 52.52 7.99 31.99 7.99z"
  />
  <path style="fill:none; stroke:#000000; stroke-width:7.9485; stroke-linecap:round"
        d="M9.58 33.11H54.4
           M48.79 16.36L17.05 47.76
           M15.19 16.36L46.93 47.76"
  />
  <linearGradient id="gradient0" gradientUnits="userSpaceOnUse" x1="171.19" y1="-111.97" x2="194.9" y2="-74.32">
   <stop offset="0" stop-color="#ffdcdc"/>
   <stop offset="1" stop-color="#e80606"/>
  </linearGradient>
  <path style="fill:url(#gradient0)"
        d="M30.12 26.83L18.92 24.74C18.92 24.74 18.92 37.29 22.65 41.48C26.39 45.67 30.12 45.67 30.12 45.67V26.83z
           M33.86 26.83V45.67C33.86 45.67 37.59 45.67 41.33 41.48C45.06 37.29 45.06 24.74 45.06 24.74L33.86 26.83z"
  />
  <linearGradient id="gradient1" gradientUnits="userSpaceOnUse" x1="76.81" y1="-23.18" x2="84.55" y2="-4.93">
   <stop offset="0" stop-color="#c6c6c6"/>
   <stop offset="1" stop-color="#4a4a4a"/>
  </linearGradient>
  <path style="fill:url(#gradient1)"
        d="M20.32 21.07C20.32 21.07 28.25 22.64 31.99 22.64C35.73 22.64 43.66 21.07 43.66 21.07C43.66 21.07 41.33 12.18 31.99 12.18C22.65 12.18 20.32 21.07 20.32 21.07z"
  />
  <path style="fill:#000000"
        d="M24.52 26.83C20.79 26.83 20.79 35.2 24.52 35.2C30.12 35.2 30.12 26.83 24.52 26.83z
           M39.46 31.02C33.86 31.02 33.86 39.39 39.46 39.39C43.19 39.39 43.19 31.02 39.46 31.02z"
  />
 </g>
</svg>
