<?xml version="1.0" encoding="UTF-8" standalone="yes"?>
<svg version="1.1" width="64" height="64" color-interpolation="linearRGB"
     xmlns:svg="http://www.w3.org/2000/svg" xmlns="http://www.w3.org/2000/svg">
 <g>
  <path style="fill:none; stroke:#000000; stroke-opacity:0.4; stroke-width:3; stroke-linecap:round; stroke-linejoin:round"
        d="M2 38H4V36H6V38H10V36H12V38H16V36H18V38H22V36H24V38H28V36H30V38H38L2 18V38z
           M6 25L24 34H6V25z
           M2 38H4V36H6V38H10V36H12V38H16V36H18V38H22V36H24V38H28V36H30V38H38L2 18V38z
           M6 25L24 34H6V25z"
        transform="matrix(1.4827,0,0,1.6258,3.8419,-10.5227)"
  />
  <path style="fill:none; stroke:#d98e00; stroke-width:4; stroke-linecap:round; stroke-linejoin:round"
        d="M6 25L24 34H6V25z
           M2 38H4V36H6V38H10V36H12V38H16V36H18V38H22V36H24V38H28V36H30V38H38L2 18V38z"
        transform="matrix(1.4006,0,0,1.5833,4,-12.3334)"
  />
  <linearGradient id="gradient0" gradientUnits="userSpaceOnUse" x1="128" y1="18" x2="128" y2="38">
   <stop offset="0" stop-color="#ffffff"/>
   <stop offset="1" stop-color="#ffffbf"/>
  </linearGradient>
  <path style="fill:url(#gradient0)"
        d="M2 38H4V36H6V38H10V36H12V38H16V36H18V38H22V36H24V38H28V36H30V38H38L2 18V38z
           M6 25L24 34H6V25z"
        transform="matrix(1.4006,0,0,1.5833,4,-12.3334)"
  />
 </g>
</svg>
