<?xml version="1.0" encoding="UTF-8" standalone="yes"?>
<svg version="1.1" width="64" height="64" color-interpolation="linearRGB"
     xmlns:svg="http://www.w3.org/2000/svg" xmlns="http://www.w3.org/2000/svg">
 <g>
  <path style="fill:none; stroke:#000000; stroke-opacity:0.4; stroke-width:5.6412; stroke-linecap:round; stroke-linejoin:round"
        d="M60.2 23.53L43.28 6.61L6.61 43.28L23.53 60.2L60.2 23.53z"
        transform="matrix(0.8709,0,0,0.8568,4.1378,4.1528)"
  />
  <path style="fill:none; stroke:#545454; stroke-width:5.6412; stroke-linecap:round; stroke-linejoin:round"
        d="M57.38 20.71L40.46 3.79L3.79 40.46L20.71 57.38L57.38 20.71z"
        transform="matrix(0.8709,0,0,0.8568,4.1378,4.1528)"
  />
  <linearGradient id="gradient0" gradientUnits="userSpaceOnUse" x1="181.49" y1="3.77" x2="181.49" y2="57.38">
   <stop offset="0" stop-color="#abd5ff"/>
   <stop offset="1" stop-color="#006cd9"/>
  </linearGradient>
  <path style="fill:url(#gradient0)"
        d="M31.99 12.25L12.25 31.99L29.17 48.92L48.92 29.17L31.99 12.25z"
        transform="matrix(0.8709,0,0,0.8568,4.1378,4.1528)"
  />
  <linearGradient id="gradient1" gradientUnits="userSpaceOnUse" x1="181.49" y1="3.77" x2="181.49" y2="57.38">
   <stop offset="0" stop-color="#ffffff"/>
   <stop offset="1" stop-color="#e5e5e5"/>
  </linearGradient>
  <path style="fill:url(#gradient1)"
        d="M57.38 20.71L40.46 3.79L31.99 12.25L48.92 29.17L57.38 20.71z
           M12.25 31.99L3.79 40.46L20.71 57.38L29.17 48.92L12.25 31.99z"
        transform="matrix(0.8709,0,0,0.8568,4.1378,4.1528)"
  />
  <path style="fill:none; stroke:#000000; stroke-opacity:0.4; stroke-width:3.7427; stroke-linecap:round; stroke-linejoin:round"
        d="M47.41 25.82C47.41 25.82 33.66 39.65 33.66 47.63C33.66 55.61 39.81 62.08 47.41 62.08C55 62.08 61.16 55.61 61.16 47.63C61.16 39.65 47.41 25.82 47.41 25.82z"
        transform="matrix(0.8709,0,0,0.8568,4.1378,4.1528)"
  />
  <path style="fill:none; stroke:#484848; stroke-width:3.7427; stroke-linejoin:round"
        d="M45.58 23.91C45.58 23.91 31.83 37.75 31.83 45.72C31.83 53.7 37.98 60.17 45.58 60.17C53.17 60.17 59.33 53.7 59.33 45.72C59.33 37.75 45.58 23.91 45.58 23.91z"
        transform="matrix(0.8709,0,0,0.8568,4.1378,4.1528)"
  />
  <linearGradient id="gradient2" gradientUnits="userSpaceOnUse" x1="143.65" y1="23.9" x2="143.65" y2="60.17">
   <stop offset="0" stop-color="#00ff00"/>
   <stop offset="1" stop-color="#007f33"/>
  </linearGradient>
  <path style="fill:url(#gradient2)"
        d="M45.58 23.91C45.58 23.91 31.83 37.75 31.83 45.72C31.83 53.7 37.98 60.17 45.58 60.17C53.17 60.17 59.33 53.7 59.33 45.72C59.33 37.75 45.58 23.91 45.58 23.91z"
        transform="matrix(0.8709,0,0,0.8568,4.1378,4.1528)"
  />
  <path style="fill:#ffffff; fill-opacity:0.6862"
        d="M45.58 25.82C45.58 25.82 33.66 39.01 33.66 45.86C33.66 52.7 39 58.27 45.58 58.27H45.57C41.01 58.27 37.32 52.7 37.32 45.86C37.32 39.01 45.58 25.82 45.58 25.82z"
        transform="matrix(0.8709,0,0,0.8568,4.1378,4.1528)"
  />
 </g>
</svg>
