<?xml version="1.0" encoding="UTF-8" standalone="yes"?>
<svg version="1.1" width="64" height="64" color-interpolation="linearRGB"
     xmlns:svg="http://www.w3.org/2000/svg" xmlns="http://www.w3.org/2000/svg">
 <g>
  <path style="fill:none; stroke:#000000; stroke-opacity:0.4; stroke-width:2; stroke-linecap:round; stroke-linejoin:round"
        d="M4 18C6 4 22 4 30 14C40 24 10 32 26 40"
        transform="matrix(1.3863,0,0,1.409,3.7726,3.8191)"
  />
  <path style="fill:none; stroke:#005900; stroke-width:2; stroke-linecap:round; stroke-linejoin:round"
        d="M4 18C6 4 22 4 30 14C40 24 10 32 26 40"
        transform="matrix(1.3863,0,0,1.409,1,1.0009)"
  />
  <path style="fill:none; stroke:#ffd400; stroke-width:2; stroke-linecap:round; stroke-linejoin:round"
        d="M22 4L30 14L40 24
           M4 18L6 4
           M10 32L26 40"
        transform="matrix(1.3863,0,0,1.409,1,1.0009)"
  />
  <path style="fill:none; stroke:#d90000; stroke-width:2"
        d="M2 16V22H8V16H2z"
        transform="matrix(1.3863,0,0,1.409,-0.3863,-0.4081)"
  />
  <path style="fill:none; stroke:#d90000; stroke-width:2"
        d="M2 16V22H8V16H2z"
        transform="matrix(1.3863,0,0,1.409,35.6585,-6.0443)"
  />
  <path style="fill:none; stroke:#d90000; stroke-width:2"
        d="M2 16V22H8V16H2z"
        transform="matrix(1.3863,0,0,1.409,30.1132,30.5914)"
  />
  <path style="fill:none; stroke:#d90000; stroke-width:2"
        d="M7 16C5.34 16 4 17.34 4 19C4 20.65 5.34 22 7 22C8.65 22 10 20.65 10 19C10 17.34 8.65 16 7 16z"
        transform="matrix(1.3863,0,0,1.409,-0.3863,-20.135)"
  />
  <path style="fill:none; stroke:#d90000; stroke-width:2"
        d="M7 16C5.34 16 4 17.34 4 19C4 20.65 5.34 22 7 22C8.65 22 10 20.65 10 19C10 17.34 8.65 16 7 16z"
        transform="matrix(1.3863,0,0,1.409,21.7951,-20.135)"
  />
  <path style="fill:none; stroke:#d90000; stroke-width:2"
        d="M7 16C5.34 16 4 17.34 4 19C4 20.65 5.34 22 7 22C8.65 22 10 20.65 10 19C10 17.34 8.65 16 7 16z"
        transform="matrix(1.3863,0,0,1.409,46.7493,8.0463)"
  />
  <path style="fill:none; stroke:#d90000; stroke-width:2"
        d="M7 16C5.34 16 4 17.34 4 19C4 20.65 5.34 22 7 22C8.65 22 10 20.65 10 19C10 17.34 8.65 16 7 16z"
        transform="matrix(1.3863,0,0,1.409,5.159,19.3188)"
  />
 </g>
</svg>
