<?xml version="1.0" encoding="UTF-8" standalone="yes"?>
<svg version="1.1" width="64" height="64" color-interpolation="linearRGB"
     xmlns:svg="http://www.w3.org/2000/svg" xmlns="http://www.w3.org/2000/svg">
 <g>
  <path style="fill:#ea03ff"
        d="M35.86 14.56C34.89 13.59 32.29 12.29 32.29 12.29C32.29 12.29 33.59 14.88 34.56 15.85C35.54 16.83 42.02 22.01 42.02 22.01C42.02 22.01 36.83 15.53 35.86 14.56z"
        transform="matrix(1.4766,0,0,1.4759,0.9675,1.011)"
  />
  <path style="fill:#ea03ff"
        d="M26.13 7.43C27.1 8.4 29.7 9.7 29.7 9.7C29.7 9.7 28.4 7.11 27.43 6.14C26.45 5.16 19.97 -0.01 19.97 -0.01C19.97 -0.01 25.16 6.46 26.13 7.43z"
        transform="matrix(1.4766,0,0,1.4759,0.9675,1.011)"
  />
  <path style="fill:#ea03ff"
        d="M34.56 6.13C33.59 7.1 32.29 9.7 32.29 9.7C32.29 9.7 34.88 8.4 35.85 7.43C36.83 6.45 42.01 -0.02 42.01 -0.02C42.01 -0.02 35.53 5.16 34.56 6.13z"
        transform="matrix(1.4766,0,0,1.4759,0.9675,1.011)"
  />
  <path style="fill:#ea03ff"
        d="M30 7C30 8 31 10 31 10C31 10 32 8 32 7C32 6 31 0 31 0C31 0 30 6 30 7z"
        transform="matrix(1.4766,0,0,1.4759,0.9675,1.011)"
  />
  <path style="fill:#ea03ff"
        d="M32 15C32 14 31 12 31 12C31 12 30 14 30 15C30 16 31 22 31 22C31 22 32 16 32 15z"
        transform="matrix(1.4766,0,0,1.4759,0.9675,1.011)"
  />
  <path style="fill:#ea03ff"
        d="M35 10C34 10 32 11 32 11C32 11 34 12 35 12C36 12 42 11 42 11C42 11 36 10 35 10z"
        transform="matrix(1.4766,0,0,1.4759,0.9675,1.011)"
  />
  <path style="fill:#ea03ff"
        d="M27 12C28 12 30 11 30 11C30 11 28 10 27 10C26 10 20 11 20 11C20 11 26 12 27 12z"
        transform="matrix(1.4766,0,0,1.4759,0.9675,1.011)"
  />
  <path style="fill:#000000; fill-opacity:0.4"
        d="M4 37L9 42L32 19L27 14L4 37z"
        transform="matrix(1.4766,0,0,1.4759,0.9675,1.011)"
  />
  <path style="fill:none; stroke:#000000; stroke-width:4; stroke-linejoin:round"
        d="M2 35L7 40L30 17L25 12L2 35z"
        transform="matrix(1.4766,0,0,1.4759,0.9675,1.011)"
  />
  <linearGradient id="gradient0" gradientUnits="userSpaceOnUse" x1="85" y1="-50.75" x2="91.5" y2="-44.25">
   <stop offset="0" stop-color="#010101"/>
   <stop offset="0.4841" stop-color="#999999"/>
   <stop offset="1" stop-color="#010101"/>
  </linearGradient>
  <path style="fill:url(#gradient0)"
        d="M2 35L7 40L23 24L18 19L2 35z"
        transform="matrix(1.4766,0,0,1.4759,0.9675,1.011)"
  />
  <linearGradient id="gradient1" gradientUnits="userSpaceOnUse" x1="85" y1="-50.75" x2="91.5" y2="-44.25">
   <stop offset="0" stop-color="#ffaa00"/>
   <stop offset="0.4893" stop-color="#ffffbf"/>
   <stop offset="1" stop-color="#ffaa00"/>
  </linearGradient>
  <path style="fill:url(#gradient1)"
        d="M18 19L23 24L30 17L25 12L18 19z"
        transform="matrix(1.4766,0,0,1.4759,0.9675,1.011)"
  />
 </g>
</svg>
