<?xml version="1.0" encoding="UTF-8" standalone="yes"?>
<svg version="1.1" width="64" height="64" color-interpolation="linearRGB"
     xmlns:svg="http://www.w3.org/2000/svg" xmlns="http://www.w3.org/2000/svg">
 <g>
  <path style="fill:#000000"
        d="M32 3.99C8.34 3.99 4.03 53.53 32 53.53C59.96 53.53 55.65 3.99 32 3.99z"
        transform="matrix(0.8681,0,0,0.8451,4.2197,4.6191)"
  />
  <path style="fill:none; stroke:#000000; stroke-width:9.2783; stroke-linecap:round"
        d="M6.18 33.72H57.81
           M51.35 13.9L14.79 51.05
           M12.64 13.9L49.2 51.05"
        transform="matrix(0.8681,0,0,0.8451,4.2197,4.6191)"
  />
  <linearGradient id="gradient0" gradientUnits="userSpaceOnUse" x1="192.34" y1="-137.97" x2="219.66" y2="-93.41">
   <stop offset="0" stop-color="#ffdcdc"/>
   <stop offset="1" stop-color="#e80606"/>
  </linearGradient>
  <path style="fill:url(#gradient0)"
        d="M29.84 26.29L16.94 23.81C16.94 23.81 16.94 38.67 21.24 43.62C25.54 48.58 29.84 48.58 29.84 48.58V26.29z
           M34.15 26.29V48.58C34.15 48.58 38.45 48.58 42.75 43.62C47.05 38.67 47.05 23.81 47.05 23.81L34.15 26.29z"
        transform="matrix(0.8681,0,0,0.8451,4.2197,4.6191)"
  />
  <linearGradient id="gradient1" gradientUnits="userSpaceOnUse" x1="83.62" y1="-32.9" x2="92.54" y2="-11.3">
   <stop offset="0" stop-color="#c6c6c6"/>
   <stop offset="1" stop-color="#4a4a4a"/>
  </linearGradient>
  <path style="fill:url(#gradient1)"
        d="M18.55 19.47C18.55 19.47 27.69 21.33 32 21.33C36.3 21.33 45.44 19.47 45.44 19.47C45.44 19.47 42.75 8.95 32 8.95C21.24 8.95 18.55 19.47 18.55 19.47z"
        transform="matrix(0.8681,0,0,0.8451,4.2197,4.6191)"
  />
  <path style="fill:#000000"
        d="M23.39 26.29C19.09 26.29 19.09 36.19 23.39 36.19C29.84 36.19 29.84 26.29 23.39 26.29z
           M40.6 31.24C34.15 31.24 34.15 41.15 40.6 41.15C44.9 41.15 44.9 31.24 40.6 31.24z"
        transform="matrix(0.8681,0,0,0.8451,4.2197,4.6191)"
  />
 </g>
</svg>
