<?xml version="1.0" encoding="UTF-8" standalone="yes"?>
<svg version="1.1" width="64" height="64" color-interpolation="linearRGB"
     xmlns:svg="http://www.w3.org/2000/svg" xmlns="http://www.w3.org/2000/svg">
 <g>
  <path style="fill:none; stroke:#000000; stroke-opacity:0.4; stroke-width:5.636; stroke-linecap:round; stroke-linejoin:round"
        d="M26.36 22.13V8.04H9.45L8.04 44.67C8.04 44.67 19.72 43.67 20.72 44.67C22.13 46.08 28.67 57.36 27.77 57.36C26.05 57.36 58.41 58.76 60.17 58.76C61.23 58.76 26.36 22.13 26.36 22.13z"
        transform="matrix(0.8871,0,0,0.8844,4.1128,4.1155)"
  />
  <path style="fill:none; stroke:#005900; stroke-width:5.636; stroke-linecap:round; stroke-linejoin:round"
        d="M23.54 19.31V5.22H6.63L5.22 41.86C5.22 41.86 16.9 40.86 17.9 41.86C19.31 43.27 25.85 54.54 24.95 54.54C23.23 54.54 55.59 55.95 57.36 55.95C58.41 55.95 23.54 19.31 23.54 19.31z"
        transform="matrix(0.8871,0,0,0.8844,4.1128,4.1155)"
  />
  <linearGradient id="gradient0" gradientUnits="userSpaceOnUse" x1="181.35" y1="26.36" x2="181.35" y2="57.36">
   <stop offset="0" stop-color="#80ff80"/>
   <stop offset="1" stop-color="#00b200"/>
  </linearGradient>
  <path style="fill:url(#gradient0)"
        d="M23.54 19.31V5.22H6.63L5.22 41.86C5.22 41.86 16.9 40.86 17.9 41.86C19.31 43.27 25.85 54.54 24.95 54.54C23.23 54.54 55.59 55.95 57.36 55.95C58.41 55.95 23.54 19.31 23.54 19.31z"
        transform="matrix(0.8871,0,0,0.8844,4.1128,4.1155)"
  />
  <path style="fill:#000000; fill-opacity:0.4"
        d=""
        transform="matrix(0.8871,0,0,0.8844,4.1128,4.1155)"
  />
 </g>
</svg>
