<?xml version="1.0" encoding="UTF-8" standalone="yes"?>
<svg version="1.1" width="64" height="64" color-interpolation="linearRGB"
     xmlns:svg="http://www.w3.org/2000/svg" xmlns="http://www.w3.org/2000/svg">
 <g>
  <path style="fill:#000000; fill-opacity:0.4823"
        d="M14.21 10.86C13.9 10.93 13.65 11.19 13.55 11.55L6.15 37.72C6.05 38.06 6.09 38.45 6.26 38.74C6.4 39.02 6.67 39.18 6.96 39.18H12.14C12.52 39.18 12.85 38.86 12.94 38.43L13.81 35.15H21.15L22.02 38.43C22.12 38.86 22.45 39.18 22.81 39.18H28.01C28.29 39.18 28.55 39.02 28.71 38.74C28.87 38.45 28.9 38.06 28.8 37.72L21.3 11.55C21.18 11.14 20.86 10.85 20.51 10.86H14.35C14.31 10.85 14.26 10.85 14.21 10.86z
           M30.06 10.86C29.67 10.94 29.4 11.4 29.42 11.93L29.37 38.11C29.37 38.7 29.77 39.18 30.22 39.18H34.95C35.41 39.18 35.81 38.7 35.81 38.11V37.72C36.25 38.11 36.54 38.47 36.91 38.74C37.84 39.36 38.9 39.68 40.04 39.68C42.09 39.68 43.84 38.49 45.13 36.34C46.41 34.2 47.09 31.48 47.09 28.27C47.09 25.04 46.43 22.28 45.13 20.13C43.84 17.97 42.09 16.79 40.04 16.79C38.9 16.79 37.84 17.09 36.91 17.73C36.54 18 36.24 18.36 35.81 18.75L35.86 11.93C35.86 11.34 35.47 10.86 35 10.86H30.22C30.18 10.85 30.12 10.85 30.06 10.86z
           M56.31 16.79C53.52 16.79 51.16 17.82 49.5 19.87C47.83 21.93 47.09 24.8 47.09 28.27C47.09 31.72 47.84 34.59 49.5 36.65C51.18 38.7 53.52 39.68 56.31 39.68C57.09 39.68 57.9 39.63 58.72 39.43C59.54 39.24 60.31 38.95 61.09 38.54C61.41 38.38 61.65 37.99 61.65 37.54V32.37C61.65 31.95 61.43 31.6 61.15 31.42C60.86 31.25 60.52 31.28 60.29 31.54C59.79 32.06 59.27 32.44 58.72 32.69C58.18 32.93 57.56 33.06 56.91 33.06C55.79 33.06 54.95 32.59 54.38 31.79C53.83 31 53.59 29.94 53.59 28.27C53.59 26.6 53.9 25.37 54.43 24.62C55 23.82 55.77 23.46 56.91 23.46C57.5 23.46 58.08 23.61 58.63 23.85C58.65 23.85 58.66 23.85 58.68 23.85C59.25 24.11 59.77 24.46 60.34 24.98C60.59 25.22 60.91 25.23 61.2 25.05C61.47 24.86 61.65 24.52 61.65 24.11V19C61.65 18.54 61.41 18.14 61.09 17.98C60.31 17.61 59.52 17.29 58.72 17.1C57.95 16.89 57.13 16.79 56.31 16.79z
           M17.47 21.27L18.98 26.94H15.97L17.47 21.27z
           M38.38 22.96C39.18 22.96 39.61 23.28 40 24.04C40.36 24.79 40.65 26.19 40.65 28.07C40.65 29.96 40.38 31.21 40 32C39.61 32.76 39.18 33.06 38.38 33.06C37.58 33.06 36.79 32.61 36.47 32C36.06 31.17 35.81 29.93 35.81 28.07C35.81 26.22 36.06 24.9 36.47 24.11C36.79 23.45 37.59 22.96 38.38 22.96z"
        transform="matrix(0.9202,0,0,0.9785,2.1058,1.1684)"
  />
  <path style="fill:#000000"
        d="M12.21 7.86C11.9 7.92 11.65 8.19 11.55 8.55L4.15 34.72C4.05 35.06 4.09 35.45 4.26 35.74C4.4 36.02 4.67 36.18 4.96 36.18H10.14C10.52 36.18 10.85 35.86 10.94 35.43L11.81 32.15H19.15L20.02 35.43C20.12 35.86 20.45 36.18 20.81 36.18H26.01C26.29 36.18 26.55 36.02 26.71 35.74C26.87 35.45 26.9 35.06 26.8 34.72L19.3 8.55C19.18 8.14 18.86 7.84 18.51 7.86H12.35C12.31 7.84 12.26 7.84 12.21 7.86z
           M28.06 7.86C27.67 7.94 27.4 8.4 27.42 8.93L27.37 35.11C27.37 35.7 27.77 36.18 28.22 36.18H32.95C33.41 36.18 33.81 35.7 33.81 35.11V34.72C34.25 35.11 34.54 35.47 34.91 35.74C35.84 36.36 36.9 36.68 38.04 36.68C40.09 36.68 41.84 35.49 43.13 33.34C44.41 31.2 45.09 28.48 45.09 25.27C45.09 22.04 44.43 19.28 43.13 17.13C41.84 14.97 40.09 13.78 38.04 13.78C36.9 13.78 35.84 14.09 34.91 14.73C34.54 15 34.24 15.35 33.81 15.75L33.86 8.93C33.86 8.34 33.47 7.86 33 7.86H28.22C28.18 7.84 28.12 7.84 28.06 7.86z
           M54.31 13.78C51.52 13.78 49.16 14.82 47.5 16.87C45.83 18.93 45.09 21.8 45.09 25.27C45.09 28.72 45.84 31.6 47.5 33.65C49.18 35.7 51.52 36.68 54.31 36.68C55.09 36.68 55.9 36.63 56.72 36.43C57.54 36.24 58.31 35.95 59.09 35.54C59.41 35.38 59.65 34.99 59.65 34.54V29.37C59.65 28.95 59.43 28.6 59.15 28.42C58.86 28.25 58.52 28.28 58.29 28.54C57.79 29.06 57.27 29.44 56.72 29.69C56.18 29.93 55.56 30.06 54.91 30.06C53.79 30.06 52.95 29.6 52.38 28.79C51.83 28 51.59 26.94 51.59 25.27C51.59 23.6 51.9 22.37 52.43 21.62C53 20.82 53.77 20.46 54.91 20.46C55.5 20.46 56.08 20.61 56.63 20.85C56.65 20.85 56.66 20.85 56.68 20.85C57.25 21.11 57.77 21.46 58.34 21.98C58.59 22.22 58.91 22.23 59.2 22.05C59.47 21.86 59.65 21.52 59.65 21.11V16C59.65 15.55 59.41 15.14 59.09 14.98C58.31 14.6 57.52 14.3 56.72 14.1C55.95 13.89 55.13 13.78 54.31 13.78z
           M15.47 18.27L16.98 23.94H13.97L15.47 18.27z
           M36.38 19.96C37.18 19.96 37.61 20.28 38 21.04C38.36 21.79 38.65 23.19 38.65 25.07C38.65 26.96 38.38 28.21 38 29C37.61 29.76 37.18 30.06 36.38 30.06C35.58 30.06 34.79 29.61 34.47 29C34.06 28.17 33.81 26.93 33.81 25.07C33.81 23.22 34.06 21.9 34.47 21.11C34.79 20.45 35.59 19.96 36.38 19.96z"
        transform="matrix(0.9202,0,0,0.9785,2.1058,1.1684)"
  />
  <path style="fill:none; stroke:#000000; stroke-opacity:0.4823; stroke-width:4.4575; stroke-linecap:square"
        d="M5.99 51.02L11.48 44.63L16.96 51.02L22.45 44.63L27.94 51.02L33.43 44.63L38.92 51.02L44.41 44.63L49.89 51.02L55.38 44.63L60.87 51.02"
        transform="matrix(0.9202,0,0,0.9785,2.1058,1.1684)"
  />
  <path style="fill:none; stroke:#ff0000; stroke-width:3.91; stroke-linecap:square"
        d="M4.08 48.02L9.57 41.63L15.06 48.02L20.54 41.63L26.03 48.02L31.52 41.63L37.01 48.02L42.5 41.63L47.99 48.02L53.47 41.63L58.96 48.02"
        transform="matrix(0.9202,0,0,0.9785,2.1058,1.1684)"
  />
 </g>
</svg>
