<?xml version="1.0" encoding="UTF-8" standalone="yes"?>
<svg version="1.1" width="64" height="64" color-interpolation="linearRGB"
     xmlns:svg="http://www.w3.org/2000/svg" xmlns="http://www.w3.org/2000/svg">
 <g>
  <path style="fill:#000000; fill-opacity:0.4823"
        d="M12.21 7.86C11.91 7.93 11.66 8.2 11.55 8.55L4.16 34.73C4.05 35.06 4.09 35.45 4.26 35.74C4.41 36.03 4.68 36.18 4.96 36.18H10.15C10.52 36.18 10.85 35.87 10.95 35.43L11.81 32.15H19.16L20.02 35.43C20.13 35.87 20.45 36.18 20.82 36.18H26.01C26.29 36.18 26.56 36.03 26.72 35.74C26.87 35.45 26.91 35.06 26.81 34.73L19.31 8.55C19.18 8.14 18.86 7.85 18.51 7.86H12.36C12.31 7.85 12.26 7.85 12.21 7.86z
           M28.07 7.86C27.67 7.95 27.41 8.41 27.42 8.93L27.37 35.11C27.37 35.7 27.77 36.18 28.23 36.18H32.96C33.42 36.18 33.82 35.7 33.82 35.11V34.73C34.25 35.12 34.55 35.48 34.92 35.74C35.84 36.36 36.9 36.68 38.05 36.68C40.09 36.68 41.84 35.49 43.13 33.34C44.42 31.2 45.1 28.49 45.1 25.27C45.1 22.05 44.43 19.28 43.13 17.14C41.84 14.97 40.09 13.79 38.05 13.79C36.91 13.79 35.85 14.09 34.92 14.74C34.55 15 34.24 15.36 33.82 15.75L33.86 8.93C33.86 8.34 33.47 7.86 33.01 7.86H28.23C28.18 7.85 28.12 7.85 28.07 7.86z
           M54.31 13.79C51.52 13.79 49.17 14.83 47.51 16.88C45.83 18.93 45.1 21.81 45.1 25.27C45.1 28.73 45.84 31.6 47.51 33.66C49.18 35.7 51.53 36.68 54.31 36.68C55.1 36.68 55.91 36.63 56.73 36.44C57.54 36.24 58.32 35.95 59.09 35.55C59.42 35.39 59.65 34.99 59.65 34.54V29.37C59.65 28.95 59.44 28.6 59.15 28.42C58.86 28.25 58.53 28.28 58.29 28.55C57.79 29.07 57.28 29.44 56.73 29.69C56.18 29.93 55.56 30.07 54.92 30.07C53.79 30.07 52.96 29.6 52.39 28.8C51.83 28 51.59 26.94 51.59 25.27C51.59 23.6 51.9 22.38 52.44 21.62C53 20.83 53.77 20.47 54.92 20.47C55.51 20.47 56.08 20.61 56.63 20.85C56.65 20.85 56.67 20.85 56.68 20.85C57.26 21.11 57.78 21.47 58.34 21.99C58.59 22.23 58.92 22.24 59.2 22.06C59.47 21.86 59.65 21.52 59.65 21.11V16C59.65 15.55 59.42 15.15 59.09 14.99C58.31 14.61 57.53 14.3 56.73 14.1C55.96 13.9 55.14 13.79 54.31 13.79z
           M15.48 18.27L16.99 23.94H13.98L15.48 18.27z
           M36.39 19.97C37.18 19.97 37.62 20.28 38 21.04C38.37 21.8 38.65 23.19 38.65 25.08C38.65 26.97 38.38 28.22 38 29C37.62 29.76 37.18 30.07 36.39 30.07C35.58 30.07 34.79 29.61 34.47 29C34.06 28.17 33.82 26.93 33.82 25.08C33.82 23.23 34.07 21.91 34.47 21.11C34.8 20.46 35.6 19.97 36.39 19.97z"
        transform="matrix(1,0,0,1,2,3)"
  />
  <path style="fill:#000000"
        d="M12.21 7.86C11.91 7.93 11.66 8.2 11.55 8.55L4.16 34.73C4.05 35.06 4.09 35.45 4.26 35.74C4.41 36.03 4.68 36.18 4.96 36.18H10.15C10.52 36.18 10.85 35.87 10.95 35.43L11.81 32.15H19.16L20.02 35.43C20.13 35.87 20.45 36.18 20.82 36.18H26.01C26.29 36.18 26.56 36.03 26.72 35.74C26.87 35.45 26.91 35.06 26.81 34.73L19.31 8.55C19.18 8.14 18.86 7.85 18.51 7.86H12.36C12.31 7.85 12.26 7.85 12.21 7.86z
           M28.07 7.86C27.67 7.95 27.41 8.41 27.42 8.93L27.37 35.11C27.37 35.7 27.77 36.18 28.23 36.18H32.96C33.42 36.18 33.82 35.7 33.82 35.11V34.73C34.25 35.12 34.55 35.48 34.92 35.74C35.84 36.36 36.9 36.68 38.05 36.68C40.09 36.68 41.84 35.49 43.13 33.34C44.42 31.2 45.1 28.49 45.1 25.27C45.1 22.05 44.43 19.28 43.13 17.14C41.84 14.97 40.09 13.79 38.05 13.79C36.91 13.79 35.85 14.09 34.92 14.74C34.55 15 34.24 15.36 33.82 15.75L33.86 8.93C33.86 8.34 33.47 7.86 33.01 7.86H28.23C28.18 7.85 28.12 7.85 28.07 7.86z
           M54.31 13.79C51.52 13.79 49.17 14.83 47.51 16.88C45.83 18.93 45.1 21.81 45.1 25.27C45.1 28.73 45.84 31.6 47.51 33.66C49.18 35.7 51.53 36.68 54.31 36.68C55.1 36.68 55.91 36.63 56.73 36.44C57.54 36.24 58.32 35.95 59.09 35.55C59.42 35.39 59.65 34.99 59.65 34.54V29.37C59.65 28.95 59.44 28.6 59.15 28.42C58.86 28.25 58.53 28.28 58.29 28.55C57.79 29.07 57.28 29.44 56.73 29.69C56.18 29.93 55.56 30.07 54.92 30.07C53.79 30.07 52.96 29.6 52.39 28.8C51.83 28 51.59 26.94 51.59 25.27C51.59 23.6 51.9 22.38 52.44 21.62C53 20.83 53.77 20.47 54.92 20.47C55.51 20.47 56.08 20.61 56.63 20.85C56.65 20.85 56.67 20.85 56.68 20.85C57.26 21.11 57.78 21.47 58.34 21.99C58.59 22.23 58.92 22.24 59.2 22.06C59.47 21.86 59.65 21.52 59.65 21.11V16C59.65 15.55 59.42 15.15 59.09 14.99C58.31 14.61 57.53 14.3 56.73 14.1C55.96 13.9 55.14 13.79 54.31 13.79z
           M15.48 18.27L16.99 23.94H13.98L15.48 18.27z
           M36.39 19.97C37.18 19.97 37.62 20.28 38 21.04C38.37 21.8 38.65 23.19 38.65 25.08C38.65 26.97 38.38 28.22 38 29C37.62 29.76 37.18 30.07 36.39 30.07C35.58 30.07 34.79 29.61 34.47 29C34.06 28.17 33.82 26.93 33.82 25.08C33.82 23.23 34.07 21.91 34.47 21.11C34.8 20.46 35.6 19.97 36.39 19.97z"
  />
  <path style="fill:none; stroke:#000000; stroke-opacity:0.4823; stroke-width:4.5601; stroke-linecap:square"
        d="M3.23 48.03L8.98 41.64L14.73 48.03L20.48 41.64L26.23 48.03L31.98 41.64L37.73 48.03L43.48 41.64L49.23 48.03L54.98 41.64L60.73 48.03"
        transform="matrix(0.9545,0,0,1,2.9098,3)"
  />
  <path style="fill:none; stroke:#ff0000; stroke-width:4; stroke-linecap:square"
        d="M3.23 48.03L8.98 41.64L14.73 48.03L20.48 41.64L26.23 48.03L31.98 41.64L37.73 48.03L43.48 41.64L49.23 48.03L54.98 41.64L60.73 48.03"
        transform="matrix(0.9545,0,0,1,1.0008,0)"
  />
 </g>
</svg>
