<?xml version="1.0" encoding="UTF-8" standalone="yes"?>
<svg version="1.1" width="64" height="64" color-interpolation="linearRGB"
     xmlns:svg="http://www.w3.org/2000/svg" xmlns="http://www.w3.org/2000/svg">
 <g>
  <path style="fill:none; stroke:#000000; stroke-opacity:0.4; stroke-width:5.9557; stroke-linecap:round; stroke-linejoin:round"
        d="M17.86 32.61C28.66 32.61 39.47 32.61 50.27 32.61C50.27 30.6 50.27 28.6 50.27 26.59C53.23 29.1 56.18 31.6 59.12 34.11C56.18 36.62 53.23 39.12 50.27 41.63C50.27 39.64 50.27 37.62 50.27 35.61C39.47 35.61 28.66 35.61 17.86 35.61C17.86 37.62 17.86 39.64 17.86 41.63C14.92 39.12 11.97 36.62 9.02 34.11C11.97 31.6 14.92 29.1 17.86 26.59C17.86 28.6 17.86 30.6 17.86 32.61V32.61V32.61V32.61V32.61V32.61V32.61z"
  />
  <path style="fill:none; stroke:#004080; stroke-width:5.9557; stroke-linecap:round; stroke-linejoin:round"
        d="M15.79 30.47C26.59 30.47 37.4 30.47 48.2 30.47C48.2 28.46 48.2 26.45 48.2 24.45C51.15 26.96 54.11 29.46 57.05 31.97C54.11 34.48 51.15 36.98 48.2 39.49C48.2 37.49 48.2 35.47 48.2 33.47C37.4 33.47 26.59 33.47 15.79 33.47C15.79 35.47 15.79 37.49 15.79 39.49C12.85 36.98 9.9 34.48 6.94 31.97C9.9 29.46 12.85 26.96 15.79 24.45C15.79 26.45 15.79 28.46 15.79 30.47V30.47V30.47V30.47V30.47V30.47V30.47z"
  />
  <linearGradient id="gradient0" gradientUnits="userSpaceOnUse" x1="167.85" y1="27.35" x2="167.85" y2="66.46">
   <stop offset="0" stop-color="#abd5ff"/>
   <stop offset="1" stop-color="#006cd9"/>
  </linearGradient>
  <path style="fill:url(#gradient0)"
        d="M15.79 30.47C26.59 30.47 37.4 30.47 48.2 30.47C48.2 28.46 48.2 26.45 48.2 24.45C51.15 26.96 54.11 29.46 57.05 31.97C54.11 34.48 51.15 36.98 48.2 39.49C48.2 37.49 48.2 35.47 48.2 33.47C37.4 33.47 26.59 33.47 15.79 33.47C15.79 35.47 15.79 37.49 15.79 39.49C12.85 36.98 9.9 34.48 6.94 31.97C9.9 29.46 12.85 26.96 15.79 24.45C15.79 26.45 15.79 28.46 15.79 30.47V30.47V30.47V30.47V30.47V30.47V30.47z"
  />
 </g>
</svg>
