<?xml version="1.0" encoding="UTF-8" standalone="yes"?>
<svg version="1.1" width="64" height="64" color-interpolation="linearRGB"
     xmlns:svg="http://www.w3.org/2000/svg" xmlns="http://www.w3.org/2000/svg">
 <g>
  <linearGradient id="gradient0" gradientUnits="userSpaceOnUse" x1="121.07" y1="82.13" x2="180.05" y2="82.13">
   <stop offset="0" stop-color="#fad4a1"/>
   <stop offset="1" stop-color="#e6b481"/>
  </linearGradient>
  <path style="fill:url(#gradient0)"
        d="M14.39 4.8V52.79V62.4H24H72V52.79H24V4.8H14.39z"
        transform="matrix(0.7869,0,0,0.7869,1.6818,1.6818)"
  />
  <path style="fill:none; stroke:#a1550a; stroke-opacity:0.498; stroke-width:3.1999"
        d="M14.39 4.8V52.79V62.4H24H72V52.79H24V4.8H14.39z"
        transform="matrix(0.7869,0,0,0.7869,1.6818,1.6818)"
  />
  <path style="fill:none; stroke:#ffffff; stroke-opacity:0.498; stroke-width:3.2; stroke-linejoin:round"
        d="M70.4 56H22.39"
        transform="matrix(0.7869,0,0,0.7869,1.6818,1.6818)"
  />
  <linearGradient id="gradient1" gradientUnits="userSpaceOnUse" x1="77.27" y1="102.12" x2="80.28" y2="102.12">
   <stop offset="0" stop-color="#ffffff"/>
   <stop offset="0.0196" stop-color="#ffffff" stop-opacity="0.2352"/>
   <stop offset="0.9914" stop-color="#ffffff" stop-opacity="0.1568"/>
   <stop offset="1" stop-color="#ffffff" stop-opacity="0.3921"/>
  </linearGradient>
  <path style="fill:none; stroke:url(#gradient1); stroke-width:3.2"
        d="M22.39 8H17.6V60.79"
        transform="matrix(0.7869,0,0,0.7869,1.6818,1.6818)"
  />
  <linearGradient id="gradient2" gradientUnits="userSpaceOnUse" x1="152.17" y1="191.11" x2="93.19" y2="191.11">
   <stop offset="0" stop-color="#fad4a1"/>
   <stop offset="1" stop-color="#e6b481"/>
  </linearGradient>
  <path style="fill:url(#gradient2)"
        d="M12.8 14.39H4.8V24H12.8
           M25.6 24H52.79V72H62.4V24V14.39H25.6"
        transform="matrix(0.7869,0,0,0.7869,1.6818,1.6818)"
  />
  <path style="fill:none; stroke:#a1550a; stroke-opacity:0.498; stroke-width:3.1999"
        d="M12.8 14.39H4.8V24H12.8
           M25.6 24H52.79V72H62.4V24V14.39H52.79H25.6"
        transform="matrix(0.7869,0,0,0.7869,1.6818,1.6818)"
  />
  <path style="fill:#a1550a; fill-opacity:0.298"
        d="M19.2 12.8V16H25.6V12.8H19.2z
           M19.2 19.2V22.39H25.6V25.6H28.79V19.2H25.6H19.2z
           M25.6 25.6H19.2V28.79H25.6V25.6z
           M32 19.2V25.6H35.2V19.2H32z
           M38.4 19.2V25.6H41.59V19.2H38.4z
           M44.79 19.2V25.6H48V19.2H44.79z
           M51.2 28.79V32H57.59V28.79H51.2z
           M19.2 32V35.2H25.6V32H19.2z
           M51.2 35.2V38.4H57.59V35.2H51.2z
           M19.2 38.4V41.59H25.6V38.4H19.2z
           M51.2 41.59V44.79H57.59V41.59H51.2z
           M19.2 44.79V48H25.6V44.79H19.2z
           M57.59 51.2V48H51.2V51.2
           M48 51.2V57.59H57.59V54.4H51.2V51.2H48z
           M28.79 51.2V57.59H32V51.2H28.79z
           M35.2 51.2V57.59H38.4V51.2H35.2z
           M41.59 51.2V57.59H44.79V51.2H41.59z
           M51.2 60.79V64H57.59V60.79H51.2z"
        transform="matrix(0.7869,0,0,0.7869,1.6818,1.6818)"
  />
  <linearGradient id="gradient3" gradientUnits="userSpaceOnUse" x1="100.45" y1="141.14" x2="126.04" y2="141.14">
   <stop offset="0" stop-color="#ffffff"/>
   <stop offset="0.0196" stop-color="#ffffff" stop-opacity="0.2352"/>
   <stop offset="0.9914" stop-color="#ffffff" stop-opacity="0.1568"/>
   <stop offset="1" stop-color="#ffffff" stop-opacity="0.3921"/>
  </linearGradient>
  <path style="fill:none; stroke:url(#gradient3); stroke-width:3.2; stroke-linejoin:round"
        d="M6.4 17.6H12.8
           M25.6 17.6H60.79
           M56.11 70.4L56 22.39"
        transform="matrix(0.7869,0,0,0.7869,1.6818,1.6818)"
  />
  <path style="fill:none; stroke:#004080; stroke-width:3.1294; stroke-linecap:round; stroke-linejoin:round"
        d="M31.47 37.47H45.5V34.24L49.33 38.28L45.5 42.32V39.09H31.47V42.32L27.64 38.28L31.47 34.24V37.47z
           M39.12 32.62V43.94H41.67L38.49 48.79L35.3 43.94H37.85V32.62H35.3L38.49 27.77L41.67 32.62H39.12z"
        transform="matrix(0.7869,0,0,0.7869,1.6818,1.6818)"
  />
  <linearGradient id="gradient4" gradientUnits="userSpaceOnUse" x1="138.89" y1="137.34" x2="161.09" y2="137.34">
   <stop offset="0" stop-color="#abd5ff"/>
   <stop offset="1" stop-color="#006cd9"/>
  </linearGradient>
  <path style="fill:url(#gradient4)"
        d="M31.44 37.43H45.47V34.2L49.3 38.24L45.47 42.28V39.05H31.44V42.28L27.61 38.24L31.44 34.2V37.43z
           M39.09 32.58V43.9H41.64L38.45 48.74L35.27 43.9H37.82V32.58H35.27L38.45 27.73L41.64 32.58H39.09z"
        transform="matrix(0.7869,0,0,0.7869,1.6818,1.6818)"
  />
 </g>
</svg>
