<?xml version="1.0" encoding="UTF-8" standalone="yes"?>
<svg version="1.1" width="64" height="64" color-interpolation="linearRGB"
     xmlns:svg="http://www.w3.org/2000/svg" xmlns="http://www.w3.org/2000/svg">
 <g>
  <path style="fill:none; stroke:#000000; stroke-opacity:0.4; stroke-width:5.9557; stroke-linecap:round; stroke-linejoin:round"
        d="M35.47 50.59C37.43 50.59 39.39 50.59 41.37 50.59C38.9 53.59 36.44 56.59 33.99 59.61C31.54 56.59 29.08 53.59 26.63 50.59C28.59 50.59 30.55 50.59 32.52 50.59C32.52 43.56 32.52 24.5 32.52 17.5C30.55 17.5 28.59 17.5 26.63 17.5C29.08 14.48 31.54 11.48 33.99 8.47C36.44 11.48 38.9 14.48 41.37 17.5C39.39 17.5 37.43 17.5 35.47 17.5C35.47 17.5 35.47 43.56 35.47 50.59V50.59V50.59V50.59V50.59z"
  />
  <path style="fill:none; stroke:#004080; stroke-width:5.9557; stroke-linecap:round; stroke-linejoin:round"
        d="M33.39 48.44C35.36 48.44 37.32 48.44 39.3 48.44C36.83 51.45 34.37 54.45 31.92 57.46C29.47 54.45 27 51.45 24.56 48.44C26.52 48.44 28.47 48.44 30.45 48.44C30.45 41.42 30.45 22.36 30.45 15.35C28.47 15.35 26.52 15.35 24.56 15.35C27 12.34 29.47 9.33 31.92 6.32C34.37 9.33 36.83 12.34 39.3 15.35C37.32 15.35 35.36 15.35 33.39 15.35C33.39 15.35 33.39 41.42 33.39 48.44V48.44V48.44V48.44V48.44z"
  />
  <linearGradient id="gradient0" gradientUnits="userSpaceOnUse" x1="167.85" y1="27.35" x2="167.85" y2="66.46">
   <stop offset="0" stop-color="#abd5ff"/>
   <stop offset="1" stop-color="#006cd9"/>
  </linearGradient>
  <path style="fill:url(#gradient0)"
        d="M33.39 48.44C35.36 48.44 37.32 48.44 39.3 48.44C36.83 51.45 34.37 54.45 31.92 57.46C29.47 54.45 27 51.45 24.56 48.44C26.52 48.44 28.47 48.44 30.45 48.44C30.45 41.42 30.45 22.36 30.45 15.35C28.47 15.35 26.52 15.35 24.56 15.35C27 12.34 29.47 9.33 31.92 6.32C34.37 9.33 36.83 12.34 39.3 15.35C37.32 15.35 35.36 15.35 33.39 15.35C33.39 15.35 33.39 41.42 33.39 48.44V48.44V48.44V48.44V48.44z"
  />
 </g>
</svg>
