<?xml version="1.0" encoding="UTF-8" standalone="yes"?>
<svg version="1.1" width="64" height="64" color-interpolation="linearRGB"
     xmlns:svg="http://www.w3.org/2000/svg" xmlns="http://www.w3.org/2000/svg">
 <g>
  <path style="fill:none; stroke:#000000; stroke-opacity:0.4; stroke-width:4; stroke-linecap:round; stroke-linejoin:round"
        d="M40 2V18H24L29 13C24 6 11 3 2 10C9 2 24.38 -1.62 35 7L40 2z"
        transform="matrix(1.409,0,0,1.4093,3.8181,3.8129)"
  />
  <path style="fill:none; stroke:#800000; stroke-width:4; stroke-linecap:round; stroke-linejoin:round"
        d="M40 2V18H24L29 13C24 6 11 3 2 10C9 2 24.38 -1.62 35 7L40 2z"
        transform="matrix(1.409,0,0,1.4093,1,0.9942)"
  />
  <linearGradient id="gradient0" gradientUnits="userSpaceOnUse" x1="-24.74" y1="91.77" x2="-36.7" y2="81.15">
   <stop offset="0" stop-color="#ffabab"/>
   <stop offset="1" stop-color="#d90000"/>
  </linearGradient>
  <path style="fill:url(#gradient0)"
        d="M40 2V18H24L29 13C24 6 11 3 2 10C9 2 24.38 -1.62 35 7L40 2z"
        transform="matrix(1.409,0,0,1.4093,1,0.9942)"
  />
  <path style="fill:none; stroke:#000000; stroke-opacity:0.4; stroke-width:4; stroke-linecap:round; stroke-linejoin:round"
        d="M40 2V18H24L29 13C24 6 11 3 2 10C9 2 24.38 -1.62 35 7L40 2z"
        transform="matrix(-1.409,0,-0,-1.4093,63,63.0057)"
  />
  <path style="fill:none; stroke:#800000; stroke-width:4; stroke-linecap:round; stroke-linejoin:round"
        d="M40 2V18H24L29 13C24 6 11 3 2 10C9 2 24.38 -1.62 35 7L40 2z"
        transform="matrix(-1.409,0,-0,-1.4093,60.1818,60.187)"
  />
  <linearGradient id="gradient1" gradientUnits="userSpaceOnUse" x1="75.36" y1="-40.31" x2="84.74" y2="-31.06">
   <stop offset="1" stop-color="#ffabab"/>
   <stop offset="0" stop-color="#d90000"/>
  </linearGradient>
  <path style="fill:url(#gradient1)"
        d="M40 2V18H24L29 13C24 6 11 3 2 10C9 2 24.38 -1.62 35 7L40 2z"
        transform="matrix(-1.409,0,-0,-1.4093,60.1818,60.187)"
  />
 </g>
</svg>
