<?xml version="1.0" encoding="UTF-8" standalone="yes"?>
<svg version="1.1" width="64" height="64" color-interpolation="linearRGB"
     xmlns:svg="http://www.w3.org/2000/svg" xmlns="http://www.w3.org/2000/svg">
 <g>
  <linearGradient id="gradient0" gradientUnits="userSpaceOnUse" x1="167.43" y1="7.42" x2="167.43" y2="54.09">
   <stop offset="0" stop-color="#ffff80"/>
   <stop offset="1" stop-color="#ffd500"/>
  </linearGradient>
  <path style="fill:url(#gradient0)"
        d="M13 5.44C13 18.04 13 30.63 13 43.22C13 45.74 13 48.25 13 50.77C15.51 50.77 18.03 50.77 20.55 50.77C33.15 50.77 45.74 50.77 58.33 50.77C58.33 48.25 58.33 45.74 58.33 43.22C45.74 43.22 33.15 43.22 20.55 43.22C20.55 30.63 20.55 18.04 20.55 5.44C18.03 5.44 15.51 5.44 13 5.44V5.44V5.44z"
  />
  <path style="fill:none; stroke:#bf5000; stroke-width:2.5179"
        d="M13 5.44C13 18.04 13 30.63 13 43.22C13 45.74 13 48.25 13 50.77C15.51 50.77 18.03 50.77 20.55 50.77C33.15 50.77 45.74 50.77 58.33 50.77C58.33 48.25 58.33 45.74 58.33 43.22C45.74 43.22 33.15 43.22 20.55 43.22C20.55 30.63 20.55 18.04 20.55 5.44C18.03 5.44 15.51 5.44 13 5.44V5.44V5.44z"
  />
  <path style="fill:none; stroke:#ffffff; stroke-opacity:0.4941; stroke-width:2.5179; stroke-linejoin:round"
        d="M57.06 45.74C44.47 45.74 31.88 45.74 19.29 45.74"
  />
  <linearGradient id="gradient1" gradientUnits="userSpaceOnUse" x1="62.47" y1="82.04" x2="64.84" y2="82.04">
   <stop offset="0" stop-color="#ffffff"/>
   <stop offset="0.0196" stop-color="#ffffff" stop-opacity="0.2313"/>
   <stop offset="0.9914" stop-color="#ffffff" stop-opacity="0.1529"/>
   <stop offset="1" stop-color="#ffffff" stop-opacity="0.3882"/>
  </linearGradient>
  <path style="fill:none; stroke:url(#gradient1); stroke-width:2.5179"
        d="M19.29 7.96C18.04 7.96 16.78 7.96 15.52 7.96C15.52 21.81 15.52 35.66 15.52 49.5"
  />
  <linearGradient id="gradient2" gradientUnits="userSpaceOnUse" x1="167.43" y1="7.42" x2="167.43" y2="54.09">
   <stop offset="0" stop-color="#ffff80"/>
   <stop offset="1" stop-color="#ffd500"/>
  </linearGradient>
  <path style="fill:url(#gradient2)"
        d="M21.81 20.55C28.95 20.55 36.08 20.55 43.22 20.55C43.22 33.15 43.22 45.74 43.22 58.33C45.74 58.33 48.25 58.33 50.77 58.33C50.77 45.74 50.77 33.15 50.77 20.55C50.77 18.03 50.77 15.51 50.77 13C41.12 13 31.47 13 21.81 13
           M11.75 13C9.64 13 7.55 13 5.44 13C5.44 15.51 5.44 18.03 5.44 20.55C7.55 20.55 9.64 20.55 11.75 20.55"
  />
  <path style="fill:none; stroke:#bf5000; stroke-width:2.5179"
        d="M21.81 20.55C28.95 20.55 36.08 20.55 43.22 20.55C43.22 33.15 43.22 45.74 43.22 58.33C45.74 58.33 48.25 58.33 50.77 58.33C50.77 45.74 50.77 33.15 50.77 20.55C50.77 18.03 50.77 15.51 50.77 13C48.25 13 45.74 13 43.22 13C36.08 13 28.95 13 21.81 13
           M11.75 13C9.64 13 7.55 13 5.44 13C5.44 15.51 5.44 18.03 5.44 20.55C7.55 20.55 9.64 20.55 11.75 20.55"
  />
  <path style="fill:#a15409; fill-opacity:0.2941"
        d="M41.97 49.5C41.97 50.35 41.97 51.19 41.97 52.04C43.64 52.04 45.31 52.04 46.99 52.04C46.99 51.19 46.99 50.35 46.99 49.5C45.31 49.5 43.64 49.5 41.97 49.5V49.5V49.5z
           M34.4 41.97C34.4 43.64 34.4 45.31 34.4 46.99C35.24 46.99 36.07 46.99 36.91 46.99C36.91 45.31 36.91 43.64 36.91 41.97C36.07 41.97 35.24 41.97 34.4 41.97V41.97V41.97z
           M29.37 41.97C29.37 43.64 29.37 45.31 29.37 46.99C30.21 46.99 31.05 46.99 31.88 46.99C31.88 45.31 31.88 43.64 31.88 41.97C31.05 41.97 30.21 41.97 29.37 41.97V41.97V41.97z
           M24.32 41.97C24.32 43.64 24.32 45.31 24.32 46.99C25.17 46.99 26.01 46.99 26.86 46.99C26.86 45.31 26.86 43.64 26.86 41.97C26.01 41.97 25.17 41.97 24.32 41.97V41.97V41.97z
           M39.45 41.97C39.45 43.64 39.45 45.31 39.45 46.99C41.96 46.99 44.47 46.99 46.99 46.99C46.99 46.15 46.99 45.31 46.99 44.47C45.31 44.47 43.64 44.47 41.97 44.47C41.97 43.64 41.97 42.8 41.97 41.97C41.13 41.97 40.29 41.97 39.45 41.97V41.97V41.97z
           M46.99 41.97C46.99 41.13 46.99 40.29 46.99 39.45C45.31 39.45 43.64 39.45 41.97 39.45C41.97 40.29 41.97 41.13 41.97 41.97
           M16.79 36.91C16.79 37.76 16.79 38.6 16.79 39.45C18.46 39.45 20.14 39.45 21.81 39.45C21.81 38.6 21.81 37.76 21.81 36.91C20.14 36.91 18.46 36.91 16.79 36.91V36.91V36.91z
           M41.97 34.4C41.97 35.24 41.97 36.07 41.97 36.91C43.64 36.91 45.31 36.91 46.99 36.91C46.99 36.07 46.99 35.24 46.99 34.4C45.31 34.4 43.64 34.4 41.97 34.4V34.4V34.4z
           M16.79 31.88C16.79 32.72 16.79 33.56 16.79 34.4C18.46 34.4 20.14 34.4 21.81 34.4C21.81 33.56 21.81 32.72 21.81 31.88C20.14 31.88 18.46 31.88 16.79 31.88V31.88V31.88z
           M41.97 29.37C41.97 30.21 41.97 31.05 41.97 31.88C43.64 31.88 45.31 31.88 46.99 31.88C46.99 31.05 46.99 30.21 46.99 29.37C45.31 29.37 43.64 29.37 41.97 29.37V29.37V29.37z
           M16.79 26.86C16.79 27.7 16.79 28.53 16.79 29.37C18.46 29.37 20.14 29.37 21.81 29.37C21.81 28.53 21.81 27.7 21.81 26.86C20.14 26.86 18.46 26.86 16.79 26.86V26.86V26.86z
           M41.97 24.32C41.97 25.17 41.97 26.01 41.97 26.86C43.64 26.86 45.31 26.86 46.99 26.86C46.99 26.01 46.99 25.17 46.99 24.32C45.31 24.32 43.64 24.32 41.97 24.32V24.32V24.32z
           M36.91 16.79C36.91 18.46 36.91 20.14 36.91 21.81C37.76 21.81 38.6 21.81 39.45 21.81C39.45 20.14 39.45 18.46 39.45 16.79C38.6 16.79 37.76 16.79 36.91 16.79V16.79V16.79z
           M31.88 16.79C31.88 18.46 31.88 20.14 31.88 21.81C32.72 21.81 33.56 21.81 34.4 21.81C34.4 20.14 34.4 18.46 34.4 16.79C33.56 16.79 32.72 16.79 31.88 16.79V16.79V16.79z
           M26.86 16.79C26.86 18.46 26.86 20.14 26.86 21.81C27.7 21.81 28.53 21.81 29.37 21.81C29.37 20.14 29.37 18.46 29.37 16.79C28.53 16.79 27.7 16.79 26.86 16.79V16.79V16.79z
           M21.81 21.81C20.14 21.81 18.46 21.81 16.79 21.81C16.79 22.65 16.79 23.49 16.79 24.32C18.46 24.32 20.14 24.32 21.81 24.32C21.81 23.49 21.81 22.65 21.81 21.81V21.81V21.81z
           M16.79 16.79C16.79 17.62 16.79 18.46 16.79 19.29C18.46 19.29 20.14 19.29 21.81 19.29C21.81 20.13 21.81 20.97 21.81 21.81C22.65 21.81 23.49 21.81 24.32 21.81C24.32 20.14 24.32 18.46 24.32 16.79C23.49 16.79 22.65 16.79 21.81 16.79C20.14 16.79 18.46 16.79 16.79 16.79V16.79V16.79z
           M16.79 11.75C16.79 12.59 16.79 13.43 16.79 14.27C18.46 14.27 20.14 14.27 21.81 14.27C21.81 13.43 21.81 12.59 21.81 11.75C20.14 11.75 18.46 11.75 16.79 11.75V11.75V11.75z"
  />
  <linearGradient id="gradient3" gradientUnits="userSpaceOnUse" x1="80.72" y1="112.73" x2="100.86" y2="112.73">
   <stop offset="0" stop-color="#ffffff"/>
   <stop offset="0.0196" stop-color="#ffffff" stop-opacity="0.2313"/>
   <stop offset="0.9914" stop-color="#ffffff" stop-opacity="0.1529"/>
   <stop offset="1" stop-color="#ffffff" stop-opacity="0.3882"/>
  </linearGradient>
  <path style="fill:none; stroke:url(#gradient3); stroke-width:2.5179; stroke-linejoin:round"
        d="M45.83 57.06C45.8 44.47 45.77 31.88 45.74 19.29
           M21.81 15.52C31.04 15.52 40.27 15.52 49.5 15.52
           M6.71 15.52C8.39 15.52 10.06 15.52 11.75 15.52"
  />
 </g>
</svg>
