<?xml version="1.0" encoding="UTF-8" standalone="yes"?>
<svg version="1.1" width="64" height="64" color-interpolation="linearRGB"
     xmlns:svg="http://www.w3.org/2000/svg" xmlns="http://www.w3.org/2000/svg">
 <g>
  <path style="fill:none; stroke:#000000; stroke-opacity:0.4; stroke-width:5.6501; stroke-linecap:round; stroke-linejoin:round"
        d="M18.39 31.64C28.82 31.64 39.26 31.64 49.69 31.64C49.69 29.77 49.69 27.9 49.69 26.03C52.54 28.37 55.39 30.7 58.23 33.04C55.39 35.38 52.54 37.71 49.69 40.05C49.69 38.19 49.69 36.31 49.69 34.44C39.26 34.44 28.82 34.44 18.39 34.44C18.39 36.31 18.39 38.19 18.39 40.05C15.55 37.71 12.7 35.38 9.85 33.04C12.7 30.7 15.55 28.37 18.39 26.03C18.39 27.9 18.39 29.77 18.39 31.64V31.64V31.64V31.64V31.64z
           M35.39 48.4C37.29 48.4 39.18 48.4 41.09 48.4C38.71 51.2 36.33 54 33.97 56.81C31.6 54 29.22 51.2 26.86 48.4C28.75 48.4 30.64 48.4 32.55 48.4C32.55 41.85 32.55 24.08 32.55 17.55C30.64 17.55 28.75 17.55 26.86 17.55C29.22 14.74 31.6 11.94 33.97 9.13C36.33 11.94 38.71 14.74 41.09 17.55C39.18 17.55 37.29 17.55 35.39 17.55C35.39 17.55 35.39 41.85 35.39 48.4V48.4V48.4z"
        transform="matrix(1.0356,0,0,1.0726,-1.1796,-1.3217)"
  />
  <path style="fill:none; stroke:#004080; stroke-width:5.6501; stroke-linecap:round; stroke-linejoin:round"
        d="M16.39 29.64C26.82 29.64 37.26 29.64 47.69 29.64C47.69 27.77 47.69 25.9 47.69 24.03C50.54 26.37 53.39 28.7 56.23 31.04C53.39 33.38 50.54 35.71 47.69 38.05C47.69 36.19 47.69 34.31 47.69 32.44C37.26 32.44 26.82 32.44 16.39 32.44C16.39 34.31 16.39 36.19 16.39 38.05C13.55 35.71 10.7 33.38 7.85 31.04C10.7 28.7 13.55 26.37 16.39 24.03C16.39 25.9 16.39 27.77 16.39 29.64V29.64V29.64V29.64V29.64z
           M33.39 46.4C35.29 46.4 37.18 46.4 39.09 46.4C36.71 49.2 34.33 52 31.97 54.81C29.6 52 27.22 49.2 24.86 46.4C26.75 46.4 28.64 46.4 30.55 46.4C30.55 39.85 30.55 22.08 30.55 15.55C28.64 15.55 26.75 15.55 24.86 15.55C27.22 12.74 29.6 9.94 31.97 7.13C34.33 9.94 36.71 12.74 39.09 15.55C37.18 15.55 35.29 15.55 33.39 15.55C33.39 15.55 33.39 39.85 33.39 46.4V46.4V46.4z"
        transform="matrix(1.0356,0,0,1.0726,-1.1796,-1.3217)"
  />
  <linearGradient id="gradient0" gradientUnits="userSpaceOnUse" x1="163.22" y1="26.74" x2="163.22" y2="63.2">
   <stop offset="0" stop-color="#abd5ff"/>
   <stop offset="1" stop-color="#006cd9"/>
  </linearGradient>
  <path style="fill:url(#gradient0)"
        d="M16.39 29.64C26.82 29.64 37.26 29.64 47.69 29.64C47.69 27.77 47.69 25.9 47.69 24.03C50.54 26.37 53.39 28.7 56.23 31.04C53.39 33.38 50.54 35.71 47.69 38.05C47.69 36.19 47.69 34.31 47.69 32.44C37.26 32.44 26.82 32.44 16.39 32.44C16.39 34.31 16.39 36.19 16.39 38.05C13.55 35.71 10.7 33.38 7.85 31.04C10.7 28.7 13.55 26.37 16.39 24.03C16.39 25.9 16.39 27.77 16.39 29.64V29.64V29.64V29.64V29.64z
           M33.39 46.4C35.29 46.4 37.18 46.4 39.09 46.4C36.71 49.2 34.33 52 31.97 54.81C29.6 52 27.22 49.2 24.86 46.4C26.75 46.4 28.64 46.4 30.55 46.4C30.55 39.85 30.55 22.08 30.55 15.55C28.64 15.55 26.75 15.55 24.86 15.55C27.22 12.74 29.6 9.94 31.97 7.13C34.33 9.94 36.71 12.74 39.09 15.55C37.18 15.55 35.29 15.55 33.39 15.55C33.39 15.55 33.39 39.85 33.39 46.4V46.4V46.4z"
        transform="matrix(1.0356,0,0,1.0726,-1.1796,-1.3217)"
  />
 </g>
</svg>
