<?xml version="1.0" encoding="UTF-8" standalone="yes"?>
<svg version="1.1" width="64" height="64" color-interpolation="linearRGB"
     xmlns:svg="http://www.w3.org/2000/svg" xmlns="http://www.w3.org/2000/svg">
 <g>
  <linearGradient id="gradient0" gradientUnits="userSpaceOnUse" x1="96.95" y1="66.3" x2="143.36" y2="66.3">
   <stop offset="0" stop-color="#fad4a1"/>
   <stop offset="1" stop-color="#e6b481"/>
  </linearGradient>
  <path style="fill:url(#gradient0)"
        d="M13 5.45V43.22V50.78H20.56H58.33V43.22H20.56V5.45H13z"
  />
  <path style="fill:none; stroke:#a1550a; stroke-opacity:0.498; stroke-width:2.518"
        d="M13 5.45V43.22V50.78H20.56H58.33V43.22H20.56V5.45H13z"
  />
  <path style="fill:none; stroke:#ffffff; stroke-opacity:0.498; stroke-width:2.518; stroke-linejoin:round"
        d="M57.07 45.74H19.3"
  />
  <linearGradient id="gradient1" gradientUnits="userSpaceOnUse" x1="62.48" y1="82.04" x2="64.85" y2="82.04">
   <stop offset="0" stop-color="#ffffff"/>
   <stop offset="0.0196" stop-color="#ffffff" stop-opacity="0.2352"/>
   <stop offset="0.9914" stop-color="#ffffff" stop-opacity="0.1568"/>
   <stop offset="1" stop-color="#ffffff" stop-opacity="0.3921"/>
  </linearGradient>
  <path style="fill:none; stroke:url(#gradient1); stroke-width:2.518"
        d="M19.3 7.97H15.53V49.51"
  />
  <linearGradient id="gradient2" gradientUnits="userSpaceOnUse" x1="121.42" y1="152.06" x2="75.01" y2="152.06">
   <stop offset="0" stop-color="#fad4a1"/>
   <stop offset="1" stop-color="#e6b481"/>
  </linearGradient>
  <path style="fill:url(#gradient2)"
        d="M11.75 13H5.45V20.56H11.75
           M21.82 20.56H43.22V58.33H50.78V20.56V13H21.82"
  />
  <path style="fill:none; stroke:#a1550a; stroke-opacity:0.498; stroke-width:2.518"
        d="M11.75 13H5.45V20.56H11.75
           M21.82 20.56H43.22V58.33H50.78V20.56V13H43.22H21.82"
  />
  <path style="fill:#a1550a; fill-opacity:0.298"
        d="M16.79 11.75V14.27H21.82V11.75H16.79z
           M16.79 16.79V19.3H21.82V21.82H24.33V16.79H21.82H16.79z
           M21.82 21.82H16.79V24.33H21.82V21.82z
           M26.86 16.79V21.82H29.38V16.79H26.86z
           M31.89 16.79V21.82H34.4V16.79H31.89z
           M36.92 16.79V21.82H39.45V16.79H36.92z
           M41.97 24.33V26.86H46.99V24.33H41.97z
           M16.79 26.86V29.38H21.82V26.86H16.79z
           M41.97 29.38V31.89H46.99V29.38H41.97z
           M16.79 31.89V34.4H21.82V31.89H16.79z
           M41.97 34.4V36.92H46.99V34.4H41.97z
           M16.79 36.92V39.45H21.82V36.92H16.79z
           M46.99 41.97V39.45H41.97V41.97
           M39.45 41.97V46.99H46.99V44.48H41.97V41.97H39.45z
           M24.33 41.97V46.99H26.86V41.97H24.33z
           M29.38 41.97V46.99H31.89V41.97H29.38z
           M34.4 41.97V46.99H36.92V41.97H34.4z
           M41.97 49.51V52.04H46.99V49.51H41.97z"
  />
  <linearGradient id="gradient3" gradientUnits="userSpaceOnUse" x1="80.72" y1="112.74" x2="100.86" y2="112.74">
   <stop offset="0" stop-color="#ffffff"/>
   <stop offset="0.0196" stop-color="#ffffff" stop-opacity="0.2352"/>
   <stop offset="0.9914" stop-color="#ffffff" stop-opacity="0.1568"/>
   <stop offset="1" stop-color="#ffffff" stop-opacity="0.3921"/>
  </linearGradient>
  <path style="fill:none; stroke:url(#gradient3); stroke-width:2.518; stroke-linejoin:round"
        d="M6.71 15.53H11.75
           M21.82 15.53H49.51
           M45.83 57.07L45.74 19.3"
  />
 </g>
</svg>
