<?xml version="1.0" encoding="UTF-8" standalone="yes"?>
<svg version="1.1" width="64" height="64" color-interpolation="linearRGB"
     xmlns:svg="http://www.w3.org/2000/svg" xmlns="http://www.w3.org/2000/svg">
 <g>
  <path style="fill:none; stroke:#000000; stroke-opacity:0.4; stroke-width:4; stroke-linecap:round; stroke-linejoin:round"
        d="M36 42L40 12H6L10 42H36z
           M42 12V4H4V12H42z"
        transform="matrix(1.2727,0,0,1.2727,4,4)"
  />
  <path style="fill:none; stroke:#000000; stroke-width:4; stroke-linecap:round; stroke-linejoin:round"
        d="M40 10V2H2V10H40z"
        transform="matrix(1.2727,0,0,1.2727,4,4)"
  />
  <path style="fill:none; stroke:#08593e; stroke-width:4; stroke-linecap:round; stroke-linejoin:round"
        d="M34 40L38 10H4L8 40H34z"
        transform="matrix(1.2727,0,0,1.2727,4,4)"
  />
  <linearGradient id="gradient0" gradientUnits="userSpaceOnUse" x1="128" y1="2" x2="128" y2="8">
   <stop offset="0" stop-color="#808080"/>
   <stop offset="1" stop-color="#282828"/>
  </linearGradient>
  <path style="fill:url(#gradient0)"
        d="M40 10V2H2V10H40z"
        transform="matrix(1.2727,0,0,1.2727,4,4)"
  />
  <linearGradient id="gradient1" gradientUnits="userSpaceOnUse" x1="128" y1="10" x2="128" y2="40">
   <stop offset="0" stop-color="#73e5be"/>
   <stop offset="1" stop-color="#11b27b"/>
  </linearGradient>
  <path style="fill:url(#gradient1)"
        d="M34 40L38 10H4L8 40H34z"
        transform="matrix(1.2727,0,0,1.2727,4,4)"
  />
 </g>
</svg>
