<?xml version="1.0" encoding="UTF-8" standalone="yes"?>
<svg version="1.1" width="64" height="64" color-interpolation="linearRGB"
     xmlns:svg="http://www.w3.org/2000/svg" xmlns="http://www.w3.org/2000/svg">
 <g>
  <path style="fill:#000000; fill-opacity:0.4078"
        d="M6 6H15V36C15 36 14 50 32 50C50 50 49 36 49 36V6H58V36C58 36 58 58 32 58C6 58 6 36 6 36V6z"
        transform="matrix(1,0,0,1,4,4)"
  />
  <path style="fill:none; stroke:#003f80; stroke-width:4; stroke-linejoin:bevel"
        d="M6 6H15V36C15 36 14 50 32 50C50 50 49 36 49 36V6H58V36C58 36 58 58 32 58C6 58 6 36 6 36V6z"
  />
  <linearGradient id="gradient0" gradientUnits="userSpaceOnUse" x1="153.65" y1="11.15" x2="153.65" y2="49.75">
   <stop offset="0" stop-color="#abd5ff"/>
   <stop offset="1" stop-color="#006cd9"/>
  </linearGradient>
  <path style="fill:url(#gradient0)"
        d="M6 6H15V36C15 36 14 50 32 50C50 50 49 36 49 36V6H58V36C58 36 58 58 32 58C6 58 6 36 6 36V6z"
  />
 </g>
</svg>
