<?xml version="1.0" encoding="UTF-8" standalone="yes"?>
<svg version="1.1" width="64" height="64" color-interpolation="linearRGB"
     xmlns:svg="http://www.w3.org/2000/svg" xmlns="http://www.w3.org/2000/svg">
 <g>
  <path style="fill:none; stroke:#000000; stroke-opacity:0.4; stroke-width:3.5451; stroke-linecap:round; stroke-linejoin:round"
        d="M23.86 7.63C18.61 7.63 14.36 12.1 14.36 17.63C14.36 23.14 18.61 27.63 23.86 27.63C29.09 27.63 33.36 23.14 33.36 17.63C33.36 12.1 29.09 7.63 23.86 7.63V7.63V7.63z
           M29.9 29.45C25.87 29.45 21.84 29.45 17.81 29.45C12.08 29.45 7.45 35.13 7.45 42.17C18.39 42.17 29.33 42.17 40.27 42.17C40.27 35.13 35.61 29.45 29.9 29.45V29.45V29.45z"
  />
  <path style="fill:none; stroke:#000000; stroke-width:3.5451; stroke-linecap:round; stroke-linejoin:round"
        d="M22.13 5.81C16.88 5.81 12.63 10.29 12.63 15.81C12.63 21.32 16.88 25.81 22.13 25.81C27.36 25.81 31.63 21.32 31.63 15.81C31.63 10.29 27.36 5.81 22.13 5.81V5.81V5.81z
           M28.18 27.63C24.15 27.63 20.12 27.63 16.09 27.63C10.35 27.63 5.72 33.31 5.72 40.35C16.66 40.35 27.6 40.35 38.54 40.35C38.54 33.31 33.88 27.63 28.18 27.63V27.63V27.63z"
  />
  <linearGradient id="gradient0" gradientUnits="userSpaceOnUse" x1="68.54" y1="21.8" x2="68.54" y2="46.35">
   <stop offset="0" stop-color="#a5a5a5"/>
   <stop offset="1" stop-color="#404040"/>
  </linearGradient>
  <path style="fill:url(#gradient0)"
        d="M22.13 5.81C16.88 5.81 12.63 10.29 12.63 15.81C12.63 21.32 16.88 25.81 22.13 25.81C27.36 25.81 31.63 21.32 31.63 15.81C31.63 10.29 27.36 5.81 22.13 5.81V5.81V5.81z
           M28.18 27.63C24.15 27.63 20.12 27.63 16.09 27.63C10.35 27.63 5.72 33.31 5.72 40.35C16.66 40.35 27.6 40.35 38.54 40.35C38.54 33.31 33.88 27.63 28.18 27.63V27.63V27.63z"
  />
  <path style="fill:none; stroke:#000000; stroke-opacity:0.4; stroke-width:4.0908; stroke-linecap:round; stroke-linejoin:round"
        d="M39 18.18C32.91 18.18 28 23.32 28 29.68C28 36.01 32.91 41.18 39 41.18C45.05 41.18 50 36.01 50 29.68C50 23.32 45.05 18.18 39 18.18V18.18V18.18z
           M46 43.27C41.33 43.27 36.66 43.27 32 43.27C25.36 43.27 20 49.8 20 57.9C32.66 57.9 45.33 57.9 58 57.9C58 49.8 52.61 43.27 46 43.27V43.27V43.27z"
  />
  <path style="fill:none; stroke:#000000; stroke-width:4.0908; stroke-linecap:round; stroke-linejoin:round"
        d="M37 16.09C30.92 16.09 26 21.23 26 27.59C26 33.92 30.92 39.08 37 39.08C43.05 39.08 48 33.92 48 27.59C48 21.23 43.05 16.09 37 16.09V16.09V16.09z
           M44 41.18C39.33 41.18 34.66 41.18 30 41.18C23.36 41.18 18 47.71 18 55.81C30.66 55.81 43.33 55.81 56 55.81C56 47.71 50.61 41.18 44 41.18V41.18V41.18z"
  />
  <linearGradient id="gradient1" gradientUnits="userSpaceOnUse" x1="94" y1="32.08" x2="94" y2="59.81">
   <stop offset="0" stop-color="#ababab"/>
   <stop offset="1" stop-color="#363636"/>
  </linearGradient>
  <path style="fill:url(#gradient1)"
        d="M37 16.09C30.92 16.09 26 21.23 26 27.59C26 33.92 30.92 39.08 37 39.08C43.05 39.08 48 33.92 48 27.59C48 21.23 43.05 16.09 37 16.09V16.09V16.09z
           M44 41.18C39.33 41.18 34.66 41.18 30 41.18C23.36 41.18 18 47.71 18 55.81C30.66 55.81 43.33 55.81 56 55.81C56 47.71 50.61 41.18 44 41.18V41.18V41.18z"
  />
  <path style="fill:none; stroke:#1a171b; stroke-opacity:0.4; stroke-width:4"
        d="M23 16C19.12 16 16 19.12 16 23C16 26.86 19.12 30 23 30C26.86 30 30 26.86 30 23C30 19.12 26.86 16 23 16V16V16z
           M41.99 22.96C41.99 24.96 41.65 26.96 41.02 28.89C38.66 29.27 36.29 29.64 33.93 30.02C32.88 31.62 31.54 32.93 30.02 33.91C29.63 36.29 29.26 38.67 28.87 41.04C26.97 41.68 24.96 41.97 22.95 41.97C21.86 39.84 20.77 37.7 19.68 35.56C17.82 35.08 16.17 34.2 14.76 33.04C12.38 33.42 10 33.8 7.61 34.18C6.44 32.55 5.53 30.75 4.9 28.82C6.61 27.12 8.3 25.43 10.01 23.72C9.89 21.81 10.22 19.97 10.88 18.29C9.78 16.13 8.69 13.99 7.59 11.84C8.77 10.22 10.21 8.8 11.85 7.61C13.99 8.7 16.13 9.78 18.27 10.88C20.04 10.18 21.9 9.9 23.71 10.02C25.42 8.31 27.12 6.61 28.82 4.9C30.73 5.52 32.54 6.46 34.18 7.65C33.8 10.02 33.42 12.39 33.04 14.76C34.25 16.23 35.08 17.93 35.54 19.68C37.69 20.77 39.84 21.87 41.99 22.96V22.96V22.96z"
        transform="matrix(0.6747,0,0,0.6954,33.3143,33.4)"
  />
  <path style="fill:none; stroke:#545454; stroke-width:7"
        d="M39.99 20.96C39.99 22.96 39.65 24.96 39.02 26.89C36.66 27.27 34.29 27.64 31.93 28.02C30.88 29.62 29.54 30.93 28.02 31.92C27.63 34.29 27.26 36.67 26.87 39.04C24.97 39.68 22.96 39.97 20.95 39.97C19.86 37.84 18.77 35.7 17.68 33.56C15.82 33.08 14.17 32.2 12.76 31.04C10.38 31.42 8 31.8 5.61 32.18C4.44 30.55 3.53 28.75 2.91 26.82C4.61 25.12 6.3 23.43 8.01 21.72C7.9 19.81 8.22 17.97 8.88 16.29C7.78 14.14 6.69 11.99 5.59 9.84C6.76 8.22 8.21 6.8 9.85 5.61C11.99 6.7 14.13 7.78 16.27 8.88C18.04 8.18 19.9 7.9 21.71 8.02C23.42 6.31 25.12 4.61 26.82 2.91C28.73 3.52 30.54 4.46 32.18 5.65C31.8 8.02 31.42 10.39 31.04 12.76C32.25 14.23 33.08 15.93 33.54 17.68C35.69 18.77 37.84 19.87 39.99 20.96V20.96V20.96z
           M21 14C17.12 14 14 17.12 14 21C14 24.86 17.12 28 21 28C24.86 28 28 24.86 28 21C28 17.12 24.86 14 21 14V14V14z"
        transform="matrix(0.6747,0,0,0.6954,33.3143,32.2982)"
  />
  <linearGradient id="gradient2" gradientUnits="userSpaceOnUse" x1="128" y1="4" x2="128" y2="40">
   <stop offset="0" stop-color="#ffffff"/>
   <stop offset="1" stop-color="#e5e5e5"/>
  </linearGradient>
  <path style="fill:url(#gradient2)"
        d="M21 14C17.12 14 14 17.12 14 21C14 24.86 17.12 28 21 28C24.86 28 28 24.86 28 21C28 17.12 24.86 14 21 14V14V14z
           M39.99 20.96C39.99 22.96 39.65 24.96 39.02 26.89C36.66 27.27 34.29 27.64 31.93 28.02C30.88 29.62 29.54 30.93 28.02 31.92C27.63 34.29 27.26 36.67 26.87 39.04C24.97 39.68 22.96 39.97 20.95 39.97C19.86 37.84 18.77 35.7 17.68 33.56C15.82 33.08 14.17 32.2 12.76 31.04C10.38 31.42 8 31.8 5.61 32.18C4.44 30.55 3.53 28.75 2.91 26.82C4.61 25.12 6.3 23.43 8.01 21.72C7.9 19.81 8.22 17.97 8.88 16.29C7.78 14.14 6.69 11.99 5.59 9.84C6.76 8.22 8.21 6.8 9.85 5.61C11.99 6.7 14.13 7.78 16.27 8.88C18.04 8.18 19.9 7.9 21.71 8.02C23.42 6.31 25.12 4.61 26.82 2.91C28.73 3.52 30.54 4.46 32.18 5.65C31.8 8.02 31.42 10.39 31.04 12.76C32.25 14.23 33.08 15.93 33.54 17.68C35.69 18.77 37.84 19.87 39.99 20.96V20.96V20.96z"
        transform="matrix(0.6747,0,0,0.6954,33.3143,32.2982)"
  />
 </g>
</svg>
