<?xml version="1.0" encoding="UTF-8" standalone="yes"?>
<svg version="1.1" width="64" height="64" color-interpolation="linearRGB"
     xmlns:svg="http://www.w3.org/2000/svg" xmlns="http://www.w3.org/2000/svg">
 <g>
  <path style="fill:none; stroke:#000000; stroke-opacity:0.4; stroke-width:7.6045; stroke-linecap:round; stroke-linejoin:round"
        d="M7.88 9.25V58.85H59.54V9.25H7.88z"
        transform="matrix(0.8565,0,0,0.8695,5.0896,4.1738)"
  />
  <path style="fill:none; stroke:#545454; stroke-width:7.8663; stroke-linecap:round; stroke-linejoin:round"
        d="M4.55 5.26V56.58H57.98V5.26H4.55z"
        transform="matrix(0.8565,0,0,0.8695,5.0896,4.1738)"
  />
  <linearGradient id="gradient0" gradientUnits="userSpaceOnUse" x1="221.83" y1="5.24" x2="221.83" y2="56.58">
   <stop offset="0" stop-color="#ffffff"/>
   <stop offset="1" stop-color="#e5e5e5"/>
  </linearGradient>
  <path style="fill:url(#gradient0)"
        d="M4.55 5.26V56.58H57.98V5.26H4.55z"
        transform="matrix(0.8565,0,0,0.8695,5.0896,4.1738)"
  />
  <linearGradient id="gradient1" gradientUnits="userSpaceOnUse" x1="214.55" y1="20.09" x2="214.55" y2="40.88">
   <stop offset="0" stop-color="#ff8080"/>
   <stop offset="1" stop-color="#d90000"/>
  </linearGradient>
  <path style="fill:url(#gradient1)"
        d="M21.65 14.93C13.05 20.12 19.94 27.05 25.11 30.53C30.27 33.99 35.43 38.54 35.43 40.93C35.43 46.13 31.98 49.59 26.82 49.59C21.65 49.59 11.32 37.45 11.32 30.53C11.32 23.59 11.32 14.93 21.65 14.93z
           M26.82 20.12C21.65 25.32 31.98 32.25 37.15 27.05C42.33 21.86 31.98 14.93 26.82 20.12z
           M40.61 33.99C35.43 39.18 45.77 46.13 50.93 40.93C56.11 35.72 45.77 28.79 40.61 33.99z"
        transform="matrix(0.8565,0,0,0.8695,5.0896,4.1738)"
  />
 </g>
</svg>
