<?xml version="1.0" encoding="UTF-8" standalone="yes"?>
<svg version="1.1" width="64" height="64" color-interpolation="linearRGB"
     xmlns:svg="http://www.w3.org/2000/svg" xmlns="http://www.w3.org/2000/svg">
 <g>
  <path style="fill:none; stroke:#545454; stroke-width:4.8056; stroke-linecap:round; stroke-linejoin:round"
        d="M23.27 15.19C32.95 15.19 42.65 15.19 52.36 15.19C52.36 27.72 52.36 40.24 52.36 52.77C42.65 52.77 32.95 52.77 23.27 52.77C23.27 40.24 23.27 27.72 23.27 15.19V15.19V15.19V15.19V15.19V15.19z
           M8.72 12.52C8.72 26.82 8.72 41.13 8.72 55.45C24.22 55.45 39.75 55.45 55.27 55.45C55.27 41.13 55.27 26.82 55.27 12.52C39.75 12.52 24.22 12.52 8.72 12.52V12.52V12.52V12.52V12.52V12.52z"
  />
  <path style="fill:none; stroke:#bf5000; stroke-width:4.1048; stroke-linecap:round; stroke-linejoin:round"
        d="M8.47 12.18C8.47 9.97 8.47 7.78 8.47 5.59C13.47 5.59 18.47 5.59 23.5 5.59C23.5 7.78 23.5 9.97 23.5 12.18C18.47 12.18 13.47 12.18 8.47 12.18V12.18V12.18V12.18V12.18V12.18V12.18z"
  />
  <path style="fill:#ffd400"
        d="M8.47 13.64C8.47 11.14 8.47 8.61 8.47 6.11C13.47 6.11 18.47 6.11 23.5 6.11C23.5 8.61 23.5 11.14 23.5 13.64C18.47 13.64 13.47 13.64 8.47 13.64V13.64V13.64V13.64V13.64V13.64V13.64z"
  />
  <path style="fill:#ffffff"
        d="M23.27 15.19C32.95 15.19 42.65 15.19 52.36 15.19C52.36 27.72 52.36 40.24 52.36 52.77C42.65 52.77 32.95 52.77 23.27 52.77C23.27 40.24 23.27 27.72 23.27 15.19V15.19V15.19V15.19V15.19V15.19z
           M8.72 12.52C8.72 26.82 8.72 41.13 8.72 55.45C24.22 55.45 39.75 55.45 55.27 55.45C55.27 41.13 55.27 26.82 55.27 12.52C39.75 12.52 24.22 12.52 8.72 12.52V12.52V12.52V12.52V12.52V12.52z"
  />
  <path style="fill:none; stroke:#000000; stroke-opacity:0.4; stroke-width:4.9083; stroke-linecap:round; stroke-linejoin:round"
        d="M39.35 9.9C35.26 9.9 31.17 9.9 27.08 9.9C27.08 15.63 27.08 21.35 27.08 27.08C21.35 27.08 15.63 27.08 9.9 27.08C9.9 31.17 9.9 35.26 9.9 39.35C15.63 39.35 21.35 39.35 27.08 39.35C27.08 45.08 27.08 50.8 27.08 56.53C31.17 56.53 35.26 56.53 39.35 56.53C39.35 50.8 39.35 45.08 39.35 39.35C45.08 39.35 50.8 39.35 56.53 39.35C56.53 35.26 56.53 31.17 56.53 27.08C50.8 27.08 45.08 27.08 39.35 27.08C39.35 21.35 39.35 15.63 39.35 9.9V9.9V9.9z"
        transform="matrix(0.3713,0,0,0.3718,26.0833,22.0529)"
  />
  <path style="fill:none; stroke:#005900; stroke-width:8; stroke-linecap:round; stroke-linejoin:round"
        d="M36.9 7.44C32.81 7.44 28.72 7.44 24.62 7.44C24.62 13.17 24.62 18.9 24.62 24.62C18.9 24.62 13.17 24.62 7.44 24.62C7.44 28.72 7.44 32.81 7.44 36.9C13.17 36.9 18.9 36.9 24.62 36.9C24.62 42.62 24.62 48.35 24.62 54.08C28.72 54.08 32.81 54.08 36.9 54.08C36.9 48.35 36.9 42.62 36.9 36.9C42.62 36.9 48.35 36.9 54.08 36.9C54.08 32.81 54.08 28.72 54.08 24.62C48.35 24.62 42.62 24.62 36.9 24.62C36.9 18.9 36.9 13.17 36.9 7.44V7.44V7.44z"
        transform="matrix(0.3713,0,0,0.3718,26.0833,22.0529)"
  />
  <linearGradient id="gradient0" gradientUnits="userSpaceOnUse" x1="162.06" y1="7.43" x2="162.06" y2="54.08">
   <stop offset="0" stop-color="#80ff80"/>
   <stop offset="1" stop-color="#00b300"/>
  </linearGradient>
  <path style="fill:url(#gradient0)"
        d="M36.9 7.44C32.81 7.44 28.72 7.44 24.62 7.44C24.62 13.17 24.62 18.9 24.62 24.62C18.9 24.62 13.17 24.62 7.44 24.62C7.44 28.72 7.44 32.81 7.44 36.9C13.17 36.9 18.9 36.9 24.62 36.9C24.62 42.62 24.62 48.35 24.62 54.08C28.72 54.08 32.81 54.08 36.9 54.08C36.9 48.35 36.9 42.62 36.9 36.9C42.62 36.9 48.35 36.9 54.08 36.9C54.08 32.81 54.08 28.72 54.08 24.62C48.35 24.62 42.62 24.62 36.9 24.62C36.9 18.9 36.9 13.17 36.9 7.44V7.44V7.44z"
        transform="matrix(0.3713,0,0,0.3718,26.0833,22.0529)"
  />
 </g>
</svg>
