<?xml version="1.0" encoding="UTF-8" standalone="yes"?>
<svg version="1.1" width="64" height="64" color-interpolation="linearRGB"
     xmlns:svg="http://www.w3.org/2000/svg" xmlns="http://www.w3.org/2000/svg">
 <g>
  <path style="fill:none; stroke:#000000; stroke-opacity:0.4; stroke-width:2.6352; stroke-linecap:round; stroke-linejoin:round"
        d="M6 7C11.09 7 52.9 7 58 7C58 12.1 58 31.72 58 46C58 46.25 47.16 58 47 58C26 58 14 58 6 58C6 51.18 6 7 6 7z"
        transform="matrix(1,0,0,1,2,2)"
  />
  <path style="fill:none; stroke:#d99100; stroke-width:4.832; stroke-linecap:round; stroke-linejoin:round"
        d="M6 7C11.09 7 52.9 7 58 7C58 12.1 58 31.72 58 46C58 46.25 47.16 58 47 58C26 58 14 58 6 58C6 51.18 6 7 6 7z"
  />
  <linearGradient id="gradient0" gradientUnits="userSpaceOnUse" x1="103.5" y1="7.34" x2="103.5" y2="27.78">
   <stop offset="0" stop-color="#ffffff"/>
   <stop offset="1" stop-color="#ffffbf"/>
  </linearGradient>
  <path style="fill:url(#gradient0)"
        d="M6 7C11.09 7 52.9 7 58 7C58 12.1 58 31.72 58 46C58 46.25 47.16 58 47 58C26 58 14 58 6 58C6 51.18 6 7 6 7z"
  />
  <path style="fill:none; stroke:#d99100; stroke-width:3"
        d="M11 14H47"
        transform="matrix(1,0,0,1,0,5)"
  />
  <path style="fill:none; stroke:#d99100; stroke-width:3"
        d="M11 14H47"
        transform="matrix(0.5277,0,0,1,5.1944,13)"
  />
  <path style="fill:none; stroke:#d99100; stroke-width:3"
        d="M11 14H47"
        transform="matrix(0.7777,0,0,1,2.4444,21)"
  />
  <path style="fill:none; stroke:#d98e00; stroke-width:3; stroke-linecap:square; stroke-linejoin:round"
        d="M47 58V46H58"
  />
  <path style="fill:none; stroke:#800000; stroke-width:30"
        d="M30.76 7.44C17.88 7.44 7.44 17.88 7.44 30.76C7.44 43.62 17.88 54.08 30.76 54.08C43.62 54.08 54.08 43.62 54.08 30.76C54.08 17.88 43.62 7.44 30.76 7.44V7.44V7.44z"
        transform="matrix(0.1657,0,0,0.1657,26.1648,3.1648)"
  />
  <linearGradient id="gradient1" gradientUnits="userSpaceOnUse" x1="162.06" y1="7.43" x2="162.06" y2="54.08">
   <stop offset="0" stop-color="#ffabab"/>
   <stop offset="1" stop-color="#d90000"/>
  </linearGradient>
  <path style="fill:url(#gradient1)"
        d="M30.76 7.44C17.88 7.44 7.44 17.88 7.44 30.76C7.44 43.62 17.88 54.08 30.76 54.08C43.62 54.08 54.08 43.62 54.08 30.76C54.08 17.88 43.62 7.44 30.76 7.44V7.44V7.44z"
        transform="matrix(0.1657,0,0,0.1657,26.1648,3.1648)"
  />
 </g>
</svg>
