<?xml version="1.0" encoding="UTF-8" standalone="yes"?>
<svg version="1.1" width="64" height="64" color-interpolation="linearRGB"
     xmlns:svg="http://www.w3.org/2000/svg" xmlns="http://www.w3.org/2000/svg">
 <g>
  <path style="fill:none; stroke:#000000; stroke-opacity:0.4627; stroke-width:5; stroke-linecap:round; stroke-linejoin:round"
        d="M12 27.99C10.66 29.33 9.33 30.66 8 32C24 32 40 32 56 32C54.66 30.66 53.33 29.33 51.99 27.99C38.66 27.99 25.33 27.99 12 27.99V27.99z
           M19.99 8C18.66 13.33 17.33 18.66 15.99 23.99C26.66 23.99 37.33 23.99 48 23.99C46.66 18.66 45.33 13.33 44 8C39.99 9.33 35.99 10.66 31.99 12C27.99 10.66 23.99 9.33 19.99 8V8z"
        transform="matrix(1.0756,0,0,1,-0.4194,1)"
  />
  <path style="fill:none; stroke:#000000; stroke-width:5; stroke-linecap:round; stroke-linejoin:round"
        d="M12 27.99C10.66 29.33 9.33 30.66 8 32C24 32 40 32 56 32C54.66 30.66 53.33 29.33 51.99 27.99C38.66 27.99 25.33 27.99 12 27.99V27.99z
           M19.99 8C18.66 13.33 17.33 18.66 15.99 23.99C26.66 23.99 37.33 23.99 48 23.99C46.66 18.66 45.33 13.33 44 8C39.99 9.33 35.99 10.66 31.99 12C27.99 10.66 23.99 9.33 19.99 8V8z"
        transform="matrix(1.0756,0,0,1,-2.4194,-1)"
  />
  <linearGradient id="gradient0" gradientUnits="userSpaceOnUse" x1="41.95" y1="17.57" x2="41.95" y2="51">
   <stop offset="0" stop-color="#9a9a9a"/>
   <stop offset="0.4704" stop-color="#545454"/>
   <stop offset="0.4969" stop-color="#ababab"/>
   <stop offset="1" stop-color="#545454"/>
  </linearGradient>
  <path style="fill:url(#gradient0)"
        d="M12 27.99C10.66 29.33 9.33 30.66 8 32C24 32 40 32 56 32C54.66 30.66 53.33 29.33 51.99 27.99C38.66 27.99 25.33 27.99 12 27.99V27.99z
           M19.99 8C18.66 13.33 17.33 18.66 15.99 23.99C26.66 23.99 37.33 23.99 48 23.99C46.66 18.66 45.33 13.33 44 8C39.99 9.33 35.99 10.66 31.99 12C27.99 10.66 23.99 9.33 19.99 8V8z"
        transform="matrix(1.0756,0,0,1,-2.4194,-1)"
  />
  <path style="fill:none; stroke:#000000; stroke-width:4"
        d="M23.99 43.99C29.33 43.99 34.66 43.99 39.99 43.99C39.99 45.33 39.99 46.66 39.99 47.99C34.66 47.99 29.33 47.99 23.99 47.99C23.99 46.66 23.99 45.33 23.99 43.99V43.99z"
        transform="matrix(1,0,0,1,0,2)"
  />
  <path style="fill:none; stroke:#000000; stroke-width:4"
        d="M17.99 39.99C19.59 39.99 21.11 40.63 22.24 41.75C23.36 42.88 23.99 44.4 23.99 45.99C23.99 47.59 23.36 49.11 22.24 50.24C21.11 51.36 19.59 51.99 17.99 51.99C16.4 51.99 14.88 51.36 13.75 50.24C12.63 49.11 11.99 47.59 11.99 45.99C11.99 44.4 12.63 42.88 13.75 41.75C14.88 40.63 16.4 39.99 17.99 39.99V39.99V39.99z
           M17.99 35.99C15.34 35.99 12.8 37.05 10.92 38.92C9.05 40.8 8 43.34 8 45.99C8 48.65 9.05 51.19 10.92 53.07C12.8 54.94 15.34 55.99 17.99 55.99C20.65 55.99 23.19 54.94 25.07 53.07C26.94 51.19 27.99 48.65 27.99 45.99C27.99 43.34 26.94 40.8 25.07 38.92C23.19 37.05 20.65 35.99 17.99 35.99V35.99V35.99z"
        transform="matrix(1,0,0,1,0,2)"
  />
  <path style="fill:none; stroke:#000000; stroke-width:4"
        d="M45.99 39.99C47.59 39.99 49.11 40.63 50.24 41.75C51.36 42.88 51.99 44.4 51.99 45.99C51.99 47.59 51.36 49.11 50.24 50.24C49.11 51.36 47.59 51.99 45.99 51.99C44.4 51.99 42.88 51.36 41.75 50.24C40.63 49.11 39.99 47.59 39.99 45.99C39.99 44.4 40.63 42.88 41.75 41.75C42.88 40.63 44.4 39.99 45.99 39.99V39.99V39.99z
           M45.99 35.99C43.34 35.99 40.8 37.05 38.92 38.92C37.05 40.8 35.99 43.34 35.99 45.99C35.99 48.65 37.05 51.19 38.92 53.07C40.8 54.94 43.34 55.99 45.99 55.99C48.65 55.99 51.19 54.94 53.07 53.07C54.94 51.19 55.99 48.65 55.99 45.99C55.99 43.34 54.94 40.8 53.07 38.92C51.19 37.05 48.65 35.99 45.99 35.99V35.99V35.99z"
        transform="matrix(1,0,0,1,0,2)"
  />
  <path style="fill:none; stroke:#000000; stroke-opacity:0.4627; stroke-width:4"
        d="M23.99 43.99C29.33 43.99 34.66 43.99 39.99 43.99C39.99 45.33 39.99 46.66 39.99 47.99C34.66 47.99 29.33 47.99 23.99 47.99C23.99 46.66 23.99 45.33 23.99 43.99V43.99z"
        transform="matrix(1,0,0,1,2,4)"
  />
  <path style="fill:none; stroke:#000000; stroke-opacity:0.4627; stroke-width:4"
        d="M17.99 39.99C19.59 39.99 21.11 40.63 22.24 41.75C23.36 42.88 23.99 44.4 23.99 45.99C23.99 47.59 23.36 49.11 22.24 50.24C21.11 51.36 19.59 51.99 17.99 51.99C16.4 51.99 14.88 51.36 13.75 50.24C12.63 49.11 11.99 47.59 11.99 45.99C11.99 44.4 12.63 42.88 13.75 41.75C14.88 40.63 16.4 39.99 17.99 39.99V39.99V39.99z
           M17.99 35.99C15.34 35.99 12.8 37.05 10.92 38.92C9.05 40.8 8 43.34 8 45.99C8 48.65 9.05 51.19 10.92 53.07C12.8 54.94 15.34 55.99 17.99 55.99C20.65 55.99 23.19 54.94 25.07 53.07C26.94 51.19 27.99 48.65 27.99 45.99C27.99 43.34 26.94 40.8 25.07 38.92C23.19 37.05 20.65 35.99 17.99 35.99V35.99V35.99z"
        transform="matrix(1,0,0,1,2,4)"
  />
  <path style="fill:none; stroke:#000000; stroke-opacity:0.4627; stroke-width:4"
        d="M45.99 39.99C47.59 39.99 49.11 40.63 50.24 41.75C51.36 42.88 51.99 44.4 51.99 45.99C51.99 47.59 51.36 49.11 50.24 50.24C49.11 51.36 47.59 51.99 45.99 51.99C44.4 51.99 42.88 51.36 41.75 50.24C40.63 49.11 39.99 47.59 39.99 45.99C39.99 44.4 40.63 42.88 41.75 41.75C42.88 40.63 44.4 39.99 45.99 39.99V39.99V39.99z
           M45.99 35.99C43.34 35.99 40.8 37.05 38.92 38.92C37.05 40.8 35.99 43.34 35.99 45.99C35.99 48.65 37.05 51.19 38.92 53.07C40.8 54.94 43.34 55.99 45.99 55.99C48.65 55.99 51.19 54.94 53.07 53.07C54.94 51.19 55.99 48.65 55.99 45.99C55.99 43.34 54.94 40.8 53.07 38.92C51.19 37.05 48.65 35.99 45.99 35.99V35.99V35.99z"
        transform="matrix(1,0,0,1,2,4)"
  />
  <linearGradient id="gradient1" gradientUnits="userSpaceOnUse" x1="41.95" y1="17.57" x2="41.95" y2="51">
   <stop offset="0" stop-color="#9a9a9a"/>
   <stop offset="0.4704" stop-color="#545454"/>
   <stop offset="0.4969" stop-color="#ababab"/>
   <stop offset="1" stop-color="#545454"/>
  </linearGradient>
  <path style="fill:url(#gradient1)"
        d="M23.99 43.99C29.33 43.99 34.66 43.99 39.99 43.99C39.99 45.33 39.99 46.66 39.99 47.99C34.66 47.99 29.33 47.99 23.99 47.99C23.99 46.66 23.99 45.33 23.99 43.99V43.99z"
        transform="matrix(1,0,0,1,0,2)"
  />
  <linearGradient id="gradient2" gradientUnits="userSpaceOnUse" x1="41.95" y1="17.57" x2="41.95" y2="51">
   <stop offset="0" stop-color="#9a9a9a"/>
   <stop offset="0.4704" stop-color="#545454"/>
   <stop offset="0.4969" stop-color="#ababab"/>
   <stop offset="1" stop-color="#545454"/>
  </linearGradient>
  <path style="fill:url(#gradient2)"
        d="M17.99 39.99C19.59 39.99 21.11 40.63 22.24 41.75C23.36 42.88 23.99 44.4 23.99 45.99C23.99 47.59 23.36 49.11 22.24 50.24C21.11 51.36 19.59 51.99 17.99 51.99C16.4 51.99 14.88 51.36 13.75 50.24C12.63 49.11 11.99 47.59 11.99 45.99C11.99 44.4 12.63 42.88 13.75 41.75C14.88 40.63 16.4 39.99 17.99 39.99V39.99V39.99z
           M17.99 35.99C15.34 35.99 12.8 37.05 10.92 38.92C9.05 40.8 8 43.34 8 45.99C8 48.65 9.05 51.19 10.92 53.07C12.8 54.94 15.34 55.99 17.99 55.99C20.65 55.99 23.19 54.94 25.07 53.07C26.94 51.19 27.99 48.65 27.99 45.99C27.99 43.34 26.94 40.8 25.07 38.92C23.19 37.05 20.65 35.99 17.99 35.99V35.99V35.99z"
        transform="matrix(1,0,0,1,0,2)"
  />
  <linearGradient id="gradient3" gradientUnits="userSpaceOnUse" x1="41.95" y1="17.57" x2="41.95" y2="51">
   <stop offset="0" stop-color="#9a9a9a"/>
   <stop offset="0.4704" stop-color="#545454"/>
   <stop offset="0.4969" stop-color="#ababab"/>
   <stop offset="1" stop-color="#545454"/>
  </linearGradient>
  <path style="fill:url(#gradient3)"
        d="M45.99 39.99C47.59 39.99 49.11 40.63 50.24 41.75C51.36 42.88 51.99 44.4 51.99 45.99C51.99 47.59 51.36 49.11 50.24 50.24C49.11 51.36 47.59 51.99 45.99 51.99C44.4 51.99 42.88 51.36 41.75 50.24C40.63 49.11 39.99 47.59 39.99 45.99C39.99 44.4 40.63 42.88 41.75 41.75C42.88 40.63 44.4 39.99 45.99 39.99V39.99V39.99z
           M45.99 35.99C43.34 35.99 40.8 37.05 38.92 38.92C37.05 40.8 35.99 43.34 35.99 45.99C35.99 48.65 37.05 51.19 38.92 53.07C40.8 54.94 43.34 55.99 45.99 55.99C48.65 55.99 51.19 54.94 53.07 53.07C54.94 51.19 55.99 48.65 55.99 45.99C55.99 43.34 54.94 40.8 53.07 38.92C51.19 37.05 48.65 35.99 45.99 35.99V35.99V35.99z"
        transform="matrix(1,0,0,1,0,2)"
  />
 </g>
</svg>
