<?xml version="1.0" encoding="UTF-8" standalone="yes"?>
<svg version="1.1" width="64" height="64" color-interpolation="linearRGB"
     xmlns:svg="http://www.w3.org/2000/svg" xmlns="http://www.w3.org/2000/svg">
 <g>
  <path style="fill:#000000; fill-opacity:0.4"
        d="M34.64 11.47C20.66 11.47 9.32 21.24 9.32 33.36C9.32 45.42 20.66 55.26 34.64 55.26C48.62 55.26 59.99 45.42 59.99 33.36C59.99 21.24 48.62 11.47 34.64 11.47z
           M59.99 57.99C55.99 53.89 54.66 44.31 54.66 44.31L43.99 52.52C43.99 52.52 54.66 57.99 59.99 57.99z"
        transform="matrix(1,0,0,1,2,3)"
  />
  <path style="fill:none; stroke:#000000; stroke-width:5.4036; stroke-linecap:round; stroke-linejoin:round"
        d="M31.97 8.73C18 8.73 6.65 18.5 6.65 30.63C6.65 42.68 18 52.52 31.97 52.52C45.94 52.52 57.33 42.68 57.33 30.63C57.33 18.5 45.94 8.73 31.97 8.73z
           M57.33 55.26C53.33 51.15 51.99 41.57 51.99 41.57L41.33 49.78C41.33 49.78 51.99 55.26 57.33 55.26z"
  />
  <linearGradient id="gradient0" gradientUnits="userSpaceOnUse" x1="174.65" y1="8.72" x2="174.65" y2="60.73">
   <stop offset="0" stop-color="#ffffff"/>
   <stop offset="1" stop-color="#e5e5e5"/>
  </linearGradient>
  <path style="fill:url(#gradient0)"
        d="M31.97 8.73C18 8.73 6.65 18.5 6.65 30.63C6.65 42.68 18 52.52 31.97 52.52C45.94 52.52 57.33 42.68 57.33 30.63C57.33 18.5 45.94 8.73 31.97 8.73z
           M57.33 55.26C53.33 51.15 51.99 41.57 51.99 41.57L41.33 49.78C41.33 49.78 51.99 55.26 57.33 55.26z"
  />
  <linearGradient id="gradient1" gradientUnits="userSpaceOnUse" x1="174.65" y1="8.72" x2="174.65" y2="60.73">
   <stop offset="0" stop-color="#808080"/>
   <stop offset="1" stop-color="#282828"/>
  </linearGradient>
  <path style="fill:url(#gradient1)"
        d="M25.33 33.36C20.9 33.36 17.33 35.81 17.33 38.84C17.33 41.85 20.9 44.31 25.33 44.31C29.73 44.31 33.33 41.85 33.33 38.84C33.33 35.81 29.73 33.36 25.33 33.36z
           M30.66 14.21V38.84H33.33V25.15C33.33 25.15 46.66 23.78 41.33 33.36C57.33 16.94 30.66 14.21 30.66 14.21z"
  />
 </g>
</svg>
