<?xml version="1.0" encoding="UTF-8" standalone="yes"?>
<svg version="1.1" width="64" height="64" color-interpolation="linearRGB"
     xmlns:svg="http://www.w3.org/2000/svg" xmlns="http://www.w3.org/2000/svg">
 <g>
  <path style="fill:none; stroke:#545454; stroke-width:2.5687"
        d="M22.84 21.55V13.85L14.47 7.44L6.13 13.85V21.55H22.84z"
        transform="matrix(0.9212,0,0,0.9206,2.973,2.0642)"
  />
  <linearGradient id="gradient0" gradientUnits="userSpaceOnUse" x1="81.95" y1="7.44" x2="81.95" y2="21.55">
   <stop offset="0" stop-color="#ffffff"/>
   <stop offset="1" stop-color="#e5e5e5"/>
  </linearGradient>
  <path style="fill:url(#gradient0)"
        d="M22.84 21.55V13.85L14.47 7.44L6.13 13.85V21.55H22.84z"
        transform="matrix(0.9212,0,0,0.9206,2.973,2.0642)"
  />
  <path style="fill:none; stroke:#800000; stroke-width:3; stroke-linejoin:round"
        d="M26.69 15.14V11.28L14.47 2.3L2.26 11.28V15.14L14.47 6.15L26.69 15.14z"
        transform="matrix(0.9212,0,0,0.9206,2.973,2.0642)"
  />
  <linearGradient id="gradient1" gradientUnits="userSpaceOnUse" x1="83.25" y1="2.29" x2="83.25" y2="15.14">
   <stop offset="0" stop-color="#ffabab"/>
   <stop offset="1" stop-color="#d90000"/>
  </linearGradient>
  <path style="fill:url(#gradient1)"
        d="M26.69 15.14V11.28L14.47 2.3L2.26 11.28V15.14L14.47 6.15L26.69 15.14z"
        transform="matrix(0.9212,0,0,0.9206,2.973,2.0642)"
  />
  <path style="fill:none; stroke:#005900; stroke-width:2.5687; stroke-linejoin:round"
        d="M26.69 26.7V22.85H2.26V26.7H26.69z"
        transform="matrix(0.9212,0,0,0.9206,2.973,2.0642)"
  />
  <linearGradient id="gradient2" gradientUnits="userSpaceOnUse" x1="83.25" y1="22.85" x2="83.25" y2="26.7">
   <stop offset="0" stop-color="#80ff80"/>
   <stop offset="1" stop-color="#00b200"/>
  </linearGradient>
  <path style="fill:url(#gradient2)"
        d="M26.69 26.7V22.85H2.26V26.7H26.69z"
        transform="matrix(0.9212,0,0,0.9206,2.973,2.0642)"
  />
  <path style="fill:#806040"
        d="M8.69 13.85V21.55H12.56V13.85H8.69z"
        transform="matrix(0.9212,0,0,0.9206,2.973,2.0642)"
  />
  <path style="fill:#806040"
        d="M15.13 13.85V17.7H20.27V13.85H15.13z"
        transform="matrix(0.9212,0,0,0.9206,2.973,2.0642)"
  />
  <path style="fill:none; stroke:#000000; stroke-width:3"
        d="M2.11 40.18L6.57 52.79L19.48 61.52L27.51 38.72L22.15 37.75L20.37 38.72L12.36 36.79L11.47 39.22L7.9 38.25L7.86 42.22L2.11 40.18z"
        transform="matrix(0.9212,0,0,0.9206,2.973,2.0642)"
  />
  <linearGradient id="gradient3" gradientUnits="userSpaceOnUse" x1="46.47" y1="37.02" x2="46.54" y2="55.72">
   <stop offset="0" stop-color="#face79"/>
   <stop offset="1" stop-color="#bc4105"/>
  </linearGradient>
  <path style="fill:url(#gradient3)"
        d="M12.36 36.79L7.01 52.79L19.48 61.04L27.51 38.72L22.15 37.75L20.37 38.72L12.36 36.79z"
        transform="matrix(0.9212,0,0,0.9206,2.973,2.0642)"
  />
  <linearGradient id="gradient4" gradientUnits="userSpaceOnUse" x1="46.75" y1="39.06" x2="46.83" y2="59.75">
   <stop offset="0" stop-color="#ffffff"/>
   <stop offset="1" stop-color="#8e8e8e"/>
  </linearGradient>
  <path style="fill:url(#gradient4)"
        d="M7.9 38.25V52.79L19.48 60.54L22.61 43.58L7.9 38.25z"
        transform="matrix(0.9212,0,0,0.9206,2.973,2.0642)"
  />
  <linearGradient id="gradient5" gradientUnits="userSpaceOnUse" x1="35.66" y1="20" x2="45.97" y2="39.18">
   <stop offset="0" stop-color="#9a9a9a"/>
   <stop offset="1" stop-color="#505050"/>
  </linearGradient>
  <path style="fill:url(#gradient5)"
        d="M7.9 38.25L22.61 43.58L19.48 60.54L23.94 42.79L7.9 38.25z"
        transform="matrix(0.9212,0,0,0.9206,2.973,2.0642)"
  />
  <linearGradient id="gradient6" gradientUnits="userSpaceOnUse" x1="40.2" y1="37.56" x2="44.22" y2="57.77">
   <stop offset="0" stop-color="#ffe2ac"/>
   <stop offset="1" stop-color="#f49806"/>
  </linearGradient>
  <path style="fill:url(#gradient6)"
        d="M2.11 40.18L6.57 52.79L19.48 61.52L17.7 47.45L2.11 40.18z"
        transform="matrix(0.9212,0,0,0.9206,2.973,2.0642)"
  />
  <path style="fill:#a03d03"
        d="M2.11 40.18L17.7 47.45L19.48 61.52L18.81 46.49L2.11 40.18z"
        transform="matrix(0.9212,0,0,0.9206,2.973,2.0642)"
  />
  <path style="fill:none; stroke:#000000; stroke-width:3"
        d="M36.61 12.48V22.25L40.11 24.03L43.61 20.47L45.36 21.36V26.69L50.61 29.35L59.36 20.03V12.93"
        transform="matrix(0.9212,0,0,0.9206,2.973,2.0642)"
  />
  <linearGradient id="gradient7" gradientUnits="userSpaceOnUse" x1="56.56" y1="6.23" x2="64.58" y2="9.64">
   <stop offset="0.0074" stop-color="#663300"/>
   <stop offset="1" stop-color="#9b6632"/>
  </linearGradient>
  <path style="fill:url(#gradient7)"
        d="M50.61 29.35L59.36 20.03V12.48L50.61 20.03V29.35z"
        transform="matrix(0.9212,0,0,0.9206,2.973,2.0642)"
  />
  <linearGradient id="gradient8" gradientUnits="userSpaceOnUse" x1="32.77" y1="21.57" x2="33.56" y2="17.52">
   <stop offset="0" stop-color="#7c3f03"/>
   <stop offset="1" stop-color="#663300"/>
  </linearGradient>
  <path style="fill:url(#gradient8)"
        d="M40.11 18.7V24.03L43.61 20.47L40.11 18.7z"
        transform="matrix(0.9212,0,0,0.9206,2.973,2.0642)"
  />
  <linearGradient id="gradient9" gradientUnits="userSpaceOnUse" x1="61.33" y1="24.64" x2="60.68" y2="26.13">
   <stop offset="0" stop-color="#a8733f"/>
   <stop offset="1" stop-color="#d69e68"/>
  </linearGradient>
  <path style="fill:url(#gradient9)"
        d="M45.36 26.69L50.61 29.31V19.13L36.61 13.36V22.25L40.11 24.03V18.7L45.36 21.36V26.69z"
        transform="matrix(0.9212,0,0,0.9206,2.973,2.0642)"
  />
  <path style="fill:#986432"
        d="M40.11 19.59V18.7L36.61 16.93V17.8L40.11 19.59z
           M50.61 24.9V24.03L45.36 21.36V22.25L50.61 24.9z
           M40.72 19.07L40.11 18.7V15.14L40.72 15.53V19.07z
           M45.36 21.36L44.5 20.92V17.37L45.36 17.8V21.36z"
        transform="matrix(0.9212,0,0,0.9206,2.973,2.0642)"
  />
  <path style="fill:#603307"
        d="M37.5 19.05L39.25 19.95V20.94L37.5 20.04V19.05z"
        transform="matrix(0.9212,0,0,0.9206,2.973,2.0642)"
  />
  <path style="fill:#603307"
        d="M37.5 14.61L39.25 15.51V16.5L37.5 15.6V14.61z"
        transform="matrix(0.9212,0,0,0.9206,2.973,2.0642)"
  />
  <path style="fill:#603307"
        d="M41.86 17.29L43.61 18.17V19.15L41.86 18.28V17.29z"
        transform="matrix(0.9212,0,0,0.9206,2.973,2.0642)"
  />
  <path style="fill:#603307"
        d="M47.11 19.95L48.86 20.84V21.82L47.11 20.94V19.95z"
        transform="matrix(0.9212,0,0,0.9206,2.973,2.0642)"
  />
  <path style="fill:#603307"
        d="M47.11 24.38L48.86 25.27V26.26L47.11 25.37V24.38z"
        transform="matrix(0.9212,0,0,0.9206,2.973,2.0642)"
  />
  <linearGradient id="gradient10" gradientUnits="userSpaceOnUse" x1="32.25" y1="-7.03" x2="62" y2="-7.03">
   <stop offset="0" stop-color="#ffeddc"/>
   <stop offset="1" stop-color="#ffcb98"/>
  </linearGradient>
  <path style="fill:url(#gradient10)"
        d="M37.93 20.27L39.25 20.94V21.48L37.93 20.82V20.27z"
        transform="matrix(0.9212,0,0,0.9206,2.973,2.0642)"
  />
  <linearGradient id="gradient11" gradientUnits="userSpaceOnUse" x1="32.25" y1="-11.47" x2="62" y2="-11.47">
   <stop offset="0" stop-color="#ffeddc"/>
   <stop offset="1" stop-color="#ffcb98"/>
  </linearGradient>
  <path style="fill:url(#gradient11)"
        d="M37.93 15.82L39.25 16.5V17.05L37.93 16.38V15.82z"
        transform="matrix(0.9212,0,0,0.9206,2.973,2.0642)"
  />
  <linearGradient id="gradient12" gradientUnits="userSpaceOnUse" x1="36.61" y1="-8.8" x2="66.37" y2="-8.8">
   <stop offset="0" stop-color="#ffeddc"/>
   <stop offset="1" stop-color="#ffcb98"/>
  </linearGradient>
  <path style="fill:url(#gradient12)"
        d="M42.31 18.5L43.61 19.15V19.71L42.31 19.04V18.5z"
        transform="matrix(0.9212,0,0,0.9206,2.973,2.0642)"
  />
  <linearGradient id="gradient13" gradientUnits="userSpaceOnUse" x1="41.86" y1="-6.13" x2="71.62" y2="-6.13">
   <stop offset="0" stop-color="#ffeddc"/>
   <stop offset="1" stop-color="#ffcb98"/>
  </linearGradient>
  <path style="fill:url(#gradient13)"
        d="M47.56 21.15L48.86 21.82V22.37L47.56 21.7V21.15z"
        transform="matrix(0.9212,0,0,0.9206,2.973,2.0642)"
  />
  <linearGradient id="gradient14" gradientUnits="userSpaceOnUse" x1="41.86" y1="-1.7" x2="71.62" y2="-1.7">
   <stop offset="0" stop-color="#ffeddc"/>
   <stop offset="1" stop-color="#ffcb98"/>
  </linearGradient>
  <path style="fill:url(#gradient14)"
        d="M47.56 25.6L48.86 26.26V26.81L47.56 26.14V25.6z"
        transform="matrix(0.9212,0,0,0.9206,2.973,2.0642)"
  />
  <path style="fill:none; stroke:#000000; stroke-width:3"
        d="M34.86 10.71V12.03L51.5 19.59L61.11 12.03V10.71L44.5 5.38L34.86 10.71z"
        transform="matrix(0.9212,0,0,0.9206,2.973,2.0642)"
  />
  <linearGradient id="gradient15" gradientUnits="userSpaceOnUse" x1="32.25" y1="-7.03" x2="62" y2="-7.03">
   <stop offset="0" stop-color="#ffeddc"/>
   <stop offset="1" stop-color="#ffcb98"/>
  </linearGradient>
  <path style="fill:url(#gradient15)"
        d="M44.5 5.38L34.86 10.71L51.5 17.8L61.11 10.71L44.5 5.38z"
        transform="matrix(0.9212,0,0,0.9206,2.973,2.0642)"
  />
  <path style="fill:#cb9867"
        d="M34.86 10.71V12.03L51.5 19.59V17.8L34.86 10.71z"
        transform="matrix(0.9212,0,0,0.9206,2.973,2.0642)"
  />
  <linearGradient id="gradient16" gradientUnits="userSpaceOnUse" x1="56.13" y1="3.56" x2="64.13" y2="6.98">
   <stop offset="0" stop-color="#89511a"/>
   <stop offset="1" stop-color="#98622d"/>
  </linearGradient>
  <path style="fill:url(#gradient16)"
        d="M51.5 17.8V19.59L61.11 12.03V10.71L51.5 17.8z"
        transform="matrix(0.9212,0,0,0.9206,2.973,2.0642)"
  />
  <path style="fill:#cb9867"
        d="M50.61 8.93L45.36 12.93L40.56 11.15L45.81 13.81L50.61 8.93z"
        transform="matrix(0.9212,0,0,0.9206,2.973,2.0642)"
  />
  <path style="fill:#ffffff"
        d="M45.81 7.61L50.61 8.93L45.36 12.93L40.56 11.15L45.81 7.61z"
        transform="matrix(0.9212,0,0,0.9206,2.973,2.0642)"
  />
  <path style="fill:#000000"
        d="M46.25 10.71L44.93 11.15L46.25 11.81H49.93V10.71H46.25z"
        transform="matrix(0.9212,0,0,0.9206,2.973,2.0642)"
  />
  <linearGradient id="gradient17" gradientUnits="userSpaceOnUse" x1="32.77" y1="21.57" x2="33.56" y2="17.52">
   <stop offset="0" stop-color="#7c3f03"/>
   <stop offset="1" stop-color="#663300"/>
  </linearGradient>
  <path style="fill:url(#gradient17)"
        d="M56.75 11.15L55.43 12.48H56.74L57.18 12.93H58.06L61.11 10.71H58.93L57.61 11.15H56.75z"
        transform="matrix(0.9212,0,0,0.9206,2.973,2.0642)"
  />
  <path style="fill:#cb9867"
        d="M56.75 11.15L55.43 12.48H56.74L57.18 12.93H58.06L61.11 10.71H58.93L57.61 11.15H56.75z"
        transform="matrix(0.9212,0,0,0.9206,2.973,2.0642)"
  />
  <radialGradient id="gradient18" gradientUnits="userSpaceOnUse" cx="0" cy="0" r="64" gradientTransform="matrix(0.1124,0,0,0.1209,52.9589,7.8776)">
   <stop offset="0" stop-color="#808080"/>
   <stop offset="1" stop-color="#000000"/>
  </radialGradient>
  <path style="fill:none; stroke:url(#gradient18); stroke-width:1.7625"
        d="M55 10.27C54.02 10.27 53.25 10.65 53.25 11.15C53.25 11.64 54.02 12.03 55 12.03C55.95 12.03 56.75 11.64 56.75 11.15C56.75 10.65 55.95 10.27 55 10.27z
           M54.56 10.71V7.15H55.43V10.71H54.56z"
        transform="matrix(0.9212,0,0,0.9206,2.973,2.0642)"
  />
  <radialGradient id="gradient19" gradientUnits="userSpaceOnUse" cx="0" cy="0" r="64" gradientTransform="matrix(0.0359,0,0,0.0295,54.1753,10.1543)">
   <stop offset="0" stop-color="#ffffff"/>
   <stop offset="0.33" stop-color="#ffffff"/>
   <stop offset="1" stop-color="#808080"/>
  </radialGradient>
  <path style="fill:url(#gradient19)"
        d="M55 10.27C54.02 10.27 53.25 10.65 53.25 11.15C53.25 11.64 54.02 12.03 55 12.03C55.95 12.03 56.75 11.64 56.75 11.15C56.75 10.65 55.95 10.27 55 10.27z"
        transform="matrix(0.9212,0,0,0.9206,2.973,2.0642)"
  />
  <linearGradient id="gradient20" gradientUnits="userSpaceOnUse" x1="54.56" y1="6.36" x2="55.43" y2="6.36">
   <stop offset="0" stop-color="#ffffff"/>
   <stop offset="1" stop-color="#808080"/>
  </linearGradient>
  <path style="fill:url(#gradient20)"
        d="M54.56 10.71V7.15H55.43V10.71H54.56z"
        transform="matrix(0.9212,0,0,0.9206,2.973,2.0642)"
  />
  <path style="fill:none; stroke:#000000; stroke-width:1.7625; stroke-linejoin:round"
        d="M51.06 4.5C51.06 4.5 51.15 3.55 51.93 3.17L52.81 2.72C53.68 2.27 56.75 3.16 57.61 4.05C58.5 4.94 58.93 5.82 58.93 5.82L57.18 6.71L51.06 4.5z"
        transform="matrix(0.9212,0,0,0.9206,2.973,2.0642)"
  />
  <radialGradient id="gradient21" gradientUnits="userSpaceOnUse" cx="0" cy="0" r="64" gradientTransform="matrix(0.1366,0.016,-0.0071,0.0626,52.0494,2.4779)">
   <stop offset="0" stop-color="#00ff00"/>
   <stop offset="1" stop-color="#108e35"/>
  </radialGradient>
  <path style="fill:url(#gradient21)"
        d="M51.06 4.5C51.06 4.5 51.15 3.55 51.93 3.17L52.81 2.72C53.68 2.27 56.75 3.16 57.61 4.05C58.5 4.94 58.93 5.82 58.93 5.82L57.18 6.71L51.06 4.5z"
        transform="matrix(0.9212,0,0,0.9206,2.973,2.0642)"
  />
  <path style="fill:#010101; fill-opacity:0.5725"
        d="M46.02 61.95L46.93 62.99L48.38 61.34L50.61 62.99L54.45 57.02L62.99 52.04L60.7 50.47L61.61 51.52L50.15 57.77L46.02 61.95z
           M60.24 49.95L62.06 48.38L60.24 47.34L58.86 48.9L60.24 49.95z"
        transform="matrix(0.9212,0,0,0.9206,2.973,2.0642)"
  />
  <path style="fill:none; stroke:#010101; stroke-width:3"
        d="M36.52 47.86C36.52 47.86 39.09 51 41.38 54.38C43.68 57.77 45.68 61.29 45.68 61.29L60.75 51.45L48.31 40.04L36.52 47.86z"
        transform="matrix(0.9212,0,0,0.9206,2.973,2.0642)"
  />
  <radialGradient id="gradient22" gradientUnits="userSpaceOnUse" cx="0" cy="0" r="64" gradientTransform="matrix(0.2617,0,0,0.1737,45.5746,50.4832)">
   <stop offset="0.4884" stop-color="#f1b706"/>
   <stop offset="1" stop-color="#fffcc0"/>
  </radialGradient>
  <path style="fill:url(#gradient22)"
        d="M36.52 47.86C36.52 47.86 39.09 51 41.38 54.38C43.68 57.77 45.68 61.29 45.68 61.29L60.75 51.45L48.31 40.04L36.52 47.86z"
        transform="matrix(0.9212,0,0,0.9206,2.973,2.0642)"
  />
  <path style="fill:none; stroke:#010101; stroke-width:3"
        d="M34.84 48.31C34.84 48.31 38.66 51.13 42.36 54.06C46.22 57.13 50.04 59.74 50.04 59.74L60.29 45.97C60.29 45.97 54.47 43.02 49.86 40.24C47.49 38.79 45.56 37.11 45.56 37.11L34.84 48.31z"
        transform="matrix(0.9212,0,0,0.9206,2.973,2.0642)"
  />
  <linearGradient id="gradient23" gradientUnits="userSpaceOnUse" x1="82.72" y1="23.3" x2="87.88" y2="46.81">
   <stop offset="0" stop-color="#ffefa5"/>
   <stop offset="0.7422" stop-color="#fffcc0"/>
   <stop offset="1" stop-color="#fff890"/>
  </linearGradient>
  <path style="fill:url(#gradient23)"
        d="M34.84 48.31C34.84 48.31 38.66 51.13 42.36 54.06C46.22 57.13 50.04 59.74 50.04 59.74L60.29 45.97C60.29 45.97 54.47 43.02 49.86 40.24C47.49 38.79 45.56 37.11 45.56 37.11L34.84 48.31z"
        transform="matrix(0.9212,0,0,0.9206,2.973,2.0642)"
  />
  <linearGradient id="gradient24" gradientUnits="userSpaceOnUse" x1="12.05" y1="24" x2="20.61" y2="12.48">
   <stop offset="0" stop-color="#010101"/>
   <stop offset="1" stop-color="#9e9e9e"/>
  </linearGradient>
  <path style="fill:none; stroke:url(#gradient24); stroke-width:0.4909"
        d="M42.81 51L49.63 43.11
           M40.06 48.9L45.97 42.13
           M45.56 53.09L51.4 46.24
           M48.31 55.16L53.25 49.09"
        transform="matrix(0.9212,0,0,0.9206,2.973,2.0642)"
  />
  <linearGradient id="gradient25" gradientUnits="userSpaceOnUse" x1="12.05" y1="24" x2="20.61" y2="12.48">
   <stop offset="0" stop-color="#010101"/>
   <stop offset="1" stop-color="#9e9e9e"/>
  </linearGradient>
  <path style="fill:none; stroke:url(#gradient25); stroke-width:0.4909"
        d="M46.93 54.13L53.81 45.97
           M44.18 52.04L49.58 45.91
           M41.43 49.95L46.54 44.02"
        transform="matrix(0.9212,0,0,0.9206,2.973,2.0642)"
  />
 </g>
</svg>
