<?xml version="1.0" encoding="UTF-8" standalone="yes"?>
<svg version="1.1" width="64" height="64" color-interpolation="linearRGB"
     xmlns:svg="http://www.w3.org/2000/svg" xmlns="http://www.w3.org/2000/svg">
 <g>
  <path style="fill:none; stroke:#545454; stroke-width:4.8056; stroke-linecap:round; stroke-linejoin:round"
        d="M10 15C19.68 15 42.65 15.18 52.36 15.18C52.36 27.7 52.36 40.24 52.36 52.77C42.65 52.77 19.68 53 10 53C10 40.47 10 15 10 15V15V15z
           M8.72 12.52C8.72 26.8 8.72 41.13 8.72 55.45C24.2 55.45 39.75 55.45 55.27 55.45C55.27 41.13 55.27 26.8 55.27 12.52C39.75 12.52 24.2 12.52 8.72 12.52V12.52V12.52V12.52V12.52V12.52V12.52V12.52V12.52V12.52z"
  />
  <path style="fill:none; stroke:#bf5000; stroke-width:4.1048; stroke-linecap:round; stroke-linejoin:round"
        d="M8.47 12.18C8.47 9.97 8.47 7.78 8.47 5.59C13.47 5.59 18.45 5.59 23.5 5.59C23.5 7.78 23.5 9.97 23.5 12.18C18.45 12.18 13.47 12.18 8.47 12.18V12.18V12.18V12.18V12.18V12.18V12.18V12.18V12.18V12.18V12.18z"
  />
  <path style="fill:#ffd400"
        d="M8.47 13.64C8.47 11.14 8.47 8.6 8.47 6.11C13.47 6.11 18.45 6.11 23.5 6.11C23.5 8.6 23.5 11.14 23.5 13.64C18.45 13.64 13.47 13.64 8.47 13.64V13.64V13.64V13.64V13.64V13.64V13.64V13.64V13.64V13.64V13.64z"
  />
  <path style="fill:#ffffff"
        d="M10 15C10 15 42.29 15 52 15C52 27.52 52 40.47 52 53C42.29 53 19.68 53 10 53C10 40.47 10 15 10 15V15V15z
           M8.72 12.52C8.72 26.8 8.72 41.13 8.72 55.45C24.2 55.45 39.75 55.45 55.27 55.45C55.27 41.13 55.27 26.8 55.27 12.52C39.75 12.52 24.2 12.52 8.72 12.52V12.52V12.52V12.52V12.52V12.52V12.52V12.52V12.52V12.52z"
  />
  <path style="fill:none; stroke:#000000; stroke-opacity:0.4; stroke-width:1.7719; stroke-linecap:round; stroke-linejoin:round"
        d="M41 32.74C39.83 31.54 38.65 30.37 37.47 29.2C35.84 30.8 34.22 32.43 32.59 34.06C30.97 32.43 29.34 30.8 27.72 29.2C26.54 30.37 25.37 31.54 24.19 32.74C25.79 34.36 27.43 35.99 29.04 37.61C27.43 39.24 25.79 40.86 24.19 42.49C25.37 43.65 26.54 44.84 27.72 46.02C29.34 44.4 30.97 42.77 32.59 41.15C34.22 42.77 35.84 44.4 37.47 46.02C38.65 44.84 39.83 43.65 41 42.49C39.38 40.86 37.77 39.24 36.13 37.61C37.77 35.99 39.38 34.36 41 32.74V32.74V32.74V32.74V32.74V32.74V32.74V32.74V32.74z"
  />
  <path style="fill:none; stroke:#800000; stroke-width:3.608; stroke-linecap:round; stroke-linejoin:round"
        d="M40.13 29.85C38.95 28.67 37.77 27.47 36.59 26.29C34.95 27.93 33.34 29.54 31.7 31.18C30.09 29.54 28.45 27.93 26.84 26.29C25.64 27.47 24.46 28.67 23.29 29.85C24.92 31.46 26.54 33.09 28.15 34.72C26.54 36.34 24.92 37.97 23.29 39.59C24.46 40.77 25.64 41.95 26.84 43.15C28.45 41.52 30.09 39.9 31.7 38.27C33.34 39.9 34.95 41.52 36.59 43.15C37.77 41.95 38.95 40.77 40.13 39.59C38.5 37.97 36.86 36.34 35.25 34.72C36.86 33.09 38.5 31.46 40.13 29.85V29.85V29.85V29.85V29.85V29.85V29.85V29.85V29.85z"
  />
  <linearGradient id="gradient0" gradientUnits="userSpaceOnUse" x1="79.08" y1="28.06" x2="79.08" y2="43.15">
   <stop offset="0" stop-color="#ffabab"/>
   <stop offset="1" stop-color="#d90000"/>
  </linearGradient>
  <path style="fill:url(#gradient0)"
        d="M40.13 29.85C38.95 28.67 37.77 27.47 36.59 26.29C34.95 27.93 33.34 29.54 31.7 31.18C30.09 29.54 28.45 27.93 26.84 26.29C25.64 27.47 24.46 28.67 23.29 29.85C24.92 31.46 26.54 33.09 28.15 34.72C26.54 36.34 24.92 37.97 23.29 39.59C24.46 40.77 25.64 41.95 26.84 43.15C28.45 41.52 30.09 39.9 31.7 38.27C33.34 39.9 34.95 41.52 36.59 43.15C37.77 41.95 38.95 40.77 40.13 39.59C38.5 37.97 36.86 36.34 35.25 34.72C36.86 33.09 38.5 31.46 40.13 29.85V29.85V29.85V29.85V29.85V29.85V29.85V29.85V29.85z"
  />
 </g>
</svg>
