<?xml version="1.0" encoding="UTF-8" standalone="yes"?>
<svg version="1.1" width="64" height="64" color-interpolation="linearRGB"
     xmlns:svg="http://www.w3.org/2000/svg" xmlns="http://www.w3.org/2000/svg">
 <g>
  <path style="fill:#000000; fill-opacity:0.4"
        d="M22.98 4C12.5 4 3.99 11.14 3.99 20C3.99 28.81 12.5 36 22.98 36C33.47 36 42 28.81 42 20C42 11.14 33.47 4 22.98 4z
           M42 38C39 35 38 28 38 28L30 34C30 34 38 38 42 38z"
        transform="matrix(1.3332,0,0,1.3684,4.0034,6)"
  />
  <path style="fill:none; stroke:#000000; stroke-width:4; stroke-linecap:round; stroke-linejoin:round"
        d="M20.98 2C10.5 2 1.99 9.14 1.99 18C1.99 26.81 10.5 34 20.98 34C31.46 34 40 26.81 40 18C40 9.14 31.46 2 20.98 2z
           M40 36C37 33 36 26 36 26L28 32C28 32 36 36 40 36z"
        transform="matrix(1.3332,0,0,1.3684,4.0034,6)"
  />
  <linearGradient id="gradient0" gradientUnits="userSpaceOnUse" x1="128" y1="1.99" x2="128" y2="40">
   <stop offset="0" stop-color="#ffffff"/>
   <stop offset="1" stop-color="#e5e5e5"/>
  </linearGradient>
  <path style="fill:url(#gradient0)"
        d="M20.98 2C10.5 2 1.99 9.14 1.99 18C1.99 26.81 10.5 34 20.98 34C31.46 34 40 26.81 40 18C40 9.14 31.46 2 20.98 2z
           M40 36C37 33 36 26 36 26L28 32C28 32 36 36 40 36z"
        transform="matrix(1.3332,0,0,1.3684,4.0034,6)"
  />
  <linearGradient id="gradient1" gradientUnits="userSpaceOnUse" x1="128" y1="1.99" x2="128" y2="40">
   <stop offset="0" stop-color="#808080"/>
   <stop offset="1" stop-color="#282828"/>
  </linearGradient>
  <path style="fill:url(#gradient1)"
        d="M16 20C12.68 20 10 21.79 10 24C10 26.2 12.68 28 16 28C19.3 28 22 26.2 22 24C22 21.79 19.3 20 16 20z
           M20 6V24H22V14C22 14 32 13 28 20C40 8 20 6 20 6z"
        transform="matrix(1.3332,0,0,1.3684,4.0034,6)"
  />
 </g>
</svg>
