<?xml version="1.0" encoding="UTF-8" standalone="yes"?>
<svg version="1.1" width="64" height="64" color-interpolation="linearRGB"
     xmlns:svg="http://www.w3.org/2000/svg" xmlns="http://www.w3.org/2000/svg">
 <g>
  <path style="fill:none; stroke:#000000; stroke-opacity:0.4; stroke-width:5.636; stroke-linecap:round; stroke-linejoin:round"
        d="M6.63 6.63V12.27L29.18 37.63L31.99 60.17H34.81L37.63 37.63L60.17 12.27V6.63H6.63z"
        transform="matrix(0.8709,0,0,0.8709,4.129,4.129)"
  />
  <path style="fill:none; stroke:#800000; stroke-width:5.636; stroke-linejoin:round"
        d="M3.81 3.81V9.45L26.36 34.81L29.18 57.36H31.99L34.81 34.81L57.36 9.45V3.81H3.81z"
        transform="matrix(0.8709,0,0,0.8709,4.129,4.129)"
  />
  <linearGradient id="gradient0" gradientUnits="userSpaceOnUse" x1="181.35" y1="3.8" x2="181.35" y2="57.36">
   <stop offset="0" stop-color="#ffabab"/>
   <stop offset="1" stop-color="#d90000"/>
  </linearGradient>
  <path style="fill:url(#gradient0)"
        d="M3.81 3.81V9.45L26.36 34.81L29.18 57.36H31.99L34.81 34.81L57.36 9.45V3.81H3.81z"
        transform="matrix(0.8709,0,0,0.8709,4.129,4.129)"
  />
  <path style="fill:#ffffff; fill-opacity:0.6862"
        d=""
        transform="matrix(0.8709,0,0,0.8709,4.129,4.129)"
  />
 </g>
</svg>
