<?xml version="1.0" encoding="UTF-8" standalone="yes"?>
<svg version="1.1" width="64" height="64" color-interpolation="linearRGB"
     xmlns:svg="http://www.w3.org/2000/svg" xmlns="http://www.w3.org/2000/svg">
 <g>
  <path style="fill:none; stroke:#000000; stroke-opacity:0.4; stroke-width:6.4566; stroke-linecap:round; stroke-linejoin:round"
        d="M55.9 55.9C55.9 56.95 55.9 57.99 55.9 59.04C56.95 59.04 57.99 59.04 59.04 59.04C59.04 57.99 59.04 56.95 59.04 55.9C57.99 55.9 56.95 55.9 55.9 55.9V55.9V55.9V55.9V55.9V55.9z
           M37.11 55.9C37.11 56.95 37.11 57.99 37.11 59.04C38.15 59.04 39.2 59.04 40.25 59.04C40.25 57.99 40.25 56.95 40.25 55.9C39.2 55.9 38.15 55.9 37.11 55.9V55.9V55.9V55.9V55.9V55.9z
           M30.86 52.77C30.86 53.81 30.86 54.86 30.86 55.9C31.9 55.9 32.95 55.9 33.99 55.9C33.99 54.86 33.99 53.81 33.99 52.77C32.95 52.77 31.9 52.77 30.86 52.77V52.77V52.77V52.77V52.77V52.77z
           M15.21 46.5C15.21 48.59 15.21 50.68 15.21 52.77C17.29 52.77 19.37 52.77 21.46 52.77C21.46 50.68 21.46 48.59 21.46 46.5C19.37 46.5 17.29 46.5 15.21 46.5V46.5V46.5V46.5V46.5V46.5z
           M43.38 43.38C45.47 43.38 47.54 43.38 49.63 43.38C49.63 45.47 49.63 47.54 49.63 49.63C47.54 49.63 45.47 49.63 43.38 49.63C43.38 47.54 43.38 45.47 43.38 43.38V43.38V43.38V43.38V43.38V43.38z
           M12.06 43.38C16.25 43.38 20.42 43.38 24.6 43.38C24.6 47.54 24.6 51.72 24.6 55.9C20.42 55.9 16.25 55.9 12.06 55.9C12.06 51.72 12.06 47.54 12.06 43.38V43.38V43.38V43.38V43.38V43.38z
           M46.5 55.9C46.5 56.95 46.5 57.99 46.5 59.04C48.59 59.04 50.68 59.04 52.77 59.04C52.77 57.99 52.77 56.95 52.77 55.9C50.68 55.9 48.59 55.9 46.5 55.9V55.9V55.9V55.9V55.9V55.9z
           M55.9 49.63C55.9 50.68 55.9 51.72 55.9 52.77C56.95 52.77 57.99 52.77 59.04 52.77C59.04 51.72 59.04 50.68 59.04 49.63C57.99 49.63 56.95 49.63 55.9 49.63V49.63V49.63V49.63V49.63V49.63z
           M55.9 46.5C56.95 46.5 57.99 46.5 59.04 46.5C59.04 44.41 59.04 42.33 59.04 40.25C57.99 40.25 56.95 40.25 55.9 40.25C55.9 42.33 55.9 44.41 55.9 46.5V46.5V46.5V46.5V46.5V46.5z
           M40.25 40.25C40.25 44.41 40.25 48.59 40.25 52.77C41.29 52.77 42.33 52.77 43.38 52.77C43.38 53.81 43.38 54.86 43.38 55.9C44.41 55.9 45.47 55.9 46.5 55.9C46.5 54.86 46.5 53.81 46.5 52.77C48.59 52.77 50.68 52.77 52.77 52.77C52.77 51.72 52.77 50.68 52.77 49.63C53.81 49.63 54.86 49.63 55.9 49.63C55.9 48.59 55.9 47.54 55.9 46.5C54.86 46.5 53.81 46.5 52.77 46.5C52.77 44.41 52.77 42.33 52.77 40.25C48.59 40.25 44.41 40.25 40.25 40.25V40.25V40.25V40.25V40.25V40.25z
           M8.93 40.25C8.93 46.5 8.93 52.77 8.93 59.04C15.21 59.04 21.46 59.04 27.72 59.04C27.72 52.77 27.72 46.5 27.72 40.25C21.46 40.25 15.21 40.25 8.93 40.25V40.25V40.25V40.25V40.25V40.25z
           M52.77 30.86C52.77 32.95 52.77 35.02 52.77 37.11C53.81 37.11 54.86 37.11 55.9 37.11C55.9 36.06 55.9 35.02 55.9 33.99C56.95 33.99 57.99 33.99 59.04 33.99C59.04 32.95 59.04 31.9 59.04 30.86C56.95 30.86 54.86 30.86 52.77 30.86V30.86V30.86V30.86V30.86V30.86z
           M40.25 33.99C40.25 35.02 40.25 36.06 40.25 37.11C43.38 37.11 46.5 37.11 49.63 37.11C49.63 36.06 49.63 35.02 49.63 33.99C48.59 33.99 47.54 33.99 46.5 33.99C46.5 32.95 46.5 31.9 46.5 30.86C45.47 30.86 44.41 30.86 43.38 30.86C43.38 31.9 43.38 32.95 43.38 33.99C42.33 33.99 41.29 33.99 40.25 33.99V33.99V33.99V33.99V33.99V33.99z
           M37.11 30.86C37.11 31.9 37.11 32.95 37.11 33.99C38.15 33.99 39.2 33.99 40.25 33.99C40.25 32.95 40.25 31.9 40.25 30.86C39.2 30.86 38.15 30.86 37.11 30.86V30.86V30.86V30.86V30.86V30.86z
           M12.06 33.99C11.02 33.99 9.98 33.99 8.93 33.99C8.93 35.02 8.93 36.06 8.93 37.11C9.98 37.11 11.02 37.11 12.06 37.11C12.06 36.06 12.06 35.02 12.06 33.99V33.99V33.99V33.99V33.99V33.99z
           M33.99 46.5C32.95 46.5 31.9 46.5 30.86 46.5C30.86 47.54 30.86 48.59 30.86 49.63C31.9 49.63 32.95 49.63 33.99 49.63C33.99 48.59 33.99 47.54 33.99 46.5V46.5V46.5V46.5V46.5V46.5z
           M33.99 37.11C33.99 38.15 33.99 39.2 33.99 40.25C32.95 40.25 31.9 40.25 30.86 40.25C30.86 41.29 30.86 42.33 30.86 43.38C31.9 43.38 32.95 43.38 33.99 43.38C33.99 44.41 33.99 45.47 33.99 46.5C35.02 46.5 36.06 46.5 37.11 46.5C37.11 43.38 37.11 40.25 37.11 37.11C36.06 37.11 35.02 37.11 33.99 37.11V37.11V37.11V37.11V37.11V37.11z
           M27.72 33.99C27.72 35.02 27.72 36.06 27.72 37.11C29.81 37.11 31.9 37.11 33.99 37.11C33.99 35.02 33.99 32.95 33.99 30.86C32.95 30.86 31.9 30.86 30.86 30.86C30.86 31.9 30.86 32.95 30.86 33.99C29.81 33.99 28.78 33.99 27.72 33.99V33.99V33.99V33.99V33.99V33.99z
           M21.46 33.99C22.51 33.99 23.55 33.99 24.6 33.99C25.63 33.99 26.69 33.99 27.72 33.99C27.72 32.95 27.72 31.9 27.72 30.86C26.69 30.86 25.63 30.86 24.6 30.86C23.55 30.86 22.51 30.86 21.46 30.86C21.46 31.9 21.46 32.95 21.46 33.99V33.99V33.99V33.99V33.99V33.99z
           M15.21 33.99C15.21 35.02 15.21 36.06 15.21 37.11C17.29 37.11 19.37 37.11 21.46 37.11C21.46 36.06 21.46 35.02 21.46 33.99C19.37 33.99 17.29 33.99 15.21 33.99V33.99V33.99V33.99V33.99V33.99z
           M12.06 30.86C12.06 31.9 12.06 32.95 12.06 33.99C13.11 33.99 14.15 33.99 15.21 33.99C15.21 32.95 15.21 31.9 15.21 30.86C14.15 30.86 13.11 30.86 12.06 30.86V30.86V30.86V30.86V30.86V30.86z
           M33.99 24.6C33.99 25.63 33.99 26.69 33.99 27.72C35.02 27.72 36.06 27.72 37.11 27.72C37.11 26.69 37.11 25.63 37.11 24.6C36.06 24.6 35.02 24.6 33.99 24.6V24.6V24.6V24.6V24.6V24.6z
           M30.86 21.46C30.86 22.51 30.86 23.55 30.86 24.6C31.9 24.6 32.95 24.6 33.99 24.6C33.99 23.55 33.99 22.51 33.99 21.46C32.95 21.46 31.9 21.46 30.86 21.46V21.46V21.46V21.46V21.46V21.46z
           M46.5 15.21C46.5 17.29 46.5 19.37 46.5 21.46C48.59 21.46 50.68 21.46 52.77 21.46C52.77 19.37 52.77 17.29 52.77 15.21C50.68 15.21 48.59 15.21 46.5 15.21V15.21V15.21V15.21V15.21V15.21z
           M15.21 15.21C15.21 17.29 15.21 19.37 15.21 21.46C17.29 21.46 19.37 21.46 21.46 21.46C21.46 19.37 21.46 17.29 21.46 15.21C19.37 15.21 17.29 15.21 15.21 15.21V15.21V15.21V15.21V15.21V15.21z
           M43.38 12.06C47.54 12.06 51.72 12.06 55.9 12.06C55.9 16.25 55.9 20.42 55.9 24.6C51.72 24.6 47.54 24.6 43.38 24.6C43.38 20.42 43.38 16.25 43.38 12.06V12.06V12.06V12.06V12.06V12.06z
           M40.25 8.93C40.25 15.21 40.25 21.46 40.25 27.72C46.5 27.72 52.77 27.72 59.04 27.72C59.04 21.46 59.04 15.21 59.04 8.93C52.77 8.93 46.5 8.93 40.25 8.93V8.93V8.93V8.93V8.93V8.93z
           M33.99 12.06C33.99 13.11 33.99 14.15 33.99 15.21C32.95 15.21 31.9 15.21 30.86 15.21C30.86 16.25 30.86 17.29 30.86 18.34C32.95 18.34 35.02 18.34 37.11 18.34C37.11 16.25 37.11 14.15 37.11 12.06C36.06 12.06 35.02 12.06 33.99 12.06V12.06V12.06V12.06V12.06V12.06z
           M30.86 8.93C30.86 9.98 30.86 11.02 30.86 12.06C31.9 12.06 32.95 12.06 33.99 12.06C33.99 11.02 33.99 9.98 33.99 8.93C32.95 8.93 31.9 8.93 30.86 8.93V8.93V8.93V8.93V8.93V8.93z
           M8.93 8.93C8.93 15.21 8.93 21.46 8.93 27.72C15.21 27.72 21.46 27.72 27.72 27.72C27.72 21.46 27.72 15.21 27.72 8.93C21.46 8.93 15.21 8.93 8.93 8.93V8.93V8.93V8.93V8.93V8.93z
           M12.06 12.06C16.25 12.06 20.42 12.06 24.6 12.06C24.6 16.25 24.6 20.42 24.6 24.6C20.42 24.6 16.25 24.6 12.06 24.6C12.06 20.42 12.06 16.25 12.06 12.06V12.06V12.06V12.06V12.06V12.06z"
  />
  <path style="fill:none; stroke:#003f80; stroke-width:6; stroke-linecap:round; stroke-linejoin:round"
        d="M53.9 53.9C53.9 54.95 53.9 55.99 53.9 57.04C54.95 57.04 55.99 57.04 57.04 57.04C57.04 55.99 57.04 54.95 57.04 53.9C55.99 53.9 54.95 53.9 53.9 53.9V53.9V53.9V53.9V53.9V53.9z
           M35.11 53.9C35.11 54.95 35.11 55.99 35.11 57.04C36.15 57.04 37.2 57.04 38.25 57.04C38.25 55.99 38.25 54.95 38.25 53.9C37.2 53.9 36.15 53.9 35.11 53.9V53.9V53.9V53.9V53.9V53.9z
           M28.86 50.77C28.86 51.81 28.86 52.86 28.86 53.9C29.9 53.9 30.95 53.9 31.98 53.9C31.98 52.86 31.98 51.81 31.98 50.77C30.95 50.77 29.9 50.77 28.86 50.77V50.77V50.77V50.77V50.77V50.77z
           M13.21 44.5C13.21 46.59 13.21 48.68 13.21 50.77C15.28 50.77 17.37 50.77 19.46 50.77C19.46 48.68 19.46 46.59 19.46 44.5C17.37 44.5 15.28 44.5 13.21 44.5V44.5V44.5V44.5V44.5V44.5z
           M41.38 41.38C43.47 41.38 45.54 41.38 47.63 41.38C47.63 43.47 47.63 45.54 47.63 47.63C45.54 47.63 43.47 47.63 41.38 47.63C41.38 45.54 41.38 43.47 41.38 41.38V41.38V41.38V41.38V41.38V41.38z
           M10.06 41.38C14.25 41.38 18.42 41.38 22.6 41.38C22.6 45.54 22.6 49.72 22.6 53.9C18.42 53.9 14.25 53.9 10.06 53.9C10.06 49.72 10.06 45.54 10.06 41.38V41.38V41.38V41.38V41.38V41.38z
           M44.5 53.9C44.5 54.95 44.5 55.99 44.5 57.04C46.59 57.04 48.68 57.04 50.77 57.04C50.77 55.99 50.77 54.95 50.77 53.9C48.68 53.9 46.59 53.9 44.5 53.9V53.9V53.9V53.9V53.9V53.9z
           M53.9 47.63C53.9 48.68 53.9 49.72 53.9 50.77C54.95 50.77 55.99 50.77 57.04 50.77C57.04 49.72 57.04 48.68 57.04 47.63C55.99 47.63 54.95 47.63 53.9 47.63V47.63V47.63V47.63V47.63V47.63z
           M53.9 44.5C54.95 44.5 55.99 44.5 57.04 44.5C57.04 42.41 57.04 40.33 57.04 38.25C55.99 38.25 54.95 38.25 53.9 38.25C53.9 40.33 53.9 42.41 53.9 44.5V44.5V44.5V44.5V44.5V44.5z
           M38.25 38.25C38.25 42.41 38.25 46.59 38.25 50.77C39.29 50.77 40.33 50.77 41.38 50.77C41.38 51.81 41.38 52.86 41.38 53.9C42.41 53.9 43.47 53.9 44.5 53.9C44.5 52.86 44.5 51.81 44.5 50.77C46.59 50.77 48.68 50.77 50.77 50.77C50.77 49.72 50.77 48.68 50.77 47.63C51.81 47.63 52.86 47.63 53.9 47.63C53.9 46.59 53.9 45.54 53.9 44.5C52.86 44.5 51.81 44.5 50.77 44.5C50.77 42.41 50.77 40.33 50.77 38.25C46.59 38.25 42.41 38.25 38.25 38.25V38.25V38.25V38.25V38.25V38.25z
           M6.94 38.25C6.94 44.5 6.94 50.77 6.94 57.04C13.21 57.04 19.46 57.04 25.72 57.04C25.72 50.77 25.72 44.5 25.72 38.25C19.46 38.25 13.21 38.25 6.94 38.25V38.25V38.25V38.25V38.25V38.25z
           M50.77 28.86C50.77 30.95 50.77 33.02 50.77 35.11C51.81 35.11 52.86 35.11 53.9 35.11C53.9 34.06 53.9 33.02 53.9 31.98C54.95 31.98 55.99 31.98 57.04 31.98C57.04 30.95 57.04 29.9 57.04 28.86C54.95 28.86 52.86 28.86 50.77 28.86V28.86V28.86V28.86V28.86V28.86z
           M38.25 31.98C38.25 33.02 38.25 34.06 38.25 35.11C41.38 35.11 44.5 35.11 47.63 35.11C47.63 34.06 47.63 33.02 47.63 31.98C46.59 31.98 45.54 31.98 44.5 31.98C44.5 30.95 44.5 29.9 44.5 28.86C43.47 28.86 42.41 28.86 41.38 28.86C41.38 29.9 41.38 30.95 41.38 31.98C40.33 31.98 39.29 31.98 38.25 31.98V31.98V31.98V31.98V31.98V31.98z
           M35.11 28.86C35.11 29.9 35.11 30.95 35.11 31.98C36.15 31.98 37.2 31.98 38.25 31.98C38.25 30.95 38.25 29.9 38.25 28.86C37.2 28.86 36.15 28.86 35.11 28.86V28.86V28.86V28.86V28.86V28.86z
           M10.06 31.98C9.02 31.98 7.98 31.98 6.94 31.98C6.94 33.02 6.94 34.06 6.94 35.11C7.98 35.11 9.02 35.11 10.06 35.11C10.06 34.06 10.06 33.02 10.06 31.98V31.98V31.98V31.98V31.98V31.98z
           M31.98 44.5C30.95 44.5 29.9 44.5 28.86 44.5C28.86 45.54 28.86 46.59 28.86 47.63C29.9 47.63 30.95 47.63 31.98 47.63C31.98 46.59 31.98 45.54 31.98 44.5V44.5V44.5V44.5V44.5V44.5z
           M31.98 35.11C31.98 36.15 31.98 37.2 31.98 38.25C30.95 38.25 29.9 38.25 28.86 38.25C28.86 39.29 28.86 40.33 28.86 41.38C29.9 41.38 30.95 41.38 31.98 41.38C31.98 42.41 31.98 43.47 31.98 44.5C33.02 44.5 34.06 44.5 35.11 44.5C35.11 41.38 35.11 38.25 35.11 35.11C34.06 35.11 33.02 35.11 31.98 35.11V35.11V35.11V35.11V35.11V35.11z
           M25.72 31.98C25.72 33.02 25.72 34.06 25.72 35.11C27.81 35.11 29.9 35.11 31.98 35.11C31.98 33.02 31.98 30.95 31.98 28.86C30.95 28.86 29.9 28.86 28.86 28.86C28.86 29.9 28.86 30.95 28.86 31.98C27.81 31.98 26.78 31.98 25.72 31.98V31.98V31.98V31.98V31.98V31.98z
           M19.46 31.98C20.51 31.98 21.55 31.98 22.6 31.98C23.63 31.98 24.69 31.98 25.72 31.98C25.72 30.95 25.72 29.9 25.72 28.86C24.69 28.86 23.63 28.86 22.6 28.86C21.55 28.86 20.51 28.86 19.46 28.86C19.46 29.9 19.46 30.95 19.46 31.98V31.98V31.98V31.98V31.98V31.98z
           M13.21 31.98C13.21 33.02 13.21 34.06 13.21 35.11C15.28 35.11 17.37 35.11 19.46 35.11C19.46 34.06 19.46 33.02 19.46 31.98C17.37 31.98 15.28 31.98 13.21 31.98V31.98V31.98V31.98V31.98V31.98z
           M10.06 28.86C10.06 29.9 10.06 30.95 10.06 31.98C11.11 31.98 12.15 31.98 13.21 31.98C13.21 30.95 13.21 29.9 13.21 28.86C12.15 28.86 11.11 28.86 10.06 28.86V28.86V28.86V28.86V28.86V28.86z
           M31.98 22.6C31.98 23.63 31.98 24.69 31.98 25.72C33.02 25.72 34.06 25.72 35.11 25.72C35.11 24.69 35.11 23.63 35.11 22.6C34.06 22.6 33.02 22.6 31.98 22.6V22.6V22.6V22.6V22.6V22.6z
           M28.86 19.46C28.86 20.51 28.86 21.55 28.86 22.6C29.9 22.6 30.95 22.6 31.98 22.6C31.98 21.55 31.98 20.51 31.98 19.46C30.95 19.46 29.9 19.46 28.86 19.46V19.46V19.46V19.46V19.46V19.46z
           M44.5 13.21C44.5 15.28 44.5 17.37 44.5 19.46C46.59 19.46 48.68 19.46 50.77 19.46C50.77 17.37 50.77 15.28 50.77 13.21C48.68 13.21 46.59 13.21 44.5 13.21V13.21V13.21V13.21V13.21V13.21z
           M13.21 13.21C13.21 15.28 13.21 17.37 13.21 19.46C15.28 19.46 17.37 19.46 19.46 19.46C19.46 17.37 19.46 15.28 19.46 13.21C17.37 13.21 15.28 13.21 13.21 13.21V13.21V13.21V13.21V13.21V13.21z
           M41.38 10.06C45.54 10.06 49.72 10.06 53.9 10.06C53.9 14.25 53.9 18.42 53.9 22.6C49.72 22.6 45.54 22.6 41.38 22.6C41.38 18.42 41.38 14.25 41.38 10.06V10.06V10.06V10.06V10.06V10.06z
           M10.06 10.06C14.25 10.06 18.42 10.06 22.6 10.06C22.6 14.25 22.6 18.42 22.6 22.6C18.42 22.6 14.25 22.6 10.06 22.6C10.06 18.42 10.06 14.25 10.06 10.06V10.06V10.06V10.06V10.06V10.06z
           M38.25 6.94C38.25 13.21 38.25 19.46 38.25 25.72C44.5 25.72 50.77 25.72 57.04 25.72C57.04 19.46 57.04 13.21 57.04 6.94C50.77 6.94 44.5 6.94 38.25 6.94V6.94V6.94V6.94V6.94V6.94z
           M31.98 10.06C31.98 11.11 31.98 12.15 31.98 13.21C30.95 13.21 29.9 13.21 28.86 13.21C28.86 14.25 28.86 15.28 28.86 16.34C30.95 16.34 33.02 16.34 35.11 16.34C35.11 14.25 35.11 12.15 35.11 10.06C34.06 10.06 33.02 10.06 31.98 10.06V10.06V10.06V10.06V10.06V10.06z
           M28.86 6.94C28.86 7.98 28.86 9.02 28.86 10.06C29.9 10.06 30.95 10.06 31.98 10.06C31.98 9.02 31.98 7.98 31.98 6.94C30.95 6.94 29.9 6.94 28.86 6.94V6.94V6.94V6.94V6.94V6.94z
           M6.94 6.94C6.94 13.21 6.94 19.46 6.94 25.72C13.21 25.72 19.46 25.72 25.72 25.72C25.72 19.46 25.72 13.21 25.72 6.94C19.46 6.94 13.21 6.94 6.94 6.94V6.94V6.94V6.94V6.94V6.94z"
  />
  <path style="fill:#800000"
        d="M6.94 6.94C6.94 13.21 6.94 19.46 6.94 25.72C13.21 25.72 19.46 25.72 25.72 25.72C25.72 19.46 25.72 13.21 25.72 6.94C19.46 6.94 13.21 6.94 6.94 6.94V6.94V6.94V6.94V6.94V6.94z"
  />
  <linearGradient id="gradient0" gradientUnits="userSpaceOnUse" x1="185.83" y1="5.53" x2="185.83" y2="55.77">
   <stop offset="0" stop-color="#abd5ff"/>
   <stop offset="1" stop-color="#006cd9"/>
  </linearGradient>
  <path style="fill:url(#gradient0)"
        d="M28.86 50.77C28.86 51.81 28.86 52.86 28.86 53.9C29.9 53.9 30.95 53.9 31.98 53.9C31.98 52.86 31.98 51.81 31.98 50.77C30.95 50.77 29.9 50.77 28.86 50.77V50.77V50.77V50.77V50.77V50.77z
           M13.21 44.5C13.21 46.59 13.21 48.68 13.21 50.77C15.28 50.77 17.37 50.77 19.46 50.77C19.46 48.68 19.46 46.59 19.46 44.5C17.37 44.5 15.28 44.5 13.21 44.5V44.5V44.5V44.5V44.5V44.5z
           M10.06 41.38C14.25 41.38 18.42 41.38 22.6 41.38C22.6 45.54 22.6 49.72 22.6 53.9C18.42 53.9 14.25 53.9 10.06 53.9C10.06 49.72 10.06 45.54 10.06 41.38V41.38V41.38V41.38V41.38V41.38z
           M44.5 53.9C44.5 54.95 44.5 55.99 44.5 57.04C46.59 57.04 48.68 57.04 50.77 57.04C50.77 55.99 50.77 54.95 50.77 53.9C48.68 53.9 46.59 53.9 44.5 53.9V53.9V53.9V53.9V53.9V53.9z
           M53.9 47.63C53.9 48.68 53.9 49.72 53.9 50.77C54.95 50.77 55.99 50.77 57.04 50.77C57.04 49.72 57.04 48.68 57.04 47.63C55.99 47.63 54.95 47.63 53.9 47.63V47.63V47.63V47.63V47.63V47.63z
           M53.9 44.5C54.95 44.5 55.99 44.5 57.04 44.5C57.04 42.41 57.04 40.33 57.04 38.25C55.99 38.25 54.95 38.25 53.9 38.25C53.9 40.33 53.9 42.41 53.9 44.5V44.5V44.5V44.5V44.5V44.5z
           M38.25 38.25C38.25 42.41 38.25 46.59 38.25 50.77C39.29 50.77 40.33 50.77 41.38 50.77C41.38 51.81 41.38 52.86 41.38 53.9C42.41 53.9 43.47 53.9 44.5 53.9C44.5 52.86 44.5 51.81 44.5 50.77C46.59 50.77 48.68 50.77 50.77 50.77C50.77 49.72 50.77 48.68 50.77 47.63C51.81 47.63 52.86 47.63 53.9 47.63C53.9 46.59 53.9 45.54 53.9 44.5C52.86 44.5 51.81 44.5 50.77 44.5C50.77 42.41 50.77 40.33 50.77 38.25C46.59 38.25 42.41 38.25 38.25 38.25V38.25V38.25V38.25V38.25V38.25z
           M6.94 38.25C6.94 44.5 6.94 50.77 6.94 57.04C13.21 57.04 19.46 57.04 25.72 57.04C25.72 50.77 25.72 44.5 25.72 38.25C19.46 38.25 13.21 38.25 6.94 38.25V38.25V38.25V38.25V38.25V38.25z
           M50.77 28.86C50.77 30.95 50.77 33.02 50.77 35.11C51.81 35.11 52.86 35.11 53.9 35.11C53.9 34.06 53.9 33.02 53.9 31.98C54.95 31.98 55.99 31.98 57.04 31.98C57.04 30.95 57.04 29.9 57.04 28.86C54.95 28.86 52.86 28.86 50.77 28.86V28.86V28.86V28.86V28.86V28.86z
           M38.25 31.98C38.25 33.02 38.25 34.06 38.25 35.11C41.38 35.11 44.5 35.11 47.63 35.11C47.63 34.06 47.63 33.02 47.63 31.98C46.59 31.98 45.54 31.98 44.5 31.98C44.5 30.95 44.5 29.9 44.5 28.86C43.47 28.86 42.41 28.86 41.38 28.86C41.38 29.9 41.38 30.95 41.38 31.98C40.33 31.98 39.29 31.98 38.25 31.98V31.98V31.98V31.98V31.98V31.98z
           M35.11 28.86C35.11 29.9 35.11 30.95 35.11 31.98C36.15 31.98 37.2 31.98 38.25 31.98C38.25 30.95 38.25 29.9 38.25 28.86C37.2 28.86 36.15 28.86 35.11 28.86V28.86V28.86V28.86V28.86V28.86z
           M10.06 31.98C9.02 31.98 7.98 31.98 6.94 31.98C6.94 33.02 6.94 34.06 6.94 35.11C7.98 35.11 9.02 35.11 10.06 35.11C10.06 34.06 10.06 33.02 10.06 31.98V31.98V31.98V31.98V31.98V31.98z
           M31.98 44.5C30.95 44.5 29.9 44.5 28.86 44.5C28.86 45.54 28.86 46.59 28.86 47.63C29.9 47.63 30.95 47.63 31.98 47.63C31.98 46.59 31.98 45.54 31.98 44.5V44.5V44.5V44.5V44.5V44.5z
           M31.98 35.11C31.98 36.15 31.98 37.2 31.98 38.25C30.95 38.25 29.9 38.25 28.86 38.25C28.86 39.29 28.86 40.33 28.86 41.38C29.9 41.38 30.95 41.38 31.98 41.38C31.98 42.41 31.98 43.47 31.98 44.5C33.02 44.5 34.06 44.5 35.11 44.5C35.11 41.38 35.11 38.25 35.11 35.11C34.06 35.11 33.02 35.11 31.98 35.11V35.11V35.11V35.11V35.11V35.11z
           M25.72 31.98C25.72 33.02 25.72 34.06 25.72 35.11C27.81 35.11 29.9 35.11 31.98 35.11C31.98 33.02 31.98 30.95 31.98 28.86C30.95 28.86 29.9 28.86 28.86 28.86C28.86 29.9 28.86 30.95 28.86 31.98C27.81 31.98 26.78 31.98 25.72 31.98V31.98V31.98V31.98V31.98V31.98z
           M10.06 28.86C10.06 29.9 10.06 30.95 10.06 31.98C11.11 31.98 12.15 31.98 13.21 31.98C13.21 30.95 13.21 29.9 13.21 28.86C12.15 28.86 11.11 28.86 10.06 28.86V28.86V28.86V28.86V28.86V28.86z
           M38.25 6.94C38.25 13.21 38.25 19.46 38.25 25.72C44.5 25.72 50.77 25.72 57.04 25.72C57.04 19.46 57.04 13.21 57.04 6.94C50.77 6.94 44.5 6.94 38.25 6.94V6.94V6.94V6.94V6.94V6.94z
           M31.98 10.06C31.98 11.11 31.98 12.15 31.98 13.21C30.95 13.21 29.9 13.21 28.86 13.21C28.86 14.25 28.86 15.28 28.86 16.34C30.95 16.34 33.02 16.34 35.11 16.34C35.11 14.25 35.11 12.15 35.11 10.06C34.06 10.06 33.02 10.06 31.98 10.06V10.06V10.06V10.06V10.06V10.06z
           M6.94 6.94C6.94 13.21 6.94 19.46 6.94 25.72C13.21 25.72 19.46 25.72 25.72 25.72C25.72 19.46 25.72 13.21 25.72 6.94C19.46 6.94 13.21 6.94 6.94 6.94V6.94V6.94V6.94V6.94V6.94z
           M41.38 41.38C43.47 41.38 45.54 41.38 47.63 41.38C47.63 43.47 47.63 45.54 47.63 47.63C45.54 47.63 43.47 47.63 41.38 47.63C41.38 45.54 41.38 43.47 41.38 41.38V41.38V41.38V41.38V41.38V41.38z
           M31.98 22.6C31.98 23.63 31.98 24.69 31.98 25.72C33.02 25.72 34.06 25.72 35.11 25.72C35.11 24.69 35.11 23.63 35.11 22.6C34.06 22.6 33.02 22.6 31.98 22.6V22.6V22.6V22.6V22.6V22.6z
           M28.86 19.46C28.86 20.51 28.86 21.55 28.86 22.6C29.9 22.6 30.95 22.6 31.98 22.6C31.98 21.55 31.98 20.51 31.98 19.46C30.95 19.46 29.9 19.46 28.86 19.46V19.46V19.46V19.46V19.46V19.46z
           M28.86 6.94C28.86 7.98 28.86 9.02 28.86 10.06C29.9 10.06 30.95 10.06 31.98 10.06C31.98 9.02 31.98 7.98 31.98 6.94C30.95 6.94 29.9 6.94 28.86 6.94V6.94V6.94V6.94V6.94V6.94z
           M10.06 10.06C14.25 10.06 18.42 10.06 22.6 10.06C22.6 14.25 22.6 18.42 22.6 22.6C18.42 22.6 14.25 22.6 10.06 22.6C10.06 18.42 10.06 14.25 10.06 10.06V10.06V10.06V10.06V10.06V10.06z
           M41.38 10.06C45.54 10.06 49.72 10.06 53.9 10.06C53.9 14.25 53.9 18.42 53.9 22.6C49.72 22.6 45.54 22.6 41.38 22.6C41.38 18.42 41.38 14.25 41.38 10.06V10.06V10.06V10.06V10.06V10.06z
           M13.21 13.21C13.21 15.28 13.21 17.37 13.21 19.46C15.28 19.46 17.37 19.46 19.46 19.46C19.46 17.37 19.46 15.28 19.46 13.21C17.37 13.21 15.28 13.21 13.21 13.21V13.21V13.21V13.21V13.21V13.21z
           M44.5 13.21C44.5 15.28 44.5 17.37 44.5 19.46C46.59 19.46 48.68 19.46 50.77 19.46C50.77 17.37 50.77 15.28 50.77 13.21C48.68 13.21 46.59 13.21 44.5 13.21V13.21V13.21V13.21V13.21V13.21z
           M13.21 31.98C13.21 33.02 13.21 34.06 13.21 35.11C15.28 35.11 17.37 35.11 19.46 35.11C19.46 34.06 19.46 33.02 19.46 31.98C17.37 31.98 15.28 31.98 13.21 31.98V31.98V31.98V31.98V31.98V31.98z
           M19.46 31.98C20.51 31.98 21.55 31.98 22.6 31.98C23.63 31.98 24.69 31.98 25.72 31.98C25.72 30.95 25.72 29.9 25.72 28.86C24.69 28.86 23.63 28.86 22.6 28.86C21.55 28.86 20.51 28.86 19.46 28.86C19.46 29.9 19.46 30.95 19.46 31.98V31.98V31.98V31.98V31.98V31.98z
           M53.9 53.9C53.9 54.95 53.9 55.99 53.9 57.04C54.95 57.04 55.99 57.04 57.04 57.04C57.04 55.99 57.04 54.95 57.04 53.9C55.99 53.9 54.95 53.9 53.9 53.9V53.9V53.9V53.9V53.9V53.9z
           M35.11 53.9C35.11 54.95 35.11 55.99 35.11 57.04C36.15 57.04 37.2 57.04 38.25 57.04C38.25 55.99 38.25 54.95 38.25 53.9C37.2 53.9 36.15 53.9 35.11 53.9V53.9V53.9V53.9V53.9V53.9z"
  />
 </g>
</svg>
