<?xml version="1.0" encoding="UTF-8" standalone="yes"?>
<svg version="1.1" width="64" height="64" color-interpolation="linearRGB"
     xmlns:svg="http://www.w3.org/2000/svg" xmlns="http://www.w3.org/2000/svg">
 <g>
  <path style="fill:none; stroke:#000000; stroke-opacity:0.4; stroke-width:4.9604; stroke-linecap:round; stroke-linejoin:round"
        d="M25 22C25 37.55 25 28.44 25 44C12.5 44 20.48 44 8 44C8 28.44 8 37.55 8 22C8 22 12.5 22 25 22z"
        transform="matrix(1,0,0,1,0,16)"
  />
  <path style="fill:none; stroke:#000080; stroke-width:4.9604; stroke-linecap:round; stroke-linejoin:round"
        d="M25 22C25 37.55 25 28.44 25 44C12.5 44 20.48 44 8 44C8 28.44 8 37.55 8 22C8 22 12.5 22 25 22z"
        transform="matrix(1,0,0,1,-2,14)"
  />
  <linearGradient id="gradient0" gradientUnits="userSpaceOnUse" x1="164.88" y1="7.42" x2="164.88" y2="54.09">
   <stop offset="0" stop-color="#ffffff"/>
   <stop offset="1" stop-color="#d9d9ff"/>
  </linearGradient>
  <path style="fill:url(#gradient0)"
        d="M25 22C25 37.55 25 28.44 25 44C12.5 44 20.48 44 8 44C8 28.44 8 37.55 8 22C8 22 12.5 22 25 22z"
        transform="matrix(1,0,0,1,-2,14)"
  />
  <path style="fill:none; stroke:#000000; stroke-opacity:0.4; stroke-width:4.9604; stroke-linecap:round; stroke-linejoin:round"
        d="M25 22C25 37.55 25 28.44 25 44C12.5 44 20.48 44 8 44C8 28.44 8 37.55 8 22C8 22 12.5 22 25 22z"
        transform="matrix(1,0,0,1,35,16)"
  />
  <path style="fill:none; stroke:#000080; stroke-width:4.9604; stroke-linecap:round; stroke-linejoin:round"
        d="M25 22C25 37.55 25 28.44 25 44C12.5 44 20.48 44 8 44C8 28.44 8 37.55 8 22C8 22 12.5 22 25 22z"
        transform="matrix(1,0,0,1,33,14)"
  />
  <linearGradient id="gradient1" gradientUnits="userSpaceOnUse" x1="164.88" y1="7.42" x2="164.88" y2="54.09">
   <stop offset="0" stop-color="#ffffff"/>
   <stop offset="1" stop-color="#d9d9ff"/>
  </linearGradient>
  <path style="fill:url(#gradient1)"
        d="M25 22C25 37.55 25 28.44 25 44C12.5 44 20.48 44 8 44C8 28.44 8 37.55 8 22C8 22 12.5 22 25 22z"
        transform="matrix(1,0,0,1,33,14)"
  />
  <path style="fill:none; stroke:#000000; stroke-opacity:0.4; stroke-width:4.9604; stroke-linecap:round; stroke-linejoin:round"
        d="M25 22C25 37.55 25 28.44 25 44C12.5 44 20.48 44 8 44C8 28.44 8 37.55 8 22C8 22 12.5 22 25 22z"
        transform="matrix(1,0,0,1,18,-14)"
  />
  <path style="fill:none; stroke:#000080; stroke-width:4.9604; stroke-linecap:round; stroke-linejoin:round"
        d="M25 22C25 37.55 25 28.44 25 44C12.5 44 20.48 44 8 44C8 28.44 8 37.55 8 22C8 22 12.5 22 25 22z"
        transform="matrix(1,0,0,1,16,-16)"
  />
  <linearGradient id="gradient2" gradientUnits="userSpaceOnUse" x1="164.88" y1="7.42" x2="164.88" y2="54.09">
   <stop offset="0" stop-color="#ffffff"/>
   <stop offset="1" stop-color="#d9d9ff"/>
  </linearGradient>
  <path style="fill:url(#gradient2)"
        d="M25 22C25 37.55 25 28.44 25 44C12.5 44 20.48 44 8 44C8 28.44 8 37.55 8 22C8 22 12.5 22 25 22z"
        transform="matrix(1,0,0,1,16,-16)"
  />
 </g>
</svg>
