<?xml version="1.0" encoding="UTF-8" standalone="yes"?>
<svg version="1.1" width="64" height="64" color-interpolation="linearRGB"
     xmlns:svg="http://www.w3.org/2000/svg" xmlns="http://www.w3.org/2000/svg">
 <g>
  <path style="fill:none; stroke:#000000; stroke-opacity:0.4; stroke-width:5.3304; stroke-linecap:round; stroke-linejoin:round"
        d="M13 6H53V24C53 24 48 33 33 27C21.36 22.34 13 30 13 30V6z"
        transform="matrix(1,0,0,1,2,2)"
  />
  <path style="fill:none; stroke:#000080; stroke-width:5.3304; stroke-linecap:round; stroke-linejoin:round"
        d="M13 6H53V24C53 24 48 33 33 27C21.36 22.34 13 30 13 30V6z"
  />
  <linearGradient id="gradient0" gradientUnits="userSpaceOnUse" x1="172.46" y1="11.49" x2="172.46" y2="51.63">
   <stop offset="0" stop-color="#ffffff"/>
   <stop offset="1" stop-color="#d9d9ff"/>
  </linearGradient>
  <path style="fill:url(#gradient0)"
        d="M13 6H53V24C53 24 48 33 33 27C21.36 22.34 13 30 13 30V6z"
  />
  <path style="fill:#000080"
        d="M16 9H50V11H16V9z"
  />
  <path style="fill:#000080"
        d="M16 9H50V11H16V9z"
        transform="matrix(1,0,0,1,0,6)"
  />
  <path style="fill:#000080"
        d="M16 9H50V11H16V9z"
        transform="matrix(1,0,0,1,0,12)"
  />
  <path style="fill:none; stroke:#000000; stroke-opacity:0.4; stroke-width:5.3304; stroke-linecap:round; stroke-linejoin:round"
        d="M13 46C13 46 19.51 36.18 33 41C47 46 53 40 53 40V55H13V46z"
        transform="matrix(1,0,0,1,2,2)"
  />
  <path style="fill:none; stroke:#000080; stroke-width:5.3304; stroke-linecap:round; stroke-linejoin:round"
        d="M13 46C13 46 19.51 36.18 33 41C47 46 53 40 53 40V55H13V46z"
  />
  <linearGradient id="gradient1" gradientUnits="userSpaceOnUse" x1="172.46" y1="11.49" x2="172.46" y2="51.63">
   <stop offset="0" stop-color="#ffffff"/>
   <stop offset="1" stop-color="#d9d9ff"/>
  </linearGradient>
  <path style="fill:url(#gradient1)"
        d="M13 46C13 46 19.51 36.18 33 41C47 46 53 40 53 40V55H13V46z"
  />
  <path style="fill:#000080"
        d="M16 9H50V11H16V9z"
        transform="matrix(1,0,0,1,0,41)"
  />
  <path style="fill:#000080"
        d="M16 9H50V11H16V9z"
        transform="matrix(0.5,0,0,1,8,36)"
  />
 </g>
</svg>
