<?xml version="1.0" encoding="UTF-8" standalone="yes"?>
<svg version="1.1" width="64" height="64" color-interpolation="linearRGB"
     xmlns:svg="http://www.w3.org/2000/svg" xmlns="http://www.w3.org/2000/svg">
 <g>
  <path style="fill:none; stroke:#000000; stroke-opacity:0.4; stroke-width:4; stroke-linecap:round; stroke-linejoin:round"
        d="M42 4H32V42H42V4z
           M14 30H4V42H14V30z
           M28 18H18V42H28V18z"
        transform="matrix(1.409,0,0,1.409,1,1)"
  />
  <path style="fill:none; stroke:#800000; stroke-width:4"
        d="M40 2H30V40H40V2z"
        transform="matrix(1.409,0,0,1.409,1,1)"
  />
  <path style="fill:none; stroke:#004080; stroke-width:4"
        d="M26 16H16V40H26V16z"
        transform="matrix(1.409,0,0,1.409,1,1)"
  />
  <path style="fill:none; stroke:#005900; stroke-width:4"
        d="M12 28H2V40H12V28z"
        transform="matrix(1.409,0,0,1.409,1,1)"
  />
  <linearGradient id="gradient0" gradientUnits="userSpaceOnUse" x1="128" y1="1.99" x2="128" y2="40">
   <stop offset="0" stop-color="#ffabab"/>
   <stop offset="1" stop-color="#d90000"/>
  </linearGradient>
  <path style="fill:url(#gradient0)"
        d="M40 2H30V40H40V2z"
        transform="matrix(1.409,0,0,1.409,1,1)"
  />
  <linearGradient id="gradient1" gradientUnits="userSpaceOnUse" x1="128" y1="16" x2="128" y2="40">
   <stop offset="0" stop-color="#abd5ff"/>
   <stop offset="1" stop-color="#006cd9"/>
  </linearGradient>
  <path style="fill:url(#gradient1)"
        d="M26 16H16V40H26V16z"
        transform="matrix(1.409,0,0,1.409,1,1)"
  />
  <linearGradient id="gradient2" gradientUnits="userSpaceOnUse" x1="128" y1="28" x2="128" y2="40">
   <stop offset="0" stop-color="#80ff80"/>
   <stop offset="1" stop-color="#00b200"/>
  </linearGradient>
  <path style="fill:url(#gradient2)"
        d="M12 28H2V40H12V28z"
        transform="matrix(1.409,0,0,1.409,1,1)"
  />
 </g>
</svg>
