<?xml version="1.0" encoding="UTF-8" standalone="yes"?>
<svg version="1.1" width="64" height="64" color-interpolation="linearRGB"
     xmlns:svg="http://www.w3.org/2000/svg" xmlns="http://www.w3.org/2000/svg">
 <g>
  <path style="fill:none; stroke:#545454; stroke-width:4.8056; stroke-linecap:round; stroke-linejoin:round"
        d="M23.27 15.19C32.95 15.19 42.65 15.19 52.36 15.19C52.36 27.72 52.36 40.24 52.36 52.77C42.65 52.77 32.95 52.77 23.27 52.77C23.27 40.24 23.27 27.72 23.27 15.19V15.19V15.19V15.19V15.19V15.19z
           M8.72 12.52C8.72 26.82 8.72 41.13 8.72 55.45C24.22 55.45 39.75 55.45 55.27 55.45C55.27 41.13 55.27 26.82 55.27 12.52C39.75 12.52 24.22 12.52 8.72 12.52V12.52V12.52V12.52V12.52V12.52z"
  />
  <path style="fill:none; stroke:#bf5000; stroke-width:4.1048; stroke-linecap:round; stroke-linejoin:round"
        d="M8.47 12.18C8.47 9.97 8.47 7.78 8.47 5.59C13.47 5.59 18.47 5.59 23.5 5.59C23.5 7.78 23.5 9.97 23.5 12.18C18.47 12.18 13.47 12.18 8.47 12.18V12.18V12.18V12.18V12.18V12.18V12.18z"
  />
  <path style="fill:#ffd400"
        d="M8.47 13.64C8.47 11.14 8.47 8.61 8.47 6.11C13.47 6.11 18.47 6.11 23.5 6.11C23.5 8.61 23.5 11.14 23.5 13.64C18.47 13.64 13.47 13.64 8.47 13.64V13.64V13.64V13.64V13.64V13.64V13.64z"
  />
  <path style="fill:#ffffff"
        d="M23.27 15.19C32.95 15.19 42.65 15.19 52.36 15.19C52.36 27.72 52.36 40.24 52.36 52.77C42.65 52.77 32.95 52.77 23.27 52.77C23.27 40.24 23.27 27.72 23.27 15.19V15.19V15.19V15.19V15.19V15.19z
           M8.72 12.52C8.72 26.82 8.72 41.13 8.72 55.45C24.22 55.45 39.75 55.45 55.27 55.45C55.27 41.13 55.27 26.82 55.27 12.52C39.75 12.52 24.22 12.52 8.72 12.52V12.52V12.52V12.52V12.52V12.52z"
  />
  <path style="fill:none; stroke:#000000; stroke-opacity:0.4; stroke-width:1.7719; stroke-linecap:round; stroke-linejoin:round"
        d="M34.01 32.74C32.83 31.56 31.65 30.38 30.47 29.2C28.85 30.82 27.22 32.44 25.6 34.07C23.97 32.44 22.35 30.82 20.73 29.2C19.55 30.38 18.37 31.56 17.19 32.74C18.81 34.36 20.43 35.99 22.06 37.61C20.43 39.24 18.81 40.86 17.19 42.49C18.37 43.67 19.55 44.85 20.73 46.03C22.35 44.41 23.97 42.78 25.6 41.16C27.22 42.78 28.85 44.41 30.47 46.03C31.65 44.85 32.83 43.67 34.01 42.49C32.39 40.86 30.77 39.24 29.14 37.61C30.77 35.99 32.39 34.36 34.01 32.74V32.74V32.74V32.74V32.74z"
        transform="matrix(1,0,0,1,13,0)"
  />
  <path style="fill:none; stroke:#800000; stroke-width:3.608; stroke-linecap:round; stroke-linejoin:round"
        d="M33.13 29.85C31.95 28.67 30.77 27.49 29.59 26.31C27.96 27.93 26.34 29.56 24.71 31.18C23.09 29.56 21.46 27.93 19.84 26.31C18.66 27.49 17.48 28.67 16.3 29.85C17.92 31.48 19.55 33.1 21.17 34.73C19.55 36.35 17.92 37.98 16.3 39.6C17.48 40.78 18.66 41.96 19.84 43.15C21.46 41.52 23.09 39.9 24.71 38.28C26.34 39.9 27.96 41.52 29.59 43.15C30.77 41.96 31.95 40.78 33.13 39.6C31.51 37.98 29.88 36.35 28.26 34.73C29.88 33.1 31.51 31.48 33.13 29.85V29.85V29.85V29.85V29.85z"
        transform="matrix(1,0,0,1,13,0)"
  />
  <linearGradient id="gradient0" gradientUnits="userSpaceOnUse" x1="72.1" y1="28.08" x2="72.1" y2="43.15">
   <stop offset="0" stop-color="#ffabab"/>
   <stop offset="1" stop-color="#d90000"/>
  </linearGradient>
  <path style="fill:url(#gradient0)"
        d="M33.13 29.85C31.95 28.67 30.77 27.49 29.59 26.31C27.96 27.93 26.34 29.56 24.71 31.18C23.09 29.56 21.46 27.93 19.84 26.31C18.66 27.49 17.48 28.67 16.3 29.85C17.92 31.48 19.55 33.1 21.17 34.73C19.55 36.35 17.92 37.98 16.3 39.6C17.48 40.78 18.66 41.96 19.84 43.15C21.46 41.52 23.09 39.9 24.71 38.28C26.34 39.9 27.96 41.52 29.59 43.15C30.77 41.96 31.95 40.78 33.13 39.6C31.51 37.98 29.88 36.35 28.26 34.73C29.88 33.1 31.51 31.48 33.13 29.85V29.85V29.85V29.85V29.85z"
        transform="matrix(1,0,0,1,13,0)"
  />
 </g>
</svg>
