<?xml version="1.0" encoding="UTF-8" standalone="yes"?>
<svg version="1.1" width="64" height="64" color-interpolation="linearRGB"
     xmlns:svg="http://www.w3.org/2000/svg" xmlns="http://www.w3.org/2000/svg">
 <g>
  <path style="fill:none; stroke:#000000; stroke-opacity:0.4; stroke-width:8.8747; stroke-linecap:round; stroke-linejoin:round"
        d="M37.06 21.73C43.57 21.73 50.07 21.73 56.57 21.73"
        transform="matrix(1,0,0,1,2,1)"
  />
  <path style="fill:none; stroke:#545454; stroke-width:9.6; stroke-linecap:round; stroke-linejoin:round"
        d="M37.06 21.73C43.57 21.73 50.07 21.73 56.57 21.73"
  />
  <linearGradient id="gradient0" gradientUnits="userSpaceOnUse" x1="134.64" y1="16.48" x2="134.64" y2="21.73">
   <stop offset="0" stop-color="#ffffff"/>
   <stop offset="1" stop-color="#e5e5e5"/>
  </linearGradient>
  <path style="fill:none; stroke:url(#gradient0); stroke-width:4.4372; stroke-linecap:round; stroke-linejoin:round"
        d="M37.06 21.73C43.57 21.73 50.07 21.73 56.57 21.73"
  />
  <path style="fill:none; stroke:#000000; stroke-opacity:0.4; stroke-width:8.8747; stroke-linecap:round; stroke-linejoin:round"
        d="M37.06 21.73C43.57 21.73 50.07 21.73 56.57 21.73"
        transform="matrix(1,0,0,1,2,18)"
  />
  <path style="fill:none; stroke:#545454; stroke-width:9.6; stroke-linecap:round; stroke-linejoin:round"
        d="M37.06 21.73C43.57 21.73 50.07 21.73 56.57 21.73"
        transform="matrix(1,0,0,1,0,17)"
  />
  <linearGradient id="gradient1" gradientUnits="userSpaceOnUse" x1="134.64" y1="16.48" x2="134.64" y2="21.73">
   <stop offset="0" stop-color="#ffffff"/>
   <stop offset="1" stop-color="#e5e5e5"/>
  </linearGradient>
  <path style="fill:none; stroke:url(#gradient1); stroke-width:4.4372; stroke-linecap:round; stroke-linejoin:round"
        d="M37.06 21.73C43.57 21.73 50.07 21.73 56.57 21.73"
        transform="matrix(1,0,0,1,0,17)"
  />
  <path style="fill:none; stroke:#000000; stroke-opacity:0.4; stroke-width:8.8747; stroke-linecap:round; stroke-linejoin:round"
        d="M37.06 21.73C43.57 21.73 50.07 21.73 56.57 21.73"
        transform="matrix(1,0,0,1,2,35)"
  />
  <path style="fill:none; stroke:#545454; stroke-width:9.6; stroke-linecap:round; stroke-linejoin:round"
        d="M37.06 21.73C43.57 21.73 50.07 21.73 56.57 21.73"
        transform="matrix(1,0,0,1,0,34)"
  />
  <linearGradient id="gradient2" gradientUnits="userSpaceOnUse" x1="134.64" y1="16.48" x2="134.64" y2="21.73">
   <stop offset="0" stop-color="#ffffff"/>
   <stop offset="1" stop-color="#e5e5e5"/>
  </linearGradient>
  <path style="fill:none; stroke:url(#gradient2); stroke-width:4.4372; stroke-linecap:round; stroke-linejoin:round"
        d="M37.06 21.73C43.57 21.73 50.07 21.73 56.57 21.73"
        transform="matrix(1,0,0,1,0,34)"
  />
  <path style="fill:none; stroke:#000000; stroke-opacity:0.4; stroke-width:4; stroke-linecap:round; stroke-linejoin:round"
        d="M5.98 40C5.32 33.33 4.65 26.66 3.99 20C16.65 20 29.33 20 42 20C41.33 26.66 40.66 33.33 40 40C28.66 40 17.32 40 5.98 40V40V40z
           M6 40C17.33 40 28.66 40 40 40C39.33 28.66 38.66 17.33 38 6C35.33 6 32.66 6 30 6C29.33 7.33 28.66 8.66 28 10C21.33 10 14.66 10 8 10C7.33 20 6.66 30 6 40V40V40z"
        transform="matrix(0.5908,0,0,0.5999,3.9999,2.7999)"
  />
  <path style="fill:none; stroke:#bf5000; stroke-width:8; stroke-linecap:round; stroke-linejoin:round"
        d="M4 38C15.33 38 26.66 38 38 38C37.33 26.66 36.66 15.33 36 4C33.33 4 30.66 4 28 4C27.33 5.33 26.66 6.66 26 8C19.33 8 12.66 8 6 8C5.33 18 4.66 28 4 38V38V38z"
        transform="matrix(0.5908,0,0,0.5999,3.9999,2.7999)"
  />
  <path style="fill:#ffc800"
        d="M4 38C15.33 38 26.66 38 38 38C37.33 26.66 36.66 15.33 36 4C33.33 4 30.66 4 28 4C27.33 5.33 26.66 6.66 26 8C19.33 8 12.66 8 6 8C5.33 18 4.66 28 4 38V38V38z"
        transform="matrix(0.5908,0,0,0.5999,3.9999,2.7999)"
  />
  <path style="fill:none; stroke:#bf5000; stroke-width:4; stroke-linecap:round; stroke-linejoin:round"
        d="M3.99 38C3.32 31.33 2.65 24.66 1.99 18C14.65 18 27.33 18 40 18C39.33 24.66 38.66 31.33 38 38C26.66 38 15.32 38 3.99 38V38V38z"
        transform="matrix(0.5908,0,0,0.5999,3.9999,2.7999)"
  />
  <linearGradient id="gradient3" gradientUnits="userSpaceOnUse" x1="128" y1="20" x2="128" y2="40">
   <stop offset="0" stop-color="#ffea80"/>
   <stop offset="1" stop-color="#ffbb00"/>
  </linearGradient>
  <path style="fill:url(#gradient3)"
        d="M3.99 38C3.32 31.33 2.65 24.66 1.99 18C14.65 18 27.33 18 40 18C39.33 24.66 38.66 31.33 38 38C26.66 38 15.32 38 3.99 38V38V38z"
        transform="matrix(0.5908,0,0,0.5999,3.9999,2.7999)"
  />
  <path style="fill:none; stroke:#000000; stroke-opacity:0.4; stroke-width:6; stroke-linecap:round; stroke-linejoin:round"
        d="M7 5C6.33 5 5.66 5 5 5"
        transform="matrix(1,0,0,1,22,36)"
  />
  <path style="fill:none; stroke:#545454; stroke-width:6; stroke-linecap:round; stroke-linejoin:round"
        d="M5 3C4.33 3 3.66 3 3 3"
        transform="matrix(1,0,0,1,22,36)"
  />
  <path style="fill:none; stroke:#ffffff; stroke-width:2; stroke-linecap:round; stroke-linejoin:round"
        d="M5 3C4.33 3 3.66 3 3 3"
        transform="matrix(1,0,0,1,22,36)"
  />
  <path style="fill:none; stroke:#000000; stroke-opacity:0.4; stroke-width:6; stroke-linecap:round; stroke-linejoin:round"
        d="M7 5C6.33 5 5.66 5 5 5"
        transform="matrix(1,0,0,1,22,52)"
  />
  <path style="fill:none; stroke:#545454; stroke-width:6; stroke-linecap:round; stroke-linejoin:round"
        d="M5 3C4.33 3 3.66 3 3 3"
        transform="matrix(1,0,0,1,22,52)"
  />
  <path style="fill:none; stroke:#ffffff; stroke-width:2; stroke-linecap:round; stroke-linejoin:round"
        d="M5 3C4.33 3 3.66 3 3 3"
        transform="matrix(1,0,0,1,22,52)"
  />
  <path style="fill:none; stroke:#000000; stroke-opacity:0.4; stroke-width:6; stroke-linecap:round; stroke-linejoin:round"
        d="M7 5C6.33 5 5.66 5 5 5"
        transform="matrix(-0.0333,-0.9994,0.9994,-0.0333,13.1687,52.1304)"
  />
  <path style="fill:none; stroke:#545454; stroke-width:6; stroke-linecap:round; stroke-linejoin:round"
        d="M5 3C4.33 3 3.66 3 3 3"
        transform="matrix(-0.0333,-0.9994,0.9994,-0.0333,13.1687,48.1304)"
  />
  <path style="fill:none; stroke:#ffffff; stroke-width:2; stroke-linecap:round; stroke-linejoin:round"
        d="M5 3C4.33 3 3.66 3 3 3"
        transform="matrix(-0.0333,-0.9994,0.9994,-0.0333,13.1687,48.1304)"
  />
  <path style="fill:none; stroke:#000000; stroke-opacity:0.4; stroke-width:6; stroke-linecap:round; stroke-linejoin:round"
        d="M7 5C6.33 5 5.66 5 5 5"
        transform="matrix(-0.0333,-0.9994,0.9994,-0.0333,13.1687,41.1304)"
  />
  <path style="fill:none; stroke:#545454; stroke-width:6; stroke-linecap:round; stroke-linejoin:round"
        d="M5 3C4.33 3 3.66 3 3 3"
        transform="matrix(-0.0333,-0.9994,0.9994,-0.0333,13.1687,37.1304)"
  />
  <path style="fill:none; stroke:#ffffff; stroke-width:2; stroke-linecap:round; stroke-linejoin:round"
        d="M5 3C4.33 3 3.66 3 3 3"
        transform="matrix(-0.0333,-0.9994,0.9994,-0.0333,13.1687,37.1304)"
  />
  <path style="fill:none; stroke:#000000; stroke-opacity:0.4; stroke-width:6; stroke-linecap:round; stroke-linejoin:round"
        d="M7 5C6.33 5 5.66 5 5 5"
        transform="matrix(-0.0333,-0.9994,0.9994,-0.0333,13.1687,62.1304)"
  />
  <path style="fill:none; stroke:#545454; stroke-width:6; stroke-linecap:round; stroke-linejoin:round"
        d="M5 3C4.33 3 3.66 3 3 3"
        transform="matrix(-0.0333,-0.9994,0.9994,-0.0333,13.1687,58.1304)"
  />
  <path style="fill:none; stroke:#ffffff; stroke-width:2; stroke-linecap:round; stroke-linejoin:round"
        d="M5 3C4.33 3 3.66 3 3 3"
        transform="matrix(-0.0333,-0.9994,0.9994,-0.0333,13.1687,58.1304)"
  />
 </g>
</svg>
