<?xml version="1.0" encoding="UTF-8" standalone="yes"?>
<svg version="1.1" width="64" height="64" color-interpolation="linearRGB"
     xmlns:svg="http://www.w3.org/2000/svg" xmlns="http://www.w3.org/2000/svg">
 <g>
  <path style="fill:none; stroke:#545454; stroke-width:4.8057; stroke-linecap:round; stroke-linejoin:round"
        d="M8.72 12.52C8.72 26.83 8.72 41.14 8.72 55.45C24.23 55.45 39.75 55.45 55.27 55.45C55.27 41.14 55.27 26.83 55.27 12.52C39.75 12.52 24.23 12.52 8.72 12.52V12.52V12.52V12.52z
           M38 15.55C38 28.06 38 39.91 38 52.44C28.29 52.44 21.69 52.44 12 52.44C12 39.91 12 28.06 12 15.55C12 15.55 28.29 15.55 38 15.55V15.55V15.55z"
  />
  <path style="fill:none; stroke:#bf5000; stroke-width:4.1048; stroke-linecap:round; stroke-linejoin:round"
        d="M8.48 12.18C8.48 9.98 8.48 7.78 8.48 5.59C13.48 5.59 18.48 5.59 23.5 5.59C23.5 7.78 23.5 9.98 23.5 12.18C18.48 12.18 13.48 12.18 8.48 12.18V12.18V12.18V12.18V12.18z"
  />
  <path style="fill:#ffd400"
        d="M8.48 13.65C8.48 11.14 8.48 8.62 8.48 6.11C13.48 6.11 18.48 6.11 23.5 6.11C23.5 8.62 23.5 11.14 23.5 13.65C18.48 13.65 13.48 13.65 8.48 13.65V13.65V13.65V13.65V13.65z"
  />
  <path style="fill:#ffffff"
        d="M8.72 12.52C8.72 26.83 8.72 41.14 8.72 55.45C24.23 55.45 39.75 55.45 55.27 55.45C55.27 41.14 55.27 26.83 55.27 12.52C39.75 12.52 24.23 12.52 8.72 12.52V12.52V12.52V12.52z
           M38 15.55C38 28.06 38 39.91 38 52.44C28.29 52.44 21.69 52.44 12 52.44C12 39.91 12 28.06 12 15.55C12 15.55 28.29 15.55 38 15.55V15.55V15.55z"
  />
  <path style="fill:none; stroke:#000000; stroke-opacity:0.4; stroke-width:4.9112; stroke-linecap:round; stroke-linejoin:round"
        d="M56.54 19.71C53.27 16.43 50 13.16 46.72 9.89C42.22 14.39 37.72 18.89 33.21 23.39C28.71 18.89 24.21 14.39 19.71 9.89C16.43 13.16 13.16 16.43 9.89 19.71C14.39 24.21 18.89 28.71 23.39 33.21C18.89 37.72 14.39 42.22 9.89 46.72C13.16 50 16.43 53.27 19.71 56.54C24.21 52.04 28.71 47.54 33.21 43.04C37.72 47.54 42.22 52.04 46.72 56.54C50 53.27 53.27 50 56.54 46.72C52.04 42.22 47.54 37.72 43.04 33.21C47.54 28.71 52.04 24.21 56.54 19.71V19.71V19.71z"
        transform="matrix(0.3607,0,0,0.3609,13.6243,25.6315)"
  />
  <path style="fill:none; stroke:#800000; stroke-width:10; stroke-linecap:round; stroke-linejoin:round"
        d="M54.09 17.25C50.81 13.98 47.54 10.71 44.27 7.43C39.76 11.93 35.26 16.43 30.76 20.94C26.26 16.43 21.75 11.93 17.25 7.43C13.98 10.71 10.71 13.98 7.43 17.25C11.93 21.75 16.43 26.26 20.94 30.76C16.43 35.26 11.93 39.76 7.43 44.27C10.71 47.54 13.98 50.81 17.25 54.09C21.75 49.59 26.26 45.09 30.76 40.59C35.26 45.09 39.76 49.59 44.27 54.09C47.54 50.81 50.81 47.54 54.09 44.27C49.59 39.76 45.09 35.26 40.59 30.76C45.09 26.26 49.59 21.75 54.09 17.25V17.25V17.25z"
        transform="matrix(0.3607,0,0,0.3609,13.6243,23.6315)"
  />
  <linearGradient id="gradient0" gradientUnits="userSpaceOnUse" x1="162.14" y1="12.34" x2="162.14" y2="54.09">
   <stop offset="0" stop-color="#ffabab"/>
   <stop offset="1" stop-color="#d90000"/>
  </linearGradient>
  <path style="fill:url(#gradient0)"
        d="M54.09 17.25C50.81 13.98 47.54 10.71 44.27 7.43C39.76 11.93 35.26 16.43 30.76 20.94C26.26 16.43 21.75 11.93 17.25 7.43C13.98 10.71 10.71 13.98 7.43 17.25C11.93 21.75 16.43 26.26 20.94 30.76C16.43 35.26 11.93 39.76 7.43 44.27C10.71 47.54 13.98 50.81 17.25 54.09C21.75 49.59 26.26 45.09 30.76 40.59C35.26 45.09 39.76 49.59 44.27 54.09C47.54 50.81 50.81 47.54 54.09 44.27C49.59 39.76 45.09 35.26 40.59 30.76C45.09 26.26 49.59 21.75 54.09 17.25V17.25V17.25z"
        transform="matrix(0.3607,0,0,0.3609,13.6243,23.6315)"
  />
 </g>
</svg>
