<?xml version="1.0" encoding="UTF-8" standalone="yes"?>
<svg version="1.1" width="64" height="64" color-interpolation="linearRGB"
     xmlns:svg="http://www.w3.org/2000/svg" xmlns="http://www.w3.org/2000/svg">
 <g>
  <path style="fill:none; stroke:#000000; stroke-opacity:0.4; stroke-width:4; stroke-linecap:round; stroke-linejoin:round"
        d="M4 4V8L20 26L22 42H24L26 26L42 8V4H4z"
        transform="matrix(1.409,0,0,1.409,1,1)"
  />
  <path style="fill:none; stroke:#800000; stroke-width:4; stroke-linejoin:round"
        d="M2 2V6L18 24L20 40H22L24 24L40 6V2H2z"
        transform="matrix(1.409,0,0,1.409,1,1)"
  />
  <linearGradient id="gradient0" gradientUnits="userSpaceOnUse" x1="128" y1="1.99" x2="128" y2="40">
   <stop offset="0" stop-color="#ffabab"/>
   <stop offset="1" stop-color="#d90000"/>
  </linearGradient>
  <path style="fill:url(#gradient0)"
        d="M2 2V6L18 24L20 40H22L24 24L40 6V2H2z"
        transform="matrix(1.409,0,0,1.409,1,1)"
  />
  <path style="fill:#ffffff; fill-opacity:0.6862"
        d=""
        transform="matrix(1.409,0,0,1.409,1,1)"
  />
 </g>
</svg>
