<?xml version="1.0" encoding="UTF-8" standalone="yes"?>
<svg version="1.1" width="64" height="64" color-interpolation="linearRGB"
     xmlns:svg="http://www.w3.org/2000/svg" xmlns="http://www.w3.org/2000/svg">
 <g>
  <path style="fill:none; stroke:#000000; stroke-opacity:0.4; stroke-width:5.5459; stroke-linecap:round; stroke-linejoin:round"
        d="M6.63 18.36V7.45H23.54V18.36H6.63z
           M60.17 59.27H6.63V18.36H60.17V59.27z"
        transform="matrix(0.8699,0,0,0.7662,4.1844,6.5033)"
  />
  <path style="fill:none; stroke:#545454; stroke-width:5.5459; stroke-linecap:round; stroke-linejoin:round"
        d="M57.36 56.54H3.81V15.63H57.36V56.54z"
        transform="matrix(0.8872,0,0,0.7833,4.1178,6.4234)"
  />
  <path style="fill:none; stroke:#bf5000; stroke-width:5.5459; stroke-linecap:round; stroke-linejoin:round"
        d="M3.81 15.63V4.72H20.72V15.63H3.81z"
        transform="matrix(0.8872,0,0,0.7833,4.1178,6.4234)"
  />
  <path style="fill:#ffd400"
        d="M3.81 15.63V4.72H20.72V15.63H3.81z"
        transform="matrix(0.8872,0,0,0.7833,4.1178,6.4234)"
  />
  <linearGradient id="gradient0" gradientUnits="userSpaceOnUse" x1="3.81" y1="16.99" x2="57.36" y2="16.99">
   <stop offset="0.7947" stop-color="#ffffff"/>
   <stop offset="1" stop-color="#e6e1dc"/>
  </linearGradient>
  <path style="fill:url(#gradient0)"
        d="M57.36 56.54H3.81V15.63H57.36V56.54z"
        transform="matrix(0.8872,0,0,0.7833,4.1178,6.4234)"
  />
 </g>
</svg>
