<?xml version="1.0" encoding="UTF-8" standalone="yes"?>
<svg version="1.1" width="64" height="64" color-interpolation="linearRGB"
     xmlns:svg="http://www.w3.org/2000/svg" xmlns="http://www.w3.org/2000/svg">
 <g>
  <path style="fill:none; stroke:#000000; stroke-opacity:0.4; stroke-width:4.6926; stroke-linecap:round; stroke-linejoin:round"
        d="M6 14.09V5.36H21V14.09H6z
           M53.5 46.81H6V14.09H53.5V46.81z"
        transform="matrix(0.8672,0,0,0.888,4.201,4.0935)"
  />
  <path style="fill:none; stroke:#545454; stroke-width:4.6926; stroke-linecap:round; stroke-linejoin:round"
        d="M51 44.63H3.5V11.9H51V44.63z"
        transform="matrix(0.8864,0,0,0.888,4.131,4.0935)"
  />
  <path style="fill:none; stroke:#bf5000; stroke-width:4.6926; stroke-linecap:round; stroke-linejoin:round"
        d="M3.5 11.9V3.18H18.5V11.9H3.5z"
        transform="matrix(0.8864,0,0,0.888,4.131,4.0935)"
  />
  <path style="fill:#ffd400"
        d="M3.5 11.9V3.18H18.5V11.9H3.5z"
        transform="matrix(0.8864,0,0,0.888,4.131,4.0935)"
  />
  <linearGradient id="gradient0" gradientUnits="userSpaceOnUse" x1="3.5" y1="12.99" x2="51" y2="12.99">
   <stop offset="0.7947" stop-color="#ffffff"/>
   <stop offset="1" stop-color="#e6e1dc"/>
  </linearGradient>
  <path style="fill:url(#gradient0)"
        d="M51 44.63H3.5V11.9H51V44.63z"
        transform="matrix(0.8864,0,0,0.888,4.131,4.0935)"
  />
  <path style="fill:none; stroke:#000000; stroke-opacity:0.4; stroke-width:4.5183; stroke-linecap:round; stroke-linejoin:round"
        d="M13.9 30.27V22.09H28.63V30.27H13.9z
           M60.54 60.95H13.9V30.27H60.54V60.95z"
        transform="matrix(0.8669,0,0,0.8645,4.3587,4.5592)"
  />
  <path style="fill:none; stroke:#545454; stroke-width:4.5183; stroke-linecap:round; stroke-linejoin:round"
        d="M58.08 58.9H11.45V28.22H58.08V58.9z"
        transform="matrix(0.8864,0,0,0.888,4.131,4.0935)"
  />
  <path style="fill:none; stroke:#bf5000; stroke-width:4.5183; stroke-linecap:round; stroke-linejoin:round"
        d="M11.45 28.22V20.04H26.18V28.22H11.45z"
        transform="matrix(0.8864,0,0,0.888,4.131,4.0935)"
  />
  <path style="fill:#ffd400"
        d="M11.45 28.22V20.04H26.18V28.22H11.45z"
        transform="matrix(0.8864,0,0,0.888,4.131,4.0935)"
  />
  <linearGradient id="gradient1" gradientUnits="userSpaceOnUse" x1="11.45" y1="29.24" x2="58.08" y2="29.24">
   <stop offset="0.7947" stop-color="#ffffff"/>
   <stop offset="1" stop-color="#e6e1dc"/>
  </linearGradient>
  <path style="fill:url(#gradient1)"
        d="M58.08 58.9H11.45V28.22H58.08V58.9z"
        transform="matrix(0.8864,0,0,0.888,4.131,4.0935)"
  />
 </g>
</svg>
