<?xml version="1.0" encoding="UTF-8" standalone="yes"?>
<svg version="1.1" width="64" height="64" color-interpolation="linearRGB"
     xmlns:svg="http://www.w3.org/2000/svg" xmlns="http://www.w3.org/2000/svg">
 <g>
  <path style="fill:none; stroke:#000000; stroke-opacity:0.4; stroke-width:4; stroke-linecap:round; stroke-linejoin:round"
        d="M4 12V4H16V12H4z
           M42 42H4V12H42V42z"
        transform="matrix(1.409,0,0,1.3636,1,1.9999)"
  />
  <path style="fill:none; stroke:#545454; stroke-width:4; stroke-linecap:round; stroke-linejoin:round"
        d="M40 40H2V10H40V40z"
        transform="matrix(1.409,0,0,1.3636,1,1.9999)"
  />
  <path style="fill:none; stroke:#bf5000; stroke-width:4; stroke-linecap:round; stroke-linejoin:round"
        d="M2 10V2H14V10H2z"
        transform="matrix(1.409,0,0,1.3636,1,1.9999)"
  />
  <path style="fill:#ffd400"
        d="M2 10V2H14V10H2z"
        transform="matrix(1.409,0,0,1.3636,1,1.9999)"
  />
  <linearGradient id="gradient0" gradientUnits="userSpaceOnUse" x1="2" y1="11" x2="40" y2="11">
   <stop offset="0.7947" stop-color="#ffffff"/>
   <stop offset="1" stop-color="#e6e1dc"/>
  </linearGradient>
  <path style="fill:url(#gradient0)"
        d="M40 40H2V10H40V40z"
        transform="matrix(1.409,0,0,1.3636,1,1.9999)"
  />
 </g>
</svg>
