<?xml version="1.0" encoding="UTF-8" standalone="yes"?>
<svg version="1.1" width="64" height="64" color-interpolation="linearRGB"
     xmlns:svg="http://www.w3.org/2000/svg" xmlns="http://www.w3.org/2000/svg">
 <g>
  <path style="fill:none; stroke:#000000; stroke-width:4; stroke-linecap:round; stroke-linejoin:round"
        d="M21.39 42.59C15.26 48.73 9.13 54.86 3 61"
        transform="matrix(-0.0053,0.9028,-0.9028,-0.0053,61.0506,3.4797)"
  />
  <path style="fill:none; stroke:#484848; stroke-width:5; stroke-linecap:round; stroke-linejoin:bevel"
        d="M32.72 53.92C34.13 52.5 35.54 51.09 36.95 49.68C36.95 45.9 36.95 42.13 36.95 38.36C41.2 34.12 45.43 29.87 49.68 25.63C52.03 27.05 54.4 28.46 56.75 29.87C58.17 28.46 59.58 27.05 61 25.63C53.45 18.09 45.9 10.54 38.36 3C36.94 4.41 35.53 5.82 34.12 7.24C35.53 9.6 36.94 11.96 38.36 14.31C34.12 18.55 29.87 22.79 25.63 27.03C21.86 27.03 18.09 27.03 14.31 27.03C12.9 28.45 11.49 29.86 10.07 31.27C17.62 38.82 25.17 46.37 32.72 53.92V53.92z"
        transform="matrix(-0.0053,0.9028,-0.9028,-0.0053,61.0506,3.4797)"
  />
  <linearGradient id="gradient0" gradientUnits="userSpaceOnUse" x1="21.12" y1="7.81" x2="39.11" y2="7.25">
   <stop offset="0" stop-color="#ebebeb"/>
   <stop offset="1" stop-color="#848380"/>
  </linearGradient>
  <path style="fill:url(#gradient0)"
        d="M32.72 53.92C34.13 52.5 35.54 51.09 36.95 49.68C36.95 45.9 36.95 42.13 36.95 38.36C41.2 34.12 45.43 29.87 49.68 25.63C52.03 27.05 54.4 28.46 56.75 29.87C58.17 28.46 59.58 27.05 61 25.63C53.45 18.09 45.9 10.54 38.36 3C36.94 4.41 35.53 5.82 34.12 7.24C35.53 9.6 36.94 11.96 38.36 14.31C34.12 18.55 29.87 22.79 25.63 27.03C21.86 27.03 18.09 27.03 14.31 27.03C12.9 28.45 11.49 29.86 10.07 31.27C17.62 38.82 25.17 46.37 32.72 53.92V53.92z"
        transform="matrix(-0.0053,0.9028,-0.9028,-0.0053,61.0506,3.4797)"
  />
 </g>
</svg>
