<?xml version="1.0" encoding="UTF-8" standalone="yes"?>
<svg version="1.1" width="64" height="64" color-interpolation="linearRGB"
     xmlns:svg="http://www.w3.org/2000/svg" xmlns="http://www.w3.org/2000/svg">
 <g>
  <path style="fill:none; stroke:#000000; stroke-opacity:0.3882; stroke-width:4"
        d="M22.48 22.56C16.97 16.99 11.47 11.43 5.96 5.86
           M12.19 32.73C13.47 34.01 14.73 35.29 16 36.57C19.41 36.59 22.81 36.61 26.22 36.63C30.02 40.49 33.84 44.33 37.64 48.19C36.35 50.3 35.06 52.44 33.78 54.55C35.04 55.84 36.31 57.12 37.58 58.41C44.43 51.63 51.29 44.86 58.13 38.09C56.87 36.8 55.6 35.52 54.33 34.24C52.19 35.5 50.05 36.76 47.92 38.03C44.12 34.18 40.31 30.32 36.51 26.47C36.53 23.07 36.55 19.66 36.57 16.25C35.29 14.97 34.03 13.69 32.76 12.4C25.91 19.18 19.05 25.95 12.19 32.73V32.73V32.73V32.73z
           M12.19 32.73C13.47 34.01 14.73 35.29 16 36.57C19.41 36.59 22.81 36.61 26.22 36.63C30.02 40.49 33.84 44.33 37.64 48.19C36.35 50.3 35.06 52.44 33.78 54.55C35.04 55.84 36.31 57.12 37.58 58.41C44.43 51.63 51.29 44.86 58.13 38.09C56.87 36.8 55.6 35.52 54.33 34.24C52.19 35.5 50.05 36.76 47.92 38.03C44.12 34.18 40.31 30.32 36.51 26.47C36.53 23.07 36.55 19.66 36.57 16.25C35.29 14.97 34.03 13.69 32.76 12.4C25.91 19.18 19.05 25.95 12.19 32.73V32.73V32.73V32.73z"
        transform="matrix(1,0,0,1,0,3)"
  />
  <path style="fill:none; stroke:#000000; stroke-width:3.6112; stroke-linecap:round; stroke-linejoin:round"
        d="M22.48 22.56C16.97 16.99 11.47 11.43 5.96 5.86"
  />
  <path style="fill:none; stroke:#484848; stroke-width:4.514; stroke-linecap:round; stroke-linejoin:round"
        d="M12.19 32.73C13.47 34.01 14.73 35.29 16 36.57C19.41 36.59 22.81 36.61 26.22 36.63C30.02 40.49 33.84 44.33 37.64 48.19C36.35 50.3 35.06 52.44 33.78 54.55C35.04 55.84 36.31 57.12 37.58 58.41C44.43 51.63 51.29 44.86 58.13 38.09C56.87 36.8 55.6 35.52 54.33 34.24C52.19 35.5 50.05 36.76 47.92 38.03C44.12 34.18 40.31 30.32 36.51 26.47C36.53 23.07 36.55 19.66 36.57 16.25C35.29 14.97 34.03 13.69 32.76 12.4C25.91 19.18 19.05 25.95 12.19 32.73V32.73V32.73V32.73z"
  />
  <linearGradient id="gradient0" gradientUnits="userSpaceOnUse" x1="53.88" y1="22.5" x2="54.29" y2="38.74">
   <stop offset="0" stop-color="#ebebeb"/>
   <stop offset="1" stop-color="#848380"/>
  </linearGradient>
  <path style="fill:url(#gradient0)"
        d="M12.19 32.73C13.47 34.01 14.73 35.29 16 36.57C19.41 36.59 22.81 36.61 26.22 36.63C30.02 40.49 33.84 44.33 37.64 48.19C36.35 50.3 35.06 52.44 33.78 54.55C35.04 55.84 36.31 57.12 37.58 58.41C44.43 51.63 51.29 44.86 58.13 38.09C56.87 36.8 55.6 35.52 54.33 34.24C52.19 35.5 50.05 36.76 47.92 38.03C44.12 34.18 40.31 30.32 36.51 26.47C36.53 23.07 36.55 19.66 36.57 16.25C35.29 14.97 34.03 13.69 32.76 12.4C25.91 19.18 19.05 25.95 12.19 32.73V32.73V32.73V32.73z"
  />
 </g>
</svg>
