<?xml version="1.0" encoding="UTF-8" standalone="yes"?>
<svg version="1.1" width="64" height="64" color-interpolation="linearRGB"
     xmlns:svg="http://www.w3.org/2000/svg" xmlns="http://www.w3.org/2000/svg">
 <g>
  <path style="fill:none; stroke:#000000; stroke-opacity:0.3568; stroke-width:4"
        d="M22.41 41.56C16.87 47.11 11.34 52.64 5.8 58.19
           M32.63 51.79C33.91 50.51 35.18 49.24 36.45 47.97C36.45 44.55 36.45 41.15 36.45 37.75C40.29 33.92 44.11 30.08 47.95 26.25C50.07 27.54 52.21 28.81 54.33 30.08C55.61 28.81 56.88 27.54 58.17 26.25C51.35 19.45 44.53 12.63 37.73 5.82C36.44 7.1 35.17 8.37 33.9 9.65C35.17 11.78 36.44 13.91 37.73 16.03C33.9 19.86 30.06 23.69 26.23 27.52C22.83 27.52 19.43 27.52 16.01 27.52C14.74 28.8 13.47 30.07 12.19 31.35C19 38.16 25.82 44.98 32.63 51.79V51.79V51.79V51.79z
           M32.63 51.79C33.91 50.51 35.18 49.24 36.45 47.97C36.45 44.55 36.45 41.15 36.45 37.75C40.29 33.92 44.11 30.08 47.95 26.25C50.07 27.54 52.21 28.81 54.33 30.08C55.61 28.81 56.88 27.54 58.17 26.25C51.35 19.45 44.53 12.63 37.73 5.82C36.44 7.1 35.17 8.37 33.9 9.65C35.17 11.78 36.44 13.91 37.73 16.03C33.9 19.86 30.06 23.69 26.23 27.52C22.83 27.52 19.43 27.52 16.01 27.52C14.74 28.8 13.47 30.07 12.19 31.35C19 38.16 25.82 44.98 32.63 51.79V51.79V51.79V51.79z"
        transform="matrix(1,0,0,1,2,2)"
  />
  <path style="fill:none; stroke:#000000; stroke-width:3.6112; stroke-linecap:round; stroke-linejoin:round"
        d="M22.41 41.56C16.87 47.11 11.34 52.64 5.8 58.19"
  />
  <path style="fill:none; stroke:#bf5000; stroke-width:4.5139; stroke-linecap:round; stroke-linejoin:round"
        d="M32.63 51.79C33.91 50.51 35.18 49.24 36.45 47.97C36.45 44.55 36.45 41.15 36.45 37.75C40.29 33.92 44.11 30.08 47.95 26.25C50.07 27.54 52.21 28.81 54.33 30.08C55.61 28.81 56.88 27.54 58.17 26.25C51.35 19.45 44.53 12.63 37.73 5.82C36.44 7.1 35.17 8.37 33.9 9.65C35.17 11.78 36.44 13.91 37.73 16.03C33.9 19.86 30.06 23.69 26.23 27.52C22.83 27.52 19.43 27.52 16.01 27.52C14.74 28.8 13.47 30.07 12.19 31.35C19 38.16 25.82 44.98 32.63 51.79V51.79V51.79V51.79z"
  />
  <linearGradient id="gradient0" gradientUnits="userSpaceOnUse" x1="48.83" y1="11.01" x2="53.95" y2="26.42">
   <stop offset="0" stop-color="#ffff80"/>
   <stop offset="1" stop-color="#ffd500"/>
  </linearGradient>
  <path style="fill:url(#gradient0)"
        d="M32.63 51.79C33.91 50.51 35.18 49.24 36.45 47.97C36.45 44.55 36.45 41.15 36.45 37.75C40.29 33.92 44.11 30.08 47.95 26.25C50.07 27.54 52.21 28.81 54.33 30.08C55.61 28.81 56.88 27.54 58.17 26.25C51.35 19.45 44.53 12.63 37.73 5.82C36.44 7.1 35.17 8.37 33.9 9.65C35.17 11.78 36.44 13.91 37.73 16.03C33.9 19.86 30.06 23.69 26.23 27.52C22.83 27.52 19.43 27.52 16.01 27.52C14.74 28.8 13.47 30.07 12.19 31.35C19 38.16 25.82 44.98 32.63 51.79V51.79V51.79V51.79z"
  />
 </g>
</svg>
