<?xml version="1.0" encoding="UTF-8" standalone="yes"?>
<svg version="1.1" width="64" height="64" color-interpolation="linearRGB"
     xmlns:svg="http://www.w3.org/2000/svg" xmlns="http://www.w3.org/2000/svg">
 <g>
  <path style="fill:none; stroke:#000000; stroke-opacity:0.4; stroke-width:5.8206; stroke-linecap:round; stroke-linejoin:round"
        d="M12 6.62H57V60.17H12V6.62z"
        transform="matrix(0.8327,0,0,0.8713,5.0183,4.1154)"
  />
  <path style="fill:none; stroke:#000080; stroke-width:5.8206; stroke-linecap:round; stroke-linejoin:round"
        d="M9 3.8H54V57.36H9V3.8z"
        transform="matrix(0.8327,0,0,0.8713,5.0183,4.1154)"
  />
  <linearGradient id="gradient0" gradientUnits="userSpaceOnUse" x1="192" y1="3.8" x2="192" y2="57.36">
   <stop offset="0" stop-color="#ffffff"/>
   <stop offset="1" stop-color="#d9d9ff"/>
  </linearGradient>
  <path style="fill:url(#gradient0)"
        d="M9 3.8H54V57.36H9V3.8z"
        transform="matrix(0.8327,0,0,0.8713,5.0183,4.1154)"
  />
  <path style="fill:none; stroke:#003f80; stroke-width:5.8206; stroke-linecap:round; stroke-linejoin:round"
        d="M33 12.27V48.9H39L31.5 57.36L24 48.9H30V12.27H24L31.5 3.82L39 12.27H33z"
        transform="matrix(0.8327,0,0,0.8713,5.0183,4.1154)"
  />
  <linearGradient id="gradient1" gradientUnits="userSpaceOnUse" x1="192" y1="3.82" x2="192" y2="57.36">
   <stop offset="0" stop-color="#abd5ff"/>
   <stop offset="1" stop-color="#006cd9"/>
  </linearGradient>
  <path style="fill:url(#gradient1)"
        d="M33 12.27V48.9H39L31.5 57.36L24 48.9H30V12.27H24L31.5 3.82L39 12.27H33z"
        transform="matrix(0.8327,0,0,0.8713,5.0183,4.1154)"
  />
 </g>
</svg>
