<?xml version="1.0" encoding="UTF-8" standalone="yes"?>
<svg version="1.1" width="64" height="64" color-interpolation="linearRGB"
     xmlns:svg="http://www.w3.org/2000/svg" xmlns="http://www.w3.org/2000/svg">
 <g>
  <path style="fill:none; stroke:#000000; stroke-opacity:0.4; stroke-width:4.9083; stroke-linecap:round; stroke-linejoin:round"
        d="M6 24H16L36 6V58L16 40H6V24z"
        transform="matrix(1.0286,0,0,0.9495,1.8984,4.0466)"
  />
  <path style="fill:none; stroke:#000000; stroke-width:4.9083; stroke-linecap:round; stroke-linejoin:round"
        d="M6 24H16L36 6V58L16 40H6V24z"
        transform="matrix(1,0,0,0.9331,1,1.239)"
  />
  <linearGradient id="gradient0" gradientUnits="userSpaceOnUse" x1="162.06" y1="7.43" x2="162.06" y2="54.08">
   <stop offset="0" stop-color="#808080"/>
   <stop offset="1" stop-color="#282828"/>
  </linearGradient>
  <path style="fill:url(#gradient0)"
        d="M6 24H16L36 6V58L16 40H6V24z"
        transform="matrix(1,0,0,0.9331,1,1.239)"
  />
  <path style="fill:none; stroke:#000000; stroke-opacity:0.4; stroke-width:8; stroke-linecap:round; stroke-linejoin:round"
        d="M42 12L34 4L23 15L12 4L4 12L15 23L4 34L12 42L23 31L34 42L42 34L31 23L42 12z"
        transform="matrix(0.4528,0,0,0.4756,41.0372,21.0357)"
  />
  <path style="fill:none; stroke:#800000; stroke-width:8; stroke-linecap:round; stroke-linejoin:round"
        d="M40 10L32 2L21 13L10 2L2 10L13 21L2 32L10 40L21 29L32 40L40 32L29 21L40 10z"
        transform="matrix(0.4528,0,0,0.4756,41.0372,21.0357)"
  />
  <linearGradient id="gradient1" gradientUnits="userSpaceOnUse" x1="128" y1="6" x2="128" y2="40">
   <stop offset="0" stop-color="#ffabab"/>
   <stop offset="1" stop-color="#d90000"/>
  </linearGradient>
  <path style="fill:url(#gradient1)"
        d="M40 10L32 2L21 13L10 2L2 10L13 21L2 32L10 40L21 29L32 40L40 32L29 21L40 10z"
        transform="matrix(0.4528,0,0,0.4756,41.0372,21.0357)"
  />
 </g>
</svg>
