<?xml version="1.0" encoding="UTF-8" standalone="yes"?>
<svg version="1.1" width="64" height="64" color-interpolation="linearRGB"
     xmlns:svg="http://www.w3.org/2000/svg" xmlns="http://www.w3.org/2000/svg">
 <g>
  <path style="fill:none; stroke:#000000; stroke-opacity:0.4; stroke-width:4.8584; stroke-linecap:round; stroke-linejoin:round"
        d="M8.06 26.83H18.35L38.92 9.74V59.11L18.35 42.02H8.06V26.83z"
  />
  <path style="fill:none; stroke:#000000; stroke-width:4.7469; stroke-linecap:round; stroke-linejoin:round"
        d="M7 23.63H17L37 6.83V55.35L17 38.56H7V23.63z"
  />
  <linearGradient id="gradient0" gradientUnits="userSpaceOnUse" x1="163.05" y1="8.17" x2="163.05" y2="51.7">
   <stop offset="0" stop-color="#808080"/>
   <stop offset="1" stop-color="#282828"/>
  </linearGradient>
  <path style="fill:url(#gradient0)"
        d="M7 23.63H17L37 6.83V55.35L17 38.56H7V23.63z"
  />
  <path style="fill:none; stroke:#000000; stroke-opacity:0.4; stroke-width:3.7147; stroke-linecap:round; stroke-linejoin:round"
        d="M60.05 26.74L56.43 22.93L51.45 28.16L46.47 22.93L42.84 26.74L47.82 31.97L42.84 37.2L46.47 41.01L51.45 35.77L56.43 41.01L60.05 37.2L55.07 31.97L60.05 26.74z"
  />
  <path style="fill:none; stroke:#800000; stroke-width:3.7147; stroke-linecap:round; stroke-linejoin:round"
        d="M59.14 25.79L55.52 21.98L50.54 27.21L45.56 21.98L41.94 25.79L46.92 31.02L41.94 36.25L45.56 40.05L50.54 34.82L55.52 40.05L59.14 36.25L54.16 31.02L59.14 25.79z"
        transform="matrix(1,0,0,1,1,0)"
  />
  <linearGradient id="gradient1" gradientUnits="userSpaceOnUse" x1="98.99" y1="23.88" x2="98.99" y2="40.05">
   <stop offset="0" stop-color="#ffabab"/>
   <stop offset="1" stop-color="#d90000"/>
  </linearGradient>
  <path style="fill:url(#gradient1)"
        d="M59.14 25.79L55.52 21.98L50.54 27.21L45.56 21.98L41.94 25.79L46.92 31.02L41.94 36.25L45.56 40.05L50.54 34.82L55.52 40.05L59.14 36.25L54.16 31.02L59.14 25.79z"
        transform="matrix(1,0,0,1,1,0)"
  />
 </g>
</svg>
