<?xml version="1.0" encoding="UTF-8" standalone="yes"?>
<svg version="1.1" width="64" height="64" color-interpolation="linearRGB"
     xmlns:svg="http://www.w3.org/2000/svg" xmlns="http://www.w3.org/2000/svg">
 <g>
  <path style="fill:none; stroke:#000000; stroke-opacity:0.4; stroke-width:4.9083; stroke-linecap:round; stroke-linejoin:round"
        d="M6 24H16L36 6V58L16 40H6V24z"
        transform="matrix(1.0286,0,0,0.9495,1.8984,4.0466)"
  />
  <path style="fill:none; stroke:#000000; stroke-width:4.9083; stroke-linecap:round; stroke-linejoin:round"
        d="M6 24H16L36 6V58L16 40H6V24z"
        transform="matrix(1,0,0,0.9331,1,1.239)"
  />
  <linearGradient id="gradient0" gradientUnits="userSpaceOnUse" x1="162.06" y1="7.43" x2="162.06" y2="54.08">
   <stop offset="0" stop-color="#808080"/>
   <stop offset="1" stop-color="#282828"/>
  </linearGradient>
  <path style="fill:url(#gradient0)"
        d="M6 24H16L36 6V58L16 40H6V24z"
        transform="matrix(1,0,0,0.9331,1,1.239)"
  />
  <path style="fill:#000000; fill-opacity:0.4"
        d="M43 16C43 16 49 18 49 32C49 46 43 48 43 48C43 48 46 39.91 46 32C46 23.92 43 16 43 16z"
        transform="matrix(1.2962,0,0,1,-11.5185,0.9999)"
  />
  <path style="fill:#000000"
        d="M43 16C43 16 49 18 49 32C49 46 43 48 43 48C43 48 46 39.91 46 32C46 23.92 43 16 43 16z"
        transform="matrix(1.2962,0,0,1,-13.7407,-0)"
  />
  <path style="fill:#000000; fill-opacity:0.4"
        d="M43 16C43 16 49 18 49 32C49 46 43 48 43 48C43 48 46 39.91 46 32C46 23.92 43 16 43 16z"
        transform="matrix(1.3333,0,0,1.5,-4.3333,-15)"
  />
  <path style="fill:#000000"
        d="M43 16C43 16 49 18 49 32C49 46 43 48 43 48C43 48 46 39.91 46 32C46 23.92 43 16 43 16z"
        transform="matrix(1.3333,0,0,1.5,-6.3333,-16)"
  />
 </g>
</svg>
