<?xml version="1.0" encoding="UTF-8" standalone="yes"?>
<svg version="1.1" width="64" height="64" color-interpolation="linearRGB"
     xmlns:svg="http://www.w3.org/2000/svg" xmlns="http://www.w3.org/2000/svg">
 <g>
  <path style="fill:none; stroke:#000000; stroke-opacity:0.4; stroke-width:4; stroke-linecap:round; stroke-linejoin:round"
        d="M42 19L29 17L23 4L17 17L5 19L13 29L11 42L23 36L35 42L33 29L42 19z"
        transform="matrix(1.3027,0,0,1.2727,2.69,4)"
  />
  <path style="fill:none; stroke:#545454; stroke-width:4; stroke-linecap:round; stroke-linejoin:round"
        d="M40 17L27 15L21 2L15 15L3 17L11 27L9 40L21 34L33 40L31 27L40 17z"
        transform="matrix(1.3027,0,0,1.2727,2.69,4)"
  />
  <linearGradient id="gradient0" gradientUnits="userSpaceOnUse" x1="128" y1="1.99" x2="128" y2="40">
   <stop offset="0" stop-color="#ffffff"/>
   <stop offset="1" stop-color="#e5e5e5"/>
  </linearGradient>
  <path style="fill:url(#gradient0)"
        d="M40 17L27 15L21 2L15 15L3 17L11 27L9 40L21 34L33 40L31 27L40 17z"
        transform="matrix(1.3027,0,0,1.2727,2.69,4)"
  />
 </g>
</svg>
