<?xml version="1.0" encoding="UTF-8" standalone="yes"?>
<svg version="1.1" width="64" height="64" color-interpolation="linearRGB"
     xmlns:svg="http://www.w3.org/2000/svg" xmlns="http://www.w3.org/2000/svg">
 <g>
  <path style="fill:#000000; fill-opacity:0.345"
        d="M18.59 47.97C28.04 42.7 35.33 40.72 51.34 43.36C53.59 43.72 62.08 45.36 62.99 48.63C63.72 51.27 62.25 52.59 58.61 53.91C56.43 54.58 55.7 55.24 52.06 55.9C47.7 57.88 24.4 63.81 23.68 63.81C22.22 63.81 26 58.65 25.13 58.54C16.39 57.22 11.44 51.93 18.59 47.97V47.97V47.97V47.97V47.97z"
  />
  <path style="fill:#000000"
        d="M0.33 28.54C0.33 12.86 13.17 0.17 29.03 0.17C44.88 0.17 57.72 12.86 57.72 28.54C57.72 44.2 44.88 56.9 29.03 56.9C13.17 56.9 0.33 44.2 0.33 28.54V28.54V28.54V28.54V28.54z"
  />
  <radialGradient id="gradient0" gradientUnits="userSpaceOnUse" cx="0" cy="0" r="64" gradientTransform="matrix(-0.5827,0.0006,-0.0006,-0.5802,21.1508,16.3715)">
   <stop offset="0" stop-color="#92b8eb"/>
   <stop offset="1" stop-color="#1e5aa0"/>
  </radialGradient>
  <path style="fill:url(#gradient0)"
        d="M2.32 28.54C2.32 13.97 14.27 2.17 29.03 2.17C43.77 2.17 55.72 13.97 55.72 28.54C55.72 43.09 43.77 54.9 29.03 54.9C14.27 54.9 2.32 43.09 2.32 28.54V28.54V28.54V28.54V28.54z"
  />
  <path style="fill:#f1f1f1"
        d="M18.81 11.85C32.83 13.23 46.84 14.61 60.84 16C48.52 25.59 36.2 35.18 23.87 44.77C21.6 43.06 19.34 41.34 17.06 39.61C12.31 41.9 7.55 44.2 2.79 46.49C5.48 41.27 8.18 36.04 10.89 30.82C13.35 30.2 15.81 29.59 18.29 28.96C16.96 26.94 15.64 24.92 14.32 22.89C15.81 19.21 17.31 15.53 18.81 11.85V11.85V11.85V11.85V11.85z"
  />
  <path style="fill:none; stroke:#000000; stroke-width:4.1104; stroke-linecap:round; stroke-linejoin:round"
        d="M18.81 11.85C32.83 13.23 46.84 14.61 60.84 16C48.52 25.59 36.2 35.18 23.87 44.77C21.6 43.06 19.34 41.34 17.06 39.61C12.31 41.9 7.55 44.2 2.79 46.49C5.48 41.27 8.18 36.04 10.89 30.82C13.35 30.2 15.81 29.59 18.29 28.96C16.96 26.94 15.64 24.92 14.32 22.89C15.81 19.21 17.31 15.53 18.81 11.85V11.85V11.85V11.85V11.85z"
  />
  <path style="fill:#f1f1f1"
        d="M14.43 22.75C30.07 20.45 45.74 18.14 61.38 15.85C47.27 14.6 33.15 13.36 19.04 12.11C17.5 15.65 15.97 19.2 14.43 22.75V22.75V22.75V22.75V22.75z"
  />
  <linearGradient id="gradient1" gradientUnits="userSpaceOnUse" x1="49.09" y1="79.23" x2="32.74" y2="101.19">
   <stop offset="0" stop-color="#888a85"/>
   <stop offset="1" stop-color="#b0b2ae"/>
  </linearGradient>
  <path style="fill:url(#gradient1)"
        d="M16.52 38.4C18.96 40.41 21.42 42.43 23.87 44.43C35.97 34.97 48.06 25.48 60.15 16.02C45.61 23.47 31.06 30.94 16.52 38.4V38.4V38.4V38.4V38.4z"
  />
  <path style="fill:#f1f1f1"
        d="M60.47 16.35C44.02 21.19 27.56 26.04 11.11 30.88C8.43 35.97 5.76 41.04 3.07 46.13C22.2 36.2 41.34 26.27 60.47 16.35V16.35V16.35V16.35V16.35z"
  />
  <path style="fill:#c4c4c4"
        d="M14.32 22.69C15.68 24.75 17.03 26.79 18.38 28.86C32.47 24.6 46.58 20.34 60.68 16.07C45.22 18.28 29.78 20.47 14.32 22.69V22.69V22.69V22.69V22.69z"
  />
  <path style="fill:none; stroke:#000000; stroke-opacity:0.4; stroke-width:3.8854; stroke-linecap:round; stroke-linejoin:round"
        d="M60.94 46.01C59.68 44.69 58.42 43.37 57.16 42.05C55.42 43.86 53.68 45.68 51.94 47.5C50.2 45.68 48.46 43.86 46.72 42.05C45.45 43.37 44.18 44.69 42.92 46.01C44.66 47.84 46.39 49.66 48.13 51.47C46.39 53.3 44.66 55.12 42.92 56.95C44.18 58.27 45.45 59.59 46.72 60.91C48.46 59.1 50.2 57.27 51.94 55.45C53.68 57.27 55.42 59.1 57.16 60.91C58.42 59.59 59.68 58.27 60.94 56.95C59.2 55.12 57.46 53.3 55.72 51.47C57.46 49.66 59.2 47.84 60.94 46.01V46.01V46.01V46.01V46.01z"
        transform="matrix(1.0914,0,0,1.127,-5.7518,-6.976)"
  />
  <path style="fill:none; stroke:#800000; stroke-width:3.8854; stroke-linecap:round; stroke-linejoin:round"
        d="M61.04 45.03C59.78 43.71 58.51 42.38 57.25 41.04C55.51 42.87 53.77 44.69 52.03 46.5C50.3 44.69 48.56 42.87 46.82 41.04C45.55 42.38 44.28 43.71 43.01 45.03C44.75 46.85 46.49 48.67 48.23 50.49C46.49 52.31 44.75 54.13 43.01 55.95C44.28 57.27 45.55 58.6 46.82 59.91C48.56 58.09 50.3 56.28 52.03 54.45C53.77 56.28 55.51 58.09 57.25 59.91C58.51 58.6 59.78 57.27 61.04 55.95C59.3 54.13 57.56 52.31 55.82 50.49C57.56 48.67 59.3 46.85 61.04 45.03V45.03V45.03V45.03V45.03z"
        transform="matrix(1.0914,0,0,1.127,-5.7518,-6.976)"
  />
  <linearGradient id="gradient2" gradientUnits="userSpaceOnUse" x1="102.79" y1="43.03" x2="102.79" y2="59.91">
   <stop offset="0" stop-color="#ffabab"/>
   <stop offset="1" stop-color="#d90000"/>
  </linearGradient>
  <path style="fill:url(#gradient2)"
        d="M61.04 45.03C59.78 43.71 58.51 42.38 57.25 41.04C55.51 42.87 53.77 44.69 52.03 46.5C50.3 44.69 48.56 42.87 46.82 41.04C45.55 42.38 44.28 43.71 43.01 45.03C44.75 46.85 46.49 48.67 48.23 50.49C46.49 52.31 44.75 54.13 43.01 55.95C44.28 57.27 45.55 58.6 46.82 59.91C48.56 58.09 50.3 56.28 52.03 54.45C53.77 56.28 55.51 58.09 57.25 59.91C58.51 58.6 59.78 57.27 61.04 55.95C59.3 54.13 57.56 52.31 55.82 50.49C57.56 48.67 59.3 46.85 61.04 45.03V45.03V45.03V45.03V45.03z"
        transform="matrix(1.0914,0,0,1.127,-5.7518,-6.976)"
  />
 </g>
</svg>
