<?xml version="1.0" encoding="UTF-8" standalone="yes"?>
<svg version="1.1" width="64" height="64" color-interpolation="linearRGB"
     xmlns:svg="http://www.w3.org/2000/svg" xmlns="http://www.w3.org/2000/svg">
 <g>
  <path style="fill:#000000; fill-opacity:0.3411"
        d="M18.59 47.97C28.04 42.7 35.33 40.72 51.34 43.36C53.59 43.72 62.08 45.36 62.99 48.63C63.72 51.27 62.25 52.59 58.61 53.9C56.43 54.58 55.7 55.24 52.06 55.9C47.7 57.88 24.39 63.81 23.68 63.81C22.21 63.81 26 58.65 25.12 58.54C16.38 57.22 11.43 51.93 18.59 47.97V47.97V47.97V47.97V47.97V47.97V47.97z"
  />
  <path style="fill:#000000"
        d="M0.33 28.54C0.33 12.85 13.17 0.17 29.03 0.17C44.88 0.17 57.72 12.85 57.72 28.54C57.72 44.2 44.88 56.9 29.03 56.9C13.17 56.9 0.33 44.2 0.33 28.54V28.54V28.54V28.54V28.54V28.54V28.54z"
  />
  <radialGradient id="gradient0" gradientUnits="userSpaceOnUse" cx="0" cy="0" r="64" gradientTransform="matrix(-0.0006,-0.5802,0.5827,-0.0006,21.1508,16.3715)">
   <stop offset="0" stop-color="#92b8eb"/>
   <stop offset="1" stop-color="#1e5aa0"/>
  </radialGradient>
  <path style="fill:url(#gradient0)"
        d="M2.31 28.54C2.31 13.97 14.27 2.17 29.03 2.17C43.77 2.17 55.72 13.97 55.72 28.54C55.72 43.09 43.77 54.9 29.03 54.9C14.27 54.9 2.31 43.09 2.31 28.54V28.54V28.54V28.54V28.54V28.54V28.54z"
  />
  <path style="fill:#f1f1f1"
        d="M18.8 11.85C32.83 13.22 46.84 14.6 60.84 16C48.52 25.59 36.2 35.18 23.87 44.77C21.6 43.06 19.34 41.34 17.05 39.61C12.31 41.9 7.55 44.2 2.78 46.49C5.48 41.27 8.18 36.04 10.89 30.81C13.35 30.2 15.81 29.59 18.29 28.95C16.95 26.94 15.64 24.92 14.31 22.88C15.81 19.2 17.3 15.52 18.8 11.85V11.85V11.85V11.85V11.85V11.85V11.85z"
  />
  <path style="fill:none; stroke:#000000; stroke-width:4.1104; stroke-linecap:round; stroke-linejoin:round"
        d="M18.8 11.85C32.83 13.22 46.84 14.6 60.84 16C48.52 25.59 36.2 35.18 23.87 44.77C21.6 43.06 19.34 41.34 17.05 39.61C12.31 41.9 7.55 44.2 2.78 46.49C5.48 41.27 8.18 36.04 10.89 30.81C13.35 30.2 15.81 29.59 18.29 28.95C16.95 26.94 15.64 24.92 14.31 22.88C15.81 19.2 17.3 15.52 18.8 11.85V11.85V11.85V11.85V11.85V11.85V11.85z"
  />
  <path style="fill:#f1f1f1"
        d="M14.43 22.75C30.06 20.45 45.74 18.13 61.38 15.85C47.27 14.6 33.15 13.35 19.04 12.1C17.5 15.64 15.97 19.2 14.43 22.75V22.75V22.75V22.75V22.75V22.75V22.75z"
  />
  <linearGradient id="gradient1" gradientUnits="userSpaceOnUse" x1="49.09" y1="79.23" x2="32.74" y2="101.19">
   <stop offset="0" stop-color="#888a85"/>
   <stop offset="1" stop-color="#b0b2ae"/>
  </linearGradient>
  <path style="fill:url(#gradient1)"
        d="M16.52 38.4C18.95 40.4 21.42 42.43 23.87 44.43C35.97 34.97 48.06 25.47 60.15 16.02C45.61 23.46 31.05 30.94 16.52 38.4V38.4V38.4V38.4V38.4V38.4V38.4z"
  />
  <path style="fill:#f1f1f1"
        d="M60.47 16.35C44.02 21.19 27.55 26.04 11.1 30.87C8.43 35.97 5.76 41.04 3.06 46.13C22.2 36.2 41.34 26.27 60.47 16.35V16.35V16.35V16.35V16.35V16.35V16.35z"
  />
  <path style="fill:#c4c4c4"
        d="M14.31 22.69C15.68 24.75 17.03 26.79 18.37 28.86C32.47 24.6 46.58 20.34 60.68 16.06C45.22 18.28 29.78 20.46 14.31 22.69V22.69V22.69V22.69V22.69V22.69V22.69z"
  />
  <path style="fill:none; stroke:#000000; stroke-opacity:0.4; stroke-width:4; stroke-linecap:round; stroke-linejoin:round"
        d="M23 4C12.5 4 4 12.5 4 23C4 33.48 12.5 42 23 42C33.48 42 42 33.48 42 23C42 12.5 33.48 4 23 4V4V4z"
        transform="matrix(0.4565,0,0,0.4792,41.9128,40.9128)"
  />
  <path style="fill:none; stroke:#bf5000; stroke-width:8"
        d="M21 2C10.5 2 2 10.5 2 21C2 31.48 10.5 40 21 40C31.48 40 40 31.48 40 21C40 10.5 31.48 2 21 2V2V2z"
        transform="matrix(0.4565,0,0,0.4792,41.9128,40.9128)"
  />
  <linearGradient id="gradient2" gradientUnits="userSpaceOnUse" x1="128" y1="8" x2="128" y2="36">
   <stop offset="0" stop-color="#ffff80"/>
   <stop offset="1" stop-color="#ffd400"/>
  </linearGradient>
  <path style="fill:url(#gradient2)"
        d="M21 2C10.5 2 2 10.5 2 21C2 31.48 10.5 40 21 40C31.48 40 40 31.48 40 21C40 10.5 31.48 2 21 2V2V2z"
        transform="matrix(0.4565,0,0,0.4792,41.9128,40.9128)"
  />
 </g>
</svg>
