<?xml version="1.0" encoding="UTF-8" standalone="yes"?>
<svg version="1.1" width="64" height="64" color-interpolation="linearRGB"
     xmlns:svg="http://www.w3.org/2000/svg" xmlns="http://www.w3.org/2000/svg">
 <g>
  <path style="fill:#000000"
        d="M0.33 28.54C0.33 12.85 13.17 0.17 29.03 0.17C44.88 0.17 57.72 12.85 57.72 28.54C57.72 44.2 44.88 56.9 29.03 56.9C13.17 56.9 0.33 44.2 0.33 28.54V28.54V28.54V28.54V28.54V28.54V28.54V28.54V28.54V28.54V28.54z"
        transform="matrix(1,0,0,1,1,4)"
  />
  <radialGradient id="gradient0" gradientUnits="userSpaceOnUse" cx="0" cy="0" r="64" gradientTransform="matrix(0.0006,0.5802,-0.5827,0.0006,21.1508,16.3715)">
   <stop offset="0" stop-color="#92b8eb"/>
   <stop offset="1" stop-color="#1e5aa0"/>
  </radialGradient>
  <path style="fill:url(#gradient0)"
        d="M2.29 28.54C2.29 13.97 14.27 2.17 29.03 2.17C43.77 2.17 55.72 13.97 55.72 28.54C55.72 43.09 43.77 54.9 29.03 54.9C14.27 54.9 2.29 43.09 2.29 28.54V28.54V28.54V28.54V28.54V28.54V28.54V28.54V28.54V28.54V28.54z"
        transform="matrix(1,0,0,1,1,4)"
  />
  <path style="fill:#f1f1f1"
        d="M18.79 11.85C32.83 13.22 46.84 14.6 60.84 16C48.52 25.59 36.2 35.18 23.87 44.77C21.6 43.06 19.34 41.34 17.04 39.61C12.31 41.9 7.55 44.2 2.76 46.49C5.48 41.27 8.18 36.04 10.89 30.79C13.35 30.2 15.81 29.59 18.29 28.95C16.95 26.94 15.64 24.92 14.31 22.87C15.81 19.2 17.29 15.52 18.79 11.85V11.85V11.85V11.85V11.85V11.85V11.85V11.85V11.85V11.85V11.85z"
        transform="matrix(1,0,0,1,1,4)"
  />
  <path style="fill:none; stroke:#000000; stroke-width:4.1104; stroke-linecap:round; stroke-linejoin:round"
        d="M18.79 11.85C32.83 13.22 46.84 14.6 60.84 16C48.52 25.59 36.2 35.18 23.87 44.77C21.6 43.06 19.34 41.34 17.04 39.61C12.31 41.9 7.55 44.2 2.76 46.49C5.48 41.27 8.18 36.04 10.89 30.79C13.35 30.2 15.81 29.59 18.29 28.95C16.95 26.94 15.64 24.92 14.31 22.87C15.81 19.2 17.29 15.52 18.79 11.85V11.85V11.85V11.85V11.85V11.85V11.85V11.85V11.85V11.85V11.85z"
        transform="matrix(1,0,0,1,1,4)"
  />
  <path style="fill:#f1f1f1"
        d="M14.43 22.75C30.04 20.45 45.74 18.12 61.38 15.85C47.27 14.6 33.15 13.35 19.04 12.1C17.5 15.64 15.97 19.2 14.43 22.75V22.75V22.75V22.75V22.75V22.75V22.75V22.75V22.75V22.75V22.75z"
        transform="matrix(1,0,0,1,1,4)"
  />
  <linearGradient id="gradient1" gradientUnits="userSpaceOnUse" x1="49.09" y1="79.23" x2="32.74" y2="101.19">
   <stop offset="0" stop-color="#888a85"/>
   <stop offset="1" stop-color="#b0b2ae"/>
  </linearGradient>
  <path style="fill:url(#gradient1)"
        d="M16.52 38.4C18.95 40.4 21.42 42.43 23.87 44.43C35.97 34.97 48.06 25.45 60.15 16.02C45.61 23.45 31.04 30.94 16.52 38.4V38.4V38.4V38.4V38.4V38.4V38.4V38.4V38.4V38.4V38.4z"
        transform="matrix(1,0,0,1,1,4)"
  />
  <path style="fill:#f1f1f1"
        d="M60.47 16.35C44.02 21.19 27.54 26.04 11.1 30.87C8.43 35.97 5.76 41.04 3.04 46.13C22.2 36.2 41.34 26.27 60.47 16.35V16.35V16.35V16.35V16.35V16.35V16.35V16.35V16.35V16.35V16.35z"
        transform="matrix(1,0,0,1,1,4)"
  />
  <path style="fill:#c4c4c4"
        d="M14.31 22.69C15.68 24.75 17.03 26.79 18.37 28.86C32.47 24.6 46.58 20.34 60.68 16.04C45.22 18.28 29.78 20.45 14.31 22.69V22.69V22.69V22.69V22.69V22.69V22.69V22.69V22.69V22.69V22.69z"
        transform="matrix(1,0,0,1,1,4)"
  />
  <path style="fill:none; stroke:#353535; stroke-width:3.7426"
        d="M51.48 41.86C46.69 41.86 42.8 45.93 42.8 50.96C42.8 55.98 46.69 60.06 51.48 60.06C56.27 60.06 60.16 55.98 60.16 50.96C60.16 45.93 56.27 41.86 51.48 41.86V41.86V41.86V41.86V41.86V41.86V41.86z"
  />
  <linearGradient id="gradient2" gradientUnits="userSpaceOnUse" x1="100.34" y1="41.85" x2="100.34" y2="60.06">
   <stop offset="0" stop-color="#ffffff"/>
   <stop offset="1" stop-color="#a5a5a5"/>
  </linearGradient>
  <path style="fill:url(#gradient2)"
        d="M51.48 41.86C46.69 41.86 42.8 45.93 42.8 50.96C42.8 55.98 46.69 60.06 51.48 60.06C56.27 60.06 60.16 55.98 60.16 50.96C60.16 45.93 56.27 41.86 51.48 41.86V41.86V41.86V41.86V41.86V41.86V41.86z"
  />
 </g>
</svg>
